<?xml version="1.0" encoding="UTF-8"?>
<svg id="Ebene_2" data-name="Ebene 2" xmlns="http://www.w3.org/2000/svg" xmlns:xlink="http://www.w3.org/1999/xlink" viewBox="0 0 313.18 87.74">
  <defs>
    <style>
      .cls-1 {
        fill: none;
      }

      .cls-1, .cls-2 {
        stroke-width: 0px;
      }

      .cls-3 {
        clip-path: url(#clippath-1);
      }

      .cls-2 {
        fill: #fff;
      }

      .cls-4 {
        clip-path: url(#clippath);
      }
    </style>
    <clipPath id="clippath">
      <rect class="cls-1" y=".4" width="48.07" height="87.14"/>
    </clipPath>
    <clipPath id="clippath-1">
      <rect class="cls-1" y=".4" width="48.07" height="87.14"/>
    </clipPath>
  </defs>
  <g id="Ebene_1-2" data-name="Ebene 1-2">
    <g>
      <g>
        <path class="cls-2" d="m63.17,46.58c-1.67-.95-2.93-2.33-3.83-4.11s-1.32-3.94-1.32-6.47V12.02c0-2.53.43-4.72,1.32-6.5.89-1.78,2.16-3.16,3.83-4.11,1.67-.95,3.65-1.41,5.98-1.41s4.34.46,6.01,1.41c1.67.95,2.93,2.3,3.8,4.11s1.32,3.97,1.32,6.5v2.88h-7.19v-2.88c0-1.04-.14-1.93-.46-2.68-.29-.75-.75-1.32-1.35-1.73s-1.32-.58-2.16-.58-1.52.2-2.1.58-1.04.95-1.35,1.7c-.32.75-.49,1.64-.49,2.7v23.96c0,1.06.17,1.96.49,2.68s.78,1.29,1.35,1.67,1.29.58,2.1.58c.86,0,1.58-.2,2.16-.6s1.04-.98,1.32-1.7c.32-.72.46-1.64.46-2.68v-2.88h7.19v2.88c0,2.53-.46,4.69-1.32,6.5s-2.13,3.19-3.8,4.11c-1.67.95-3.68,1.41-5.98,1.41s-4.32-.49-5.98-1.44v.06Z"/>
        <path class="cls-2" d="m85.07.49h7.11v47.01h-7.11s0-47.01,0-47.01Zm3.34,40.25h16.6v6.76h-16.6v-6.76Z"/>
        <path class="cls-2" d="m116.19,47.5h-7.11V.49h7.11v47.01Z"/>
        <path class="cls-2" d="m146.11.49h6.47v47.01h-6.42V13.29l.52,2.07-7.45,24.17h-4l-7.42-23.5.72-2.7v34.21h-6.59V.49h6.7l8.63,27.56L146.11.49Z"/>
        <path class="cls-2" d="m166.8.49h5.64l11.05,47.01h-7.28l-6.59-34.12-6.59,34.12h-7.28L166.8.49Zm-3.74,31.59h13.38v6.62h-13.38v-6.62Z"/>
        <path class="cls-2" d="m182.76.49h23.22v6.76h-23.22V.49Zm8.08,3.88h7.05v43.12h-7.05V4.37Z"/>
        <path class="cls-2" d="m210.12.49h7.11v47.01h-7.11V.49Zm3.39,0h17.17v6.82h-17.17V.49Zm0,20.28h15.56v6.79h-15.56v-6.79Zm0,19.91h17.17v6.82h-17.17v-6.82Z"/>
        <path class="cls-2" d="m235.15.49h7.11v47.01h-7.11V.49Zm3.97,20.51h15.07v6.7h-15.07v-6.7ZM250.11.49h7.11v47.01h-7.11V.49Z"/>
        <path class="cls-2" d="m267.89,46.63c-1.64-.89-2.91-2.19-3.74-3.91s-1.27-3.77-1.27-6.19V.49h7.11v36.28c0,1.35.35,2.39,1.01,3.11.66.72,1.61,1.09,2.85,1.09s2.22-.35,2.91-1.09c.69-.72,1.01-1.75,1.01-3.11V.49h7.11v36.05c0,2.42-.43,4.49-1.32,6.19s-2.13,3.02-3.77,3.91c-1.64.89-3.62,1.35-5.95,1.35s-4.29-.46-5.93-1.35Z"/>
        <path class="cls-2" d="m289.87.49h7.11v47.01h-7.11V.49Zm4.23,40.36h7.39c1.21,0,2.13-.32,2.79-.92s.98-1.47.98-2.56v-6.21c0-.98-.14-1.84-.46-2.53s-.78-1.24-1.38-1.61c-.6-.37-1.32-.55-2.13-.55h-7.19v-6.62h7.08c1.12,0,1.98-.37,2.62-1.12.6-.75.92-1.81.92-3.19v-4.92c0-1.09-.32-1.96-.89-2.56-.6-.6-1.47-.89-2.56-.89h-7.13V.49h7.48c2.13,0,3.97.37,5.49,1.12,1.52.75,2.7,1.84,3.48,3.25s1.21,3.16,1.21,5.15v5.01c0,1.47-.26,2.76-.78,3.85-.52,1.12-1.24,2.01-2.19,2.73s-2.1,1.21-3.45,1.47c1.5.23,2.76.69,3.8,1.41s1.84,1.7,2.42,2.88c.55,1.18.83,2.56.83,4.11v6.3c0,2.04-.4,3.8-1.18,5.24s-1.93,2.56-3.42,3.31c-1.5.78-3.28,1.15-5.41,1.15h-8.29v-6.67l-.03.06Z"/>
      </g>
      <g id="Bildmaterial_1" data-name="Bildmaterial 1">
        <g class="cls-4">
          <g class="cls-3">
            <g>
              <path class="cls-2" d="m48.07,63.46c0-11.79-8.54-21.86-20.2-23.73-1.29,1.04-2.04,2.56-2.1,4.2,0,2.16,1.44,4.09,3.62,5.26,7.91,2.93,11.94,11.74,9,19.62-2.93,7.91-11.74,11.94-19.62,9-7.91-2.93-11.94-11.74-9-19.62,1.32-3.57,3.91-6.5,7.28-8.23h0l.14-.09c.52-.26,1.06-.46,1.58-.66,2.22-1.18,3.62-3.11,3.62-5.26-.06-1.64-.81-3.19-2.1-4.2C7.22,41.77-1.75,54.05.29,67.17c2.04,13.12,14.33,22.09,27.42,20.05,11.71-1.81,20.34-11.91,20.34-23.73h0l.03-.03Z"/>
              <path class="cls-2" d="m48.07,24.45c0,11.79-8.54,21.86-20.2,23.73-1.29-1.04-2.04-2.56-2.1-4.2,0-2.16,1.44-4.09,3.62-5.26,7.91-2.93,11.94-11.74,9-19.65-2.93-7.91-11.74-11.94-19.65-9s-11.94,11.74-9,19.65c1.32,3.57,3.91,6.5,7.28,8.26h0l.14.09c.52.26,1.06.49,1.58.66,2.22,1.18,3.62,3.11,3.62,5.26-.06,1.64-.81,3.19-2.1,4.2C7.22,46.11-1.75,33.83.29,20.74,2.33,7.62,14.61-1.35,27.73.69c11.71,1.81,20.34,11.91,20.34,23.73h0v.03Z"/>
            </g>
          </g>
        </g>
      </g>
      <g>
        <path class="cls-2" d="m58.49,56.93h4.95v30.06h-4.95v-30.06Zm2.04,0h17.66v4.75h-17.66v-4.75Zm0,12.77h15.39v4.72h-15.39v-4.72Zm0,12.54h17.66v4.75h-17.66v-4.75Z"/>
        <path class="cls-2" d="m83.8,56.9h4.95v30.09h-4.95v-30.09Zm2.04,12.95h10.36c.69,0,1.29-.17,1.84-.52s.95-.81,1.24-1.44.43-1.35.46-2.16c0-.81-.14-1.52-.43-2.16-.29-.63-.69-1.09-1.24-1.44s-1.15-.52-1.84-.52h-10.36v-4.75h10.5c1.7,0,3.19.37,4.46,1.09,1.29.72,2.27,1.75,2.99,3.11.72,1.32,1.06,2.88,1.06,4.63s-.35,3.31-1.06,4.66-1.7,2.36-2.99,3.11-2.76,1.09-4.46,1.09h-10.5v-4.75l-.03.03Zm7.25,3.8l5.12-.95,7.91,14.3h-5.93l-7.08-13.35h-.03Z"/>
        <path class="cls-2" d="m111.39,56.93h4.95v30.06h-4.95v-30.06Zm2.3,25.32h17.4v4.75h-17.4v-4.75Z"/>
        <path class="cls-2" d="m144.47,56.93h3.6l11.28,30.06h-5.32l-7.77-22.38-7.77,22.38h-5.32l11.28-30.06h.03Zm-5.98,19.62h15.82v4.75h-15.82v-4.75Z"/>
        <path class="cls-2" d="m163.49,56.93h5.38l12.95,23.13-.49.55v-23.68h4.8v30.03h-5.41l-12.89-22.78.49-.55v23.33h-4.8v-30.03h-.03Z"/>
        <path class="cls-2" d="m214.12,70.48v5.55c0,2.24-.43,4.2-1.32,5.9s-2.13,3.02-3.77,3.94c-1.61.92-3.51,1.38-5.64,1.38s-4.06-.43-5.7-1.32c-1.64-.86-2.91-2.1-3.83-3.71-.89-1.61-1.35-3.45-1.35-5.55v-8.86c0-2.24.43-4.2,1.32-5.9.89-1.7,2.16-3.02,3.77-3.94,1.61-.92,3.51-1.38,5.64-1.38,1.75,0,3.37.37,4.86,1.09,1.5.75,2.73,1.78,3.71,3.14.98,1.35,1.67,2.91,2.01,4.69h-5.32c-.23-.83-.6-1.52-1.15-2.13s-1.15-1.04-1.87-1.35c-.72-.32-1.47-.46-2.24-.46-1.12,0-2.13.26-2.96.78s-1.5,1.24-1.98,2.19-.69,2.04-.69,3.28v8.86c0,1.12.23,2.1.72,2.93s1.15,1.5,2.04,1.96c.86.46,1.9.69,3.02.69s2.13-.23,2.96-.72c.86-.49,1.52-1.21,1.98-2.13s.69-2.04.69-3.31v-.92h-5.32v-4.75h10.41v.06Z"/>
        <path class="cls-2" d="m220.1,56.93h4.95v30.06h-4.95v-30.06Zm2.04,0h17.66v4.75h-17.66v-4.75Zm0,12.77h15.39v4.72h-15.39v-4.72Zm0,12.54h17.66v4.75h-17.66v-4.75Z"/>
        <path class="cls-2" d="m245.42,56.93h5.38l12.95,23.13-.49.55v-23.68h4.8v30.03h-5.41l-12.89-22.78.49-.55v23.33h-4.8v-30.03h-.03Z"/>
      </g>
    </g>
  </g>
</svg>