<?xml version="1.0" standalone="no"?>
<!DOCTYPE svg PUBLIC "-//W3C//DTD SVG 1.1//EN" "http://www.w3.org/Graphics/SVG/1.1/DTD/svg11.dtd">
<svg xmlns="http://www.w3.org/2000/svg" xmlns:xlink="http://www.w3.org/1999/xlink" id="Ebene_2" viewBox="0 0 366.6 87.74" width="366.6000061035156" height="87.73999786376953"><defs><style>.cls-1{fill:none;}.cls-1,.cls-2,.cls-3,.cls-4{stroke-width:0px;}.cls-2{fill:#207279;}.cls-5{clip-path:url(#clippath-1);}.cls-6{clip-path:url(#clippath);}.cls-3{fill:#207178;}.cls-4{fill:#484848;}</style><clipPath id="clippath"><rect class="cls-1" y=".4" width="47.96" height="86.93"/></clipPath><clipPath id="clippath-1"><rect class="cls-1" y=".4" width="47.96" height="86.93"/></clipPath></defs><g id="Ebene_1-2"><path class="cls-4" d="M63.02,46.46c-1.66-.95-2.93-2.32-3.82-4.1s-1.32-3.93-1.32-6.46V12c0-2.53.43-4.71,1.32-6.49.89-1.78,2.15-3.16,3.82-4.1C64.69.46,66.67,0,68.99,0s4.33.46,6,1.41c1.66.95,2.93,2.3,3.79,4.1s1.32,3.96,1.32,6.49v2.87h-7.17v-2.87c0-1.03-.14-1.92-.46-2.67-.29-.75-.75-1.32-1.35-1.72s-1.32-.57-2.15-.57-1.52.2-2.1.57-1.03.95-1.35,1.69c-.32.75-.49,1.64-.49,2.7v23.91c0,1.06.17,1.95.49,2.67s.77,1.29,1.35,1.66,1.29.57,2.1.57c.86,0,1.58-.2,2.15-.6s1.03-.98,1.32-1.69c.32-.72.46-1.64.46-2.67v-2.87h7.17v2.87c0,2.53-.46,4.68-1.32,6.49s-2.12,3.19-3.79,4.1c-1.66.95-3.67,1.41-5.97,1.41s-4.3-.49-5.97-1.43v.06Z"/><path class="cls-4" d="M84.87.49h7.09v46.9h-7.09V.49ZM88.19,40.64h16.56v6.74h-16.56v-6.74Z"/><path class="cls-4" d="M115.92,47.38h-7.09V.49h7.09v46.9Z"/><path class="cls-4" d="M145.77.49h6.46v46.9h-6.4V13.26l.52,2.07-7.43,24.11h-3.99l-7.4-23.45.72-2.7v34.12h-6.57V.49h6.69l8.61,27.49L145.77.49Z"/><path class="cls-4" d="M166.4.49h5.63l11.02,46.9h-7.26l-6.57-34.04-6.57,34.04h-7.26L166.4.49ZM162.67,32h13.35v6.6h-13.35v-6.6Z"/><path class="cls-4" d="M182.33.49h23.16v6.74h-23.16V.49ZM190.39,4.36h7.03v43.02h-7.03V4.36Z"/><path class="cls-4" d="M209.62.49h7.09v46.9h-7.09V.49ZM213.01.49h17.13v6.8h-17.13V.49ZM213.01,20.72h15.53v6.77h-15.53v-6.77ZM213.01,40.58h17.13v6.8h-17.13v-6.8Z"/><path class="cls-4" d="M234.59.49h7.09v46.9h-7.09V.49ZM238.55,20.95h15.04v6.69h-15.04v-6.69ZM249.52.49h7.09v46.9h-7.09V.49Z"/><path class="cls-4" d="M267.25,46.52c-1.64-.89-2.9-2.18-3.73-3.9s-1.26-3.76-1.26-6.17V.49h7.09v36.19c0,1.35.34,2.38,1,3.1.66.72,1.61,1.09,2.84,1.09s2.21-.34,2.9-1.09c.69-.72,1-1.75,1-3.1V.49h7.09v35.96c0,2.41-.43,4.48-1.32,6.17s-2.12,3.01-3.76,3.9c-1.64.89-3.62,1.35-5.94,1.35s-4.28-.46-5.91-1.35Z"/><path class="cls-4" d="M289.18.49h7.09v46.9h-7.09V.49ZM293.4,40.75h7.38c1.21,0,2.12-.32,2.78-.92s.98-1.46.98-2.55v-6.2c0-.98-.14-1.84-.46-2.53s-.77-1.23-1.38-1.61c-.6-.37-1.32-.55-2.12-.55h-7.17v-6.6h7.06c1.12,0,1.98-.37,2.61-1.12.6-.75.92-1.81.92-3.19v-4.91c0-1.09-.32-1.95-.89-2.55-.6-.6-1.46-.89-2.55-.89h-7.12V.49h7.46c2.12,0,3.96.37,5.48,1.12,1.52.75,2.7,1.84,3.47,3.24s1.21,3.16,1.21,5.14v4.99c0,1.46-.26,2.76-.77,3.85-.52,1.12-1.23,2.01-2.18,2.73s-2.1,1.21-3.44,1.46c1.49.23,2.76.69,3.79,1.41s1.84,1.69,2.41,2.87c.55,1.18.83,2.55.83,4.1v6.29c0,2.04-.4,3.79-1.18,5.22s-1.92,2.55-3.42,3.3c-1.49.77-3.27,1.15-5.4,1.15h-8.27v-6.66l-.03.06Z"/><g id="Bildmaterial_1"><g class="cls-6"><g class="cls-5"><path class="cls-2" d="M47.96,63.31c0-11.77-8.52-21.81-20.15-23.68-1.29,1.03-2.04,2.55-2.1,4.19,0,2.15,1.43,4.08,3.62,5.25,7.89,2.93,11.91,11.71,8.98,19.57-2.93,7.89-11.71,11.91-19.57,8.98-7.89-2.93-11.91-11.71-8.98-19.57,1.32-3.56,3.9-6.49,7.26-8.21h0l.14-.09c.52-.26,1.06-.46,1.58-.66,2.21-1.18,3.62-3.1,3.62-5.25-.06-1.64-.8-3.19-2.1-4.19C7.2,41.67-1.75,53.93.29,67.01c2.04,13.09,14.29,22.04,27.35,20,11.68-1.81,20.29-11.88,20.29-23.68h0l.03-.03Z"/><path class="cls-4" d="M47.96,24.39c0,11.77-8.52,21.81-20.15,23.68-1.29-1.03-2.04-2.55-2.1-4.19,0-2.15,1.43-4.08,3.62-5.25,7.89-2.93,11.91-11.71,8.98-19.6-2.93-7.89-11.71-11.91-19.6-8.98-7.89,2.93-11.91,11.71-8.98,19.6,1.32,3.56,3.9,6.49,7.26,8.24h0l.14.09c.52.26,1.06.49,1.58.66,2.21,1.18,3.62,3.1,3.62,5.25-.06,1.64-.8,3.19-2.1,4.19C7.2,46.01-1.75,33.75.29,20.69,2.32,7.61,14.58-1.35,27.67.69c11.68,1.81,20.29,11.88,20.29,23.68h0v.03Z"/></g></g></g><path class="cls-3" d="M58.35,86.76v-29.67h4.88v29.67h-4.88ZM60.37,61.76v-4.67h17.45v4.67h-17.45ZM60.37,74.35v-4.65h15.2v4.65h-15.2ZM60.37,86.76v-4.67h17.45v4.67h-17.45Z"/><path class="cls-3" d="M96.14,76.88l7.18-19.79h5.63v29.67h-4.57v-22.63l.2,1.31-6.49,17.61h-3.92l-6.49-17.2.2-1.71v22.63h-4.57v-29.67h5.63l7.18,19.79Z"/><path class="cls-3" d="M128.71,76.88l7.18-19.79h5.63v29.67h-4.57v-22.63l.2,1.31-6.49,17.61h-3.92l-6.49-17.2.2-1.71v22.63h-4.57v-29.67h5.63l7.18,19.79Z"/><path class="cls-3" d="M148.46,86.76v-29.67h4.88v29.67h-4.88ZM150.48,61.76v-4.67h17.45v4.67h-17.45ZM150.48,74.35v-4.65h15.2v4.65h-15.2ZM150.48,86.76v-4.67h17.45v4.67h-17.45Z"/><path class="cls-3" d="M173.44,86.74v-29.65h5.31l12.77,22.83-.49.53v-23.36h4.73v29.65h-5.35l-12.73-22.49.49-.53v23.02h-4.73Z"/><path class="cls-3" d="M202.7,86.76v-29.67h4.88v29.67h-4.88ZM205.51,86.76v-4.67h6.92c2.01,0,3.57-.51,4.68-1.52,1.11-1.01,1.66-2.44,1.66-4.28v-8.73c0-1.85-.55-3.28-1.66-4.29s-2.67-1.51-4.68-1.51h-6.92v-4.67h6.79c3.66,0,6.49.93,8.49,2.79,2,1.86,3,4.47,3,7.85v8.41c0,2.18-.44,4.06-1.32,5.65-.88,1.59-2.17,2.82-3.89,3.68-1.71.86-3.82,1.3-6.31,1.3h-6.77Z"/><path class="cls-3" d="M234.49,57.09v29.67h-4.98v-29.67h4.98Z"/><path class="cls-3" d="M241.22,86.74v-29.65h5.31l12.77,22.83-.49.53v-23.36h4.73v29.65h-5.35l-12.73-22.49.49-.53v23.02h-4.73Z"/><path class="cls-3" d="M280.89,70.48h10.29v5.49c0,2.23-.44,4.18-1.32,5.85-.88,1.67-2.11,2.96-3.69,3.88-1.58.92-3.45,1.38-5.58,1.38s-4.03-.43-5.63-1.29c-1.6-.86-2.85-2.08-3.74-3.65s-1.34-3.4-1.34-5.5v-8.75c0-2.23.44-4.18,1.33-5.84.88-1.66,2.12-2.95,3.69-3.87,1.58-.92,3.43-1.38,5.57-1.38,1.77,0,3.38.37,4.83,1.1,1.45.73,2.67,1.76,3.65,3.08s1.65,2.86,1.99,4.63h-5.26c-.34-1.25-1.01-2.21-2.01-2.89-1-.67-2.06-1.01-3.19-1.01-1.69,0-3.04.56-4.05,1.69-1.01,1.13-1.52,2.62-1.52,4.47v8.75c0,1.67.52,3.01,1.56,4.02,1.04,1.01,2.42,1.51,4.13,1.51s3.04-.54,4.05-1.61c1.01-1.07,1.52-2.57,1.52-4.49v-.9h-5.26v-4.67Z"/><path class="cls-3" d="M297.1,86.76v-29.67h4.88v29.67h-4.88ZM299.12,61.76v-4.67h17.45v4.67h-17.45ZM299.12,74.35v-4.65h15.2v4.65h-15.2ZM299.12,86.76v-4.67h17.45v4.67h-17.45Z"/><path class="cls-3" d="M322.07,86.74v-29.65h5.31l12.77,22.83-.49.53v-23.36h4.73v29.65h-5.35l-12.73-22.49.49-.53v23.02h-4.73Z"/></g></svg>