<?xml version="1.0" encoding="UTF-8"?>
<svg id="Ebene_2" data-name="Ebene 2" xmlns="http://www.w3.org/2000/svg" xmlns:xlink="http://www.w3.org/1999/xlink" viewBox="0 0 457.47 87.74">
  <defs>
    <style>
      .cls-1 {
        fill: none;
      }

      .cls-1, .cls-2, .cls-3, .cls-4, .cls-5 {
        stroke-width: 0px;
      }

      .cls-2 {
        fill: #207279;
      }

      .cls-6 {
        clip-path: url(#clippath-1);
      }

      .cls-7 {
        clip-path: url(#clippath);
      }

      .cls-3 {
        fill: #207178;
      }

      .cls-4 {
        fill: #484848;
      }

      .cls-5 {
        fill: #484848;
      }
    </style>
    <clipPath id="clippath">
      <rect class="cls-1" y=".4" width="47.96" height="86.93"/>
    </clipPath>
    <clipPath id="clippath-1">
      <rect class="cls-1" y=".4" width="47.96" height="86.93"/>
    </clipPath>
  </defs>
  <g>
    <path class="cls-4" d="M57.67,43.76V.49h6.55v43.26h-6.55ZM60.8,6.77V.49h15.8v6.28h-15.8ZM60.8,25.4v-6.25h14.31v6.25h-14.31ZM60.8,43.76v-6.28h15.8v6.28h-15.8Z"/>
    <path class="cls-4" d="M81,43.76V12.87h6.58v30.88h-6.58ZM93.68,43.76v-21.6c0-1.29-.25-2.26-.76-2.9-.51-.64-1.27-.97-2.31-.97s-1.8.33-2.29,1c-.5.67-.74,1.64-.74,2.93l-.62-4.05c.65-1.96,1.59-3.43,2.8-4.39,1.21-.96,2.56-1.44,4.05-1.44,2.06,0,3.65.7,4.76,2.1,1.11,1.4,1.67,3.4,1.67,6v23.33h-6.55Z"/>
    <path class="cls-4" d="M115.4,44.2c-3.03,0-5.4-.86-7.08-2.57s-2.53-4.15-2.53-7.3v-11.54c0-3.33.82-5.91,2.47-7.72,1.65-1.81,3.95-2.72,6.9-2.72s5.35.86,6.99,2.59c1.65,1.73,2.47,4.18,2.47,7.35v8.45h-13.87v-5.06h7.59v-3.48c0-1.27-.28-2.26-.83-2.96-.56-.7-1.34-1.06-2.35-1.06s-1.73.37-2.28,1.12c-.55.74-.82,1.8-.82,3.17v12.08c0,1.19.29,2.11.86,2.75.57.64,1.4.97,2.47.97.97,0,1.73-.25,2.26-.76.54-.51.8-1.21.8-2.13v-.62l6.25.03v.54c0,2.82-.81,5-2.44,6.56-1.63,1.56-3.92,2.34-6.87,2.34Z"/>
    <path class="cls-4" d="M130.27,43.76V12.87h6.55v30.88h-6.55ZM144.76,19.03c-.18.02-.39.03-.62.03h-.86c-2.02,0-3.6.55-4.73,1.64-1.13,1.09-1.71,2.58-1.73,4.46l-.62-6.9c.93-1.84,2.14-3.29,3.63-4.34,1.49-1.05,3.13-1.58,4.94-1.58v6.7Z"/>
    <path class="cls-4" d="M154.58,44.29c-2.04,0-3.64-.77-4.78-2.31-1.14-1.54-1.71-3.71-1.71-6.53v-14.16c0-2.84.57-5.04,1.71-6.61,1.14-1.57,2.73-2.35,4.78-2.35,1.37,0,2.63.49,3.79,1.46,1.16.97,2.09,2.33,2.78,4.08l-.62,4.05c0-.79-.12-1.46-.36-2.01-.24-.55-.58-.96-1.01-1.25-.44-.29-.97-.43-1.61-.43-.95,0-1.7.32-2.23.97-.54.65-.8,1.56-.8,2.75v12.94c0,1.11.27,1.97.8,2.57.54.61,1.28.91,2.23.91.63,0,1.17-.14,1.61-.42.44-.28.77-.69,1.01-1.24.24-.54.36-1.19.36-1.95l.42,4.14c-.54,1.69-1.36,3-2.47,3.96-1.11.95-2.41,1.43-3.9,1.43ZM157.47,56.31c-2.92,0-5.18-.77-6.8-2.31-1.62-1.54-2.43-3.7-2.43-6.5v-1.13l6.49-.03v1.1c0,.93.26,1.66.77,2.17.52.52,1.24.77,2.17.77s1.59-.25,2.1-.76c.51-.5.76-1.21.76-2.13V12.87h6.52v34.63c0,2.8-.84,4.96-2.51,6.5s-4.03,2.31-7.07,2.31Z"/>
    <path class="cls-4" d="M172.94,7.19V.7h6.49v6.49h-6.49ZM172.94,43.76V12.87h6.49v30.88h-6.49Z"/>
    <path class="cls-4" d="M194.31,44.2c-3.03,0-5.4-.86-7.08-2.57s-2.53-4.15-2.53-7.3v-11.54c0-3.33.82-5.91,2.47-7.72,1.65-1.81,3.95-2.72,6.9-2.72s5.35.86,6.99,2.59c1.65,1.73,2.47,4.18,2.47,7.35v8.45h-13.87v-5.06h7.59v-3.48c0-1.27-.28-2.26-.83-2.96-.56-.7-1.34-1.06-2.35-1.06s-1.73.37-2.28,1.12c-.55.74-.82,1.8-.82,3.17v12.08c0,1.19.29,2.11.86,2.75.57.64,1.4.97,2.47.97.97,0,1.73-.25,2.26-.76.54-.51.8-1.21.8-2.13v-.62l6.25.03v.54c0,2.82-.81,5-2.44,6.56-1.63,1.56-3.92,2.34-6.87,2.34Z"/>
    <path class="cls-4" d="M213.08,32.21L218.11.49h4.94l5.03,31.72,2.98-31.72h6.58l-5.74,43.26h-6.63l-4.49-28.68-4.82,28.68h-6.64L203.53.49h6.58l2.98,31.72Z"/>
    <path class="cls-4" d="M247.15,44.2c-3.03,0-5.4-.86-7.08-2.57s-2.53-4.15-2.53-7.3v-11.54c0-3.33.82-5.91,2.47-7.72,1.65-1.81,3.95-2.72,6.9-2.72s5.35.86,6.99,2.59c1.65,1.73,2.47,4.18,2.47,7.35v8.45h-13.87v-5.06h7.59v-3.48c0-1.27-.28-2.26-.83-2.96-.56-.7-1.34-1.06-2.35-1.06s-1.73.37-2.28,1.12c-.55.74-.82,1.8-.82,3.17v12.08c0,1.19.29,2.11.86,2.75.57.64,1.4.97,2.47.97.97,0,1.73-.25,2.26-.76.54-.51.8-1.21.8-2.13v-.62l6.25.03v.54c0,2.82-.81,5-2.44,6.56-1.63,1.56-3.92,2.34-6.87,2.34Z"/>
    <path class="cls-4" d="M262.03,43.76V12.87h6.58v30.88h-6.58ZM274.7,43.76v-21.6c0-1.29-.25-2.26-.76-2.9-.51-.64-1.27-.97-2.31-.97s-1.8.33-2.29,1c-.5.67-.74,1.64-.74,2.93l-.62-4.05c.65-1.96,1.59-3.43,2.8-4.39,1.21-.96,2.56-1.44,4.05-1.44,2.06,0,3.65.7,4.76,2.1,1.11,1.4,1.67,3.4,1.67,6v23.33h-6.55Z"/>
    <path class="cls-4" d="M293.27,44.29c-2.04,0-3.63-.77-4.76-2.31-1.13-1.54-1.7-3.71-1.7-6.53v-14.16c0-2.84.57-5.04,1.71-6.61,1.14-1.57,2.72-2.35,4.75-2.35,1.37,0,2.63.49,3.79,1.46,1.16.97,2.09,2.33,2.78,4.08l-.62,4.14c0-.79-.11-1.46-.34-2.01-.23-.54-.56-.96-1-1.25-.44-.29-.97-.43-1.61-.43-.95,0-1.69.32-2.22.97-.53.64-.79,1.56-.79,2.75v12.76c0,1.11.26,1.97.79,2.57.53.6,1.26.91,2.22.91.63,0,1.17-.14,1.61-.42.44-.28.77-.69,1-1.23.23-.55.34-1.2.34-1.95l.42,4.23c-.52,1.69-1.33,3-2.44,3.96-1.11.95-2.42,1.43-3.93,1.43ZM299.22,43.76V.49h6.55v43.26h-6.55Z"/>
    <path class="cls-4" d="M320.94,44.2c-3.03,0-5.4-.86-7.08-2.57s-2.53-4.15-2.53-7.3v-11.54c0-3.33.82-5.91,2.47-7.72,1.65-1.81,3.95-2.72,6.9-2.72s5.35.86,6.99,2.59c1.65,1.73,2.47,4.18,2.47,7.35v8.45h-13.87v-5.06h7.59v-3.48c0-1.27-.28-2.26-.83-2.96-.56-.7-1.34-1.06-2.35-1.06s-1.73.37-2.28,1.12c-.55.74-.82,1.8-.82,3.17v12.08c0,1.19.29,2.11.86,2.75.57.64,1.4.97,2.47.97.97,0,1.73-.25,2.26-.76.54-.51.8-1.21.8-2.13v-.62l6.25.03v.54c0,2.82-.81,5-2.44,6.56-1.63,1.56-3.92,2.34-6.87,2.34Z"/>
    <path class="cls-4" d="M335.52,43.76V.49h6.55v43.26h-6.55ZM339.18,25.52v-6.16h13.87v6.16h-13.87ZM349.27,43.76V.49h6.55v43.26h-6.55Z"/>
    <path class="cls-4" d="M368.19,12.87v22.7c0,.95.24,1.67.71,2.14.48.48,1.19.71,2.14.71s1.63-.25,2.1-.76c.47-.51.7-1.24.7-2.22l.42,3.42c-.54,1.79-1.28,3.12-2.23,4-.95.88-2.15,1.32-3.6,1.32-2.22,0-3.9-.71-5.03-2.14-1.13-1.43-1.7-3.55-1.7-6.37V12.87h6.49ZM373.84,43.76V12.87h6.49v30.88h-6.49Z"/>
    <path class="cls-4" d="M386.52,43.76V.49h6.55v43.26h-6.55ZM398.66,44.2c-1.41,0-2.64-.46-3.7-1.38-1.06-.92-1.83-2.23-2.31-3.91l.42-4.58c0,.83.12,1.55.36,2.14.24.6.58,1.05,1.01,1.35.44.31.97.46,1.61.46.93,0,1.66-.36,2.19-1.09.53-.72.79-1.72.79-2.99v-12.02c0-1.25-.26-2.22-.79-2.9-.53-.68-1.25-1.03-2.19-1.03-.63,0-1.17.14-1.61.43-.44.29-.77.71-1.01,1.28-.24.56-.36,1.26-.36,2.1l-.62-4.08c.67-1.8,1.58-3.2,2.71-4.18,1.13-.98,2.37-1.47,3.72-1.47,2.1,0,3.73.8,4.88,2.4,1.15,1.6,1.73,3.85,1.73,6.77v13.36c0,2.98-.6,5.28-1.79,6.9-1.19,1.63-2.87,2.44-5.03,2.44Z"/>
  </g>
  <g id="Bildmaterial_1" data-name="Bildmaterial 1">
    <g class="cls-7">
      <g class="cls-6">
        <g>
          <path class="cls-2" d="M47.96,63.31c0-11.77-8.52-21.81-20.15-23.68-1.29,1.03-2.04,2.55-2.1,4.19,0,2.15,1.43,4.08,3.62,5.25,7.89,2.93,11.91,11.71,8.98,19.57-2.93,7.89-11.71,11.91-19.57,8.98-7.89-2.93-11.91-11.71-8.98-19.57,1.32-3.56,3.9-6.49,7.26-8.21h0l.14-.09c.52-.26,1.06-.46,1.58-.66,2.21-1.18,3.62-3.1,3.62-5.25-.06-1.64-.8-3.19-2.1-4.19C7.2,41.67-1.75,53.93.29,67.01c2.04,13.09,14.29,22.04,27.35,20,11.68-1.81,20.29-11.88,20.29-23.68h0l.03-.03Z"/>
          <path class="cls-5" d="M47.96,24.39c0,11.77-8.52,21.81-20.15,23.68-1.29-1.03-2.04-2.55-2.1-4.19,0-2.15,1.43-4.08,3.62-5.25,7.89-2.93,11.91-11.71,8.98-19.6-2.93-7.89-11.71-11.91-19.6-8.98s-11.91,11.71-8.98,19.6c1.32,3.56,3.9,6.49,7.26,8.24h0l.14.09c.52.26,1.06.49,1.58.66,2.21,1.18,3.62,3.1,3.62,5.25-.06,1.64-.8,3.19-2.1,4.19C7.2,46.01-1.75,33.75.29,20.69,2.32,7.61,14.58-1.35,27.67.69c11.68,1.81,20.29,11.88,20.29,23.68h0v.03Z"/>
        </g>
      </g>
    </g>
  </g>
  <g>
    <path class="cls-3" d="M58.27,87.01v-29.01h4.77v29.01h-4.77ZM60.24,62.57v-4.57h17.06v4.57h-17.06ZM60.24,74.88v-4.55h14.86v4.55h-14.86ZM60.24,87.01v-4.57h17.06v4.57h-17.06Z"/>
    <path class="cls-3" d="M95.22,77.36l7.02-19.35h5.51v29.01h-4.47v-22.13l.2,1.28-6.34,17.22h-3.83l-6.34-16.82.2-1.68v22.13h-4.47v-29.01h5.51l7.02,19.35Z"/>
    <path class="cls-3" d="M127.06,77.36l7.02-19.35h5.51v29.01h-4.47v-22.13l.2,1.28-6.34,17.22h-3.83l-6.34-16.82.2-1.68v22.13h-4.47v-29.01h5.51l7.02,19.35Z"/>
    <path class="cls-3" d="M146.37,87.01v-29.01h4.77v29.01h-4.77ZM148.35,62.57v-4.57h17.06v4.57h-17.06ZM148.35,74.88v-4.55h14.86v4.55h-14.86ZM148.35,87.01v-4.57h17.06v4.57h-17.06Z"/>
    <path class="cls-3" d="M170.79,86.99v-28.99h5.19l12.49,22.33-.48.52v-22.84h4.63v28.99h-5.23l-12.45-21.99.48-.52v22.51h-4.63Z"/>
    <path class="cls-3" d="M199.4,87.01v-29.01h4.77v29.01h-4.77ZM202.16,87.01v-4.57h6.76c1.97,0,3.49-.5,4.58-1.49,1.08-.99,1.63-2.38,1.63-4.18v-8.54c0-1.81-.54-3.21-1.63-4.19s-2.61-1.48-4.58-1.48h-6.76v-4.57h6.64c3.58,0,6.34.91,8.3,2.72,1.96,1.82,2.93,4.37,2.93,7.67v8.22c0,2.13-.43,3.97-1.29,5.53s-2.12,2.76-3.8,3.6c-1.68.84-3.73,1.27-6.16,1.27h-6.62Z"/>
    <path class="cls-3" d="M230.49,58v29.01h-4.87v-29.01h4.87Z"/>
    <path class="cls-3" d="M237.07,86.99v-28.99h5.19l12.49,22.33-.48.52v-22.84h4.63v28.99h-5.23l-12.45-21.99.48-.52v22.51h-4.63Z"/>
    <path class="cls-3" d="M275.86,71.09h10.06v5.37c0,2.18-.43,4.09-1.29,5.72-.86,1.63-2.06,2.89-3.61,3.79-1.55.9-3.37,1.35-5.46,1.35s-3.94-.42-5.51-1.27c-1.57-.84-2.79-2.04-3.66-3.57-.87-1.54-1.31-3.33-1.31-5.38v-8.56c0-2.18.43-4.08,1.3-5.71.86-1.62,2.07-2.88,3.61-3.78s3.36-1.35,5.45-1.35c1.73,0,3.3.36,4.72,1.08,1.42.72,2.61,1.72,3.57,3.01.96,1.29,1.61,2.8,1.95,4.53h-5.15c-.33-1.22-.99-2.17-1.96-2.82-.98-.66-2.02-.99-3.12-.99-1.65,0-2.97.55-3.96,1.66-.99,1.1-1.49,2.56-1.49,4.37v8.56c0,1.64.51,2.95,1.53,3.93s2.36,1.48,4.04,1.48,2.97-.53,3.96-1.58c.99-1.05,1.49-2.51,1.49-4.39v-.88h-5.15v-4.57Z"/>
    <path class="cls-3" d="M291.7,87.01v-29.01h4.77v29.01h-4.77ZM293.67,62.57v-4.57h17.06v4.57h-17.06ZM293.67,74.88v-4.55h14.86v4.55h-14.86ZM293.67,87.01v-4.57h17.06v4.57h-17.06Z"/>
    <path class="cls-3" d="M316.12,86.99v-28.99h5.19l12.49,22.33-.48.52v-22.84h4.63v28.99h-5.23l-12.45-21.99.48-.52v22.51h-4.63Z"/>
  </g>
</svg>