<?xml version="1.0" standalone="no"?>
<!DOCTYPE svg PUBLIC "-//W3C//DTD SVG 1.1//EN" "http://www.w3.org/Graphics/SVG/1.1/DTD/svg11.dtd">
<svg xmlns="http://www.w3.org/2000/svg" xmlns:xlink="http://www.w3.org/1999/xlink" id="Ebene_2" viewBox="0 0 301.57 84.65" width="301.57000732421875" height="84.6500015258789"><defs><style>.cls-1{fill:none;}.cls-2{clip-path:url(#clippath-1);}.cls-3{fill:#207279;}.cls-4{fill:#484848;}.cls-5{clip-path:url(#clippath);}.cls-6{fill:#207178;}</style><clipPath id="clippath"><rect class="cls-1" x="0" y=".39" width="46.24" height="83.83"/></clipPath><clipPath id="clippath-1"><rect class="cls-1" x="0" y=".39" width="46.24" height="83.83"/></clipPath></defs><path class="cls-4" d="M60.77,44.81c-1.61-.91-2.82-2.24-3.68-3.96s-1.27-3.79-1.27-6.23V11.57c0-2.44.42-4.54,1.27-6.25.86-1.72,2.08-3.04,3.68-3.96C62.38.44,64.29,0,66.53,0s4.18.44,5.78,1.36c1.61.91,2.82,2.21,3.65,3.96s1.27,3.82,1.27,6.25v2.77h-6.92v-2.77c0-1-.14-1.85-.44-2.57-.28-.72-.72-1.27-1.3-1.66s-1.27-.55-2.08-.55-1.47.19-2.02.55-1,.91-1.3,1.63c-.3.72-.47,1.58-.47,2.6v23.05c0,1.02.17,1.88.47,2.57s.75,1.25,1.3,1.61,1.25.55,2.02.55c.83,0,1.52-.19,2.08-.58s1-.94,1.27-1.63c.3-.69.44-1.58.44-2.57v-2.77h6.92v2.77c0,2.44-.44,4.51-1.27,6.25s-2.05,3.07-3.65,3.96c-1.61.91-3.54,1.36-5.76,1.36s-4.15-.47-5.76-1.38v.06Z"/><path class="cls-4" d="M81.83.47h6.84v45.22h-6.84s0-45.22,0-45.22ZM85.04,39.19h15.97v6.5h-15.97v-6.5Z"/><path class="cls-4" d="M111.78,45.69h-6.84V.47h6.84v45.22Z"/><path class="cls-4" d="M140.56.47h6.23v45.22h-6.17V12.79l.5,1.99-7.17,23.25h-3.85l-7.14-22.61.69-2.6v32.91h-6.34V.47h6.45l8.3,26.51L140.56.47Z"/><path class="cls-4" d="M160.46.47h5.42l10.63,45.22h-7l-6.34-32.82-6.34,32.82h-7L160.46.47ZM156.86,30.86h12.87v6.37h-12.87v-6.37Z"/><path class="cls-4" d="M175.82.47h22.33v6.5h-22.33V.47ZM183.59,4.21h6.78v41.48h-6.78V4.21Z"/><path class="cls-4" d="M202.14.47h6.84v45.22h-6.84V.47ZM205.4.47h16.52v6.56h-16.52V.47ZM205.4,19.98h14.97v6.53h-14.97v-6.53ZM205.4,39.13h16.52v6.56h-16.52v-6.56Z"/><path class="cls-4" d="M226.21.47h6.84v45.22h-6.84V.47ZM230.03,20.2h14.5v6.45h-14.5v-6.45ZM240.6.47h6.84v45.22h-6.84V.47Z"/><path class="cls-4" d="M257.71,44.86c-1.58-.86-2.8-2.1-3.6-3.76s-1.22-3.63-1.22-5.95V.47h6.84v34.9c0,1.3.33,2.3.97,2.99.64.69,1.55,1.05,2.74,1.05s2.13-.33,2.8-1.05c.66-.69.97-1.69.97-2.99V.47h6.84v34.68c0,2.32-.42,4.32-1.27,5.95s-2.05,2.91-3.63,3.76c-1.58.86-3.49,1.3-5.73,1.3s-4.12-.44-5.7-1.3Z"/><path class="cls-4" d="M278.85.47h6.84v45.22h-6.84V.47ZM282.92,39.3h7.11c1.16,0,2.05-.3,2.68-.89s.94-1.41.94-2.46v-5.98c0-.94-.14-1.77-.44-2.44s-.75-1.19-1.33-1.55c-.58-.36-1.27-.53-2.05-.53h-6.92v-6.37h6.81c1.08,0,1.91-.36,2.52-1.08.58-.72.89-1.74.89-3.07v-4.73c0-1.05-.3-1.88-.86-2.46-.58-.58-1.41-.86-2.46-.86h-6.86V.47h7.2c2.05,0,3.82.36,5.29,1.08,1.47.72,2.6,1.77,3.35,3.13s1.16,3.04,1.16,4.95v4.82c0,1.41-.25,2.66-.75,3.71-.5,1.08-1.19,1.94-2.1,2.63s-2.02,1.16-3.32,1.41c1.44.22,2.66.66,3.65,1.36s1.77,1.63,2.32,2.77c.53,1.13.8,2.46.8,3.96v6.06c0,1.96-.39,3.65-1.13,5.04s-1.85,2.46-3.29,3.18c-1.44.75-3.15,1.11-5.2,1.11h-7.97v-6.42l-.03.06Z"/><g id="Bildmaterial_1"><g class="cls-5"><g class="cls-2"><path class="cls-3" d="M46.24,61.05c0-11.35-8.22-21.03-19.43-22.83-1.25,1-1.96,2.46-2.02,4.04,0,2.08,1.38,3.93,3.49,5.06,7.61,2.82,11.49,11.29,8.66,18.87-2.82,7.61-11.29,11.49-18.87,8.66-7.61-2.82-11.49-11.29-8.66-18.87,1.27-3.43,3.76-6.25,7-7.91h0l.14-.08c.5-.25,1.02-.44,1.52-.64,2.13-1.13,3.49-2.99,3.49-5.06-.06-1.58-.77-3.07-2.02-4.04C6.95,40.18-1.69,52,.28,64.62c1.96,12.62,13.78,21.25,26.37,19.29,11.26-1.74,19.57-11.46,19.57-22.83h0l.03-.03Z"/><path class="cls-4" d="M46.24,23.52c0,11.35-8.22,21.03-19.43,22.83-1.25-1-1.96-2.46-2.02-4.04,0-2.08,1.38-3.93,3.49-5.06,7.61-2.82,11.49-11.29,8.66-18.9-2.82-7.61-11.29-11.49-18.9-8.66s-11.49,11.29-8.66,18.9c1.27,3.43,3.76,6.25,7,7.94h0l.14.08c.5.25,1.02.47,1.52.64,2.13,1.13,3.49,2.99,3.49,5.06-.06,1.58-.77,3.07-2.02,4.04C6.95,44.36-1.69,32.55.28,19.95,2.24,7.33,14.06-1.3,26.68.66c11.26,1.74,19.57,11.46,19.57,22.83h0v.03Z"/></g></g></g><path class="cls-6" d="M56.26,83.66v-28.52h4.69v28.52h-4.69ZM59.5,78.32l-.04-6.49,12.01-16.69h5.85l-17.81,23.19ZM72.88,83.66l-8.67-14.83,3.88-2.92,10.42,17.75h-5.63Z"/><path class="cls-6" d="M79.29,83.66l10.71-28.52h3.41l10.71,28.52h-5.04l-7.38-21.25-7.38,21.25h-5.04ZM84.33,78.25v-4.49h15.01v4.49h-15.01Z"/><path class="cls-6" d="M115.25,83.95c-1.37,0-2.69-.13-3.95-.4-1.26-.27-2.44-.66-3.54-1.19-1.1-.52-2.11-1.17-3.04-1.94l2.49-3.75c1.1.93,2.33,1.63,3.7,2.11s2.82.72,4.35.72c1.91,0,3.39-.34,4.44-1.02,1.05-.68,1.58-1.64,1.58-2.88v-.02c0-.95-.26-1.69-.79-2.2-.53-.51-1.23-.89-2.09-1.13-.86-.24-1.8-.45-2.83-.62-1.08-.17-2.19-.38-3.31-.64-1.12-.26-2.14-.65-3.08-1.2-.93-.54-1.69-1.32-2.26-2.33-.57-1.01-.85-2.36-.85-4.05v-.02c0-2.72.9-4.83,2.7-6.32,1.8-1.49,4.34-2.24,7.62-2.24,1.53,0,3.06.25,4.59.76,1.53.5,2.99,1.25,4.38,2.23l-2.28,3.86c-1.1-.8-2.22-1.4-3.35-1.79-1.14-.4-2.25-.6-3.33-.6-1.8,0-3.2.33-4.19.99s-1.48,1.59-1.48,2.8v.02c0,.99.29,1.75.87,2.27s1.34.9,2.28,1.15c.93.25,1.95.48,3.03.71,1.07.21,2.14.46,3.21.77,1.07.3,2.04.73,2.91,1.29s1.58,1.34,2.11,2.32c.53.99.79,2.27.79,3.86v.04c0,2.69-.93,4.78-2.79,6.25-1.86,1.47-4.49,2.21-7.88,2.21Z"/><path class="cls-6" d="M139.2,83.95c-1.37,0-2.69-.13-3.95-.4-1.26-.27-2.44-.66-3.54-1.19-1.1-.52-2.11-1.17-3.04-1.94l2.49-3.75c1.1.93,2.33,1.63,3.7,2.11s2.82.72,4.35.72c1.91,0,3.39-.34,4.44-1.02,1.05-.68,1.58-1.64,1.58-2.88v-.02c0-.95-.26-1.69-.79-2.2-.53-.51-1.23-.89-2.09-1.13-.86-.24-1.8-.45-2.83-.62-1.08-.17-2.19-.38-3.31-.64-1.12-.26-2.14-.65-3.08-1.2-.93-.54-1.69-1.32-2.26-2.33-.57-1.01-.85-2.36-.85-4.05v-.02c0-2.72.9-4.83,2.7-6.32,1.8-1.49,4.34-2.24,7.62-2.24,1.53,0,3.06.25,4.59.76,1.53.5,2.99,1.25,4.38,2.23l-2.28,3.86c-1.1-.8-2.22-1.4-3.35-1.79-1.14-.4-2.25-.6-3.33-.6-1.8,0-3.2.33-4.19.99s-1.48,1.59-1.48,2.8v.02c0,.99.29,1.75.87,2.27s1.34.9,2.28,1.15c.93.25,1.95.48,3.03.71,1.07.21,2.14.46,3.21.77,1.07.3,2.04.73,2.91,1.29s1.58,1.34,2.11,2.32c.53.99.79,2.27.79,3.86v.04c0,2.69-.93,4.78-2.79,6.25-1.86,1.47-4.49,2.21-7.88,2.21Z"/><path class="cls-6" d="M154.78,83.66v-28.52h4.69v28.52h-4.69ZM156.72,59.63v-4.49h16.77v4.49h-16.77ZM156.72,71.73v-4.47h14.62v4.47h-14.62ZM156.72,83.66v-4.49h16.77v4.49h-16.77Z"/><path class="cls-6" d="M178.79,83.66v-28.52h4.69v28.52h-4.69ZM180.99,83.66v-4.49h16.52v4.49h-16.52Z"/></svg>