<?xml version="1.0" encoding="UTF-8"?><svg id="Ebene_2" xmlns="http://www.w3.org/2000/svg" xmlns:xlink="http://www.w3.org/1999/xlink" viewBox="0 0 313.18 87.74"><defs><style>.cls-1{fill:none;}.cls-1,.cls-2{stroke-width:0px;}.cls-3{clip-path:url(#clippath-1);}.cls-2{fill:#fff;}.cls-4{clip-path:url(#clippath);}</style><clipPath id="clippath"><rect class="cls-1" x="0" y=".39" width="46.24" height="83.83"/></clipPath><clipPath id="clippath-1"><rect class="cls-1" x="0" y=".39" width="46.24" height="83.83"/></clipPath></defs><path class="cls-2" d="M60.77,44.81c-1.61-.91-2.82-2.24-3.68-3.96s-1.27-3.79-1.27-6.23V11.57c0-2.44.42-4.54,1.27-6.25.86-1.72,2.08-3.04,3.68-3.96C62.38.44,64.29,0,66.53,0s4.18.44,5.78,1.36c1.61.91,2.82,2.21,3.65,3.96s1.27,3.82,1.27,6.25v2.77h-6.92v-2.77c0-1-.14-1.85-.44-2.57-.28-.72-.72-1.27-1.3-1.66s-1.27-.55-2.08-.55-1.47.19-2.02.55-1,.91-1.3,1.63c-.3.72-.47,1.58-.47,2.6v23.05c0,1.02.17,1.88.47,2.57s.75,1.25,1.3,1.61,1.25.55,2.02.55c.83,0,1.52-.19,2.08-.58s1-.94,1.27-1.63c.3-.69.44-1.58.44-2.57v-2.77h6.92v2.77c0,2.44-.44,4.51-1.27,6.25s-2.05,3.07-3.65,3.96c-1.61.91-3.54,1.36-5.76,1.36s-4.15-.47-5.76-1.38v.06Z"/><path class="cls-2" d="M81.83.47h6.84v45.22h-6.84s0-45.22,0-45.22ZM85.04,39.19h15.97v6.5h-15.97v-6.5Z"/><path class="cls-2" d="M111.78,45.69h-6.84V.47h6.84v45.22Z"/><path class="cls-2" d="M140.56.47h6.23v45.22h-6.17V12.79l.5,1.99-7.17,23.25h-3.85l-7.14-22.61.69-2.6v32.91h-6.34V.47h6.45l8.3,26.51L140.56.47Z"/><path class="cls-2" d="M160.46.47h5.42l10.63,45.22h-7l-6.34-32.82-6.34,32.82h-7L160.46.47ZM156.86,30.86h12.87v6.37h-12.87v-6.37Z"/><path class="cls-2" d="M175.82.47h22.33v6.5h-22.33V.47ZM183.59,4.21h6.78v41.48h-6.78V4.21Z"/><path class="cls-2" d="M202.14.47h6.84v45.22h-6.84V.47ZM205.4.47h16.52v6.56h-16.52V.47ZM205.4,19.98h14.97v6.53h-14.97v-6.53ZM205.4,39.13h16.52v6.56h-16.52v-6.56Z"/><path class="cls-2" d="M226.21.47h6.84v45.22h-6.84V.47ZM230.03,20.2h14.5v6.45h-14.5v-6.45ZM240.6.47h6.84v45.22h-6.84V.47Z"/><path class="cls-2" d="M257.71,44.86c-1.58-.86-2.8-2.1-3.6-3.76s-1.22-3.63-1.22-5.95V.47h6.84v34.9c0,1.3.33,2.3.97,2.99.64.69,1.55,1.05,2.74,1.05s2.13-.33,2.8-1.05c.66-.69.97-1.69.97-2.99V.47h6.84v34.68c0,2.32-.42,4.32-1.27,5.95s-2.05,2.91-3.63,3.76c-1.58.86-3.49,1.3-5.73,1.3s-4.12-.44-5.7-1.3Z"/><path class="cls-2" d="M278.85.47h6.84v45.22h-6.84V.47ZM282.92,39.3h7.11c1.16,0,2.05-.3,2.68-.89s.94-1.41.94-2.46v-5.98c0-.94-.14-1.77-.44-2.44s-.75-1.19-1.33-1.55c-.58-.36-1.27-.53-2.05-.53h-6.92v-6.37h6.81c1.08,0,1.91-.36,2.52-1.08.58-.72.89-1.74.89-3.07v-4.73c0-1.05-.3-1.88-.86-2.46-.58-.58-1.41-.86-2.46-.86h-6.86V.47h7.2c2.05,0,3.82.36,5.29,1.08,1.47.72,2.6,1.77,3.35,3.13s1.16,3.04,1.16,4.95v4.82c0,1.41-.25,2.66-.75,3.71-.5,1.08-1.19,1.94-2.1,2.63s-2.02,1.16-3.32,1.41c1.44.22,2.66.66,3.65,1.36s1.77,1.63,2.32,2.77c.53,1.13.8,2.46.8,3.96v6.06c0,1.96-.39,3.65-1.13,5.04s-1.85,2.46-3.29,3.18c-1.44.75-3.15,1.11-5.2,1.11h-7.97v-6.42l-.03.06Z"/><g class="cls-4"><g class="cls-3"><path class="cls-2" d="M46.24,61.05c0-11.35-8.22-21.03-19.43-22.83-1.25,1-1.96,2.46-2.02,4.04,0,2.08,1.38,3.93,3.49,5.06,7.61,2.82,11.49,11.29,8.66,18.87-2.82,7.61-11.29,11.49-18.87,8.66-7.61-2.82-11.49-11.29-8.66-18.87,1.27-3.43,3.76-6.25,7-7.91h0l.14-.08c.5-.25,1.02-.44,1.52-.64,2.13-1.13,3.49-2.99,3.49-5.06-.06-1.58-.77-3.07-2.02-4.04C6.95,40.18-1.69,52,.28,64.62c1.96,12.62,13.78,21.25,26.37,19.29,11.26-1.74,19.57-11.46,19.57-22.83h0l.03-.03Z"/><path class="cls-2" d="M46.24,23.52c0,11.35-8.22,21.03-19.43,22.83-1.25-1-1.96-2.46-2.02-4.04,0-2.08,1.38-3.93,3.49-5.06,7.61-2.82,11.49-11.29,8.66-18.9s-11.29-11.49-18.9-8.66-11.49,11.29-8.66,18.9c1.27,3.43,3.76,6.25,7,7.94h0l.14.08c.5.25,1.02.47,1.52.64,2.13,1.13,3.49,2.99,3.49,5.06-.06,1.58-.77,3.07-2.02,4.04C6.95,44.36-1.69,32.55.28,19.95,2.24,7.33,14.06-1.3,26.68.66c11.26,1.74,19.57,11.46,19.57,22.83h0v.03Z"/></g></g><path class="cls-2" d="M75.55,55.05h5.43v28.61h-4.41v-21.82l.2,1.26-6.26,16.98h-3.78l-6.26-16.59.2-1.65v21.82h-4.41v-28.61h5.43l6.93,19.09,6.93-19.09Z"/><path class="cls-2" d="M95.26,55.05h3.42l10.74,28.61h-5.06l-7.4-21.31-7.4,21.31h-5.06l10.74-28.61ZM89.58,73.72h15.05v4.51h-15.05v-4.51Z"/><path class="cls-2" d="M113.37,55.03h4.7v28.63h-4.7v-28.63ZM115.31,67.35h9.86c.66,0,1.24-.16,1.74-.48.5-.32.9-.78,1.17-1.37.28-.59.42-1.28.43-2.07,0-.77-.14-1.46-.41-2.05-.28-.59-.67-1.05-1.17-1.37-.51-.32-1.09-.48-1.76-.48h-9.86v-4.51h10c1.61,0,3.03.35,4.25,1.04,1.22.7,2.17,1.68,2.84,2.95s1.01,2.74,1.01,4.41-.34,3.16-1.01,4.43-1.63,2.26-2.85,2.95c-1.23.7-2.64,1.04-4.24,1.04h-10v-4.51ZM122.22,70.97l4.88-.91,7.52,13.6h-5.65l-6.75-12.69Z"/><path class="cls-2" d="M139.63,55.05h4.68v28.61h-4.68v-28.61ZM142,79.21h8.44c1.64,0,2.86-.34,3.66-1.03.8-.69,1.2-1.65,1.2-2.88v-.06c0-.85-.16-1.58-.47-2.18-.32-.6-.8-1.07-1.46-1.39-.66-.32-1.47-.48-2.44-.48h-8.93v-4.41h8.93c1.3,0,2.29-.32,2.97-.94.68-.63,1.02-1.54,1.02-2.74s-.36-2.08-1.08-2.69c-.72-.61-1.78-.92-3.19-.92h-8.66v-4.45h9.11c1.85,0,3.41.31,4.69.93,1.28.62,2.24,1.51,2.89,2.67s.97,2.54.97,4.15c0,1.05-.21,2-.62,2.86-.41.86-1.02,1.58-1.83,2.16s-1.79.97-2.96,1.18c1.21.17,2.24.57,3.11,1.19.87.62,1.53,1.42,1.99,2.38.46.96.69,2.04.69,3.24v.06c0,1.59-.34,2.97-1.03,4.14-.69,1.17-1.68,2.08-2.97,2.71s-2.82.94-4.59.94h-9.45v-4.45Z"/><path class="cls-2" d="M169.37,82.71c-1.53-.83-2.7-2.05-3.5-3.64-.8-1.59-1.2-3.51-1.2-5.76v-18.26h4.7v18.4c0,1.86.48,3.31,1.45,4.33.96,1.02,2.33,1.54,4.08,1.54s3.14-.51,4.11-1.54c.97-1.02,1.46-2.47,1.46-4.33v-18.4h4.7v18.26c0,2.24-.4,4.16-1.21,5.76s-1.98,2.81-3.51,3.64c-1.53.83-3.38,1.25-5.55,1.25s-3.99-.42-5.53-1.25Z"/><path class="cls-2" d="M191.07,55.03h4.7v28.63h-4.7v-28.63ZM193.02,67.35h9.86c.66,0,1.24-.16,1.74-.48.5-.32.9-.78,1.17-1.37.28-.59.42-1.28.43-2.07,0-.77-.14-1.46-.41-2.05-.28-.59-.67-1.05-1.17-1.37-.51-.32-1.09-.48-1.76-.48h-9.86v-4.51h10c1.61,0,3.03.35,4.25,1.04,1.22.7,2.17,1.68,2.84,2.95s1.01,2.74,1.01,4.41-.34,3.16-1.01,4.43-1.63,2.26-2.85,2.95c-1.23.7-2.64,1.04-4.24,1.04h-10v-4.51ZM199.93,70.97l4.88-.91,7.52,13.6h-5.65l-6.75-12.69Z"/><path class="cls-2" d="M236.51,67.96v5.29c0,2.12-.42,4-1.27,5.62-.85,1.62-2.04,2.87-3.58,3.76s-3.33,1.33-5.36,1.33-3.85-.42-5.41-1.25c-1.56-.83-2.77-2.01-3.63-3.53-.86-1.52-1.29-3.29-1.29-5.29v-8.44c0-2.13.42-4,1.27-5.61.85-1.61,2.04-2.86,3.58-3.75,1.54-.88,3.33-1.33,5.36-1.33,1.67,0,3.21.35,4.62,1.05,1.42.7,2.6,1.7,3.54,2.98.94,1.29,1.59,2.77,1.93,4.47h-5.08c-.22-.79-.59-1.46-1.09-2.03-.5-.56-1.1-.99-1.79-1.29-.69-.3-1.4-.44-2.13-.44-1.08,0-2.02.25-2.82.74s-1.43,1.19-1.88,2.09c-.45.9-.67,1.94-.67,3.12v8.44c0,1.06.23,2,.68,2.8.45.81,1.09,1.43,1.93,1.87.83.44,1.79.66,2.88.66s2.02-.23,2.83-.7,1.44-1.14,1.88-2.03c.44-.88.66-1.94.66-3.16v-.87h-5.08v-4.51h9.92Z"/></svg>