<?xml version="1.0" encoding="utf-8"?>
<!-- Generator: Adobe Illustrator 27.0.0, SVG Export Plug-In . SVG Version: 6.00 Build 0)  -->
<svg version="1.1" id="Ebene_2_00000099643746094074723050000009962556811352861871_"
     xmlns="http://www.w3.org/2000/svg" xmlns:xlink="http://www.w3.org/1999/xlink" x="0px" y="0px"
     viewBox="0 0 313.2 87.7"
     style="enable-background:new 0 0 313.2 87.7;" xml:space="preserve">
<style type="text/css">
	.st0{fill:#484848;}
	.st1{clip-path:url(#SVGID_00000053508506056621470150000012670625664906785195_);}
	.st2{clip-path:url(#SVGID_00000154420656121944239690000014310253497361367690_);}
	.st3{fill:#207279;}
	.st4{fill:#207178;}
	.st5{clip-path:url(#SVGID_00000080198549984401137500000000681919750314719637_);}
	.st6{clip-path:url(#SVGID_00000102536501281839197990000005966461760354896825_);}
</style>
    <g id="Ebene_1-2">
	<g>
		<g>
			<path class="st0" d="M60.8,44.8c-1.6-0.9-2.8-2.2-3.7-4c-0.9-1.7-1.3-3.8-1.3-6.2V11.6c0-2.4,0.4-4.5,1.3-6.3s2.1-3,3.7-4
				C62.4,0.4,64.3,0,66.5,0c2.2,0,4.2,0.4,5.8,1.4c1.6,0.9,2.8,2.2,3.7,4c0.8,1.7,1.3,3.8,1.3,6.3v2.8h-6.9v-2.8
				c0-1-0.1-1.9-0.4-2.6c-0.3-0.7-0.7-1.3-1.3-1.7c-0.6-0.4-1.3-0.6-2.1-0.6S65,7,64.5,7.3c-0.6,0.4-1,0.9-1.3,1.6
				c-0.3,0.7-0.5,1.6-0.5,2.6v23.1c0,1,0.2,1.9,0.5,2.6c0.3,0.7,0.7,1.2,1.3,1.6c0.6,0.4,1.2,0.6,2,0.6c0.8,0,1.5-0.2,2.1-0.6
				s1-0.9,1.3-1.6c0.3-0.7,0.4-1.6,0.4-2.6v-2.8h6.9v2.8c0,2.4-0.4,4.5-1.3,6.3c-0.8,1.7-2,3.1-3.7,4c-1.6,0.9-3.5,1.4-5.8,1.4
				S62.4,45.7,60.8,44.8L60.8,44.8z"/>
            <path class="st0" d="M81.8,0.5h6.8v45.2h-6.8C81.8,45.7,81.8,0.5,81.8,0.5z M85,39.2h16v6.5H85V39.2z"/>
            <path class="st0" d="M111.8,45.7h-6.8V0.5h6.8V45.7z"/>
            <path class="st0" d="M140.6,0.5h6.2v45.2h-6.2V12.8l0.5,2L133.9,38h-3.8L123,15.4l0.7-2.6v32.9h-6.3V0.5h6.4l8.3,26.5L140.6,0.5z
				"/>
            <path class="st0"
                  d="M160.5,0.5h5.4l10.6,45.2h-7l-6.3-32.8l-6.3,32.8h-7L160.5,0.5z M156.9,30.9h12.9v6.4h-12.9V30.9z"/>
            <path class="st0" d="M175.8,0.5h22.3V7h-22.3V0.5z M183.6,4.2h6.8v41.5h-6.8V4.2z"/>
            <path class="st0" d="M202.1,0.5h6.8v45.2h-6.8V0.5z M205.4,0.5h16.5V7h-16.5V0.5z M205.4,20h15v6.5h-15V20z M205.4,39.1h16.5v6.6
				h-16.5V39.1z"/>
            <path class="st0"
                  d="M226.2,0.5h6.8v45.2h-6.8V0.5z M230,20.2h14.5v6.4H230V20.2z M240.6,0.5h6.8v45.2h-6.8V0.5z"/>
            <path class="st0" d="M257.7,44.9c-1.6-0.9-2.8-2.1-3.6-3.8c-0.8-1.7-1.2-3.6-1.2-6V0.5h6.8v34.9c0,1.3,0.3,2.3,1,3
				c0.6,0.7,1.5,1.1,2.7,1.1s2.1-0.3,2.8-1.1c0.7-0.7,1-1.7,1-3V0.5h6.8v34.7c0,2.3-0.4,4.3-1.3,6s-2,2.9-3.6,3.8s-3.5,1.3-5.7,1.3
				C261.2,46.2,259.3,45.7,257.7,44.9z"/>
            <path class="st0" d="M278.9,0.5h6.8v45.2h-6.8V0.5z M282.9,39.3h7.1c1.2,0,2-0.3,2.7-0.9c0.6-0.6,0.9-1.4,0.9-2.5v-6
				c0-0.9-0.1-1.8-0.4-2.4c-0.3-0.7-0.7-1.2-1.3-1.5c-0.6-0.4-1.3-0.5-2-0.5h-6.9v-6.4h6.8c1.1,0,1.9-0.4,2.5-1.1
				c0.6-0.7,0.9-1.7,0.9-3.1v-4.7c0-1.1-0.3-1.9-0.9-2.5c-0.6-0.6-1.4-0.9-2.5-0.9h-6.9V0.5h7.2c2,0,3.8,0.4,5.3,1.1
				c1.5,0.7,2.6,1.8,3.3,3.1c0.7,1.4,1.2,3,1.2,5v4.8c0,1.4-0.2,2.7-0.7,3.7c-0.5,1.1-1.2,1.9-2.1,2.6c-0.9,0.7-2,1.2-3.3,1.4
				c1.4,0.2,2.7,0.7,3.7,1.4c1,0.7,1.8,1.6,2.3,2.8c0.5,1.1,0.8,2.5,0.8,4v6.1c0,2-0.4,3.7-1.1,5c-0.7,1.4-1.9,2.5-3.3,3.2
				c-1.4,0.7-3.2,1.1-5.2,1.1h-8L282.9,39.3L282.9,39.3z"/>
		</g>
        <g id="Bildmaterial_1">
			<g>
				<defs>
					<rect id="SVGID_1_" y="0.4" width="46.2" height="83.8"/>
				</defs>
                <clipPath id="SVGID_00000099643703813150003560000001968811004019614098_">
					<use xlink:href="#SVGID_1_" style="overflow:visible;"/>
				</clipPath>
                <g style="clip-path:url(#SVGID_00000099643703813150003560000001968811004019614098_);">
					<g>
						<defs>
							<rect id="SVGID_00000169531931152069619640000005115426674795403174_" y="0.4" width="46.2"
                                  height="83.8"/>
						</defs>
                        <clipPath id="SVGID_00000145032921880225195510000015273712910660161723_">
							<use xlink:href="#SVGID_00000169531931152069619640000005115426674795403174_"
                                 style="overflow:visible;"/>
						</clipPath>
                        <g style="clip-path:url(#SVGID_00000145032921880225195510000015273712910660161723_);">
							<path class="st3" d="M46.2,61.1c0-11.3-8.2-21-19.4-22.8c-1.2,1-2,2.5-2,4c0,2.1,1.4,3.9,3.5,5.1c7.6,2.8,11.5,11.3,8.7,18.9
								c-2.8,7.6-11.3,11.5-18.9,8.7C10.5,72,6.6,63.6,9.4,56c1.3-3.4,3.8-6.3,7-7.9l0,0l0.1-0.1c0.5-0.2,1-0.4,1.5-0.6
								c2.1-1.1,3.5-3,3.5-5.1c-0.1-1.6-0.8-3.1-2-4C6.9,40.2-1.7,52,0.3,64.6s13.8,21.3,26.4,19.3C37.9,82.2,46.2,72.5,46.2,61.1
								L46.2,61.1L46.2,61.1z"/>
                            <path class="st0" d="M46.2,23.5c0,11.3-8.2,21-19.4,22.8c-1.2-1-2-2.5-2-4c0-2.1,1.4-3.9,3.5-5.1c7.6-2.8,11.5-11.3,8.7-18.9
								C34.1,10.7,25.7,6.9,18,9.7S6.6,21,9.4,28.6c1.3,3.4,3.8,6.3,7,7.9l0,0l0.1,0.1c0.5,0.2,1,0.5,1.5,0.6c2.1,1.1,3.5,3,3.5,5.1
								c-0.1,1.6-0.8,3.1-2,4C6.9,44.4-1.7,32.5,0.3,20C2.2,7.3,14.1-1.3,26.7,0.7C37.9,2.4,46.2,12.1,46.2,23.5L46.2,23.5
								L46.2,23.5z"/>
						</g>
					</g>
				</g>
			</g>
		</g>
        <g>
			<g>
				<path class="st4" d="M56.3,55.1H61v28.6h-4.7V55.1z M58.5,68.1h9.1c0.8,0,1.4-0.2,2-0.5c0.6-0.3,1-0.8,1.3-1.5
					c0.3-0.6,0.5-1.4,0.5-2.2c0-0.9-0.2-1.6-0.5-2.2c-0.3-0.6-0.8-1.1-1.3-1.5s-1.2-0.5-2-0.5h-9.1v-4.5h9c1.7,0,3.3,0.4,4.6,1.1
					c1.3,0.7,2.4,1.8,3.1,3.1c0.7,1.3,1.1,2.9,1.1,4.6c0,1.7-0.4,3.3-1.1,4.6c-0.7,1.3-1.8,2.3-3.1,3.1c-1.3,0.7-2.9,1.1-4.6,1.1h-9
					V68.1z"/>
                <path class="st4" d="M85.6,82.6c-1.5-0.9-2.7-2.1-3.6-3.7c-0.9-1.6-1.3-3.4-1.3-5.5v-8.1c0-2.1,0.4-3.9,1.3-5.5
					c0.9-1.6,2.1-2.8,3.6-3.7c1.5-0.9,3.3-1.3,5.4-1.3s3.8,0.4,5.4,1.3c1.5,0.9,2.7,2.1,3.6,3.7s1.3,3.4,1.3,5.5v8.1
					c0,2.1-0.4,3.9-1.3,5.5s-2.1,2.8-3.6,3.7C94.8,83.5,93,84,91,84S87.2,83.5,85.6,82.6z M93.9,78.6c0.8-0.5,1.5-1.1,1.9-2
					c0.4-0.9,0.7-1.9,0.7-3v-8.4c0-1.1-0.2-2.1-0.7-3c-0.4-0.9-1.1-1.5-1.9-2c-0.8-0.5-1.8-0.7-2.8-0.7c-1.1,0-2,0.2-2.8,0.7
					c-0.8,0.5-1.5,1.1-1.9,2c-0.4,0.9-0.7,1.9-0.7,3v8.4c0,1.1,0.2,2.1,0.7,3c0.4,0.9,1.1,1.5,1.9,2c0.8,0.5,1.8,0.7,2.8,0.7
					C92.1,79.3,93,79.1,93.9,78.6z"/>
                <path class="st4" d="M103.4,55.1H124v4.5h-20.6V55.1z M111.4,57.4h4.7v26.3h-4.7V57.4z"/>
                <path class="st4" d="M131.6,83.6c-1.3-0.3-2.5-0.7-3.6-1.2c-1.1-0.5-2.1-1.2-3-1.9l2.5-3.8c1.1,0.9,2.3,1.6,3.7,2.1
					s2.8,0.7,4.4,0.7c1.9,0,3.4-0.3,4.5-1c1.1-0.7,1.6-1.6,1.6-2.9v0c0-0.9-0.2-1.6-0.7-2.1c-0.5-0.5-1.1-0.9-1.8-1.1
					s-1.7-0.5-2.9-0.7c0,0-0.1,0-0.1,0c0,0-0.1,0-0.1,0l-0.4-0.1c-1.9-0.3-3.5-0.7-4.7-1.1c-1.2-0.4-2.3-1.2-3.1-2.3
					c-0.9-1.1-1.3-2.7-1.3-4.7v0c0-1.8,0.4-3.4,1.2-4.6c0.8-1.3,2-2.3,3.5-2.9s3.4-1,5.6-1c1,0,2,0.1,3.1,0.3c1,0.2,2,0.6,3,1
					s2,1,2.9,1.6l-2.3,3.9c-1.1-0.8-2.2-1.4-3.4-1.8c-1.1-0.4-2.3-0.6-3.3-0.6c-1.8,0-3.2,0.3-4.2,1S131,61.8,131,63v0
					c0,0.9,0.3,1.6,0.8,2.1c0.5,0.5,1.2,0.9,1.9,1.2c0.8,0.2,1.8,0.5,3.2,0.8c0.1,0,0.1,0,0.1,0c0,0,0.1,0,0.1,0c0.1,0,0.1,0,0.2,0
					c0.1,0,0.2,0,0.2,0c1.8,0.4,3.2,0.8,4.4,1.3c1.2,0.5,2.2,1.3,3,2.4c0.8,1.1,1.2,2.6,1.2,4.5v0c0,1.8-0.4,3.3-1.3,4.6
					s-2.1,2.2-3.7,2.9s-3.5,1-5.8,1C134.2,84,132.9,83.8,131.6,83.6z"/>
                <path class="st4" d="M151.6,55.1h4.7v28.6h-4.7V55.1z M154.3,79.2h6.7c1.9,0,3.4-0.5,4.5-1.5s1.6-2.3,1.6-4.1v-8.4
					c0-1.8-0.5-3.2-1.6-4.1s-2.6-1.5-4.5-1.5h-6.7v-4.5h6.6c2.3,0,4.3,0.4,6,1.2c1.7,0.8,2.9,2,3.8,3.5c0.9,1.5,1.3,3.4,1.3,5.5v8.1
					c0,2.1-0.4,3.9-1.3,5.5c-0.9,1.5-2.1,2.7-3.8,3.5c-1.7,0.8-3.7,1.2-6.1,1.2h-6.5V79.2z"/>
                <path class="st4"
                      d="M186,55.1h3.4l10.7,28.6h-5.1l-7.4-21.3l-7.4,21.3h-5.1L186,55.1z M180.3,73.7h15.1v4.5h-15.1V73.7z"/>
                <path class="st4" d="M223.4,55.1h5.4v28.6h-4.4V61.8l0.2,1.3l-6.3,17h-3.8l-6.3-16.6l0.2-1.7v21.8h-4.4V55.1h5.4l6.9,19.1
					L223.4,55.1z"/>
			</g>
		</g>
	</g>
</g>
    <g id="Ebene_1-2_00000006705403284809906530000010458797927968053400_">
	<g>
		<g>
			<path class="st0" d="M-110,16.2c-0.6-0.3-1-0.8-1.3-1.4c-0.3-0.6-0.5-1.4-0.5-2.2V4.2c0-0.9,0.2-1.6,0.5-2.3
				c0.3-0.6,0.8-1.1,1.3-1.4S-108.8,0-108,0c0.8,0,1.5,0.2,2.1,0.5c0.6,0.3,1,0.8,1.3,1.4c0.3,0.6,0.5,1.4,0.5,2.3v1h-2.5v-1
				c0-0.4,0-0.7-0.2-0.9c-0.1-0.3-0.3-0.5-0.5-0.6s-0.5-0.2-0.8-0.2s-0.5,0.1-0.7,0.2c-0.2,0.1-0.4,0.3-0.5,0.6s-0.2,0.6-0.2,0.9
				v8.3c0,0.4,0.1,0.7,0.2,0.9s0.3,0.4,0.5,0.6c0.2,0.1,0.4,0.2,0.7,0.2c0.3,0,0.6-0.1,0.8-0.2s0.4-0.3,0.5-0.6
				c0.1-0.2,0.2-0.6,0.2-0.9v-1h2.5v1c0,0.9-0.2,1.6-0.5,2.3c-0.3,0.6-0.7,1.1-1.3,1.4c-0.6,0.3-1.3,0.5-2.1,0.5
				C-108.8,16.7-109.5,16.5-110,16.2L-110,16.2z"/>
            <path class="st0"
                  d="M-102.4,0.2h2.5v16.3h-2.5C-102.4,16.5-102.4,0.2-102.4,0.2z M-101.3,14.2h5.8v2.4h-5.8V14.2z"/>
            <path class="st0" d="M-91.6,16.5h-2.5V0.2h2.5V16.5z"/>
            <path class="st0"
                  d="M-81.2,0.2h2.2v16.3h-2.2V4.6l0.2,0.7l-2.6,8.4H-85l-2.6-8.2l0.2-0.9v11.9h-2.3V0.2h2.3l3,9.6L-81.2,0.2z"/>
            <path class="st0"
                  d="M-74,0.2h2l3.8,16.3h-2.5L-73,4.7l-2.3,11.9h-2.5L-74,0.2z M-75.3,11.1h4.7v2.3h-4.7V11.1z"/>
            <path class="st0" d="M-68.5,0.2h8.1v2.3h-8.1V0.2z M-65.7,1.5h2.4v15h-2.4V1.5z"/>
            <path class="st0" d="M-59,0.2h2.5v16.3H-59V0.2z M-57.8,0.2h6v2.4h-6V0.2z M-57.8,7.2h5.4v2.4h-5.4V7.2z M-57.8,14.1h6v2.4h-6
				V14.1z"/>
            <path class="st0"
                  d="M-50.3,0.2h2.5v16.3h-2.5V0.2z M-48.9,7.3h5.2v2.3h-5.2V7.3z M-45.1,0.2h2.5v16.3h-2.5V0.2z"/>
            <path class="st0" d="M-38.9,16.2c-0.6-0.3-1-0.8-1.3-1.4s-0.4-1.3-0.4-2.2V0.2h2.5v12.6c0,0.5,0.1,0.8,0.3,1.1
				c0.2,0.2,0.6,0.4,1,0.4s0.8-0.1,1-0.4c0.2-0.2,0.3-0.6,0.3-1.1V0.2h2.5v12.5c0,0.8-0.2,1.6-0.5,2.2s-0.7,1.1-1.3,1.4
				c-0.6,0.3-1.3,0.5-2.1,0.5S-38.3,16.5-38.9,16.2z"/>
            <path class="st0" d="M-31.2,0.2h2.5v16.3h-2.5V0.2z M-29.8,14.2h2.6c0.4,0,0.7-0.1,1-0.3s0.3-0.5,0.3-0.9v-2.2
				c0-0.3-0.1-0.6-0.2-0.9s-0.3-0.4-0.5-0.6c-0.2-0.1-0.5-0.2-0.7-0.2h-2.5V6.9h2.5c0.4,0,0.7-0.1,0.9-0.4c0.2-0.3,0.3-0.6,0.3-1.1
				V3.7c0-0.4-0.1-0.7-0.3-0.9c-0.2-0.2-0.5-0.3-0.9-0.3h-2.5V0.2h2.6c0.7,0,1.4,0.1,1.9,0.4c0.5,0.3,0.9,0.6,1.2,1.1
				s0.4,1.1,0.4,1.8v1.7c0,0.5-0.1,1-0.3,1.3c-0.2,0.4-0.4,0.7-0.8,0.9s-0.7,0.4-1.2,0.5c0.5,0.1,1,0.2,1.3,0.5s0.6,0.6,0.8,1
				c0.2,0.4,0.3,0.9,0.3,1.4v2.2c0,0.7-0.1,1.3-0.4,1.8s-0.7,0.9-1.2,1.1c-0.5,0.3-1.1,0.4-1.9,0.4h-2.9L-29.8,14.2L-29.8,14.2z"/>
		</g>
        <g id="Bildmaterial_1_00000152237442528544445070000012736171434663034264_">
			<g>
				<defs>
					<rect id="SVGID_00000116218918148066634120000016964593171007968907_" x="-132" y="0.1" width="16.7"
                          height="30.3"/>
				</defs>
                <clipPath id="SVGID_00000019636060859780456700000008281929913370332840_">
					<use xlink:href="#SVGID_00000116218918148066634120000016964593171007968907_"
                         style="overflow:visible;"/>
				</clipPath>
                <g style="clip-path:url(#SVGID_00000019636060859780456700000008281929913370332840_);">
					<g>
						<defs>
							<rect id="SVGID_00000173126799139319037420000013711704601090421657_" x="-132" y="0.1"
                                  width="16.7" height="30.3"/>
						</defs>
                        <clipPath id="SVGID_00000158733619437151403660000005213156383292589953_">
							<use xlink:href="#SVGID_00000173126799139319037420000013711704601090421657_"
                                 style="overflow:visible;"/>
						</clipPath>
                        <g style="clip-path:url(#SVGID_00000158733619437151403660000005213156383292589953_);">
							<path class="st3" d="M-115.3,22.1c0-4.1-3-7.6-7-8.2c-0.5,0.4-0.7,0.9-0.7,1.5c0,0.8,0.5,1.4,1.3,1.8c2.8,1,4.1,4.1,3.1,6.8
								c-1,2.8-4.1,4.1-6.8,3.1c-2.8-1-4.1-4.1-3.1-6.8c0.5-1.2,1.4-2.3,2.5-2.9l0,0l0,0c0.2-0.1,0.4-0.2,0.6-0.2
								c0.8-0.4,1.3-1.1,1.3-1.8c0-0.6-0.3-1.1-0.7-1.5c-4.6,0.7-7.7,5-7,9.5c0.7,4.6,5,7.7,9.5,7
								C-118.3,29.7-115.3,26.2-115.3,22.1L-115.3,22.1L-115.3,22.1z"/>
                            <path class="st0" d="M-115.3,8.5c0,4.1-3,7.6-7,8.2c-0.5-0.4-0.7-0.9-0.7-1.5c0-0.8,0.5-1.4,1.3-1.8c2.8-1,4.1-4.1,3.1-6.8
								s-4.1-4.2-6.8-3.1c-2.7,1-4.2,4.1-3.1,6.8c0.5,1.2,1.4,2.3,2.5,2.9l0,0l0.1,0c0.2,0.1,0.4,0.2,0.5,0.2
								c0.8,0.4,1.3,1.1,1.3,1.8c0,0.6-0.3,1.1-0.7,1.5c-4.5-0.7-7.7-5-6.9-9.5c0.7-4.6,5-7.7,9.5-7C-118.3,0.9-115.3,4.4-115.3,8.5
								L-115.3,8.5L-115.3,8.5z"/>
						</g>
					</g>
				</g>
			</g>
		</g>
        <g>
			<path class="st3" d="M-111.7,19.8h1.7v10.5h-1.7V19.8z M-111,19.8h6.1v1.6h-6.1V19.8z M-111,24.2h5.3v1.6h-5.3V24.2z M-111,28.6
				h6.1v1.6h-6.1V28.6z"/>
            <path class="st3" d="M-102.9,19.8h1.7v10.5h-1.7C-102.9,30.2-102.9,19.8-102.9,19.8z M-102.2,24.3h3.6c0.2,0,0.4-0.1,0.6-0.2
				c0.2-0.1,0.3-0.3,0.4-0.5c0.1-0.2,0.2-0.5,0.2-0.8c0-0.3-0.1-0.5-0.2-0.8s-0.2-0.4-0.4-0.5s-0.4-0.2-0.6-0.2h-3.6v-1.6h3.7
				c0.6,0,1.1,0.1,1.5,0.4c0.5,0.2,0.8,0.6,1,1.1c0.2,0.5,0.4,1,0.4,1.6s-0.1,1.1-0.4,1.6s-0.6,0.8-1,1.1s-1,0.4-1.5,0.4h-3.7
				L-102.2,24.3L-102.2,24.3z M-99.6,25.6l1.8-0.3l2.8,5h-2.1L-99.6,25.6L-99.6,25.6z"/>
            <path class="st3" d="M-93.3,19.8h1.7v10.5h-1.7V19.8z M-92.5,28.6h6v1.6h-6V28.6z"/>
            <path class="st3" d="M-81.8,19.8h1.2l3.9,10.5h-1.8l-2.7-7.8l-2.7,7.8h-1.8L-81.8,19.8L-81.8,19.8z M-83.9,26.6h5.5v1.6h-5.5
				V26.6z"/>
            <path class="st3"
                  d="M-75.2,19.8h1.9l4.5,8L-69,28v-8.2h1.7v10.4h-1.9l-4.5-7.9l0.2-0.2v8.1h-1.7L-75.2,19.8L-75.2,19.8z"/>
            <path class="st3" d="M-57.6,24.5v1.9c0,0.8-0.2,1.5-0.5,2s-0.7,1-1.3,1.4c-0.6,0.3-1.2,0.5-2,0.5s-1.4-0.1-2-0.5
				c-0.6-0.3-1-0.7-1.3-1.3c-0.3-0.6-0.5-1.2-0.5-1.9v-3.1c0-0.8,0.2-1.5,0.5-2c0.3-0.6,0.8-1,1.3-1.4c0.6-0.3,1.2-0.5,2-0.5
				c0.6,0,1.2,0.1,1.7,0.4c0.5,0.3,0.9,0.6,1.3,1.1c0.3,0.5,0.6,1,0.7,1.6h-1.8c-0.1-0.3-0.2-0.5-0.4-0.7s-0.4-0.4-0.7-0.5
				c-0.2-0.1-0.5-0.2-0.8-0.2c-0.4,0-0.7,0.1-1,0.3s-0.5,0.4-0.7,0.8s-0.2,0.7-0.2,1.1v3.1c0,0.4,0.1,0.7,0.2,1s0.4,0.5,0.7,0.7
				c0.3,0.2,0.7,0.2,1.1,0.2s0.7-0.1,1-0.2c0.3-0.2,0.5-0.4,0.7-0.7s0.2-0.7,0.2-1.1v-0.3h-1.8v-1.6L-57.6,24.5L-57.6,24.5z"/>
            <path class="st3" d="M-55.5,19.8h1.7v10.5h-1.7V19.8z M-54.8,19.8h6.1v1.6h-6.1V19.8z M-54.8,24.2h5.3v1.6h-5.3V24.2z
				 M-54.8,28.6h6.1v1.6h-6.1V28.6z"/>
            <path class="st3"
                  d="M-46.7,19.8h1.9l4.5,8l-0.2,0.2v-8.2h1.7v10.4h-1.9l-4.5-7.9l0.2-0.2v8.1h-1.7L-46.7,19.8L-46.7,19.8z"/>
		</g>
	</g>
</g>
</svg>
