<?xml version="1.0" encoding="UTF-8"?><svg id="Ebene_2" xmlns="http://www.w3.org/2000/svg" xmlns:xlink="http://www.w3.org/1999/xlink" viewBox="0 0 313.18 87.74"><defs><style>.cls-1{fill:none;}.cls-1,.cls-2{stroke-width:0px;}.cls-3{clip-path:url(#clippath-1);}.cls-2{fill:#fff;}.cls-4{clip-path:url(#clippath);}</style><clipPath id="clippath"><rect class="cls-1" y=".39" width="46.24" height="83.83"/></clipPath><clipPath id="clippath-1"><rect class="cls-1" y=".39" width="46.24" height="83.83"/></clipPath></defs><g id="Ebene_1-2"><path class="cls-2" d="M60.77,44.81c-1.61-.91-2.82-2.24-3.68-3.96s-1.27-3.79-1.27-6.23V11.57c0-2.44.42-4.54,1.27-6.25.86-1.72,2.08-3.04,3.68-3.96C62.38.44,64.29,0,66.53,0s4.18.44,5.78,1.36c1.61.91,2.82,2.21,3.65,3.96s1.27,3.82,1.27,6.25v2.77h-6.92v-2.77c0-1-.14-1.85-.44-2.57-.28-.72-.72-1.27-1.3-1.66s-1.27-.55-2.08-.55-1.47.19-2.02.55-1,.91-1.3,1.63c-.3.72-.47,1.58-.47,2.6v23.05c0,1.02.17,1.88.47,2.57s.75,1.25,1.3,1.61,1.25.55,2.02.55c.83,0,1.52-.19,2.08-.58s1-.94,1.27-1.63c.3-.69.44-1.58.44-2.57v-2.77h6.92v2.77c0,2.44-.44,4.51-1.27,6.25s-2.05,3.07-3.65,3.96c-1.61.91-3.54,1.36-5.76,1.36s-4.15-.47-5.76-1.38v.06Z"/><path class="cls-2" d="M81.83.47h6.84v45.22h-6.84s0-45.22,0-45.22ZM85.04,39.19h15.97v6.5h-15.97v-6.5Z"/><path class="cls-2" d="M111.78,45.69h-6.84V.47h6.84v45.22Z"/><path class="cls-2" d="M140.56.47h6.23v45.22h-6.17V12.79l.5,1.99-7.17,23.25h-3.85l-7.14-22.61.69-2.6v32.91h-6.34V.47h6.45l8.3,26.51L140.56.47Z"/><path class="cls-2" d="M160.46.47h5.42l10.63,45.22h-7l-6.34-32.82-6.34,32.82h-7L160.46.47ZM156.86,30.86h12.87v6.37h-12.87v-6.37Z"/><path class="cls-2" d="M175.82.47h22.33v6.5h-22.33V.47ZM183.59,4.21h6.78v41.48h-6.78V4.21Z"/><path class="cls-2" d="M202.14.47h6.84v45.22h-6.84V.47ZM205.4.47h16.52v6.56h-16.52V.47ZM205.4,19.98h14.97v6.53h-14.97v-6.53ZM205.4,39.13h16.52v6.56h-16.52v-6.56Z"/><path class="cls-2" d="M226.21.47h6.84v45.22h-6.84V.47ZM230.03,20.2h14.5v6.45h-14.5v-6.45ZM240.6.47h6.84v45.22h-6.84V.47Z"/><path class="cls-2" d="M257.71,44.86c-1.58-.86-2.8-2.1-3.6-3.76s-1.22-3.63-1.22-5.95V.47h6.84v34.9c0,1.3.33,2.3.97,2.99.64.69,1.55,1.05,2.74,1.05s2.13-.33,2.8-1.05c.66-.69.97-1.69.97-2.99V.47h6.84v34.68c0,2.32-.42,4.32-1.27,5.95s-2.05,2.91-3.63,3.76c-1.58.86-3.49,1.3-5.73,1.3s-4.12-.44-5.7-1.3Z"/><path class="cls-2" d="M278.85.47h6.84v45.22h-6.84V.47ZM282.92,39.3h7.11c1.16,0,2.05-.3,2.68-.89s.94-1.41.94-2.46v-5.98c0-.94-.14-1.77-.44-2.44s-.75-1.19-1.33-1.55c-.58-.36-1.27-.53-2.05-.53h-6.92v-6.37h6.81c1.08,0,1.91-.36,2.52-1.08.58-.72.89-1.74.89-3.07v-4.73c0-1.05-.3-1.88-.86-2.46-.58-.58-1.41-.86-2.46-.86h-6.86V.47h7.2c2.05,0,3.82.36,5.29,1.08,1.47.72,2.6,1.77,3.35,3.13s1.16,3.04,1.16,4.95v4.82c0,1.41-.25,2.66-.75,3.71-.5,1.08-1.19,1.94-2.1,2.63s-2.02,1.16-3.32,1.41c1.44.22,2.66.66,3.65,1.36s1.77,1.63,2.32,2.77c.53,1.13.8,2.46.8,3.96v6.06c0,1.96-.39,3.65-1.13,5.04s-1.85,2.46-3.29,3.18c-1.44.75-3.15,1.11-5.2,1.11h-7.97v-6.42l-.03.06Z"/><g id="Bildmaterial_1"><g class="cls-4"><g class="cls-3"><path class="cls-2" d="M46.24,61.05c0-11.35-8.22-21.03-19.43-22.83-1.25,1-1.96,2.46-2.02,4.04,0,2.08,1.38,3.93,3.49,5.06,7.61,2.82,11.49,11.29,8.66,18.87-2.82,7.61-11.29,11.49-18.87,8.66-7.61-2.82-11.49-11.29-8.66-18.87,1.27-3.43,3.76-6.25,7-7.91h0l.14-.08c.5-.25,1.02-.44,1.52-.64,2.13-1.13,3.49-2.99,3.49-5.06-.06-1.58-.77-3.07-2.02-4.04C6.95,40.18-1.69,52,.28,64.62c1.96,12.62,13.78,21.25,26.37,19.29,11.26-1.74,19.57-11.46,19.57-22.83h0l.03-.03Z"/><path class="cls-2" d="M46.24,23.52c0,11.35-8.22,21.03-19.43,22.83-1.25-1-1.96-2.46-2.02-4.04,0-2.08,1.38-3.93,3.49-5.06,7.61-2.82,11.49-11.29,8.66-18.9-2.82-7.61-11.29-11.49-18.9-8.66s-11.49,11.29-8.66,18.9c1.27,3.43,3.76,6.25,7,7.94h0l.14.08c.5.25,1.02.47,1.52.64,2.13,1.13,3.49,2.99,3.49,5.06-.06,1.58-.77,3.07-2.02,4.04C6.95,44.36-1.69,32.55.28,19.95,2.24,7.33,14.06-1.3,26.68.66c11.26,1.74,19.57,11.46,19.57,22.83h0v.03Z"/></g></g></g><path class="cls-2" d="M56.26,55.05h4.7v28.61h-4.7v-28.61ZM58.53,68.06h9.15c.76,0,1.43-.17,2-.52.57-.35,1.02-.84,1.34-1.49s.48-1.38.48-2.22-.16-1.6-.47-2.24c-.32-.64-.76-1.14-1.34-1.5s-1.25-.53-2.01-.53h-9.15v-4.51h9.01c1.74,0,3.28.36,4.6,1.09,1.33.73,2.35,1.75,3.09,3.08.73,1.33,1.1,2.86,1.1,4.6s-.37,3.28-1.1,4.59c-.74,1.32-1.76,2.34-3.09,3.06-1.33.72-2.86,1.08-4.6,1.08h-9.01v-4.51Z"/><path class="cls-2" d="M85.25,82.65c-1.55-.87-2.75-2.11-3.6-3.7-.85-1.59-1.28-3.44-1.28-5.54v-8.11c0-2.1.43-3.94,1.28-5.54.85-1.59,2.05-2.83,3.6-3.7,1.55-.87,3.34-1.31,5.37-1.31s3.82.44,5.37,1.31c1.55.87,2.75,2.11,3.6,3.7.85,1.59,1.28,3.44,1.28,5.54v8.11c0,2.1-.43,3.95-1.28,5.54s-2.05,2.83-3.6,3.7c-1.55.87-3.34,1.31-5.37,1.31s-3.82-.44-5.37-1.31ZM93.46,78.58c.82-.47,1.45-1.14,1.9-2.02.45-.87.67-1.88.67-3.02v-8.38c0-1.14-.22-2.15-.67-3.02-.45-.87-1.08-1.54-1.9-2.02-.82-.47-1.77-.71-2.84-.71s-2.02.24-2.84.71c-.82.47-1.45,1.14-1.9,2.02-.45.87-.67,1.88-.67,3.02v8.38c0,1.14.22,2.15.67,3.02.45.87,1.08,1.54,1.9,2.02.82.47,1.77.71,2.84.71s2.02-.24,2.84-.71Z"/><path class="cls-2" d="M103.04,55.05h20.58v4.51h-20.58v-4.51ZM110.99,57.39h4.68v26.27h-4.68v-26.27Z"/><path class="cls-2" d="M131.2,83.55c-1.27-.27-2.45-.67-3.56-1.19-1.11-.52-2.12-1.17-3.04-1.95l2.5-3.76c1.1.93,2.34,1.64,3.71,2.12s2.82.72,4.36.72c1.92,0,3.4-.34,4.46-1.02,1.06-.68,1.58-1.65,1.58-2.89v-.02c0-.88-.24-1.58-.71-2.1-.47-.52-1.09-.9-1.85-1.14s-1.74-.47-2.93-.68c-.04-.01-.08-.02-.12-.02s-.08,0-.12-.02l-.35-.06c-1.92-.32-3.49-.69-4.72-1.12-1.23-.43-2.28-1.21-3.15-2.32-.87-1.12-1.3-2.7-1.3-4.74v-.02c0-1.81.41-3.36,1.22-4.64.81-1.29,1.99-2.26,3.54-2.93s3.41-1,5.59-1c1.02,0,2.05.12,3.08.34,1.03.23,2.04.56,3.03,1s1.95.99,2.88,1.64l-2.28,3.88c-1.1-.79-2.22-1.38-3.37-1.79-1.14-.41-2.26-.61-3.34-.61-1.81,0-3.21.33-4.2.99s-1.49,1.6-1.49,2.8v.02c0,.91.26,1.62.77,2.15.51.52,1.15.91,1.92,1.15.77.24,1.84.5,3.22.78.05.01.1.02.15.03.05,0,.09.02.15.03.07.01.14.03.22.04.08.01.15.03.22.04,1.77.35,3.25.78,4.44,1.28,1.19.5,2.18,1.3,2.98,2.4.8,1.1,1.2,2.6,1.2,4.51v.04c0,1.78-.42,3.31-1.26,4.58s-2.06,2.24-3.66,2.9-3.53.99-5.79.99c-1.38,0-2.7-.13-3.96-.4Z"/><path class="cls-2" d="M150.79,55.05h4.7v28.61h-4.7v-28.61ZM153.51,79.15h6.67c1.94,0,3.45-.49,4.52-1.46s1.6-2.35,1.6-4.13v-8.42c0-1.78-.53-3.16-1.6-4.13s-2.57-1.46-4.52-1.46h-6.67v-4.51h6.55c2.33,0,4.33.4,5.99,1.2,1.66.8,2.92,1.97,3.79,3.5.87,1.54,1.3,3.38,1.3,5.55v8.11c0,2.11-.43,3.94-1.28,5.47-.85,1.53-2.11,2.71-3.77,3.54-1.66.83-3.68,1.24-6.05,1.24h-6.53v-4.51Z"/><path class="cls-2" d="M184.05,55.05h3.42l10.74,28.61h-5.06l-7.4-21.31-7.4,21.31h-5.06l10.74-28.61ZM178.36,73.72h15.05v4.51h-15.05v-4.51Z"/><path class="cls-2" d="M221.43,55.05h5.43v28.61h-4.41v-21.82l.2,1.26-6.26,16.98h-3.78l-6.26-16.59.2-1.65v21.82h-4.41v-28.61h5.43l6.93,19.09,6.93-19.09Z"/></g></svg>