<svg enable-background="new 0 0 399 188" viewBox="0 0 399 188" xmlns="http://www.w3.org/2000/svg"><path d="m0 0h398.9v139.6h-398.9z" fill="#cf0"></path><g fill="#003" transform="translate(1.407123 28.142464)"><path d="m92.2 29.8c0-16.2-9.7-28.4-32.6-28.4h-31.6v80.6h21.8v-23.7h9.6c23.1 0 32.8-12.3 32.8-28.5zm-42.2 9.2v-18.3h9c6.3 0 10.7 3 10.7 9.1s-4.4 9.1-10.7 9.1h-9z"></path><path d="m163.9 27.9c0-13.9-9.1-26.5-30.4-26.5h-34.4v80.6h22v-30l20.7 30h27.2l-22.4-30c11.8-3.9 17.3-13.4 17.3-24.1zm-33.5 10.1h-9.4v-17.3h9.6c6.6 0 10.7 2.5 10.7 8.6 0 5.9-4.1 8.7-10.9 8.7z"></path><path d="m175.9 1.4h21.8v80.6h-21.8z"></path><path d="m356.3.7h-18.2c-.6 1.8-1.4 3.5-2.3 4.8-.8 1.4-2.1 2.5-3.7 3.4-1.5.8-3.5 1.5-5.9 2-2.4.4-5.2.7-8.7.8v14.3h16.3v39.5h-17.7v16.5h57.4v-16.4h-17.4v-64.9z"></path><path d="m248.8 83.7c23.9 0 42.9-16.7 42.9-42.1s-19-42.1-42.9-42.1-42.9 16.7-42.9 42.1 19 42.1 42.9 42.1zm0-62.2c11.4 0 20 7.6 20 20.1s-8.6 20.1-20 20.1-20-7.6-20-20.1 8.6-20.1 20-20.1z"></path><path d="m10.3 129.9h-9.5v27.7h9.4c9.3 0 15.1-5.2 15.1-13.9s-5.6-13.8-15-13.8zm0 21.1h-2v-14.2h2c4.2 0 7.2 2.4 7.2 7.2-.1 4.7-2.9 7-7.2 7z"></path><path d="m41.7 141.7c-1.1-1.7-3.1-3-5.9-3-4.6 0-8.7 3.1-8.7 9.7s4.1 9.7 8.7 9.7c3 0 4.8-1.1 5.9-3h.1v2.4h7.3v-18.3h-7.3v2.4h-.1zm-3.8 10.3c-2 0-3.4-1.3-3.4-3.4s1.4-3.4 3.4-3.4 3.4 1.3 3.4 3.4-1.5 3.4-3.4 3.4z"></path><path d="m63.7 146.1-3.2-1.1c-.7-.3-.8-.4-.8-.7 0-.4.3-.6 1.1-.6 1.4 0 3.8.6 5.9 1.4l1.5-5.5c-2.7-.6-4.8-.8-6.9-.8-5.8 0-8.4 2.4-8.4 6.2 0 3.2 2 4.8 5.1 5.9l2.8.8c.8.3 1.3.4 1.3.8s-.3.7-1.4.6c-2.3-.1-4.5-.8-6.6-2.1l-2.4 5.2c3.1 1.5 6.6 2 9 2 5.1 0 8.4-1.8 8.4-6.3-.3-3.4-2.3-4.9-5.4-5.8z"></path><path d="m109.9 129.9h-9.7l-9.4 12.2v-12.2h-7.5v27.9h7.5v-12.9l10.6 12.9h10.4l-12.7-14.6z"></path><path d="m113.3 129.9h7.3v27.7h-7.3z"></path><path d="m124.7 129.9h7.5v6.9h-7.5z"></path><path d="m124.8 139.4h7.3v18.3h-7.3z"></path><path d="m161.8 138.7c-3.1 0-5.1 1.3-6.5 3.9h-.1c-.8-2.1-2.7-3.9-6.1-3.9-2.5 0-4.8 1.1-6.1 3.5v-3h-7v18.3h7.3v-9c0-2.5 1.1-3.7 3-3.7s2.4 1.4 2.4 3.4v9.3h7v-9c0-2.5 1.1-3.7 3-3.7s2.4 1.4 2.4 3.4v9.3h7.3v-11.8c0-4.3-2.4-7-6.6-7z"></path><path d="m186 141.7c-1.1-1.7-3.1-3-5.9-3-4.6 0-8.7 3.1-8.7 9.7s4.1 9.7 8.7 9.7c3 0 4.8-1.1 5.9-3h.1v2.4h7.3v-18.3h-7.3v2.4h-.1zm-3.8 10.3c-2 0-3.4-1.3-3.4-3.4s1.4-3.4 3.4-3.4 3.4 1.3 3.4 3.4-1.4 3.4-3.4 3.4z"></path><path d="m197 143.9h14.4v6.3h-14.4z"></path><path d="m234.8 144.8-13.1-14.9h-5.9v27.9h7.6v-14.9l13.1 14.9h5.9v-27.9h-7.6z"></path><path d="m255.5 138.9c-5.8 0-10 3.2-10 9.7 0 6.3 4.1 9.7 11.1 9.7 2 0 4.4-.3 6.8-1.3l-2-5.3c-1.4.6-3 1-4.6 1-2.4 0-3.9-.7-4.5-2.4h12.7v-1.3c0-6.9-3.7-10.1-9.5-10.1zm-3.2 7.6c.1-2 1.4-3 3-3 1.5 0 2.8.8 2.8 3z"></path><path d="m277.6 132h-7.5v7.3h-3.7v6.1h3.7v5.1c0 5.3 3 7.2 6.9 7.2h3v-6.8h-.7c-1.5 0-2-.6-2-2.5v-3h3.9v-6.1h-3.9v-7.3z"></path><path d="m300 144.4v-4.9h-16.2v5.8h7.2l-8 7.3v5.2h17.6v-5.9h-8.7z"></path><path d="m325.6 148.2-3.5-8.7h-6.5l-3.5 8.7-3.2-8.7h-7l7 18.3h6.2l3.8-9.1 3.8 9.1h6.1l7-18.3h-7z"></path><path d="m346.3 138.9c-5.8 0-10 3.2-10 9.7 0 6.3 4.1 9.7 11.1 9.7 2 0 4.4-.3 6.8-1.3l-2-5.3c-1.4.6-3 1-4.6 1-2.4 0-3.9-.7-4.5-2.4h12.7v-1.3c-.1-6.9-3.7-10.1-9.5-10.1zm-3.2 7.6c.1-2 1.4-3 3-3s2.8.8 2.8 3z"></path><path d="m365.7 142.8-.1-3.4h-7v18.3h7.3v-6.7c0-4.1 1.7-5.2 5.2-5.2h.4v-6.9c-2.6 0-4.7.8-5.8 3.9z"></path><path d="m388.2 147.7 6.9-8.3h-8.9l-4.6 6.8v-16.3h-7.3v27.9h7.3v-8l5.5 8h9.4z"></path></g></svg>