<svg xmlns="http://www.w3.org/2000/svg" xmlns:xlink="http://www.w3.org/1999/xlink" width="308" zoomAndPan="magnify" viewBox="0 0 230.87999 65.249999" height="87" preserveAspectRatio="xMidYMid meet" version="1.0"><defs><clipPath id="79815d7b34"><path d="M 1.3125 28 L 36.175781 28 L 36.175781 63.480469 L 1.3125 63.480469 Z M 1.3125 28 " clip-rule="nonzero"/></clipPath><clipPath id="2dfeaea283"><path d="M 1.3125 0.289062 L 36.175781 0.289062 L 36.175781 35 L 1.3125 35 Z M 1.3125 0.289062 " clip-rule="nonzero"/></clipPath><clipPath id="b6eeac8032"><path d="M 41 41 L 67 41 L 67 63.765625 L 41 63.765625 Z M 41 41 " clip-rule="nonzero"/></clipPath><clipPath id="bada293e37"><path d="M 68 36 L 85 36 L 85 63.765625 L 68 63.765625 Z M 68 36 " clip-rule="nonzero"/></clipPath><clipPath id="e31aa886e4"><path d="M 88 41 L 105 41 L 105 63.765625 L 88 63.765625 Z M 88 41 " clip-rule="nonzero"/></clipPath><clipPath id="634c6d13bf"><path d="M 107 41 L 122 41 L 122 63.765625 L 107 63.765625 Z M 107 41 " clip-rule="nonzero"/></clipPath><clipPath id="c64818bd20"><path d="M 125 41 L 141 41 L 141 63.765625 L 125 63.765625 Z M 125 41 " clip-rule="nonzero"/></clipPath><clipPath id="eb8457a64c"><path d="M 143 41 L 160 41 L 160 63.765625 L 143 63.765625 Z M 143 41 " clip-rule="nonzero"/></clipPath><clipPath id="180016bcc4"><path d="M 163 41 L 180 41 L 180 63.765625 L 163 63.765625 Z M 163 41 " clip-rule="nonzero"/></clipPath><clipPath id="115d09b51f"><path d="M 182 41 L 199 41 L 199 63.765625 L 182 63.765625 Z M 182 41 " clip-rule="nonzero"/></clipPath><clipPath id="d5145a15e5"><path d="M 24.320312 30.621094 L 26.753906 30.621094 L 26.753906 33.136719 L 24.320312 33.136719 Z M 24.320312 30.621094 " clip-rule="nonzero"/></clipPath><clipPath id="51650b9934"><path d="M 26.75 31.492188 C 26.683594 32.371094 26.328125 32.855469 26.054688 33 C 25.867188 33.105469 25.679688 33.148438 25.46875 33.105469 C 25.175781 33.066406 24.648438 32.792969 24.460938 32.5 C 24.292969 32.203125 24.3125 31.636719 24.398438 31.34375 C 24.460938 31.132812 24.585938 30.988281 24.777344 30.859375 C 25.027344 30.714844 25.613281 30.589844 25.929688 30.652344 C 26.140625 30.691406 26.433594 30.964844 26.433594 30.964844 " clip-rule="nonzero"/></clipPath></defs><path fill="#ffffff" d="M 47.121094 33.773438 C 45.914062 33.082031 44.992188 32.085938 44.34375 30.792969 C 43.699219 29.496094 43.386719 27.933594 43.386719 26.097656 L 43.386719 8.722656 C 43.386719 6.882812 43.699219 5.300781 44.34375 4.003906 C 44.992188 2.710938 45.910156 1.707031 47.121094 1.023438 C 48.335938 0.335938 49.777344 0 51.460938 0 C 53.148438 0 54.609375 0.335938 55.824219 1.023438 C 57.03125 1.714844 57.953125 2.695312 58.578125 4.003906 C 59.203125 5.3125 59.539062 6.882812 59.539062 8.722656 L 59.539062 10.808594 L 54.324219 10.808594 L 54.324219 8.722656 C 54.324219 7.972656 54.222656 7.328125 53.992188 6.78125 C 53.78125 6.238281 53.445312 5.824219 53.011719 5.53125 C 52.574219 5.242188 52.050781 5.117188 51.449219 5.117188 C 50.84375 5.117188 50.34375 5.261719 49.921875 5.53125 C 49.5 5.800781 49.171875 6.222656 48.941406 6.761719 C 48.707031 7.304688 48.582031 7.953125 48.582031 8.722656 L 48.582031 26.101562 C 48.582031 26.875 48.707031 27.519531 48.941406 28.042969 C 49.171875 28.566406 49.5 28.980469 49.921875 29.25 C 50.34375 29.519531 50.859375 29.664062 51.449219 29.664062 C 52.074219 29.664062 52.597656 29.519531 53.011719 29.230469 C 53.425781 28.9375 53.757812 28.515625 53.96875 28 C 54.203125 27.476562 54.304688 26.808594 54.304688 26.058594 L 54.304688 23.972656 L 59.515625 23.972656 L 59.515625 26.058594 C 59.515625 27.898438 59.179688 29.460938 58.554688 30.777344 C 57.929688 32.09375 57.015625 33.097656 55.800781 33.757812 C 54.59375 34.449219 53.132812 34.78125 51.460938 34.78125 C 49.789062 34.78125 48.335938 34.425781 47.121094 33.742188 L 47.121094 33.785156 Z M 47.121094 33.773438 " fill-opacity="1" fill-rule="nonzero"/><path fill="#ffffff" d="M 63.003906 0.355469 L 68.160156 0.355469 L 68.160156 34.449219 L 63.003906 34.449219 Z M 65.417969 29.542969 L 77.457031 29.542969 L 77.457031 34.441406 L 65.417969 34.441406 Z M 65.417969 29.542969 " fill-opacity="1" fill-rule="nonzero"/><path fill="#ffffff" d="M 85.574219 34.441406 L 80.421875 34.441406 L 80.421875 0.355469 L 85.574219 0.355469 L 85.574219 34.449219 Z M 85.574219 34.441406 " fill-opacity="1" fill-rule="nonzero"/><path fill="#ffffff" d="M 107.273438 0.355469 L 111.96875 0.355469 L 111.96875 34.449219 L 107.316406 34.449219 L 107.316406 9.640625 L 107.695312 11.144531 L 102.292969 28.667969 L 99.394531 28.667969 L 94.015625 11.625 L 94.539062 9.660156 L 94.539062 34.460938 L 89.761719 34.460938 L 89.761719 0.355469 L 94.625 0.355469 L 100.882812 20.339844 Z M 107.273438 0.355469 " fill-opacity="1" fill-rule="nonzero"/><path fill="#ffffff" d="M 122.269531 0.355469 L 126.363281 0.355469 L 134.371094 34.449219 L 129.09375 34.449219 L 124.320312 9.703125 L 119.542969 34.449219 L 114.265625 34.449219 Z M 119.558594 23.261719 L 129.261719 23.261719 L 129.261719 28.058594 L 119.558594 28.058594 Z M 119.558594 23.261719 " fill-opacity="1" fill-rule="nonzero"/><path fill="#ffffff" d="M 133.847656 0.355469 L 150.683594 0.355469 L 150.683594 5.253906 L 133.847656 5.253906 Z M 139.707031 3.167969 L 144.816406 3.167969 L 144.816406 34.441406 L 139.707031 34.441406 Z M 139.707031 3.167969 " fill-opacity="1" fill-rule="nonzero"/><path fill="#ffffff" d="M 153.6875 0.355469 L 158.839844 0.355469 L 158.839844 34.449219 L 153.6875 34.449219 Z M 156.152344 0.355469 L 168.601562 0.355469 L 168.601562 5.300781 L 156.152344 5.300781 Z M 156.152344 15.0625 L 167.441406 15.0625 L 167.441406 19.984375 L 156.152344 19.984375 Z M 156.152344 29.496094 L 168.601562 29.496094 L 168.601562 34.441406 L 156.152344 34.441406 Z M 156.152344 29.496094 " fill-opacity="1" fill-rule="nonzero"/><path fill="#ffffff" d="M 171.835938 0.355469 L 176.992188 0.355469 L 176.992188 34.449219 L 171.835938 34.449219 Z M 174.714844 15.230469 L 185.648438 15.230469 L 185.648438 20.089844 L 174.714844 20.089844 Z M 182.691406 0.355469 L 187.84375 0.355469 L 187.84375 34.449219 L 182.691406 34.449219 Z M 182.691406 0.355469 " fill-opacity="1" fill-rule="nonzero"/><path fill="#ffffff" d="M 195.578125 33.816406 C 194.386719 33.167969 193.46875 32.230469 192.867188 30.980469 C 192.261719 29.730469 191.949219 28.246094 191.949219 26.496094 L 191.949219 0.355469 L 197.105469 0.355469 L 197.105469 26.664062 C 197.105469 27.644531 197.351562 28.394531 197.832031 28.917969 C 198.3125 29.441406 199 29.707031 199.894531 29.707031 C 200.789062 29.707031 201.503906 29.460938 202.003906 28.917969 C 202.503906 28.394531 202.730469 27.644531 202.730469 26.664062 L 202.730469 0.355469 L 207.882812 0.355469 L 207.882812 26.496094 C 207.882812 28.246094 207.570312 29.753906 206.925781 30.980469 C 206.277344 32.210938 205.382812 33.167969 204.191406 33.816406 C 203 34.460938 201.558594 34.796875 199.875 34.796875 C 198.1875 34.796875 196.761719 34.460938 195.578125 33.816406 Z M 195.578125 33.816406 " fill-opacity="1" fill-rule="nonzero"/><path fill="#ffffff" d="M 211.519531 0.355469 L 216.671875 0.355469 L 216.671875 34.449219 L 211.519531 34.449219 Z M 214.585938 29.621094 L 219.953125 29.621094 C 220.832031 29.621094 221.492188 29.390625 221.972656 28.953125 C 222.453125 28.515625 222.683594 27.890625 222.683594 27.097656 L 222.683594 22.59375 C 222.683594 21.878906 222.582031 21.253906 222.351562 20.753906 C 222.117188 20.25 221.789062 19.859375 221.347656 19.582031 C 220.910156 19.3125 220.386719 19.183594 219.804688 19.183594 L 214.59375 19.183594 L 214.59375 14.386719 L 219.726562 14.386719 C 220.539062 14.386719 221.164062 14.117188 221.625 13.570312 C 222.058594 13.027344 222.292969 12.253906 222.292969 11.253906 L 222.292969 7.683594 C 222.292969 6.890625 222.058594 6.265625 221.644531 5.828125 C 221.207031 5.394531 220.582031 5.183594 219.792969 5.183594 L 214.617188 5.183594 L 214.617188 0.355469 L 220.039062 0.355469 C 221.578125 0.355469 222.917969 0.625 224.023438 1.171875 C 225.125 1.714844 225.984375 2.507812 226.542969 3.527344 C 227.105469 4.542969 227.421875 5.824219 227.421875 7.261719 L 227.421875 10.890625 C 227.421875 11.949219 227.234375 12.894531 226.863281 13.6875 C 226.484375 14.5 225.96875 15.148438 225.28125 15.671875 C 224.589844 16.195312 223.753906 16.550781 222.777344 16.734375 C 223.863281 16.902344 224.785156 17.234375 225.535156 17.757812 C 226.28125 18.28125 226.871094 18.988281 227.285156 19.84375 C 227.683594 20.703125 227.890625 21.699219 227.890625 22.824219 L 227.890625 27.398438 C 227.890625 28.878906 227.597656 30.152344 227.03125 31.191406 C 226.464844 32.230469 225.636719 33.046875 224.546875 33.589844 C 223.460938 34.148438 222.167969 34.425781 220.621094 34.425781 L 214.609375 34.425781 L 214.609375 29.585938 L 214.585938 29.628906 Z M 214.585938 29.621094 " fill-opacity="1" fill-rule="nonzero"/><g clip-path="url(#79815d7b34)"><path fill="#ffffff" d="M 36.175781 46.019531 C 36.175781 37.464844 29.980469 30.167969 21.527344 28.808594 C 20.589844 29.554688 20.046875 30.660156 20 31.851562 C 20 33.414062 21.039062 34.820312 22.632812 35.667969 C 28.367188 37.800781 31.289062 44.179688 29.160156 49.894531 C 27.03125 55.628906 20.648438 58.550781 14.933594 56.421875 C 9.199219 54.292969 6.277344 47.910156 8.40625 42.195312 C 9.367188 39.609375 11.242188 37.480469 13.683594 36.230469 L 13.785156 36.164062 C 14.164062 35.972656 14.558594 35.828125 14.933594 35.683594 C 16.542969 34.824219 17.566406 33.429688 17.566406 31.867188 C 17.523438 30.675781 16.984375 29.546875 16.039062 28.820312 C 6.546875 30.289062 0.0390625 39.203125 1.523438 48.710938 C 3.007812 58.226562 11.910156 64.730469 21.40625 63.246094 C 29.894531 61.933594 36.152344 54.613281 36.152344 46.035156 L 36.175781 46.011719 Z M 36.175781 46.019531 " fill-opacity="1" fill-rule="nonzero"/></g><g clip-path="url(#2dfeaea283)"><path fill="#ffffff" d="M 36.175781 17.730469 C 36.175781 26.285156 29.980469 33.582031 21.527344 34.941406 C 20.589844 34.195312 20.046875 33.089844 20 31.898438 C 20 30.332031 21.039062 28.929688 22.632812 28.082031 C 28.367188 25.949219 31.289062 19.566406 29.160156 13.832031 C 27.03125 8.097656 20.648438 5.175781 14.914062 7.304688 C 9.179688 9.433594 6.253906 15.816406 8.386719 21.550781 C 9.34375 24.140625 11.21875 26.269531 13.664062 27.542969 L 13.765625 27.609375 C 14.144531 27.796875 14.535156 27.964844 14.914062 28.085938 C 16.519531 28.945312 17.542969 30.339844 17.542969 31.902344 C 17.5 33.097656 16.964844 34.222656 16.019531 34.949219 C 6.546875 33.445312 0.0390625 24.53125 1.523438 15.039062 C 3 5.53125 11.910156 -0.980469 21.425781 0.5 C 29.917969 1.816406 36.175781 9.136719 36.175781 17.714844 L 36.175781 17.738281 Z M 36.175781 17.730469 " fill-opacity="1" fill-rule="nonzero"/></g><g clip-path="url(#b6eeac8032)"><path fill="#ffffff" d="M 48.460938 57.148438 L 52.734375 41.5 L 55.402344 41.5 L 59.675781 57.148438 L 62.96875 41.5 L 66.632812 41.5 L 61.515625 63.066406 L 58.0625 63.066406 L 54.160156 47.996094 L 50.082031 63.066406 L 46.628906 63.066406 L 41.511719 41.5 L 45.175781 41.5 L 48.46875 57.148438 Z M 48.460938 57.148438 " fill-opacity="1" fill-rule="nonzero"/></g><g clip-path="url(#bada293e37)"><path fill="#ffffff" d="M 76.5625 63.292969 C 74.113281 63.292969 72.207031 62.59375 70.863281 61.191406 C 69.519531 59.796875 68.84375 57.816406 68.84375 55.265625 L 68.84375 41.5 L 72.390625 41.5 L 72.390625 55.367188 C 72.390625 56.769531 72.753906 57.863281 73.480469 58.632812 C 74.207031 59.402344 75.230469 59.789062 76.554688 59.789062 C 77.878906 59.789062 78.925781 59.402344 79.652344 58.632812 C 80.386719 57.863281 80.75 56.769531 80.75 55.367188 L 80.75 41.5 L 84.296875 41.5 L 84.296875 55.265625 C 84.296875 57.816406 83.621094 59.796875 82.269531 61.191406 C 80.917969 62.585938 79.011719 63.292969 76.546875 63.292969 Z M 71.726562 39.734375 L 71.726562 36.183594 L 75.273438 36.183594 L 75.273438 39.734375 Z M 77.886719 39.734375 L 77.886719 36.183594 L 81.433594 36.183594 L 81.433594 39.734375 Z M 77.886719 39.734375 " fill-opacity="1" fill-rule="nonzero"/></g><g clip-path="url(#e31aa886e4)"><path fill="#ffffff" d="M 88.757812 63.066406 L 88.757812 41.484375 L 92.308594 41.484375 L 92.308594 63.066406 Z M 90.226562 54.167969 L 90.226562 50.773438 L 97.65625 50.773438 C 98.421875 50.773438 99.023438 50.503906 99.480469 49.96875 C 99.933594 49.429688 100.171875 48.71875 100.179688 47.824219 C 100.179688 46.945312 99.945312 46.230469 99.488281 45.691406 C 99.03125 45.15625 98.421875 44.886719 97.65625 44.886719 L 90.226562 44.886719 L 90.226562 41.492188 L 97.765625 41.492188 C 98.996094 41.492188 100.0625 41.753906 100.980469 42.277344 C 101.894531 42.800781 102.605469 43.535156 103.117188 44.488281 C 103.625 45.4375 103.878906 46.550781 103.878906 47.824219 C 103.878906 49.09375 103.625 50.214844 103.109375 51.160156 C 102.59375 52.113281 101.878906 52.847656 100.972656 53.375 C 100.0625 53.90625 98.996094 54.167969 97.765625 54.167969 Z M 100.519531 63.066406 L 95.433594 53.5 L 99.109375 52.816406 L 104.773438 63.066406 L 100.511719 63.066406 Z M 100.519531 63.066406 " fill-opacity="1" fill-rule="nonzero"/></g><g clip-path="url(#634c6d13bf)"><path fill="#ffffff" d="M 121.078125 41.5 L 121.078125 44.632812 L 111.941406 59.671875 L 121.375 59.671875 L 121.375 63.066406 L 107.671875 63.066406 L 107.671875 59.933594 L 116.839844 44.894531 L 107.941406 44.894531 L 107.941406 41.5 L 121.085938 41.5 Z M 121.078125 41.5 " fill-opacity="1" fill-rule="nonzero"/></g><g clip-path="url(#c64818bd20)"><path fill="#ffffff" d="M 125.082031 63.066406 L 125.082031 41.5 L 128.617188 41.5 L 128.617188 63.066406 Z M 126.863281 63.066406 L 126.863281 59.714844 L 133.222656 59.714844 C 134.488281 59.714844 135.417969 59.445312 136.007812 58.914062 C 136.597656 58.386719 136.886719 57.664062 136.886719 56.765625 L 136.886719 56.71875 C 136.886719 55.769531 136.617188 55.027344 136.082031 54.480469 C 135.542969 53.9375 134.714844 53.667969 133.59375 53.667969 L 126.863281 53.667969 L 126.863281 50.34375 L 133.59375 50.34375 C 134.578125 50.34375 135.316406 50.105469 135.832031 49.632812 C 136.351562 49.160156 136.605469 48.46875 136.605469 47.570312 C 136.605469 46.667969 136.335938 46.003906 135.789062 45.539062 C 135.246094 45.082031 134.445312 44.851562 133.382812 44.851562 L 126.855469 44.851562 L 126.855469 41.5 L 133.726562 41.5 C 135.839844 41.5 137.449219 42.015625 138.539062 43.054688 C 139.628906 44.09375 140.171875 45.519531 140.171875 47.34375 C 140.171875 48.507812 139.832031 49.523438 139.148438 50.375 C 138.464844 51.230469 137.449219 51.777344 136.09375 52.011719 C 137.476562 52.207031 138.550781 52.773438 139.316406 53.71875 C 140.078125 54.65625 140.457031 55.796875 140.457031 57.140625 L 140.457031 57.1875 C 140.457031 58.996094 139.882812 60.425781 138.734375 61.480469 C 137.585938 62.535156 136 63.058594 133.972656 63.058594 L 126.855469 63.058594 Z M 126.863281 63.066406 " fill-opacity="1" fill-rule="nonzero"/></g><g clip-path="url(#eb8457a64c)"><path fill="#ffffff" d="M 151.664062 63.292969 C 149.214844 63.292969 147.3125 62.59375 145.96875 61.191406 C 144.621094 59.796875 143.945312 57.816406 143.945312 55.265625 L 143.945312 41.5 L 147.492188 41.5 L 147.492188 55.367188 C 147.492188 56.769531 147.855469 57.863281 148.582031 58.632812 C 149.3125 59.402344 150.335938 59.789062 151.660156 59.789062 C 152.980469 59.789062 154.027344 59.402344 154.753906 58.632812 C 155.488281 57.863281 155.851562 56.769531 155.851562 55.367188 L 155.851562 41.5 L 159.398438 41.5 L 159.398438 55.265625 C 159.398438 57.816406 158.722656 59.796875 157.371094 61.191406 C 156.019531 62.585938 154.117188 63.292969 151.652344 63.292969 Z M 151.664062 63.292969 " fill-opacity="1" fill-rule="nonzero"/></g><g clip-path="url(#180016bcc4)"><path fill="#ffffff" d="M 163.855469 63.066406 L 163.855469 41.484375 L 167.402344 41.484375 L 167.402344 63.066406 Z M 165.324219 54.167969 L 165.324219 50.773438 L 172.753906 50.773438 C 173.515625 50.773438 174.121094 50.503906 174.578125 49.96875 C 175.027344 49.429688 175.269531 48.71875 175.277344 47.824219 C 175.277344 46.945312 175.042969 46.230469 174.585938 45.691406 C 174.128906 45.15625 173.515625 44.886719 172.753906 44.886719 L 165.324219 44.886719 L 165.324219 41.492188 L 172.863281 41.492188 C 174.089844 41.492188 175.160156 41.753906 176.074219 42.277344 C 176.992188 42.800781 177.703125 43.535156 178.210938 44.488281 C 178.722656 45.4375 178.976562 46.550781 178.976562 47.824219 C 178.976562 49.09375 178.722656 50.214844 178.203125 51.160156 C 177.6875 52.113281 176.976562 52.847656 176.066406 53.375 C 175.160156 53.90625 174.089844 54.167969 172.863281 54.167969 Z M 175.625 63.066406 L 170.535156 53.5 L 174.214844 52.816406 L 179.875 63.066406 L 175.617188 63.066406 Z M 175.625 63.066406 " fill-opacity="1" fill-rule="nonzero"/></g><g clip-path="url(#115d09b51f)"><path fill="#ffffff" d="M 190.636719 51.230469 L 198.113281 51.230469 L 198.113281 55.222656 C 198.113281 56.84375 197.796875 58.261719 197.15625 59.476562 C 196.515625 60.6875 195.621094 61.628906 194.472656 62.296875 C 193.324219 62.964844 191.964844 63.300781 190.417969 63.300781 C 188.867188 63.300781 187.488281 62.984375 186.324219 62.359375 C 185.160156 61.734375 184.253906 60.847656 183.605469 59.707031 C 182.960938 58.566406 182.632812 57.238281 182.632812 55.710938 L 182.632812 49.347656 C 182.632812 47.730469 182.953125 46.3125 183.597656 45.105469 C 184.238281 43.898438 185.140625 42.960938 186.28125 42.292969 C 187.429688 41.621094 188.773438 41.289062 190.328125 41.289062 C 191.617188 41.289062 192.785156 41.558594 193.839844 42.085938 C 194.894531 42.617188 195.78125 43.367188 196.492188 44.328125 C 197.207031 45.285156 197.695312 46.40625 197.941406 47.691406 L 194.117188 47.691406 C 193.871094 46.785156 193.382812 46.085938 192.65625 45.589844 C 191.929688 45.105469 191.160156 44.855469 190.335938 44.855469 C 189.109375 44.855469 188.128906 45.265625 187.394531 46.085938 C 186.660156 46.90625 186.289062 47.992188 186.289062 49.335938 L 186.289062 55.695312 C 186.289062 56.910156 186.667969 57.882812 187.421875 58.617188 C 188.179688 59.351562 189.179688 59.714844 190.425781 59.714844 C 191.667969 59.714844 192.632812 59.324219 193.367188 58.542969 C 194.101562 57.765625 194.472656 56.675781 194.472656 55.28125 L 194.472656 54.625 L 190.648438 54.625 L 190.648438 51.230469 Z M 190.636719 51.230469 " fill-opacity="1" fill-rule="nonzero"/></g><g clip-path="url(#d5145a15e5)"><g clip-path="url(#51650b9934)"><path fill="#ffffff" d="M 23.558594 29.8125 L 27.628906 29.8125 L 27.628906 33.960938 L 23.558594 33.960938 Z M 23.558594 29.8125 " fill-opacity="1" fill-rule="nonzero"/></g></g></svg>