<svg xmlns="http://www.w3.org/2000/svg" width="215.76" height="202.441" viewBox="0 0 215.76 202.441">
  <g id="Gruppe_8411" data-name="Gruppe 8411" transform="translate(-1451.969 -197.6)">
    <path id="Pfad_13481" data-name="Pfad 13481" d="M1652,344.5c0-.3-.1-.5-.1-.8-.8-4.8-2.9-8.9-5.4-12.9-2.3-3.8-5.4-4-9.3-2-8.5,4.5-16.9,9.3-25.2,14a57.247,57.247,0,0,0-8.7,5.8c-1.6,1.5-3,3.8-2.4,5.8Z" fill="#fff"/>
    <path id="Pfad_13482" data-name="Pfad 13482" d="M1591,278.7a16.716,16.716,0,0,1-2.4-5.9,9.394,9.394,0,0,1,.8-6.2c.8-1.5,2.4-2.6,3.3-4a7.565,7.565,0,0,0-.8-8.7c5.7,1.6,11.1,4.4,14.8,9,1,1.2,2,2.8,1.6,4.3a15.468,15.468,0,0,1-1.2,2.2C1602.9,274.4,1597.2,277.2,1591,278.7Z" fill="#cf0"/>
    <path id="Pfad_13483" data-name="Pfad 13483" d="M1655.6,271.2c-1.4-1.2-3.4-1.9-4.6-3.3-1.2-1.6-1.4-3.8-2-5.7-.8-3.1-3.3-6.2-6.5-6.3-1.7-.1-3.4.6-5,0-2.5-1-2.7-4.5-4.1-6.9a6.053,6.053,0,0,0-5-2.8c-2.3,0-4.7,1.2-6.8.3-2.2-1.2-2.3-4-3-6.4-1.8-5.8-7.7-8.9-13.4-6.5-1.4.7-2.6,1.8-4.1,2.4-1.9.7-2.8-.1-4.1-1.2-2.3-2-6.1-1.2-8.3.9-2.2,2.2-2.9,5.4-2.9,8.4a9.362,9.362,0,0,0,1.8,6.1c2.1,2.4,5.7,2.8,8.7,3.9,3.5,1.2,6.3,3.8,8.8,6.6,2.4,2.8,4.6,5.7,7.3,8.4,2,2,4.3,3.8,5.1,6.4.4,1.1.4,2.3.7,3.4.9,3.4,4,5.7,6.3,8.2,2.2,2.4,4.5,4.8,7.6,6.2,4.4,2,12.9,2.3,15.9-2.2.9-1.3,1.5-2.9,2.4-4.3,2-2.6,5-3.9,6.5-7.1,1.2-2.6,1.2-5.9-.8-8A2.043,2.043,0,0,1,1655.6,271.2Z" fill="#cf0"/>
    <path id="Pfad_13484" data-name="Pfad 13484" d="M1618.4,239.1a11.623,11.623,0,0,0,4.2.8,10.362,10.362,0,0,0,3.8-.8,4.59,4.59,0,0,0,2.4-2.9,3.473,3.473,0,0,0-4.8-3.9,13.593,13.593,0,0,0,2.7-3.6,3.855,3.855,0,0,0-.7-4.2,4.233,4.233,0,0,0-3.5-.8,5.52,5.52,0,0,0-4.1,4.1c-.5-1.4-1.1-3-2.4-3.8a4.037,4.037,0,0,0-4.8,1.1,5.982,5.982,0,0,0-.8,5.1,11.066,11.066,0,0,0,2.8,4.5,18.563,18.563,0,0,0,4.4,4C1617.7,238.9,1618,239,1618.4,239.1Z" fill="#cf0"/>
    <path id="Pfad_13485" data-name="Pfad 13485" d="M1652.7,282.8a34.75,34.75,0,0,0-9.2-10.6,30.183,30.183,0,0,0-13.6-5.2c-2.9-.4-6-.5-8.9-.9h-1.8c-3.7,0-7.3-.1-10.9-.1-4.4,0-8.9,0-13.2,1.2-4.2,1.2-8.2,4.3-9.6,8.5a17.258,17.258,0,0,0-.8,5.4c-.2,7.6,1.5,15.2,3.6,22.5a31.618,31.618,0,0,0,3.1,8.1c4,6.6,14,9.5,20.7,12.5,3.8,1.7,7.4,3.3,11.2,4.9,3.4,1.5,7.1,3,10.7,2.8,2.5-.2,5-1.2,7.5-1,4.5.3,7.9,4,10.5,7.8,2.7,3.7,6.5,8.7,10.8,10.1.3.1,3.8-13.8,4-15.2.9-5,1.4-10.4.3-15.4-2.7-11.8-8.3-22.8-13.6-33.6A6.646,6.646,0,0,0,1652.7,282.8Z" fill="#fff"/>
    <path id="Pfad_13486" data-name="Pfad 13486" d="M1542,253.3a3.323,3.323,0,0,0-3.7,0,3.092,3.092,0,0,0-2.2-2.9,3.539,3.539,0,0,0-3.5,1.2c-.3-1.1-.5-2.3-1.3-2.8a2.865,2.865,0,0,0-3.2,0,6.288,6.288,0,0,0-2.2,2.4,2.991,2.991,0,0,0-2.4-2.3c-1.2-.3-2.4.7-3.2,1.6a8.266,8.266,0,0,0-1.6,2.9,2.83,2.83,0,0,0-3.5-1.2,4.67,4.67,0,0,0-2.8,2.7,8.291,8.291,0,0,0-.8,2.8l-.2-.1a11.563,11.563,0,0,0-4.5.8,4.176,4.176,0,0,0-2.6,4.5,5.251,5.251,0,0,0-3.9,9.4c-1.6.4-3.3,1.2-4,2.7a3.379,3.379,0,0,0,1,4.4,4.937,4.937,0,0,0-2.3,4,4.59,4.59,0,0,0,2.4,4,4.83,4.83,0,0,0-.1,7.9c2,1.4,4.8,1.2,7.1.3a3.085,3.085,0,0,0,.8,3.3,3.218,3.218,0,0,0,3.4.4,3.77,3.77,0,0,0,1.7,4,5.557,5.557,0,0,0,4.4.5h.1a5.94,5.94,0,0,0,.8-.4,1.516,1.516,0,0,0,.4-.8c1-2.1,3.3-3.2,5.4-4.2a54.032,54.032,0,0,0,10.4-7.3,108.8,108.8,0,0,0,9.8-9.4l.7.5c1.6-1.8,3.3-3.4,4.8-5.2a5,5,0,0,0,1.1-1.6,2.537,2.537,0,0,0,.2-1.2,16.334,16.334,0,0,0-4.4-10c-.2-.2.3-1.8.4-2.1.1-.8.1-1.4.2-2.1a8.233,8.233,0,0,0-.2-3.8A7.994,7.994,0,0,0,1542,253.3Z" fill="#003"/>
    <path id="Pfad_13487" data-name="Pfad 13487" d="M1528.8,324.6c3.2,2.4,6.3,4.8,9.5,7.3a106.919,106.919,0,0,1,15.1-8.4c-4.3-3.7-8.9-7.2-13.2-10.8A36.934,36.934,0,0,1,1528.8,324.6Z" fill="#7883ff"/>
    <path id="Pfad_13488" data-name="Pfad 13488" d="M1580.8,268.1a21.082,21.082,0,0,0-15.4-8.7,21.378,21.378,0,0,0-16.6,6.2c-2.1,2.1-4,4.8-6.6,5.7a12.891,12.891,0,0,1-4,8.8,12.125,12.125,0,0,1-10,2.9,3.322,3.322,0,0,1-.3.6,12.068,12.068,0,0,1-3.8,4c-2.4,1.9-5.3,3.4-7.3,5.7a15.822,15.822,0,0,0-1.8,18.8,28.933,28.933,0,0,0,6.2,6.4c2.5,2.1,5.1,4,7.6,6.1a37.349,37.349,0,0,0,11.4-12c4.3,3.7,8.9,7.2,13.2,10.8,2.1-.9,4.1-1.8,6.3-2.7a92.73,92.73,0,0,1,18.6-4.9c-1.4-6.5,10.6-21.7,10.6-21.7-.9-4.5-2-8.9-3.1-13.4A31.762,31.762,0,0,0,1580.8,268.1Z" fill="#3134c7"/>
    <path id="Pfad_13489" data-name="Pfad 13489" d="M1592.8,313.2c-1.2-6.3-2.3-12.6-3.6-18.8a23.11,23.11,0,0,1-6.2,1.8c-2.8.4-4.2.6-10.4-.2,1.2,6.6,2.8,13.8,4.2,20.3C1581.7,315.3,1588,314.2,1592.8,313.2Z" fill="#7883ff"/>
    <path id="Pfad_13490" data-name="Pfad 13490" d="M1466,306a3.5,3.5,0,0,1-1.3.5,8.549,8.549,0,0,1-5.9,0,4.919,4.919,0,0,1-3.2-4.7,4.4,4.4,0,0,0,.2-1.6c-.2-1.2-1.3-2.1-2-3.3a4.515,4.515,0,0,1,1.2-5.1,3.512,3.512,0,0,0,.8-1c.6-1.2-.1-2.7.3-4a4.552,4.552,0,0,1,2.7-2.9,4.607,4.607,0,0,0,1-.5c.8-.8.8-2.4,1.3-3.4a4.414,4.414,0,0,1,2.4-1.8c.9-.3,2,.3,2.8-.2a11.393,11.393,0,0,0,1.1-1.1,3.169,3.169,0,0,1,4.5.1,13.073,13.073,0,0,0,1.1,1.2,4.193,4.193,0,0,0,1.6.4,3.842,3.842,0,0,1,2.9,3.5c.1,1.9-1.2,4.1-2.1,5.8-1.1,2.2-2.4,4.2-3.3,6.5a46.779,46.779,0,0,1-1.7,5.3c-.4.8-.8,1.5-1.2,2.2a12.291,12.291,0,0,0-1.1,2.3A4.627,4.627,0,0,1,1466,306Z" fill="#3134c7"/>
    <path id="Pfad_13491" data-name="Pfad 13491" d="M1481.9,370.2l8.8,6.3,46.6-9.2,2.9-12.1a88.242,88.242,0,0,1-19-19.1,17.766,17.766,0,0,1,3.3-9.3,37.921,37.921,0,0,1,4.8-5.8c-1.6-1.2-3.1-2.4-4.7-3.7a35.835,35.835,0,0,0-4.5-3.1c-6.2-3.6-13.8-4-20.9-2.9a8.024,8.024,0,0,1-2.7.2c-2.2-.3-3.7-2.2-5.2-3.8a12.614,12.614,0,0,0-5.2-3.5c-4.3-1.3-8.5.6-12.2,2.4a9.958,9.958,0,0,0-4.3,3.2c-1.9,2.7-1.2,6.5-3,9.3a11,11,0,0,1-3.8,2.9c-3.9,2.2-7.8,5-9.6,9a16.29,16.29,0,0,0-1,9,27.89,27.89,0,0,0,2.9,8.7,134.95,134.95,0,0,0,10.9,17.5Z" fill="#dde5ed"/>
    <path id="Pfad_13492" data-name="Pfad 13492" d="M1543.3,342.8l-3.9-13.6c-3.3-2.8-6.8-5.5-10.2-8.2a36.936,36.936,0,0,0-4.8,5.8c-1.9,2.8-4.5,8.1-4.6,11.4a185.554,185.554,0,0,0,20.4,17Z" fill="#fff"/>
    <path id="Pfad_13493" data-name="Pfad 13493" d="M1590.4,361c-2.3,2.8-6.2,4.3-9.9,4.8a7.15,7.15,0,0,1-2.9.1,30.175,30.175,0,0,1-5.1-1.6,28.391,28.391,0,0,0-10.4-1.7c-7.3.3-14.5,1.2-21.4,3.9-3.7,1.4-6.9,3.7-10.9,3.7a7.165,7.165,0,0,1-5.4-2.2,6.254,6.254,0,0,1-1-5.6,7.032,7.032,0,0,1,4-4.1,2,2,0,0,0,1-.8c.3-.4,0-.9-.2-1.4a9.75,9.75,0,0,1-.8-4.5,5.543,5.543,0,0,1,2.4-3.7c.8-.4,1.9-.7,2.1-1.4a2.081,2.081,0,0,0-.3-1.3,8.707,8.707,0,0,1,.2-6.9,6.781,6.781,0,0,1,5.6-3.8,1.8,1.8,0,0,0,1.2-.3,2.084,2.084,0,0,0,.8-2,32.919,32.919,0,0,1-.3-4.5,10.511,10.511,0,0,1,4.6-7.3,17.808,17.808,0,0,1,8.6-2.7,2.116,2.116,0,0,0,1.4-.4c.8-.5.8-1.6.8-2.4.3-6.3,7.3-10.9,13.3-8.7a1.6,1.6,0,0,0,.8.3c.6-.1.9-.8,1.2-1.2,2.7-4.3,8.7-2.9,10.2,1.3.3.6.6,1.2,1.2,1.2.6.1,1.2-.4,1.7-.8a5.09,5.09,0,0,1,6.9,2c.4.8.6,1.8,1.3,2.1.9.4,2-.3,2.8-.8,5.1-3.1,11.9-.4,12.6,5.8a1.684,1.684,0,0,0,.8,1.4c.3.1.5-.1.8-.3a6.454,6.454,0,0,1,7.3,1.6,15.628,15.628,0,0,1,2.2,4c.1.3.3.4.4.7.6.4,1.2-.1,2-.4,2-1.1,4.5-.4,6.2,1.1a11.212,11.212,0,0,1,3,5.8,19.782,19.782,0,0,0-2.5,3.4c-1,1.2-2.3,2.5-3.5,3.8-3.5,3.3-8.4,5.9-12.9,7.9-2.8,1.2-5.4,2.4-8.1,3.8a32.485,32.485,0,0,0-7.2,5.1,12.581,12.581,0,0,0-2.9,3.2c-.4.8-.8,1.5-1.2,2.3A1.566,1.566,0,0,1,1590.4,361Z" fill="#003"/>
    <path id="Pfad_13494" data-name="Pfad 13494" d="M1542.1,271.4c-.1-1.2-.3-2.9-.3-2.9a7.763,7.763,0,0,1-5.4.7,11.279,11.279,0,0,1-4.8-2.6l-.3-.3a.52.52,0,0,1,.2-.4c.8-1.2.1-2.8-.8-3.9-2.8-3.4-7.1-4.3-11.2-4a3.172,3.172,0,0,0-2.2.9,2.6,2.6,0,0,0,.4,2.4c.6,1.2,1.1,2.6-.3,3.4-.6.4-1.2.6-1.5,1.2-.4.6-.2,1.3.2,2.1.4.6.8,1.1,1.2,1.8a1.166,1.166,0,0,1,.2,1.1c-.1.2-.3.3-.4.4-.8.4-1.8.6-2.1,1.3a.954.954,0,0,0,.3,1.2,3.819,3.819,0,0,0,.9.9,7.814,7.814,0,0,0,2.9,1.4,4.64,4.64,0,0,0,2.6.2,1.778,1.778,0,0,0,1.1-2.1,11.1,11.1,0,0,1,4.8,3.4,5.726,5.726,0,0,1,.6,5.5,12.843,12.843,0,0,0,10-2.9,11.428,11.428,0,0,0,2.9-4,15.146,15.146,0,0,0,1-3.8C1542.1,272.2,1542.1,271.8,1542.1,271.4Z" fill="#7883ff"/>
    <path id="Pfad_13495" data-name="Pfad 13495" d="M1547.6,368.4c1.2.4,2.4.8,3.8,1.2a8.949,8.949,0,0,0,2.6.9c1.6.3,2.8-.8,4.3-.7,1.2.2,2.1,1.5,3.4,1.1.8-.3,1.1-1.1,1.8-1.2,1-.3,2,.8,3,.8,1.2,0,2.1-1.3,3.2-1.3.8,0,1.3.7,2.2.7,1.2.1,2.1-1.2,2.4-2.4,1-2.7,1.8-5.4,2.6-8.1a2.966,2.966,0,0,0,.2-1.6c-.2-.5-.7-1-1.2-.8-.5.1-.8.6-1,1-.8,1.7-1.8,3.4-2.7,5.1.4-2.6.8-5.4,1.2-7.9.2-.8.2-1.7-.5-2.1-.6-.3-1.3.1-1.8.7-.4.6-.6,1.2-1,1.8a18.217,18.217,0,0,0-.1-3.3,2.491,2.491,0,0,0-.8-1.7,1.237,1.237,0,0,0-1.5.3,3.924,3.924,0,0,0-.8,1.4,1.876,1.876,0,0,0-2.4,1.5c-.7,3.8-5.6,7.1-8.6,8.9a85.516,85.516,0,0,1-10.4,5.4A21.11,21.11,0,0,1,1547.6,368.4Z" fill="#7883ff"/>
    <path id="Pfad_13496" data-name="Pfad 13496" d="M1616.2,349.2a32.535,32.535,0,0,0-2.3,2.9c-1.1,1.6-1.7,3.5-3.8,4.1a9.362,9.362,0,0,1-1.6.4c-1,.5-1.7,1.8-2.8,1.9-.8.1-1.7-.4-2.4-.3-.8.3-1.2,1.2-1.8,1.7a2.038,2.038,0,0,1-2.1.5,4.115,4.115,0,0,0-.8-.3c-.9-.3-1.3.7-2.2,1-.8.4-1.8-.2-2.4-.8-2.5-1.8-4.7-3.8-7-5.8a1.531,1.531,0,0,1-.5-.7c-.1-.3-.2-.6.1-.8a.864.864,0,0,1,.6-.3,3.716,3.716,0,0,1,2.2.8,10.887,10.887,0,0,0,2.3,1.4,14.42,14.42,0,0,0,2.7,1c-2.1-2.2-4.2-4.3-6.2-6.5a5.131,5.131,0,0,1-1.5-2.3,1.865,1.865,0,0,1,1-2.3c.4-.1,1.7.7,2.1.8a9.767,9.767,0,0,0,2.3.6c1.5.1,3.2.1,4.8.1,2.1,0,4-.4,6.1-.5a29.137,29.137,0,0,1,7.8.8c2.2.5,4.8.2,7.1.3C1617.2,347.9,1616.7,348.6,1616.2,349.2Z" fill="#7883ff"/>
    <path id="Pfad_13497" data-name="Pfad 13497" d="M1641.4,332.8a27.252,27.252,0,0,0,2.5,3.2,28.1,28.1,0,0,1,3.8,3.9c1,1.7,1.2,3.8,1.7,5.7a9.517,9.517,0,0,0,6.4,6.9c9.5,2.3,10-12.3,2.4-15.2-1.8-.7-3.9-.8-5.4-2.1a7.679,7.679,0,0,1-1.8-3.6c-.6-2.7-.6-5.6-1.8-8-1.5-3-5.8-4.8-8.5-1.8a5.962,5.962,0,0,0-1.1,2.1,9.564,9.564,0,0,0,.8,7.4A9.742,9.742,0,0,1,1641.4,332.8Z" fill="#dde5ed"/>
    <path id="Pfad_13498" data-name="Pfad 13498" d="M1642.3,320.4c-9.9,5.7-19.6,11.8-29.3,17.6l.1.3a11.019,11.019,0,0,0-4.3-4c-1.6-.8-3.3-1.2-4.8-2.3a13.536,13.536,0,0,1-3.9-4c-.4-.4-.8-.9-1.3-.7-.3.1-.3.3-.4.5-.7,1.4.2,3.2,1.2,4.4s2.4,2.4,3.1,3.9c-6.2-.2-11.9-3.8-17.6-6.2a10.5,10.5,0,0,0-3.5-.8c-.6.1-1.2.5-1.2,1.1s.6.9,1,1.2c2.9,1.6,6.1,3.3,8.9,5a22.187,22.187,0,0,1-6.3-1.4,57.188,57.188,0,0,0-5.7-2.4c-.8-.3-2-.3-2.3.5a1.1,1.1,0,0,0,.3,1.4,2.551,2.551,0,0,0,1.2.9,1.505,1.505,0,0,0,0,1.7,6.82,6.82,0,0,0,1.2,1.2c2.8,1.8,5.8,3.1,8.7,4.7a11.624,11.624,0,0,0-1.8-.4,16.124,16.124,0,0,0-2.9-.9,2.257,2.257,0,0,0-1.6.2,1.082,1.082,0,0,0-.5.4c-.2.2-.3.4-.2.6a1.9,1.9,0,0,0,.8.7,115.134,115.134,0,0,0,12.1,5.1,21.1,21.1,0,0,0,3.8,1,13.1,13.1,0,0,0,2.8,0c3.7-.3,7.2-.5,10.8-.7,8.8-.4,16.1-5.5,23.7-9.1,5.7-2.6,11.2-5.3,17-7.9a.756.756,0,0,1-.1-.4c-.6-2.7-.6-5.6-1.8-8C1648.1,320.9,1644.9,319.3,1642.3,320.4Z" fill="#3134c7"/>
    <path id="Pfad_13499" data-name="Pfad 13499" d="M1630,267c-5.7-.7-12-.5-17-3.6a20.715,20.715,0,0,1-6.2-6.3,29.537,29.537,0,0,1-3-6.2c.8-.7,1.8-1.2,2.3-2.3,1.3-2.3-.7-5.8-3.4-4.5-1.2.6-1.9,2-3.1,2.3a2.386,2.386,0,0,1-2.4-.6,3.963,3.963,0,0,1-1.2-2.3,7.114,7.114,0,0,0-.4-2.1,2.981,2.981,0,0,0-3.9-1c-2.8,1.3-4.6,5.7-5.3,8.6a11.155,11.155,0,0,0,1.9,9.7,4.352,4.352,0,0,0,2.2,1.5,4.007,4.007,0,0,0,2.8-.6,15.909,15.909,0,0,0,2.2-1.3c3.3,1.5,7.9,7.7,7.9,7.7s-.2.6-.3.8c-1.3,4.5-2.8,9.2-1.2,13.8a9.734,9.734,0,0,0,5.2,5.7c6.6,3.2,12.8-1.5,16.7-6.6a44.887,44.887,0,0,0,6.8-12.8C1630.5,267.1,1630.2,267,1630,267Z" fill="#3134c7"/>
    <path id="Pfad_13500" data-name="Pfad 13500" d="M1593.7,249.2a6.291,6.291,0,0,0-3.3,1.2l-.4.4c-.3.2-.7.1-1,.2-.8,0-1,.8-1.2,1.2a2.092,2.092,0,0,0,.6.4c.4.3.3.8.6,1.2a1.374,1.374,0,0,0,.8.5,1.689,1.689,0,0,0,1-.3,4.29,4.29,0,0,0,2.1-2.1A8.642,8.642,0,0,0,1593.7,249.2Z" fill="#003"/>
    <path id="Pfad_13501" data-name="Pfad 13501" d="M1500.6,372.9c8.1-2.2,16.2-4.3,24.5-6.3a22.974,22.974,0,0,0,5.9-2.1c2.9-1.6,4-3.6,5-6.6.8-2.4,1.5-5.2,3.8-6.9,1.3-1,3-1.4,4.3-2.6,1.1-1,1.8-2.5,3-3.2.3-.1.4-.2.6-.2a1,1,0,0,1,.6,1,6.072,6.072,0,0,1-2,4.5,15.315,15.315,0,0,0-3.1,4,1.113,1.113,0,0,0-.2,1.2,23.761,23.761,0,0,0,5.4-3.1,19.7,19.7,0,0,0,5.7-5.8c1.7-3.2,1.9-7.3,4.6-9.5a1.274,1.274,0,0,1,1.5-.4c.8.4.8,1.5.4,2.4-.8,2.6-1.5,5.1-2.3,7.7.2-.4,1-1,1.2-1.3l1.2-1.8a34.8,34.8,0,0,0,2.3-3.8,15.025,15.025,0,0,1,1.5-2.3,2.066,2.066,0,0,1,2.3-1,1.557,1.557,0,0,1,.8,1.8,5.166,5.166,0,0,1-.8,1.9c.6-.4,1.2-.8,2-.4a1.343,1.343,0,0,1,.7,1.4,4.419,4.419,0,0,1-.6,1.6c-1.6,3.1-3,6.2-4.8,9.2.8,0,1.5-.8,2.1-1.3a21.465,21.465,0,0,1,2.8-2.3,1.922,1.922,0,0,1,1.2-.4c.4.1.9.4.8.8,0,.3-.3.4-.4.7-5,5.8-10.1,12.4-17.1,15.9-3.9,1.9-8.4,2.5-12.2,4.4a28.163,28.163,0,0,0-7.4,5.4c-7.3,6.1-14.6,12.3-22.3,17.9-6.3,4.5-12.7,9.3-20.4,4.9-4.3-2.4-7.4-6.6-10.4-10.5-2.8-3.8-15.1-21.2-15.1-21.2s.8-2.6.9-3a13.231,13.231,0,0,1,1.5-2.9,19.737,19.737,0,0,1,4.3-4.8,25.2,25.2,0,0,1,12.9-5.4c4.2,7.7,8.1,15.5,11.6,23.5A22.591,22.591,0,0,1,1500.6,372.9Z" fill="#fff"/>
    <path id="Pfad_13502" data-name="Pfad 13502" d="M1477.4,286.7a13.935,13.935,0,0,0-1.5-1.9,4.431,4.431,0,0,0-2.9-.8c-2.4.4-9.8,4.8-7.9,8,.7,1.1,2.3,1.2,2.9,2.3a2.01,2.01,0,0,1,.4,1.3,9.275,9.275,0,0,1-.1,3.7,1.51,1.51,0,0,1-1.6,1.1c-.3-.1-.4-.2-.7-.3a3.721,3.721,0,0,0-2-.7c-2.7-.1-1.4,3.8-.9,5.3.5,1.2,1.3,2.4,2.7,2.5,1.8.1,2.4-1.8,2.9-3,1.7,2.2,2.2,4.9,3.3,7.4.9,2.2,3.2,2.9,5.4,3.3,1.8.3,3.8.3,5.6.6,3.3.7,6.1,2.5,8.9,4.3.3-2.9-2.2-5.4-3.8-7.9-2.1-2.9-3-6.5-4-9.9a1.721,1.721,0,0,1-.2-1.2,3.747,3.747,0,0,1,.7-1.2c.8-1.4.4-3.3-.4-4.8a25.721,25.721,0,0,0-3.4-5.4c-.3-.4-.7-.8-1-1.2-.6-.6-1.2-.9-1.9-1.6C1477.6,287,1477.4,286.8,1477.4,286.7Z" fill="#fff"/>
    <path id="Pfad_13503" data-name="Pfad 13503" d="M1476,292.1a1.383,1.383,0,0,1,1.2-.3c.2,0,.3.1.4.1.3,0,.5-.3.7-.4.3-.3.4-.4.8-.3.3.1.4.4.4.8,0,.2,0,.3.1.4.1.2.3.3.3.4.3.4.2.8-.2,1.2a7.828,7.828,0,0,1-3.3,1.6,3.347,3.347,0,0,1-3.2-.4c-.1-.1-.2-.2-.2-.3a.52.52,0,0,1,.2-.4c.7-.7,1.3-1.2,2.1-1.9A2.307,2.307,0,0,1,1476,292.1Z" fill="#ff82a0"/>
    <path id="Pfad_13504" data-name="Pfad 13504" d="M1522.9,267.3a7.832,7.832,0,0,1-.4-2.6,2.27,2.27,0,0,1,.8-2c.1-.1.2-.1.3-.2.2-.2.2-.4.3-.7a1.333,1.333,0,0,1,.6-.5,2.354,2.354,0,0,1,.8-.2,3.278,3.278,0,0,1,1,0,1.853,1.853,0,0,1,.7.2,1.157,1.157,0,0,1,.5.7,2.059,2.059,0,0,1,.3,1.5,2.4,2.4,0,0,1-.7,1.2,5.8,5.8,0,0,1-1.4,1.7,4.628,4.628,0,0,1-2.8.9Z" fill="#ff4638"/>
    <path id="Pfad_13505" data-name="Pfad 13505" d="M1526.1,262.2a2.434,2.434,0,0,0-1.4,1,4.6,4.6,0,0,0-.9,2.7c.7-.1.8-.8,1.1-1.2a6.225,6.225,0,0,1,.8-1.2l.4-.4a1.33,1.33,0,0,0,.3-.8C1526.2,262.1,1526.2,262.2,1526.1,262.2Z" fill="#fff"/>
    <path id="Pfad_13506" data-name="Pfad 13506" d="M1551.5,199.2c-2.8.4-5.8,1.2-7.9,3.3a10.907,10.907,0,0,0-2.8,7.1,20.18,20.18,0,0,0,1.5,8.4c.1.3.2.5,0,.8-.3.3-.6-.1-.8-.4a17.315,17.315,0,0,0-6.3-5.4,12.565,12.565,0,0,0-8.1-.7,9.946,9.946,0,0,0-6.8,6.7c-.9,3-.8,6.4-2.2,9.4,2.7-1.8,5.2-3.7,7.8-5.4a20.01,20.01,0,0,1,8.7-3.8,9.169,9.169,0,0,1,5.4,1.2c3,1.9,4.3,5.4,5.7,8.6a43.394,43.394,0,0,1,2.9,11.8c-2.3.4-4.4.7-6.6-.3a32.825,32.825,0,0,1-3.8-2.7,12.732,12.732,0,0,0-9.4-2.3,17.845,17.845,0,0,1,8.1,4.1c1.6,1.5,3,3.3,5.2,4a17.517,17.517,0,0,0,4,.4c3.6.6,3,3.6,3,6.3l-.1,4.8v.9a105.4,105.4,0,0,0,1.2,21.5,52.65,52.65,0,0,0,5.1,15.4c-.1,0-.1-.1-.2-.1a11.888,11.888,0,0,0-2.9-1.2c-4.9-1.1-10.1.5-15-1.2-2.6-.9-4.8-2.7-7.4-3.8a13.808,13.808,0,0,0-6.7-.8,23.224,23.224,0,0,1,7.7,3.4c2.4,1.6,4.5,3.8,7.3,4.5,3.8,1.2,8.2.4,12.1.8.8.1,1.6.3,2.4.4,2.6.8,4.9,2.8,7,4.5a31.347,31.347,0,0,1,5.6,6.9c1.2,2,2.1,4.1,3.1,6.2a11.77,11.77,0,0,1,4.5-.7c-1.1-2.1-2.3-4.5-2.5-4.8a41.684,41.684,0,0,0-5.4-7.6,54.8,54.8,0,0,1-5.5-6.4,32.829,32.829,0,0,1-4.5-12.1,11.778,11.778,0,0,1-.2-4.2c.7-3,3.5-5.2,5.6-7.4a22.439,22.439,0,0,0,5.3-11.2c.4-3,.8-6.2,2.6-8.7a10.772,10.772,0,0,0-3.1,4.7c-1.2,3.6-2.1,7.1-4.8,9.9-1.2,1.2-2.6,2.4-3.9,3.7-.7.6-1.2,1.2-1.9,1.9a7.474,7.474,0,0,0-1.4,1.8c-.4-5.1-.5-10.2-.4-15.3a15.488,15.488,0,0,1,.1-2.1,73.076,73.076,0,0,0-.4-14,50.459,50.459,0,0,0-2.2-9.5c-.9-2.8-2.2-5.4-3.3-8a3.645,3.645,0,0,1-.4-2.7,5.08,5.08,0,0,1,1.6-2,8.337,8.337,0,0,0,1.9-2.3c1.6-3,1.1-6.7,1.8-10a9.715,9.715,0,0,1,2.4-4.6,12.941,12.941,0,0,1,4.7-3.3C1556.7,198.6,1554.1,198.7,1551.5,199.2Z" fill="#cf0"/>
    <path id="Pfad_13507" data-name="Pfad 13507" d="M1531.9,298.7l16.6-2.5s2.4,6.8,1.2,19l-17.6,2C1532.1,317,1534.9,306.6,1531.9,298.7Z" fill="#fff"/>
    <path id="Pfad_13508" data-name="Pfad 13508" d="M1583.6,277c-5-2.8-10.1-5.8-12.9-10.8l-13.7,9.9a29.649,29.649,0,0,0,13.6,13.5A48.757,48.757,0,0,0,1583.6,277Z" fill="#dde5ed"/>
    <path id="Pfad_13509" data-name="Pfad 13509" d="M1566.4,271.7a14.666,14.666,0,0,1-4.9-5.6l-2.6,2.6a15.219,15.219,0,0,0,5,5.7Z" fill="#003"/>
    <path id="Pfad_13510" data-name="Pfad 13510" d="M1547,274.4c3.8-12.7,4.3-19.5,3.8-30.1l-14.1-1.3c-.3,11.4.3,16.1-4.5,28.3Z" fill="#fff"/>
    <path id="Pfad_13511" data-name="Pfad 13511" d="M1542.5,299.2a30.875,30.875,0,0,1,.8-6c-1.2.1-2.4,0-3.6,0a30.875,30.875,0,0,0-.8,6Z" fill="#003"/>
    <path id="Pfad_13512" data-name="Pfad 13512" d="M1546.2,245.7a14.265,14.265,0,0,1,.4-5.8l-3-.3c-.9,1.8-.8,3.8-.8,5.9Z" fill="#003"/>
  </g>
</svg>
