<svg xmlns="http://www.w3.org/2000/svg" width="625.248" height="599.48" viewBox="0 0 625.248 599.48">
  <g id="Questions-pana_1_" data-name="Questions-pana (1)" transform="translate(-29.23 -40.687)">
    <g id="freepik--background-complete--inject-53" transform="translate(54.014 40.687)">
      <path id="Pfad_10285" data-name="Pfad 10285" d="M289.791,510.212c-24.413-11.555-34.141-39.027-37.582-64.615-.58-4.248-1.8-8.666-.411-12.745s5.664-7.406,9.771-6.259c3.413.949,5.409,4.376,7.689,7.08a25.009,25.009,0,0,0,11.555,7.817c2.945.949,6.443,1.246,8.865-.68,3.314-2.648,2.832-7.774,2.152-11.994q-2.081-11.739-4.078-23.478a40,40,0,0,1-.836-12.745c.623-4.248,2.9-8.5,6.726-10.252s9.19-.326,10.734,3.668a40.091,40.091,0,0,1,1.02,5.225c.411,1.742,1.558,3.54,3.3,3.753s3.257-1.274,4.319-2.733c3.625-5,5.664-10.989,7.505-16.922s3.569-11.98,6.741-17.3,8.015-9.913,14-11.329,13.07,1.274,15.577,6.953.085,12.32-2.832,17.786a95.839,95.839,0,0,1-16.554,22.005,7.889,7.889,0,0,0-2.69,4.078c-.439,2.974,2.7,5.324,5.664,5.778,3.314.51,6.684-.4,10.04-.567s7.165.68,8.949,3.583c2.45,4.022-.4,9.162-3.441,12.745A82.132,82.132,0,0,1,334.411,436.9c-2.917,1.657-6.018,3.214-8.156,5.82s-3,6.656-.991,9.374,6.075,3.016,9.219,1.855,5.764-3.413,8.666-5.1c5.438-3.172,13-4.05,17.573.34a13.538,13.538,0,0,1,3.413,11.583,31.052,31.052,0,0,1-4.63,11.513,82.5,82.5,0,0,1-30.559,30.247c-12.674,6.939-24.937,10.323-39.14,7.69" transform="translate(38.322 86.479)" fill="#f5f5f5"/>
      <path id="Pfad_10286" data-name="Pfad 10286" d="M281.17,492.376a383.57,383.57,0,0,1,8.128-43.289l2.719-11.229c.892-3.7,1.784-7.349,2.832-10.861a192.54,192.54,0,0,1,7.449-19.825c2.676-6.2,5.438-12.008,8.057-17.4s5.183-10.38,7.7-14.812A151.534,151.534,0,0,1,331.483,354.9c1.77-2.237,3.2-3.922,4.177-5.055.467-.538.85-.963,1.119-1.289s.4-.425.411-.41a4.274,4.274,0,0,1-.34.467l-1.076,1.331c-.935,1.161-2.323,2.832-4.05,5.14a160.986,160.986,0,0,0-13.184,20.15c-2.478,4.446-5,9.431-7.6,14.826s-5.324,11.2-7.972,17.4a190.4,190.4,0,0,0-7.364,19.825c-1.09,3.5-1.968,7.08-2.832,10.819l-2.719,11.244a392.375,392.375,0,0,0-8.171,43.19" transform="translate(50.808 87.237)" fill="#e0e0e0"/>
      <path id="Pfad_10287" data-name="Pfad 10287" d="M295.123,417.137a8.2,8.2,0,0,1-.722-1.742c-.425-1.119-.977-2.832-1.629-4.829-1.3-4.107-2.917-9.842-4.673-16.157s-3.441-12.022-4.815-16.087c-.68-2.039-1.246-3.7-1.643-4.815a10.4,10.4,0,0,1-.552-1.8,8.276,8.276,0,0,1,.835,1.685c.5,1.09,1.133,2.719,1.883,4.73,1.515,4.05,3.285,9.728,5.056,16.072s3.257,11.895,4.446,16.2c.552,1.954,1.005,3.6,1.416,4.914A10.686,10.686,0,0,1,295.123,417.137Z" transform="translate(50.775 97.04)" fill="#e0e0e0"/>
      <path id="Pfad_10288" data-name="Pfad 10288" d="M343.615,390.13a10.7,10.7,0,0,1-2.124.637c-1.416.354-3.356.864-5.792,1.572-4.885,1.416-11.555,3.512-18.819,6.2s-13.736,5.423-18.409,7.519c-2.322,1.034-4.177,1.926-5.466,2.535a12.336,12.336,0,0,1-2.025.878,10.607,10.607,0,0,1,1.884-1.161c1.246-.694,3.073-1.657,5.367-2.832,4.574-2.237,11.031-5.055,18.31-7.76a191.138,191.138,0,0,1,18.961-5.99c2.464-.651,4.475-1.076,5.877-1.345a12.1,12.1,0,0,1,2.237-.255Z" transform="translate(54.89 104.704)" fill="#e0e0e0"/>
      <path id="Pfad_10289" data-name="Pfad 10289" d="M293.007,468.248a3.7,3.7,0,0,1-.481-.609l-1.26-1.8c-1.09-1.586-2.606-3.894-4.432-6.783-3.682-5.777-8.5-13.92-13.693-22.983s-9.912-17.233-13.495-23.068l-4.248-6.924-1.133-1.883a2.7,2.7,0,0,1-.354-.68,5.416,5.416,0,0,1,.482.595c.3.411.765,1.076,1.26,1.813,1.09,1.572,2.606,3.88,4.447,6.783,3.667,5.777,8.5,13.906,13.693,22.969s9.912,17.233,13.481,23.082l4.248,6.91c.453.75.835,1.416,1.133,1.883A2.618,2.618,0,0,1,293.007,468.248Z" transform="translate(39.467 110.275)" fill="#e0e0e0"/>
      <path id="Pfad_10290" data-name="Pfad 10290" d="M349.762,424.18a2.626,2.626,0,0,1-.665.425l-1.968,1.048-7.307,3.809c-6.174,3.228-14.642,7.774-23.988,12.745s-17.856,9.516-24.073,12.6c-3.115,1.543-5.664,2.832-7.42,3.583l-2.124.935a3.3,3.3,0,0,1-.736.283,3.035,3.035,0,0,1,.665-.425l1.982-1.048,7.307-3.823c6.16-3.214,14.628-7.76,23.974-12.745s17.871-9.5,24.073-12.589c3.115-1.543,5.664-2.832,7.42-3.583l2.039-.935A2.836,2.836,0,0,1,349.762,424.18Z" transform="translate(50.937 118.871)" fill="#e0e0e0"/>
      <path id="Pfad_10291" data-name="Pfad 10291" d="M160,247.507s-16.823,2.337-7.378,39.182,17.46,55.849,17.46,55.849,1.26,8.341-5.466,8.086-20.448-5.664-25.107,1.543c-4.815,7.534-.595,16.6,9.912,26.1s32.909,31.153,34.92,33.122,3.484,6.018-1.133,6.571-37.356-3.285-38.234,12.362,32.867,37.285,36.506,39.72,4.248,4.333,3.4,6.457-11.7-.212-21.057-.935-20.349.113-20.108,9.176,17.97,32,69.656,49.052l24.484,6.33,18.083-17.814c36.393-40.485,40.372-69.189,36.081-77.176s-14.161-3.243-22.006,2.025S253.958,459.9,252.2,458.486s-2.209-3.37-.255-7.293,20.49-39.466,11.937-52.607-35.062,6.429-39.31,8.227-5.013-2.478-4.248-5.14,9.4-32.569,13.849-46.093,3.6-23.464-4.333-27.6c-7.647-3.979-16.837,7.576-22.558,11.144s-8.751-4.248-8.751-4.248-2.492-20.462-12.6-57.138-26.24-30.105-26.24-30.105" transform="translate(-8.954 45.226)" fill="#ebebeb"/>
      <path id="Pfad_10292" data-name="Pfad 10292" d="M228.761,536.412c-7.321-26.905-19.542-75.051-30.233-116.386s-20.406-78.606-27.6-105.6c-3.6-13.481-6.514-24.384-8.5-31.96-.991-3.753-1.77-6.684-2.308-8.695l-.595-2.266c-.127-.51-.17-.779-.17-.779s.1.241.255.751.368,1.289.651,2.252c.581,2.011,1.416,4.914,2.464,8.652,2.124,7.519,5.126,18.409,8.78,31.89,7.321,26.905,17.134,64.3,27.826,105.553s22.813,89.439,30.006,116.429" transform="translate(0.128 55.026)" fill="#e0e0e0"/>
      <path id="Pfad_10293" data-name="Pfad 10293" d="M152.27,327.26a9.154,9.154,0,0,1,1.614.864c1.005.595,2.45,1.5,4.248,2.634,3.526,2.28,8.326,5.551,13.552,9.247l13.339,9.516,4.064,2.832a8.058,8.058,0,0,1,1.416,1.119,8.9,8.9,0,0,1-1.629-.864c-1.005-.595-2.45-1.5-4.248-2.648-3.5-2.308-8.256-5.664-13.481-9.346l-13.41-9.417-4.078-2.832a8.3,8.3,0,0,1-1.388-1.1Z" transform="translate(-2.822 78.546)" fill="#e0e0e0"/>
      <path id="Pfad_10294" data-name="Pfad 10294" d="M180.721,358.184c-.184-.113,6.117-10.295,14.062-22.742S209.34,313,209.524,313.11s-6.117,10.309-14.076,22.756S180.905,358.269,180.721,358.184Z" transform="translate(9.014 72.658)" fill="#e0e0e0"/>
      <path id="Pfad_10295" data-name="Pfad 10295" d="M190.3,399.8a7.469,7.469,0,0,1,1.345-1.3l3.809-3.342c3.214-2.832,7.647-6.741,12.376-11.244s8.893-8.709,11.867-11.782c1.416-1.416,2.577-2.676,3.526-3.639a9.791,9.791,0,0,1,1.416-1.289,7.433,7.433,0,0,1-1.133,1.487c-.765.92-1.912,2.223-3.356,3.809-2.832,3.186-6.967,7.477-11.725,11.98s-9.233,8.383-12.546,11.1c-1.671,1.416-3.03,2.436-3.993,3.158A8.655,8.655,0,0,1,190.3,399.8Z" transform="translate(13.001 95.163)" fill="#e0e0e0"/>
      <path id="Pfad_10296" data-name="Pfad 10296" d="M161.05,379.89a7.074,7.074,0,0,1,1.671.411l4.489,1.416c3.767,1.2,8.964,2.917,14.685,4.843s10.889,3.738,14.614,5.084l4.4,1.614a7.631,7.631,0,0,1,1.572.694,6.546,6.546,0,0,1-1.671-.4l-4.489-1.416c-3.767-1.2-8.964-2.917-14.685-4.857s-10.889-3.738-14.614-5.069l-4.4-1.628A6.413,6.413,0,0,1,161.05,379.89Z" transform="translate(0.831 100.443)" fill="#e0e0e0"/>
      <path id="Pfad_10297" data-name="Pfad 10297" d="M164.43,420.94a11.262,11.262,0,0,1,2.138.538l5.749,1.756c4.843,1.515,11.513,3.654,18.876,6.075s14,4.631,18.805,6.287l5.664,1.983a14.425,14.425,0,0,1,2.053.835,11.223,11.223,0,0,1-2.152-.538l-5.749-1.756c-4.843-1.515-11.513-3.654-18.876-6.075s-14-4.645-18.791-6.287l-5.664-2A12.244,12.244,0,0,1,164.43,420.94Z" transform="translate(2.237 117.522)" fill="#e0e0e0"/>
      <path id="Pfad_10298" data-name="Pfad 10298" d="M201.24,445.224a12.683,12.683,0,0,1,1.657-1.685l4.687-4.4c3.951-3.724,9.389-8.893,15.237-14.769s11.017-11.328,14.727-15.294l4.39-4.7a15.039,15.039,0,0,1,1.685-1.671,12.54,12.54,0,0,1-1.416,1.869c-.963,1.176-2.408,2.832-4.248,4.871-3.611,4.078-8.709,9.6-14.585,15.477s-11.328,11-15.407,14.628c-2.039,1.8-3.7,3.257-4.871,4.248A14.033,14.033,0,0,1,201.24,445.224Z" transform="translate(17.553 109.934)" fill="#e0e0e0"/>
      <path id="Pfad_10299" data-name="Pfad 10299" d="M117.5,107.98l-13.821-4.248s-3.625,11.612-15.747,8.057a11.739,11.739,0,0,1-8.6-10.521A12.914,12.914,0,0,1,83.8,90.321c3.554-3.144,9.785-5.055,18.579-.51L112.1,58.658,98.44,54.41,92.776,72.663S72.044,71.629,65.46,92.743c-6.3,20.207,10.351,30.559,18.111,32.98C89.462,127.564,110.151,132.435,117.5,107.98Z" transform="translate(-39.521 -34.977)" fill="#f5f5f5"/>
      <rect id="Rechteck_1755" data-name="Rechteck 1755" width="14.529" height="13.566" transform="translate(74.64 17.278) rotate(-162.67)" fill="#f5f5f5"/>
      <path id="Pfad_10300" data-name="Pfad 10300" d="M128.89,71.321l5.537-1.416a4.857,4.857,0,0,1,3.583-5.99,4.645,4.645,0,0,1,5.1,1.713,5.112,5.112,0,0,1,.779,4.574c-.524,1.8-2.209,3.753-6.117,4.078l3.3,12.475,5.466-1.416-1.926-7.307a11.031,11.031,0,0,0,4.914-12.461c-2.124-8.1-9.913-8.057-12.985-7.25C134.158,58.874,126.213,61.579,128.89,71.321Z" transform="translate(-12.776 -33.494)" fill="#ebebeb"/>
      <rect id="Rechteck_1756" data-name="Rechteck 1756" width="5.774" height="5.39" transform="translate(130.11 55.161) rotate(-15.005)" fill="#ebebeb"/>
      <path id="Pfad_10301" data-name="Pfad 10301" d="M451.54,170.74l5.381,1.94a4.871,4.871,0,0,1,6.372-2.832,4.616,4.616,0,0,1,3.2,4.248,5.14,5.14,0,0,1-1.954,4.248c-1.416,1.175-3.951,1.812-7.349-.142l-4.4,12.136,5.324,1.926,2.578-7.08a11.06,11.06,0,0,0,11.144-7.448c2.832-7.873-3.554-12.249-6.57-13.339C462.954,163.49,454.882,161.21,451.54,170.74Z" transform="translate(121.693 10.408)" fill="#ebebeb"/>
      <rect id="Rechteck_1757" data-name="Rechteck 1757" width="5.749" height="5.367" transform="translate(573.603 203.172) rotate(19.91)" fill="#ebebeb"/>
      <path id="Pfad_10302" data-name="Pfad 10302" d="M48.9,221.267l11.328-4.39s-3.682-9.558,6.188-13.566a9.912,9.912,0,0,1,11.187,2.45,10.946,10.946,0,0,1,2.747,9.53c-.708,3.937-3.823,8.5-12.022,10.068l9.912,25.673L89.565,246.7l-5.806-15.039s14.161-10.167,7.519-27.585c-6.443-16.653-22.926-14.755-29.256-12.306C57.137,193.653,40.937,201.258,48.9,221.267Z" transform="translate(-46.732 21.508)" fill="#f5f5f5"/>
      <rect id="Rechteck_1758" data-name="Rechteck 1758" width="12.249" height="11.442" transform="translate(33.549 277.836) rotate(-21.07)" fill="#f5f5f5"/>
      <path id="Pfad_10303" data-name="Pfad 10303" d="M463.839,248.839l-8.072,3.1s2.606,6.783-4.39,9.615a7.08,7.08,0,0,1-7.93-1.728,7.746,7.746,0,0,1-1.94-6.755c.51-2.832,2.719-6,8.5-7.08l-6.939-18.253-7.987,3.073,4.107,10.663a16.7,16.7,0,0,0-5.325,19.542c4.546,11.8,16.186,10.465,20.717,8.723C458,268.4,469.475,263.014,463.839,248.839Z" transform="translate(113.826 37.139)" fill="#f5f5f5"/>
      <rect id="Rechteck_1759" data-name="Rechteck 1759" width="8.68" height="8.1" transform="translate(555.426 261.134) rotate(158.93)" fill="#f5f5f5"/>
    </g>
    <g id="freepik--Floor--inject-53" transform="translate(29.23 639.431)">
      <path id="Pfad_10304" data-name="Pfad 10304" d="M654.478,463.878c0,.212-139.978.368-312.61.368S29.23,464.09,29.23,463.878s139.949-.368,312.638-.368S654.478,463.68,654.478,463.878Z" transform="translate(-29.23 -463.51)" fill="#263238"/>
    </g>
    <g id="freepik--speech-bubble--inject-53" transform="translate(532.631 59.675)">
      <path id="Pfad_10311" data-name="Pfad 10311" d="M427.674,93.983H422.01a4.8,4.8,0,0,1-4.914,4.829,4.56,4.56,0,0,1-4.418-2.917,5.041,5.041,0,0,1,.4-4.56c.963-1.586,3.059-3.016,6.854-2.351V76.24h-5.565v7.448a10.875,10.875,0,0,0-7.8,10.62c0,8.241,7.392,10.153,10.564,10.153C419.546,104.519,427.787,103.938,427.674,93.983Z" transform="translate(-375.638 -44.883)" fill="#486b84"/>
      <rect id="Rechteck_1760" data-name="Rechteck 1760" width="5.65" height="5.282" transform="translate(44.332 28.78) rotate(180)" fill="#486b84"/>
      <path id="Pfad_10312" data-name="Pfad 10312" d="M467.643,95.663a4.6,4.6,0,0,0,0-.722v-2.1a12.127,12.127,0,0,0-.071-1.544c-.071-.566-.156-1.189-.255-1.841s-.2-1.416-.312-2.167l-.595-2.407a39.281,39.281,0,0,0-5.1-11.683,41.194,41.194,0,0,0-31-18.947,41.631,41.631,0,0,0-5.664-.113,14.433,14.433,0,0,0-2.832.184l-2.917.439a42.036,42.036,0,0,0-11.5,3.922,44.858,44.858,0,0,0-10.323,7.519,42.975,42.975,0,0,0-7.774,10.819,39.267,39.267,0,0,0-4.192,13.184,26.761,26.761,0,0,0-.3,3.526,29.835,29.835,0,0,0-.071,3.554,41.788,41.788,0,0,0,6.868,21.312v-.439c-1.968,4.914-3.908,9.742-5.806,14.444l-.34.864.892-.255,15.435-4.248-.368-.085a41.32,41.32,0,0,0,17.672,7.732,36.819,36.819,0,0,0,9.035.552,27.572,27.572,0,0,0,4.347-.411l2.11-.326c.694-.127,1.416-.34,2.039-.5a41.307,41.307,0,0,0,23.535-16.129,39.409,39.409,0,0,0,5.055-9.587c.269-.751.524-1.416.765-2.152s.368-1.416.524-2.053.326-1.289.467-1.883.184-1.175.269-1.728c.127-1.09.326-2.053.368-2.832s0-1.529,0-2.124V95.72a1.494,1.494,0,0,0,0,.439,6.664,6.664,0,0,1-.1,1.289c-.1.538-.085,1.289-.142,2.11s-.269,1.784-.439,2.832a41.067,41.067,0,0,1-30.46,32.853c-.665.156-1.331.354-2.011.481l-2.081.311a28.224,28.224,0,0,1-4.248.382,37.713,37.713,0,0,1-8.865-.581,40.855,40.855,0,0,1-17.262-7.6l-.17-.142h-.213l-15.449,4.248.538.609,5.82-14.43.085-.227-.127-.212a40.729,40.729,0,0,1-5.835-13.863,41.5,41.5,0,0,1-.878-6.967,28.281,28.281,0,0,1,.071-3.469,23.156,23.156,0,0,1,.283-3.441,38.321,38.321,0,0,1,3.951-12.9,42.641,42.641,0,0,1,7.576-10.592,43.731,43.731,0,0,1,10.111-7.378,40.771,40.771,0,0,1,11.258-3.894l2.832-.439c.949-.142,1.9-.127,2.832-.2a42.341,42.341,0,0,1,5.537.1A40.755,40.755,0,0,1,460.86,73.445a39.214,39.214,0,0,1,5.183,11.5l.637,2.379c.127.751.241,1.416.354,2.124s.2,1.274.3,1.841.071,1.076.113,1.529A20.473,20.473,0,0,0,467.6,94.9,2.39,2.39,0,0,0,467.643,95.663Z" transform="translate(-384.723 -54.096)" fill="#263238"/>
    </g>
    <g id="freepik--question-mark--inject-53" transform="translate(159.366 114.875)">
      <path id="Pfad_10313" data-name="Pfad 10313" d="M145.075,246.441h81.778s0-68.665,71.355-69.883c37.058-.651,56.274,23.634,64.091,42.227,9.063,21.6,6.316,46.206-5.834,66.243C342.6,307.9,312.723,330.88,257.61,321.166l-.524,182.2h80.871V395.354S451.369,366.041,451.369,241c0-119.586-96.7-145.415-148.686-147.086-28.916-.92-39.395-2.167-75.165,2.917C181.935,103.348,144.112,156.28,145.075,246.441Z" transform="translate(-111.174 -93.077)" fill="#207178"/>
      <rect id="Rechteck_1761" data-name="Rechteck 1761" width="82.075" height="76.651" transform="translate(145.685 448.272)" fill="#207178"/>
      <rect id="Rechteck_1762" data-name="Rechteck 1762" width="82.075" height="76.651" transform="translate(145.685 448.272)" fill="#486b84" opacity="0.1"/>
      <path id="Pfad_10314" data-name="Pfad 10314" d="M145.075,246.441h81.778s0-68.665,71.355-69.883c37.058-.651,56.274,23.634,64.091,42.227,9.063,21.6,6.316,46.206-5.834,66.243C342.6,307.9,312.723,330.88,257.61,321.166l-.524,182.2h80.871V395.354S451.369,366.041,451.369,241c0-119.586-96.7-145.415-148.686-147.086-28.916-.92-39.395-2.167-75.165,2.917C181.935,103.348,144.112,156.28,145.075,246.441Z" transform="translate(-111.174 -93.077)" opacity="0.1"/>
      <path id="Pfad_10315" data-name="Pfad 10315" d="M121.144,246.273h81.792s0-68.665,71.355-69.883c37.058-.651,56.274,23.634,64.077,42.227,9.077,21.595,6.33,46.206-5.82,66.243-13.863,22.869-44.266,43.657-99.379,33.985V503.2H314.04V395.186s113.412-29.312,113.412-154.351C427.453,121.249,320.2,93.48,274.306,93.48,239.2,93.523,119.6,102,121.144,246.273Z" transform="translate(-121.129 -92.91)" fill="#207178"/>
      <path id="Pfad_10316" data-name="Pfad 10316" d="M121.144,246.273h81.792s0-68.665,71.355-69.883c37.058-.651,56.274,23.634,64.077,42.227,9.077,21.595,6.33,46.206-5.82,66.243-13.863,22.869-44.266,43.657-99.379,33.985V503.2H314.04V395.186s113.412-29.312,113.412-154.351C427.453,121.249,320.2,93.48,274.306,93.48,239.2,93.523,119.6,102,121.144,246.273Z" transform="translate(-121.129 -92.91)" fill="#003" opacity="0.3"/>
      <rect id="Rechteck_1763" data-name="Rechteck 1763" width="82.075" height="76.651" transform="translate(111.813 448.272)" fill="#207178"/>
      <rect id="Rechteck_1764" data-name="Rechteck 1764" width="82.075" height="76.651" transform="translate(111.813 448.272)" opacity="0.3"/>
      <path id="Pfad_10317" data-name="Pfad 10317" d="M259.629,152.554a7.106,7.106,0,0,1-1.218,0c-.807,0-1.968-.269-3.483-.283a70.644,70.644,0,0,0-12.829.538,90.881,90.881,0,0,0-18.508,4.347,79.178,79.178,0,0,0-10.309,4.446,54.492,54.492,0,0,0-10.1,6.528,49.9,49.9,0,0,0-8.256,8.723,85.489,85.489,0,0,0-6.188,9.374,83.822,83.822,0,0,0-7.321,17.531,71.3,71.3,0,0,0-2.464,12.6c-.17,1.5-.212,2.69-.255,3.483a6.436,6.436,0,0,1-.113,1.218,6.78,6.78,0,0,1,0-1.218c0-.807,0-2,.127-3.512a65.141,65.141,0,0,1,2.252-12.744,81.562,81.562,0,0,1,7.222-17.729,84.808,84.808,0,0,1,6.216-9.473,49.559,49.559,0,0,1,8.355-8.85,54.881,54.881,0,0,1,10.224-6.613,79.316,79.316,0,0,1,10.38-4.531,88.957,88.957,0,0,1,18.678-4.248,65.144,65.144,0,0,1,12.9-.3,30.547,30.547,0,0,1,3.483.425A8.78,8.78,0,0,1,259.629,152.554Z" transform="translate(-97.235 -68.705)" fill="#263238"/>
      <path id="Pfad_10318" data-name="Pfad 10318" d="M363.417,162.117s-.1-.1-.269-.312-.425-.581-.708-.991l-2.7-3.823c-.581-.821-1.2-1.77-1.94-2.747l-2.549-3.1-2.917-3.583c-1.062-1.246-2.308-2.45-3.554-3.767s-2.521-2.719-3.965-4.064-2.988-2.719-4.574-4.135c-.793-.708-1.572-1.416-2.422-2.167l-2.634-2.082c-1.8-1.416-3.583-2.832-5.523-4.248a178,178,0,0,0-26.806-15.832l-7.462-3.37-7.406-2.832c-2.421-1.005-4.885-1.713-7.264-2.506s-4.7-1.6-7.08-2.152l-6.769-1.77c-2.195-.581-4.376-.935-6.457-1.416a58.9,58.9,0,0,0-6.061-1.147l-5.664-.821c-3.583-.609-6.868-.736-9.728-1.02-1.416-.113-2.832-.269-4.008-.326l-3.37-.085-4.673-.156H225.28a1.329,1.329,0,0,1,.411,0h9.275c1.232,0,2.577.17,4.022.269,2.832.241,6.174.34,9.757.92l5.664.765c1.968.227,3.979.736,6.075,1.119s4.248.779,6.5,1.416l6.8,1.756c2.351.538,4.673,1.416,7.08,2.138a59.787,59.787,0,0,1,7.279,2.492l7.449,2.832,7.505,3.384A173.55,173.55,0,0,1,330,126.7c1.954,1.416,3.738,2.931,5.537,4.333l2.634,1.912c.85.708,1.628,1.416,2.421,2.181l4.56,4.248c1.416,1.416,2.69,2.832,3.951,4.121s2.464,2.549,3.526,3.809l2.832,3.611,2.52,3.144c.722.991,1.331,1.954,1.9,2.832,1.1,1.657,1.968,2.96,2.577,3.894l.666,1.034A1.625,1.625,0,0,1,363.417,162.117Z" transform="translate(-77.797 -92.84)" fill="#263238"/>
      <path id="Pfad_10319" data-name="Pfad 10319" d="M341.458,266a4.384,4.384,0,0,1-.609.85l-1.954,2.308c-.807,1.034-1.827,2.266-3.087,3.639s-2.606,2.988-4.248,4.659-3.4,3.54-5.4,5.424-4.163,3.866-6.471,5.933a176.818,176.818,0,0,1-33.079,22.813c-2.747,1.416-5.339,2.832-7.845,3.922s-4.843,2.209-7,3.116-4.135,1.657-5.863,2.322-3.243,1.2-4.489,1.6l-2.832.921a4.946,4.946,0,0,1-1.02.283,5.053,5.053,0,0,1,.963-.425l2.832-1.048c1.232-.439,2.719-1.005,4.432-1.713s3.7-1.416,5.82-2.421,4.475-1.954,6.925-3.186,5.069-2.535,7.8-3.965c5.4-2.974,11.215-6.457,17.092-10.479A192.2,192.2,0,0,0,319.3,288.3c2.308-2.039,4.517-3.951,6.486-5.877s3.809-3.668,5.438-5.339,3.059-3.214,4.333-4.574,2.323-2.549,3.172-3.54l1.982-2.251A6.439,6.439,0,0,1,341.458,266Z" transform="translate(-64.362 -21.131)" fill="#263238"/>
      <path id="Pfad_10320" data-name="Pfad 10320" d="M256.462,408.133c-.212,0-.382-22.742-.382-50.794s.17-50.809.382-50.809.368,22.742.368,50.809S256.66,408.133,256.462,408.133Z" transform="translate(-64.982 -4.268)" fill="#263238"/>
      <path id="Pfad_10321" data-name="Pfad 10321" d="M258.658,481.049c-.212,0-.368-15.959-.368-35.642s.156-35.656.368-35.656.368,15.959.368,35.656S258.856,481.049,258.658,481.049Z" transform="translate(-64.062 38.678)" fill="#263238"/>
    </g>
    <g id="freepik--Character--inject-53" transform="translate(427.866 84.933)">
      <path id="Pfad_10322" data-name="Pfad 10322" d="M315.47,198.083c-1.416,2.832,3.866,5.155,6.91,6.075a27.783,27.783,0,0,0,9.5.651c4.248-.227,8.6-.623,12.263-2.719a19.57,19.57,0,0,0,7.392-8.284,58.283,58.283,0,0,0,3.753-10.606S321.827,185.381,315.47,198.083Z" transform="translate(-308.871 -25.638)" fill="#207178"/>
      <g id="Gruppe_7771" data-name="Gruppe 7771" transform="translate(6.362 157.562)" opacity="0.4">
        <path id="Pfad_10323" data-name="Pfad 10323" d="M315.47,198.083c-1.416,2.832,3.866,5.155,6.91,6.075a27.783,27.783,0,0,0,9.5.651c4.248-.227,8.6-.623,12.263-2.719a19.57,19.57,0,0,0,7.392-8.284,58.283,58.283,0,0,0,3.753-10.606S321.827,185.381,315.47,198.083Z" transform="translate(-315.233 -183.2)"/>
      </g>
      <path id="Pfad_10324" data-name="Pfad 10324" d="M382.781,190.2a32.116,32.116,0,0,0,18.89,5.919,13.354,13.354,0,0,0,8.992-2.832c1.09-1.005,1.912-2.28,3.03-3.243.765-.651,1.657-1.147,2.379-1.841a3.044,3.044,0,0,0,1.034-2.69,5.565,5.565,0,0,0-1.954-3.115c-3.838-2.181-8.426-2.1-12.844-2a44.2,44.2,0,0,0-12.957,2.535c-3.427,1.161-7.009,2.832-8.751,5.948" transform="translate(-281.674 -26.819)" fill="#207178"/>
      <g id="Gruppe_7772" data-name="Gruppe 7772" transform="translate(98.926 153.563)" opacity="0.4">
        <path id="Pfad_10325" data-name="Pfad 10325" d="M417.106,185.508a5.876,5.876,0,0,0-2.506-2.832c-3.838-2.181-7.873-2.379-12.291-2.28a44.2,44.2,0,0,0-12.957,2.535c-3.427,1.161-7.009,2.832-8.751,5.947l2.181,1.317a32.115,32.115,0,0,0,18.89,5.919,13.352,13.352,0,0,0,8.992-2.832c1.091-1.005,1.912-2.28,3.031-3.243.765-.651,1.657-1.147,2.379-1.841A3.044,3.044,0,0,0,417.106,185.508Z" transform="translate(-380.6 -180.376)"/>
      </g>
      <path id="Pfad_10326" data-name="Pfad 10326" d="M346.51,259.481l70.591.935a.92.92,0,0,0,.878-1.19L409.694,233.4s1.218-12.915,2.9-28.435c2.563-23.577,5.976-53.216,6.018-53.131C413.787,138.294,385.3,136,385.3,136l-32.47,1.926-1.133-1.912-9.346,4.347a42.661,42.661,0,0,0-5.863,3.314c-6.174,4.121-21.043,13.594-23.761,24.144-6.273,24.427,4.347,51.686,4.347,51.686l6.825-5.339a47.921,47.921,0,0,1,5.409-3.611l13.679,36.662a6.472,6.472,0,0,0-2.974,4.7c-.113,2.974,1.416,6.542,6.5,7.562" transform="translate(-310.74 -45.276)" fill="#486b84"/>
      <g id="Gruppe_7773" data-name="Gruppe 7773" transform="translate(56.833 134.395)" opacity="0.3">
        <path id="Pfad_10327" data-name="Pfad 10327" d="M360.1,203.431c2.237-12.036,1.062-24.413-.142-36.591-3.908,9.912-3.767,21.241-7.916,31.068a13.3,13.3,0,0,0-1.1,3.271,3.668,3.668,0,0,0,.935,3.2c1.133,1.034,2.832.467,4.333.3a16.9,16.9,0,0,0,3.894-1.246" transform="translate(-350.875 -166.84)"/>
      </g>
      <g id="Gruppe_7774" data-name="Gruppe 7774" transform="translate(39.126 189.874)" opacity="0.4">
        <path id="Pfad_10328" data-name="Pfad 10328" d="M339.262,215c5.664,1.968,11.7-1.7,17.687-2.351,3.965-.425,7.93.482,11.867,1.119a89.013,89.013,0,0,0,24.073.595,9.233,9.233,0,0,0,3.54-.92,4.248,4.248,0,0,0,1.855-3.512c-13.339-1.416-26.664-2.181-40-3.554a24.98,24.98,0,0,0-10,.326c-4.021,1.246-7.08,4.4-9.912,7.533" transform="translate(-338.37 -206.019)"/>
      </g>
      <path id="Pfad_10329" data-name="Pfad 10329" d="M417.226,195.087c-5.763-12.985-26.084-48.9-26.084-48.9L375.41,165.916l3.668,38.729s8.312-9.275,31.55-9.459a11.328,11.328,0,0,1,8.638,4.56Z" transform="translate(-283.833 -41.037)" fill="#486b84"/>
      <path id="Pfad_10330" data-name="Pfad 10330" d="M339.578,180.909a53.4,53.4,0,0,1-2.662-8.5,53.64,53.64,0,0,1-1.926-8.652,56.2,56.2,0,0,1,2.648,8.5A54.718,54.718,0,0,1,339.578,180.909Z" transform="translate(-300.651 -33.727)" fill="#263238"/>
      <path id="Pfad_10331" data-name="Pfad 10331" d="M374.571,158.27a9.33,9.33,0,0,1,1.416,1.232,41.085,41.085,0,0,1,3.512,3.852,37.4,37.4,0,0,1,7.519,15.378,29.007,29.007,0,0,1,.439,9.488c-.354,2.9-.906,5.452-1.274,7.6s-.595,3.908-.708,5.126a9.5,9.5,0,0,1-.2,1.883,8.5,8.5,0,0,1-.085-1.912,45.989,45.989,0,0,1,.481-5.183c.3-2.167.793-4.744,1.119-7.59a29.3,29.3,0,0,0-.5-9.261,39.038,39.038,0,0,0-7.208-15.208C376.5,160.2,374.458,158.383,374.571,158.27Z" transform="translate(-284.184 -36.011)" fill="#263238"/>
      <path id="Pfad_10332" data-name="Pfad 10332" d="M375.257,224.367a6.031,6.031,0,0,1-1.543.453,13.8,13.8,0,0,1-1.841.354c-.722.1-1.544.255-2.464.3a35.507,35.507,0,0,1-6.485,0,41.884,41.884,0,0,1-7.788-1.558,42.486,42.486,0,0,1-7.307-3.13,37.366,37.366,0,0,1-5.367-3.639c-.736-.566-1.331-1.161-1.869-1.657a16.322,16.322,0,0,1-1.317-1.331,5.54,5.54,0,0,1-1.005-1.246c.1-.1,1.614,1.6,4.517,3.823a40.776,40.776,0,0,0,5.367,3.455,45.03,45.03,0,0,0,7.194,3.016,44.371,44.371,0,0,0,7.647,1.586,41.923,41.923,0,0,0,6.372.2C373.006,224.792,375.229,224.254,375.257,224.367Z" transform="translate(-299.286 -13.278)" fill="#263238"/>
      <path id="Pfad_10333" data-name="Pfad 10333" d="M381.112,215.32a4.926,4.926,0,0,1,.552,2.067,12.742,12.742,0,0,1-.382,5.154,8.951,8.951,0,0,1-2.832,4.39c-1.034.864-1.827,1.133-1.869,1.062s.623-.538,1.515-1.416a10.026,10.026,0,0,0,2.421-4.248C381.65,218.591,380.843,215.334,381.112,215.32Z" transform="translate(-283.347 -12.274)" fill="#263238"/>
      <path id="Pfad_10334" data-name="Pfad 10334" d="M377.964,218.84a7.675,7.675,0,0,1-3.03,7.817c-.156-.156,1.161-1.558,1.983-3.724S377.752,218.854,377.964,218.84Z" transform="translate(-284.037 -10.81)" fill="#263238"/>
      <path id="Pfad_10335" data-name="Pfad 10335" d="M369.619,185.94a30.1,30.1,0,0,1-2.521,3.625,29.045,29.045,0,0,1-2.478,3.653,9.078,9.078,0,0,1,1.869-4.078A8.935,8.935,0,0,1,369.619,185.94Z" transform="translate(-288.323 -24.498)" fill="#263238"/>
      <path id="Pfad_10336" data-name="Pfad 10336" d="M340.857,164.346a35.507,35.507,0,0,1-3.13-2.067A40.2,40.2,0,0,0,321,156.034a31.56,31.56,0,0,1-3.724-.5,13.819,13.819,0,0,1,3.781,0,33.816,33.816,0,0,1,16.993,6.33A13.507,13.507,0,0,1,340.857,164.346Z" transform="translate(-308.019 -37.201)" fill="#263238"/>
      <path id="Pfad_10337" data-name="Pfad 10337" d="M390.177,145.86a61.23,61.23,0,0,0-7.08,6.7,60.9,60.9,0,0,0-5.367,8.185,8.642,8.642,0,0,1,.977-2.747,28.561,28.561,0,0,1,3.823-5.919,27.806,27.806,0,0,1,5.183-4.772A8.327,8.327,0,0,1,390.177,145.86Z" transform="translate(-282.868 -41.174)" fill="#263238"/>
      <path id="Pfad_10338" data-name="Pfad 10338" d="M377.985,137.62a3.1,3.1,0,0,1,.312.651,12.657,12.657,0,0,1,.666,1.982,16.671,16.671,0,0,1,0,7.675,18.894,18.894,0,0,1-5.778,9.757,19.614,19.614,0,0,1-13.028,4.645,22.1,22.1,0,0,1-13.24-4.347,25.081,25.081,0,0,1-7.236-8.765,26.542,26.542,0,0,1-2.407-7.293,15.953,15.953,0,0,1-.255-2.067,2.282,2.282,0,0,1,0-.736s.156.991.552,2.747a28.879,28.879,0,0,0,2.591,7.08,25.093,25.093,0,0,0,7.179,8.5,21.638,21.638,0,0,0,12.745,4.248,19.144,19.144,0,0,0,12.589-4.418,18.691,18.691,0,0,0,5.664-9.374,17.279,17.279,0,0,0,.255-7.477C378.325,138.555,377.9,137.648,377.985,137.62Z" transform="translate(-299.819 -44.602)" fill="#263238"/>
      <g id="Gruppe_7775" data-name="Gruppe 7775" transform="translate(76.297 161.899)" opacity="0.3">
        <path id="Pfad_10339" data-name="Pfad 10339" d="M371.445,188.312a2.079,2.079,0,0,0-.736-1.9,1.417,1.417,0,0,0-1.275,0,3.5,3.5,0,0,0-1.034.85,17.375,17.375,0,0,0-3.781,6.047l6.939-.609C371.516,191.272,371.488,189.771,371.445,188.312Z" transform="translate(-364.62 -186.263)"/>
      </g>
      <g id="Gruppe_7776" data-name="Gruppe 7776" transform="translate(101.121 138.586)" opacity="0.3">
        <path id="Pfad_10340" data-name="Pfad 10340" d="M387.191,180.562A22.756,22.756,0,0,0,382.15,169.8c3,9.8,2,15.336.312,22.048l.368-.935C384.77,186.991,387.715,184.527,387.191,180.562Z" transform="translate(-382.15 -169.8)"/>
      </g>
      <path id="Pfad_10341" data-name="Pfad 10341" d="M386.554,410.7l-4.234,63.51-27.613-.326L350.36,407.85Z" transform="translate(-294.256 67.83)" fill="#ffbe9d"/>
      <path id="Pfad_10342" data-name="Pfad 10342" d="M382.417,449.005v1.841s31.153,12.518,31.451,18.409L352,468.916l.963-20.576C362.182,452.659,371.825,453.2,382.417,449.005Z" transform="translate(-293.573 84.677)" fill="#207178"/>
      <path id="Pfad_10343" data-name="Pfad 10343" d="M357.636,453.025a2.52,2.52,0,0,0-1.756,2.832,2.408,2.408,0,0,0,2.832,1.77,2.648,2.648,0,0,0,1.841-3.045,2.507,2.507,0,0,0-3.144-1.515" transform="translate(-291.974 86.59)" fill="#fff"/>
      <path id="Pfad_10344" data-name="Pfad 10344" d="M352,464.322l.227-4.942,59.248,2.152s2.747,1.218,2.421,3.144Z" transform="translate(-293.573 89.27)" fill="#263238"/>
      <path id="Pfad_10345" data-name="Pfad 10345" d="M375.3,450.315c0,.3-1.529.425-3.016,1.416s-2.294,2.223-2.563,2.11.184-1.869,2.011-3S375.371,449.989,375.3,450.315Z" transform="translate(-286.23 85.378)" fill="#263238"/>
      <path id="Pfad_10346" data-name="Pfad 10346" d="M379.427,452.176c.071.3-1.246.793-2.28,2.067s-1.331,2.62-1.643,2.606-.481-1.727.836-3.271S379.413,451.963,379.427,452.176Z" transform="translate(-283.886 86.236)" fill="#263238"/>
      <path id="Pfad_10347" data-name="Pfad 10347" d="M380.886,459.179c-.283,0-.694-1.416.1-3.1s2.195-2.294,2.322-2.053-.75,1.133-1.416,2.506S381.2,459.151,380.886,459.179Z" transform="translate(-281.705 87.021)" fill="#263238"/>
      <path id="Pfad_10348" data-name="Pfad 10348" d="M390.625,85.976c1.6-3.965-.34-8.765-3.781-11.328a16.483,16.483,0,0,0-12.306-2.393A49.006,49.006,0,0,0,362.445,76.5a13.637,13.637,0,0,0-23.167,7.562,8.695,8.695,0,0,0-10.295,11.4l19.145,6.726,20.9,36.818a16.724,16.724,0,0,0,24.611-22.232,14.513,14.513,0,0,0,2.945-3.625,14.642,14.642,0,0,0,6.755-9.063C405.2,95.889,398.852,86.939,390.625,85.976Z" transform="translate(-303.367 -71.933)" fill="#263238"/>
      <path id="Pfad_10349" data-name="Pfad 10349" d="M377.3,158.64c-1.189-5.99-2.011-10.1-2-10.054s11.329-4.39,10.507-20.151c-.4-7.845-3.385-20.207-6.16-30.233-2.492-9.034-10.918-18.989-19.825-16.115l-27,13.169c-2.7.878-3.172,3.427-2.535,6.188v1.416l10.493,43.416,4.432,19.4a16.384,16.384,0,0,0,18.3,12.433h0A16.4,16.4,0,0,0,377.3,158.64Z" transform="translate(-302.714 -67.917)" fill="#ffbe9d"/>
      <path id="Pfad_10350" data-name="Pfad 10350" d="M366.134,101.154a2.011,2.011,0,0,1-1.416,2.379,1.926,1.926,0,0,1-2.393-1.416,2,2,0,0,1,1.416-2.365,1.912,1.912,0,0,1,2.393,1.4Z" transform="translate(-289.298 -60.389)" fill="#263238"/>
      <path id="Pfad_10351" data-name="Pfad 10351" d="M366.43,98.986c-.2.312-1.912-.467-4.007,0s-3.427,1.827-3.71,1.614,0-.609.581-1.232a5.522,5.522,0,0,1,2.9-1.614,5.2,5.2,0,0,1,3.257.354C366.246,98.434,366.515,98.859,366.43,98.986Z" transform="translate(-290.826 -61.238)" fill="#263238"/>
      <path id="Pfad_10352" data-name="Pfad 10352" d="M351.614,104.418a2,2,0,0,1-1.416,2.365,1.926,1.926,0,0,1-2.393-1.331,2.011,2.011,0,0,1,1.416-2.379,1.926,1.926,0,0,1,2.393,1.345Z" transform="translate(-295.34 -59.008)" fill="#263238"/>
      <path id="Pfad_10353" data-name="Pfad 10353" d="M352.05,102.516c-.184.312-1.911-.481-4.007,0s-3.427,1.813-3.71,1.614,0-.609.581-1.246a5.566,5.566,0,0,1,2.9-1.6,5.31,5.31,0,0,1,3.257.34C351.823,101.964,352.149,102.346,352.05,102.516Z" transform="translate(-296.809 -59.769)" fill="#263238"/>
      <path id="Pfad_10354" data-name="Pfad 10354" d="M358.648,116.6a14.909,14.909,0,0,1,3.285-1.331c.524-.17,1.02-.382,1.034-.765a2.832,2.832,0,0,0-.694-1.515l-2.45-3.767c-3.427-5.367-6.032-9.813-5.82-9.912s3.172,4.107,6.6,9.473l2.393,3.8a3.244,3.244,0,0,1,.722,2.053,1.416,1.416,0,0,1-.722.963,3.566,3.566,0,0,1-.878.326A13,13,0,0,1,358.648,116.6Z" transform="translate(-292.745 -60.542)" fill="#263238"/>
      <path id="Pfad_10355" data-name="Pfad 10355" d="M368.341,129.241a39.649,39.649,0,0,1-21.581-1.161s7.42,9.686,22.388,5.055Z" transform="translate(-295.754 -48.572)" fill="#eb996e"/>
      <path id="Pfad_10356" data-name="Pfad 10356" d="M352.831,100.324c-.141.609-2.308.595-4.772,1.2s-4.418,1.529-4.815,1.048c-.17-.227.113-.821.864-1.416a8.128,8.128,0,0,1,3.455-1.713,8.311,8.311,0,0,1,3.838,0C352.406,99.63,352.93,100.041,352.831,100.324Z" transform="translate(-297.236 -60.579)" fill="#263238"/>
      <path id="Pfad_10357" data-name="Pfad 10357" d="M366.082,94.312c-.34.566-2.152.425-4.248.835s-3.752,1.119-4.248.708c-.226-.212,0-.751.609-1.416a6.769,6.769,0,0,1,3.271-1.5,6.67,6.67,0,0,1,3.554.255C365.883,93.59,366.223,94.029,366.082,94.312Z" transform="translate(-291.285 -63.247)" fill="#263238"/>
      <path id="Pfad_10358" data-name="Pfad 10358" d="M336.947,86.171a10.663,10.663,0,0,0,14.458,7.746c2.237-.906,4.56-2.606,6.826-1.784s3.2,4.05,5.367,5.254c3.186,1.784,7.08-1.3,10.635-.991,2.832.241,4.97,2.407,7.165,4.248s5.225,3.229,7.7,1.9a31.3,31.3,0,0,0-2.506-6.825,10.564,10.564,0,0,0-5.183-4.9c-1.246-.5-2.591-.666-3.781-1.274-2.563-1.3-3.71-4.248-5.565-6.471a11.683,11.683,0,0,0-9.912-3.965c-3.059.312-5.962,1.855-9.049,1.728-2.28-.1-4.461-1.119-6.74-1.076-4.432,0-7.76,3.965-10.224,7.661" transform="translate(-300.172 -68.97)" fill="#263238"/>
      <path id="Pfad_10359" data-name="Pfad 10359" d="M358.072,88.136c-2.039-.156-6.2-.581-7.576-2.025a11.952,11.952,0,0,0-11.329-3.738,9.913,9.913,0,0,0-7.08,9.431,14.16,14.16,0,0,0-10.337,10.153,16.454,16.454,0,0,0,3.54,14.883,29.5,29.5,0,0,1,2.322,3.356,23.984,23.984,0,0,0-2.521,3.823c-3.243,7.165,5.551,9.912,5.551,9.912,0,4.815,4.461,4.786,7.307,4.772s4.418,7.59,6.641,7.293l-2.252-23.464a2.919,2.919,0,0,0,1.034.2c5.367.1,3.965-10.068,2.237-12.745a31.443,31.443,0,0,0,4.022-6.486,21.963,21.963,0,0,0,.2-10.847C351.629,92.427,358.95,88.193,358.072,88.136Z" transform="translate(-306.372 -67.692)" fill="#263238"/>
      <path id="Pfad_10360" data-name="Pfad 10360" d="M339.275,112.557a4.546,4.546,0,0,0-7.293-2.436c-1.416,1.218-2.167,3.257-1.317,6.67,2.294,9.119,10.974,4.942,10.918,4.687S340.266,116.324,339.275,112.557Z" transform="translate(-302.599 -56.471)" fill="#ffbe9d"/>
      <path id="Pfad_10361" data-name="Pfad 10361" d="M337.18,117.893a2.381,2.381,0,0,1-.368.34,1.628,1.628,0,0,1-1.175.326c-1.048-.113-2.251-1.416-2.7-3.073a5.5,5.5,0,0,1-.127-2.379,1.912,1.912,0,0,1,.892-1.529.835.835,0,0,1,1.048.212c.184.212.17.411.226.425s.156-.212,0-.566a1.09,1.09,0,0,0-.5-.481,1.246,1.246,0,0,0-.935,0,2.336,2.336,0,0,0-1.317,1.827,5.66,5.66,0,0,0,.1,2.691,4.249,4.249,0,0,0,3.3,3.356,1.784,1.784,0,0,0,1.416-.609C337.223,118.12,337.223,117.907,337.18,117.893Z" transform="translate(-301.85 -55.646)" fill="#eb996e"/>
      <path id="Pfad_10362" data-name="Pfad 10362" d="M384.065,110.6a13.687,13.687,0,0,0,2-2.053,13.551,13.551,0,0,0,2.832-7.08,13.048,13.048,0,0,0-.51-5.239,11.244,11.244,0,0,0-3.243-5.041,13.339,13.339,0,0,0-13-2.606c-.425.142-.821.354-1.218.524a10.851,10.851,0,0,0-1.119.637l-.566.312v-.623a4.561,4.561,0,0,0-1.147-2.974,7.3,7.3,0,0,0-2.676-1.813,9.673,9.673,0,0,0-6.075-.453c-3.908.892-7.222,2.676-10.351,3.045a10,10,0,0,1-7.08-1.416,5.508,5.508,0,0,1-1.416-1.416c-.227-.382-.34-.595-.312-.609a7.734,7.734,0,0,0,1.855,1.8,9.912,9.912,0,0,0,6.84,1.147,24.076,24.076,0,0,0,4.758-1.416,44.387,44.387,0,0,1,5.523-1.8,11.867,11.867,0,0,1,3.2-.326,9.727,9.727,0,0,1,3.3.765,7.985,7.985,0,0,1,2.832,2.039,5.4,5.4,0,0,1,1.331,3.455l-.567-.312,1.175-.68c.439-.17.85-.4,1.3-.552a13.92,13.92,0,0,1,13.722,2.733A11.724,11.724,0,0,1,388.823,96a13.778,13.778,0,0,1-2.7,12.745,8.979,8.979,0,0,1-1.572,1.416A2.693,2.693,0,0,1,384.065,110.6Z" transform="translate(-298.493 -67.247)" fill="#455a64"/>
      <path id="Pfad_10363" data-name="Pfad 10363" d="M381.866,81.511a11.094,11.094,0,0,0-2.946-1.005,7.7,7.7,0,0,0-3.484.326,6.8,6.8,0,0,0-3.583,2.606l-.354.5-.212-.566a10.635,10.635,0,0,0-8.638-6.415,13.735,13.735,0,0,0-8.3,2.407,36.669,36.669,0,0,1-6.585,3.4,10.437,10.437,0,0,1-4.985.595,7.6,7.6,0,0,1-1.317-.368c-.283-.127-.439-.2-.425-.227s.637.184,1.784.3a10.876,10.876,0,0,0,4.772-.779,40.818,40.818,0,0,0,6.415-3.512,21.962,21.962,0,0,1,3.965-1.94,10.876,10.876,0,0,1,4.758-.609,11.172,11.172,0,0,1,9.148,6.925h-.552a7.392,7.392,0,0,1,3.951-2.747,8.056,8.056,0,0,1,3.71-.184,6.627,6.627,0,0,1,2.209.85A2.836,2.836,0,0,1,381.866,81.511Z" transform="translate(-298.134 -70.171)" fill="#455a64"/>
      <path id="Pfad_10364" data-name="Pfad 10364" d="M358.212,114.689a3.059,3.059,0,0,0-2.407-.68,3.638,3.638,0,0,0-2.393,1.742h0a.451.451,0,0,0-.085.113h0a1.812,1.812,0,0,0-.255,1.076,2.535,2.535,0,0,0,1.416,1.912,3.257,3.257,0,0,0,3.71-.538A2.648,2.648,0,0,0,358.212,114.689Z" transform="translate(-293.13 -54.439)" fill="#207178"/>
      <path id="Pfad_10365" data-name="Pfad 10365" d="M359.077,118.711c-.113,0-.241-.425-.623-1.005a4.418,4.418,0,0,0-4.6-2.1c-.694.1-1.119.3-1.161.2s.283-.439,1.048-.708a4.248,4.248,0,0,1,3.044.17,4.135,4.135,0,0,1,2.138,2.195C359.219,118.2,359.177,118.7,359.077,118.711Z" transform="translate(-293.287 -54.057)" fill="#263238"/>
      <path id="Pfad_10366" data-name="Pfad 10366" d="M338.4,119.442a1.946,1.946,0,0,1-.128,1.784,2.844,2.844,0,0,1-5.353-1.005,2.975,2.975,0,0,1,.581-1.954c.736-.935,1.558-.963,1.558-.878a4.37,4.37,0,0,0-1.119,1.175,2.492,2.492,0,0,0-.34,1.586,2.266,2.266,0,0,0,1.062,1.572,2.337,2.337,0,0,0,1.883.283,2.647,2.647,0,0,0,1.289-.991A6.569,6.569,0,0,0,338.4,119.442Z" transform="translate(-301.514 -53.033)" fill="#207178"/>
      <path id="Pfad_10367" data-name="Pfad 10367" d="M334.37,119.214c.071,0,0,.481-.666.793a1.855,1.855,0,0,1-2.478-2.28,1.8,1.8,0,0,1,.751-.92c.58-.354,1.019-.212,1.005-.127s-.34.184-.694.538a1.416,1.416,0,0,0,1.246,2.294C334.016,119.413,334.271,119.158,334.37,119.214Z" transform="translate(-302.254 -53.357)" fill="#207178"/>
      <path id="Pfad_10368" data-name="Pfad 10368" d="M344.439,218.259s35.062,2.039,55.793,2.223c16.044.156,23.209-4.107,26.41-14.43,2.69-8.652-3.087-25.263-3.087-25.263-10.861,0-17.559,1.558-24.54,4.829l1.855,7.59L344.34,198.08Z" transform="translate(-296.76 -26.641)" fill="#ffbe9d"/>
      <path id="Pfad_10369" data-name="Pfad 10369" d="M396.137,197.72a28.209,28.209,0,0,0-5.282-5.254,27.756,27.756,0,0,0-6.826-3,4.944,4.944,0,0,1,2.252.2,14.985,14.985,0,0,1,4.984,2.2,14.8,14.8,0,0,1,3.866,3.852C395.925,196.871,396.222,197.678,396.137,197.72Z" transform="translate(-280.247 -23.053)" fill="#eb996e"/>
      <path id="Pfad_10370" data-name="Pfad 10370" d="M340.879,198.423h0s-10.847,2.605-18.819,7.93l8.5,23.025c2.832,7.562,11.484,11.328,18.409,7.364,10.663-6.1,14.43-23.889,14.43-23.889l11.711-50.808L355.692,149.88,340.95,198.423" transform="translate(-306.03 -39.501)" fill="#ffbe9d"/>
      <path id="Pfad_10371" data-name="Pfad 10371" d="M346.857,160.694l.793-16.71L343.3,126.992c-.241-.935-.354-2.11.411-2.676a2.067,2.067,0,0,1,2.62.085c1.175,1.218,6.84,16.072,6.84,16.072s8.6-5.155,10.125-5.409,3.441,4.376,3.568,4.73a28.8,28.8,0,0,1,0,3.115s5.31.156,5.792.878a18.737,18.737,0,0,1,.609,4.517s2.251.722,2.606,2.421,1.09,4.5,0,5.126-3.3,1.841-3.3,1.841-.892,8.666-1.133,9.459-5.211,5.664-5.211,5.664Z" transform="translate(-297.267 -50.316)" fill="#ffbe9d"/>
      <path id="Pfad_10372" data-name="Pfad 10372" d="M333,247.929a8.7,8.7,0,0,0,1.629.666,11.244,11.244,0,0,0,5,.4,13.949,13.949,0,0,0,7.25-3.342,33.343,33.343,0,0,0,6.74-8.5,36.87,36.87,0,0,0,2.62-5.848,62.049,62.049,0,0,0,1.827-6.783c1.1-4.772,2.308-9.912,3.582-15.378,2.549-10.918,5.409-23.124,8.5-36.28v-.1h.071c.977-.963,1.954-1.94,2.931-2.96.481-.51.963-1.02,1.416-1.543.227-.269.467-.538.651-.807a2.04,2.04,0,0,0,.241-.864c.382-2.832.68-5.763.991-8.723v-.184l.17-.085,2.7-1.515c.2-.127.51-.269.637-.382a.808.808,0,0,0,.255-.467,5.1,5.1,0,0,0,0-1.416,21.5,21.5,0,0,0-.637-3.073,3.823,3.823,0,0,0-2.252-1.827l-.241-.085v-.241a21.516,21.516,0,0,0-.184-2.506,11.413,11.413,0,0,0-.184-1.246,2.061,2.061,0,0,0-.17-.524c0-.1,0,0-.085-.085a1.413,1.413,0,0,0-.241-.1,25.36,25.36,0,0,0-5.183-.581h-.368v-3.2a2.971,2.971,0,0,0-.34-.949c-.142-.34-.312-.665-.481-1.005a12.515,12.515,0,0,0-1.161-1.869,3.094,3.094,0,0,0-.722-.708.68.68,0,0,0-.75-.085,16.63,16.63,0,0,0-2,.92c-2.634,1.416-5.211,2.832-7.732,4.361l-.368.227-.156-.4c-1.331-3.356-2.662-6.67-3.965-9.912-.651-1.629-1.289-3.257-1.94-4.857a1.982,1.982,0,0,0-1.558-1.416,1.572,1.572,0,0,0-1.841.68,1.641,1.641,0,0,0-.212,1.005,7.362,7.362,0,0,0,.283,1.175c.227.821.439,1.628.651,2.436.425,1.629.835,3.229,1.26,4.815q1.246,4.786,2.45,9.346v.1q-.425,8.723-.807,16.709V160.9l-12.9,41.972-3.639,11.683c-.425,1.317-.751,2.351-.977,3.073a10.2,10.2,0,0,1-.368,1.034s.071-.368.269-1.062l.892-3.1c.821-2.733,2-6.684,3.483-11.725,3.059-10.139,7.406-24.611,12.66-42.057v.071q.368-7.958.75-16.71v.1c-.807-3.045-1.643-6.16-2.478-9.332l-1.274-4.815c-.212-.807-.425-1.628-.651-2.436a12.455,12.455,0,0,1-.3-1.289,2.349,2.349,0,0,1,.3-1.416,2.265,2.265,0,0,1,1.147-.963,2.917,2.917,0,0,1,2.761.623,2.829,2.829,0,0,1,.765,1.218l1.94,4.857c1.317,3.257,2.634,6.57,3.979,9.912l-.524-.184c2.535-1.5,5.084-3,7.774-4.4a20.376,20.376,0,0,1,2.1-.949,1.416,1.416,0,0,1,.708-.1,1.7,1.7,0,0,1,.68.255,4.052,4.052,0,0,1,.892.878,12.135,12.135,0,0,1,1.232,1.983c.184.354.354.694.51,1.048a3.639,3.639,0,0,1,.4,1.2V143.1l-.354-.382a25.253,25.253,0,0,1,5.409.623,2.457,2.457,0,0,1,.354.156.92.92,0,0,1,.368.368,3.092,3.092,0,0,1,.241.722c.085.453.141.878.2,1.317.085.864.141,1.713.184,2.563l-.255-.34a4.447,4.447,0,0,1,2.705,2.237,21.909,21.909,0,0,1,.68,3.285,5.013,5.013,0,0,1,0,1.713,1.486,1.486,0,0,1-.51.878,7.251,7.251,0,0,1-.722.425l-2.691,1.4.184-.269c-.326,2.96-.623,5.862-1.02,8.737l-.085.552a1.244,1.244,0,0,1-.269.609,7.287,7.287,0,0,1-.694.878c-.482.538-.963,1.062-1.416,1.572-.977,1.02-1.954,2-2.945,2.96l.1-.17c-3.115,13.141-6,25.347-8.6,36.265-1.289,5.452-2.521,10.592-3.654,15.35a58.38,58.38,0,0,1-1.869,6.825,38.419,38.419,0,0,1-2.69,5.9,33.448,33.448,0,0,1-6.9,8.581,14.161,14.161,0,0,1-7.434,3.314,11.047,11.047,0,0,1-5.084-.51,8.478,8.478,0,0,1-1.2-.552Z" transform="translate(-301.479 -50.349)" fill="#eb996e"/>
      <path id="Pfad_10373" data-name="Pfad 10373" d="M362.063,137.471c0,.1-.481.156-1.232.184a14.23,14.23,0,0,0-2.832.34,5.511,5.511,0,0,0-2.407,1.289c-.51.481-.736.892-.849.85s0-.552.467-1.2a4.7,4.7,0,0,1,2.605-1.642,7.828,7.828,0,0,1,3.031-.142C361.61,137.244,362.063,137.372,362.063,137.471Z" transform="translate(-292.45 -44.836)" fill="#eb996e"/>
      <path id="Pfad_10374" data-name="Pfad 10374" d="M357.042,137.962c-.184-.071-.2-.51,0-.977s.482-.793.666-.722.212.51,0,.977S357.184,138.033,357.042,137.962Z" transform="translate(-291.535 -45.171)" fill="#eb996e"/>
      <path id="Pfad_10375" data-name="Pfad 10375" d="M366.7,141.175a13.113,13.113,0,0,1-4.248.581,2.833,2.833,0,0,0-2.351,1.119c-.368.581-.241,1.062-.354,1.09s-.453-.467-.1-1.317a2.222,2.222,0,0,1,1.005-1.119,4.25,4.25,0,0,1,1.7-.51A11.655,11.655,0,0,1,366.7,141.175Z" transform="translate(-290.457 -43.244)" fill="#eb996e"/>
      <path id="Pfad_10376" data-name="Pfad 10376" d="M364.065,144.69c.2,0,.312,1.048.255,2.337s-.269,2.308-.467,2.308-.326-1.062-.269-2.351S363.853,144.676,364.065,144.69Z" transform="translate(-288.759 -41.661)" fill="#eb996e"/>
      <path id="Pfad_10377" data-name="Pfad 10377" d="M368.07,174.014l1.26-4.333a1.189,1.189,0,0,1,1.982-.51l1.657,1.685,1.02-4.092a1.189,1.189,0,0,1,2.223-.227l2.308,4.843Z" transform="translate(-286.887 -32.85)" fill="#fff"/>
      <path id="Pfad_10378" data-name="Pfad 10378" d="M378.461,171.07a19.11,19.11,0,0,1-5,1.614,18.506,18.506,0,0,1-5.183.906A37.786,37.786,0,0,1,378.461,171.07Z" transform="translate(-286.8 -30.685)" fill="#fff"/>
      <path id="Pfad_10379" data-name="Pfad 10379" d="M317.13,154a11.655,11.655,0,0,0-1.26,1.685,14.25,14.25,0,0,0-1.912,5.339,37.875,37.875,0,0,0-.255,8.5c.156,3.214.411,6.726.807,10.408a182.394,182.394,0,0,0,2.988,18.72c.5,2.379.949,4.248,1.261,5.664.141.595.269,1.09.368,1.515s.113.538.113.538-.071-.17-.17-.51-.255-.935-.411-1.515c-.354-1.317-.835-3.214-1.416-5.593a167.943,167.943,0,0,1-3.073-18.734c-.4-3.682-.637-7.208-.779-10.422a37.976,37.976,0,0,1,.311-8.5,14.163,14.163,0,0,1,2.039-5.381A8.215,8.215,0,0,1,317.13,154Z" transform="translate(-309.682 -37.787)" fill="#fff"/>
      <path id="Pfad_10380" data-name="Pfad 10380" d="M345.808,140.381l-.326.17-.935.453c-.807.382-1.982.949-3.384,1.728a124.39,124.39,0,0,0-10.635,6.656c-4.05,2.832-7.633,5.409-10.252,7.279l-3.1,2.195-.864.581a1.731,1.731,0,0,1-.312.2,1.146,1.146,0,0,1,.283-.241l.821-.623,3.045-2.28c2.591-1.912,6.16-4.574,10.21-7.349a107.694,107.694,0,0,1,10.705-6.6c1.416-.75,2.606-1.289,3.441-1.643l.949-.4C345.737,140.409,345.737,140.367,345.808,140.381Z" transform="translate(-308.552 -43.455)" fill="#fff"/>
      <path id="Pfad_10381" data-name="Pfad 10381" d="M392.458,150.273a1.036,1.036,0,0,1-.241-.184l-.637-.552a26.452,26.452,0,0,0-2.478-1.855,51.311,51.311,0,0,0-9.105-4.6,91.628,91.628,0,0,0-9.7-3.229c-1.275-.354-2.294-.609-3.016-.779l-.807-.212a1.13,1.13,0,0,1-.283-.1h.3l.821.156c.722.142,1.756.368,3.031.694a78.69,78.69,0,0,1,9.771,3.158,46.554,46.554,0,0,1,9.105,4.7A18.241,18.241,0,0,1,392.458,150.273Z" transform="translate(-287.669 -44.128)" fill="#fff"/>
      <path id="Pfad_10382" data-name="Pfad 10382" d="M338.873,226.786a2,2,0,0,1-.552-.184,9.923,9.923,0,0,1-1.416-.765,6.769,6.769,0,0,1-3.087-4.163,8.143,8.143,0,0,1,.552-5.183,6.819,6.819,0,0,1,.821-1.416c.227-.3.382-.439.4-.425a16.022,16.022,0,0,0-1.034,1.883,8.4,8.4,0,0,0-.439,5.027,6.867,6.867,0,0,0,2.832,4.064C338.122,226.474,338.9,226.729,338.873,226.786Z" transform="translate(-301.22 -12.553)" fill="#fff"/>
      <path id="Pfad_10383" data-name="Pfad 10383" d="M334.15,212.39a7.089,7.089,0,0,1,.666,1.784,6.548,6.548,0,0,1,.4,1.855,5.819,5.819,0,0,1-.68-1.77,5.661,5.661,0,0,1-.382-1.869Z" transform="translate(-301 -13.493)" fill="#fff"/>
      <path id="Pfad_10384" data-name="Pfad 10384" d="M358.012,525.388l43.19-.212-.779-149.324-.411-151.9-58.526-.751-10.521,19.825a71.2,71.2,0,0,0-8.086,25.687c-.708,6.882,4.447,29.256,6.231,34.92l16.1,51.063Z" transform="translate(-305.717 -8.996)" fill="#263238"/>
      <path id="Pfad_10385" data-name="Pfad 10385" d="M399.348,223.893l47.467,129.386a59.673,59.673,0,0,1-5.848,50.553L385.853,511.453,354.87,472.681l46.107-96.292-40.641-65.918,6.839-86.38,19.145-.311Z" transform="translate(-292.379 -8.755)" fill="#263238"/>
      <path id="Pfad_10386" data-name="Pfad 10386" d="M374.55,254.47v.666c0,.439.071,1.119.127,1.954.1,1.742.227,4.248.4,7.491.326,6.556.779,15.973,1.416,27.6s1.175,25.489,1.883,40.924c.34,7.7.708,15.789,1.076,24.172.269,4.248.156,8.5.2,12.745s0,8.723,0,13.17c0,35.586.113,67.8.156,91.152v35.147c0-1.756,0-4.248-.085-7.519,0-6.556-.113-15.973-.2-27.613-.1-23.351-.226-55.566-.368-91.152V370.035c0-4.333.085-8.61-.184-12.745-.354-8.369-.708-16.455-1.034-24.158-.651-15.407-1.246-29.27-1.728-40.938s-.836-21.043-1.1-27.6c-.113-3.229-.2-5.749-.255-7.505v-1.954C374.847,254.6,374.55,254.47,374.55,254.47Z" transform="translate(-284.191 4.014)" fill="#455a64"/>
      <path id="Pfad_10387" data-name="Pfad 10387" d="M373.78,225.66a5.126,5.126,0,0,1,.3,1.416c.156.906.326,2.223.524,3.866.368,3.271.765,7.816.991,12.844s.241,9.587.17,12.886c0,1.643-.1,2.988-.17,3.908a4.779,4.779,0,0,1-.17,1.416,40.468,40.468,0,0,1-.184-5.324c0-3.3-.156-7.831-.382-12.858s-.538-9.544-.779-12.745A47.8,47.8,0,0,1,373.78,225.66Z" transform="translate(-284.512 -7.972)" fill="#455a64"/>
      <path id="Pfad_10388" data-name="Pfad 10388" d="M367.507,227.828c.071.1-.736.467-.963,1.614a1.856,1.856,0,0,0,.552,1.728,2,2,0,0,0,2.124.382,2.04,2.04,0,0,0,1.1-1.855,1.855,1.855,0,0,0-.949-1.543,3.441,3.441,0,0,0-1.855-.326,1.049,1.049,0,0,1,.51-.3,2.408,2.408,0,0,1,1.586.156,2.308,2.308,0,0,1,1.416,1.968,2.535,2.535,0,0,1-4.361,2.011,2.323,2.323,0,0,1-.581-2.337,2.393,2.393,0,0,1,.906-1.317C367.28,227.813,367.493,227.785,367.507,227.828Z" transform="translate(-287.754 -7.223)" fill="#455a64"/>
      <path id="Pfad_10389" data-name="Pfad 10389" d="M357.7,225.91a4.246,4.246,0,0,1,.382,1.416,13.4,13.4,0,0,1,.128,3.852,15.737,15.737,0,0,1-1.628,5.48,14.515,14.515,0,0,1-11.074,7.944,15.348,15.348,0,0,1-5.664-.212,13.366,13.366,0,0,1-3.6-1.345,4.483,4.483,0,0,1-1.161-.793,25.686,25.686,0,0,0,4.871,1.629,14.883,14.883,0,0,0,17.8-12.744A24.638,24.638,0,0,0,357.7,225.91Z" transform="translate(-300.609 -7.868)" fill="#455a64"/>
      <path id="Pfad_10390" data-name="Pfad 10390" d="M393.674,238.348a5.948,5.948,0,0,1-2.733-.326,12.618,12.618,0,0,1-5.565-3.569,12.448,12.448,0,0,1-3.016-5.891,5.664,5.664,0,0,1,0-2.733c.127,0,.141,1.034.566,2.62a13.693,13.693,0,0,0,8.242,9.077C392.64,238.107,393.688,238.206,393.674,238.348Z" transform="translate(-281.012 -7.902)" fill="#455a64"/>
      <path id="Pfad_10391" data-name="Pfad 10391" d="M407.436,334.414a9.042,9.042,0,0,1-2.506,2,11.733,11.733,0,0,1-3.214,1.416,7.73,7.73,0,0,1-4.347-.113,12.658,12.658,0,0,1-6.061-4.815,11.631,11.631,0,0,1-1.657-2.719,16.45,16.45,0,0,1,2.068,2.393,13.426,13.426,0,0,0,5.862,4.432,9.064,9.064,0,0,0,7.08-1.034A27.659,27.659,0,0,1,407.436,334.414Z" transform="translate(-277.909 35.515)" fill="#455a64"/>
      <path id="Pfad_10392" data-name="Pfad 10392" d="M397.021,342.449a35.831,35.831,0,0,1-4.461-5.664,36.838,36.838,0,0,1-3.88-6.075,34.615,34.615,0,0,1,4.475,5.664A33.849,33.849,0,0,1,397.021,342.449Z" transform="translate(-278.312 35.735)" fill="#455a64"/>
      <path id="Pfad_10393" data-name="Pfad 10393" d="M343.813,259.154c-.2.071-.694-.736-1.133-1.827s-.623-2.011-.439-2.1.694.736,1.119,1.827S344,259.154,343.813,259.154Z" transform="translate(-297.663 4.329)" fill="#fafafa"/>
      <path id="Pfad_10394" data-name="Pfad 10394" d="M362.8,261.7c-.212,0-.368-.694-.368-1.558s.156-1.572.368-1.572.368.708.368,1.572S363,261.7,362.8,261.7Z" transform="translate(-289.234 5.72)" fill="#fafafa"/>
      <path id="Pfad_10395" data-name="Pfad 10395" d="M354.883,272.453c-.2,0-.425-.85-.5-1.94s0-1.968.227-1.982.439.85.51,1.94S355.082,272.438,354.883,272.453Z" transform="translate(-292.591 9.864)" fill="#fafafa"/>
      <path id="Pfad_10396" data-name="Pfad 10396" d="M341.051,279.638c-.17.128-.751-.4-1.515-.934s-1.416-.949-1.416-1.147.934-.085,1.8.538S341.221,279.638,341.051,279.638Z" transform="translate(-299.348 13.583)" fill="#fafafa"/>
      <path id="Pfad_10397" data-name="Pfad 10397" d="M365.839,289.519c-.17-.113,0-.722.481-1.416s.92-1.09,1.09-.977,0,.736-.481,1.416S366.009,289.632,365.839,289.519Z" transform="translate(-287.842 17.593)" fill="#fafafa"/>
      <path id="Pfad_10398" data-name="Pfad 10398" d="M350.108,293.115c-.2,0-.368-1.175-.368-2.605s.17-2.62.368-2.62.368,1.175.368,2.62A5.521,5.521,0,0,1,350.108,293.115Z" transform="translate(-294.514 17.919)" fill="#fafafa"/>
      <path id="Pfad_10399" data-name="Pfad 10399" d="M345.674,303.429c-.113.156-.85-.17-1.643-.751s-1.416-1.175-1.232-1.345.864.17,1.657.75S345.8,303.259,345.674,303.429Z" transform="translate(-297.415 23.494)" fill="#fafafa"/>
      <path id="Pfad_10400" data-name="Pfad 10400" d="M361.534,306.73c.085.184-.368.567-1.02.864s-1.246.368-1.331.184.382-.566,1.034-.864S361.463,306.546,361.534,306.73Z" transform="translate(-290.589 25.716)" fill="#fafafa"/>
      <path id="Pfad_10401" data-name="Pfad 10401" d="M350.778,326.555c-.17.085-.906-1.005-1.628-2.45s-1.161-2.69-.977-2.832.921,1.005,1.628,2.45A7.062,7.062,0,0,1,350.778,326.555Z" transform="translate(-295.183 31.804)" fill="#fafafa"/>
      <path id="Pfad_10402" data-name="Pfad 10402" d="M367.685,324.455c-.184-.1.142-1.048.708-2.138s1.2-1.883,1.416-1.784-.142,1.048-.722,2.138S367.855,324.554,367.685,324.455Z" transform="translate(-287.069 31.497)" fill="#fafafa"/>
      <path id="Pfad_10403" data-name="Pfad 10403" d="M360.166,340.252c-.212,0-.184-1.147-.411-2.478s-.566-2.393-.368-2.492.878.906,1.1,2.379S360.365,340.295,360.166,340.252Z" transform="translate(-290.525 37.635)" fill="#fafafa"/>
      <path id="Pfad_10404" data-name="Pfad 10404" d="M352.394,348.491c-.142.141-.85-.4-1.572-1.189s-1.19-1.543-1.034-1.685.85.4,1.572,1.189S352.55,348.35,352.394,348.491Z" transform="translate(-294.506 41.928)" fill="#fafafa"/>
      <path id="Pfad_10405" data-name="Pfad 10405" d="M371.767,351.86c-.142-.141.382-.906,1.175-1.713s1.529-1.331,1.685-1.189-.382.92-1.161,1.713S371.923,352,371.767,351.86Z" transform="translate(-285.359 43.317)" fill="#fafafa"/>
      <path id="Pfad_10406" data-name="Pfad 10406" d="M360.224,365.636c-.2,0-.2-1.119,0-2.421s.51-2.323.722-2.294.2,1.1,0,2.407S360.422,365.664,360.224,365.636Z" transform="translate(-290.214 48.304)" fill="#fafafa"/>
      <path id="Pfad_10407" data-name="Pfad 10407" d="M353.04,371.752c-.184.1-.807-.637-1.416-1.643s-.921-1.9-.751-2,.793.623,1.416,1.628S353.21,371.639,353.04,371.752Z" transform="translate(-294.061 51.293)" fill="#fafafa"/>
      <path id="Pfad_10408" data-name="Pfad 10408" d="M372.237,378.8c.128.17-.595.892-1.614,1.614s-1.912,1.175-2.039,1.005.609-.892,1.614-1.614S372.124,378.643,372.237,378.8Z" transform="translate(-286.679 55.73)" fill="#fafafa"/>
      <path id="Pfad_10409" data-name="Pfad 10409" d="M355.544,390.855c-.2-.071,0-1.2.184-2.62s.071-2.577.283-2.606.581,1.161.439,2.677S355.728,390.94,355.544,390.855Z" transform="translate(-292.133 58.585)" fill="#fafafa"/>
      <path id="Pfad_10410" data-name="Pfad 10410" d="M362.4,405.216c-.17.127-.764-.354-1.345-1.076s-.906-1.416-.75-1.544.75.354,1.331,1.076S362.553,405.088,362.4,405.216Z" transform="translate(-290.136 65.635)" fill="#fafafa"/>
      <path id="Pfad_10411" data-name="Pfad 10411" d="M355.793,415.81c-.17.113-.949-.722-1.742-1.883s-1.289-2.181-1.133-2.294.949.722,1.742,1.883S355.963,415.7,355.793,415.81Z" transform="translate(-293.203 69.4)" fill="#fafafa"/>
      <path id="Pfad_10412" data-name="Pfad 10412" d="M373.789,402.464c-.184-.071-.17-.595,0-1.161s.552-.991.751-.92.17.595,0,1.175S373.987,402.549,373.789,402.464Z" transform="translate(-284.563 64.72)" fill="#fafafa"/>
      <path id="Pfad_10413" data-name="Pfad 10413" d="M365.465,427.381c-.184-.1.17-1.1.453-2.365s.382-2.322.595-2.337.425,1.133.127,2.492S365.635,427.495,365.465,427.381Z" transform="translate(-287.992 74)" fill="#fafafa"/>
      <path id="Pfad_10414" data-name="Pfad 10414" d="M371.268,272.3c-.184.085-.637-.481-1.005-1.274s-.524-1.5-.34-1.586.637.481,1.006,1.274S371.48,272.218,371.268,272.3Z" transform="translate(-286.148 10.24)" fill="#fafafa"/>
      <path id="Pfad_10415" data-name="Pfad 10415" d="M358.159,240.329c.113.17-.878.963-1.94,2.1s-1.784,2.181-1.968,2.082.3-1.416,1.416-2.577S358.018,240.145,358.159,240.329Z" transform="translate(-292.653 -1.882)" fill="#fafafa"/>
      <path id="Pfad_10416" data-name="Pfad 10416" d="M369.876,241.083c-.212,0-.538-.807-1.034-1.77s-.949-1.756-.793-1.9.92.481,1.416,1.558S370.06,240.97,369.876,241.083Z" transform="translate(-286.909 -3.089)" fill="#fafafa"/>
      <path id="Pfad_10417" data-name="Pfad 10417" d="M330.851,251.264c-.184-.085,0-1.02.439-2.1s.92-1.912,1.119-1.827,0,1.005-.439,2.1S331.091,251.335,330.851,251.264Z" transform="translate(-302.402 1.046)" fill="#fafafa"/>
      <path id="Pfad_10418" data-name="Pfad 10418" d="M333.006,265.986c-.142.156-.949-.3-1.813-1.019s-1.416-1.416-1.331-1.586.949.3,1.813,1.019S333.134,265.83,333.006,265.986Z" transform="translate(-302.788 7.707)" fill="#fafafa"/>
      <path id="Pfad_10419" data-name="Pfad 10419" d="M357.677,229.091c-.184,0-.581-.453-.864-1.175s-.368-1.416-.184-1.416.581.453.864,1.175S357.861,229.021,357.677,229.091Z" transform="translate(-291.688 -7.623)" fill="#fafafa"/>
      <path id="Pfad_10420" data-name="Pfad 10420" d="M381.572,236.784c-.2,0-.184-.892,0-1.9s.553-1.8.751-1.756.184.906,0,1.912S381.77,236.826,381.572,236.784Z" transform="translate(-281.329 -4.865)" fill="#fafafa"/>
      <path id="Pfad_10421" data-name="Pfad 10421" d="M387.228,248.447c-.184-.085.071-1.133.581-2.365s1.062-2.152,1.246-2.081,0,1.133-.566,2.365S387.426,248.518,387.228,248.447Z" transform="translate(-278.941 -0.343)" fill="#fafafa"/>
      <path id="Pfad_10422" data-name="Pfad 10422" d="M383.865,257.743c-.184.085-.864-.892-1.515-2.181s-1.019-2.436-.835-2.521.85.892,1.5,2.181S384.049,257.644,383.865,257.743Z" transform="translate(-281.313 3.418)" fill="#fafafa"/>
      <path id="Pfad_10423" data-name="Pfad 10423" d="M391.842,266.58c-.184-.071,0-.892.312-1.827s.807-1.643,1.005-1.572,0,.892-.312,1.827S392.1,266.651,391.842,266.58Z" transform="translate(-277.027 7.637)" fill="#fafafa"/>
      <path id="Pfad_10424" data-name="Pfad 10424" d="M384.485,275.227c-.17.113-.609-.269-.963-.835s-.524-1.133-.34-1.246.595.269.963.85S384.655,275.128,384.485,275.227Z" transform="translate(-280.631 11.777)" fill="#fafafa"/>
      <path id="Pfad_10425" data-name="Pfad 10425" d="M386.731,294.333c-.142.128-1.034-.566-1.968-1.586s-1.572-1.94-1.416-2.082,1.034.567,1.968,1.586S386.887,294.191,386.731,294.333Z" transform="translate(-280.541 19.067)" fill="#fafafa"/>
      <path id="Pfad_10426" data-name="Pfad 10426" d="M396.733,283.618c-.156.127-.935-.581-1.728-1.6s-1.3-1.926-1.147-2.053.935.595,1.728,1.6S396.9,283.5,396.733,283.618Z" transform="translate(-276.169 14.616)" fill="#fafafa"/>
      <path id="Pfad_10427" data-name="Pfad 10427" d="M401.465,298.614c-.184-.085.142-1.147.722-2.365s1.19-2.152,1.416-2.067-.127,1.161-.708,2.379S401.649,298.713,401.465,298.614Z" transform="translate(-273.014 20.535)" fill="#fafafa"/>
      <path id="Pfad_10428" data-name="Pfad 10428" d="M390.61,310.41c-.184.1-.835-.68-1.742-1.515s-1.742-1.416-1.657-1.628,1.161.17,2.152,1.09S390.78,310.311,390.61,310.41Z" transform="translate(-278.926 25.957)" fill="#fafafa"/>
      <path id="Pfad_10429" data-name="Pfad 10429" d="M391.269,322.108c0,.2-.708.368-1.572.368s-1.558-.17-1.558-.368.694-.368,1.558-.368S391.269,321.91,391.269,322.108Z" transform="translate(-278.537 32.003)" fill="#fafafa"/>
      <path id="Pfad_10430" data-name="Pfad 10430" d="M402.535,319.727c-.184-.1.184-.991.453-2.1s.382-2.067.595-2.082.439,1.02.127,2.251S402.69,319.841,402.535,319.727Z" transform="translate(-272.568 29.428)" fill="#fafafa"/>
      <path id="Pfad_10431" data-name="Pfad 10431" d="M415.112,324.084c-.184.071-.708-.935-1.161-2.223s-.666-2.393-.482-2.45.722.92,1.175,2.209S415.31,324.013,415.112,324.084Z" transform="translate(-268.026 31.033)" fill="#fafafa"/>
      <path id="Pfad_10432" data-name="Pfad 10432" d="M412.691,341.372c-.17-.1.269-1.289.977-2.662s1.416-2.407,1.628-2.308-.255,1.289-.977,2.648S412.875,341.5,412.691,341.372Z" transform="translate(-268.338 38.101)" fill="#fafafa"/>
      <path id="Pfad_10433" data-name="Pfad 10433" d="M402.231,351.375c-.184.071-.765-.906-1.3-2.195s-.807-2.393-.609-2.478.765.906,1.289,2.2S402.415,351.375,402.231,351.375Z" transform="translate(-273.497 42.386)" fill="#fafafa"/>
      <path id="Pfad_10434" data-name="Pfad 10434" d="M390.2,354.018c0,.2-.595.368-1.317.368s-1.3-.17-1.3-.368.595-.368,1.3-.368S390.2,353.82,390.2,354.018Z" transform="translate(-278.77 45.28)" fill="#fafafa"/>
      <path id="Pfad_10435" data-name="Pfad 10435" d="M396.768,371.149c-.184,0-.581-.779-.878-1.855s-.354-2.011-.156-2.053.581.779.878,1.855S396.966,371.035,396.768,371.149Z" transform="translate(-275.426 50.933)" fill="#fafafa"/>
      <path id="Pfad_10436" data-name="Pfad 10436" d="M387.6,365.369c-.17-.1,0-.765.467-1.487s.935-1.218,1.1-1.119,0,.779-.467,1.5S387.783,365.483,387.6,365.369Z" transform="translate(-278.789 49.066)" fill="#fafafa"/>
      <path id="Pfad_10437" data-name="Pfad 10437" d="M387.608,383.617c-.2,0-.481-.949-.623-2.181s-.1-2.237.1-2.266.481.949.623,2.181S387.806,383.588,387.608,383.617Z" transform="translate(-279.052 55.897)" fill="#fafafa"/>
    </g>
  </g>
</svg>
