<svg xmlns="http://www.w3.org/2000/svg" width="50" height="56.481" viewBox="0 0 50 56.481">
  <g id="biodiversity_icon_" data-name="biodiversity icon " transform="translate(-4 -2)">
    <path id="Pfad_9773" data-name="Pfad 9773" d="M14.926,16.494v4.246a.926.926,0,0,0,.926.926h3.7a.926.926,0,0,0,.926-.926V16.494l.655-.655a.926.926,0,0,0,.271-.655v-3.7a2.772,2.772,0,0,0-1.3-2.342,2.747,2.747,0,0,0,.37-1.362,2.778,2.778,0,0,0-5.556,0A2.747,2.747,0,0,0,15.3,9.14,2.772,2.772,0,0,0,14,11.481v3.7a.926.926,0,0,0,.271.654ZM17.7,6.852a.926.926,0,1,1-.926.926A.926.926,0,0,1,17.7,6.852Zm-1.852,4.63a.926.926,0,0,1,.926-.926H18.63a.926.926,0,0,1,.926.926V14.8l-.655.655a.926.926,0,0,0-.271.655v3.7H16.778v-3.7a.926.926,0,0,0-.271-.654l-.655-.655Z" transform="translate(-0.741 -0.222)" fill="#484848"/>
    <path id="Pfad_9774" data-name="Pfad 9774" d="M26.815,37.626a2.523,2.523,0,0,0-.842-1.936h0c-1.369-1.2-4-.777-5.983.963a6.589,6.589,0,0,0-.582.577,6.448,6.448,0,0,0-.581-.577c-1.985-1.739-4.613-2.162-5.983-.963A2.52,2.52,0,0,0,12,37.626a5.14,5.14,0,0,0,1.944,3.631,6.99,6.99,0,0,0,.728.556,3.075,3.075,0,0,0-.6,1.77,2.42,2.42,0,0,0,.833,1.852,3.518,3.518,0,0,0,4.518-.321c.045-.04.093-.081.134-.123.044.043.088.083.134.123a3.974,3.974,0,0,0,2.582,1,2.9,2.9,0,0,0,1.929-.681,2.42,2.42,0,0,0,.833-1.852,3.124,3.124,0,0,0-.7-1.906,6.742,6.742,0,0,0,.532-.422,5.138,5.138,0,0,0,1.938-3.625Zm-3.161,2.236a5.3,5.3,0,0,1-1.267.819.926.926,0,0,0-.093,1.633,2.276,2.276,0,0,1,.321.229,1.481,1.481,0,0,1,.565,1.04.575.575,0,0,1-.2.456,1.733,1.733,0,0,1-2.079-.322,1.907,1.907,0,0,1-.37-.447.926.926,0,0,0-.794-.449.976.976,0,0,0-.155.013,2.35,2.35,0,0,1-.29.023.926.926,0,0,0-.735.434,1.868,1.868,0,0,1-.359.428,1.734,1.734,0,0,1-2.078.321.571.571,0,0,1-.2-.456,1.481,1.481,0,0,1,.564-1.039,1.953,1.953,0,0,1,.166-.12A1.132,1.132,0,0,0,17,41.363a.926.926,0,0,0-.529-.665,5.266,5.266,0,0,1-1.307-.833,3.431,3.431,0,0,1-1.31-2.24.648.648,0,0,1,.21-.543c.577-.5,2.215-.2,3.543.963a4.871,4.871,0,0,1,.758.843.871.871,0,0,0,.818.389,3.029,3.029,0,0,1,.345.036.926.926,0,0,0,.9-.39,4.815,4.815,0,0,1,.785-.878c1.33-1.163,2.963-1.467,3.543-.963a.655.655,0,0,1,.209.543,3.426,3.426,0,0,1-1.309,2.237Z" transform="translate(-0.593 -2.445)" fill="#484848"/>
    <path id="Pfad_9775" data-name="Pfad 9775" d="M47.253,47.13a5.544,5.544,0,0,0-.6-1.382,3.6,3.6,0,0,0-1.8-1.581,2.386,2.386,0,0,0-2.407.381,3.025,3.025,0,0,0-.957,2.769c.047.272.12.541.194.809a4.436,4.436,0,0,1,.185.89,4.453,4.453,0,0,1-.486,1.8c-.131.315-.26.63-.37.947a4.716,4.716,0,0,0-.144,2.836,3.271,3.271,0,0,0,2.222,2.27,2.7,2.7,0,0,0,3.126-1.389,3.448,3.448,0,0,0,.121-1.871,4.519,4.519,0,0,1-.057-.619,4.4,4.4,0,0,1,.486-1.6,10.35,10.35,0,0,0,.463-1.188,5.514,5.514,0,0,0,.019-3.068Zm-1.793,2.538a8.677,8.677,0,0,1-.383.976,5.9,5.9,0,0,0-.642,2.331,6.355,6.355,0,0,0,.074.88,1.984,1.984,0,0,1,.007.9.859.859,0,0,1-.932.324,1.431,1.431,0,0,1-.931-1,2.936,2.936,0,0,1,.123-1.736c.093-.278.206-.55.319-.823a5.957,5.957,0,0,0,.624-2.6,5.919,5.919,0,0,0-.25-1.287c-.058-.212-.118-.422-.156-.636a1.168,1.168,0,0,1,.324-1.031.456.456,0,0,1,.309-.116.82.82,0,0,1,.278.056,1.852,1.852,0,0,1,.847.8,3.717,3.717,0,0,1,.4.92,3.677,3.677,0,0,1-.01,2.039Z" transform="translate(-2.72 -3.111)" fill="#484848"/>
    <path id="Pfad_9776" data-name="Pfad 9776" d="M44.333,20.241a3.233,3.233,0,0,0-6.434-.463H36V21.63h1.852v2.778a4.608,4.608,0,0,0,1.852,3.68v4.654h1.852v-3.8a4.63,4.63,0,0,0,.926.093v3.7h1.852v-4L48.19,28.1a.926.926,0,0,0,.5-1.569l-4.359-4.357Zm1.777,6.327-3.7.617a2.778,2.778,0,0,1-2.7-2.777V20.241a1.389,1.389,0,0,1,2.778,0v2.315a.926.926,0,0,0,.271.654Z" transform="translate(-2.371 -1.111)" fill="#484848"/>
    <path id="Pfad_9777" data-name="Pfad 9777" d="M10.147,23.767a.926.926,0,0,0,.8.455H22.981a.926.926,0,0,0,.8-.455L29.8,13.582a.926.926,0,0,0,0-.943L23.779,2.455a.926.926,0,0,0-.8-.455H10.944a.926.926,0,0,0-.8.455L4.129,12.64a.926.926,0,0,0,0,.943ZM11.473,3.852h10.98l5.471,9.259L22.453,22.37H11.473L6,13.111Z" transform="translate(0 0)" fill="#484848"/>
    <path id="Pfad_9778" data-name="Pfad 9778" d="M25.779,49.767,31.8,39.582a.926.926,0,0,0,0-.943L25.779,28.455a.926.926,0,0,0-.8-.455H12.944a.926.926,0,0,0-.8.455L6.129,38.64a.926.926,0,0,0,0,.943l6.018,10.185a.926.926,0,0,0,.8.455H24.981a.926.926,0,0,0,.8-.455Zm-12.305-1.4L8,39.111l5.471-9.259h10.98l5.471,9.259L24.453,48.37Z" transform="translate(-0.148 -1.926)" fill="#484848"/>
    <path id="Pfad_9779" data-name="Pfad 9779" d="M49.779,60.767,55.8,50.582a.926.926,0,0,0,0-.943L49.779,39.455a.926.926,0,0,0-.8-.455H36.944a.926.926,0,0,0-.8.455L30.129,49.64a.926.926,0,0,0,0,.943l6.018,10.185a.926.926,0,0,0,.8.455H48.981a.926.926,0,0,0,.8-.455Zm-12.305-1.4L32,50.111l5.471-9.259h10.98l5.471,9.259L48.453,59.37Z" transform="translate(-1.926 -2.741)" fill="#484848"/>
    <path id="Pfad_9780" data-name="Pfad 9780" d="M47.779,13.455a.926.926,0,0,0-.8-.455H34.944a.926.926,0,0,0-.8.455L28.129,23.64a.926.926,0,0,0,0,.943l6.018,10.185a.926.926,0,0,0,.8.455H46.981a.926.926,0,0,0,.8-.455L53.8,24.582a.926.926,0,0,0,0-.943ZM46.453,33.37H35.473L30,24.111l5.471-9.259h10.98l5.471,9.259Z" transform="translate(-1.778 -0.815)" fill="#484848"/>
  </g>
</svg>