<svg xmlns="http://www.w3.org/2000/svg" width="50" height="50.373" viewBox="0 0 50 50.373">
  <g id="crane" transform="translate(-1.888)">
    <g id="Gruppe_7686" data-name="Gruppe 7686" transform="translate(1.888)">
      <path id="Pfad_9781" data-name="Pfad 9781" d="M21.976,176.6a.872.872,0,1,0,0-1.742H18.044v-2.613a.872.872,0,1,0-1.742,0v2.613h-3.06V164.8a1.127,1.127,0,0,0-1.134-1.143H3.174a1.342,1.342,0,0,0-1.283,1.418V202.7a1.342,1.342,0,0,0,1.283,1.421H21.565a1.357,1.357,0,0,0,1.283-1.418v-9.033a.872.872,0,1,0-1.742,0v8.708H3.633V165.4H11.5v2.187H8.555a.872.872,0,0,0,0,1.742H11.5V172.5H8.858a.872.872,0,1,0,0,1.742H11.5v7.7a.871.871,0,0,0,.872.872H21.1v6.809a.872.872,0,1,0,1.742,0v-7.408a1.16,1.16,0,0,0-1.17-1.143H18.044V176.6ZM16.3,181.067h-3.06V176.6H16.3Z" transform="translate(-1.888 -153.749)" fill="#484848"/>
      <path id="Pfad_9782" data-name="Pfad 9782" d="M142.185,34.126V23.807h0V13.487h0V9.064h1.365A1.188,1.188,0,0,0,144.7,7.849V7.781h3.631a1.313,1.313,0,0,0,.817-.278.715.715,0,0,0,.113-.1.311.311,0,0,0,.022-.027,1.183,1.183,0,0,0,.328-.813V2.5a1.254,1.254,0,0,0-1.28-1.221H144.7V1.216A1.188,1.188,0,0,0,143.551,0h-8.912a1.188,1.188,0,0,0-1.155,1.216v.068H113.745a1.254,1.254,0,0,0-1.283,1.22V6.561a1.254,1.254,0,0,0,1.283,1.221h3.338v2.543l-2.6,2.9h-.641a1.143,1.143,0,0,0-1.113,1.17v3.45a1.145,1.145,0,0,0,1.113,1.173h7.864a1.146,1.146,0,0,0,1.113-1.173V14.4a1.145,1.145,0,0,0-1.113-1.17h-.638l-2.6-2.9V7.781h15v.068a1.188,1.188,0,0,0,1.155,1.216H136V38.549h-2.2A1.811,1.811,0,0,0,132.04,40.4v4.812h-.769a2.522,2.522,0,0,0-2.454,2.579v1.346a1.205,1.205,0,0,0,1.174,1.232h18.418a1.205,1.205,0,0,0,1.176-1.232V47.8a2.521,2.521,0,0,0-2.451-2.579h-.769V40.4a1.812,1.812,0,0,0-1.762-1.854h-2.411V34.127h0Zm6.027-31.368V5.3l-2.483-2.539ZM144.7,3.765l2.485,2.54H144.7ZM113.864,6.3V2.758h.388L117.72,6.3Zm7.561,8.4v2.842h-7.289V14.7Zm-2.275-1.476h-2.738l1.369-1.532ZM116.263,2.758h6.369l-3.181,3.256Zm7.51,3.546h-2.6l3.184-3.256L127.545,6.3Zm2.31-3.546h6.369l-3.185,3.256Zm6.07,3.546h-1.159l2.484-2.54V6.3ZM144.6,40.024a.371.371,0,0,1,.363.376v4.812h-4.08a.742.742,0,0,0,0,1.476h6.25a1.079,1.079,0,0,1,1.05,1.1v1.1h-17.96v-1.1a1.08,1.08,0,0,1,1.052-1.1h6.212a.742.742,0,0,0,0-1.476h-4.043V40.4a.371.371,0,0,1,.36-.376h10.793ZM140.5,13.486l-3.1,3.347V10.139Zm-2.136-4.422h2.417v2.609Zm2.417,6.235v6.694l-3.1-3.347Zm-.278,8.507-3.1,3.347V20.459Zm.278,1.813v6.694l-3.1-3.347Zm-.278,8.507-3.1,3.347V30.783Zm.278,1.813v2.609h-2.417Zm.7-28.351h-6.6V1.476H143.3V7.589Z" transform="translate(-99.616)" fill="#484848"/>
      <path id="Pfad_9783" data-name="Pfad 9783" d="M48.14,352.249a1.3,1.3,0,0,0-1.3-1.3h-10.7a1.3,1.3,0,0,0-1.3,1.3V355.8a1.3,1.3,0,0,0,1.3,1.3h10.7a1.3,1.3,0,0,0,1.3-1.3Zm-7.519,3.113H36.582v-2.673H40.62v2.673Zm5.777,0H42.362v-2.673h4.03v2.673Z" transform="translate(-31.01 -317.142)" fill="#484848"/>
      <path id="Pfad_9784" data-name="Pfad 9784" d="M46.84,426.371h-10.7a1.3,1.3,0,0,0-1.3,1.3v3.553a1.3,1.3,0,0,0,1.3,1.3h10.7a1.3,1.3,0,0,0,1.3-1.3v-3.553A1.3,1.3,0,0,0,46.84,426.371Zm-6.22,4.415H36.582v-2.673H40.62Zm5.777,0H42.362v-2.673h4.03v2.673Z" transform="translate(-31.01 -385.947)" fill="#484848"/>
    </g>
  </g>
</svg>