<svg xmlns="http://www.w3.org/2000/svg" width="50" height="32.384" viewBox="0 0 50 32.384">
  <g id="glasses" transform="translate(0 -90.187)">
    <path id="Pfad_9799" data-name="Pfad 9799" d="M47.069,109.093v-7.228H40.342a7.264,7.264,0,0,0,1.451-4.273h2.145v-2.93H41.228a7.3,7.3,0,0,0-12.816-1.209,5.108,5.108,0,0,0-6.829,0A7.3,7.3,0,0,0,8.768,94.663h-2.7v2.931H8.209a7.264,7.264,0,0,0,1.451,4.273H2.931v7.226H0v13.478H50V109.093Zm-2.931,0H11.722v-4.3H44.14ZM34.5,93.12a4.373,4.373,0,1,1-4.373,4.373A4.373,4.373,0,0,1,34.5,93.12ZM22.813,97.262a2.191,2.191,0,0,1,4.38,0v.231a7.265,7.265,0,0,0,1.461,4.373h-7.3a7.265,7.265,0,0,0,1.458-4.373Zm-11.676.231a4.373,4.373,0,1,1,4.373,4.373,4.373,4.373,0,0,1-4.373-4.373ZM5.86,104.8H8.791v4.3H5.86Zm41.209,14.846H2.931v-7.617H47.07Z" fill="#484848"/>
    <path id="Pfad_9800" data-name="Pfad 9800" d="M136.91,337.728h32.545v3.012H136.91Z" transform="translate(-128.184 -223.427)" fill="#484848"/>
  </g>
</svg>