<svg xmlns="http://www.w3.org/2000/svg" width="50" height="49.632" viewBox="0 0 50 49.632">
  <g id="renewable-energy_1_1_" data-name="renewable-energy (1) (1)" transform="translate(-0.5)">
    <path id="Pfad_9806" data-name="Pfad 9806" d="M90.853,103.748a16.019,16.019,0,0,0,4.864,15.061,6.86,6.86,0,0,1,2.081,5.086s-.086,1.4.227,1.767,1.226.257,1.226.257v5.914h14.54v-5.913s1.038,0,1.229-.238a6.743,6.743,0,0,0,.225-1.792,6.935,6.935,0,0,1,2.119-5.119,16,16,0,1,0-26.512-15.023Zm20.031,25.175H102.16v-3h8.724Zm8.724-21.9a13.126,13.126,0,0,1-4.215,9.62,9.743,9.743,0,0,0-3.018,6.374h-4.4v-5.92a10.193,10.193,0,0,0,8.724-10.074v-1.454h-1.454a10.182,10.182,0,0,0-8.724,4.94,10.182,10.182,0,0,0-8.724-4.94H96.34v1.454a10.193,10.193,0,0,0,8.724,10.074v5.92h-4.4a9.636,9.636,0,0,0-2.987-6.345,13.1,13.1,0,1,1,21.926-9.649ZM108.163,114.1a7.294,7.294,0,0,1,5.443-5.443,7.294,7.294,0,0,1-5.446,5.436Zm-3.281,0a7.294,7.294,0,0,1-5.443-5.443,7.294,7.294,0,0,1,5.438,5.436Z" transform="translate(-81.3 -82.2)" fill="#484848"/>
    <rect id="Rechteck_1664" data-name="Rechteck 1664" width="2.381" height="5.952" rx="1" transform="translate(24.31)" fill="#484848"/>
    <rect id="Rechteck_1665" data-name="Rechteck 1665" width="5.952" height="2.381" rx="1" transform="translate(44.548 23.81)" fill="#484848"/>
    <rect id="Rechteck_1666" data-name="Rechteck 1666" width="5.952" height="2.381" rx="1" transform="translate(0.5 23.81)" fill="#484848"/>
    <rect id="Rechteck_1667" data-name="Rechteck 1667" width="5.815" height="2.908" rx="1.221" transform="translate(37.556 10.421) rotate(-45)" fill="#484848"/>
    <rect id="Rechteck_1668" data-name="Rechteck 1668" width="5.815" height="2.908" rx="1.221" transform="translate(12.881 39.21) rotate(135)" fill="#484848"/>
    <rect id="Rechteck_1669" data-name="Rechteck 1669" width="5.815" height="2.908" rx="1.221" transform="translate(10.824 12.477) rotate(-135)" fill="#484848"/>
    <rect id="Rechteck_1670" data-name="Rechteck 1670" width="5.815" height="2.908" rx="1.221" transform="translate(41.668 43.323) rotate(-135)" fill="#484848"/>
  </g>
</svg>