<svg xmlns="http://www.w3.org/2000/svg" width="50" height="49.967" viewBox="0 0 50 49.967">
  <path id="clothes_1_" data-name="clothes (1)" d="M4.392,49.967H41.086V32.3H50l-1.76-11.927a10.351,10.351,0,0,0-10.206-8.562H34.112L29.376,9.441V8.533a4.392,4.392,0,1,0-5.855-4.14h2.928a1.464,1.464,0,1,1,1.464,1.464H26.447V9.439L21.71,11.808H17.784A10.251,10.251,0,0,0,7.677,20.376L5.916,32.3h8.821v3.025H4.392a4.389,4.389,0,0,0-3.268,7.319,4.389,4.389,0,0,0,3.27,7.319Zm0-2.928a1.464,1.464,0,0,1,0-2.928H24.984a1.464,1.464,0,0,1,0,2.928ZM41.086,29.377v-2.93H46.18l.431,2.928ZM32.218,14.135a4.392,4.392,0,0,1-8.612,0l4.307-2.153ZM9.307,29.377l.433-2.928h5v2.928Zm5.429-8.783v2.928H10.173l.4-2.68a7.3,7.3,0,0,1,7.218-6.1h2.953a7.321,7.321,0,0,0,14.345,0h2.954a7.447,7.447,0,0,1,7.316,6.1l.4,2.68H41.086V20.593H38.158V47.039H29.126a4.382,4.382,0,0,0-.875-4.392,4.389,4.389,0,0,0-3.27-7.319H17.664V20.593ZM4.392,38.253H24.984a1.464,1.464,0,0,1,0,2.928H4.392a1.464,1.464,0,0,1,0-2.928Zm0,0" transform="translate(-0.003 -0.001)" fill="#484848"/>
</svg>