<svg id="food_1_" data-name="food (1)" xmlns="http://www.w3.org/2000/svg" width="50" height="46.872" viewBox="0 0 50 46.872">
  <path id="Pfad_9797" data-name="Pfad 9797" d="M185.256,301.979c.393.332.8.674,1.229,1.047l.787.682.787-.682c2.782-2.411,5.2-3.985,5.2-6.6a3.659,3.659,0,0,0-3.592-3.8,3.379,3.379,0,0,0-2.4,1,3.315,3.315,0,0,0-2.383-1,3.659,3.659,0,0,0-3.592,3.8C181.289,298.631,182.953,300.035,185.256,301.979Zm-.375-6.948c.594,0,.962.576,1.166,1.059l.311.732h1.821l.3-.745c.16-.39.525-1.045,1.179-1.045a1.268,1.268,0,0,1,1.19,1.394c0,1.29-1.841,2.637-3.58,4.112-2.2-1.863-3.58-2.951-3.58-4.112a1.268,1.268,0,0,1,1.19-1.394Zm0,0" transform="translate(-162.271 -260.759)" fill="#484848"/>
  <path id="Pfad_9798" data-name="Pfad 9798" d="M46.973,21.972A10.27,10.27,0,0,0,38.39,11.85a4.4,4.4,0,0,1,4.189-3.067V5.854a7.335,7.335,0,0,0-7.2,5.948,10.217,10.217,0,0,0-3.741,1.256,7.391,7.391,0,0,0-2.252-2.773V2.927h2.927V0H17.676V2.927H20.6v7.357a7.377,7.377,0,0,0-2.676,3.937,35.431,35.431,0,0,0-3.86-6.256c-3.327-4.2-5.806-4.428-7.3-3.887S3.526,6.4,3.673,11.75A41.189,41.189,0,0,0,6.034,23.438H0v2.927H3.222L6.149,46.872h37.7l2.927-20.507H50V23.438H46.867a10.343,10.343,0,0,0,.106-1.463ZM36.72,14.648A7.326,7.326,0,0,1,43.9,23.437H32.324V16.113h0a7.309,7.309,0,0,1,4.39-1.463ZM23.537,11.909V2.927h2.927v8.982a4.8,4.8,0,0,1,2.927,4.2v7.324H20.61V16.113A4.772,4.772,0,0,1,23.537,11.909ZM8.671,22.091l5.488-2-1-2.752L7.827,19.28c-.262-.976-.488-1.943-.667-2.876l4.993-1.817-1-2.752L6.72,13.449c-.062-.61-.1-1.21-.122-1.779C6.5,8.213,7.321,6.993,7.767,6.83s1.856.244,4.006,2.955a40.689,40.689,0,0,1,5.9,11.434V23.44H9.139Q8.9,22.766,8.672,22.1ZM41.307,43.945H8.693L6.182,26.367H43.818Zm0,0" fill="#484848"/>
</svg>