<svg xmlns="http://www.w3.org/2000/svg" width="50" height="41.336" viewBox="0 0 50 41.336">
  <path id="Vereinigungsmenge_45" data-name="Vereinigungsmenge 45" d="M-4335.752,450.4h-4.157v-2.957a9.866,9.866,0,0,0-9.856-9.854,9.879,9.879,0,0,0-6.271,2.251l-1.254-1.519a11.814,11.814,0,0,1,4.573-2.327V429.7h-1.975v-1.975h7.824c-.052-.064-.1-.128-.158-.19q.081.094.159.19h7.944V429.7h-1.633l2.367,7.884h4.325v-4.928a2.959,2.959,0,0,1,2.958-2.956v1.965a.988.988,0,0,0-.988.985v4.929h1.975a3.949,3.949,0,0,1,3.941,3.941V445a5.9,5.9,0,0,1,1.975,4.4,5.923,5.923,0,0,1-5.913,5.915,5.924,5.924,0,0,1-5.835-4.923Zm1.887-.987a3.948,3.948,0,0,0,3.942,3.943,3.949,3.949,0,0,0,3.94-3.943,3.949,3.949,0,0,0-3.94-3.942,3.95,3.95,0,0,0-3.938,3.942Zm-4.074-1.975v.985h2.183a5.9,5.9,0,0,1,1.427-2.957h-3.777a11.91,11.91,0,0,1,.172,1.976Zm-.676-3.942h8.693a5.87,5.87,0,0,1,1.975.339v-2.31a1.975,1.975,0,0,0-1.975-1.975h-11.035a11.834,11.834,0,0,1,2.347,3.952Zm-4.62-5.912h2.987l-2.364-7.884h-8.136v5.954c.326-.027.654-.043.983-.043a11.745,11.745,0,0,1,6.53,1.977Zm-14.076,12.136V454.5h-2.113V443.25a9.014,9.014,0,0,1-4.742,1.37c-5.423,0-9.834-4.954-9.834-11.045a11.166,11.166,0,0,1,5.9-10.124,11.564,11.564,0,0,1,3.031-6.491,9.25,9.25,0,0,1,6.7-2.961,9.239,9.239,0,0,1,6.7,2.961,11.557,11.557,0,0,1,3.032,6.491,10.2,10.2,0,0,1,4.251,4.009h-2.713a7.62,7.62,0,0,0-2.873-2.053l-.648-.259-.052-.769a9.091,9.091,0,0,0-2.438-5.682,7.258,7.258,0,0,0-5.261-2.325,7.257,7.257,0,0,0-5.261,2.325,9.093,9.093,0,0,0-2.438,5.682l-.051.769-.646.259a8.7,8.7,0,0,0-5.125,8.168c0,4.781,3.464,8.672,7.722,8.672a7.223,7.223,0,0,0,4.742-1.83v-1.992l-4.739-2.8.982-2.1,3.757,2.218V425.81h2.113v4.677l1.464-.866V432.3l-1.466.866v7.259a7.608,7.608,0,0,0,1.468,1.011v1a7.869,7.869,0,0,1,6.079-2.871,7.893,7.893,0,0,1,7.885,7.883,7.893,7.893,0,0,1-7.885,7.884,7.9,7.9,0,0,1-7.541-5.612Zm1.634-2.287a5.924,5.924,0,0,0,5.912,5.914,5.924,5.924,0,0,0,5.914-5.914,5.924,5.924,0,0,0-5.914-5.914,5.925,5.925,0,0,0-5.911,5.922Zm-1.634-2.287a7.812,7.812,0,0,1,.653-1.54q-.334-.172-.653-.369Zm26.4,4.252a.985.985,0,0,1,.984-.984.986.986,0,0,1,.986.984.987.987,0,0,1-.986.987.985.985,0,0,1-.98-.974Zm-21.813-1.975a2.959,2.959,0,0,1,2.954-2.956,2.96,2.96,0,0,1,2.958,2.956,2.961,2.961,0,0,1-2.958,2.957,2.962,2.962,0,0,1-2.944-2.939Zm1.975,0a.987.987,0,0,0,.983.985.989.989,0,0,0,.987-.985.988.988,0,0,0-.987-.984.987.987,0,0,0-.7.3.985.985,0,0,0-.281.706Zm3.708-19.917.015.017Zm-.01-.011.01.011Zm-.046-.052h0l.046.052Z" transform="translate(4374.004 -413.999)" fill="#484848"/>
</svg>