<svg xmlns="http://www.w3.org/2000/svg" width="50" height="45.142" viewBox="0 0 50 45.142">
  <g id="policy" transform="translate(0.001)">
    <path id="Pfad_9801" data-name="Pfad 9801" d="M44.727,0H12.395A5.069,5.069,0,0,0,7.306,5.032L7.1,33.5H.788A.821.821,0,0,0,0,34.345v3.918a6.865,6.865,0,0,0,6.478,6.832v.047H33.7v-.053c.2.008.325.053.464.053h.019a6.844,6.844,0,0,0,6.8-6.88V13.36h8.219A.829.829,0,0,0,50,12.509V5.32A5.311,5.311,0,0,0,44.727,0ZM6.831,43.522H6.826a5.247,5.247,0,0,1-5.207-5.26v-3.14H27.327v3.127a6.853,6.853,0,0,0,2,4.863,2.908,2.908,0,0,1,.426.411Zm32.54-5.261a5.229,5.229,0,0,1-5.186,5.261H34.17a5.261,5.261,0,0,1-5.223-5.273v-3.9a.839.839,0,0,0-.81-.843H8.717L8.926,5.038A3.449,3.449,0,0,1,12.4,1.619H40.9a5.525,5.525,0,0,0-1.532,3.722ZM48.38,5.334v6.407H40.991V5.34A3.75,3.75,0,0,1,44.7,1.619h.023A3.691,3.691,0,0,1,48.38,5.328Zm0,0" fill="#484848"/>
    <path id="Pfad_9802" data-name="Pfad 9802" d="M165.512,68.082l4.175,2.854a.8.8,0,0,0,.9,0l4.162-2.853a6.289,6.289,0,0,0,2.514-4.8V57.511a.792.792,0,0,0-.432-.727l-6.356-3.127a.8.8,0,0,0-.708,0l-6.344,3.118A.79.79,0,0,0,163,57.5v5.783A6.289,6.289,0,0,0,165.512,68.082Zm-.9-10.075,5.516-2.722,5.516,2.729v5.271a4.666,4.666,0,0,1-1.808,3.459l-3.718,2.543-3.7-2.542a4.664,4.664,0,0,1-1.8-3.459Zm0,0" transform="translate(-146.499 -48.152)" fill="#484848"/>
    <path id="Pfad_9803" data-name="Pfad 9803" d="M203.406,120.732a.809.809,0,0,0,.573.243h0a.811.811,0,0,0,.572-.24l3.221-3.222a.81.81,0,0,0-1.145-1.146l-2.646,2.645-1.058-1.068a.81.81,0,0,0-1.151,1.141Zm0,0" transform="translate(-181.143 -104.376)" fill="#484848"/>
    <path id="Pfad_9804" data-name="Pfad 9804" d="M153.243,248H133.81a.81.81,0,1,0,0,1.619h19.433a.81.81,0,0,0,0-1.619Zm0,0" transform="translate(-119.539 -222.899)" fill="#484848"/>
    <path id="Pfad_9805" data-name="Pfad 9805" d="M153.243,285H133.81a.81.81,0,1,0,0,1.619h19.433a.81.81,0,0,0,0-1.619Zm0,0" transform="translate(-119.539 -256.154)" fill="#484848"/>
  </g>
</svg>