<svg xmlns="http://www.w3.org/2000/svg" width="70.05" height="70.049" viewBox="0 0 70.05 70.049"><defs><style>.a{fill:#227178;}</style></defs><g transform="translate(28.02)"><path class="a" d="M199,0a7,7,0,1,0,7,7A7,7,0,0,0,199,0Zm0,11.675A4.67,4.67,0,1,1,203.675,7,4.67,4.67,0,0,1,199,11.675Z" transform="translate(-192)"/></g><g transform="translate(24.517 15.177)"><path class="a" d="M183.177,104H182.9l-.246.123a9.307,9.307,0,0,1-8.3,0l-.246-.123h-.276A5.844,5.844,0,0,0,168,109.837v7a3.5,3.5,0,0,0,3.5,3.5h14.01a3.5,3.5,0,0,0,3.5-3.5v-7A5.844,5.844,0,0,0,183.177,104Zm3.5,12.842a1.168,1.168,0,0,1-1.167,1.167H171.5a1.168,1.168,0,0,1-1.167-1.167v-7a3.5,3.5,0,0,1,3.254-3.493,11.684,11.684,0,0,0,9.837,0,3.5,3.5,0,0,1,3.254,3.493Z" transform="translate(-168 -104)"/></g><g transform="translate(52.537 38.527)"><path class="a" d="M367,264a7,7,0,1,0,7,7A7,7,0,0,0,367,264Zm0,11.675a4.67,4.67,0,1,1,4.67-4.67A4.67,4.67,0,0,1,367,275.675Z" transform="translate(-360 -264)"/></g><g transform="translate(49.035 53.705)"><path class="a" d="M351.177,368H350.9l-.246.117a9.308,9.308,0,0,1-8.3,0l-.246-.117h-.276A5.844,5.844,0,0,0,336,373.837v7a3.5,3.5,0,0,0,3.5,3.5h14.01a3.5,3.5,0,0,0,3.5-3.5v-7A5.844,5.844,0,0,0,351.177,368Zm3.5,12.842a1.168,1.168,0,0,1-1.167,1.167H339.5a1.168,1.168,0,0,1-1.167-1.167v-7a3.5,3.5,0,0,1,3.254-3.493,11.684,11.684,0,0,0,9.837,0,3.5,3.5,0,0,1,3.254,3.493Z" transform="translate(-336 -368)"/></g><g transform="translate(3.502 38.527)"><path class="a" d="M31,264a7,7,0,1,0,7,7A7,7,0,0,0,31,264Zm0,11.675a4.67,4.67,0,1,1,4.67-4.67A4.67,4.67,0,0,1,31,275.675Z" transform="translate(-24 -264)"/></g><g transform="translate(0 53.705)"><path class="a" d="M15.177,368H14.9l-.246.117a9.308,9.308,0,0,1-8.3,0L6.113,368H5.837A5.844,5.844,0,0,0,0,373.837v7a3.5,3.5,0,0,0,3.5,3.5h14.01a3.5,3.5,0,0,0,3.5-3.5v-7A5.844,5.844,0,0,0,15.177,368Zm3.5,12.842a1.168,1.168,0,0,1-1.167,1.167H3.5a1.168,1.168,0,0,1-1.167-1.167v-7a3.5,3.5,0,0,1,3.254-3.493,11.684,11.684,0,0,0,9.837,0,3.5,3.5,0,0,1,3.254,3.493Z" transform="translate(0 -368)"/></g><g transform="translate(23.349 57.206)"><path class="a" d="M183.256,394.079l0,0a1.167,1.167,0,0,0-1.532-.616h0a25.9,25.9,0,0,1-16.652,1.146l1.093-.321a1.168,1.168,0,1,0-.656-2.242l-4.67,1.369c-.018,0-.03.02-.047.026a1.156,1.156,0,0,0-.3.167,1.024,1.024,0,0,0-.117.074,1.131,1.131,0,0,0-.286.4,1.169,1.169,0,0,0-.089.482,3.6,3.6,0,0,0,.117.467c.007.016,0,.035.013.051l2.335,4.468a1.168,1.168,0,1,0,2.071-1.081l-.95-1.817a28.1,28.1,0,0,0,19.052-1.037A1.168,1.168,0,0,0,183.256,394.079Z" transform="translate(-159.998 -391.995)"/></g><g transform="translate(44.364 9.139)"><path class="a" d="M325.838,84.18a1.168,1.168,0,0,0-1.651,0l-1.652,1.652a27.977,27.977,0,0,0-16.912-23.116,1.168,1.168,0,0,0-.915,2.148A25.646,25.646,0,0,1,320.15,85.5l-1.317-1.317a1.167,1.167,0,0,0-1.651,1.651l3.5,3.5a1.167,1.167,0,0,0,1.651,0l0,0,3.5-3.5A1.167,1.167,0,0,0,325.838,84.18Z" transform="translate(-303.998 -62.622)"/></g><g transform="translate(7.005 7.025)"><path class="a" d="M66.646,51.219a1.085,1.085,0,0,0-.03-.2c0-.011-.013-.018-.018-.029s0-.02,0-.029a1.12,1.12,0,0,0-.11-.161,1.178,1.178,0,0,0-.133-.193,1.1,1.1,0,0,0-.228-.155A1.027,1.027,0,0,0,66,50.355l-4.67-2.133a1.167,1.167,0,0,0-.969,2.122l2.418,1.106A27.977,27.977,0,0,0,48,76.135a1.167,1.167,0,1,0,2.335,0A25.645,25.645,0,0,1,62.971,54.018l-.844,1.764a1.167,1.167,0,0,0,.545,1.556,1.149,1.149,0,0,0,.506.117,1.167,1.167,0,0,0,1.051-.662l2.335-4.872a.053.053,0,0,1,.009-.036,1.122,1.122,0,0,0,.063-.248,1.209,1.209,0,0,0,.044-.193A1.165,1.165,0,0,0,66.646,51.219Z" transform="translate(-48 -48.134)"/></g></svg>