<svg xmlns="http://www.w3.org/2000/svg" width="71.806" height="39.078" viewBox="0 0 71.806 39.078"><defs><style>.a{fill:#227178;}</style></defs><g transform="translate(0 -100.736)"><g transform="translate(0 100.736)"><path class="a" d="M35.9,139.814c-8.075,0-16.765-3.158-25.131-9.133A63.617,63.617,0,0,1,.5,121.6a2.031,2.031,0,0,1,0-2.659,63.627,63.627,0,0,1,10.276-9.077c8.367-5.974,17.057-9.132,25.131-9.132s16.765,3.158,25.131,9.132a63.628,63.628,0,0,1,10.276,9.077,2.031,2.031,0,0,1,0,2.659,63.627,63.627,0,0,1-10.276,9.077C52.668,136.656,43.978,139.814,35.9,139.814ZM4.814,120.275a64.085,64.085,0,0,0,8.4,7.159c5.333,3.795,13.6,8.319,22.691,8.319s17.358-4.524,22.691-8.319a64.092,64.092,0,0,0,8.4-7.159,64.077,64.077,0,0,0-8.4-7.159C53.261,109.321,45,104.8,35.9,104.8s-17.358,4.524-22.691,8.319A64.067,64.067,0,0,0,4.814,120.275Z" transform="translate(0 -100.736)"/></g><g transform="translate(23.314 107.686)"><path class="a" d="M156.109,168.7a12.589,12.589,0,1,1,8.292-22.062,2.031,2.031,0,0,1-2.676,3.055,8.528,8.528,0,1,0,2.912,6.418,2.031,2.031,0,1,1,4.061,0A12.6,12.6,0,0,1,156.109,168.7Z" transform="translate(-143.52 -143.521)"/></g><g transform="translate(31.842 116.214)"><path class="a" d="M200.081,204.143a4.061,4.061,0,1,1,4.061-4.061A4.066,4.066,0,0,1,200.081,204.143Z" transform="translate(-196.02 -196.021)"/></g></g></svg>