<svg xmlns="http://www.w3.org/2000/svg" width="40" height="50" viewBox="0 0 40 50"><defs><style>.a{fill:#227178;}</style></defs><g transform="translate(-6)"><path class="a" d="M40.667,25H19.833a.833.833,0,0,0,0,1.667H40.667a.833.833,0,0,0,0-1.667Z" transform="translate(-2.167 -4.167)"/><path class="a" d="M19.833,18.667h8.333a.833.833,0,0,0,0-1.667H19.833a.833.833,0,0,0,0,1.667Z" transform="translate(-2.167 -2.833)"/><path class="a" d="M40.667,33H19.833a.833.833,0,0,0,0,1.667H40.667a.833.833,0,1,0,0-1.667Z" transform="translate(-2.167 -5.5)"/><path class="a" d="M40.667,41H19.833a.833.833,0,0,0,0,1.667H40.667a.833.833,0,0,0,0-1.667Z" transform="translate(-2.167 -6.833)"/><path class="a" d="M40.667,49H19.833a.833.833,0,0,0,0,1.667H40.667a.833.833,0,0,0,0-1.667Z" transform="translate(-2.167 -8.167)"/><path class="a" d="M41.833,12.155V0H6V45.833h4.167V50H46V16.322Zm-7.5-5.143,7.5,7.5,1.322,1.322H34.333ZM7.667,44.167V1.667h32.5v8.822L33.845,4.167H10.167v40Zm4.167,4.167V5.833H32.667V17.5H44.333V48.333Z"/></g></svg>