<svg xmlns="http://www.w3.org/2000/svg" width="58.774" height="67.816" viewBox="0 0 58.774 67.816"><defs><style>.a{fill:#227178;}</style></defs><g transform="translate(-32)"><g transform="translate(45.563 12.748)"><g transform="translate(0)"><path class="a" d="M143.824,90.232A15.815,15.815,0,0,0,128,106a17.509,17.509,0,0,0,.832,4.982,40.035,40.035,0,0,0,2.639,4.966c2.314,4.032,5.808,10.128,5.808,12.4a1.13,1.13,0,0,0,1.13,1.13h10.828a1.13,1.13,0,0,0,1.13-1.13c0-2.267,3.495-8.364,5.808-12.4a40.037,40.037,0,0,0,2.639-4.966,17.508,17.508,0,0,0,.832-4.982A15.815,15.815,0,0,0,143.824,90.232Zm12.849,20.03a47.126,47.126,0,0,1-2.457,4.56c-2.915,5.087-5.393,9.569-5.978,12.395h-8.822c-.585-2.826-3.063-7.307-5.978-12.39a47.116,47.116,0,0,1-2.463-4.564,15.471,15.471,0,0,1-.714-4.26,13.563,13.563,0,0,1,27.127,0A15.47,15.47,0,0,1,156.673,110.262Z" transform="translate(-128 -90.232)"/></g></g><g transform="translate(55.735 64.514)"><g transform="translate(0)"><path class="a" d="M211.145,457.19a1.131,1.131,0,0,0-1.545-.415l-1.545.891h-4.822l-1.545-.891a1.131,1.131,0,0,0-1.13,1.96l1.808,1.041a1.132,1.132,0,0,0,.565.15h5.425a1.132,1.132,0,0,0,.565-.15l1.808-1.041A1.131,1.131,0,0,0,211.145,457.19Z" transform="translate(-199.992 -456.624)"/></g></g><g transform="translate(55.735 53.349)"><g transform="translate(0)"><path class="a" d="M211.3,378.617a1.13,1.13,0,0,0-1.238-1.012h0l-9.042.9a1.13,1.13,0,0,0,.113,2.255.766.766,0,0,0,.113-.006l9.042-.9A1.13,1.13,0,0,0,211.3,378.617Z" transform="translate(-199.998 -377.599)"/></g></g><g transform="translate(55.735 56.74)"><g transform="translate(0)"><path class="a" d="M211.3,402.617a1.13,1.13,0,0,0-1.238-1.012h0l-9.042.9a1.13,1.13,0,0,0,.113,2.255.762.762,0,0,0,.113-.006l9.042-.9A1.13,1.13,0,0,0,211.3,402.617Z" transform="translate(-199.998 -401.599)"/></g></g><g transform="translate(55.735 60.13)"><g transform="translate(0)"><path class="a" d="M211.3,426.617a1.13,1.13,0,0,0-1.238-1.012h0l-9.042.9a1.13,1.13,0,0,0,.113,2.255.766.766,0,0,0,.113-.006l9.042-.9A1.13,1.13,0,0,0,211.3,426.617Z" transform="translate(-199.998 -425.599)"/></g></g><g transform="translate(60.257)"><path class="a" d="M233.13,0A1.13,1.13,0,0,0,232,1.13V9.042a1.13,1.13,0,1,0,2.261,0V1.13A1.13,1.13,0,0,0,233.13,0Z" transform="translate(-232)"/></g><g transform="translate(74.629 8.262)"><g transform="translate(0)"><path class="a" d="M341.292,58.823a1.13,1.13,0,0,0-1.6-.028l-.028.028-5.595,5.595a1.13,1.13,0,1,0,1.57,1.626l.028-.028,5.595-5.595A1.13,1.13,0,0,0,341.292,58.823Z" transform="translate(-333.726 -58.478)"/></g></g><g transform="translate(80.602 28.257)"><g transform="translate(0)"><path class="a" d="M385.042,200H377.13a1.13,1.13,0,1,0,0,2.261h7.912a1.13,1.13,0,0,0,0-2.261Z" transform="translate(-376 -200)"/></g></g><g transform="translate(74.643 42.643)"><g transform="translate(0)"><path class="a" d="M341.35,307.751l-5.595-5.595a1.13,1.13,0,1,0-1.6,1.6l5.595,5.595a1.13,1.13,0,0,0,1.6-1.6Z" transform="translate(-333.826 -301.826)"/></g></g><g transform="translate(40.276 42.657)"><path class="a" d="M98.074,302.24a1.13,1.13,0,0,0-1.571,0l-5.595,5.595a1.13,1.13,0,1,0,1.6,1.6l5.595-5.595A1.13,1.13,0,0,0,98.074,302.24Z" transform="translate(-90.578 -301.922)"/></g><g transform="translate(32 28.257)"><g transform="translate(0)"><path class="a" d="M41.042,200H33.13a1.13,1.13,0,0,0,0,2.261h7.912a1.13,1.13,0,0,0,0-2.261Z" transform="translate(-32 -200)"/></g></g><g transform="translate(40.262 8.262)"><path class="a" d="M98.016,64.418l-5.595-5.595a1.13,1.13,0,0,0-1.626,1.57l.028.028,5.595,5.595a1.13,1.13,0,0,0,1.6-1.6Z" transform="translate(-90.478 -58.478)"/></g><g transform="translate(53.475 30.518)"><path class="a" d="M199.025,216.054a1.13,1.13,0,0,0-.688.008l-6.424,2.141-6.424-2.141a1.13,1.13,0,0,0-1.438,1.4l4.521,14.694a1.13,1.13,0,0,0,2.161-.665L186.856,218.9l4.7,1.565a1.12,1.12,0,0,0,.714,0l4.7-1.565-3.876,12.595a1.13,1.13,0,0,0,2.161.665l4.521-14.694A1.13,1.13,0,0,0,199.025,216.054Z" transform="translate(-184 -216.004)"/></g></g></svg>