<svg xmlns="http://www.w3.org/2000/svg" width="68.123" height="68.123" viewBox="0 0 68.123 68.123"><defs><style>.a{fill:#227178;}</style></defs><path class="a" d="M34.062,0A34.062,34.062,0,1,0,68.123,34.062,34.1,34.1,0,0,0,34.062,0Zm0,65.5A31.442,31.442,0,1,1,65.5,34.062,31.478,31.478,0,0,1,34.062,65.5Z"/><path class="a" d="M46.562,28.721H31.5V14.31a1.31,1.31,0,0,0-2.62,0V28.721H13.81a1.31,1.31,0,1,0,0,2.62H28.876V47.062a1.31,1.31,0,0,0,2.62,0V31.341H46.562a1.31,1.31,0,0,0,0-2.62Z" transform="translate(3.876 4.031)"/></svg>