<svg xmlns="http://www.w3.org/2000/svg" width="50" height="50" viewBox="0 0 50 50"><defs><style>.a{fill:none;}.b{fill:#1da1f2;}</style></defs><rect class="a" width="50" height="50"/><path class="b" d="M84.828,123.843c11.792,0,18.242-9.77,18.242-18.243,0-.278,0-.554-.019-.829a13.046,13.046,0,0,0,3.2-3.319,12.8,12.8,0,0,1-3.682,1.009,6.434,6.434,0,0,0,2.819-3.546,12.848,12.848,0,0,1-4.071,1.556,6.417,6.417,0,0,0-10.926,5.847,18.2,18.2,0,0,1-13.214-6.7,6.416,6.416,0,0,0,1.985,8.559,6.364,6.364,0,0,1-2.91-.8v.081a6.414,6.414,0,0,0,5.144,6.285,6.4,6.4,0,0,1-2.9.11,6.419,6.419,0,0,0,5.99,4.452,12.865,12.865,0,0,1-7.963,2.75A13.046,13.046,0,0,1,75,120.963a18.152,18.152,0,0,0,9.827,2.875" transform="translate(-65.625 -86.144)"/></svg>