<svg xmlns="http://www.w3.org/2000/svg" width="27.883" height="29.821" viewBox="0 0 27.883 29.821"><g transform="translate(-38.5)"><path d="M51.961,168.349v5.282q-.478.034-.961.034c-6.892,0-12.5-5.1-12.5-11.358a11.158,11.158,0,0,1,5.769-9.567v.831a4.5,4.5,0,0,0,3.846,4.28v.6l-1.36,1.235H44.832a3.748,3.748,0,0,0-1.311,4.219l1.017,2.771h4.141A5.908,5.908,0,0,0,51.961,168.349Z" transform="translate(0 -143.844)"/><path d="M159.026,140.343a12.721,12.721,0,0,1-6.971,4.065v-6.682h-.961a4.845,4.845,0,0,1-3.448-1.747h-3.551l-.578-1.576a1.955,1.955,0,0,1,.324-1.919h1.882l2.486-2.259v-2.983h-.962a2.766,2.766,0,0,1-2.884-2.621v-1.747a13.509,13.509,0,0,1,4.807-.874,13.67,13.67,0,0,1,3.846.55v6.19a6.569,6.569,0,0,0-1.923,4.618c0,3.854,3.45,6.989,7.692,6.989C158.866,140.347,158.946,140.346,159.026,140.343Z" transform="translate(-98.171 -114.894)"/><circle cx="1" cy="1" r="1" transform="translate(59.5 18)"/><path d="M303.115,14.54V3.495a3.864,3.864,0,0,0-7.692,0V14.54a5.245,5.245,0,0,0-1.923,3.923,5.8,5.8,0,0,0,11.538,0A5.241,5.241,0,0,0,303.115,14.54Zm-3.846,6.544a2.766,2.766,0,0,1-2.884-2.621,2.655,2.655,0,0,1,1.923-2.471V10.6h1.923v5.392a2.655,2.655,0,0,1,1.923,2.471A2.766,2.766,0,0,1,299.269,21.084Z" transform="translate(-238.655 0)"/><path d="M183.663,2.12l-1.243,1.13V0H180.5V3.249l-1.243-1.13-1.36,1.236,3.564,3.239,3.564-3.239Z" transform="translate(-130.459 0)"/></g></svg>