<svg xmlns="http://www.w3.org/2000/svg" width="868" height="680.141" viewBox="0 0 868 680.141"><defs><style>.a{fill:#66bcb5;}</style></defs><path class="a" d="M140.057,110.342a131.529,131.529,0,0,0-22.292-1.89C52.725,108.452,0,155.757,0,214.112c0,.079,0,.155,0,.234s0,.149,0,.224C0,253.6,23.583,287.684,58.664,305.98c-21.508,30.447-33.958,66.549-33.958,105.263,0,108.751,98.261,196.911,219.471,196.911a244.556,244.556,0,0,0,47.19-4.563c20.058,44.867,68.986,76.549,126.163,76.549,46.9,0,88.246-21.313,112.665-53.738,31.6,23.395,72.108,37.445,116.276,37.445,100.971,0,182.824-73.439,182.824-164.031a150.942,150.942,0,0,0-26.4-84.953c36.435-11.22,62.633-42.3,62.633-78.879,0-26.138-13.375-49.468-34.3-64.75C854.314,243.775,868,209.6,868,172.553,868,81.961,786.147,8.522,685.176,8.522c-51.724,0-98.436,19.277-131.693,50.253a149.922,149.922,0,0,0-43.718-6.447,152.177,152.177,0,0,0-21.7,1.546C448.743,20.477,395.658,0,337.235,0,250.648,0,175.768,45,140.057,110.342Z"/></svg>