<svg xmlns="http://www.w3.org/2000/svg" xmlns:xlink="http://www.w3.org/1999/xlink" width="615" height="572.291" xmlns:v="https://vecta.io/nano"><style><![CDATA[.Y{fill:#207178}.Z{fill:#fff}.a{fill:#263238}.b{fill:#455a64}.c{opacity:.2}.d{fill:#37474f}.e{fill:#ffa8a7}.f{opacity:.1}.g{opacity:.4}.h{fill:#fafafa}.i{fill:#ffde0a}.j{fill:#f28f8f}]]></style><ellipse cx="307.5" cy="394.749" rx="307.5" ry="177.542" fill="#f5f5f5"/><g fill="#e0e0e0"><path d="M331.785 507.104h-48.581a2.35 2.35 0 0 1-2.387-3.069l.985-3.915c.512-1.76 2.095-2.992 3.927-3.056h43.53a4.23 4.23 0 0 1 3.915 3.056l1 3.915a2.35 2.35 0 0 1-2.387 3.069z"/><ellipse cx="544.282" cy="462.652" rx="27.732" ry="16.013"/><ellipse cx="81.39" cy="464.445" rx="27.732" ry="16.013"/><path d="M178.565 454.027l-24.272 14.055a3.02 3.02 0 0 1-2.715 0L79.9 426.751a.82.82 0 0 1 0-1.566l24.284-14.055a3.02 3.02 0 0 1 2.715 0l71.691 41.331a.83.83 0 0 1 .536.792c-.006.351-.23.66-.561.774zm361.992-41.522l-70.454 40.7a2.65 2.65 0 0 1-2.387 0l-59.164-34.1c-.669-.391-.669-1 0-1.376l70.454-40.7a2.65 2.65 0 0 1 2.387 0l59.164 34.1a.73.73 0 0 1 0 1.376zm-336.079 30.336l16.568-9.56c.301-.06.518-.325.518-.632s-.217-.571-.518-.632l-91.315-52.726a2.39 2.39 0 0 0-2.109 0l-16.568 9.572c-.594.328-.594.884 0 1.263l91.3 52.711c.666.342 1.456.342 2.122 0z"/></g><path d="M395.785 149.581c16.057 40.123 2.644 86.024-32.491 111.188s-82.91 23.087-115.729-5.032-42.197-75.011-22.718-113.588 62.781-58.871 104.891-49.156a93.87 93.87 0 0 1 66.046 56.588z" class="b"/><path d="M297.401 104.359c-4.294.076-9.8 1.591-5.809 4.028s6.529 2.677 6.567 5.834-2.033 6.491-1.023 8.739 2.69 4.862 4.332 4.1 6.1-5.746 8.65-5.519 11.239.619 12.5-2.223 2.526-2.652 4.622-5.809 1.97-7.362-.568-7.388-2.879 1.073-7.122.758-6.213-3.107-10.343-2.374-8.64-.196-11.806-.146zm-15.953 1.124c-4.862 2.6-15.154 6.529-19.864 5.2-2.362-.669-5.165-1.6-8.158-2.159-18.301 13.313-31.19 32.775-36.306 54.82 1.132 2.359 2.558 4.566 4.243 6.567 3.713 4.357 7.577 4.912 12.262 5.822s3.233 3.561 5.544 6.314 3.309 4.395 5.948 5.885-.934 4.281-1.97 7.324-1.339 4.748.833 10.911 8.461 11.189 10.33 13.575-1.263 5.165-.493 10.1.556 18.3 5.354 25.762 7.678 6.6 7.287 1.566-2.008-9.8.9-13.588 8.84-2.778 10.835-9.7 3.3-6.579 6.5-8.928 1.768-4.369 4.748-9.711 3.852-10.38-.556-12.628-7.312-1.97-11.1-7.173a48.52 48.52 0 0 0-15.154-13.2c-5.455-2.955-14.118.657-17.579-.354s-5.657-7.577-5.43-10.1-2.349-3.208-4.837-2.589-3.877-.96-4.559-4.294 4.5-7.577 8.7-7.855 6.453 1.629 7.287 7.047c.532 4.494 3.872 8.148 8.3 9.08 3.877.972 1.452-3.056-1.263-5.809s-2.942-5.266-.871-11.366 7.173-5.62 10.974-11.2 4.534-1.389 8.373-.833 3.271-1.515 4.685-5.051 6.314-.48 10.3-3.321-4.357-7.274-3.789-11.113 4.369-3.7 2.248-9.459.808-5.973 2.324-8.12-1.172-4.023-6.046-1.422zm-5.683 14.043c-1.263 2.841-2.349 2.3-4.433 5.4-1.708 2.601-4.379 4.417-7.425 5.051-2.1.253-5.544-3.473-5.721-5.784s3.144-2.993 6.908-3.473a21.09 21.09 0 0 0 10.406-4.811c2.702-2.069 1.54.788.265 3.617zm126.448 57.8v.265a6.63 6.63 0 0 0-3.713 3.687c-2.134 5.241-2.526 2.942-7.577 6.5s-3.094 6.314-2.829 9.913-5.531 7.577-8.4 8.84-4.142 9.4-3.195 13.348-3.789 5.556-6.693 9.156-4.546 9.635-6.44 12.527a8.84 8.84 0 0 1-8.751 4.054c-3.435-.581-6.617-6.314-8.461-11.189a28.64 28.64 0 0 1-1.414-15.722c1.073-5.354.695-4.685-.581-13.045-.589-5.72-4.778-10.417-10.393-11.656-3.233-.808-8.575 1.073-11.454-.606s-4.1-4.117-5.986-11.984 2.021-9.661 5.051-13.891a29.35 29.35 0 0 1 14.422-10.191c4.162-1.174 8.623-.599 12.351 1.591 3.3 1.642 4.849 5.329 7.2 5.582s4.357-.972 6.706-.518 3.927 1.6 6.213 1.263.833-3.018.505-4.47-2.4-1.086-5.152-1.111-3.435-.77-4.407-2.6-2.526-.215-3.877-.96-1.073 2.614-1.187 3.915-1.124-1-1.124-1-1.137 1.781-1.629.96.644-2.778.48-4.8-3.069-1.541-4.887-3.094c-1.946-1.499-4.538-1.859-6.819-.947-2.526.821-2.93.227-4.028 2.412s-6.491 3.662-8.2 3.372-.505-3.788.96-6.819 4.483-2.046 6.314-5.14-.695-3.536-2.425-4.028-2.273-2.159-.467-6.1 4.205-2.854 5.2-1.036c1.198 1.844 3.299 2.897 5.493 2.753 2.311 0 1.768-1.6 1.717-5.051s1.5-5.178 4.571-6.466 8.2-3.372 10.1-5.215 5.443-.631 7.274 1.351 5.91 2.715 10.191 3.435c1.112.17 2.238-.202 3.031-1a93.45 93.45 0 0 1 22.3 53.708zm-17.567 46.195c-2.286-.391-2.084.366-3.422 2.159s-3.3 3.788-2.942 5.708.53 4.18 2.109 2.8 1.036-3.043 3.283-4.054 4.395-6.032.972-6.613z" class="Y"/><path d="M333.085 101.279c-59.77-17.263-70.933 23.489-39.249 49.162s85.974 34.1 93.286 17.212-9.598-53.557-54.037-66.374z" class="Z g"/><path d="M283.191 231.539c-46.46-38.112-45.008-112.112-4.29-136.032h0c-1.717.581-3.435 1.187-5.14 1.869-39.529 15.816-63.46 56.26-58.296 98.521s38.129 75.753 80.303 81.585 82.992-17.454 99.432-56.728c-13.118 18.147-65.589 48.821-112.01 10.784z" opacity=".05"/><g class="Y"><path d="M526.071 96.569c-3.132-1.818-7.463-1.553-12.237 1.2-9.547 5.519-17.288 18.943-17.288 29.954 0 5.531 1.945 9.421 5.051 11.214l6.087 3.536c3.132 1.806 7.451 1.553 12.224-1.263 9.56-5.506 17.3-18.942 17.3-29.954 0-5.506-1.932-9.383-5.051-11.189"/><path d="M519.959 101.317c-9.547 5.519-17.288 18.943-17.288 29.967s7.741 15.495 17.288 9.976 17.313-18.943 17.3-29.954-7.753-15.495-17.3-9.989z"/><path d="M529.506 125.791v1.263a27.71 27.71 0 0 1-9.547 10c-3.713 2.147-7.084 2.374-9.547 1.01v-2.6a17.01 17.01 0 0 1 7.779-13.487l2.526-1.452c2.235-1.263 4.395-1.452 6.087-.467s2.702 3.081 2.702 5.733z"/></g><path d="M526.069 96.569l6.125 3.549c-3.132-1.818-7.451-1.553-12.237 1.2-6.251 3.624-11.732 10.62-14.763 18.122l-6.137-3.561c3.043-7.5 8.524-14.5 14.775-18.109 4.776-2.754 9.107-3.019 12.237-1.201z" class="Z g"/><path d="M507.508 142.333l-5.86-3.4c-3.157-1.793-5.051-5.683-5.051-11.214l6.125 3.561c-.051 5.371 1.78 9.198 4.786 11.053z" class="c"/><path d="M499.059 115.877l6.137 3.561c-1.588 3.752-2.445 7.772-2.526 11.845h0l-6.125-3.561a32.3 32.3 0 0 1 2.513-11.845z" class="f"/><path d="M517.786 119.944c-.584.005-1.158-.143-1.667-.429a4.1 4.1 0 0 1-1.806-3.788 10.76 10.76 0 0 1 4.95-8.549h0a3.69 3.69 0 0 1 5.948 3.448c-.162 3.482-2.003 6.669-4.938 8.549a5.05 5.05 0 0 1-2.487.769zm9.005.113c-1.692-.985-3.789-.808-6.087.467l-2.526 1.452a17.01 17.01 0 0 0-7.779 13.487v2.627c2.463 1.364 5.834 1.137 9.547-1.01 3.976-2.473 7.261-5.913 9.547-10v-1.264c.013-2.677-.998-4.761-2.702-5.759z" class="Z"/><g class="Y"><path d="M101.077 229.734c3.132-1.806 7.451-1.553 12.237 1.263 9.547 5.519 17.288 18.943 17.288 29.967 0 5.531-1.957 9.408-5.051 11.2l-6.1 3.536c-3.119 1.806-7.451 1.553-12.224-1.2-9.547-5.519-17.288-18.943-17.288-29.967 0-5.506 1.932-9.383 5.051-11.189"/><path d="M107.176 234.496c9.547 5.519 17.3 18.943 17.3 29.954s-7.754 15.495-17.3 9.989-17.3-18.943-17.288-29.967 7.754-15.457 17.288-9.976z"/></g><path d="M101.077 229.734l-6.125 3.549c3.132-1.806 7.451-1.553 12.224 1.263 6.251 3.612 11.732 10.608 14.775 18.109l6.125-3.561c-3.031-7.489-8.512-14.5-14.763-18.109-4.786-2.804-9.13-3.06-12.236-1.251z" class="Z g"/><path d="M119.64 275.512l5.86-3.41c3.144-1.793 5.051-5.67 5.051-11.2l-6.125 3.549c.038 5.378-1.806 9.192-4.786 11.061z" class="c"/><path d="M128.076 249.043l-6.125 3.561c1.587 3.752 2.444 7.772 2.526 11.845h0l6.125-3.549a32.09 32.09 0 0 0-2.526-11.858z" class="f"/><path d="M101.13 269.874a7.3 7.3 0 0 1-2.164-2.065 9.48 9.48 0 0 1-1.359-2.979 11.58 11.58 0 0 1-.353-3.597 11.81 11.81 0 0 1 .767-3.589 10.71 10.71 0 0 1 1.709-2.954 8.63 8.63 0 0 1 1.795-1.658c-.52-.632-.947-1.335-1.269-2.088a10.66 10.66 0 0 1-.828-3.31c-.107-1.226-.022-2.462.252-3.662.265-1.183.714-2.318 1.331-3.362a9.38 9.38 0 0 1 2.126-2.484 7.25 7.25 0 0 1 2.65-1.394 5.99 5.99 0 0 1 2.894-.086 6.2 6.2 0 0 1 2.629 1.278 7.88 7.88 0 0 1 1.925 2.366 10.01 10.01 0 0 1 1.064 3.133c.201 1.191.218 2.405.048 3.601l-.001.005c-.151 1.111-.461 2.195-.92 3.218a10.42 10.42 0 0 1-1.68 2.614 8.55 8.55 0 0 1-1.558 1.384 8.73 8.73 0 0 1 1.116 1.758 10.22 10.22 0 0 1 .894 2.98 11.86 11.86 0 0 1 .004 3.343l-.007.004a11.7 11.7 0 0 1-1.039 3.448 9.95 9.95 0 0 1-1.887 2.718c-.712.74-1.562 1.332-2.503 1.744a6.21 6.21 0 0 1-2.879.504q-.226-.014-.449-.045a6.03 6.03 0 0 1-2.311-.825zm2.866-14.4l-.134.043-.128.044a.94.94 0 0 0-.132.053 1.07 1.07 0 0 0-.136.053l-.047.015-.001.01c-.552.261-1.051.621-1.474 1.061-.442.464-.814.99-1.103 1.562-.306.598-.527 1.236-.657 1.895a7.62 7.62 0 0 0-.126 2.078 6.8 6.8 0 0 0 .438 1.966 5.63 5.63 0 0 0 .917 1.572c.362.436.805.798 1.303 1.067.49.263 1.031.415 1.587.444a3.98 3.98 0 0 0 1.638-.263c.541-.211 1.039-.517 1.472-.904a6.13 6.13 0 0 0 1.18-1.45c.346-.585.607-1.215.776-1.873a7.51 7.51 0 0 0 .247-2.05c-.01-.658-.11-1.311-.297-1.941-.177-.594-.446-1.157-.797-1.668-.336-.486-.759-.906-1.248-1.238a2.94 2.94 0 0 1-.409-.461l-.088-.143a2.1 2.1 0 0 1-.138-.254 2.5 2.5 0 0 1-.142-.424l-.026-.138c-.012-.059-.021-.118-.027-.177-.025-.186-.025-.375-.002-.561l.008-.059v-.005l.009-.061c.029-.186.082-.368.157-.541a2.35 2.35 0 0 1 .154-.31 2.03 2.03 0 0 1 .25-.343 2 2 0 0 1 .201-.21l.116-.105c.16-.132.335-.245.521-.338a4.69 4.69 0 0 0 1.541-.847 5.93 5.93 0 0 0 1.223-1.384c.358-.553.635-1.153.824-1.784a7.51 7.51 0 0 0 .328-2.038c.02-.681-.057-1.361-.229-2.02-.155-.605-.404-1.182-.736-1.71a4.77 4.77 0 0 0-1.166-1.275 3.91 3.91 0 0 0-1.502-.709c-.542-.122-1.104-.126-1.648-.01a4.44 4.44 0 0 0-1.547.671 5.59 5.59 0 0 0-1.321 1.257 6.81 6.81 0 0 0-.955 1.765c-.249.653-.401 1.34-.452 2.037a7.24 7.24 0 0 0 .109 2.003 6.36 6.36 0 0 0 .63 1.805c.284.541.665 1.025 1.125 1.427l-.002.015.042.027c.038.026.075.056.112.087a1.35 1.35 0 0 1 .111.082l.123.084.112.072a2.73 2.73 0 0 1 .407.461l.018.003c.083.12.156.247.217.38a2.59 2.59 0 0 1 .147.425l.033.173.024.153c.014.14.017.282.009.422-.002.01-.004.02-.004.031a.1.1 0 0 0-.003.023l-.009.063v.006l-.01.072v.005l-.01.071-.001.007-.009.062c-.002.008-.003.016-.003.025s-.004.018-.004.028a2.65 2.65 0 0 1-.125.401l-.034.08-.109.218a2.13 2.13 0 0 1-.259.368c-.094.112-.199.214-.314.305l-.018-.003c-.162.127-.339.236-.525.324z" class="Z"/><g class="Y"><path d="M428.467 11.807c-3.119-1.818-7.451-1.553-12.224 1.2-9.56 5.519-17.3 18.943-17.3 29.954 0 5.544 1.957 9.421 5.051 11.214l6.1 3.536c3.132 1.806 7.451 1.553 12.224-1.2 9.547-5.519 17.3-18.943 17.3-29.967 0-5.506-1.945-9.383-5.051-11.189"/><path d="M422.419 16.605c-9.547 5.519-17.288 18.943-17.288 29.954s7.688 15.496 17.288 9.99 17.3-18.943 17.3-29.967-7.805-15.495-17.3-9.977z"/></g><path d="M428.466 11.807l6.137 3.549c-3.132-1.806-7.463-1.553-12.237 1.263-6.251 3.612-11.732 10.608-14.775 18.109l-6.125-3.561c3.043-7.489 8.512-14.5 14.775-18.109 4.775-2.767 9.106-3.032 12.225-1.251z" class="Z g"/><path d="M409.916 57.622l-5.872-3.41c-3.144-1.793-5.051-5.67-5.051-11.2l6.137 3.549c-.051 5.378 1.793 9.192 4.786 11.061z" class="c"/><path d="M401.467 31.153l6.125 3.561a32.3 32.3 0 0 0-2.526 11.845h0l-6.137-3.548a32.09 32.09 0 0 1 2.538-11.858z" class="f"/><path d="M423.078 53.558a7.3 7.3 0 0 1-2.673-1.342 9.48 9.48 0 0 1-2.17-2.452 11.58 11.58 0 0 1-1.389-3.337 11.81 11.81 0 0 1-.316-3.657 10.71 10.71 0 0 1 .77-3.324 8.63 8.63 0 0 1 1.232-2.111c-.682-.453-1.296-1-1.824-1.626a10.66 10.66 0 0 1-1.76-2.924c-.461-1.141-.741-2.348-.83-3.575-.093-1.209.005-2.425.29-3.604a9.38 9.38 0 0 1 1.307-2.997 7.25 7.25 0 0 1 2.126-2.108 5.99 5.99 0 0 1 2.743-.928 6.2 6.2 0 0 1 2.888.454 7.88 7.88 0 0 1 2.533 1.7 10.01 10.01 0 0 1 1.934 2.685c.541 1.08.911 2.236 1.099 3.429l.001.005c.181 1.107.201 2.234.061 3.347a10.42 10.42 0 0 1-.843 2.991 8.55 8.55 0 0 1-1.085 1.779 8.73 8.73 0 0 1 1.581 1.355 10.22 10.22 0 0 1 1.726 2.589 11.86 11.86 0 0 1 .981 3.196l-.005.006a11.7 11.7 0 0 1 .015 3.601 9.95 9.95 0 0 1-1.01 3.151c-.464.916-1.104 1.731-1.884 2.399a6.21 6.21 0 0 1-2.606 1.324q-.22.053-.443.088a6.03 6.03 0 0 1-2.451-.113zm-1.469-14.609l-.116.08-.11.079a.94.94 0 0 0-.11.089 1.07 1.07 0 0 0-.114.09l-.041.028.002.01c-.451.411-.824.901-1.099 1.446-.287.573-.489 1.185-.598 1.816-.118.661-.143 1.336-.074 2.004a7.62 7.62 0 0 0 .487 2.024 6.8 6.8 0 0 0 .993 1.752 5.63 5.63 0 0 0 1.337 1.235c.474.311 1.003.528 1.558.639.545.108 1.108.095 1.647-.039a3.98 3.98 0 0 0 1.49-.73c.456-.36.843-.798 1.144-1.295a6.13 6.13 0 0 0 .705-1.732c.16-.66.226-1.34.195-2.018a7.51 7.51 0 0 0-.363-2.032c-.202-.626-.489-1.221-.851-1.77-.343-.516-.765-.976-1.249-1.362-.463-.367-.991-.644-1.555-.819a2.94 2.94 0 0 1-.526-.322l-.126-.111a2.1 2.1 0 0 1-.206-.202 2.5 2.5 0 0 1-.26-.364l-.065-.124c-.029-.053-.054-.107-.077-.162-.078-.171-.134-.351-.166-.536l-.009-.059-.001-.005-.01-.061c-.027-.187-.03-.376-.008-.564a2.35 2.35 0 0 1 .056-.341 2.03 2.03 0 0 1 .139-.401 2 2 0 0 1 .131-.26l.08-.134c.115-.173.249-.333.4-.475a4.69 4.69 0 0 0 1.226-1.26 5.93 5.93 0 0 0 .764-1.681c.18-.633.27-1.288.267-1.947a7.51 7.51 0 0 0-.282-2.045c-.18-.657-.453-1.284-.81-1.864-.325-.533-.731-1.012-1.204-1.42a4.77 4.77 0 0 0-1.488-.878 3.91 3.91 0 0 0-1.644-.239c-.554.042-1.093.203-1.579.472a4.44 4.44 0 0 0-1.284 1.094 5.59 5.59 0 0 0-.896 1.589 6.81 6.81 0 0 0-.397 1.967c-.047.698.008 1.398.163 2.08a7.24 7.24 0 0 0 .69 1.883 6.36 6.36 0 0 0 1.13 1.542c.43.434.936.785 1.493 1.035l.002.015.048.014c.044.013.088.032.133.051a1.35 1.35 0 0 1 .13.046l.142.044.128.036a2.73 2.73 0 0 1 .524.322l.018-.003c.115.091.221.191.319.3a2.59 2.59 0 0 1 .265.363l.082.156.068.139c.055.13.099.264.132.401.001.01.002.021.005.031a.1.1 0 0 0 .004.023l.01.063.001.006.011.072.001.005.011.071.001.007.01.062c0 .008.002.017.004.025s.002.019.004.028a2.65 2.65 0 0 1-.002.421l-.01.087-.041.24a2.13 2.13 0 0 1-.14.427c-.057.135-.128.263-.211.384l-.018.003c-.118.169-.255.325-.408.463z" class="Z"/><g class="Y"><path d="M378.711 310.455c-3.119-1.819-7.451-1.553-12.224 1.2-9.56 5.519-17.3 18.943-17.3 29.954 0 5.544 1.957 9.421 5.051 11.214l6.1 3.536c3.132 1.806 7.451 1.553 12.224-1.263 9.547-5.506 17.3-18.943 17.3-29.954 0-5.506-1.945-9.383-5.051-11.189"/><path d="M372.611 315.216c-9.547 5.506-17.288 18.943-17.288 29.954s7.741 15.495 17.288 9.976 17.3-18.943 17.3-29.954-7.753-15.495-17.3-9.976z"/></g><path d="M378.711 310.455l6.137 3.549c-3.132-1.806-7.463-1.553-12.237 1.2-6.251 3.624-11.732 10.62-14.775 18.122l-6.137-3.562c3.043-7.5 8.511-14.5 14.775-18.109 4.786-2.753 9.118-3.018 12.237-1.2z" class="Z g"/><path d="M360.16 356.22l-5.872-3.448c-3.144-1.793-5.051-5.67-5.051-11.214l6.137 3.561c-.051 5.43 1.793 9.244 4.786 11.101z" class="c"/><path d="M351.699 329.763l6.125 3.561c-1.582 3.753-2.44 7.773-2.526 11.845h0l-6.125-3.561c.082-4.073.939-8.093 2.526-11.845z" class="f"/><path d="M368.595 334.146l3.069-7.375c.134-1.597.134-3.203 0-4.8 0-.619 2.526-2.336 3.372-.568a9.36 9.36 0 0 1 .429 5.961l6.213-3.624c1.263-.77 1.856.316 1.856 1.162a4.71 4.71 0 0 1-1 2.677s1.263-.379 1.263 1.263a4.37 4.37 0 0 1-1.5 3.043s.4.316.417 1.478a4.95 4.95 0 0 1-1.743 3.107 3.79 3.79 0 0 1 .278 1.465c-.159 1.481-.999 2.802-2.273 3.574l-10.279 6zm-5.897 18.664l4.483-2.614-.063-15.571-4.483 2.6z" class="Z"/><path d="M164.395 150.605l2.854-.227c3.788-.3 8.246-1.781 8.246-7.16a12.63 12.63 0 0 0-5.708-9.888c-2.463-1.414-4.559-.833-5.367 1.263a12.63 12.63 0 0 0-5.354-7.4c-3.157-1.819-5.708-.341-5.708 3.3 0 5.279 4.458 11.946 8.2 16.619z" class="i"/><g class="Y"><path d="M230.871 306.729c3.132-1.806 7.451-1.553 12.237 1.263 9.547 5.519 17.288 18.943 17.288 29.954 0 5.531-1.957 9.408-5.051 11.214l-6.1 3.536c-3.119 1.806-7.451 1.541-12.224-1.263-9.547-5.519-17.288-18.943-17.288-29.954 0-5.519 1.932-9.383 5.051-11.189"/><path d="M236.97 311.49c9.56 5.519 17.3 18.943 17.3 29.954s-7.754 15.508-17.3 9.989-17.3-18.943-17.288-29.954 7.754-15.432 17.288-9.989z"/></g><path d="M230.871 306.73l-6.125 3.561c3.132-1.818 7.451-1.553 12.224 1.2 6.251 3.612 11.732 10.62 14.775 18.109l6.125-3.549c-3.031-7.5-8.461-14.5-14.775-18.109-4.774-2.765-9.092-3.018-12.224-1.212z" class="Z g"/><path d="M249.409 352.507l5.86-3.4c3.144-1.806 5.051-5.683 5.051-11.214l-6.049 3.511c-.013 5.42-1.856 9.247-4.862 11.103z" class="c"/><path d="M257.87 326.051l-6.125 3.549c1.587 3.752 2.444 7.772 2.526 11.845h0l6.125-3.561c-.084-4.069-.941-8.085-2.526-11.833z" class="f"/><path d="M231.527 320.482v16.758c0 1.263.493 2.172 1.111 2.058l11.605-2.235c.606-.126.354-1.263-.594-2.526l-10.418-14.043c-.944-1.25-1.704-1.262-1.704-.012z" class="Z"/><g class="Y"><path d="M90.722 87.805c3.132-1.818 7.451-1.553 12.237 1.2 9.547 5.519 17.288 18.942 17.288 29.954 0 5.544-1.945 9.421-5.051 11.214l-6.087 3.536c-3.132 1.806-7.451 1.553-12.237-1.263-9.547-5.506-17.288-18.942-17.288-29.954 0-5.506 1.932-9.383 5.051-11.189"/><path d="M96.834 92.631c9.547 5.519 17.288 18.943 17.288 29.954s-7.741 15.495-17.3 9.976-17.3-18.943-17.288-29.954 7.753-15.56 17.3-9.976z"/></g><path d="M90.722 87.805l-6.125 3.561c3.132-1.806 7.451-1.553 12.224 1.263 6.314 3.612 11.744 10.608 14.775 18.109l6.125-3.561c-3.031-7.564-8.486-14.548-14.8-18.172-4.749-2.69-9.067-3.017-12.199-1.2z" class="Z g"/><path d="M109.235 133.57l5.86-3.4c3.157-1.793 5.051-5.67 5.051-11.214l-6.125 3.561c.101 5.383-1.743 9.26-4.786 11.053z" class="c"/><path d="M117.721 107.113l-6.125 3.561c1.588 3.752 2.447 7.772 2.53 11.846h0l6.125-3.561c-.083-4.074-.942-8.094-2.53-11.846z" class="f"/><path d="M92.818 97.743v17.175c-.342-.335-.724-.628-1.137-.871-1.263-.758-2.362.265-2.362 2.273a6.2 6.2 0 0 0 2.362 4.988c1.263.758 2.867 0 2.867-2v-15.743l7.577 4.445v12.325a6.49 6.49 0 0 0-1.137-.871c-1.263-.758-1.932.492-1.932 2.526-.053 1.962.823 3.834 2.362 5.051 1.263.758 2.361-.265 2.361-2.273h0v-20.585z" class="Z"/><g class="Y"><path d="M518.229 237.021c-3.132-1.806-7.463-1.553-12.237 1.263-9.547 5.519-17.288 18.943-17.288 29.954 0 5.531 1.945 9.408 5.051 11.214l6.087 3.536c3.132 1.806 7.451 1.541 12.224-1.263 9.56-5.519 17.3-18.943 17.3-29.954 0-5.519-1.932-9.383-5.051-11.189"/><path d="M512.081 241.782c-9.547 5.519-17.288 18.943-17.288 29.954s7.741 15.508 17.288 9.989 17.313-18.943 17.3-29.954-7.717-15.495-17.3-9.989z"/></g><path d="M518.229 237.021l6.125 3.561c-3.132-1.818-7.451-1.553-12.237 1.263-6.251 3.612-11.732 10.62-14.763 18.109l-6.137-3.549c3.043-7.5 8.524-14.5 14.775-18.109 4.824-2.828 9.105-3.081 12.237-1.275z" class="Z g"/><path d="M499.666 282.798l-5.86-3.4c-3.157-1.806-5.051-5.683-5.051-11.214l6.125 3.561c-.055 5.37 1.793 9.197 4.786 11.053z" class="c"/><path d="M491.214 256.342l6.137 3.549c-1.587 3.752-2.444 7.772-2.526 11.845h0l-6.125-3.574a32.3 32.3 0 0 1 2.514-11.82z" class="f"/><g class="Z"><path d="M503.479 255.887v21.721c0 .657.455.922 1.023.594l15.242-8.84a2.26 2.26 0 0 0 1.023-1.768v-21.7c0-.644-.455-.909-1.023-.594l-15.242 8.84a2.22 2.22 0 0 0-1.023 1.743zm15.31 12.629l-13.323 7.7c-.205.162-.488.182-.713.051s-.348-.387-.31-.645v-18.826a2.25 2.25 0 0 1 1.023-1.768l13.323-7.691c.568-.328 1.023-.063 1.023.581v18.779c-.034.72-.415 1.379-1.023 1.768z"/><path d="M504.439 276.749v-6.112l4.849-9.307 5.039 5.531-1.086-2.677 2-3.675 4.571 3.132v4.243zm11.554-23.817c.606-.354 1.111.126 1.111 1.073.012.913-.398 1.78-1.111 2.349-.619.354-1.111-.126-1.111-1.073a2.9 2.9 0 0 1 1.111-2.349z"/></g><use xlink:href="#B" class="Y"/><use xlink:href="#B" class="c"/><path d="M242.009 6.163c-.102-1.774-1.039-3.395-2.526-4.369L237.425.607a5.57 5.57 0 0 0-5.051 0l-47.6 27.5c-1.493.968-2.432 2.592-2.526 4.369v24.617a5.57 5.57 0 0 0 2.526 4.382l2.058 1.187a5.62 5.62 0 0 0 5.051 0l10.1-5.86 3.612 6.314a.53.53 0 0 0 .972-.088l3.789-11.025 29.052-16.783c1.486-.974 2.423-2.596 2.524-4.37z" class="Y"/><path d="M182.252 57.092a5.57 5.57 0 0 0 2.526 4.382l2.058 1.187c1.439.715 3.113.788 4.609.2-1.187.442-2.1-.227-2.1-1.667v-24.61a5.15 5.15 0 0 1 .745-2.526l-7.1-4.1a5.05 5.05 0 0 0-.745 2.526z" class="c"/><g class="Z"><path d="M241.921 5.492c-.29-1.073-1.263-1.414-2.437-.745l-47.605 27.517a4.94 4.94 0 0 0-1.818 1.831l-7.1-4.1a5.23 5.23 0 0 1 1.781-1.882l47.6-27.5c1.59-.795 3.461-.795 5.051 0l2.058 1.187c1.302.833 2.197 2.171 2.47 3.692z" class="c"/><use xlink:href="#C"/><path d="M215.679 29.79c-1.988 1.298-3.24 3.464-3.372 5.834 0 2.147 1.515 3.018 3.372 1.945 2.007-1.287 3.279-3.454 3.422-5.834 0-2.147-1.566-3.019-3.422-1.945z"/><use xlink:href="#C" x="24.84" y="-14.371"/></g><path d="M437.092 147.195l21.86-12.628c.461-.342.736-.878.745-1.452v-19.65c0-.556-.328-.808-.745-.568l-21.86 12.631c-.467.333-.748.867-.758 1.44v19.675c-.025.54.341.792.758.552z" class="i"/><path d="M436.309 146.627v-.391l9.042-14.977-8.916-4.938a.63.63 0 0 1 .063-.164l11.113 4.635c.227.1.53-.076.77-.455l11.1-17.427c.021-.004.042-.004.063 0l-8.9 15.23 9.029 4.546v.379a2.01 2.01 0 0 1-.227.9l-9.257-5.051-1.263 2.248c-.53.884-1.263 1.263-1.755 1.01l-1.263-.732-9.244 15.71c-.194-.106-.325-.299-.354-.518z" class="Z"/><g class="Y"><path d="M188.794 227.587c.683.702 1.292 1.473 1.818 2.3.533.843 1.001 1.725 1.4 2.639a17.83 17.83 0 0 1 .909 2.652 10.91 10.91 0 0 1 .366 2.349c.015.189-.039.378-.152.53a.24.24 0 0 1-.328.076l-2.917-1.692c-.202-.11-.375-.266-.505-.455-.15-.22-.281-.453-.392-.695l-.215-.518a5.41 5.41 0 0 0-.4-.821 6.01 6.01 0 0 0-.682-.9 3.79 3.79 0 0 0-.972-.783 4.69 4.69 0 0 0-.821-.379 1.39 1.39 0 0 0-.695-.076.68.68 0 0 0-.492.328c-.146.271-.211.577-.189.884-.001.381.072.758.215 1.111a4.66 4.66 0 0 0 .72 1.149c.386.502.808.974 1.263 1.414l2.058 1.945a20.21 20.21 0 0 1 2.134 2.349 12.7 12.7 0 0 1 1.528 2.526 13 13 0 0 1 .922 2.9 17.83 17.83 0 0 1 .3 3.41 10.42 10.42 0 0 1-.354 2.854 4.85 4.85 0 0 1-1.01 1.882 2.84 2.84 0 0 1-1.566.884 4.27 4.27 0 0 1-2.008-.126v2.816a1.01 1.01 0 0 1-.177.644.29.29 0 0 1-.429.076l-2.917-1.692c-.198-.135-.348-.33-.429-.556-.114-.272-.174-.564-.177-.859v-2.942c-.707-.707-1.334-1.491-1.869-2.336a19.4 19.4 0 0 1-1.478-2.7c-.398-.9-.715-1.834-.947-2.791-.21-.865-.328-1.749-.354-2.639a.86.86 0 0 1 .139-.53c.074-.105.215-.138.328-.076l2.93 1.692a1.79 1.79 0 0 1 .492.417 5.4 5.4 0 0 1 .354.631 4.07 4.07 0 0 0 .265.669c.136.348.296.685.48 1.01a6.5 6.5 0 0 0 .758 1.086 4.08 4.08 0 0 0 1.124.935c.594.39 1.275.624 1.983.682.53 0 .8-.392.8-1.187a2.59 2.59 0 0 0-.29-1.162c-.247-.449-.539-.873-.871-1.263-.391-.442-.884-.947-1.49-1.515l-2.134-2.021c-1.458-1.358-2.605-3.017-3.359-4.862-.737-1.934-1.098-3.992-1.061-6.062a10.18 10.18 0 0 1 .29-2.526c.166-.673.453-1.311.846-1.882.331-.485.796-.863 1.339-1.086.568-.23 1.188-.299 1.793-.2v-2.93a1.05 1.05 0 0 1 .177-.657c.1-.136.289-.169.429-.076l2.917 1.692c.198.14.348.339.429.568a2.21 2.21 0 0 1 .177.846z"/><use xlink:href="#D"/></g><use xlink:href="#D" class="c"/><path d="M326.692 30.447c0-7.186-4.736-10.279-10.57-6.908s-10.58 11.934-10.58 19.119V44.3c0 5.531 6.314 11.946 9.156 14.611a1.43 1.43 0 0 0 2.248-.417c2.526-5.051 9.749-20.458 9.749-26.406zm-10.57 11.366c-2.93 1.692-5.291.328-5.291-3.043.198-3.722 2.165-7.126 5.291-9.156 2.917-1.692 5.279-.328 5.279 3.043a11.67 11.67 0 0 1-5.279 9.193zm117.904 216.439a7.3 7.3 0 0 1-2.865-.858 9.48 9.48 0 0 1-2.563-2.038 11.58 11.58 0 0 1-1.947-3.045 11.81 11.81 0 0 1-.946-3.546 10.71 10.71 0 0 1 .181-3.408 8.63 8.63 0 0 1 .847-2.293c-.75-.327-1.45-.76-2.078-1.284a10.66 10.66 0 0 1-2.241-2.574c-.652-1.044-1.137-2.183-1.438-3.377-.301-1.175-.416-2.389-.34-3.599a9.38 9.38 0 0 1 .767-3.179 7.25 7.25 0 0 1 1.728-2.445 5.99 5.99 0 0 1 2.54-1.391 6.2 6.2 0 0 1 2.922-.054 7.88 7.88 0 0 1 2.79 1.234 10.01 10.01 0 0 1 2.371 2.308c.72.969 1.286 2.044 1.678 3.186l.002.005a11.7 11.7 0 0 1 .641 3.285 10.42 10.42 0 0 1-.31 3.091 8.55 8.55 0 0 1-.76 1.94 8.73 8.73 0 0 1 1.793 1.06 10.22 10.22 0 0 1 2.15 2.25 11.86 11.86 0 0 1 1.521 2.977l-.004.007a11.7 11.7 0 0 1 .64 3.544 9.95 9.95 0 0 1-.447 3.278c-.298.982-.787 1.896-1.439 2.69a6.21 6.21 0 0 1-2.336 1.756q-.208.091-.421.164a6.03 6.03 0 0 1-2.433.314zm-3.984-14.132l-.1.099-.095.097a.94.94 0 0 0-.093.107 1.07 1.07 0 0 0-.097.108l-.036.035.003.009a5.02 5.02 0 0 0-.832 1.615c-.184.614-.276 1.251-.274 1.892a7.22 7.22 0 0 0 .275 1.987 7.62 7.62 0 0 0 .831 1.909 6.8 6.8 0 0 0 1.283 1.553 5.63 5.63 0 0 0 1.531.984c.52.224 1.079.346 1.645.359a3.77 3.77 0 0 0 1.615-.325 3.98 3.98 0 0 0 1.341-.978c.386-.433.691-.933.901-1.474a6.13 6.13 0 0 0 .393-1.828c.043-.678-.01-1.359-.159-2.021a7.51 7.51 0 0 0-.711-1.938 7.24 7.24 0 0 0-1.146-1.595 5.93 5.93 0 0 0-1.467-1.125c-.52-.281-1.087-.463-1.674-.536a2.94 2.94 0 0 1-.574-.226l-.143-.087a2.1 2.1 0 0 1-.238-.163 2.5 2.5 0 0 1-.319-.313l-.086-.111c-.037-.047-.072-.096-.104-.146a2.14 2.14 0 0 1-.256-.499l-.02-.057-.002-.005-.02-.059c-.059-.179-.094-.365-.106-.554a2.35 2.35 0 0 1-.004-.346 2.03 2.03 0 0 1 .067-.419 2 2 0 0 1 .084-.278l.055-.146c.083-.19.187-.371.311-.538a4.69 4.69 0 0 0 .988-1.454 5.93 5.93 0 0 0 .461-1.788 6.98 6.98 0 0 0-.075-1.963 7.51 7.51 0 0 0-.633-1.965c-.291-.616-.669-1.186-1.121-1.695-.413-.468-.896-.87-1.432-1.189a4.77 4.77 0 0 0-1.618-.606 3.91 3.91 0 0 0-1.66.05 3.85 3.85 0 0 0-1.473.739 4.44 4.44 0 0 0-1.074 1.301 5.59 5.59 0 0 0-.606 1.72 6.81 6.81 0 0 0-.049 2.006 7.2 7.2 0 0 0 .522 2.02 7.24 7.24 0 0 0 1.007 1.735 6.36 6.36 0 0 0 1.381 1.323 4.94 4.94 0 0 0 1.65.76l.005.014.049.005c.045.006.092.016.139.027a1.35 1.35 0 0 1 .136.023l.147.019.133.014a2.73 2.73 0 0 1 .572.226l.017-.006a2.62 2.62 0 0 1 .366.24 2.59 2.59 0 0 1 .324.311l.108.139.091.125c.076.119.143.243.2.372.002.01.006.02.01.029a.1.1 0 0 0 .007.022l.021.061.002.006.024.069.002.005.023.068.002.007.021.06c.002.008.005.016.008.024s.005.018.009.026a2.65 2.65 0 0 1 .071.415l.006.087.001.244a2.13 2.13 0 0 1-.064.445c-.033.142-.08.281-.141.414l-.017.006a2.73 2.73 0 0 1-.321.527z" class="Y"/><path d="M511.081 104.713a.48.48 0 0 1-.3-.114l-78.055-63.508a.471.471 0 1 1 .594-.732l78.068 63.521c.157.125.217.336.149.524a.47.47 0 0 1-.449.309zm-1.326 134.871h0a.48.48 0 0 1-.442-.493l4.559-98.855c.003-.172.099-.329.25-.41s.335-.074.48.019.228.257.217.428l-4.6 98.842c0 .258-.209.467-.467.467zm-7.021 6.058a.44.44 0 0 1-.417-.253l-51.688-97.234a.48.48 0 0 1 .2-.631c.227-.121.508-.037.631.189l51.675 97.238c.062.108.076.237.041.356s-.119.219-.23.275c-.065.037-.138.057-.212.06zM463.32 123.378c-.224.003-.418-.158-.455-.379a.48.48 0 0 1 .366-.556l38.744-7.678c.121-.026.247-.001.349.068a.46.46 0 0 1 .194.298.48.48 0 0 1-.366.556l-38.693 7.678zm-19.927-7.036c-.186.001-.354-.108-.429-.278l-25.357-58.265a.47.47 0 0 1 .485-.657c.168.021.311.133.374.291l25.421 58.255c.054.113.06.244.014.361a.46.46 0 0 1-.254.258.5.5 0 0 1-.254.035zM326.922 39.854a.48.48 0 0 1-.467-.391.45.45 0 0 1 .077-.357c.075-.103.188-.171.314-.186l82.943-13.575c.258-.042.502.133.543.392s-.133.502-.391.543l-82.943 13.561zm110.409 80.342a.52.52 0 0 1-.253-.076L325.861 48.757a.47.47 0 0 1-.133-.65.47.47 0 0 1 .65-.133l111.193 71.363a.47.47 0 0 1 .193.53c-.061.2-.249.334-.458.329zm-.442 103.969h0a.48.48 0 0 1-.417-.53l8.524-75.77c.012-.127.076-.243.176-.322s.228-.113.354-.095.234.076.31.174.108.222.09.344l-8.524 75.77a.47.47 0 0 1-.168.325c-.098.081-.224.119-.35.104zm-50.816 108.262c-.214-.001-.401-.144-.457-.351s.033-.425.217-.533l106.078-61.756c.145-.092.328-.097.478-.013s.241.242.239.414-.098.328-.25.407L386.3 332.364a.57.57 0 0 1-.227.063zm108.111-73.9h-.139l-49.768-14.485a.48.48 0 0 1-.316-.581c.032-.121.112-.224.222-.286s.239-.077.359-.042l49.768 14.485a.46.46 0 0 1 .341.511.46.46 0 0 1-.467.398zM384.848 314.47a.49.49 0 0 1-.29-.088.48.48 0 0 1-.088-.657l37.62-50.513c.073-.101.184-.168.308-.187s.249.013.349.087a.48.48 0 0 1 .1.669l-37.62 50.51a.48.48 0 0 1-.379.177zm-146.173-4.862a.44.44 0 0 1-.366-.189l-41.484-53.127a.47.47 0 0 1 .076-.657c.203-.161.496-.127.656.076l41.5 53.127a.48.48 0 0 1-.379.77zM126.27 257.806a.48.48 0 0 1-.429-.29c-.05-.117-.049-.249.001-.366s.145-.208.264-.253l45.007-17.92a.48.48 0 0 1 .354.884l-44.984 17.923zm56.866-43.105c-.217.005-.407-.143-.455-.354l-13.752-56.411c-.031-.121-.012-.248.052-.355s.168-.183.289-.213a.48.48 0 0 1 .568.354l13.752 56.4c.031.121.012.248-.052.355s-.168.183-.289.213zm-69.898 20.917a.44.44 0 0 1-.215 0 .47.47 0 0 1-.2-.631l42.936-85.607a.48.48 0 0 1 .631-.215c.232.123.326.406.215.644l-42.951 85.519a.44.44 0 0 1-.416.29zm-6.067-3.018c-.244.001-.447-.186-.467-.429l-9.787-102.29c-.014-.126.023-.252.104-.35a.47.47 0 0 1 .325-.168c.127-.01.25.024.345.105a.46.46 0 0 1 .16.324l9.787 102.29a.47.47 0 0 1-.417.518zm120.643 98.703a.43.43 0 0 1-.24-.063l-103.337-59.656a.47.47 0 0 1 .467-.821l103.35 59.669c.184.106.272.323.216.528s-.244.346-.456.343zm-59.567-203.227a.5.5 0 0 1-.189 0 .48.48 0 0 1-.24-.619l27.517-62.876a.47.47 0 0 1 .619-.24c.114.051.209.14.254.258s.04.248-.014.361l-27.5 62.876a.48.48 0 0 1-.442.24zM299.331 39.26h-.114l-52.22-12.881a.48.48 0 0 1-.354-.568c.068-.254.324-.41.581-.354l52.218 12.868c.239.052.399.277.369.519s-.239.423-.483.416zM107.973 99.624c-.15.003-.291-.067-.379-.189a.48.48 0 0 1 .1-.669l70.2-50.7a.49.49 0 0 1 .669.1.48.48 0 0 1-.114.669l-70.15 50.7c-.094.071-.211.102-.328.088zm41.935 29.626c-.062.017-.127.017-.189 0l-32.681-15.393c-.216-.118-.304-.383-.201-.606a.47.47 0 0 1 .592-.24l32.679 15.292a.47.47 0 0 1 .247.267c.043.118.036.25-.02.364a.48.48 0 0 1-.429.316zm26.371 6.137c-.154-.004-.298-.077-.391-.2a.47.47 0 0 1 .114-.657l118.705-84.775a.471.471 0 1 1 .543.77l-118.706 84.774c-.076.059-.169.09-.265.088zm177.239 195.701h0l-97.453-.063c-.167.008-.326-.077-.412-.221s-.086-.323 0-.467.244-.229.412-.221h0l97.453.076c.177-.026.353.053.45.203s.097.343 0 .493-.273.23-.45.203z" opacity=".8" class="Y"/><use xlink:href="#E" class="Y"/><use xlink:href="#E" class="f"/><path d="M68.356 445.241h0c.114-.047.17-.176.126-.291-4.58-11.268-13.28-15.978-17.25-16.888-.06-.015-.124-.005-.177.029s-.089.087-.101.148a.24.24 0 0 0 .189.3c3.877.884 12.414 5.506 16.922 16.594.053.107.181.154.291.108z" class="Z"/><path d="M45.208 445.363a3.79 3.79 0 0 0 2.248 1.7 4.47 4.47 0 0 1 2.423 1.596c.985 1.692-.631 4.066.429 5.708a2.94 2.94 0 0 0 2.058 1.2c.674.097 1.353.156 2.033.177a6.03 6.03 0 0 0 .96-.076c.941-.205 1.924-.1 2.8.3 1.339.758 1.755 2.45 2.526 3.789 1.018 1.568 2.678 2.604 4.534 2.829.778.163 1.586.111 2.336-.152l.126-.076h0l.24-.278h0a9.27 9.27 0 0 0-.164-2.69v-.164l.1-3.144v-5.8c.128-1.276-.005-2.566-.391-3.789-.581-1.263-2.046-1.326-2.6-2.6-.227-.518-.341-1.061-.556-1.579-.67-1.522-2.129-2.548-3.788-2.665-2.526-.139-4.849 1.932-7.4 1.743-.657-.069-1.308-.192-1.945-.366a5.53 5.53 0 0 0-5.62 1.945 2.64 2.64 0 0 0-.354 2.387z" class="Y"/><g class="Z"><path d="M68.141 457.979h0c.059-.015.109-.053.14-.105s.039-.115.024-.173c-3.536-13.235-17.478-15.154-20.736-14.9-.113.008-.2.101-.2.214s.088.207.2.214c3.195-.227 16.834 1.642 20.281 14.586.015.062.054.114.109.145s.121.038.181.019z"/><path d="M52.646 451.273a.2.2 0 0 0 .114-.063c2.613-2.257 6.093-3.237 9.5-2.677a.2.2 0 0 0 .24-.177c.011-.057-.002-.116-.035-.164s-.085-.08-.142-.089a12.05 12.05 0 0 0-9.913 2.8.2.2 0 0 0 0 .3c.059.07.155.095.24.063z"/></g><use xlink:href="#F" class="Y"/><use xlink:href="#F" opacity=".15"/><path d="M328.866 481.505h0c-.139-.063-.201-.227-.139-.366 6.024-13.563 16.821-18.943 21.7-19.9.072-.019.149-.006.212.035s.105.106.116.18a.29.29 0 0 1-.215.341c-4.773.934-15.369 6.226-21.3 19.574-.031.068-.088.121-.158.147s-.148.022-.216-.011z" class="Z"/><path d="M328.677 492.947a11.73 11.73 0 0 0 .328-4.028 24.42 24.42 0 0 1-.594-4.357c.238-1.238.961-2.329 2.008-3.031a12.21 12.21 0 0 0 2.917-2.008 13.4 13.4 0 0 0 1.263-3.4c.509-1.249 1.482-2.253 2.715-2.8a5.28 5.28 0 0 1 3.9-.114c1.137.533 2.202 1.208 3.17 2.008a6 6 0 0 0 3.523 1.263c1.405-.041 2.81.026 4.205.2 2.361.379 5.228 1.642 5.645 4.268a3.12 3.12 0 0 1-.227 1.919v.076c-.947 1.591-3.157 1.6-4.672 2.21-.417.177-1.1.391-1.263.833-.077.54-.003 1.091.215 1.591.758 2.639.909 6.062-2.753 6.6-1.381.041-2.757-.164-4.066-.606a4.14 4.14 0 0 0-3.89.707c-.499.66-.895 1.393-1.174 2.172-.856 1.575-2.271 2.773-3.965 3.359-1.687.561-3.471.767-5.241.606-3.938-.296-2.713-4.943-2.044-7.468z" class="Y"/><g class="Z"><path d="M328.626 497.051h0c-.141-.048-.219-.198-.177-.341 4.824-16 21.91-17.781 25.875-17.364.147.02.253.152.24.3-.006.069-.041.133-.096.176s-.125.061-.194.051c-3.877-.4-20.6 1.339-25.257 17-.017.083-.073.153-.15.188s-.167.031-.241-.011z"/><path d="M347.784 489.487a.3.3 0 0 1-.139-.076c-3.088-2.863-7.293-4.197-11.466-3.637-.095 0-.182-.051-.229-.132s-.047-.183 0-.265.135-.133.229-.132a14.7 14.7 0 0 1 11.921 3.788c.099.107.099.272 0 .379a.24.24 0 0 1-.316.076z"/></g><g class="Y"><use xlink:href="#G"/><use xlink:href="#G"/></g><use xlink:href="#G" x="0.001" opacity=".15"/><path d="M283.505 487.895c-.118-.006-.22-.086-.253-.2-2.917-11.2-10.1-22.933-16.682-27.29-.063-.041-.106-.106-.12-.179s.002-.15.044-.212.101-.106.173-.12.146.002.206.044c6.693 4.42 13.967 16.291 16.922 27.618.019.072.009.148-.029.212s-.099.11-.171.129z" class="Z"/><path d="M284.376 497.745a16.7 16.7 0 0 1-7.577 3.953c-4.887 1.149-7.249-1.061-7.249-1.061s1.6-4.786 4.319-6.314a27.67 27.67 0 0 0-8.322 4.167c0 0-3.018.265-4.571-4.256 0 0 1.591-2.9 7.489-4.849a19.7 19.7 0 0 0-8.84 1.086c-.391.177-2.526-5.658-3.233-8.373s.4-2.766 2.526-3.5 9.383-1.629 10.81-.556 2.412 5.051 2.412 5.051a9.95 9.95 0 0 0 .442-5.342c1.921-.364 3.9-.282 5.784.24.568.164 1.515 4.167.467 7.5a13.27 13.27 0 0 0 2.45-6.377c2.535 1.269 4.343 3.636 4.9 6.415.554 2.682 1.11 8.402-1.807 12.216z" class="Y"/><path d="M284.389 497.998c-.105.011-.206-.044-.253-.139-4.609-8.006-20.205-16.543-25.572-17.187-.111.008-.216-.052-.267-.152s-.037-.22.035-.305.188-.119.295-.086c5.481.644 21.3 9.32 25.989 17.452.077.132.032.302-.1.379-.037.026-.081.039-.126.038z" class="Z"/><use xlink:href="#H" class="Y"/><use xlink:href="#H" class="f"/><path d="M556.037 442.155h0c-.057-.023-.102-.067-.126-.124s-.024-.12 0-.176c4.571-11.264 13.272-15.962 17.238-16.871.059-.019.123-.012.176.019s.09.084.102.145.005.124-.029.177-.087.089-.148.101c-3.877.9-12.414 5.519-16.922 16.606-.02.057-.062.103-.117.127s-.118.024-.173-.001z" class="Z"/><path d="M579.197 442.294a3.89 3.89 0 0 1-2.26 1.7 4.33 4.33 0 0 0-2.362 1.591c-.972 1.68.631 4.066-.417 5.708-.49.685-1.238 1.141-2.071 1.263a18.14 18.14 0 0 1-2.033.177c-.322 0-.643-.025-.96-.076a4.37 4.37 0 0 0-2.8.3c-1.339.758-1.755 2.45-2.526 3.789a6.43 6.43 0 0 1-4.521 2.841 4.52 4.52 0 0 1-2.349-.151l-.126-.088h0l-.227-.29h0a9.71 9.71 0 0 1 .164-2.69v-.164l-.1-3.157v-5.8a9.5 9.5 0 0 1 .391-3.789c.594-1.263 2.046-1.326 2.6-2.6.227-.505.341-1.048.556-1.566a4.52 4.52 0 0 1 3.789-2.677c2.526-.126 4.849 1.945 7.4 1.755a17.82 17.82 0 0 0 1.957-.379c2.094-.494 4.285.269 5.62 1.957a2.7 2.7 0 0 1 .278 2.336z" class="Y"/><g class="Z"><path d="M556.277 454.91h0c-.055-.015-.103-.051-.131-.101s-.036-.109-.021-.164c3.523-13.234 17.465-15.154 20.723-14.914.122.007.215.111.208.234s-.111.215-.234.208c-3.195-.24-16.833 1.642-20.281 14.586-.036.111-.151.176-.265.151z"/><path d="M571.746 448.192c-.037.012-.077.012-.114 0a11.57 11.57 0 0 0-9.5-2.677c-.057.007-.114-.009-.159-.044s-.074-.088-.081-.145a.2.2 0 0 1 .177-.24 12.01 12.01 0 0 1 9.863 2.791c.085.088.085.228 0 .316-.06.029-.129.029-.189 0z"/></g><path d="M412.921 415.724a3.65 3.65 0 0 0 1.692 2.816l47.584 27.467a3.79 3.79 0 0 0 3.384 0l65.1-37.582a3.2 3.2 0 0 0 0-5.645l-47.571-27.467a3.79 3.79 0 0 0-3.4 0l-65.1 37.582a3.65 3.65 0 0 0-1.689 2.829z" class="d"/><path d="M463.889 442.736v3.673a3.5 3.5 0 0 1-1.692-.4l-47.584-27.467a3.18 3.18 0 0 1-.164-5.531c-.77.543-.707 1.351.164 1.856l47.584 27.467a3.5 3.5 0 0 0 1.692.4z" class="a"/><path d="M411.33 412.959a3.61 3.61 0 0 1-1.591-2.879v-56.765a3.79 3.79 0 0 1 1.692-2.942l65.1-37.582a3.18 3.18 0 0 1 4.875 2.816v56.764a3.79 3.79 0 0 1-1.692 2.942l-65.1 37.582c-1.022.545-2.242.568-3.284.064z" class="b"/><path d="M414.424 412.997a3.17 3.17 0 0 1-4.685-2.917v-56.828a3.51 3.51 0 0 1 .493-1.667l3.182 1.831h0c-.303.505-.472 1.079-.492 1.667v56.828c-.001 1.014.656 1.477 1.502 1.086z" class="a"/><path d="M412.921 355.147v56.828c0 1.073.758 1.515 1.692.972l65.1-37.582a3.79 3.79 0 0 0 1.692-2.942v-56.816c0-1.086-.758-1.515-1.692-.985l-65.1 37.582a3.79 3.79 0 0 0-1.692 2.943z" class="d"/><path d="M414.614 414.866l47.584 27.454a3.79 3.79 0 0 0 3.384 0l65.1-37.569a1.05 1.05 0 0 0 0-1.97l-47.572-27.467a3.79 3.79 0 0 0-3.4 0l-65.1 37.582a1.05 1.05 0 0 0 0 1.97z" class="b"/><path d="M415.535 355.361l62.75-36.231c.205-.162.488-.182.713-.051s.348.387.31.645v49.137a2.25 2.25 0 0 1-1.023 1.768l-62.75 36.231c-.205.162-.488.182-.713.051s-.348-.387-.31-.645v-49.137a2.25 2.25 0 0 1 1.023-1.768z" class="Y"/><g class="Z"><path d="M456.085 345.915l-.164-.139h0c-2.4-1.806-5.594-1.717-8.991.24-3.708 2.372-6.712 5.695-8.7 9.623l-.2.366-.1.189a31.28 31.28 0 0 0-3.725 14.169c0 4.534 1.263 8.044 3.725 9.863s5.607 1.73 9-.227c3.885-2.499 7.005-6.02 9.017-10.178a31.28 31.28 0 0 0 3.789-14.169c-.09-4.446-1.353-7.931-3.651-9.737zm-7.148 32.354c-.447.36-.915.694-1.4 1l-.594.366-.581.316c-.454.233-.922.44-1.4.619-5.9 2.134-10.418-2.046-10.481-10.191v-.354a31 31 0 0 1 3.789-13.891l.2-.366c1.628-3.087 3.846-5.825 6.529-8.057.447-.36.915-.694 1.4-1l.581-.366.594-.316c.454-.233.922-.44 1.4-.619 2.233-.964 4.807-.696 6.794.707a2.1 2.1 0 0 1 .2.151c2.134 1.717 3.46 4.95 3.485 9.332v.354c-.135 8.247-4.656 17.642-10.516 22.315z"/><path d="M446.904 380.759c-3.549 2.046-6.9 2.134-9.408.227s-3.9-5.556-3.9-10.3c.116-5.172 1.452-10.243 3.9-14.8l.1-.2.215-.391a25.89 25.89 0 0 1 9.092-10.1c3.549-2.046 6.883-2.134 9.4-.253h0l.177.126h0c2.4 1.945 3.725 5.556 3.725 10.178-.116 5.172-1.452 10.243-3.9 14.8a26.18 26.18 0 0 1-9.4 10.722zm0-33.629l-.556.341c-.442.29-.9.606-1.339.96a25.47 25.47 0 0 0-6.226 7.678l-.189.354a29.51 29.51 0 0 0-3.549 13.234v.341c0 7.7 4.268 11.795 10 9.724.458-.171.905-.37 1.339-.594a16.97 16.97 0 0 0 1.124-.644c.366-.227.9-.619 1.339-.96h0c5.733-4.546 9.939-13.487 10-21.266v-.339c0-4.041-1.263-7.2-3.334-8.84l-.189-.152c-1.894-1.339-4.35-1.592-6.478-.669a12.39 12.39 0 0 0-1.339.594z"/><path d="M456.299 345.511l-.164-.126h0l-.2-.151-.2.391-.2.354a31.9 31.9 0 0 1-2.324 3.637 2.37 2.37 0 0 0-.227.3c-1.084 1.396-2.321 2.667-3.688 3.788l-.265.2a17.52 17.52 0 0 1-1.806 1.263 12.23 12.23 0 0 1-2.336 1.048l-.253.076a7.35 7.35 0 0 1-3.6.189h-.227a6.16 6.16 0 0 1-2.172-1.036l-.177-.139-.2-.177-.215.391c0 .114-.139.24-.2.379l-.215.391.2.164.177.139h0a6.78 6.78 0 0 0 2.361 1.124h.24a7.94 7.94 0 0 0 3.852-.24l.265-.076a13.25 13.25 0 0 0 2.526-1.111 19.75 19.75 0 0 0 1.919-1.263l.278-.215a24.7 24.7 0 0 0 3.94-4.066l.24-.328a30.06 30.06 0 0 0 2.526-3.94c.076-.114.139-.24.215-.379l.2-.391zm.001 23.564a1.15 1.15 0 0 1-.2-.139 6.43 6.43 0 0 0-2.526-1.01 1.37 1.37 0 0 0-.24 0 8.22 8.22 0 0 0-3.94.48l-.278.1c-.664.253-1.306.561-1.919.922a17.11 17.11 0 0 0-2.463 1.73l-.278.227a25.48 25.48 0 0 0-3.852 4.218l-.24.328a34.1 34.1 0 0 0-2.362 3.852v.063c-.063.1-.114.215-.177.328l-.253.379.215.152c.064.055.13.105.2.152l.215.139.2-.4.177-.354a32.02 32.02 0 0 1 2.172-3.549l.227-.316a24.37 24.37 0 0 1 3.6-3.953l.253-.215a15.77 15.77 0 0 1 2.336-1.642 12.38 12.38 0 0 1 1.806-.871l.265-.088c1.175-.443 2.441-.595 3.688-.442h.227c.832.149 1.624.472 2.324.947l.2.126.2.152.2-.379v-.063c0-.1.114-.215.164-.328l.265-.429z"/><path d="M451.741 348.023c-1.263-2.614-2.993-3.473-4.824-2.412s-3.561 3.9-4.837 7.994c-1.286 4.311-1.933 8.787-1.919 13.285a26.76 26.76 0 0 0 1.919 11.075c1.263 2.614 2.993 3.473 4.837 2.412s3.549-3.9 4.824-7.994c1.288-4.315 1.934-8.797 1.919-13.3a26.76 26.76 0 0 0-1.919-11.062zm-4.824 31.266c-1.591.922-3.081.114-4.23-2.248a25.56 25.56 0 0 1-1.806-10.507 43.77 43.77 0 0 1 1.806-12.628c1.149-3.687 2.639-6.213 4.23-7.122s3.069-.114 4.218 2.248a25.56 25.56 0 0 1 1.806 10.507 43.77 43.77 0 0 1-1.806 12.628c-1.15 3.622-2.64 6.152-4.218 7.122z"/><path d="M459.52 355.134l-25.257 14.56a1.1 1.1 0 0 0-.429.859c0 .316.189.505.429.366l25.257-14.56a1.1 1.1 0 0 0 .429-.859c0-.316-.189-.505-.429-.366z"/><path d="M447.359 379.569v-33.616c0-.316-.215-.442-.455-.3a1.06 1.06 0 0 0-.467.833v33.617c0 .316.227.455.467.316a1.1 1.1 0 0 0 .455-.85z"/></g><path d="M420.145 413.385l60.363-34.879c.533-.277 1.167-.277 1.7 0l3.081 1.781a.52.52 0 0 1 .357.493.52.52 0 0 1-.357.493l-60.351 34.879c-.533.266-1.159.266-1.692 0l-3.081-1.781a.52.52 0 0 1-.37-.483.52.52 0 0 1 .345-.502z" class="d"/><path d="M428.101 417.984l60.431-34.905a1.82 1.82 0 0 1 1.692 0l19.006 10.974c.467.265.467.707 0 .985l-60.288 34.854c-.531.272-1.161.272-1.692 0l-19.081-10.923a.52.52 0 0 1-.391-.469.52.52 0 0 1 .328-.516z" class="a"/><path d="M482.264 398.802l1.894-1.1c.076 0 .076-.126 0-.177l-2.185-1.263c-.094-.05-.206-.05-.3 0l-1.894 1.086c-.076 0-.076.126 0 .177l2.185 1.263c.094.047.203.052.3.013zm-3.784-4.346l-1.882 1.1c-.088 0-.076.114 0 .164l2.185 1.263c.095.043.205.043.3 0l1.882-1.1c.088 0 .076-.126 0-.164l-2.2-1.263c-.075-.036-.161-.04-.24-.013zm-6.1 3.523l-3.208 1.856c-.076 0-.076.126 0 .177l2.185 1.263c.094.05.206.05.3 0l3.208-1.844c.076 0 .063-.126 0-.177l-2.2-1.263a.34.34 0 0 0-.24-.013zm3.346-1.932l-1.894 1.1c-.088 0-.076.126 0 .177l2.185 1.263c.094.05.206.05.3 0l1.894-1.086c.076 0 .076-.126 0-.177l-2.2-1.263a.34.34 0 0 0-.24-.013zm-7.425 4.294l-1.894 1.086c-.076 0-.076.126 0 .177l2.185 1.263c.095.043.205.043.3 0l1.894-1.1c.076 0 .076-.126 0-.177l-2.185-1.263c-.082-.031-.174-.026-.253.013zm-2.766 1.591l-1.894 1.1c-.076 0-.076.114 0 .164l2.185 1.263c.094.048.206.048.3 0l1.894-1.1c.076 0 .076-.114 0-.164l-2.185-1.263c-.081-.034-.172-.034-.253 0zm8.663 5.14l1.894-1.1c.076 0 .076-.126 0-.164l-2.185-1.263c-.094-.048-.206-.048-.3 0l-1.894 1.1c-.076 0-.076.114 0 .164l2.185 1.263c.094.042.201.043.296.002zm-2.766 1.591l1.894-1.086c.088 0 .076-.126 0-.177l-2.185-1.263c-.095-.043-.205-.043-.3 0l-1.894 1.1c-.076 0-.076.126 0 .177l2.185 1.263c.093.043.201.038.29-.013zm-2.766 1.6l1.894-1.1c.088 0 .076-.126 0-.177l-2.185-1.263c-.094-.048-.206-.048-.3 0l-1.894 1.086c-.076 0-.076.126 0 .177l2.2 1.263a.34.34 0 0 0 .278.013zm-2.766 1.591l1.894-1.086c.088 0 .076-.126 0-.177l-2.185-1.263c-.095-.043-.205-.043-.3 0l-1.882 1.1c-.088 0-.076.126 0 .177l2.2 1.263a.34.34 0 0 0 .253-.012zm13.613-11.466l1.894-1.086c.076 0 .076-.126 0-.177l-2.185-1.263c-.095-.043-.205-.043-.3 0l-1.894 1.1c-.076 0-.076.126 0 .177l2.185 1.263c.093.043.201.038.29-.013zm-2.526 5.051l4.218-2.437c.088 0 .076-.114 0-.164l-5.317-3.069c-.095-.043-.205-.043-.3 0l-2.185 1.263c-.076 0-.076.126 0 .177l2.816 1.616c.088 0 .088.139 0 .177l-1.755 1.01c-.076 0-.076.126 0 .177l2.185 1.263c.091.055.204.059.3.013zm-14.156-1.907l-1.894 1.086c-.076 0-.076.126 0 .177l2.185 1.263c.094.05.206.05.3 0l1.894-1.086c.076 0 .076-.126 0-.177l-2.185-1.263c-.095-.05-.21-.047-.303.006zm-2.766 1.591l-1.894 1.086c-.076 0-.076.126 0 .177l2.185 1.263c.095.043.205.043.3 0l1.894-1.1c.076 0 .076-.126 0-.177l-2.185-1.263c-.102-.044-.218-.039-.316.013zm-13.815 17.894c.094.048.206.048.3 0l1.894-1.1c.076 0 .076-.114 0-.164l-2.185-1.263c-.094-.048-.206-.048-.3 0l-1.894 1.1c-.076 0-.076.114 0 .164zm-8.3-5.127l-1.894 1.1c-.088 0-.076.126 0 .164l2.185 1.263a.33.33 0 0 0 .3 0l1.894-1.1c.076 0 .076-.114 0-.164l-2.2-1.263a.3.3 0 0 0-.3 0zm4.445 3.789c.094.05.206.05.3 0l1.894-1.086c.076 0 .076-.126 0-.177l-2.185-1.263c-.095-.043-.205-.043-.3 0l-1.894 1.1c-.076 0-.076.126 0 .177zm8.739 2.349l1.882-1.086c.088 0 .076-.126 0-.177l-2.2-1.263c-.095-.043-.205-.043-.3 0l-1.882 1.1c-.088 0-.076.126 0 .177l2.2 1.263c.099.03.207.011.29-.051zm-3.069 1.591c.095.043.205.043.3 0l1.882-1.1c.088 0 .076-.126 0-.177l-2.2-1.263c-.094-.05-.206-.05-.3 0l-1.882 1.086c-.088 0-.076.126 0 .177zm-7.35-9.282l-1.894 1.086c-.088 0-.076.126 0 .177l2.185 1.263c.095.043.205.043.3 0l1.882-1.1c.088 0 .076-.126 0-.177l-2.2-1.263a.3.3 0 0 0-.29-.025zm13.8-8.006l-1.894 1.086c-.076 0-.076.126 0 .177l2.185 1.263c.095.043.205.043.3 0l1.894-1.1c.088 0 .076-.126 0-.177l-2.185-1.263c-.096-.043-.207-.035-.296.02zm-11.062 6.314l-1.882 1.1c-.088 0-.076.126 0 .177l2.2 1.263c.094.05.206.05.3 0l1.882-1.086c.088 0 .076-.126 0-.177l-2.2-1.263c-.094-.047-.203-.052-.3-.013zm13.828-7.981l-1.894 1.1c-.076 0-.076.126 0 .177l2.185 1.263c.094.05.206.05.3 0l1.894-1.086c.076 0 .076-.126 0-.177l-2.185-1.263c-.101-.031-.21-.017-.3.038zm-5.531 3.195l-1.894 1.1c-.076 0-.076.126 0 .164l2.2 1.263a.3.3 0 0 0 .29 0l1.894-1.1c.088 0 .076-.114 0-.164l-2.185-1.263c-.102-.033-.214-.014-.3.051zm-2.816 1.654l-1.882 1.086c-.088 0-.076.126 0 .177l2.2 1.263a.3.3 0 0 0 .29 0l1.894-1.086c.088 0 .076-.126 0-.177l-2.185-1.263c-.098-.054-.218-.052-.314.006zm-2.766 1.591l-1.882 1.086c-.088 0-.076.126 0 .177l2.2 1.263c.095.043.205.043.3 0l1.882-1.1c.088 0 .076-.126 0-.177l-2.185-1.263c-.087-.029-.181-.024-.265.013zm14.144 1.945l1.882-1.1c.088 0 .076-.126 0-.164l-2.2-1.263c-.094-.05-.206-.05-.3 0l-1.882 1.1c-.088 0-.076.114 0 .164l2.185 1.263c.111.074.255.074.366 0zm24.272-24.12l-1.882 1.086c-.088 0-.076.126 0 .177l2.185 1.263c.094.05.206.05.3 0l1.882-1.086c.088 0 .076-.126 0-.177l-2.2-1.263c-.077-.032-.163-.032-.24 0zm-3.346 1.932l-1.882 1.086c-.088 0-.076.126 0 .177l2.185 1.263a.33.33 0 0 0 .3 0l1.882-1.086c.088 0 .076-.126 0-.177l-2.2-1.263c-.077-.032-.163-.032-.24 0zm6.112-3.536l-1.882 1.1c-.088 0-.076.126 0 .164l2.2 1.263c.094.048.206.048.3 0l1.882-1.086c.088 0 .076-.126 0-.177l-2.2-1.263c-.089-.011-.179.012-.253.063zm-14.308 14.763l1.894-1.1c.076 0 .076-.126 0-.164l-2.185-1.263c-.094-.048-.206-.048-.3 0l-1.894 1.1c-.076 0-.076.114 0 .164l2.185 1.263c.11.061.244.061.354 0zm17.377-16.354c-.094-.048-.206-.048-.3 0l-1.882 1.086c-.088 0-.076.126 0 .177l2.2 1.263c.095.043.205.043.3 0l1.882-1.1c.088 0 .076-.126 0-.177zm-27.339 25.722l1.882-1.086c.088 0 .076-.126 0-.177l-2.185-1.263c-.094-.05-.206-.05-.3 0l-1.882 1.086c-.088 0-.076.126 0 .177l2.2 1.263c.104.067.237.067.341 0zm33.9-19.579l1.894-1.086c.088 0 .076-.126 0-.177l-2.189-1.258c-.094-.048-.206-.048-.3 0l-1.894 1.086c-.076 0-.076.126 0 .177l2.2 1.263a.3.3 0 0 0 .341 0zm-5.885-.2l1.894-1.1c.076 0 .076-.114 0-.164l-2.185-1.263c-.094-.048-.206-.048-.3 0l-1.894 1.1c-.076 0-.076.114 0 .164l2.185 1.263c.108.069.246.069.354 0zm2.463-4.129c-.094-.05-.206-.05-.3 0l-1.894 1.086c-.076 0-.076.126 0 .177l2.185 1.263c.094.05.206.05.3 0l1.894-1.086c.076 0 .076-.126 0-.177zm.581-.328l5.3 3.056c.094.048.206.048.3 0l1.894-1.1c.088 0 .076-.114 0-.164l-5.3-3.069c-.095-.043-.205-.043-.3 0l-1.894 1.1c-.022.029-.029.066-.019.101s.035.063.069.076zm-6.415 3.511l-1.894 1.1c-.076 0-.076.126 0 .177l2.185 1.263c.094.05.206.05.3 0l1.894-1.086c.076 0 .076-.126 0-.177l-2.185-1.263c-.08-.034-.17-.039-.253-.013zm-20.812 12.022l-1.894 1.086c-.076 0-.076.126 0 .177l2.185 1.263c.095.043.205.043.3 0l1.894-1.1c.076 0 .076-.126 0-.177l-2.185-1.263c-.082-.031-.174-.026-.253.013zm27.012-9.282a.34.34 0 0 0 .29 0l1.894-1.1c.088 0 .076-.126 0-.177l-2.185-1.263c-.094-.048-.206-.048-.3 0l-1.882 1.086c-.088 0-.076.126 0 .177zm-24.246 7.678l-1.894 1.1c-.076 0-.076.126 0 .177l2.185 1.263c.094.05.206.05.3 0l1.894-1.086c.076 0 .076-.126 0-.177l-2.183-1.27c-.08-.034-.17-.039-.253-.013zm-20.728 18.283c.094.05.206.05.3 0l1.894-1.086c.076 0 .076-.126 0-.177l-2.185-1.263c-.094-.05-.206-.05-.3 0l-1.894 1.086c-.076 0-.076.126 0 .177zm-4.155-3.915l-1.894 1.1c-.088 0-.076.114 0 .164l2.185 1.263c.094.048.206.048.3 0l1.894-1.1c.076 0 .076-.114 0-.164l-2.185-1.263a.33.33 0 0 0-.253 0zm7.223 2.324l1.894-1.086c.076 0 .076-.126 0-.177l-2.185-1.263c-.095-.043-.205-.043-.3 0l-1.894 1.1c-.088 0-.076.126 0 .177l2.185 1.263c.11.068.25.063.354-.013zm2.766-1.591l1.894-1.1c.076 0 .076-.126 0-.177l-2.2-1.263a.3.3 0 0 0-.29 0l-1.894 1.086c-.088 0-.076.126 0 .177l2.185 1.263c.108.065.242.07.354.013zm2.766-1.6l1.882-1.086c.088 0 .076-.126 0-.177l-2.2-1.263a.34.34 0 0 0-.29 0l-1.894 1.1c-.088 0-.076.126 0 .177l2.185 1.263c.113.071.258.065.366-.013zm-9.875-.732l-1.894 1.086c-.088 0-.076.126 0 .177l2.185 1.263c.094.05.206.05.3 0l1.896-1.088c.076 0 .076-.126 0-.177l-2.2-1.263a.3.3 0 0 0-.29 0zm2.766-1.6l-1.894 1.1c-.088 0-.076.126 0 .177l2.185 1.263c.094.048.206.048.3 0l1.882-1.086c.088 0 .076-.126 0-.177l-2.2-1.263a.34.34 0 0 0-.341 0zm11.05-6.377l-1.894 1.086c-.076 0-.076.126 0 .177l2.2 1.263a.3.3 0 0 0 .291 0l1.894-1.086c.088 0 .076-.126 0-.177l-2.185-1.263c-.112-.074-.259-.069-.366.013zm-2.829 1.667l-1.882 1.1c-.088 0-.076.114 0 .164l2.2 1.263a.34.34 0 0 0 .29 0l1.894-1.1c.088 0 .076-.126 0-.164l-2.185-1.263c-.098-.054-.218-.054-.316 0zm5.531-3.195l-1.894 1.1c-.076 0-.076.126 0 .177l2.185 1.263c.095.043.205.043.3 0l1.896-1.097c.088 0 .076-.126 0-.177l-2.185-1.263c-.084-.068-.194-.096-.3-.076zm-11.062 6.39l-1.882 1.086c-.088 0-.076.126 0 .177l2.2 1.263c.095.043.205.043.3 0l1.882-1.1c.088 0 .076-.126 0-.177l-2.2-1.263c-.085-.067-.198-.086-.3-.05zm2.766-1.6l-1.882 1.1c-.088 0-.076.126 0 .177l2.2 1.263c.094.05.206.05.3 0l1.882-1.086c.088 0 .076-.126 0-.177l-2.185-1.263c-.088-.073-.205-.101-.316-.076zm-2.008 11.277l1.882-1.1c.088 0 .076-.126 0-.164l-2.185-1.263a.33.33 0 0 0-.3 0l-1.882 1.086c-.088 0-.076.126 0 .177l2.2 1.263c.101.021.207-.002.29-.063zm-16.229-1.654l-2.185-1.263c-.094-.05-.206-.05-.3 0l-1.894 1.086c-.088 0-.076.126 0 .177l2.185 1.263c.094.048.206.048.3 0l1.894-1.086c.088-.114.088-.189 0-.24zm4.142 1.263l-2.185-1.263c-.094-.05-.206-.05-.3 0l-2.917 1.68c-.076 0-.076.126 0 .177l2.185 1.263c.094.05.206.05.3 0l2.917-1.68c.088-.164.088-.24 0-.29zm-7.5-3.65l-2.185-1.263c-.095-.043-.205-.043-.3 0l-2.336 1.263c-.076 0 0 .126 0 .164l2.2 1.263a.3.3 0 0 0 .29 0l2.336-1.339c.088-.088.088-.088 0-.2zm1.781-1.036c.095.043.205.043.3 0l1.894-1.1c.076 0 .076-.126 0-.177l-2.185-1.263c-.094-.05-.206-.05-.3 0l-1.894 1.086c-.076 0-.076.126 0 .177zm9.572 6.074l-2.185-1.263c-.094-.05-.206-.05-.3 0l-3.637 2.1c-.088 0-.076.126 0 .177l2.185 1.263c.094.048.206.048.3 0l3.637-2.1c.088-.164.088-.24 0-.29zm1.818 2.526l-2.2-1.263a.34.34 0 0 0-.29 0l-2.361 1.275c-.076 0-.076.126 0 .164l2.185 1.263c.094.048.206.048.3 0l2.336-1.339c.114-.088.1-.088.025-.177zm9.168-20.508c.095.043.205.043.3 0l1.894-1.1c.076 0 .076-.126 0-.164l-2.185-1.263c-.094-.048-.206-.048-.3 0l-1.894 1.086c-.076 0-.076.126 0 .177zm-5.531 3.195c.095.043.205.043.3 0l1.894-1.1c.076 0 .076-.126 0-.177l-2.185-1.263c-.094-.05-.206-.05-.3 0l-1.894 1.086c-.076 0-.076.126 0 .177zm-12.275 7.009c.094.05.206.05.3 0l1.894-1.086c.076 0 .076-.126 0-.177l-2.185-1.263c-.095-.043-.205-.043-.3 0l-1.894 1.1c-.076 0-.076.126 0 .177zm15.028-8.676c.094.05.206.05.3 0l1.894-1.086c.076 0 .076-.126 0-.177l-2.185-1.263c-.095-.043-.205-.043-.3 0l-1.894 1.1c-.076 0-.076.126 0 .177zm-5.531 3.195c.095.043.205.043.3 0l1.894-1.086c.076 0 .076-.126 0-.177l-2.185-1.263c-.095-.043-.205-.043-.3 0l-1.894 1.1c-.076 0-.076.126 0 .177zm.644 15.912c-.095-.043-.205-.043-.3 0l-2.9 1.692c-.088 0-.076.114 0 .164l2.2 1.263c.094.048.206.048.3 0l2.9-1.68c.076 0 .076-.126 0-.177zm-4.609-13.626c.094.05.206.05.3 0l1.894-1.086c.076 0 .076-.126 0-.177l-2.185-1.263c-.094-.05-.206-.05-.3 0l-1.894 1.086c-.076 0-.076.126 0 .177zm-2.766 1.591c.095.043.205.043.3 0l1.894-1.1c.076 0 .076-.126 0-.164l-2.185-1.263c-.094-.048-.206-.048-.3 0l-1.894 1.1c-.076 0-.076.114 0 .164zm58.6-17.541c-.094-.05-.206-.05-.3 0l-4.66 2.69c-.076 0-.076.114 0 .164l2.2 1.263a.3.3 0 0 0 .29 0l4.66-2.69c.088 0 .076-.126 0-.177zm-6.112 3.536c-.094-.048-.206-.048-.3 0l-1.894 1.1c-.076 0-.076.114 0 .164l2.2 1.263a.3.3 0 0 0 .29 0l1.894-1.1c.088 0 .076-.114 0-.164zm-37.456 20.71l1.894-1.086c.088 0 .076-.126 0-.177l-2.185-1.263c-.094-.048-.206-.048-.3 0l-1.882 1.086c-.088 0-.076.126 0 .177l2.2 1.263a.3.3 0 0 0 .29 0zm31.937-17.515c-.094-.048-.206-.048-.3 0l-1.882 1.086c-.088 0-.076.126 0 .177l2.2 1.263c.095.043.205.043.3 0l1.882-1.1c.088 0 .076-.126 0-.177zm14.409-8.309c-.095-.043-.205-.043-.3 0l-1.894 1.1c-.076 0-.076.126 0 .177l2.185 1.263c.094.05.206.05.3 0l1.894-1.086c.076 0 .076-.126 0-.177zm4.95-.341l-5.3-3.069c-.095-.043-.205-.043-.3 0l-1.894 1.086c-.088 0-.076.126 0 .177l5.3 3.069c.095.043.205.043.3 0l1.894-1.1c.088-.051.088-.126 0-.177zm-29.694 14.611c-.095-.043-.205-.043-.3 0l-2.324 1.351c-.076 0-.076.126 0 .177l2.185 1.263c.094.048.206.048.3 0l2.324-1.339c.088 0 .076-.126 0-.177zm6.983-4.041a.33.33 0 0 0-.3 0l-2.9 1.68c-.076 0-.076.126 0 .177l2.185 1.263c.094.048.206.048.3 0l2.9-1.68c.088 0 .076-.126 0-.177zm-13.386 7.729c-.095-.043-.205-.043-.3 0l-15.571 8.991c-.076 0-.076.126 0 .177l2.185 1.263c.094.05.206.05.3 0l15.571-8.991c.088 0 .076-.126 0-.177zm-16.417 9.5c-.094-.05-.206-.05-.3 0l-2.387 1.339c-.088 0-.076.126 0 .177l2.185 1.263c.094.05.206.05.3 0l2.324-1.339c.076 0 .076-.126 0-.177zm19.65-11.366c-.094-.05-.206-.05-.3 0l-2.336 1.339c-.076 0-.076.126 0 .177l2.185 1.263c.094.05.206.05.3 0l2.336-1.339c.076 0 .076-.126 0-.177zm-22.845 13.2c-.094-.048-.206-.048-.3 0l-2.336 1.351c-.076 0-.076.114 0 .164l2.185 1.263c.094.048.206.048.3 0l2.336-1.351c.076 0 .076-.114 0-.164zm29.247-16.9c-.094-.05-.206-.05-.3 0l-2.336 1.339c-.076 0-.076.126 0 .177l2.185 1.263c.095.043.205.043.3 0l2.336-1.351c.076 0 .076-.126 0-.177zm9.888-5.708c-.094-.05-.206-.05-.3 0l-1.882 1.086c-.088 0-.076.126 0 .177l2.2 1.263a.3.3 0 0 0 .29 0l1.894-1.086c.088 0 .076-.126 0-.177zm6.062-4.395l1.894-1.1c.076 0 .076-.126 0-.177l-2.185-1.263c-.094-.05-.206-.05-.3 0l-1.894 1.086c-.076 0-.076.126 0 .177l2.185 1.263c.084.049.184.063.278.038zm-12.363-.088l1.894-1.086c.076 0 .076-.126 0-.177l-2.185-1.263c-.094-.05-.206-.05-.3 0l-1.894 1.086c-.076 0-.076.126 0 .177l2.185 1.263c.084.051.186.06.278.025zm-6.314 10.835l5.531-3.195c.076 0 .076-.114 0-.164l-2.185-1.263c-.094-.048-.206-.048-.3 0l-5.531 3.195c-.076 0-.076.126 0 .177l2.185 1.263c.098.065.225.07.328.013zm15.558-9.156c.095.043.205.043.3 0l1.894-1.086c.076 0 .076-.126 0-.177l-2.185-1.263c-.095-.043-.205-.043-.3 0l-1.894 1.1c-.076 0-.076.126 0 .177zm-2.816-1.806l1.882-1.086c.088 0 .076-.126 0-.177l-2.185-1.263c-.095-.043-.205-.043-.3 0l-1.882 1.1c-.088 0-.076.126 0 .177l2.2 1.263c.095.061.216.065.316.013zM476 409.599l1.894-1.1c.076 0 .076-.126 0-.177l-2.185-1.263c-.094-.05-.206-.05-.3 0l-1.894 1.086c-.076 0-.076.126 0 .177l2.185 1.263c.094.047.203.052.3.013zm12.212-7.236c.094.05.206.05.3 0l1.894-1.086c.076 0 .076-.126 0-.177l-2.185-1.263c-.094-.05-.206-.05-.3 0l-1.894 1.086c-.076 0-.076.126 0 .177zm-26.04 15.217l1.894-1.1c.088 0 .076-.126 0-.177l-2.186-1.261c-.094-.048-.206-.048-.3 0l-1.894 1.086c-.076 0-.076.126 0 .177l2.185 1.263c.088.06.197.078.3.051zm2.766-1.6l1.894-1.086c.076 0 .076-.126 0-.177l-2.185-1.263c-.095-.043-.205-.043-.3 0l-1.894 1.1c-.076 0-.076.126 0 .177l2.185 1.263c.089.058.202.068.3.025zm-5.531 3.195l1.894-1.1c.088 0 .076-.114 0-.164l-2.185-1.263c-.095-.043-.205-.043-.3 0l-1.894 1.1c-.076 0-.076.126 0 .164l2.2 1.263a.34.34 0 0 0 .29.038zm11.062-6.39l1.894-1.086c.076 0 .076-.126 0-.177l-2.183-1.266c-.094-.05-.206-.05-.3 0l-1.894 1.086c-.076 0-.076.126 0 .177l2.185 1.263c.087.063.2.077.3.038zm-2.766 1.6l1.894-1.1c.076 0 .076-.126 0-.177l-2.185-1.263c-.095-.043-.205-.043-.3 0l-1.894 1.086c-.076 0-.076.126 0 .177l2.185 1.263c.088.06.197.078.3.051zm5.531-3.195l1.894-1.1c.076 0 .076-.114 0-.164l-2.185-1.263c-.094-.048-.206-.048-.3 0l-1.894 1.1c-.076 0-.076.126 0 .164l2.185 1.263c.088.061.2.075.3.038zm12.628-23.615c.095.043.205.043.3 0l1.882-1.1c.088 0 .076-.126 0-.177l-.594-.328a.3.3 0 0 0-.29 0l-1.894 1.1c-.088 0-.076.114 0 .164zm-13.6 8.84a.3.3 0 0 0 .29 0l1.894-1.1c.088 0 .076-.126 0-.164l-2.185-1.263c-.094-.048-.206-.048-.3 0l-1.894 1.1c-.076 0-.076.114 0 .164zm5.519-3.182c.095.043.205.043.3 0l1.894-1.086c.076 0 .076-.126 0-.177l-2.185-1.263c-.095-.043-.205-.043-.3 0l-1.894 1.1c-.076 0-.076.126 0 .177zm-8.9 5.14c.094.05.206.05.3 0l1.894-1.086c.076 0 .076-.126 0-.177l-2.185-1.263c-.095-.043-.205-.043-.3 0l-1.894 1.1c-.076 0-.076.126 0 .177zm6.137-3.549c.094.05.206.05.3 0l1.894-1.086c.088 0 .076-.126 0-.177l-2.185-1.263c-.094-.048-.206-.048-.3 0l-1.894 1.086c-.076 0-.076.126 0 .177zm-11.672 6.732a.33.33 0 0 0 .3 0l1.894-1.086c.076 0 .076-.126 0-.177l-2.185-1.263c-.095-.043-.205-.043-.3 0l-1.894 1.1c-.076 0-.076.126 0 .164zm2.766-1.591c.095.043.205.043.3 0l1.894-1.1c.076 0 .076-.126 0-.177l-2.185-1.263c-.094-.05-.206-.05-.3 0l-1.894 1.086c-.076 0-.076.126 0 .177zm14.22-9.13c.094.05.206.05.3 0l1.894-1.086c.076 0 .076-.126 0-.177l-.581-.341c-.094-.05-.206-.05-.3 0l-1.894 1.086c-.076 0-.076.126 0 .177zm8.3-4.786c.094.048.206.048.3 0l1.882-1.086c.088 0 .076-.126 0-.177l-.594-.341a.3.3 0 0 0-.29 0l-1.894 1.086c-.088 0-.076.126 0 .177zm4.6 2.652a.3.3 0 0 0 .29 0l1.894-1.086c.088 0 .076-.126 0-.177l-2.185-1.263c-.095-.043-.205-.043-.3 0l-1.894 1.1c-.076 0-.076.126 0 .177zm6.908 7.009l1.894-1.086c.076 0 .076-.126 0-.177l-2.185-1.263c-.095-.043-.205-.043-.3 0l-1.894 1.1c-.076 0-.076.126 0 .177l2.185 1.263c.103.057.23.052.328-.013zm-17.036-6.478a.33.33 0 0 0 .3 0l1.894-1.1c.076 0 .063-.114 0-.164l-.581-.341c-.094-.05-.206-.05-.3 0l-1.894 1.086c-.088 0-.076.126 0 .177zm-22.524 13.889c.094.05.206.05.3 0l1.945-1.1c.076 0 .076-.126 0-.177l-2.185-1.263c-.094-.05-.206-.05-.3 0l-1.894 1.086c-.076 0-.076.126 0 .177z" class="b"/><path d="M472.931 419.702l18.677-10.772c.638-.328 1.395-.328 2.033 0l10.709 6.175a.62.62 0 0 1 0 1.174l-18.791 10.81a2.3 2.3 0 0 1-2.033 0l-10.6-6.125a.63.63 0 1 1 0-1.263z" class="a"/><rect width="48.493" height="90.886" rx="2.88" x="283.253" y="411.228" class="b"/><rect width="45.727" height="79.697" rx="1.89" x="284.629" y="416.822" class="Y"/><path d="M318.094 444.959l-.189-.2h0c-5.619-5.586-14.652-5.718-20.433-.3l-.227.215-.114.114c-5.72 5.719-5.751 14.984-.067 20.74s14.948 5.845 20.74.198 5.938-14.911.328-20.738zm-8.3 24.423c-.535.091-1.074.15-1.616.177h-1.364a13.75 13.75 0 0 1-1.616-.177c-6.919-1.123-12.029-7.059-12.111-14.068v-.3c.059-3.808 1.62-7.438 4.344-10.1l.227-.215a14.36 14.36 0 0 1 7.577-3.713c.535-.086 1.075-.141 1.616-.164h1.364a13.75 13.75 0 0 1 1.616.164 14.37 14.37 0 0 1 7.842 4l.227.227c2.55 2.645 3.995 6.163 4.041 9.837v.3c-.133 6.983-5.251 12.867-12.148 13.967z" class="Z"/><g class="i"><path d="M307.499 470.48a15.38 15.38 0 0 1-10.873-26.254l.126-.114.24-.24a15.37 15.37 0 0 1 21.342.316h0l.2.2h0a15.38 15.38 0 0 1-11.037 26.09zm0-29.121h-.644c-.52.019-1.039.07-1.553.152-2.693.438-5.195 1.669-7.185 3.536l-.215.215c-2.62 2.54-4.112 6.024-4.142 9.673v.291a13.7 13.7 0 0 0 11.539 13.411 12.95 12.95 0 0 0 1.553.164c.421.024.842.024 1.263 0a12.94 12.94 0 0 0 1.553-.164h0a13.7 13.7 0 0 0 11.542-13.411v-.3a13.64 13.64 0 0 0-3.852-9.37l-.215-.215a13.55 13.55 0 0 0-7.476-3.788c-.514-.082-1.033-.133-1.553-.152z"/><path d="M318.347 444.656l-.2-.2h0l-.24-.24-.227.24-.227.215a14.16 14.16 0 0 1-2.69 1.97l-.265.152a13.89 13.89 0 0 1-4.256 1.465h-.3a14.37 14.37 0 0 1-2.1.164c-.899.001-1.796-.088-2.677-.265l-.3-.063a13.89 13.89 0 0 1-4.155-1.629l-.253-.152a14.72 14.72 0 0 1-2.526-1.983l-.215-.227-.227-.24-.253.227-.227.227-.253.24.24.24.2.2h0a14.86 14.86 0 0 0 2.728 2.159l.278.164a14.6 14.6 0 0 0 4.445 1.73l.316.063a15.22 15.22 0 0 0 2.841.265 14.56 14.56 0 0 0 2.235-.164h.3a14.55 14.55 0 0 0 4.559-1.553l.278-.152a15.11 15.11 0 0 0 2.917-2.147l.24-.227.24-.227zm-.013 20.403l-.227-.215a15.65 15.65 0 0 0-2.93-2.159l-.278-.152a14.92 14.92 0 0 0-4.546-1.553h-.316a16.34 16.34 0 0 0-2.235-.164 15.37 15.37 0 0 0-2.841.278l-.316.063a14.9 14.9 0 0 0-4.445 1.717l-.278.164c-.988.615-1.903 1.339-2.728 2.159h0l-.189.189-.24.253.253.24.227.215.253.24.227-.253.215-.215a13.6 13.6 0 0 1 2.526-1.983l.253-.164a14.17 14.17 0 0 1 4.155-1.629l.3-.063a14.57 14.57 0 0 1 2.677-.253 14.37 14.37 0 0 1 2.1.151h.3a13.89 13.89 0 0 1 4.256 1.478l.265.139a14.22 14.22 0 0 1 2.69 1.983l.227.215.227.227.24-.227h0l.2-.2.227-.24z"/><path d="M313.069 444.554c-1.465-2.9-3.448-4.508-5.569-4.508s-4.1 1.6-5.569 4.508c-2.963 6.721-2.963 14.379 0 21.1 1.465 2.9 3.448 4.5 5.569 4.5s4.1-1.591 5.569-4.5c2.963-6.721 2.963-14.379 0-21.1zm-5.569 24.613c-1.831 0-3.561-1.44-4.875-4.054a25.08 25.08 0 0 1 0-20.016c1.263-2.614 3.043-4.054 4.875-4.054s3.561 1.44 4.875 4.054a25.08 25.08 0 0 1 0 20.016c-1.314 2.576-3.044 4.054-4.875 4.054z"/><path d="M322.06 454.594h-29.121c-.264.041-.459.269-.459.536s.195.495.459.536h29.121c.264-.041.459-.269.459-.536s-.195-.495-.459-.536z"/><path d="M308.017 469.684v-29.12a.53.53 0 0 0-.531-.492.53.53 0 0 0-.53.492v29.121a.53.53 0 0 0 .53.493.52.52 0 0 0 .53-.493z"/></g><g class="a"><path d="M304.38 412.68h7.122a.76.76 0 0 1 .77.72c-.007.198-.091.385-.236.52s-.337.207-.534.2h-7.122a.74.74 0 0 1-.534-.2.75.75 0 0 1-.236-.52.76.76 0 0 1 .77-.72zm12.212 0c.192-.004.377.071.513.207s.211.321.207.513a.72.72 0 0 1-.72.72.73.73 0 0 1-.72-.72.72.72 0 0 1 .72-.72z"/><circle cx="319.484" cy="413.4" r=".72"/><circle cx="296.399" cy="413.4" r=".72"/><path d="M299.291 412.68a.72.72 0 0 1 .72.72.73.73 0 0 1-.72.72.72.72 0 0 1-.72-.72c-.004-.192.071-.377.207-.513s.321-.211.513-.207zm-146.98 14.776l-14.03-8.107a3.66 3.66 0 0 1-2.159-3.018v-1.944l14.548-8.208a3.08 3.08 0 0 0 1.4-2.412v-17.29l24.486 14.144v17.288a3.08 3.08 0 0 1-1.389 2.425l-12.376 7.122a11.5 11.5 0 0 1-10.48 0z"/></g><path d="M170.672 420.965v1.945l4.483-2.589c.827-.539 1.347-1.44 1.4-2.425v-17.275l-4.672-2.69-.3 3.612 3.283 1.882v13.512a3.07 3.07 0 0 1-1.4 2.412z" opacity=".3"/><path d="M174.903 416.936c-.055.985-.575 1.885-1.4 2.425l-10.684 6.15a11.58 11.58 0 0 1-10.469 0l-14.068-8.107c-2.892-1.667-2.892-4.369 0-6.036l10.7-6.163a3.07 3.07 0 0 0 1.389-2.412V389.28l24.537 14.156z" class="b"/><path d="M146.122 406.846h0l2.854-1.642a3.07 3.07 0 0 0 1.389-2.412V389.28l24.537 14.156v13.5c-.055.985-.575 1.885-1.4 2.425l-2.829 1.6zm-10.001 7.539v1.945a3.7 3.7 0 0 0 2.159 3.031l14.03 8.095a10.36 10.36 0 0 0 5.051 1.263v-1.932a10.36 10.36 0 0 1-5.051-1.263l-14.03-8.12a3.66 3.66 0 0 1-2.159-3.018z" class="d"/><path d="M112.556 299.732v75.164a3.9 3.9 0 0 0 1.743 3.031l95.836 55.219.164.076h0c.859.379 1.528-.088 1.528-1.111v1.478c.57.024 1.136-.102 1.642-.366a3.79 3.79 0 0 0 1.629-2.968v-75.147c-.069-1.226-.716-2.346-1.743-3.018l-95.773-55.224a3.79 3.79 0 0 0-3.384-.063 3.7 3.7 0 0 0-1.616 2.652c-.014.092-.023.184-.026.277z" class="b"/><path d="M112.556 299.733v75.164a3.9 3.9 0 0 0 1.743 3.031l95.836 55.224.164.076h0c.859.379 1.528-.088 1.528-1.111v-75.115c-.067-1.23-.714-2.355-1.743-3.031l-95.798-55.223c-.871-.505-1.591-.177-1.717.707a2.45 2.45 0 0 0-.013.278z" class="d"/><path d="M211.879 432.166v-5.114l3.271-1.894v5.114a3.79 3.79 0 0 1-1.629 2.968c-.506.264-1.072.39-1.642.366-.13.012-.261.012-.391 0h-.397l-.3-.076h-.1l-.29-.126c.808.252 1.478-.215 1.478-1.238z" class="a"/><path d="M112.556 369.795v5.127a3.9 3.9 0 0 0 1.743 3.031l95.836 55.224.164.076h0c.859.379 1.528-.088 1.528-1.111v-5.114z" class="b"/><path d="M211.373 355.301c.313.52.487 1.111.505 1.717v70.062l3.283-1.894v-70.078c-.018-.606-.192-1.197-.505-1.717z" class="a"/><path d="M208.61 418.301v-60.212a2.31 2.31 0 0 0-1.048-1.818l-90.686-52.257c-.568-.328-1.036-.063-1.036.606v60.212a2.31 2.31 0 0 0 1.048 1.818l90.684 52.245c.569.34 1.038.062 1.038-.594z" class="Y"/><g class="Z"><path d="M146.047 352.127a39.8 39.8 0 0 0 4.736 17.983c3.056 5.834 7.122 10.418 11.441 12.906s8.373 2.6 11.365.29 4.736-6.756 4.736-12.515a39.8 39.8 0 0 0-4.685-18.021c0-.076-.088-.151-.126-.24l-.253-.467a31.38 31.38 0 0 0-10.987-12.174c-4.306-2.526-8.36-2.589-11.365-.3h0l-.215.164c-3.043 2.373-4.647 6.704-4.647 12.374zm.341.417v-.455c0-5.569 1.73-9.673 4.433-11.845a1.64 1.64 0 0 1 .253-.189 8.84 8.84 0 0 1 8.625-.9c.61.223 1.205.485 1.781.783l.745.4.745.455a20.98 20.98 0 0 1 1.781 1.263c3.403 2.831 6.217 6.302 8.284 10.216l.253.467a39.26 39.26 0 0 1 4.761 17.617v.455c-.076 10.343-5.822 15.647-13.3 12.931-.61-.223-1.205-.485-1.781-.783l-.745-.4-.745-.455c-.62-.383-1.215-.805-1.781-1.263-7.526-5.923-13.222-17.856-13.31-28.3z"/><path d="M150.264 370.452a41.52 41.52 0 0 1-4.95-18.791c0-5.86 1.68-10.444 4.736-12.906h0l.215-.177h0c3.195-2.387 7.425-2.26 11.921.328 4.306 2.526 8.41 7.021 11.555 12.767l.265.48.126.253a41.57 41.57 0 0 1 4.95 18.8c0 6.024-1.755 10.658-4.95 13.07s-7.438 2.311-11.946-.29-8.752-7.384-11.922-13.534zm11.239-29.55c-.548-.283-1.113-.532-1.692-.745a8.4 8.4 0 0 0-8.234.846l-.227.177c-2.69 2.172-4.193 6.188-4.23 11.3v.442c.076 9.875 5.418 21.216 12.691 26.987h0c.543.452 1.11.874 1.7 1.263a14.62 14.62 0 0 0 1.414.821 14.25 14.25 0 0 0 1.7.745c7.274 2.639 12.628-2.526 12.628-12.325.006-.076.006-.151 0-.227.006-.072.006-.143 0-.215a37.24 37.24 0 0 0-4.546-16.8 4.94 4.94 0 0 0-.24-.442 32.1 32.1 0 0 0-7.893-9.749q-.859-.669-1.7-1.263l-.707-.442z"/><path d="M150.303 339.272l.215-.164h0l.265-.177.265.48c.076.164.164.316.24.455.874 1.605 1.861 3.145 2.955 4.609l.29.391a28.63 28.63 0 0 0 4.685 4.849l.328.265c.73.571 1.498 1.09 2.3 1.553a14.8 14.8 0 0 0 2.955 1.238l.328.1a9.27 9.27 0 0 0 4.559.24l.29-.063a7.8 7.8 0 0 0 2.753-1.263l.24-.189.253-.2.278.493.253.48.265.493-.253.215-.227.177h0a8.23 8.23 0 0 1-3.006 1.427c-.098.031-.199.057-.3.076a10.02 10.02 0 0 1-4.887-.29l-.341-.114a16.24 16.24 0 0 1-3.132-1.414 21.76 21.76 0 0 1-2.45-1.642l-.341-.278a30.48 30.48 0 0 1-5.051-5.165l-.316-.4a41.31 41.31 0 0 1-3.208-5.051l-.253-.48-.265-.505zm.012 29.916l.253-.177c.966-.647 2.06-1.077 3.208-1.263h.316a10.66 10.66 0 0 1 5.051.619l.341.126a16.02 16.02 0 0 1 2.45 1.174 21.3 21.3 0 0 1 3.119 2.2 3.29 3.29 0 0 1 .354.29 32.33 32.33 0 0 1 4.887 5.342l.3.429a44.17 44.17 0 0 1 3.006 4.887h0l.227.429.253.505-.265.189-.253.177-.278.189-.253-.518a6.66 6.66 0 0 1-.24-.455 39.91 39.91 0 0 0-2.753-4.5l-.29-.391a30.01 30.01 0 0 0-4.571-5.051l-.316-.278a21.47 21.47 0 0 0-2.955-2.084 15.29 15.29 0 0 0-2.311-1.1l-.316-.126a10.1 10.1 0 0 0-4.685-.543h-.29a7.83 7.83 0 0 0-2.955 1.187l-.24.177-.265.189-.265-.493v-.076l-.215-.417-.253-.505z"/><path d="M153.649 356.56a58.57 58.57 0 0 0 2.437 16.871c1.629 5.19 3.789 8.84 6.137 10.1s4.508.265 6.125-3.069 2.437-8.221 2.437-14.043a58.09 58.09 0 0 0-2.437-16.871c-1.616-5.19-3.788-8.84-6.125-10.1s-4.508-.265-6.137 3.056-2.437 8.185-2.437 14.056zm3.22 16.417c-1.541-5.189-2.316-10.574-2.3-15.987 0-5.531.821-10.28 2.3-13.336s3.347-4.016 5.354-2.854 3.9 4.369 5.354 9.042c1.537 5.206 2.303 10.61 2.273 16.038 0 5.531-.808 10.267-2.286 13.336s-3.347 4.016-5.354 2.854-3.901-4.37-5.341-9.093z"/><path d="M146.224 351.509l32 18.475c.339.265.539.67.543 1.1 0 .391-.24.631-.543.467l-32-18.488a1.4 1.4 0 0 1-.556-1.086c0-.468.25-.67.556-.468z"/><path d="M161.643 382.499v-42.671c0-.4.29-.568.594-.391.341.25.554.639.581 1.061v42.684c0 .391-.29.556-.581.391a1.4 1.4 0 0 1-.594-1.074z"/></g><use xlink:href="#I" class="Y"/><use xlink:href="#I" opacity=".5"/><use xlink:href="#J" class="Y"/><use xlink:href="#J" opacity=".3"/><use xlink:href="#K" class="Y"/><use xlink:href="#K" opacity=".7"/><g class="d"><path d="M147.637 439.605l-2.526 1.478a.55.55 0 0 0-.076.088l2.286 1.376 2.69-1.6zm3.082 1.78l-2.526 1.49c-.016.027-.016.061 0 .088h0l2.26 1.263 2.69-1.591zm-8.284-4.786l-2.526 1.49s-.063 0-.063.088l3.788 2.21 2.69-1.591zm-3.082-1.743l-2.526 1.49a.1.1 0 0 0 0 .088l2.273 1.364 2.589-1.68zm-40.36-8.17l2.273 1.364 2.69-1.591-2.3-1.351-2.526 1.49c-.03-.007-.062-.002-.088.014s-.045.043-.051.074zm37.278 6.352l-2.526 1.478s-.076.076-.076.1l2.286 1.364 2.69-1.591zm10.205 9.925l-2.324-1.351-2.526 1.49v.088l2.286 1.364zm-20.951-4.974l2.286 1.364 2.677-1.591-2.311-1.351-2.526 1.49s-.126.05-.126.088zm19.069 6.971l2.273 1.364 2.69-1.591-2.336-1.351-2.526 1.49a.1.1 0 0 0-.1.088zm-22.15-8.751l2.273 1.364 2.69-1.591-2.336-1.351-2.526 1.478s-.101.073-.101.1zm-3.107-1.781l2.273 1.364 2.69-1.591-2.336-1.351-2.527 1.489a.1.1 0 0 0-.1.089zm12.363 7.121l4.875 2.867 6.175-3.612-2.665-1.528-3.258 1.894a.43.43 0 0 1-.227 0 .36.36 0 0 1-.215 0l-2.058-1.187-2.526 1.478s-.101.063-.101.088zm-1.603-12.072l-2.526 1.49v.088l2.273 1.364 2.69-1.591zm-1.478 10.292l2.273 1.364 2.69-1.591-2.336-1.351-2.526 1.478c-.101.036-.101.074-.101.1zm-28.225-20.293l2.273 1.364 2.778-1.591-2.336-1.351-2.526 1.478c-.036-.032-.087-.038-.129-.016s-.066.069-.06.116zm5.052-4.244l-2.528 1.49a.1.1 0 0 0 0 .088h0l2.26 1.263 2.69-1.591zm-7.678 6.718v.063l2.26 1.263 2.69-1.6-2.324-1.288-2.526 1.49a.1.1 0 0 0-.1.072zm-4.95 1.175l2.286 1.364 2.677-1.591-2.336-1.351-2.527 1.477a.14.14 0 0 0-.1.101zm15.684-6.112l-2.526 1.49v.088l2.286 1.364 2.677-1.591zm-12.603 7.893l2.286 1.364 2.677-1.591-2.324-1.351-2.526 1.49c-.053.003-.098.038-.114.088zm21.86-2.552l-2.526 1.49v.088l2.273 1.364 2.69-1.591zm3.094 1.781l-2.526 1.478c-.014.032-.014.068 0 .1l2.273 1.364 2.69-1.591z"/><use xlink:href="#L"/><path d="M114.677 420.574l-2.526 1.478a.1.1 0 0 0 0 .1l2.134 1.339 2.69-1.591zm12.339 7.122l-2.526 1.49c-.012.028-.012.06 0 .088l2.273 1.364 2.69-1.591zm-15.416-8.903l-2.526 1.49v.088l2.286 1.364 2.677-1.591zm21.628 12.464l-2.527 1.49c-.011.028-.011.06 0 .088l2.286 1.364 2.677-1.591zm.695 4.458l-2.526 1.478c-.04.013-.069.047-.076.088v.1l2.273 1.263 2.677-1.591zm23.615 9.61l-2.526 1.478c-.063 0-.063.076-.063.088l2.273 1.364 2.69-1.591zm3.081 1.781l-2.526 1.478c-.011.028-.011.06 0 .088l2.273 1.364 2.69-1.591zm-29.79-13.171l-2.526 1.478c-.01.029-.01.059 0 .088l2.286 1.364 2.677-1.591zm32.884 14.951l-2.526 1.478c-.063 0-.076.076-.076.088l2.286 1.364 2.677-1.591zm-29.335-9.824v.063l2.26 1.263 2.69-1.591-2.311-1.3-2.526 1.478a.7.7 0 0 0-.113.087zm19.674 8.271l-2.526 1.478c-.076 0-.076.076-.076.1l2.273 1.364 2.69-1.591zm6.175 3.561l-2.526 1.478s-.076.076-.076.1l2.248 1.326 2.677-1.591zm-5.72-.201l2.273 1.364 2.69-1.591-2.336-1.351-2.526 1.49s-.101.05-.101.088zm2.714 5.48c-.008.029-.008.059 0 .088v.063l2.273 1.263 6.175-3.6-2.336-1.351zm-29.473-24.019l-2.526 1.478c-.012.028-.012.06 0 .088h0l2.26 1.263 2.69-1.591zm23.274 20.546h0l2.26 1.263 2.677-1.427-2.336-1.351-2.526 1.49a.1.1 0 0 0-.076.025zm3.081 1.781l2.286 1.364 2.677-1.591-2.336-1.351-2.526 1.478c-.088.036-.101.074-.101.1zm-41.775-31.243l-2.526 1.478s-.076.076-.076.1l2.286 1.364 2.69-1.591zm-6.176-3.536l-2.526 1.478c-.063 0-.076.076-.076.1h0l2.26 1.263 2.69-1.591zm-2.221 5.823l2.286 1.364 2.677-1.591-2.324-1.351-2.526 1.49a.1.1 0 0 0-.114.088zm-3.082-1.797l2.286 1.376 2.677-1.616-2.323-1.26-2.526 1.49c-.036-.024-.084-.019-.114.013zm6.176 3.552h0l2.26 1.263 2.69-1.591-2.336-1.351-2.526 1.478zm17.642 3.081l-2.526 1.49v.151l2.273 1.263 2.69-1.591zm-11.48.505l2.286 1.364 2.677-1.591-2.324-1.351-2.526 1.478s-.113.074-.113.1zm-3.081-1.78l2.273 1.364 2.69-1.591-2.336-1.351-2.526 1.49s-.101.05-.101.088zm8.385-2.286l-2.526 1.49s-.076.063-.076.088l2.286 1.364 2.677-1.591z"/><use xlink:href="#L" x="-14.7" y="-4.458"/><path d="M121.585 428.542l-2.526 1.49c-.04.013-.069.047-.076.088l2.286 1.364 2.677-1.591zm-6.175-3.523l-2.526 1.478c-.014.032-.014.068 0 .1h0l2.26 1.263 2.69-1.591zm.859 7.628l2.286 1.364 2.69-1.591-2.337-1.352-2.526 1.478c-.056.004-.103.045-.114.1zm37.531 10.519l-2.526 1.49s-.063 0-.063.088l2.273 1.364 2.69-1.591zm-49.128-28.365l-2.336-1.351-2.526 1.49a.1.1 0 0 0 0 .088h0l2.273 1.263zm-2.346 2.666l-3.473-2.008-2.526 1.49v.088h0l3.41 1.97zm7.06-4.837l-2.816-1.629-2.526 1.49c-.016.027-.016.061 0 .088l2.766 1.642zM94.7 421.117l-2.818-1.629-2.526 1.478s-.076.076-.076.1l2.766 1.642zm4.95-1.177l-4.306-2.463-2.528 1.481c-.01.028-.01.06 0 .088h0l4.218 2.437zm9.206-4.518l2.273 1.364 2.69-1.591-2.336-1.351-2.527 1.476a.1.1 0 0 0-.1.102zm-20.471 6.086l-2.526 1.478c-.022.001-.043.011-.057.027s-.021.039-.019.061l3.422 2.021 2.652-1.6zm23.552-4.331l2.273 1.364 2.69-1.591-2.336-1.351-2.526 1.49c-.047.008-.086.042-.1.088zm13.714 7.914v.063l2.273 1.263 2.677-1.591-2.35-1.335-2.526 1.478c-.05.021-.08.072-.076.126zm3.056 1.784l2.273 1.364 2.69-1.591-2.336-1.339-2.526 1.478s-.101.075-.101.088zm-6.175-3.561v.063l2.273 1.263 2.677-1.591-2.336-1.339-2.526 1.478c-.057.013-.096.068-.088.126zm-4.457-2.55h0l2.273 1.263 2.69-1.591-2.336-1.351-2.526 1.489c-.052-.025-.114-.004-.141.046s-.009.114.041.143zm-3.057-1.781l2.286 1.364 2.677-1.591-2.324-1.351-2.526 1.49s-.113.05-.113.088zm34.741 37.948l-2.526 1.49c-.012.028-.012.06 0 .088h0l2.26 1.263 2.69-1.591zm-16.064-9.282l-2.526 1.478s-.076.076-.076.1l2.273 1.364 2.69-1.591zm9.901 5.721l-2.526 1.478c-.04.019-.068.056-.076.1h0l5.354 3.094 2.69-1.591z"/><use xlink:href="#L" x="12.843" y="23.514"/><path d="M139.858 451.273l-2.526 1.478c-.076 0-.076.076-.076.1l2.273 1.364 2.665-1.68zm-8.069-22.617v.063l2.26 1.263 2.69-1.591-2.336-1.339-2.526 1.478c-.057.013-.096.068-.088.126zm26.873 29.398l-2.324-1.351-6.074 3.5c-.008.029-.008.059 0 .088h0l2.273 1.263zm-62.473-32.037l-2.526 1.478a.55.55 0 0 0-.076.088l2.766 1.654 2.69-1.591zm3.561 2.045l-2.525 1.48s-.076.076-.076.1h0l17.528 10.1 2.69-1.6zm2.324.405l2.273 1.364 2.69-1.591-2.336-1.351-2.526 1.49c-.047.008-.086.042-.1.088zm-9.459-4.521l-2.526 1.478s-.076.063-.076.088l2.766 1.642 2.69-1.591zm25.46 14.699l-2.528 1.478c-.014.032-.014.068 0 .1h0l2.753 1.591 2.69-1.591zm7.173 4.129l-2.526 1.49a.1.1 0 0 0 0 .088h0l2.766 1.591 2.677-1.591zm-3.574-2.058l-2.526 1.49a.1.1 0 0 0 0 .088l2.766 1.642 2.677-1.591zm7.147 4.129l-2.526 1.478a.55.55 0 0 0-.076.088v.063l3.41 1.957 2.69-1.591zm18.867 1.908h0l2.26 1.263 2.69-1.591-2.336-1.351-2.526 1.49a.9.9 0 0 0-.088.189zM137.623 449h0l2.273 1.263 2.69-1.591-2.324-1.187-2.526 1.478c-.042-.007-.085.007-.114.038zm-10.873-6.288l6.314 3.713 2.69-1.591-6.314-3.663-2.526 1.49c-.016-.043-.063-.066-.106-.052s-.069.059-.058.103zm17.692 10.216v.063l2.273 1.263 2.69-1.6-2.286-1.288-2.526 1.49c-.026-.03-.07-.038-.105-.02s-.055.057-.047.096zm3.094 1.781h0l2.26 1.263 2.69-1.6-2.336-1.339-2.526 1.478-.088.198zm-23.867-13.778l2.27 1.364 2.69-1.591-2.336-1.339-2.526 1.478c-.047.009-.084.043-.098.088zm24.271 9.989h0l2.273 1.263 2.677-1.591-2.324-1.351-2.526 1.478c-.1.137-.1.175-.1.201zm-39.703-18.892l2.26 1.364 2.677-1.591-2.324-1.339-2.523 1.48c-.043.011-.077.043-.09.086zm12.363 7.122l2.286 1.364 2.69-1.591-2.336-1.339-2.526 1.49s-.114.038-.114.076zm-15.444-8.9h0l2.273 1.263 2.677-1.591-2.324-1.342-2.526 1.478c-.043.003-.082.028-.102.067s-.019.085.002.122zm6.175 3.558l2.273 1.364 2.69-1.579-2.336-1.339-2.526 1.49c-.045-.008-.088.019-.1.063zm3.081 1.781v.063l2.273 1.263 2.652-1.553-2.336-1.339-2.526 1.478c-.034.017-.058.05-.063.088zm3.082 1.793h0l2.273 1.263 2.677-1.591-2.324-1.339-2.526 1.478c-.043.003-.082.028-.102.067s-.019.085.002.122zm21.809-4.381l2.273 1.364 2.69-1.591-2.336-1.351-2.526 1.478a.1.1 0 0 0-.101.1zm11.315 23.5h0l2.26 1.263 2.7-1.44-2.33-1.351-2.526 1.49s-.104 0-.104.038zm-5.153-19.939l2.286 1.364 2.677-1.591-2.324-1.351-2.526 1.478s-.113.074-.113.1zm6.857 3.952l2.273 1.364 2.69-1.591-2.336-1.351-2.526 1.49a.1.1 0 0 0-.101.088zm-3.081-1.779l2.273 1.364 2.69-1.591-2.336-1.351-2.526 1.49c-.025-.003-.051.004-.07.021s-.03.041-.03.067zm-13.032-7.515l2.286 1.364 2.69-1.591-2.336-1.352-2.526 1.478s-.114.075-.114.101zm6.175 3.561h0l2.26 1.263 2.69-1.591-2.336-1.351-2.526 1.478a1.63 1.63 0 0 0-.088.201zm13.02 7.514l2.286 1.364 2.677-1.591-2.336-1.351-2.526 1.49c-.088.024-.101.062-.101.088zm13.878 6.987l2.286 1.364 1.4-.871-2.336-1.343-1.263.758s-.087.05-.087.092zm-5.127 2.951l2.286 1.364 2.69-1.591-2.336-1.339-2.53 1.48c-.1.035-.11.073-.11.086zm-4.117-8.297h0l2.26 1.263 1.4-.871-2.336-1.339-1.263.745c-.052-.008-.102.023-.118.073s.007.104.055.127zm3.082 1.784h0l2.26 1.263 1.4-.871-2.324-1.339-1.263.758c-.039.01-.071.038-.086.075s-.011.08.01.114zm3.081 1.765l2.286 1.364 1.4-.871-2.336-1.339-1.263.758zm381.502 3.611a6.02 6.02 0 0 0 .164 2.74 6.14 6.14 0 0 0 2.21 2.665 10.84 10.84 0 0 1 1.844 2.235 9.47 9.47 0 0 0 1.92 2.4c.958.508 2.085.591 3.107.227.808-.341 1.086-.657 1.036-1.957s-3.991-1.743-3.991-1.743z"/></g><path d="M557.541 455.529c.328.126.417.77.467 2.046 0 .96.442 2.374-.884 2.98-1.214.48-2.597.187-3.511-.745a42.92 42.92 0 0 0-2.8-3.511c-1.111-1.263-2.286-1.6-2.778-4.016-.316-1.541-.063-2.172.972-2.614 1.427-.619 3.675 1.376 4.786 1.692s3.342 4.042 3.748 4.168z" class="b"/><path d="M553.752 451.362l-.189-.076a3.79 3.79 0 0 0-3.094 2.033c-.189.417.4.745.745.417a3.94 3.94 0 0 1 3.094-2.008 1.59 1.59 0 0 0-.556-.366zm.896.719c-1.234.142-2.312.897-2.867 2.008-.189.429.391.758.745.429a3.79 3.79 0 0 1 2.526-1.932c-.037-.177-.252-.353-.404-.505zm-6.023 1.984s.114-2.854 3.978-3.258l.215.126c-.432-.703-1.105-1.224-1.894-1.465a2.65 2.65 0 0 0-2.98.859c-.67.87.012 3.181.681 3.738z" class="h"/><path d="M557.541 453.47v2.45a3.79 3.79 0 0 1-3.953.1c-.076-.152-.278-2.526-.278-2.526z" class="e"/><path d="M527.485 469.408c-.227 1.086.164 1.654 1.566 2.45 1.83.909 3.945 1.059 5.885.417 2.3-.669 3.4-1.68 4.357-1.919s3.321-.253 4.268-.53.922-.758.922-1.894z" class="d"/><path d="M543.561 462.449a28.38 28.38 0 0 0 .682 2.526c.3 1.052.347 2.159.139 3.233-.328.72-1.629 1.174-3.624 1.162-1.669.205-3.275.765-4.71 1.642a7.2 7.2 0 0 1-4.483.619c-1.793-.2-3.637-1.263-3.927-1.983s-.354-1.263 3.789-3.081c0 0 4.875-1.793 6.908-4.041z" class="b"/><path d="M535.48 471.314s-.366-3.612-3.3-4.635c-2.652-.934-4.963 1.023-4.7 2.728.168 1.149 3.4 3.763 8 1.907zm-2.552-5.316a3.45 3.45 0 0 1 2.008.884c.833.72.859 1.187.859 1.187a.44.44 0 0 0 .77-.366c-.26-1.236-1.327-2.137-2.589-2.185-.416-.082-.839.111-1.048.48zm1.679-.833a3.05 3.05 0 0 1 2.02.808c.846.707.846 1.263.846 1.263.136.132.34.166.512.084s.274-.261.258-.45c-.258-1.239-1.324-2.146-2.589-2.2a.97.97 0 0 0-1.048.492zm1.667-.923a2.99 2.99 0 0 1 2.071.669 1.99 1.99 0 0 1 .934 1.263c.2.278.821.076.732-.429-.342-1.22-1.473-2.049-2.74-2.008a.97.97 0 0 0-1 .505z" class="h"/><path d="M543.561 460.757v1.818c0 .657-.783 1.654-2.816 1.591-1.427 0-2.412-.442-2.362-1.616v-1.692zm18.601-70.77c.429-16-.846-19.839-5.114-22.731l-1.642 9.269s1.932 10.924 1.73 14.573a50.45 50.45 0 0 1-1.263 9.774 1.98 1.98 0 0 1-.846 1.1 11.62 11.62 0 0 0-2.349 2.223c-.631.669-1.174.846-1.1 1.048a1.06 1.06 0 0 0 1.351.48 7.11 7.11 0 0 0 1.541-.833 9.76 9.76 0 0 1-1.579 2.715c-1.515 1.856-1.591 3.006 1.49 3.031 1.919 0 3.46-1.162 4.9-5.4a34.4 34.4 0 0 0 1.351-4.761 85.47 85.47 0 0 0 1.528-10.482z" class="e"/><path d="M561.481 395.708c-.163 1.592-.442 3.171-.833 4.723-1.538.185-3.095-.124-4.445-.884l.568-4.407z" class="a"/><path d="M555.557 366.36c2.3-.24 5.051 3.031 6.087 6.857s1.263 17.036-.164 22.491c-1.587.392-3.262.19-4.71-.568.117-3.112-.014-6.229-.391-9.32-.594-3.043-2.021-10.267-1.7-11.365s.878-8.095.878-8.095z" class="d"/><use xlink:href="#M" class="Y"/><use xlink:href="#M" x="-0.001" opacity=".3"/><path d="M548.902 408.879a43.52 43.52 0 0 0 8.069-5.051 22.9 22.9 0 0 1-5.784 5.3c0 1.263-1.086 11.3-1.1 11.113-.29-2.248-.366-7.956-.732-11.365-.15-.06-.301.016-.453.003z" class="c"/><path d="M558.804 369.732c-.657-1.983-3.157-4.129-5.657-3.662-3.723.632-7.391 1.548-10.974 2.74-2.3.821-4.395 2.8-4.584 10.355l-.783 20.988a27.78 27.78 0 0 0 15.066 1.49c6.9-1.5 7.728-4.369 7.728-4.369l-.114-18.109c-.177-4.647-.24-8.082-.682-9.433z" class="b"/><path d="M544.331 363.481l.745 7.047 6.314.013-.732-7.981z" class="e"/><path d="M542.841 368.583c.455-.96.808-2.235 1.692-2.4a11.86 11.86 0 0 0 4.635-.177 3.98 3.98 0 0 0 1.945-1.364c.774-.319 1.663-.156 2.273.417.922.972 3.675 2.6 4.395 5.481s1.263 8.2-2.008 9.219c-4.875 1.5-8.335-.783-9.5-4.811-1.272-4.421-.919-5.57-3.432-6.365z" class="d"/><path d="M546.642 368.949c.8 1.086 1.642 5.834 3.536 7.691s5.986 1.4 6.731-.48c-.179 1.537-1.484 2.694-3.031 2.69a5.91 5.91 0 0 1-6.163-4.584c-.719-2.817-.618-4.042-1.073-5.317z" class="a"/><path d="M539.254 355.298s-1.6 2.526-1.4 2.791 1.414.442 1.414.442z" class="j"/><path d="M543.649 348.226c-3.334.783-4.268 2.273-4.458 7.577-.2 5.556.4 7.3 1.149 8.032.505.493 3.245.518 4.609.1 1.717-.505 5.594-1.983 7.362-4.824 2.084-3.334 2.526-7.792.2-9.572-3.255-2.475-7.473-1.629-8.862-1.313z" class="e"/><g class="a"><path d="M538.8 350.701c.686.348 1.456.497 2.223.429-.152 0-.1.631-.076.707a1.16 1.16 0 0 0 .4.657c.384.414.997.522 1.5.265-.455.366-.114 1.5 0 1.957s.265 1.137.884 1.389c0 0 .48-2.071 2.223-1.844s2.033 2.437.96 3.789-2.1.884-2.1.884a9.09 9.09 0 0 0 1.452 4.571 7.87 7.87 0 0 0 9.13-4.976c2-4.736 2.046-8.953-.972-10.1.33-1.725-.485-3.467-2.021-4.319-1.261-.761-2.839-.761-4.1 0a4.56 4.56 0 0 1-.556-.859 2.89 2.89 0 0 0-1.124-.9c-1.361-.542-2.902-.377-4.117.442-.638.452-1.062 1.146-1.174 1.919-1.185-.11-2.373.171-3.384.8-1.098.977-1.357 2.593-.619 3.864a3.6 3.6 0 0 0 1.471 1.325z"/><path d="M554.548 349.122l1.97-1.263a1.17 1.17 0 1 0-1.97 1.263z"/></g><path d="M514.438 381.881c1.073.48 13.778 9.875 15.76 8.777s12.186-12.969 12.186-12.969a8.22 8.22 0 0 0 0-8.9 6.9 6.9 0 0 0-5.8 3.031c-1.819 2.526-8.335 11.037-8.335 11.037-1.819-.909-8.322-3.384-9.787-4.218-.41-.181-.793-.419-1.137-.707-.72-.707-.606-2.425-.594-3.359v-1.268c0-.391.164-1.844-.8-1.427a1.34 1.34 0 0 0-.455.392c-.153.196-.268.419-.341.657-.189.556-.126 1.174-.29 1.755a.58.58 0 0 1-.126.227.48.48 0 0 1-.3.088c-1.389 0-2.715-2.008-3.359-3.043a2.84 2.84 0 0 0-1.061-1.263c-.833-.259-1.735.085-2.185.833-.604.911-.852 2.012-.695 3.094.13 1.465.779 2.836 1.831 3.864 1.616 1.443 3.471 2.593 5.481 3.4z" class="e"/><path d="M523.671 380.921l-3.182-1.326a5.28 5.28 0 0 0-2.526 4.622l3.081 2.046z" class="a"/><path d="M542.846 368.583c-1.741-.137-3.476.331-4.912 1.326-1.819 1.591-9.812 12.515-9.812 12.515l-4.445-1.5c-1.722 1.221-2.707 3.233-2.614 5.342 0 0 3.132 2.324 4.837 3.321a10.1 10.1 0 0 0 4.155 1.591c.745 0 11.984-12.3 11.984-12.3 1.267-1.648 1.979-3.655 2.033-5.733-.077-1.59-.495-3.145-1.225-4.559z" class="d"/><path d="M70.656 370.451c-2.791.543-4.066 1.5-5.657 5.38s-5.051 13.234-5.051 15.9c0 2.046 7.047 11.542 6.731 11.366-.1 0 4-4.8 4-4.8l-4.256-6.731 3.372-6.567z" class="e"/><path d="M76.869 453.546a5.96 5.96 0 0 1-.164 2.728 6.1 6.1 0 0 1-2.21 2.652 10.71 10.71 0 0 0-1.818 2.223 9.66 9.66 0 0 1-1.92 2.387 3.79 3.79 0 0 1-3.081.215c-.808-.328-1.086-.644-1.036-1.932s3.978-1.7 3.978-1.7z" class="b"/><use xlink:href="#N" class="Y"/><use xlink:href="#N" class="c"/><path d="M70.87 453.798l.189-.063c1.313.069 2.487.842 3.069 2.021.189.417-.391.732-.732.417-.627-1.137-1.776-1.889-3.069-2.008a1.63 1.63 0 0 1 .543-.367zm-.908.733a3.65 3.65 0 0 1 2.854 2.008c.189.417-.4.732-.745.417a3.79 3.79 0 0 0-2.526-1.92c.121-.182.261-.352.417-.505zm5.985 1.97s-.114-2.829-3.953-3.233l-.215.126c.424-.702 1.095-1.22 1.882-1.452a2.6 2.6 0 0 1 2.955.846c.67.859-.012 3.17-.669 3.713z" class="h"/><path d="M94.7 473.146c.215 1.073-.177 1.629-1.553 2.437a7.73 7.73 0 0 1-5.847.4c-2.286-.657-3.384-1.667-4.332-1.894s-3.309-.265-4.243-.543-.922-.745-.922-1.882z" class="b"/><use xlink:href="#O" class="Y"/><use xlink:href="#O" class="c"/><g class="h"><path d="M86.757 475.04s.354-3.586 3.271-4.609c2.627-.934 4.925 1.023 4.672 2.715-.177 1.149-3.384 3.737-7.943 1.894zm2.526-5.292a3.39 3.39 0 0 0-1.983.884c-.846.707-.871 1.187-.871 1.187a.44.44 0 0 1-.758-.366c.254-1.214 1.288-2.109 2.526-2.185a.96.96 0 0 1 1.086.48z"/><path d="M87.615 468.952c-.746.005-1.463.29-2.008.8-.833.707-.846 1.263-.846 1.263a.44.44 0 0 1-.758-.354c.254-1.214 1.288-2.109 2.526-2.185a.96.96 0 0 1 1.086.48zm-1.653-.934a2.98 2.98 0 0 0-2.058.657 1.93 1.93 0 0 0-.922 1.263.44.44 0 0 1-.732-.417 2.73 2.73 0 0 1 2.715-2 .97.97 0 0 1 1 .492z"/></g><path d="M67.158 455.907v2.437a3.79 3.79 0 0 0 3.927.1c.063-.152.265-2.526.265-2.526zm11.567 8.638v1.806c0 .669.77 1.654 2.791 1.579 1.414 0 2.4-.429 2.349-1.6v-1.68z" class="e"/><path d="M64.531 435.273a20.2 20.2 0 0 1 1.187-7.375s-.758-6.314-1.263-14.093c-.707-11.365 1.844-15.066 4.18-20.37 0 0 18.387-1.263 18.652 7.072.354 11.214.126 31.344-.139 34.981s-.278.278-1.162 7.577c-.695 5.822-2.134 21.468-2.134 21.468-1.623.827-3.551.789-5.14-.1 0 0-1.616-19.107-1.44-23.261.017-2.151.182-4.299.493-6.428l-2.627-19.283-.606 8.41c-.278 3.637-.24 6.567-1.01 14.081l-2.058 18.627a4.9 4.9 0 0 1-4.332-.316c0 0-2.715-16.835-2.601-20.99z" class="b"/><path d="M75.138 415.459l-.379-4.016c-2.164-.317-4.232-1.102-6.062-2.3 1.195 1.526 2.89 2.581 4.786 2.98l.8 3.915.2 7.792z" class="d"/><g class="e"><path d="M80.834 367.812l-.935 7.678-6.744-.619.77-8.524z"/><path d="M66.564 374.24c.745-2.021 2.45-4.142 5.051-3.662l1.907.354c.063 1.768 3.4 2.69 6.718 1.616l2.74.871c2.387.846 4.458 5.38 4.508 11.984s-1.124 17.111-1.124 17.111-4.319 6.074-13.361 3.132c-6.592-2.147-7.7-4-7.7-4s2.3-5.481 3.9-9.989c-3.599-9.563-3.738-14.462-2.639-17.417z"/></g><path d="M66.564 374.24c.745-2.021 2.45-4.142 5.051-3.662l1.907.354c.063 1.768 3.4 2.69 6.718 1.616l2.74.871c2.387.846 4.458 5.38 4.508 11.984l.278 26.343s-1.92-1.326-3.334-7.489a10.3 10.3 0 0 1-13.171 8.751c-6.592-2.134-6.819-4.988-7.236-8.145.328-2.526 2.665-8.423 5.215-13.247-3.635-9.522-3.774-14.421-2.676-17.376z" class="Y"/><path d="M85.856 358.051a5.91 5.91 0 0 0-.518-5.708c-2.26-3.561-6.63-4.167-11.807-2.778-3.705 1.129-6.299 4.466-6.478 8.335-.253 3.788 10.343 6.6 10.1 9.206z" class="a"/><path d="M86.088 359.49s1.44 2.311 1.263 2.526c-.356.225-.75.383-1.162.467z" class="j"/><path d="M85.797 360.807a1.77 1.77 0 0 1-1.25-3.018 1.77 1.77 0 0 1 3.018 1.25 1.77 1.77 0 0 1-1.768 1.768zm0-3.283c-.722.006-1.339.522-1.475 1.231s.249 1.416.918 1.688 1.437.034 1.835-.569.315-1.402-.198-1.911a1.53 1.53 0 0 0-1.08-.439z" class="a"/><path d="M81.706 352.191c1.427.8 3.915 2.248 4.407 7.577s-.758 7.4-1.528 8.095c-.518.48-3.132.581-4.5.126-2.846-1.01-5.297-2.898-7-5.392-1.945-3.4-2.248-7.867.152-9.547a8.84 8.84 0 0 1 8.461-.859z" class="e"/><path d="M81.037 367.105l-.253 1.111a8.02 8.02 0 0 0 3.561-.152c-.425-.006-.848-.057-1.263-.151-.714-.18-1.401-.452-2.045-.808z" class="j"/><g class="a"><path d="M81.632 358.695a5.47 5.47 0 0 0 3.511-4.407c.53-3.511-3.788-5.051-3.788-5.051z"/><path d="M82.122 352.43s1.137 5.051-.467 8.2c0 0-.846-1.983-2.526-1.465-.776.308-1.321 1.015-1.424 1.843s.254 1.647.931 2.135c.639.537 1.571.537 2.21 0-.547 1.51-1.408 2.888-2.526 4.041 0 0-4.445 2.6-8.84-2.311-3.953-4.47-2.816-12.426 2.841-14.093 3.336-1.137 7.021-.517 9.801 1.65z"/></g><g class="e"><path d="M100.067 385.606c.972-1.111 1.137-3.586 2.45-5.291s1.061-3.41 1.882-2.652.215 3.549.215 3.549c.741 1.34 1.293 2.777 1.642 4.268.126 1.44-3.687 5.051-3.687 5.051z"/><path d="M104.398 380.958s1.553 2.159 8.524-.657c1.92-.783.619 3.359-1.743 5.051s-4.912 2.084-7.11 3.561l.329-7.955zm-22.01-7.779c3.006.543 4.521.859 6.188 4.8 1.97 4.672 6.087 13.411 6.087 13.411l5.4-5.784s.783-1.1 2.248 1.263.808 3.081.808 3.081-6.314 8.41-7.425 9.471-3.043.24-4.281-1.44-7.842-12.275-7.842-12.275-3.999-8.296-1.183-12.527z"/></g><path d="M67.562 355.297c-1.263 3.069-2.311 16.025-.1 20.205s8.474 6.958 12.5 5.506c2.526-.884 5.809-2.98 3.788-6-.549-.762-1.199-1.446-1.932-2.033-.618-.545-1.091-1.235-1.376-2.008-.9-1.957.316-7.653.391-7.842s-.657 2.437-5.241 1.124c-2.095-.542-8.03-8.952-8.03-8.952z" class="a"/><defs ><path id="B" d="M205.816 63.242l-3.422-6.43 2.816-7.931v-4.859l-8.423 4.862v4.849l3.624 6.314a.52.52 0 0 0 .253.215h0z"/><path id="C" d="M203.266 36.976c-1.993 1.293-3.246 3.462-3.372 5.834 0 2.147 1.5 3.018 3.372 1.945a7.45 7.45 0 0 0 3.359-5.834c0-2.147-1.503-3.019-3.359-1.945z"/><path id="D" d="M323.436 22.932l-4.028-2.286h0c-1.907-1.263-4.571-1.263-7.577.467-5.847 3.372-10.57 11.934-10.57 19.119v1.628c0 7.186 9.661 15 9.661 15l3.953 2.235s-2.374-2.7-2.109-3.258c2.525-5.312 9.635-20.314 9.635-26.177v-1.639c.011-1.186-.142-2.367-.455-3.511l.455.265zm-11.542 16.417c-2.917 1.68-5.291.316-5.291-3.056 1.579-.24 5.531-6.983 5.291-9.156 2.917-1.68 5.279-.316 5.279 3.056-.182 3.741-2.144 7.169-5.279 9.219z"/><path id="E" d="M69.631 446.992a32.58 32.58 0 0 0-4.155-12.073c-3.384-5.266-8.032-8.562-12.363-8.9s-7.842 3.65-3.195 6.377 12.868 5.544 16.669 15.785z"/><path id="F" d="M327.25 483.601c.852-5.17 2.723-10.12 5.506-14.56 4.332-6.314 10.1-10.1 15.432-10.368s9.408 4.748 3.637 7.905-15.924 6.238-20.95 18.576z"/><path id="G" d="M284.149 484.991c-.129-6.036-1.873-11.927-5.051-17.061-4.256-6.983-9.8-11.631-14.384-10.1-4.281 1.4-3.245 7.2 3.3 13.449 4.584 4.382 9.244 9.964 11.441 16.417l3.788 8.259z"/><path id="H" d="M554.774 443.923a32.43 32.43 0 0 1 4.142-12.073c3.384-5.279 8.032-8.562 12.363-8.9s7.842 3.637 3.195 6.377-12.868 5.531-16.657 15.773z"/><path id="I" d="M81.982 422.91a.92.92 0 0 1 .556-.783l22.5-12.982a2.94 2.94 0 0 1 2.677 0l68.66 39.7a.92.92 0 0 1 .556.77v2.361a.92.92 0 0 1-.556.783l-22.491 12.982a2.94 2.94 0 0 1-2.677 0l-68.673-39.64a.92.92 0 0 1-.556-.77l.004-2.421z"/><path id="J" d="M153.889 463.338l22.491-12.931a.82.82 0 0 0 0-1.553l-68.66-39.7a2.94 2.94 0 0 0-2.677 0l-22.5 12.982a.82.82 0 0 0 0 1.553l68.673 39.64a2.98 2.98 0 0 0 2.677.013z"/><path id="K" d="M152.638 463.649v2.412a2.75 2.75 0 0 0 1.263-.316l22.478-12.982a.92.92 0 0 0 .556-.77v-2.374a.96.96 0 0 1-.556.783l-22.478 12.927c-.389.206-.822.316-1.263.32z"/><path id="L" d="M123.934 425.916l-2.526 1.478s-.076.076-.076.1l2.286 1.364 2.677-1.591z"/><path id="M" d="M560.066 433.733c-.189-4.748-.695-4.849-1.465-8.575.391-4.521.758-8.335.909-13.247.177-5.291 0-11.669 0-17.3-5.8-.391-20.306-5.19-22.125 3.927-.53 7.362.2 21.935.29 31.975s0 19.915.619 30.687a6.53 6.53 0 0 0 5.62-.417c1.395-6.317 2.457-12.703 3.182-19.132.568-5.051-.253-5.468 0-9.471l.947-12.3c.316-3.927.707-7.2.884-11.012a2.72 2.72 0 0 0 .467-.24l.732 13.449c.315 4.773.707 8.36 1.263 13.815.467 5.051.669 11.706 1.616 17.793 1.376.657 3.4 1.263 4.71.152 1.152-5.506 2.553-15.356 2.351-20.104z"/><path id="N" d="M67.158 457.966c-.341.126-.429.758-.48 2.021 0 .96-.442 2.361.884 2.968a3.22 3.22 0 0 0 3.485-.732c.881-1.216 1.825-2.384 2.829-3.5 1.111-1.2 2.26-1.6 2.753-3.978.328-1.541.076-2.172-.96-2.614-1.414-.606-3.65 1.376-4.761 1.68s-3.422 4.029-3.75 4.155z"/><path id="O" d="M78.725 466.225s-.442 1.351-.682 2.526a6.73 6.73 0 0 0-.139 3.22c.328.707 1.616 1.162 3.6 1.149 1.656.2 3.25.756 4.672 1.629a7.16 7.16 0 0 0 4.47.619c1.768-.2 3.612-1.263 3.89-1.97s.366-1.263-3.788-3.056c0 0-4.837-1.793-6.857-4.028z"/></defs></svg>