<svg height="27" viewBox="0 0 116 27" width="116" xmlns="http://www.w3.org/2000/svg" xmlns:xlink="http://www.w3.org/1999/xlink"><linearGradient id="a" x1="50%" x2="50%" y1="0%" y2="100%"><stop offset="0" stop-color="#00cdad"/><stop offset="1" stop-color="#00a288"/></linearGradient><g fill="none"><path d="m37.4194342 18.6000812-.7296835-1.6340279h-6.8635851l-.6840782 1.6340279 1.6189852.3222027v2.0252739h-6.2479147v-2.0252739l1.5961826-.4142606 5.8830729-12.51987555h2.5766948l6.0198886 12.51987555 1.5961826.4142606v2.0252739h-6.3847304v-2.0252739zm-5.0849816-7.4797051-1.5277748 3.4061417h4.8569556l-1.6189852-3.4291561c-.2964339-.6444054-.6612757-1.68005687-.8208939-2.32446223-.2052235.66741984-.6156704 1.70307133-.8893017 2.34747663zm12.8150629 1.495941-1.5505774-.3452171v-2.1863753l4.4693113-.25315928v8.72248678l1.5961825.3682317v2.0252739h-6.111099v-2.0252739l1.5961826-.3682317zm-.6840783-7.11147337c0-1.17373833.9121044-2.09431741 2.09784-2.09431741s2.1206426.92057908 2.1206426 2.09431741-.934907 2.07130293-2.1206426 2.07130293-2.09784-.8975646-2.09784-2.07130293zm11.6521316 9.20579087v3.8434176l2.2346556.3682317v2.0252739h-6.7495721v-2.0252739l1.5961826-.3682317v-5.7306048l-1.7558008-.4602895v-2.2784332l3.5800095-.23014481.1824208.66741981c.1824209.6444054.3420392 1.4499121.3648418 1.7721148.752486-1.1507239 2.2802608-2.57762147 3.8764434-2.57762147 1.1401304 0 2.4170765.57536197 2.4170765 2.18637537 0 1.1507238-.7980913 1.9562305-1.8470113 1.9562305-1.0033148 0-1.4821696-.8055067-1.5049722-1.3808686-.5016573 0-1.5961825.7824922-2.3942738 2.2324043zm15.5513769 6.6051549c-5.1533894 0-8.4597677-2.8998241-8.4597677-7.6408064 0-4.46480856 3.2835756-8.00903803 8.094926-8.00903803 3.2151678 0 5.7690599 1.49594101 5.7690599 3.63628737 0 .92057906-.6840782 1.97924506-2.1206426 1.97924506-.9121043 0-1.7101956-.7134488-1.7101956-1.61101342 0-.39124611.1824209-.75947775.3420391-.98962252-.3420391-.25315924-1.1857356-.46028954-2.1434451-.46028954-3.4887991 0-5.1077843 2.78475168-5.1077843 5.36237318 0 2.8998241 1.8698139 5.1322284 5.4270208 5.1322284 2.0978399 0 3.8308382-.7594778 4.1500747-.8975646l1.0717226 2.3014477c-.3648418.1841158-2.6223 1.1967528-5.3130078 1.1967528zm14.6848773-3.2910702v-1.4959411c-.4560522-.1380868-1.3681565-.3222026-2.5082869-.3222026-1.3909591 0-2.4170765.2991882-2.4170765 1.3808686 0 .966608.7752887 1.3118252 1.9154191 1.3118252 1.3681565 0 2.3714713-.483304 3.0099443-.8745501zm1.4593669 2.9228385-.7296834-1.2427817c-.8208939.6674198-2.2346557 1.5189536-4.1728774 1.5189536-2.4626817 0-4.4009034-1.0586641-4.4009034-3.5672421 0-2.462549 2.1662478-3.6362874 4.9025608-3.6362874 1.2313409 0 2.4170765.2301448 2.9415365.4142606v-.437275c0-1.3578542-.8893017-1.7491003-2.6451026-1.7491003-1.6189852 0-3.0555495.4602896-3.5116017.6444054l-1.0033147-2.071303c.9577095-.4602895 2.6451025-1.10469487 5.0165729-1.10469487 2.8959322 0 5.06218 1.33483967 5.06218 4.76399677v4.0735624l1.7101956.3682317v2.0252739zm9.1894489-6.2369232v3.8434176l2.2346556.3682317v2.0252739h-6.749572v-2.0252739l1.5961825-.3682317v-5.7306048l-1.7558008-.4602895v-2.2784332l3.5800095-.23014481.1824209.66741981c.1824208.6444054.3420391 1.4499121.3648417 1.7721148.7524861-1.1507239 2.2802608-2.57762147 3.8764438-2.57762147 1.14013 0 2.417076.57536197 2.417076 2.18637537 0 1.1507238-.798091 1.9562305-1.847011 1.9562305-1.0033149 0-1.4821697-.8055067-1.5049723-1.3808686-.5016574 0-1.5961826.7824922-2.3942739 2.2324043zm13.1114982 4.1656203c1.915419 0 3.306378-.5523474 3.716825-.7134488l.980512 2.0482885c-.61567.3222027-2.348669 1.1046949-4.925363 1.1046949-3.511602 0-6.019889-2.071303-6.019889-5.592518 0-3.5442294 2.394274-6.00677847 5.86027-6.00677847 3.899246 0 5.449824 2.60063587 5.449824 4.94811257 0 1.0356515-.228026 1.6800568-.319237 1.8871871h-8.072123c.114013 1.5649845 1.550577 2.3244622 3.329181 2.3244622zm-3.306378-4.533852h5.700651c0-1.0586659-.70688-2.2324043-2.71351-2.2324043-1.459367 0-2.781918.7134488-2.987141 2.2324043z" fill="#3a524e"/><path d="m14.4601093 13.5692308c-.7953976-1.0395423-2.0623799-1.6961539-3.5235053-1.6961539-1.36168426 0-2.72336847.2832753-3.60445825 1.3104492-.88108978-1.0271739-2.24277399-1.3104492-3.60445821-1.3104492-1.46112547 0-2.72810774.6566116-3.52350531 1.6961539h-.20418223l7.33214575-13.5692308 7.33214575 13.5692308z" fill="#ccdcd6"/><path d="m7.33231579 27-.86414575-.8691472c-3.20968421-2.8557692-5.30832389-4.7803093-5.30832389-7.139423 0-1.9245402 1.48139272-3.4145067 3.3948583-3.4145067 1.04931984 0 2.09863968.4966555 2.77761134 1.3037207.67897166-.8070652 1.7282915-1.3037207 2.77761131-1.3037207 1.9134656 0 3.3948583 1.4899665 3.3948583 3.4145067 0 2.3591137-2.0986397 4.2836538-5.30832386 7.139423z" fill="url(#a)"/><path d="m7.33214575 13.1835261c-.88108978-1.0271739-2.24277399-1.3104492-3.60445821-1.3104492-1.46112547 0-2.72810774.6566116-3.52350531 1.6961539h-.20418223l7.33214575-13.5692308.00048583 13.1829599z" fill="#aec3bb"/></g></svg>