<svg xmlns="http://www.w3.org/2000/svg" xmlns:xlink="http://www.w3.org/1999/xlink" width="199.41" height="361.375" viewBox="0 0 199.41 361.375">
  <defs>
    <clipPath id="clip-path">
      <rect id="Rechteck_1811" data-name="Rechteck 1811" width="27.748" height="14.74" fill="none"/>
    </clipPath>
    <clipPath id="clip-path-2">
      <rect id="Rechteck_1812" data-name="Rechteck 1812" width="14.877" height="10.651" fill="none"/>
    </clipPath>
    <clipPath id="clip-path-3">
      <rect id="Rechteck_1813" data-name="Rechteck 1813" width="13.456" height="10.651" fill="none"/>
    </clipPath>
    <clipPath id="clip-path-4">
      <rect id="Rechteck_1814" data-name="Rechteck 1814" width="28.918" height="24.024" fill="none"/>
    </clipPath>
    <clipPath id="clip-path-6">
      <rect id="Rechteck_1816" data-name="Rechteck 1816" width="45.133" height="39.57" fill="none"/>
    </clipPath>
    <clipPath id="clip-path-8">
      <rect id="Rechteck_1818" data-name="Rechteck 1818" width="23.235" height="18.508" fill="none"/>
    </clipPath>
    <clipPath id="clip-path-9">
      <rect id="Rechteck_1819" data-name="Rechteck 1819" width="23.068" height="18.508" fill="none"/>
    </clipPath>
    <clipPath id="clip-path-10">
      <rect id="Rechteck_1820" data-name="Rechteck 1820" width="3.677" height="6.472" fill="none"/>
    </clipPath>
    <clipPath id="clip-path-11">
      <rect id="Rechteck_1821" data-name="Rechteck 1821" width="4.179" height="7.977" fill="none"/>
    </clipPath>
    <clipPath id="clip-path-12">
      <rect id="Rechteck_1822" data-name="Rechteck 1822" width="5.516" height="11.153" fill="none"/>
    </clipPath>
    <clipPath id="clip-path-13">
      <rect id="Rechteck_1823" data-name="Rechteck 1823" width="7.522" height="6.639" fill="none"/>
    </clipPath>
    <clipPath id="clip-path-14">
      <rect id="Rechteck_1824" data-name="Rechteck 1824" width="7.355" height="6.639" fill="none"/>
    </clipPath>
    <clipPath id="clip-path-15">
      <rect id="Rechteck_1825" data-name="Rechteck 1825" width="5.683" height="4.466" fill="none"/>
    </clipPath>
    <clipPath id="clip-path-17">
      <rect id="Rechteck_1827" data-name="Rechteck 1827" width="4.346" height="5.469" fill="none"/>
    </clipPath>
    <clipPath id="clip-path-18">
      <rect id="Rechteck_1828" data-name="Rechteck 1828" width="4.513" height="5.469" fill="none"/>
    </clipPath>
    <clipPath id="clip-path-19">
      <rect id="Rechteck_1829" data-name="Rechteck 1829" width="164.065" height="0.288" fill="none"/>
    </clipPath>
    <clipPath id="clip-path-20">
      <rect id="Rechteck_1830" data-name="Rechteck 1830" width="198.834" height="100.385" fill="none"/>
    </clipPath>
    <clipPath id="clip-path-21">
      <rect id="Rechteck_1831" data-name="Rechteck 1831" width="120.186" height="89.168" fill="none"/>
    </clipPath>
    <clipPath id="clip-path-22">
      <rect id="Rechteck_1832" data-name="Rechteck 1832" width="14.543" height="2.915" fill="none"/>
    </clipPath>
    <clipPath id="clip-path-23">
      <rect id="Rechteck_1833" data-name="Rechteck 1833" width="9.695" height="3.082" fill="none"/>
    </clipPath>
    <clipPath id="clip-path-24">
      <rect id="Rechteck_1834" data-name="Rechteck 1834" width="69.705" height="33.505" fill="none"/>
    </clipPath>
  </defs>
  <g id="Ebene_1-2" transform="translate(-0.001 -0.001)">
    <g id="Gruppe_8076" data-name="Gruppe 8076" transform="translate(0.001 0.001)">
      <path id="Pfad_10830" data-name="Pfad 10830" d="M199.41,1074.571a99.617,99.617,0,0,0-83.766-98.451,23.254,23.254,0,0,0-8.712,17.46c0,8.96,5.937,16.895,15.056,21.826a63.355,63.355,0,1,1-51.25,3.181v-.124l.654-.212A67.668,67.668,0,0,1,78,1015.476c9.137-4.931,15.074-12.866,15.074-21.826a23.254,23.254,0,0,0-8.712-17.46,99.654,99.654,0,1,0,114.961,98.452l.089-.07Z" transform="translate(-0.001 -812.955)" fill="#484848"/>
      <path id="Pfad_10831" data-name="Pfad 10831" d="M199.41,99.759a99.6,99.6,0,0,1-83.766,98.451,23.218,23.218,0,0,1-8.712-17.46c0-8.96,5.937-16.895,15.056-21.826a63.371,63.371,0,1,0-51.249-3.181v.124l.654.212A63.9,63.9,0,0,0,78,158.854c9.137,4.931,15.074,12.866,15.074,21.826a23.218,23.218,0,0,1-8.712,17.46A99.653,99.653,0,1,1,199.321,99.689Z" transform="translate(-0.001 -0.001)" fill="#484848"/>
    </g>
    <g id="surface1" transform="translate(0.227 130.601)">
      <path id="Pfad_10832" data-name="Pfad 10832" d="M235.981,1023.276,218.9,968.753l-12.849,34.968L185.62,956.886l-5.289,4.132-6.609-9.428-18.84,21.376-14.859-36.746-13.264,35.915L106.123,925.77,92.535,956.58l-7.074-11.158-9.242,17.164-5.413-5.648L55.3,1000.743l-.288,21.839,19.683,8.122.164-9.346,161.121,1.916" transform="translate(-46.04 -901.621)" fill="#e58391"/>
      <path id="Pfad_10833" data-name="Pfad 10833" d="M155.49,847.487c.008-.152.023-.308.023-.46a8.2,8.2,0,0,0-12.007-7.278,10.656,10.656,0,0,0-19.907,2.5,6.515,6.515,0,0,0-1.685-.224,6.607,6.607,0,0,0,0,13.214h33.159a3.888,3.888,0,0,0,.415-7.753" transform="translate(-96.261 -825.116)" fill="#fff"/>
      <g id="Gruppe_8077" data-name="Gruppe 8077" transform="translate(160.543)" clip-path="url(#clip-path)">
        <path id="Pfad_10834" data-name="Pfad 10834" d="M983.97,784.792a5.655,5.655,0,0,0-2.616.645,7.349,7.349,0,0,0-13.729,1.723,4.554,4.554,0,1,0-1.647,8.931v.027h17.99a5.663,5.663,0,1,0,0-11.327" transform="translate(-961.888 -781.392)" fill="#f1f2f2"/>
      </g>
      <path id="Pfad_10835" data-name="Pfad 10835" d="M815.112,923.087c.007-.119.018-.234.018-.351a6.275,6.275,0,0,0-9.185-5.57,8.153,8.153,0,0,0-15.23,1.914,5.024,5.024,0,0,0-6.294,4.214,2.974,2.974,0,1,0-1.138,5.722H814.8a2.972,2.972,0,0,0,.319-5.927" transform="translate(-650.101 -890.736)" fill="#fff"/>
      <path id="Pfad_10836" data-name="Pfad 10836" d="M696.463,1261.02l-8.179,8.656-4.6-5.533-.319-.381-7.733,14.32-8.933-13.332-25.186,45.517,42.17-.629,35.88-.533Z" transform="translate(-534.503 -1180.831)" fill="#786864"/>
      <path id="Pfad_10837" data-name="Pfad 10837" d="M809.178,1102.89l-.013.025-16.985,30.137,8.933,13.333,7.733-14.32.319.381,4.6,5.533,8.179-8.655Z" transform="translate(-659.987 -1049.134)" fill="#fff"/>
      <path id="Pfad_10838" data-name="Pfad 10838" d="M172.527,1178.893l-7.621-19.113-16.891,13.234L133.4,1148.52l-.216.3-8.211,11.524-7.883-7.2-10.66,4.257-1.6-2.975L71.98,1210.876l61.208-1.69,39.339-1.09,11.519-.319Z" transform="translate(-60.174 -1087.136)" fill="#786864"/>
      <path id="Pfad_10839" data-name="Pfad 10839" d="M297.639,1051l-.756.575-28.353,21.632,1.6,2.975,10.66-4.257,7.883,7.2,8.211-11.524.216-.3,14.611,24.494,16.891-13.234Z" transform="translate(-223.869 -1005.918)" fill="#fff"/>
      <path id="Pfad_10840" data-name="Pfad 10840" d="M462.436,1059.675l-4.239,4.776-2.275-3.072-2.541-3.428-7.878,7.893-26.443,66.5h73.72Z" transform="translate(-349.237 -1011.706)" fill="#b4736d"/>
      <path id="Pfad_10841" data-name="Pfad 10841" d="M587.682,970.08l-.013.033L577.25,992.661l7.878-7.893,2.541,3.428,2.275,3.072,4.239-4.776Z" transform="translate(-480.984 -938.524)" fill="#f1f2f2"/>
      <path id="Pfad_10842" data-name="Pfad 10842" d="M683.295,1337.08H681.75v-4.98h1.545v4.98" transform="translate(-568.016 -1240.03)" fill="#f15a29"/>
      <path id="Pfad_10843" data-name="Pfad 10843" d="M658.28,1285.225a4.7,4.7,0,0,0,4.7,4.7v-9.393a4.693,4.693,0,0,0-4.7,4.7" transform="translate(-548.469 -1197.08)" fill="#bedb38"/>
      <path id="Pfad_10844" data-name="Pfad 10844" d="M691.067,1285.225a4.7,4.7,0,0,0-4.7-4.7v9.393a4.7,4.7,0,0,0,4.7-4.7" transform="translate(-571.864 -1197.08)" fill="#bedb38"/>
      <path id="Pfad_10845" data-name="Pfad 10845" d="M1064.033,1494.32h-1.543v-4.98h1.543v4.98" transform="translate(-885.113 -1370.986)" fill="#f15a29"/>
      <path id="Pfad_10846" data-name="Pfad 10846" d="M1039.01,1442.465a4.7,4.7,0,0,0,4.7,4.7v-9.393a4.694,4.694,0,0,0-4.7,4.7" transform="translate(-865.557 -1328.036)" fill="#bedb38"/>
      <path id="Pfad_10847" data-name="Pfad 10847" d="M1071.8,1442.465a4.694,4.694,0,0,0-4.7-4.7v9.393a4.7,4.7,0,0,0,4.7-4.7" transform="translate(-888.952 -1328.036)" fill="#bedb38"/>
      <path id="Pfad_10848" data-name="Pfad 10848" d="M593.449,1314.182H591.66v-4.833h1.789v4.833" transform="translate(-492.985 -1221.083)" fill="#f15a29"/>
      <path id="Pfad_10849" data-name="Pfad 10849" d="M573.376,1233.05,568.9,1245.8h4.487v-12.721l-.01-.033" transform="translate(-474.03 -1157.537)" fill="#bedb38"/>
      <path id="Pfad_10850" data-name="Pfad 10850" d="M595.74,1233.25v12.721h4.909Z" transform="translate(-496.383 -1157.703)" fill="#bedb38"/>
      <path id="Pfad_10851" data-name="Pfad 10851" d="M949.251,1432.755h-1.6V1417.04h1.6v15.714" transform="translate(-789.469 -1310.771)" fill="#f15a29"/>
      <path id="Pfad_10852" data-name="Pfad 10852" d="M919.519,1351.575c-1.242,1.284-4.069,3.069-4.069,6.558,0,6.133,6.185,6.235,6.185,6.235V1348.19a10.81,10.81,0,0,1-2.116,3.385" transform="translate(-762.651 -1253.43)" fill="#bedb38"/>
      <path id="Pfad_10853" data-name="Pfad 10853" d="M958.631,1358.133c0-3.489-2.827-5.274-4.069-6.558a10.764,10.764,0,0,1-2.113-3.385v16.177s6.18-.1,6.18-6.235" transform="translate(-793.466 -1253.43)" fill="#bedb38"/>
      <path id="Pfad_10854" data-name="Pfad 10854" d="M49.871,1416.015h-1.6V1400.3h1.6v15.714" transform="translate(-40.427 -1296.83)" fill="#f15a29"/>
      <path id="Pfad_10855" data-name="Pfad 10855" d="M20.139,1334.827c-1.242,1.284-4.069,3.067-4.069,6.554,0,6.135,6.181,6.235,6.181,6.235V1331.44a10.806,10.806,0,0,1-2.115,3.385" transform="translate(-13.609 -1239.48)" fill="#bedb38"/>
      <path id="Pfad_10856" data-name="Pfad 10856" d="M59.233,1341.389c0-3.489-2.827-5.272-4.069-6.554a10.826,10.826,0,0,1-2.115-3.385v16.176s6.181-.1,6.181-6.235" transform="translate(-44.408 -1239.488)" fill="#bedb38"/>
      <path id="Pfad_10857" data-name="Pfad 10857" d="M222.66,1409.994h-1.79v-4.834h1.79v4.834" transform="translate(-184.176 -1300.877)" fill="#f15a29"/>
      <path id="Pfad_10858" data-name="Pfad 10858" d="M202.576,1328.87l-4.476,12.752h4.488V1328.9l-.012-.03" transform="translate(-165.212 -1237.34)" fill="#bedb38"/>
      <path id="Pfad_10859" data-name="Pfad 10859" d="M224.96,1329.05v12.722h4.909Z" transform="translate(-187.582 -1237.49)" fill="#bedb38"/>
      <path id="Pfad_10860" data-name="Pfad 10860" d="M159.663,1412.951H158.12v-4.981h1.543v4.981" transform="translate(-131.915 -1303.217)" fill="#f15a29"/>
      <path id="Pfad_10861" data-name="Pfad 10861" d="M134.64,1361.115a4.7,4.7,0,0,0,4.7,4.7v-9.391a4.7,4.7,0,0,0-4.7,4.7" transform="translate(-112.36 -1260.284)" fill="#bedb38"/>
      <path id="Pfad_10862" data-name="Pfad 10862" d="M167.435,1361.115a4.694,4.694,0,0,0-4.7-4.7v9.391a4.7,4.7,0,0,0,4.7-4.7" transform="translate(-135.762 -1260.284)" fill="#bedb38"/>
      <g id="Gruppe_8078" data-name="Gruppe 8078" transform="translate(170.668 120.492)" clip-path="url(#clip-path-2)">
        <path id="Pfad_10863" data-name="Pfad 10863" d="M1037.77,1503.02c-8.127,0-14.72,6.332-14.72,14.146h14.727V1503.02h-.007" transform="translate(-1022.933 -1502.871)" fill="#51bb5e"/>
      </g>
      <g id="Gruppe_8079" data-name="Gruppe 8079" transform="translate(185.378 120.492)" clip-path="url(#clip-path-3)">
        <path id="Pfad_10864" data-name="Pfad 10864" d="M1111.15,1503.02v14.146h14.713c0-7.813-6.586-14.141-14.713-14.146" transform="translate(-1111.016 -1502.871)" fill="#51bb5e"/>
      </g>
      <g id="Gruppe_8080" data-name="Gruppe 8080" transform="translate(0.167 107.12)" clip-path="url(#clip-path-4)">
        <path id="Pfad_10865" data-name="Pfad 10865" d="M31.839,1422.222c-15.888,0-28.769,12.381-28.769,27.65h0l28.771,0V1422.22h0" transform="translate(-2.95 -1422.205)" fill="#51bb5e"/>
      </g>
      <g id="Gruppe_8081" data-name="Gruppe 8081" transform="translate(28.918 107.12)" clip-path="url(#clip-path-4)">
        <path id="Pfad_10866" data-name="Pfad 10866" d="M203.963,1449.88c0-15.268-12.879-27.648-28.773-27.65v27.653h28.773" transform="translate(-175.05 -1422.213)" fill="#51bb5e"/>
      </g>
      <g id="Gruppe_8082" data-name="Gruppe 8082" transform="translate(49.311 91.574)" clip-path="url(#clip-path-6)">
        <path id="Pfad_10867" data-name="Pfad 10867" d="M297.28,1372.45h0l44.939,0V1329.26c-24.818,0-44.939,19.337-44.939,43.19" transform="translate(-297.125 -1329.238)" fill="#bedb38"/>
      </g>
      <g id="Gruppe_8083" data-name="Gruppe 8083" transform="translate(94.277 91.574)" clip-path="url(#clip-path-6)">
        <path id="Pfad_10868" data-name="Pfad 10868" d="M611.06,1372.45c0-23.853-20.119-43.19-44.94-43.19v43.192h44.94" transform="translate(-565.991 -1329.238)" fill="#bedb38"/>
      </g>
      <g id="Gruppe_8084" data-name="Gruppe 8084" transform="translate(128.544 112.636)" clip-path="url(#clip-path-8)">
        <path id="Pfad_10869" data-name="Pfad 10869" d="M794.161,1455.46c-12.7,0-22.991,9.894-22.991,22.1h22.991v-22.1" transform="translate(-771.033 -1455.405)" fill="#bedb38"/>
      </g>
      <g id="Gruppe_8085" data-name="Gruppe 8085" transform="translate(151.612 112.636)" clip-path="url(#clip-path-9)">
        <path id="Pfad_10870" data-name="Pfad 10870" d="M908.71,1455.46v22.1H931.7c0-12.2-10.292-22.1-22.991-22.1" transform="translate(-908.65 -1455.405)" fill="#bedb38"/>
      </g>
      <g id="Gruppe_8086" data-name="Gruppe 8086" transform="translate(107.984 124.671)" clip-path="url(#clip-path-10)">
        <path id="Pfad_10871" data-name="Pfad 10871" d="M651.367,1536.7H647.88v-9.083h3.487v9.083" transform="translate(-647.791 -1527.538)" fill="#f15a29"/>
      </g>
      <path id="Pfad_10872" data-name="Pfad 10872" d="M612.616,1440.91l-5.25,7.219h2.547l-3.779,5.194h2.481L603.76,1460h8.861v-19.081l0-.007" transform="translate(-503.063 -1330.651)" fill="#51bb5e"/>
      <path id="Pfad_10873" data-name="Pfad 10873" d="M660.8,1453.357h2.965l-4.157-5.194h2.922l-5.77-7.213v19.081h9.379l-5.339-6.675" transform="translate(-547.203 -1330.685)" fill="#51bb5e"/>
      <g id="Gruppe_8087" data-name="Gruppe 8087" transform="translate(67.364 123.167)" clip-path="url(#clip-path-11)">
        <path id="Pfad_10874" data-name="Pfad 10874" d="M408.684,1529.366H404.63V1518.81h4.054v10.556" transform="translate(-404.583 -1518.696)" fill="#f15a29"/>
      </g>
      <path id="Pfad_10875" data-name="Pfad 10875" d="M363.645,1418.02l-6.1,8.391h2.96l-4.393,6.036h2.882l-5.642,7.758h10.3v-22.178l-.005-.007" transform="translate(-294.511 -1311.588)" fill="#51bb5e"/>
      <path id="Pfad_10876" data-name="Pfad 10876" d="M419.665,1432.481h3.443l-4.831-6.036h3.4l-6.7-8.385v22.178h10.9l-6.2-7.758" transform="translate(-345.83 -1311.621)" fill="#51bb5e"/>
      <g id="Gruppe_8088" data-name="Gruppe 8088" transform="translate(132.389 119.991)" clip-path="url(#clip-path-12)">
        <path id="Pfad_10877" data-name="Pfad 10877" d="M799.06,1513.317H793.77V1499.54h5.291v13.777" transform="translate(-793.7 -1499.471)" fill="#f15a29"/>
      </g>
      <path id="Pfad_10878" data-name="Pfad 10878" d="M740.284,1361.27l-7.963,12.077h3.863l-5.732,7.88h3.758l-7.36,10.123h13.44v-30.07l-.005-.008" transform="translate(-605.577 -1264.324)" fill="#51bb5e"/>
      <path id="Pfad_10879" data-name="Pfad 10879" d="M813.376,1381.267h4.495l-6.3-7.88H816l-8.754-12.067v30.07h14.225l-8.1-10.123" transform="translate(-672.538 -1264.365)" fill="#51bb5e"/>
      <g id="Gruppe_8089" data-name="Gruppe 8089" transform="translate(9.194 124.504)" clip-path="url(#clip-path-13)">
        <path id="Pfad_10880" data-name="Pfad 10880" d="M56.74,1533.6a7.256,7.256,0,0,0,.3,2.066H64.05v-9.376a7.309,7.309,0,0,0-7.308,7.308" transform="translate(-56.675 -1526.263)" fill="#bedb38"/>
      </g>
      <g id="Gruppe_8090" data-name="Gruppe 8090" transform="translate(16.549 124.504)" clip-path="url(#clip-path-14)">
        <path id="Pfad_10881" data-name="Pfad 10881" d="M107.77,1533.608a7.311,7.311,0,0,0-7.31-7.308v9.376h7.007a7.257,7.257,0,0,0,.3-2.066" transform="translate(-100.442 -1526.272)" fill="#bedb38"/>
      </g>
      <g id="Gruppe_8091" data-name="Gruppe 8091" transform="translate(21.229 126.677)" clip-path="url(#clip-path-15)">
        <path id="Pfad_10882" data-name="Pfad 10882" d="M128.78,1545.55a5.544,5.544,0,0,0,.227,1.561H134.3v-7.081a5.521,5.521,0,0,0-5.52,5.52" transform="translate(-128.708 -1539.88)" fill="#bedb38"/>
      </g>
      <g id="Gruppe_8092" data-name="Gruppe 8092" transform="translate(26.745 126.677)" clip-path="url(#clip-path-15)">
        <path id="Pfad_10883" data-name="Pfad 10883" d="M167.323,1545.55a5.523,5.523,0,0,0-5.523-5.52v7.081h5.3a5.535,5.535,0,0,0,.227-1.561" transform="translate(-161.725 -1539.88)" fill="#bedb38"/>
      </g>
      <g id="Gruppe_8093" data-name="Gruppe 8093" transform="translate(179.527 125.674)" clip-path="url(#clip-path-17)">
        <path id="Pfad_10884" data-name="Pfad 10884" d="M1075.682,1538.294a4.264,4.264,0,0,0,.176,1.2h4.085v-5.468a4.265,4.265,0,0,0-4.262,4.264" transform="translate(-1075.625 -1533.88)" fill="#bedb38"/>
      </g>
      <g id="Gruppe_8094" data-name="Gruppe 8094" transform="translate(183.706 125.674)" clip-path="url(#clip-path-18)">
        <path id="Pfad_10885" data-name="Pfad 10885" d="M1105.444,1538.294a4.264,4.264,0,0,0-4.264-4.264v5.468h4.087a4.221,4.221,0,0,0,.176-1.2" transform="translate(-1101.041 -1533.88)" fill="#bedb38"/>
      </g>
      <g id="Gruppe_8095" data-name="Gruppe 8095" transform="translate(34.769 130.856)" clip-path="url(#clip-path-19)">
        <path id="Pfad_10886" data-name="Pfad 10886" d="M377.563,1564.48,210.1,1567.226l167.463,1.929Z" transform="translate(-209.975 -1564.422)" fill="#bedb38"/>
      </g>
      <g id="Gruppe_8096" data-name="Gruppe 8096" transform="translate(0 130.281)" clip-path="url(#clip-path-20)">
        <path id="Pfad_10887" data-name="Pfad 10887" d="M100.88,1170.954a99.477,99.477,0,1,1,99.425-99.475,99.565,99.565,0,0,1-99.425,99.475" transform="translate(-1.433 -1070.404)" fill="#207178"/>
      </g>
      <g id="Gruppe_8097" data-name="Gruppe 8097" transform="translate(9.194 130.281)" clip-path="url(#clip-path-21)">
        <path id="Pfad_10888" data-name="Pfad 10888" d="M176.519,1268.97a20.955,20.955,0,0,1-2.089-6.914c-.13-1.638.41-3.251.217-4.884-.329-2.763-4.115-2.7-6.059-2.695-4.59.028-9.347.745-13.565-1.391a22.105,22.105,0,0,0-4.4-1.824c-2.477-.647-5.247,1.2-7.489-.68-2.37-1.991-4.8-1.367-7.779-1.367-2.394,0-5.692-.61-7.43,1.469a6.951,6.951,0,0,0-1.06,2.932c-.361,1.558-3.467-.159-4.5-.13-1.242.035-.217,2.845-3.29-.048-.483-.46-.692-1.135-1.14-1.618a6.464,6.464,0,0,0-3.7-2.178c-2.018-.433-4.054.378-4.923-2.183a6.673,6.673,0,0,0-1.364-2.77c-1.551-1.294-3.122-.415-4.035,1.185-3.718,6.5-5.947-1.6-5.359-4.787.451-2.472,2.048-5.3,4.5-6.257,1.215-.475,2.92.4,4.044-.262,1.287-.757.61-2.566,3.109-2.081a10.6,10.6,0,0,1,4.082,2.328c.486.368,2.867,2.088,3.2.521.562-2.6-1.952-3.188-3.1-5.038-1.128-1.825-.035-4.563.082-6.574.129-2.183.284-5.17,2.43-6.454A2.134,2.134,0,0,0,118.1,1216c.445-1.2,1.12-2.522,1.433-3.736a14.845,14.845,0,0,0,.217-3.6c.043-3.632,5.14-.73,6.621-1.143a2.6,2.6,0,0,0,1.845-3.363c-.222-.629-.886-.828-1.439-1.04a1.785,1.785,0,0,0-.991.008c-1.794.441-1.374-.617-2.3-1.158-1.3-.769-2.848.105-4.044.779a.607.607,0,0,0-.537.12,2.234,2.234,0,0,1,.072-1.349,4.659,4.659,0,0,1,1.421-2.14c1.377-1.5,2.263-2.048,4.438-1.561.842.189,2.355-.928,3.027.028.508.725.933,1.521,1.9,1.743,1.267.289,4.232.9,5.454.192,1.389-.811.794-2.994.219-4.075-.3-.567-1.132-.72-1.68-.839-1.9-.41-2.151-1.748-3.268-2.924a5.939,5.939,0,0,0-2.683-1.145,9.5,9.5,0,0,1-5-2.629c-.725-.744-2.476-2.713-3.773-1.986-.968.54-2.064,2.571-3.308,2.049a9.706,9.706,0,0,0-3.435-1.137c-5.185-.251-6.745,5.4-4.092,9.159,1.426,2.014-9.269,3.036-10.162,3.154a12.879,12.879,0,0,1-1.344.117c-2.268.129-2.537-2.656-1.585-4.271a35.74,35.74,0,0,1,2.272-3.978c.575-.739,1.74,1.252,2.064,1.558a1.65,1.65,0,0,0,1.518.286c1.483-.41,2.409-2.5,2.8-3.818.495-1.71-1.05-3.917-1.553-5.473-.744-2.285,2.492-.6,3.052-.333.664.309,2.666,1.17,2.756,2a.627.627,0,0,0,.61.612,6.232,6.232,0,0,0,1.805-.147c1.952-.343,2.782.6,4.3,1.135a1.488,1.488,0,0,0,1.929-.644c1.073-1.633,2.631-4.2-.062-5.072-1.421-.463,1.815-.639,2.243-.821.692-.3,1.9-.74,1.62-1.77a1.82,1.82,0,0,0-1.588-1.122c-2.165.107-4.266.627-6.441.652-1.971.023-3.335-1.533-5.219-1.733a18.564,18.564,0,0,0-5.827.027c-1.857.508-2.6,2.131-4.682,1.4-1.18-.416-2.409-1.112-3.7-1.01-1.234.1-1.272,2-.169,2.362a9.779,9.779,0,0,0,1.486.3c.953.151.966,2.12,1.185,2.855.455,1.536,1.789,2.532,2.636,3.865a19.8,19.8,0,0,1-2.611-1.986c-1.107-.9-1.406-1.919-2.156-3.054-1.071-1.636-2.593.149-2.934,1.227a7.718,7.718,0,0,0-.154,3.276c.189,1.207,1.05,3.59-2.076,2.738a8.5,8.5,0,0,0-2.616-.416c-2.29.062-1.561.526-2.741-1.3-.654-1.011-1.3-1.68-2.539-1.588-.682.048-.918.923-1.093,1.451-.909,2.725-2.766,4.164-5.805,4.567-2.32.307-5.377.516-6.6,2.909-.749,1.473,1.827,2.636,2.912,2.275,1.476-.493,2.2-1.411,3.932-1.306a13.211,13.211,0,0,0,5.194-1.083c-3.564,2.8-6.847,3.42-11.424,3.435-2.238.01-5.163.194-6.539,2.29-1.254,1.917-1.351,4.184-1.382,6.417a41.145,41.145,0,0,1-1.546,11.071c-.386,1.362-1.959,7.412.63,7.46,1.456.03,2-2.024,2.186-3.057l1.61-.639a6.984,6.984,0,0,1,.644,1.825c.231.893.4,1.81.6,2.71.52,2.405.958,4.828,1.483,7.233a11.309,11.309,0,0,0,3.773,6.579,51.719,51.719,0,0,0,4.5,2.855c2.138,1.322,3.211,3.472,4.324,5.62,1.185,2.288,2.522,4.047,4.956,4.965,1.045.394,4.134.714,3.906-1.337-.237-2.16-2.37-2.392-3.753-3.661-.453-.42-3.8-3.987-1.092-3.9,2.738.075,4.642,2.337,6.242,4.269a19.649,19.649,0,0,0,7.467,6.029c3.122,1.317,6.325.861,9.546.286a12.465,12.465,0,0,1,8.11.818c1.969.961,4.236.986,5.834,2.641a4.808,4.808,0,0,0,2.872,1.309,6.337,6.337,0,0,0,1.762-.043c2.039-.231,3.2,1.092,4.062,2.693,1.386,2.579.44,3.786-.61,6.083a4.045,4.045,0,0,0,.028,3.382c.44,1.468.495,3.1,1.571,4.314a62.874,62.874,0,0,0,4.525,4.884c1.209,1.107,2.792,1.58,4,2.7.886.826,1.742,1.842,3.039,1.957,3.054.276,4.43,1,5.944,3.672a44.536,44.536,0,0,1,2.581,5.7,25.884,25.884,0,0,1,1.113,14.15,4.784,4.784,0,0,0,.339,3.228c1.073,2.226,4.886,4.247,1.509,6.95a.6.6,0,0,0-.1.735c3.234,4.458,6.823,9.66,12.839,9.961.881.048,4.028-.169,3.584-1.782-.216-.777-1.006-1.158-1.643-1.523-.771-.441-1.668-.707-2.459-1.137-1.693-.918-2.506-3.352-3-5.048a18.824,18.824,0,0,1-.49-5.677c.048-2.153,2.171-2.166,3.825-2.16,1.165.01,2.5-1.436,1.265-2.424-1.3-1.033-.411-1.941.062-3.164.3-.779-.557-1.88-.953-2.425a7.767,7.767,0,0,1-1.406-2.285c-.231-.645-.944-4.01,1.638-2.014a4.669,4.669,0,0,0,2.89,1.265c1.755,0,1.829-2.063,1.692-3.313a29.865,29.865,0,0,0-1.421-4.645c-.7-2.439,1.712-5.473,2.379-7.813.518-1.807.72-4.4,2.435-5.474a7.245,7.245,0,0,0,2.457-2.192c1.638-2.659,2.583-5.9,1.267-8.9" transform="translate(-57.004 -1240.603)" fill="#66bcb5"/>
      </g>
      <g id="Gruppe_8098" data-name="Gruppe 8098" transform="translate(62.684 130.281)" clip-path="url(#clip-path-22)">
        <path id="Pfad_10889" data-name="Pfad 10889" d="M383.72,1543.408c-1.9.2-7.22,1.188-6.372,4.277.913,3.308,6-.555,7.472-1.411a5.329,5.329,0,0,1,3.83,1.792,1.352,1.352,0,0,0,1.093.381,2.774,2.774,0,0,0,1.837-2.715c-.16-3.2-5.957-2.531-7.86-2.325" transform="translate(-377.105 -1546.129)" fill="#66bcb5"/>
      </g>
      <g id="Gruppe_8099" data-name="Gruppe 8099" transform="translate(77.227 130.281)" clip-path="url(#clip-path-23)">
        <path id="Pfad_10890" data-name="Pfad 10890" d="M473.211,1546.377a.611.611,0,0,0-.588-.445c-1.8-.062-3.893-.839-5.6-.144a.485.485,0,0,0-.567.03,6.467,6.467,0,0,0-2.775,3.117c-.425,1.424,1.316,2.135,2.429,2.048,1.688-.144,3.173-1.434,4.749-1.984,1.27-.441,2.6-1.077,2.349-2.624" transform="translate(-463.574 -1548.04)" fill="#66bcb5"/>
      </g>
      <g id="Gruppe_8100" data-name="Gruppe 8100" transform="translate(128.711 130.281)" clip-path="url(#clip-path-24)">
        <path id="Pfad_10891" data-name="Pfad 10891" d="M792.677,1028.043c1.566.657,3.325.864,4.66,2.011,1.2,1.023-2.158.672-2.24.662-.894-.107-1.779-.251-2.668-.338-2.253-.227-3.791,1.949-5.976,2-1.645.049,1.464-3.174,1.7-3.7.364-.794-.216-1.406-.822-1.83-1.356-.953-2.31-1.364-1.881-3.454a5.449,5.449,0,0,1,2.138-2.676c1.8.986,3.815,2.156,6.011,3.559a1.84,1.84,0,0,0-1.185,1.229c-2.29.149-1.886,1.633.261,2.527Zm16.906,25.49q1.457,1.9-1.737,2.5a13.037,13.037,0,0,0-1.215-.769,6.468,6.468,0,0,0-2.992-.426,8.222,8.222,0,0,0-3.138.894c-1.72.777-.968-.277-1.316-1.7-1.016-4.169-8.226,1.2-9.692,2.322a16.8,16.8,0,0,1-3.7,2.4c-2.509,1-1.964-4.262-1.817-5.078.506-2.748,4.714-5.429,7.047-6.364,2.4-.964,4.3.376,6.054,1.874.517.445,1.307,2.12,2.014,2.46a2.989,2.989,0,0,0,3.462-.734c2.5-2.469-3.206-4.361-4.709-5.18-1.341-.729-2.84-3.174-.319-1.675.859.513,1.595,1.224,2.437,1.773,2.345,1.528,5.026,2.262,7.312,3.9.771.55,2.741,1.869,3.776,1.073a1.464,1.464,0,0,0,.769-1.137c.1-.435-.391-2.889.6-1.59.5.649,1.677,1.424,2.407.687.692-.692-.182-2.1-.634-3.164a23.019,23.019,0,0,0,2.576,1.421,8.02,8.02,0,0,0,2.6.172q1.256,1.56,2.472,3.214a6.773,6.773,0,0,0-1.58.11,15.212,15.212,0,0,1-4.69.232,4.632,4.632,0,0,0-2.529.135c-1.165.682-1.558,1.543-3.089,1.754a.619.619,0,0,0-.366.9Zm13.994-2.1a9.743,9.743,0,0,1-.5-.854l-.149-.023a98.69,98.69,0,0,0-7.587-9.3c-16.015-17.309-34.205-24.913-35.65-25.174l-.067.371c-.2-.117-.416-.222-.605-.358-.744.734-1.394,1.524-2.1,2.3-.667.735-1.755.369-2.424,1.015-1.234,1.18-1.234,2.7-1.162,4.334a4.233,4.233,0,0,1-1.056,3.438,3.018,3.018,0,0,0-.794,1.755c.025.816.145,2.083,1.177,2.285,1.334.261,3.763-.958,3.763,1.247,0,1.324,1.285,1.585,2.35,1.73,4.176.573.824,6.081-.333,7.9a9.173,9.173,0,0,1-2.616,2.9,5.131,5.131,0,0,0-1.528,1.152.6.6,0,0,0,0,.618,2.988,2.988,0,0,0,1.822,1.11l.164.02q2.234-.263.59,3.208c-.542.227-1.127.381-1.678.588a4.072,4.072,0,0,0-2.516,4.752,6.905,6.905,0,0,0,4.973,5.008,1.79,1.79,0,0,0,1.954-.829c1.534-1.924,1.663,1.237,1.655,1.555a8.342,8.342,0,0,1-.537,2.641c-1.145,3.42-2.713,6.884-2.912,10.546-.192,3.415,1.224,7.159,2.608,10.242a23.6,23.6,0,0,0,5.237,8.02c2.379,2.2,5.566,5.575,8.786,6.526,2.347.7,3.153-.737,4.57-2.4,2.238-2.633,5.678,1.364,7-.884.613-1.043-.49-3.134,1.5-3.382,1.839-.226,5.3-.562,6.566,1.092.973,1.285.7,3.748,1.1,5.329a15.718,15.718,0,0,0,2.964,5.267,20.644,20.644,0,0,1,3.086,5.025c.5,1.4-1.6,3.514-2.006,4.961a2.771,2.771,0,0,0,.379,2.32c1.446,2.487,2.716,4.062,2.833,7.146.038.991-.247,2.439.582,3.265,1.576,1.58,3.883.261,4.269,3.841.289,2.7-.087,5.1,1.15,7.659,1.107,2.277,4.8.762,6.108-.528a3.034,3.034,0,0,0,.856-1.165,13.494,13.494,0,0,1,2.123-4.067,9.862,9.862,0,0,0,1.04-2.512c.207-.6.354-2.211.684-3.261v-1.058l.4.062c5.227-34.19-4.418-58.886-16.069-75.433" transform="translate(-771.464 -1107.124)" fill="#66bcb5"/>
      </g>
    </g>
  </g>
</svg>
