<svg xmlns="http://www.w3.org/2000/svg" xmlns:xlink="http://www.w3.org/1999/xlink" width="283.996" height="278.481" xmlns:v="https://vecta.io/nano"><style><![CDATA[.S{fill:#207178}.T{fill:#263238}.U{fill:#fff}.V{opacity:.8}.W{fill:#ffbe9d}.X{fill:#455a64}.Y{fill:#f5f5f5}]]></style><use xlink:href="#B" class="S"/><use xlink:href="#B" class="U V"/><use xlink:href="#C" class="S"/><use xlink:href="#C" x="0.001" class="U V"/><path d="M126.572 1.775a3.74 3.74 0 0 0 2.552 7.026 3.74 3.74 0 0 0-1.94-7.219" class="S"/><path d="M126.572 1.775a3.74 3.74 0 0 0 2.552 7.026 3.74 3.74 0 0 0-1.94-7.219" class="U V"/><use xlink:href="#D" class="S"/><use xlink:href="#D" y="-0.001" class="U V"/><use xlink:href="#E" class="S"/><use xlink:href="#E" class="U V"/><path d="M81.863 18.348h8.18v16.86a3.6 3.6 0 0 1-3.6 3.6h-.972a3.6 3.6 0 0 1-3.6-3.6v-16.86z" class="S"/><path d="M81.863 18.348l4.087-7.5 4.094 7.5z" class="W"/><path d="M84.332 13.816s1.245 1.87 3.242 0l-1.617-2.969z" class="S"/><path d="M90.156 34.39a25.96 25.96 0 0 1-4.16.166 25.86 25.86 0 0 1-4.153-.166 25.86 25.86 0 0 1 4.153-.166 25.96 25.96 0 0 1 4.16.166zm-.113-1.259a24.9 24.9 0 0 1-4.074.166 24.9 24.9 0 0 1-4.074-.166 26.36 26.36 0 0 1 4.074-.16 26.36 26.36 0 0 1 4.074.16z" class="T"/><path d="M84.265 18.468c.087 0 .166 3.261.166 7.288l-.166 7.322c-.086 0-.166-3.268-.166-7.322l.166-7.288zm3.308 0c.093 0 .166 3.261.166 7.288l-.166 7.322c-.093 0-.166-3.268-.166-7.322l.166-7.288z" fill="#fafafa"/><path d="M245.937 228.848l37.161 1.591.9 2.163-24.363 39.537-43.97-1.285z" class="T"/><path d="M214.001 267.004l44.23 2.529 23.11-35.856-16.228 1.318-41.061 14.457z" fill="#e0e0e0"/><path d="M207.784 264.344l40.6.666c-1.684-5.2 2.29-12.513 7.754-14.976 3.621-1.631 10.43-3.747 13.945-5.551 6.656-3.428 12.713-9.911 12.187-15.482l-16.693-.552-21.3-.825c-1.784 5.285-5.591 8.74-11.382 10.823-5.178 1.864-11.076 1.857-16.134 3.994-8.134 3.408-12.041 14.45-9.012 21.925" fill="#ebebeb"/><g class="T"><path d="M207.784 264.345s-.04-.087-.1-.266l-.28-.779a9.46 9.46 0 0 1-.346-1.331c-.136-.609-.23-1.228-.28-1.85a19.01 19.01 0 0 1 .319-5.165 19.3 19.3 0 0 1 2.609-6.443 15.68 15.68 0 0 1 1.165-1.637l.666-.8.752-.765c.251-.263.523-.505.812-.726l.872-.7a14.94 14.94 0 0 1 2-1.185c2.816-1.418 6.177-2 9.678-2.663 1.757-.319 3.568-.666 5.378-1.151 1.863-.511 3.661-1.235 5.358-2.157a17.69 17.69 0 0 0 2.5-1.637 14.99 14.99 0 0 0 2.216-2.1c1.378-1.594 2.428-3.444 3.088-5.445l.04-.113h.113l17.738.666 19.05.626 1.185.04h.146v.146c.089 1.275-.092 2.554-.532 3.754a14.27 14.27 0 0 1-.745 1.731c-.294.551-.618 1.085-.972 1.6-1.403 2.015-3.099 3.81-5.032 5.325a29.85 29.85 0 0 1-6.077 3.747c-2.143.965-4.313 1.751-6.436 2.536s-4.227 1.531-6.217 2.4a12.42 12.42 0 0 0-2.736 1.664c-.433.306-.792.7-1.185 1.038a7.31 7.31 0 0 0-1.045 1.172 15.08 15.08 0 0 0-2.842 5.325 9.92 9.92 0 0 0-.1 5.684l.06.18h-.186l-29.546-.519-8.194-.166-2.143-.06h2.15l8.194.093 29.54.413-.126.173a10.12 10.12 0 0 1 .087-5.844 15.21 15.21 0 0 1 2.882-5.445c.313-.426.706-.792 1.058-1.191a7.46 7.46 0 0 1 1.211-1.072 12.3 12.3 0 0 1 2.8-1.7c2-.879 4.113-1.631 6.237-2.416s4.287-1.577 6.41-2.536a29.19 29.19 0 0 0 5.99-3.714c1.903-1.492 3.573-3.26 4.955-5.245.348-.498.67-1.013.965-1.544.278-.545.52-1.107.725-1.684.424-1.155.601-2.386.519-3.614l.16.146-1.191-.033-19.043-.666-17.745-.666.153-.107c-.679 2.037-1.751 3.921-3.155 5.545-.679.786-1.438 1.499-2.263 2.13a17.3 17.3 0 0 1-2.543 1.657 24.98 24.98 0 0 1-5.418 2.17c-1.83.5-3.648.832-5.4 1.145-3.5.626-6.849 1.211-9.625 2.6-.679.334-1.331.722-1.95 1.158-.306.213-.579.459-.865.666a6.9 6.9 0 0 0-.805.719l-.772.765c-.24.253-.446.533-.666.792a14.71 14.71 0 0 0-1.165 1.611c-1.253 1.948-2.139 4.109-2.616 6.376-.357 1.683-.481 3.408-.366 5.125.04.62.124 1.236.253 1.844a9.48 9.48 0 0 0 .319 1.331l.253.792c.023.087.057.171.102.25z"/><path d="M255.721 228.283a6.97 6.97 0 0 0 .093-.726c.049-.655-.06-1.313-.319-1.917-.363-.901-1.045-1.635-1.917-2.063-1.08-.504-2.318-.547-3.43-.12s-2.004 1.287-2.47 2.383a4.92 4.92 0 0 0-.393 2.829c.097.647.323 1.267.666 1.824l.419.606c-.206-.142-.382-.323-.519-.533a4.45 4.45 0 0 1-.819-1.857 5 5 0 0 1 .339-3 4.66 4.66 0 0 1 6.31-2.41 4.1 4.1 0 0 1 2 2.25c.249.635.327 1.325.226 2-.027.184-.071.364-.133.539-.013.141-.039.195-.053.195z"/><path d="M262.091 228.282c-.033 0 .053-.26.093-.726a4.18 4.18 0 0 0-.319-1.917c-.366-.901-1.051-1.635-1.924-2.063a4.4 4.4 0 0 0-5.9 2.263 4.91 4.91 0 0 0-.386 2.829 4.74 4.74 0 0 0 .666 1.824l.419.606c-.211-.138-.39-.319-.526-.532a4.54 4.54 0 0 1-.819-1.857 5.06 5.06 0 0 1 .346-3 4.66 4.66 0 0 1 6.3-2.409 4.1 4.1 0 0 1 2 2.25c.247.636.327 1.324.233 2a2.36 2.36 0 0 1-.14.539.47.47 0 0 1-.047.193z"/><path d="M266.91 228.616a6.79 6.79 0 0 0 .053-.732c.011-.658-.135-1.309-.426-1.9a3.94 3.94 0 0 0-2.037-1.944c-1.103-.436-2.336-.412-3.421.067-1.081.496-1.922 1.401-2.336 2.516-.356.906-.437 1.897-.233 2.849a4.77 4.77 0 0 0 .8 1.784l.453.579c-.217-.126-.405-.296-.552-.5a4.5 4.5 0 0 1-.925-1.81 5.05 5.05 0 0 1 .173-3.009 4.66 4.66 0 0 1 6.164-2.762 4.1 4.1 0 0 1 2.123 2.13 3.9 3.9 0 0 1 .346 2c-.014.186-.049.369-.106.546-.008.068-.035.132-.076.186z"/><path d="M272.109 228.906v-.732c-.022-.657-.202-1.298-.526-1.87-.461-.856-1.222-1.51-2.137-1.837-1.127-.381-2.36-.288-3.417.256s-1.849 1.494-2.194 2.633a4.9 4.9 0 0 0-.08 2.855 4.84 4.84 0 0 0 .892 1.744l.479.552c-.223-.117-.42-.278-.579-.473-.468-.501-.816-1.102-1.018-1.757a5.05 5.05 0 0 1 0-3.015 4.71 4.71 0 0 1 2.336-2.835 4.66 4.66 0 0 1 3.674-.246c.97.363 1.768 1.076 2.236 2 .323.615.477 1.306.446 2a2.77 2.77 0 0 1-.073.546c-.006.121-.023.179-.039.179z"/><path d="M277.302 228.788v-.732a4.08 4.08 0 0 0-.579-1.857c-.485-.84-1.262-1.473-2.183-1.777-1.138-.352-2.37-.226-3.413.349s-1.808 1.549-2.118 2.699c-.486 1.585-.133 3.308.939 4.573l.5.532a1.7 1.7 0 0 1-.592-.446c-.479-.491-.843-1.082-1.065-1.731a5.04 5.04 0 0 1-.073-3.015c.331-1.231 1.144-2.277 2.256-2.9a4.66 4.66 0 0 1 3.661-.346 4.14 4.14 0 0 1 2.3 1.944c.341.611.513 1.301.5 2a2.61 2.61 0 0 1-.06.552c-.042.089-.062.155-.073.155z"/><path d="M281.68 229.367v-.732a4.07 4.07 0 0 0-.506-1.877c-.452-.857-1.203-1.518-2.11-1.857-1.122-.396-2.357-.319-3.421.213s-1.867 1.474-2.223 2.609a4.89 4.89 0 0 0 .752 4.606l.479.559c-.222-.118-.417-.281-.572-.479a4.44 4.44 0 0 1-1-1.771c-.293-.986-.277-2.038.047-3.015.377-1.218 1.232-2.232 2.37-2.809a4.66 4.66 0 0 1 3.674-.2 4.08 4.08 0 0 1 2.21 2.037c.317.617.464 1.307.426 2a2.66 2.66 0 0 1-.08.546c-.011.11-.033.177-.046.17z"/></g><path d="M227.854 109.018a36.33 36.33 0 0 0-5.5.253c-11.464 1.475-20.029 11.266-19.968 22.824a40.8 40.8 0 0 0 1.418 10.883c3.2 11.355 4.187 21.359 3.821 26.238l10.716 5.758s4.959-7.129 9.751-10.2 20.74-11.315 27.057-19.735c4.067-5.445 4.852-16.64-4.852-26.4a32.9 32.9 0 0 0-22.443-9.621z" class="S"/><path d="M202.497 181.609l9.678 5.232-6.3 8-6.456-2.929z" class="X"/><path d="M202.969 181.935c-.087-.033.872-2.909 2.143-6.416l2.456-6.3c.086.037-.872 2.9-2.143 6.417l-2.456 6.299zm8.6 4.526c-.08-.047 1.438-2.762 3.381-6.064l3.675-5.917c.084 0-1.438 2.762-3.388 6.064l-3.668 5.917z" class="T"/><path d="M231.052 109.319c-.433 0-5.758 6.257-8.114 10.477-7.927 14.2-8.287 28.009-10.483 44.117-.313 2.3-1.458 7.262-1.438 7.149a42.65 42.65 0 0 0 5.112 2.749s3.721-4.486 5.2-6.743c5.911-9.032 12.334-16.081 17.4-25.619s9.938-17.971 5.252-27.729c-.003-.001-8.137-4.67-12.929-4.401z" opacity=".4"/><path d="M255.146 146.458a1.8 1.8 0 0 1-.14-.306l-.373-.9a16.08 16.08 0 0 0-1.87-3.148c-1.138-1.505-2.527-2.802-4.107-3.834a15.72 15.72 0 0 0-6.743-2.5h-.08l-.04-.053a38.03 38.03 0 0 0-4.32-4.965 21.79 21.79 0 0 0-5.9-4.06 15.17 15.17 0 0 0-6.982-1.331 11.52 11.52 0 0 0-6.1 2.037l-.1.067-.087-.08a11.98 11.98 0 0 0-6.523-2.9 11.76 11.76 0 0 0-5.545.706 12.45 12.45 0 0 0-3.182 1.791l-.745.626a1.68 1.68 0 0 1-.26.213 2.9 2.9 0 0 1 .226-.246c.153-.16.393-.386.719-.666a11.68 11.68 0 0 1 3.182-1.884 11.83 11.83 0 0 1 5.638-.785c2.476.267 4.811 1.287 6.689 2.922h-.186a11.79 11.79 0 0 1 6.263-2.11 15.52 15.52 0 0 1 7.129 1.331c2.213 1.035 4.238 2.432 5.991 4.133 1.594 1.542 3.046 3.224 4.34 5.025l-.1-.06a15.73 15.73 0 0 1 6.842 2.583 16.43 16.43 0 0 1 4.12 3.934c.733.996 1.341 2.078 1.811 3.222.166.393.26.712.333.919a2.58 2.58 0 0 1 .106.313zm-19.928 14.144a6.91 6.91 0 0 0-.925-2.323 6.32 6.32 0 0 0-2.057-2c-1.061-.657-2.306-.951-3.548-.839h-.133v-.133c-.47-2.983-2.353-5.555-5.056-6.903a9.34 9.34 0 0 0-8.556.114l-.1.053-.08-.087a6.79 6.79 0 0 0-3.721-2 7.5 7.5 0 0 0-3.328.107 7.82 7.82 0 0 0-2.662 1.331.84.84 0 0 1 .14-.146l.453-.379c.609-.43 1.284-.757 2-.965a7.52 7.52 0 0 1 3.428-.173 6.95 6.95 0 0 1 3.894 2.057l-.18-.033a9.68 9.68 0 0 1 3.821-1.1 9.81 9.81 0 0 1 4.3.666 9.45 9.45 0 0 1 4.107 3.208 9.57 9.57 0 0 1 1.784 4.28l-.153-.12a5.99 5.99 0 0 1 3.694.925 6.42 6.42 0 0 1 2.077 2.083 5.58 5.58 0 0 1 .706 1.757 4.43 4.43 0 0 1 .073.492.78.78 0 0 1 .022.128zm-24.914 28.761a.96.96 0 0 0-.353-.24 1.75 1.75 0 0 0-1.132.04 3.42 3.42 0 0 1-.859.153 1.33 1.33 0 0 1-.958-.419c-.512-.539-.706-1.331-1.191-1.844a1.12 1.12 0 0 0-.892-.379 5.57 5.57 0 0 0-1.012.206 2.27 2.27 0 0 1-1.012.053c-.722-.179-1.279-.755-1.431-1.484-.045-.148-.045-.305 0-.453.011.148.05.292.113.426a1.95 1.95 0 0 0 .666.925 1.53 1.53 0 0 0 .7.313 2 2 0 0 0 .885-.08c.349-.112.708-.188 1.072-.226.434-.025.856.149 1.145.473.566.666.739 1.4 1.172 1.857.191.213.459.342.745.359.268-.003.534-.041.792-.113.411-.128.854-.099 1.245.08.279.16.319.353.305.353zm1.112-1.571a40.9 40.9 0 0 1-4.719-2.33 43.21 43.21 0 0 1-4.573-2.622 42.66 42.66 0 0 1 4.726 2.33 43.56 43.56 0 0 1 4.566 2.622zm-1.924 2.456l-.366.173-.439.213a1.64 1.64 0 0 1-.666.087 2.77 2.77 0 0 1-1.6-.619 2.19 2.19 0 0 1-.606-.832 3.03 3.03 0 0 0-.473-.872 2.24 2.24 0 0 0-1.751-.506c-.566.066-1.14.012-1.684-.16a1.57 1.57 0 0 1-.852-.779c-.106-.26-.067-.426-.053-.419a2.31 2.31 0 0 0 .173.359 1.52 1.52 0 0 0 .819.619 3.99 3.99 0 0 0 1.584.073 2.49 2.49 0 0 1 2 .586 3.33 3.33 0 0 1 .519.965 2 2 0 0 0 .512.739 2.7 2.7 0 0 0 1.418.612 2 2 0 0 0 1.038-.186c.274-.077.427-.077.427-.053z" class="T"/><use xlink:href="#F" class="S"/><use xlink:href="#F" opacity=".4"/><path d="M188.315 150.632l.552 1.724a5.46 5.46 0 0 1 .18 1.8 8.34 8.34 0 0 1-.379 2.21c-.273.666.366 1.278.905.958s1.331-2.05 1.331-4.273 2.223.439 3.068 1.4 3.6 3.8 4.1 3.774c.732-.04.825-.832-.04-1.771s-3.268-3.927-2.742-4.353 4.759 4.519 4.759 4.519.732 1.2 1.331.739c1.132-.845-3.761-5.764-4.24-6.217-.326-.32.226-.8.566-.439s4.113 5.025 5.272 4.173c.885-.666-3.994-4.08-4.233-5.478s3.435 2.975 4.253 2.323c.313-.246.506-.473-2-2.662-1.2-1.078-5.764-4.273-5.764-4.273l-13.735-39.336-10.61 6.077zm-81.784-74.389L91.182 57.925h0a10.69 10.69 0 0 0-.752-1.83 5.76 5.76 0 0 0-3.621-3.022c-.972-.213-2.09-.106-2.855-.745-.339-.286-.566-.666-.925-.958a.82.82 0 0 0-1.185.06c-.121.3-.096.64.067.919a8.54 8.54 0 0 0 2.662 3.435l-3.494 1.1s-3.242-3.521-4.906-3.514 1.331 3.148 1.331 3.148-2.662-2.463-3.488-1.771 1.291 2.523 1.291 2.523a3.53 3.53 0 0 0-2.163-.606c-.752.126-1.4 1.012-.992 1.657a1.73 1.73 0 0 0 .666.539l4.087 2.276c.654.436 1.402.711 2.183.8 2.077.067 3.654-1.218 5.724-1.165 0 0 11.575 24.368 12.746 25.626s26.624 2.969 26.624 2.969l14.717-12.68z" class="W"/><path d="M152.644 208.985l15.675 6.822-8.386 19.548c-1.824-.912-1.225-12.647-1.225-12.647l-10.224-3.96z" class="S"/><path d="M160.446 216.313a.87.87 0 0 1 1.151-.166.84.84 0 0 1 .166 1.138.91.91 0 0 1-1.211.166c-.336-.322-.357-.853-.047-1.2m7.814-.443l-1.611-.626-7.441 18.976s0 1.038.666 1.2z" opacity=".6" class="U"/><g class="T"><path d="M158.462 222.996c.1.033.346-.426.859-.759s1.012-.419 1.012-.519-.612-.2-1.218.22-.746 1.038-.653 1.058zm-.034 2.41c.087.067.426-.28.972-.433s1.005-.06 1.045-.153-.479-.393-1.151-.193-.952.739-.866.779z"/><path d="M160.386 227.629c.06-.08-.366-.419-.992-.4s-1.025.379-.965.453.459-.08.978-.087.926.14.979.034zm-4.153-5.797c.107 0 .16-.5.433-1.018s.619-.872.559-.958-.579.173-.885.792-.199 1.197-.107 1.184zm-2.118-1.465c.22-.285.362-.622.413-.978a4.56 4.56 0 0 0 .126-1.158 5.08 5.08 0 0 0-.053-.666 1.29 1.29 0 0 0-.111-.389c-.083-.188-.283-.296-.486-.26a.55.55 0 0 0-.4.32 1.45 1.45 0 0 0-.106.393 3.73 3.73 0 0 0 .153 1.857c.22.632.513.938.546.912s-.153-.379-.306-.985a4.42 4.42 0 0 1-.113-1.085 4.38 4.38 0 0 1 .067-.666c.033-.226.107-.406.226-.419s.053 0 .1.067a1.33 1.33 0 0 1 .073.293 5.49 5.49 0 0 1 .073.666 5.69 5.69 0 0 1-.047 1.1 7.59 7.59 0 0 0-.16 1.005z"/><path d="M154.302 220.308a2.1 2.1 0 0 0-.832-.666 3.4 3.4 0 0 0-1.132-.326c-.221-.024-.445-.024-.666 0a.9.9 0 0 0-.765.413c-.07.18-.031.384.1.526a1.52 1.52 0 0 0 .319.253 2.39 2.39 0 0 0 .666.286c.389.096.796.096 1.185 0 .666-.166.959-.512.932-.532-.32.111-.647.205-.978.279-.352.051-.711.023-1.052-.08-.198-.063-.386-.152-.559-.266-.193-.12-.326-.266-.273-.333.116-.135.288-.211.466-.206.221-.022.445-.022.666 0a3.84 3.84 0 0 1 1.058.226c.506.213.832.466.865.426z"/></g><path d="M140.57 235.836l6.483 13.585 2.03 12.261a1.54 1.54 0 0 0 1.877 1.245h0c.486-.112.887-.456 1.072-.919 1.191-2.949 5.525-13.831 4.992-14.8-.612-1.118-5.891-14.783-5.891-14.783z" class="S"/><path d="M150.961 262.893l5.644-16.64.266.579a2.33 2.33 0 0 1 .113 1.6c-.413 1.418-1.631 5.325-4.912 13.525a1.53 1.53 0 0 1-1.112.938zm.839-19.802c-.235.412-.12.935.266 1.211a.9.9 0 0 0 1.211-.253.99.99 0 0 0-.293-1.285c-.451-.219-.994-.039-1.225.406" opacity=".6" class="U"/><g class="T"><path d="M151.4 255.485a3.33 3.33 0 0 0-3.4-.12c.095-.167.233-.305.4-.4.401-.241.864-.359 1.331-.339a2.42 2.42 0 0 1 1.3.426c.289.213.398.406.369.433zm-.12 2.278a11.48 11.48 0 0 0-1.478-.04 12.75 12.75 0 0 0-1.418.426c-.073-.053.459-.666 1.371-.759a1.7 1.7 0 0 1 1.525.373zm.878-5.453a15.01 15.01 0 0 0-2.276-.22 14.15 14.15 0 0 0-2.25.439 4.2 4.2 0 0 1 4.526-.219zm-1.623-4.294c0 .1-.9.12-1.9.533s-1.677.992-1.744.919a3 3 0 0 1 1.624-1.231 2.96 2.96 0 0 1 2.023-.22zm-1.804-4.039a7.66 7.66 0 0 0-2 .506 7.37 7.37 0 0 0-1.611 1.271c-.033 0 .033-.26.273-.579a3.25 3.25 0 0 1 1.2-.992 3.28 3.28 0 0 1 1.511-.346c.4.01.633.11.627.14zm-2.316-.267a1.55 1.55 0 0 1-.253-.513c-.164-.497-.23-1.022-.193-1.544a1.75 1.75 0 0 1 .34-1.072.62.62 0 0 1 .666-.166 1.04 1.04 0 0 1 .5.526c.364.981-.022 2.083-.919 2.622-.888.511-1.996.438-2.809-.186a.87.87 0 0 1-.333-.666c.014-.261.194-.483.446-.552a2.19 2.19 0 0 1 1.118.067 4.3 4.3 0 0 1 1.418.666c.3.206.433.359.419.379-.585-.363-1.222-.633-1.89-.8a1.95 1.95 0 0 0-.978-.033c-.139.035-.239.157-.246.3.024.165.112.314.246.413.715.52 1.667.574 2.436.14a1.89 1.89 0 0 0 .839-2.243.7.7 0 0 0-.333-.379c-.13-.059-.284-.027-.379.08a1.55 1.55 0 0 0-.306.905 5.9 5.9 0 0 0 .211 2.056z"/><path d="M162.416 210.643l-17.778-11.981 5.884-57.768-16.84-9.831-15.4-3.568s-6.43 13.379-9.319 21.965c-6.084 18.218-10.35 24.747-9.372 37.94.306 4.18 15.735 14.643 25.48 20.441.109 1.16.283 2.314.519 3.455 3.328 15.056 13.5 35.078 13.5 35.078l15.442-7.182-4.979-17.073 5.192 3.029zm-38.213-37.274l2.077-9.259-1.125 17.925a18.4 18.4 0 0 1-.952-8.646z"/></g><path d="M139.123 246.372a1.47 1.47 0 0 1-.12-.246l-.326-.726-1.191-2.816-4.26-10.417-5.99-15.6a115.69 115.69 0 0 1-1.524-4.586l-.626-2.429-.12-.626-.073-.632-.14-1.265q-.28-2.556-.446-5.205l-.14-2.662a23.1 23.1 0 0 1 0-2.716c.266-7.255.872-14.138 1.378-20.4l1.391-16.64.8-11.222.16-3.048.047-.8a1 1 0 0 1 0-.266c.007.089.007.177 0 .266v.8c0 .7-.033 1.731-.093 3.055-.113 2.662-.346 6.5-.7 11.235l-1.331 16.64c-.506 6.263-1.085 13.146-1.331 20.381-.053.905 0 1.8 0 2.7s.08 1.777.14 2.662q.16 2.662.433 5.185l.14 1.271.073.626c.033.206.08.406.12.612.133.812.4 1.6.612 2.4.473 1.564.985 3.088 1.5 4.573 2.09 5.917 4.16 11.182 5.891 15.609l4.167 10.45 1.138 2.842.286.739a.95.95 0 0 0 .135.256zm-11.891-104.257a2.73 2.73 0 0 1-.4-.326 4.2 4.2 0 0 1-.752-1.211 12.94 12.94 0 0 1-.759-4.579 38.77 38.77 0 0 1 .22-4.659 10.58 10.58 0 0 1 .266-1.9c.055.638.055 1.279 0 1.917l-.126 4.606a14.89 14.89 0 0 0 .666 4.506c.157.426.369.83.632 1.2a2.55 2.55 0 0 1 .253.446zm-6.643-13.742c.157.522.202 1.071.133 1.611-.18 2.698-1.808 5.087-4.253 6.243-.479.261-1.007.42-1.551.466 0-.053.579-.213 1.444-.666a7.88 7.88 0 0 0 4.127-6.05c.113-.985.04-1.604.1-1.604zm27.627 33.587v.173a2.67 2.67 0 0 1-.04.513q-.08.719-.2 2l-.792 7.242-2.7 23.9a43.51 43.51 0 0 0 .872 13.113c.416 1.874.95 3.719 1.6 5.525l1.664 4.752 2.39 6.889.666 1.877.16.493a.53.53 0 0 1 .04.166.37.37 0 0 0-.073-.16 2.78 2.78 0 0 1-.186-.479 43.52 43.52 0 0 1-.666-1.857l-2.489-6.849-1.7-4.739a44.97 44.97 0 0 1-1.644-5.558c-.98-4.329-1.288-8.783-.912-13.206l2.8-23.9.9-7.235.26-2a2.86 2.86 0 0 1 .073-.506c-.014-.052-.021-.106-.02-.16z" class="X"/><path d="M118.286 127.395l2.729-6.969 6.223 9.279-8.3-2.07" class="W"/><path d="M183.395 106.448l-7.382-16.554c-.885-2.662-2.543-3.075-3.927-4.619l-18.5-10.43c-13.485-5.525-20.827 12.993-20.827 12.993l-12.246 27.955c-14.41 4.772-4.207 15.841-4.207 15.841s-3.92-6.816-.06-9.272c4.034-2.576 8.507 4.207 12.806 10.65 5.079 7.6 21.572 12.54 21.572 12.54 1.93-2.037 1.391-9.152 2.9-12.973.479-1.2 11.9-27.663 11.9-27.663l4.426 10.723s5.671-6.656 8.427-7.708c1.661-.639 3.373-1.135 5.118-1.483z" class="S"/><path d="M150.614 118.216c-.169.154-.357.286-.559.393-.538.312-1.101.577-1.684.792a12.04 12.04 0 0 1-11.688-1.8c-.492-.38-.949-.803-1.365-1.265a2.17 2.17 0 0 1-.413-.539c.047-.047.666.706 1.917 1.617 3.301 2.435 7.586 3.097 11.468 1.771 1.479-.497 2.324-1.022 2.324-.969z" class="T"/><path d="M119.996 91.951h0l11.415 1.078 18.264-19.3-10.743-.373-19.123 1.89c1.006 5.518 1.069 11.166.187 16.705z" class="S"/><path d="M135.818 81.794c-.028.124-.075.243-.14.353l-.459.985-1.691 3.614c-1.418 3.062-3.328 7.322-5.325 12.048l-5.325 12.074-1.691 3.621-.486.972a1.65 1.65 0 0 1-.193.333 2.2 2.2 0 0 1 .133-.359l.426-1 1.6-3.661 5.212-12.114c2.024-4.714 3.994-8.972 5.438-12.014l1.791-3.574.513-.958c.054-.113.12-.221.197-.32zm34.844 5.611c.033.06-.666.426-1.644 1.251a11.86 11.86 0 0 0-1.538 1.591c-.563.714-1.049 1.485-1.451 2.3a13.63 13.63 0 0 0-.905 2.556 11.63 11.63 0 0 0-.293 2.2c-.047 1.265.1 2.05.033 2.057a1.93 1.93 0 0 1-.133-.539 3.94 3.94 0 0 1-.093-.666 6.92 6.92 0 0 1-.047-.879 10.43 10.43 0 0 1 .233-2.263 12.63 12.63 0 0 1 .9-2.662 12.78 12.78 0 0 1 1.511-2.343 10.77 10.77 0 0 1 1.631-1.577 6.24 6.24 0 0 1 .712-.506c.179-.128.368-.241.566-.339.162-.087.337-.148.518-.181z" class="T"/><path d="M173.851 60.894l-10.71 20.022a7.07 7.07 0 0 1-9.112 3.115h0a7.06 7.06 0 0 1-3.328-9.745l1.844-3.474s-4.659-3.015-2.476-8.047c1.944-4.486 9.079-17.159 10.59-19.835l9.026 4.04c2.428 1.266 4.24 3.46 5.025 6.082s.475 5.452-.858 7.843z" class="W"/><path d="M152.542 70.738c2.292 1.076 4.852 1.447 7.355 1.065 0 0-3.155 2.909-7.947.226z" fill="#eb996e"/><g class="T"><path d="M155.986 54.73c-.178.386-.015.844.366 1.032a.75.75 0 0 0 1.025-.313c.178-.386.015-.844-.366-1.032a.75.75 0 0 0-1.025.313z"/><path d="M156.026 54.098c.047.133.765 0 1.538.319s1.158.978 1.285.925.04-.233-.12-.519a2.18 2.18 0 0 0-.978-.859 2.09 2.09 0 0 0-1.278-.14c-.314.075-.476.188-.447.274zm7.155 4.177a.78.78 0 0 0 .366 1.032.75.75 0 0 0 1.025-.32c.173-.385.011-.837-.366-1.025-.177-.098-.386-.12-.579-.061s-.354.194-.446.374z"/><path d="M163.521 57.619c.047.133.765 0 1.538.319s1.158.985 1.285.932.047-.233-.12-.526c-.232-.377-.573-.674-.978-.852-.4-.183-.848-.232-1.278-.14-.314.074-.474.204-.447.267zm-5.345 4.453a5.79 5.79 0 0 0-1.145-.779c-.186-.113-.359-.233-.333-.379a1.3 1.3 0 0 1 .393-.526l1.251-1.238c1.105-1.027 2.126-2.139 3.055-3.328a27.7 27.7 0 0 0-3.328 3.068l-1.231 1.258a1.25 1.25 0 0 0-.446.726c-.002.166.068.324.193.433.096.077.201.141.313.193a5.1 5.1 0 0 0 1.278.572zm2.023 1.544c-.12-.06-.493.772-1.471 1.045s-1.83-.213-1.89-.1.126.246.5.426c.485.227 1.035.274 1.551.133.498-.132.924-.456 1.185-.9.185-.332.185-.577.125-.604zm4.473-9.098c0 .246.792.486 1.644 1s1.478 1.085 1.677.952c.093-.067.053-.319-.146-.666a3.38 3.38 0 0 0-2.536-1.484c-.386-.002-.632.085-.639.198zm-7.368-2.504c.06.24.666.293 1.331.566s1.125.666 1.331.519.093-.28-.073-.546a1.91 1.91 0 0 0-.925-.759 1.95 1.95 0 0 0-1.2-.113c-.331.054-.497.2-.464.333z"/></g><path d="M170.483 63.896c.107 0 3.894.519 2.256 3.894s-4.659 1.032-4.659.932 2.403-4.826 2.403-4.826z" class="W"/><path d="M169.744 67.943a2.29 2.29 0 0 0 .113.166c.113.127.27.205.439.22.589-.059 1.099-.434 1.331-.978a2.18 2.18 0 0 0 .246-.919.76.76 0 0 0-.226-.666c-.123-.103-.303-.103-.426 0-.087.073-.1.146-.12.146s-.047-.093.047-.22c.061-.074.146-.126.24-.146a.5.5 0 0 1 .366.073c.252.193.388.502.359.819a2.23 2.23 0 0 1-.253 1.038 1.7 1.7 0 0 1-1.564 1.045.75.75 0 0 1-.5-.353c-.086-.139-.065-.225-.052-.225z" fill="#eb996e"/><g class="T"><path d="M172.44 64.661a2 2 0 0 0-2 .113c-.439.386-.739.919-1.178 1.331a1.33 1.33 0 0 1-1.611.253 1.15 1.15 0 0 1-.359-1.1 3.18 3.18 0 0 1 .486-1.112l2.742-4.519a8.98 8.98 0 0 0 1.072-5.105c-.185-1.794-1.336-3.344-3-4.04-1.1-.386-2.323-.273-3.448-.592a4.6 4.6 0 0 1-2.955-2.716 8 8 0 0 0-.439-.759c.04-.08.439-.759.832-.892 2.969-1.005 6.982.146 9.438 2.083a10.91 10.91 0 0 1 4.207 8.174c.033 3.128-1.937 6.576-3.767 8.906"/><path d="M172.473 64.295c.939-1.6 2.456-2.749 3.614-4.187s2-3.468 1.132-5.119c-.28-.566-.732-1.038-.965-1.624-.184-.608-.296-1.236-.333-1.87a6.5 6.5 0 0 0-3.222-4.659c-1.185-.666-2.549-.932-3.754-1.564-1.9-1-3.288-2.849-5.325-3.641a2.53 2.53 0 0 0-2.07-.067 1.25 1.25 0 0 0-.513 1.79c-.08-.311-.293-.571-.582-.71s-.626-.142-.918-.009c-.578.315-.91.945-.845 1.6a3.56 3.56 0 0 0 .725 1.757 9.01 9.01 0 0 0 5.125 3.534l4.6-.359 3.767 2.789 2.782 4.44-5.052 6.563z"/></g><path d="M143.725 38.103a16.23 16.23 0 0 0-31.999-2.638 16.23 16.23 0 0 0 9.854 18.779l.266 4.087 14.191-.919-.166-4.346c5.216-3.121 8.248-8.897 7.854-14.963z" fill="#f3d516"/><path d="M130.898 57.678v-.792c0-.513.073-1.278.153-2.256l.413-3.561c.243-1.57.637-3.112 1.178-4.606.318-.869.712-1.709 1.178-2.509a3.02 3.02 0 0 1 1.045-1.065 1.67 1.67 0 0 1 1.538-.047 1.1 1.1 0 0 1 .552.606 1.11 1.11 0 0 1 0 .839 2.33 2.33 0 0 1-1.178 1.158 4.46 4.46 0 0 1-5.8-2.576 3.41 3.41 0 0 1-.22-1.864 1.46 1.46 0 0 1 1.4-1.218c.357.011.683.208.859.519a1.46 1.46 0 0 1 .193.985 3.18 3.18 0 0 1-1.032 1.684 4.82 4.82 0 0 1-3.707 1.331 4.22 4.22 0 0 1-3.281-2.13 2.46 2.46 0 0 1-.233-1.957 1.19 1.19 0 0 1 .661-.755 1.18 1.18 0 0 1 1.003.023 1.65 1.65 0 0 1 .732.666 2.58 2.58 0 0 1 .306.919 4.61 4.61 0 0 1-.126 1.864 4.82 4.82 0 0 1-2.11 2.862 4.91 4.91 0 0 1-3.328.666 2.59 2.59 0 0 1-1.5-.666 1.25 1.25 0 0 1-.193-1.551 1.07 1.07 0 0 1 .706-.406 1.58 1.58 0 0 1 .785.1c.459.224.831.594 1.058 1.052l1.231 2.476 3.328 7.635.825 2.1.206.552a1.6 1.6 0 0 1 .06.193l-.08-.186-.226-.539-.859-2.1-3.388-7.6-1.238-2.463a2.19 2.19 0 0 0-.985-.978 1.12 1.12 0 0 0-1.3.253 1.1 1.1 0 0 0 .186 1.331 2.41 2.41 0 0 0 1.4.619c1.112.165 2.246-.071 3.2-.666a4.66 4.66 0 0 0 2-2.756 4.38 4.38 0 0 0 .12-1.79 1.75 1.75 0 0 0-.925-1.431 1.01 1.01 0 0 0-.845 0 1.03 1.03 0 0 0-.552.666c-.182.604-.102 1.257.22 1.8a4.04 4.04 0 0 0 3.128 2 4.61 4.61 0 0 0 3.548-1.285 3 3 0 0 0 .965-1.558c.047-.297-.012-.601-.166-.859a.85.85 0 0 0-.7-.426 1.18 1.18 0 0 0-.792.313 1.33 1.33 0 0 0-.413.752 3.19 3.19 0 0 0 .206 1.757 4.28 4.28 0 0 0 5.591 2.483c.482-.21.87-.589 1.092-1.065a.96.96 0 0 0-.453-1.231 1.51 1.51 0 0 0-1.391.04 2.89 2.89 0 0 0-.978 1 15.73 15.73 0 0 0-1.171 2.476 24.33 24.33 0 0 0-1.2 4.566l-.453 3.554-.186 2.256c0 .246-.04.446-.047.586.001.07-.003.14-.01.21zm4.215 2.43l-12.181.792c-.506.03-.943-.353-.978-.859h0a.92.92 0 0 1 .859-.972L135 58.284a.91.91 0 0 1 .972.852h0a.92.92 0 0 1-.859.972zm.052.799l-12.187.792c-.328.019-.62.212-.766.506s-.123.644.06.916.498.426.826.402l1.331-.087 2 3.268a1.19 1.19 0 0 0 1.085.559l4.353-.28a1.2 1.2 0 0 0 1.005-.706l1.5-3.481.912-.06a.92.92 0 0 0 .796-.971.92.92 0 0 0-.916-.859z" class="T"/><path d="M116.461 29.503a11.8 11.8 0 0 1 3.108-2.363c.759-.415 1.576-.716 2.423-.892.612-.1.965-.067 1.005.06.087.293-1.112.805-2.662 2a13.35 13.35 0 0 0-5.225 13.472c.353 1.964.892 3.148.666 3.328-.12.073-.4-.14-.779-.626a8.42 8.42 0 0 1-1.211-2.31c-.431-1.233-.656-2.528-.666-3.834a12.64 12.64 0 0 1 .832-4.759m13-6.819c-1.025.053-1.95-.166-2.09-.706-.06-.266.113-.566.466-.812a3.29 3.29 0 0 1 3.062-.186c.386.206.586.486.559.759" opacity=".2" class="U"/><path d="M132.643 66.576a7.1 7.1 0 0 1-.859-.206 7.1 7.1 0 0 0-2.083-.126 7.19 7.19 0 0 0-2 .513l-.8.359a2.47 2.47 0 0 1 .739-.486 5.99 5.99 0 0 1 2.063-.579c.718-.069 1.442-.006 2.137.186.285.067.557.181.803.339zm1.759-3.739c0 .053-2.2.24-4.919.419l-4.926.213c-.007-.06 2.2-.24 4.912-.413l4.933-.219zm-.668 1.498a7.32 7.32 0 0 1-1.191.193l-2.9.3-2.909.16a6.68 6.68 0 0 1-1.2 0 6.71 6.71 0 0 1 1.2-.133l2.9-.22 2.9-.24a7.1 7.1 0 0 1 1.2-.06z" class="X"/><g class="S"><path d="M19.98 137.865l2.662 4.24s11.315-10.39 22.491-7.455c-.02-.013-10.084-8.546-25.153 3.215z"/><path d="M45.113 134.638s8.287-9 20.441-6.949l3.328.5-1.052-1.91s-21.159-7.243-22.717 8.359z"/></g><path d="M27.621 104.292s-16.6-2.855-27.476 3.035l17.306 32.535s14.151-13.638 27.689-5.238z" class="Y"/><path d="M27.618 104.292a1.15 1.15 0 0 1 .093.133l.246.413.958 1.617 3.594 6.164 12.726 21.965c.034.057.025.13-.022.178s-.12.056-.178.022c-1.951-1.207-4.112-2.036-6.37-2.443a19.97 19.97 0 0 0-3.588-.253 22.55 22.55 0 0 0-3.674.466 31.55 31.55 0 0 0-13.725 7.322l-.146.133a.16.16 0 0 1-.233 0v-.033L.018 107.394c-.019-.03-.024-.067-.014-.102s.034-.063.067-.078h0c3.469-1.731 7.212-2.845 11.062-3.295a56.27 56.27 0 0 1 8.859-.386c2.449.087 4.36.28 5.651.439.666.08 1.145.153 1.478.213l.379.067h-.007l-.379-.047-1.478-.173a72.48 72.48 0 0 0-5.651-.359 56.52 56.52 0 0 0-8.819.446 33.4 33.4 0 0 0-10.963 3.328l.053-.18 17.306 32.535-.26-.047.146-.133c2.018-1.803 4.238-3.367 6.616-4.659a27.62 27.62 0 0 1 7.268-2.756 21.78 21.78 0 0 1 3.734-.466c1.221-.028 2.443.059 3.648.26 2.294.423 4.488 1.271 6.47 2.5l-.206.2-12.584-21.97-3.541-6.217-.925-1.651-.233-.433c-.028-.045-.052-.092-.073-.14z" class="T"/><path d="M53.713 97.617s-12.553-7.987-25.879 6.656l17.492 30.345s3.568-12.314 24.454-8.034z" class="Y"/><path d="M53.713 97.616c.034.038.064.08.087.126l.226.393.885 1.544 3.328 5.884 11.668 20.987c.033.046.032.109-.004.154s-.097.061-.149.039h0l-3.108-.513a14.24 14.24 0 0 0-1.6-.18l-1.637-.133a13.98 13.98 0 0 0-1.671-.04l-1.684.007c-.572 0-1.138.113-1.711.166-.578.048-1.151.134-1.717.26l-1.711.386-1.684.592-1.624.752a5.08 5.08 0 0 0-.785.446l-.765.493c-.506.339-.958.752-1.431 1.132-.446.418-.866.862-1.258 1.331-.808.947-1.44 2.031-1.868 3.2h0c-.015.042-.046.075-.086.094s-.086.021-.127.006a.16.16 0 0 1-.087-.073l-.706-1.218-16.767-29.134c-.033-.051-.033-.115 0-.166 2.642-2.991 5.865-5.414 9.472-7.122 2.799-1.278 5.867-1.853 8.939-1.677 1.962.117 3.893.549 5.718 1.278.478.196.946.419 1.4.666l.346.2.106.08-.12-.06-.353-.18c-.313-.153-.779-.379-1.4-.619-4.718-1.796-9.961-1.606-14.537.526a29.34 29.34 0 0 0-9.358 7.1v-.16l16.807 29.154.732 1.2-.306.04c.44-1.214 1.092-2.341 1.924-3.328a18.06 18.06 0 0 1 1.291-1.378c.493-.393.952-.819 1.471-1.158l.779-.506c.255-.174.524-.326.805-.453.559-.26 1.085-.572 1.657-.772l1.711-.592 1.744-.393a11.98 11.98 0 0 1 1.744-.26c.579-.053 1.151-.16 1.724-.166h1.711c.562-.027 1.124-.013 1.684.04l1.651.14c.542.026 1.082.086 1.617.18l3.128.526-.153.213-11.568-21.007-3.242-5.931-.852-1.571c-.087-.173-.16-.306-.213-.406a1.09 1.09 0 0 1-.073-.139z" class="T"/><path d="M4.804 91.686l18.724 36.043s15.209-.666 21.652 6.749l-17.346-30.185s-10.17-12.607-23.03-12.607z" class="Y"/><path d="M4.808 91.686h.479l1.438.06h.506l.552.093 1.251.206c.485.08.963.196 1.431.346.541.13 1.075.288 1.6.473 4.473 1.491 10.477 5.1 15.868 11.315h0l17.375 30.166c.045.079.019.18-.06.226a.16.16 0 0 1-.2 0h0l-.732-.732c-1.392-1.336-3.016-2.408-4.792-3.162a27.29 27.29 0 0 0-5.358-1.757 44.73 44.73 0 0 0-10.65-1.052h0a.16.16 0 0 1-.14-.08L9.951 101.756l-3.814-7.435-1.005-2-.253-.5-.08-.166a.94.94 0 0 1 .1.18l.28.513 1.052 2 3.9 7.468 13.512 25.839-.14-.08a44.72 44.72 0 0 1 10.723 1.038 28.01 28.01 0 0 1 5.418 1.771c1.811.773 3.467 1.869 4.886 3.235l.759.745-.273.193-17.306-30.192h0c-2.406-2.809-5.16-5.3-8.194-7.415a31.57 31.57 0 0 0-7.508-3.914 16.45 16.45 0 0 0-1.6-.486c-.463-.155-.937-.275-1.418-.359l-1.245-.226-.539-.1-.493-.04z" class="T"/><g fill="#f3d516"><path d="M89.246 201.91l.4.666a4.6 4.6 0 0 0 1.89 1.744l.666.346-.666.4a4.66 4.66 0 0 0-1.744 1.89l-.346.7-.4-.666a4.6 4.6 0 0 0-1.89-1.744l-.7-.346.666-.4c.751-.449 1.357-1.105 1.744-1.89zM52.344 64.615l.4.666a4.58 4.58 0 0 0 1.89 1.737l.666.346-.666.406a4.52 4.52 0 0 0-1.744 1.89l-.346.666-.4-.666a4.57 4.57 0 0 0-1.9-1.744l-.7-.346.666-.4a4.66 4.66 0 0 0 1.744-1.9zm170.782 23.689l.4.666a4.57 4.57 0 0 0 1.9 1.744l.7.346-.666.4c-.748.455-1.351 1.114-1.737 1.9l-.346.666-.406-.666a4.54 4.54 0 0 0-1.89-1.737l-.706-.333.666-.406a4.52 4.52 0 0 0 1.744-1.89zM202.958 210.53l.4.666c.455.748 1.114 1.351 1.9 1.737l.7.346-.666.406a4.6 4.6 0 0 0-1.744 1.89l-.339.7-.406-.666c-.449-.751-1.105-1.357-1.89-1.744l-.7-.346.666-.4a4.57 4.57 0 0 0 1.744-1.9zm3.841 25.685l.193.08a1.24 1.24 0 0 0 .666.067l.206-.04-.08.193a1.24 1.24 0 0 0-.067.666l.04.206-.193-.08a1.25 1.25 0 0 0-.666-.067l-.206.04.08-.193a1.24 1.24 0 0 0 .067-.666zm11.614-173.677l.186.08a1.26 1.26 0 0 0 .666.067l.2-.04-.073.193c-.086.211-.109.442-.067.666l.04.206-.193-.08a1.26 1.26 0 0 0-.666-.067l-.2.04.073-.193c.086-.211.109-.442.067-.666zM59.845 46.69l.193.073c.211.086.442.109.666.067h.206l-.08.186a1.26 1.26 0 0 0-.067.666l.04.2-.193-.073c-.211-.086-.442-.109-.666-.067h-.206l.08-.186a1.26 1.26 0 0 0 .067-.666zm19.549 135.225l.193.073a1.13 1.13 0 0 0 .666.067l.206-.033-.08.193a1.24 1.24 0 0 0-.067.666l.04.2-.193-.073c-.211-.086-.442-.109-.666-.067l-.206.04.08-.193a1.26 1.26 0 0 0 .067-.666zm21.24 52.27l-.186.193-.552.552-2.15 2.123-7.987 7.7v-.08l1.511 32.315v.28l-.24-.153-2.882-1.93-18.264-12.227h-.04v-.04l-6.656-19.855-1.864-5.631-.479-1.5q-.08-.24-.12-.379a.3.3 0 0 0-.033-.133l.053.12.14.379.519 1.484 1.93 5.611 6.749 19.815-.053-.067 18.284 12.207 2.877 1.926-.226.126-1.384-32.329v-.047h.033l8.041-7.628 2.19-2.057.572-.526a1.18 1.18 0 0 1 .217-.249z"/><path d="M92.127 273.163l-.06 1.884 1.524 1.118-1.81.526-.592 1.791-1.065-1.558-1.884-.011 1.158-1.491-.579-1.8 1.777.639zm-22.005-12.786l.04 1.218 1.025.666-1.152.406-.313 1.185-.745-.965-1.218.067.686-1.012-.439-1.138 1.171.346zm-9.478-27.243l.919 1.185 1.5-.093-.839 1.245.546 1.391-1.438-.413-1.158.952-.053-1.5-1.258-.805 1.4-.513zm39.064-1.178l.925 1.178 1.491-.086-.839 1.238.546 1.4-1.438-.419-1.158.952-.047-1.5-1.265-.805 1.411-.513zm-10.25 11.408l.586.759.952-.06-.532.792.346.892-.919-.266-.739.606-.033-.952-.805-.519.9-.326z"/></g><circle cx="54.227" cy="179.751" r="13.272" class="S"/><path d="M52.504 183.892a2.17 2.17 0 1 1-2.163-2.163 2.17 2.17 0 0 1 2.163 2.163zm-3.063-6.244c.003.512-.304.976-.776 1.174s-1.018.092-1.381-.27-.473-.906-.277-1.379.657-.783 1.169-.783c.696 0 1.261.562 1.265 1.258z" opacity=".3" class="U"/><use xlink:href="#G" class="S"/><use xlink:href="#G" opacity=".3"/><path d="M46.914 170.4c.106.126-.792.892-1.81 2.423-2.761 4.02-2.866 9.298-.266 13.425.958 1.577 1.824 2.376 1.711 2.5s-1.132-.519-2.316-2.09c-3.155-4.265-3.037-10.122.286-14.257 1.241-1.522 2.333-2.094 2.395-2.001z" opacity=".3" class="U"/><circle cx="10.949" cy="10.949" r="10.949" transform="matrix(.721035 -.692899 .692899 .721035 185.031 55.088)" class="S"/><path d="M204.083 51.215c.022-.847.639-1.56 1.474-1.704s1.655.321 1.96 1.111.01 1.686-.705 2.14a1.78 1.78 0 0 1-2.237-.272c-.327-.343-.504-.802-.492-1.275zm3.567 4.168a1.04 1.04 0 1 1 .288.744c-.191-.2-.294-.468-.288-.744zm-1.394 3.194a.37.37 0 0 1 .268.114c.07.073.108.171.105.272-.008.212-.181.379-.393.379-.211-.007-.377-.182-.373-.393a.38.38 0 0 1 .393-.373z" opacity=".4"/><defs ><path id="B" d="M177.058 170.553c1.424-10.723-6.117-19.576-15.542-24.894s-20.361-7.115-30.771-10.057c-9.818-2.789-19.582-6.862-26.851-14.024s-11.635-17.925-9.026-27.789c.666-2.476 1.83-4.965 3.96-6.4s5.371-1.391 6.962.619c3.381 4.287-3.208 11.981.919 15.535.945.825 2.25 1.125 3.228 1.9 2.6 2.083 1.764 6.124 2.13 9.438.726 6.556 6.876 11.109 12.913 13.765 8.087 3.554 16.847 5.225 25.42 7.322s17.233 4.766 24.375 9.984 13.352 13.312 13.312 22.158c0 2.469-.326 5.5-1.877 7.422-1.303 1.848-3.799 2.399-5.758 1.271-2.236-1.052-3.794-2.662-3.381-6.243"/><path id="C" d="M131.464 85.295c-.339-3.994 2.622-7.435 5.99-9.285s7.229-2.609 10.7-4.253c8.62-4.087 14.1-13.7 14.5-23.563s-3.874-19.722-10.557-26.964c-2.722-2.942-6.064-6.03-6.1-10.044-.04-4.193 3.994-7.495 8.08-7.442s7.8 2.776 10.23 6.19 3.767 7.468 5.079 11.462c-.932-1.677.978-3.747 2.829-3.568s3.328 1.717 4.44 3.248a34.68 34.68 0 0 1 6.656 23.2 32.68 32.68 0 0 1-10.317 21.26c-6.57 5.99-15.256 8.793-23.682 11.455l-17.579 5.545"/><path id="D" d="M148.25 258.247c-2.157-4.466-.273-10.037 3.162-13.618s8.12-5.624 12.647-7.621c10.024-4.42 20.634-9.678 25.726-19.369a50.51 50.51 0 0 0 3.661-10.43c1.87-6.9 3.628-14.73-.133-20.807-.987-1.836-2.707-3.166-4.732-3.661a6.57 6.57 0 0 0-6.1 2.716c-1.333 1.94-2.134 4.196-2.323 6.543-.559 4.413-.093 8.906-.559 13.312s-2.07 9.112-5.691 11.628c-4.44 3.1-10.77 2.4-15.076 5.671-3.481 2.662-4.806 7.215-7.521 10.65-2.29 2.869-5.491 4.826-8.42 7.036s-5.764 4.9-6.763 8.433c-1.069 3.772.169 7.821 3.165 10.35s7.195 3.071 10.735 1.385"/><path id="E" d="M81.61 32.619a13.88 13.88 0 0 1 .4-22.571c2.05-1.4 4.473-2.27 6.3-3.994 1.617-1.5 2.662-3.588 4.48-4.852 2.328-1.647 5.455-1.591 7.722.138s3.149 4.73 2.178 7.41c-.832 2.336-2.929 4.047-3.807 6.363-.945 2.5-.333 5.325-.666 7.947-.441 3.308-2.363 6.236-5.224 7.956s-6.348 2.045-9.476.883"/><path id="F" d="M116.416 132.087l16.74-2.483-7.983-11.315-4.287.253a7.65 7.65 0 0 0-6.583 4.606h0c-.608 1.413-.777 2.976-.486 4.486z"/><path id="G" d="M41.348 182.98c.06.233-11.362 11.189-8.413 13.525s15.309-3.654 25.886-12.181 20.2-18.883 17.559-21.626-15.835 5.371-15.835 5.371l1.577 1.012s7.987-5.119 10.5-3.135-4.659 9.745-14.823 17.159-19.966 12.608-21.476 10.578 5.658-8.8 5.658-8.8z"/></defs></svg>