<svg xmlns="http://www.w3.org/2000/svg" width="283.996" height="278.481" viewBox="0 0 283.996 278.481"><defs><style>.a{fill:#207178;}.b{opacity:0.8;}.c,.m{fill:#fff;}.d{fill:#ffbe9d;}.e{fill:#263238;}.f{fill:#fafafa;}.g{fill:#e0e0e0;}.h{fill:#ebebeb;}.i{fill:#455a64;}.j,.k{opacity:0.4;}.l,.m{opacity:0.6;}.n{fill:#eb996e;}.o{fill:#f3d516;}.p{opacity:0.2;}.q{fill:#f5f5f5;}.r{opacity:0.3;}</style></defs><g transform="translate(-54.782 -34.854)"><g transform="translate(130.787 34.854)"><path class="a" d="M266.057,248.812c1.424-10.723-6.117-19.576-15.542-24.894s-20.361-7.115-30.771-10.057c-9.818-2.789-19.582-6.862-26.851-14.024s-11.635-17.925-9.026-27.789c.666-2.476,1.83-4.965,3.96-6.4s5.371-1.391,6.962.619c3.381,4.287-3.208,11.981.919,15.535.945.825,2.25,1.125,3.228,1.9,2.6,2.083,1.764,6.124,2.13,9.438.726,6.556,6.876,11.109,12.913,13.765,8.087,3.554,16.847,5.225,25.42,7.322s17.233,4.766,24.375,9.984,13.352,13.312,13.312,22.158c0,2.469-.326,5.5-1.877,7.422a4.375,4.375,0,0,1-5.758,1.271c-2.236-1.052-3.794-2.662-3.381-6.243" transform="translate(-165.004 -78.259)"/><g class="b" transform="translate(18.103 86.399)"><path class="c" d="M266.057,248.812c1.424-10.723-6.117-19.576-15.542-24.894s-20.361-7.115-30.771-10.057c-9.818-2.789-19.582-6.862-26.851-14.024s-11.635-17.925-9.026-27.789c.666-2.476,1.83-4.965,3.96-6.4s5.371-1.391,6.962.619c3.381,4.287-3.208,11.981.919,15.535.945.825,2.25,1.125,3.228,1.9,2.6,2.083,1.764,6.124,2.13,9.438.726,6.556,6.876,11.109,12.913,13.765,8.087,3.554,16.847,5.225,25.42,7.322s17.233,4.766,24.375,9.984,13.352,13.312,13.312,22.158c0,2.469-.326,5.5-1.877,7.422a4.375,4.375,0,0,1-5.758,1.271c-2.236-1.052-3.794-2.662-3.381-6.243" transform="translate(-183.107 -164.658)"/></g><path class="a" d="M239.217,122.03c-.339-3.994,2.622-7.435,5.99-9.285s7.229-2.609,10.7-4.253c8.62-4.087,14.1-13.7,14.5-23.563s-3.874-19.722-10.557-26.964c-2.722-2.942-6.064-6.03-6.1-10.044-.04-4.193,3.994-7.495,8.08-7.442s7.8,2.776,10.23,6.19,3.767,7.468,5.079,11.462c-.932-1.677.978-3.747,2.829-3.568s3.328,1.717,4.44,3.248a34.678,34.678,0,0,1,6.656,23.2,32.681,32.681,0,0,1-10.317,21.26c-6.57,5.99-15.256,8.793-23.682,11.455l-17.579,5.545" transform="translate(-183.758 -36.735)"/><g class="b" transform="translate(55.433 3.744)"><path class="c" d="M239.217,122.03c-.339-3.994,2.622-7.435,5.99-9.285s7.229-2.609,10.7-4.253c8.62-4.087,14.1-13.7,14.5-23.563s-3.874-19.722-10.557-26.964c-2.722-2.942-6.064-6.03-6.1-10.044-.04-4.193,3.994-7.495,8.08-7.442s7.8,2.776,10.23,6.19,3.767,7.468,5.079,11.462c-.932-1.677.978-3.747,2.829-3.568s3.328,1.717,4.44,3.248a34.678,34.678,0,0,1,6.656,23.2,32.681,32.681,0,0,1-10.317,21.26c-6.57,5.99-15.256,8.793-23.682,11.455l-17.579,5.545" transform="translate(-239.19 -40.479)"/></g><path class="a" d="M230.717,37.378a3.741,3.741,0,1,0,.612-.193" transform="translate(-180.15 -35.603)"/><g class="b" transform="translate(48.252 1.491)"><path class="c" d="M230.717,37.378a3.741,3.741,0,1,0,.612-.193" transform="translate(-228.402 -37.094)"/></g><path class="a" d="M258.17,384.867c-2.157-4.466-.273-10.037,3.162-13.618s8.12-5.624,12.647-7.621c10.024-4.42,20.634-9.678,25.726-19.369a50.508,50.508,0,0,0,3.661-10.43c1.87-6.9,3.628-14.73-.133-20.807a7.354,7.354,0,0,0-4.732-3.661,6.57,6.57,0,0,0-6.1,2.716,13.466,13.466,0,0,0-2.323,6.543c-.559,4.413-.093,8.906-.559,13.312s-2.07,9.112-5.691,11.628c-4.44,3.1-10.77,2.4-15.076,5.671-3.481,2.662-4.806,7.215-7.521,10.65-2.29,2.869-5.491,4.826-8.42,7.036s-5.764,4.9-6.763,8.433a9.984,9.984,0,0,0,13.9,11.735" transform="translate(-185.925 -126.62)"/><g class="b" transform="translate(59.746 182.662)"><path class="c" d="M258.17,384.867c-2.157-4.466-.273-10.037,3.162-13.618s8.12-5.624,12.647-7.621c10.024-4.42,20.634-9.678,25.726-19.369a50.508,50.508,0,0,0,3.661-10.43c1.87-6.9,3.628-14.73-.133-20.807a7.354,7.354,0,0,0-4.732-3.661,6.57,6.57,0,0,0-6.1,2.716,13.466,13.466,0,0,0-2.323,6.543c-.559,4.413-.093,8.906-.559,13.312s-2.07,9.112-5.691,11.628c-4.44,3.1-10.77,2.4-15.076,5.671-3.481,2.662-4.806,7.215-7.521,10.65-2.29,2.869-5.491,4.826-8.42,7.036s-5.764,4.9-6.763,8.433a9.984,9.984,0,0,0,13.9,11.735" transform="translate(-245.671 -309.283)"/></g><path class="a" d="M161.514,67.473a13.878,13.878,0,0,1,.4-22.571c2.05-1.4,4.473-2.27,6.3-3.994,1.617-1.5,2.662-3.588,4.48-4.852a6.523,6.523,0,0,1,9.9,7.548c-.832,2.336-2.929,4.047-3.807,6.363-.945,2.5-.333,5.325-.666,7.947a10.976,10.976,0,0,1-14.7,8.839" transform="translate(-155.909 -34.854)"/><g class="b"><path class="c" d="M161.514,67.473a13.878,13.878,0,0,1,.4-22.571c2.05-1.4,4.473-2.27,6.3-3.994,1.617-1.5,2.662-3.588,4.48-4.852a6.523,6.523,0,0,1,9.9,7.548c-.832,2.336-2.929,4.047-3.807,6.363-.945,2.5-.333,5.325-.666,7.947a10.976,10.976,0,0,1-14.7,8.839" transform="translate(-155.909 -34.854)"/></g><path class="a" d="M164.71,62.42h8.18V79.28a3.6,3.6,0,0,1-3.6,3.6h-.972a3.6,3.6,0,0,1-3.6-3.6V62.42Z" transform="translate(-158.852 -44.072)"/><path class="d" d="M164.71,58.651l4.087-7.5,4.094,7.5Z" transform="translate(-158.852 -40.303)"/><path class="a" d="M168.42,54.119s1.245,1.87,3.242,0l-1.617-2.969Z" transform="translate(-160.093 -40.303)"/><path class="e" d="M172.993,86.426a25.959,25.959,0,0,1-4.16.166,25.859,25.859,0,0,1-4.153-.166,25.86,25.86,0,0,1,4.153-.166A25.96,25.96,0,0,1,172.993,86.426Z" transform="translate(-158.842 -52.036)"/><path class="e" d="M172.907,84.54a24.9,24.9,0,0,1-4.074.166,24.9,24.9,0,0,1-4.074-.166,26.36,26.36,0,0,1,4.074-.16,26.36,26.36,0,0,1,4.074.16Z" transform="translate(-158.869 -51.409)"/><path class="f" d="M168.236,62.6c.087,0,.166,3.261.166,7.288s-.08,7.322-.166,7.322-.166-3.268-.166-7.322S168.143,62.6,168.236,62.6Z" transform="translate(-159.976 -44.132)"/><path class="f" d="M173.206,62.6c.093,0,.166,3.261.166,7.288s-.073,7.322-.166,7.322-.166-3.268-.166-7.322S173.113,62.6,173.206,62.6Z" transform="translate(-161.638 -44.132)"/></g><g transform="translate(261.508 257.702)"><path class="e" d="M256.282,408.72l37.161,1.591.9,2.163L269.98,452.011l-43.97-1.285Z" transform="translate(-217.071 -402.72)"/><path class="g" d="M223.51,449.3l44.23,2.529,23.11-35.856-16.228,1.318-41.061,14.457Z" transform="translate(-216.235 -405.144)"/><path class="h" d="M213.64,443.6l40.6.666c-1.684-5.2,2.29-12.513,7.754-14.976,3.621-1.631,10.43-3.747,13.945-5.551,6.656-3.428,12.713-9.911,12.187-15.482l-16.693-.552-21.3-.825c-1.784,5.285-5.591,8.74-11.382,10.823-5.178,1.864-11.076,1.857-16.134,3.994-8.134,3.408-12.041,14.45-9.012,21.925" transform="translate(-212.582 -402.104)"/><path class="e" d="M213.638,443.508s-.04-.087-.1-.266l-.28-.779a9.46,9.46,0,0,1-.346-1.331,13.515,13.515,0,0,1-.28-1.85,19.011,19.011,0,0,1,.319-5.165,19.3,19.3,0,0,1,2.609-6.443,15.68,15.68,0,0,1,1.165-1.637c.22-.26.433-.546.666-.8l.752-.765a7.024,7.024,0,0,1,.812-.726c.286-.233.566-.479.872-.7a14.94,14.94,0,0,1,2-1.185c2.816-1.418,6.177-2,9.678-2.663,1.757-.319,3.568-.666,5.378-1.151a25.156,25.156,0,0,0,5.358-2.157,17.691,17.691,0,0,0,2.5-1.637,14.988,14.988,0,0,0,2.216-2.1,15.973,15.973,0,0,0,3.088-5.445l.04-.113h.113l17.738.666c6.157.24,12.527.406,19.05.626l1.185.04h.146v.146a9.066,9.066,0,0,1-.532,3.754,14.269,14.269,0,0,1-.745,1.731,16.725,16.725,0,0,1-.972,1.6,24.713,24.713,0,0,1-5.032,5.325,29.852,29.852,0,0,1-6.077,3.747c-2.143.965-4.313,1.751-6.436,2.536s-4.227,1.531-6.217,2.4a12.421,12.421,0,0,0-2.736,1.664c-.433.306-.792.7-1.185,1.038a7.308,7.308,0,0,0-1.045,1.172,15.082,15.082,0,0,0-2.842,5.325,9.918,9.918,0,0,0-.1,5.684l.06.18h-.186l-29.546-.519-8.194-.166-2.143-.06h2.15l8.194.093,29.54.413-.126.173a10.118,10.118,0,0,1,.087-5.844,15.209,15.209,0,0,1,2.882-5.445c.313-.426.706-.792,1.058-1.191a7.46,7.46,0,0,1,1.211-1.072,12.3,12.3,0,0,1,2.8-1.7c2-.879,4.113-1.631,6.237-2.416s4.287-1.577,6.41-2.536a29.191,29.191,0,0,0,5.99-3.714A24.314,24.314,0,0,0,285.777,415a17.917,17.917,0,0,0,.965-1.544,13.976,13.976,0,0,0,.725-1.684,8.793,8.793,0,0,0,.519-3.614l.16.146-1.191-.033c-6.523-.22-12.893-.393-19.043-.666l-17.745-.666.153-.107a16.427,16.427,0,0,1-3.155,5.545,15.176,15.176,0,0,1-2.263,2.13,17.3,17.3,0,0,1-2.543,1.657,24.979,24.979,0,0,1-5.418,2.17c-1.83.5-3.648.832-5.4,1.145-3.5.626-6.849,1.211-9.625,2.6a14.483,14.483,0,0,0-1.95,1.158c-.306.213-.579.459-.865.666a6.9,6.9,0,0,0-.805.719l-.772.765c-.24.253-.446.533-.666.792a14.708,14.708,0,0,0-1.165,1.611,19.035,19.035,0,0,0-2.616,6.376,18.684,18.684,0,0,0-.366,5.125,12.864,12.864,0,0,0,.253,1.844,9.478,9.478,0,0,0,.319,1.331c.113.346.193.606.253.792A1.056,1.056,0,0,0,213.638,443.508Z" transform="translate(-212.58 -402.011)"/><path class="e" d="M281.779,405.14a6.968,6.968,0,0,0,.093-.726,4.093,4.093,0,0,0-.319-1.917,3.934,3.934,0,0,0-1.917-2.063,4.393,4.393,0,0,0-5.9,2.263,4.919,4.919,0,0,0-.393,2.829,4.846,4.846,0,0,0,.666,1.824c.253.4.439.586.419.606a1.916,1.916,0,0,1-.519-.533,4.452,4.452,0,0,1-.819-1.857,5,5,0,0,1,.339-3,4.659,4.659,0,0,1,6.31-2.41,4.1,4.1,0,0,1,2,2.25,3.893,3.893,0,0,1,.226,2,2.855,2.855,0,0,1-.133.539C281.819,405.086,281.793,405.14,281.779,405.14Z" transform="translate(-232.784 -399.705)"/><path class="e" d="M291.348,405.141c-.033,0,.053-.26.093-.726a4.179,4.179,0,0,0-.319-1.917,3.954,3.954,0,0,0-1.924-2.063,4.4,4.4,0,0,0-5.9,2.263,4.912,4.912,0,0,0-.386,2.829,4.739,4.739,0,0,0,.666,1.824c.253.4.439.586.419.606a1.776,1.776,0,0,1-.526-.532,4.539,4.539,0,0,1-.819-1.857,5.059,5.059,0,0,1,.346-3,4.659,4.659,0,0,1,6.3-2.409,4.1,4.1,0,0,1,2,2.25,3.993,3.993,0,0,1,.233,2,2.362,2.362,0,0,1-.14.539.472.472,0,0,1-.047.193Z" transform="translate(-235.983 -399.707)"/><path class="e" d="M298.59,405.754a6.792,6.792,0,0,0,.053-.732,4.147,4.147,0,0,0-.426-1.9,3.94,3.94,0,0,0-2.037-1.944,4.433,4.433,0,0,0-3.421.067,4.486,4.486,0,0,0-2.336,2.516,4.945,4.945,0,0,0-.233,2.849,4.772,4.772,0,0,0,.8,1.784c.273.379.473.559.453.579a1.785,1.785,0,0,1-.552-.5,4.5,4.5,0,0,1-.925-1.81,5.052,5.052,0,0,1,.173-3.009,4.659,4.659,0,0,1,6.164-2.762,4.1,4.1,0,0,1,2.123,2.13,3.9,3.9,0,0,1,.346,2,2.376,2.376,0,0,1-.106.546A.385.385,0,0,1,298.59,405.754Z" transform="translate(-238.406 -399.986)"/><path class="e" d="M306.384,406.3v-.732a4.073,4.073,0,0,0-.526-1.87,3.927,3.927,0,0,0-2.137-1.837,4.393,4.393,0,0,0-5.611,2.889,4.9,4.9,0,0,0-.08,2.855,4.84,4.84,0,0,0,.892,1.744c.293.359.5.526.479.552a1.864,1.864,0,0,1-.579-.473,4.533,4.533,0,0,1-1.018-1.757,5.052,5.052,0,0,1,0-3.015,4.712,4.712,0,0,1,2.336-2.835,4.66,4.66,0,0,1,3.674-.246,4.127,4.127,0,0,1,2.236,2,3.927,3.927,0,0,1,.446,2,2.77,2.77,0,0,1-.073.546C306.417,406.242,306.4,406.3,306.384,406.3Z" transform="translate(-241.001 -400.242)"/><path class="e" d="M314.2,406.18v-.732a4.081,4.081,0,0,0-.579-1.857,3.947,3.947,0,0,0-2.183-1.777,4.386,4.386,0,0,0-5.531,3.048,4.866,4.866,0,0,0,.939,4.573c.306.353.519.513.5.532a1.7,1.7,0,0,1-.592-.446,4.606,4.606,0,0,1-1.065-1.731,5.039,5.039,0,0,1-.073-3.015,4.733,4.733,0,0,1,2.256-2.9,4.659,4.659,0,0,1,3.661-.346,4.14,4.14,0,0,1,2.3,1.944,3.947,3.947,0,0,1,.5,2,2.608,2.608,0,0,1-.06.552C314.231,406.114,314.211,406.18,314.2,406.18Z" transform="translate(-243.624 -400.24)"/><path class="e" d="M320.765,406.969v-.732a4.068,4.068,0,0,0-.506-1.877,3.947,3.947,0,0,0-2.11-1.857,4.386,4.386,0,0,0-5.644,2.822,4.892,4.892,0,0,0,.752,4.606c.293.366.493.532.479.559a1.817,1.817,0,0,1-.572-.479,4.439,4.439,0,0,1-1-1.771,5.026,5.026,0,0,1,.047-3.015,4.713,4.713,0,0,1,2.37-2.809,4.659,4.659,0,0,1,3.674-.2,4.08,4.08,0,0,1,2.21,2.037,3.906,3.906,0,0,1,.426,2,2.662,2.662,0,0,1-.08.546C320.8,406.909,320.778,406.976,320.765,406.969Z" transform="translate(-245.811 -400.45)"/></g><g transform="translate(254.204 143.855)"><path class="a" d="M341.2,204.642a36.332,36.332,0,0,0-5.5.253,22.89,22.89,0,0,0-19.968,22.824,40.8,40.8,0,0,0,1.418,10.883c3.2,11.355,4.187,21.359,3.821,26.238l10.716,5.758s4.959-7.129,9.751-10.2,20.74-11.315,27.057-19.735c4.067-5.445,4.852-16.64-4.852-26.4A32.9,32.9,0,0,0,341.2,204.642Z" transform="translate(-312.768 -204.625)"/><path class="i" d="M314.355,313.71l9.678,5.232-6.3,8-6.456-2.929Z" transform="translate(-311.28 -241.102)"/><path class="e" d="M316.607,307.81c-.087-.033.872-2.909,2.143-6.416s2.37-6.337,2.456-6.3-.872,2.9-2.143,6.417S316.694,307.836,316.607,307.81Z" transform="translate(-313.06 -234.876)"/><path class="e" d="M329.528,314.981c-.08-.047,1.438-2.762,3.381-6.064S336.5,303,336.584,303s-1.438,2.762-3.388,6.064S329.6,315.014,329.528,314.981Z" transform="translate(-317.381 -237.521)"/><g class="j" transform="translate(11.595 0.311)"><path d="M348.735,205.1c-.433,0-5.758,6.257-8.114,10.477-7.927,14.2-8.287,28.009-10.483,44.117-.313,2.3-1.458,7.262-1.438,7.149a42.649,42.649,0,0,0,5.112,2.749s3.721-4.486,5.2-6.743c5.911-9.032,12.334-16.081,17.4-25.619s9.938-17.971,5.252-27.729C361.661,209.5,353.527,204.831,348.735,205.1Z" transform="translate(-328.7 -205.093)"/></g><path class="e" d="M368.322,249.709a1.785,1.785,0,0,1-.14-.306c-.086-.2-.193-.513-.373-.9a16.087,16.087,0,0,0-1.87-3.148,16.375,16.375,0,0,0-4.107-3.834,15.722,15.722,0,0,0-6.743-2.5h-.08l-.04-.053a38.028,38.028,0,0,0-4.32-4.965,21.792,21.792,0,0,0-5.9-4.06,15.169,15.169,0,0,0-6.982-1.331,11.522,11.522,0,0,0-6.1,2.037l-.1.067-.087-.08a11.981,11.981,0,0,0-6.523-2.9,11.761,11.761,0,0,0-5.545.706,12.448,12.448,0,0,0-3.182,1.791c-.333.266-.586.479-.745.626a1.678,1.678,0,0,1-.26.213,2.9,2.9,0,0,1,.226-.246c.153-.16.393-.386.719-.666a11.681,11.681,0,0,1,3.182-1.884,11.828,11.828,0,0,1,5.638-.785,12.174,12.174,0,0,1,6.689,2.922h-.186a11.788,11.788,0,0,1,6.263-2.11,15.522,15.522,0,0,1,7.129,1.331,21.965,21.965,0,0,1,5.991,4.133,37.143,37.143,0,0,1,4.34,5.025l-.1-.06a15.728,15.728,0,0,1,6.842,2.583,16.434,16.434,0,0,1,4.12,3.934,15.136,15.136,0,0,1,1.811,3.222c.166.393.26.712.333.919a2.579,2.579,0,0,1,.106.313Z" transform="translate(-312.598 -212.252)"/><path class="e" d="M349.905,274.886a6.909,6.909,0,0,0-.925-2.323,6.323,6.323,0,0,0-2.057-2,5.757,5.757,0,0,0-3.548-.839h-.133v-.133a9.337,9.337,0,0,0-13.612-6.789l-.1.053-.08-.087a6.789,6.789,0,0,0-3.721-2,7.5,7.5,0,0,0-3.328.107,7.807,7.807,0,0,0-2.662,1.331.839.839,0,0,1,.14-.146c.1-.087.246-.226.453-.379a6.716,6.716,0,0,1,2-.965,7.521,7.521,0,0,1,3.428-.173,6.949,6.949,0,0,1,3.894,2.057l-.18-.033a9.685,9.685,0,0,1,3.821-1.1,9.811,9.811,0,0,1,4.3.666,9.452,9.452,0,0,1,4.107,3.208,9.565,9.565,0,0,1,1.784,4.28l-.153-.12a5.99,5.99,0,0,1,3.694.925,6.416,6.416,0,0,1,2.077,2.083,5.578,5.578,0,0,1,.706,1.757,4.428,4.428,0,0,1,.073.492A.781.781,0,0,1,349.905,274.886Z" transform="translate(-314.109 -223.285)"/><path class="e" d="M323.172,323.166a.961.961,0,0,0-.353-.24,1.75,1.75,0,0,0-1.132.04,3.422,3.422,0,0,1-.859.153,1.331,1.331,0,0,1-.958-.419c-.512-.539-.706-1.331-1.191-1.844a1.118,1.118,0,0,0-.892-.379,5.569,5.569,0,0,0-1.012.206,2.27,2.27,0,0,1-1.012.053,1.937,1.937,0,0,1-1.431-1.484.773.773,0,0,1,0-.453,1.216,1.216,0,0,0,.113.426,1.957,1.957,0,0,0,.666.925,1.531,1.531,0,0,0,.7.313,2,2,0,0,0,.885-.08,5.325,5.325,0,0,1,1.072-.226,1.424,1.424,0,0,1,1.145.473c.566.666.739,1.4,1.172,1.857a1.085,1.085,0,0,0,.745.359,3.077,3.077,0,0,0,.792-.113,1.744,1.744,0,0,1,1.245.08C323.146,322.973,323.186,323.166,323.172,323.166Z" transform="translate(-312.29 -242.804)"/><path class="e" d="M324.632,320.512a40.9,40.9,0,0,1-4.719-2.33,43.211,43.211,0,0,1-4.573-2.622,42.658,42.658,0,0,1,4.726,2.33A43.494,43.494,0,0,1,324.632,320.512Z" transform="translate(-312.638 -241.721)"/><path class="e" d="M322.137,324.824s-.133.067-.366.173c-.12.053-.253.133-.439.213a1.638,1.638,0,0,1-.666.087,2.769,2.769,0,0,1-1.6-.619,2.189,2.189,0,0,1-.606-.832,3.029,3.029,0,0,0-.473-.872,2.243,2.243,0,0,0-1.751-.506,4.034,4.034,0,0,1-1.684-.16,1.571,1.571,0,0,1-.852-.779c-.106-.26-.067-.426-.053-.419a2.31,2.31,0,0,0,.173.359,1.518,1.518,0,0,0,.819.619,3.994,3.994,0,0,0,1.584.073,2.489,2.489,0,0,1,2,.586,3.328,3.328,0,0,1,.519.965,2,2,0,0,0,.512.739,2.7,2.7,0,0,0,1.418.612,2,2,0,0,0,1.038-.186C321.984,324.8,322.137,324.8,322.137,324.824Z" transform="translate(-312.067 -243.577)"/></g><g transform="translate(126.809 76.229)"><path class="a" d="M215.243,226.368l16.74-2.483L224,212.57l-4.287.253a7.648,7.648,0,0,0-6.583,4.606h0a7.674,7.674,0,0,0-.486,4.486Z" transform="translate(-170.854 -135.656)"/><path class="k" d="M215.243,226.368l16.74-2.483L224,212.57l-4.287.253a7.648,7.648,0,0,0-6.583,4.606h0a7.674,7.674,0,0,0-.486,4.486Z" transform="translate(-170.854 -135.656)"/><path class="d" d="M315.886,238.462c.173.479.359,1.045.552,1.724a5.458,5.458,0,0,1,.18,1.8,8.334,8.334,0,0,1-.379,2.21c-.273.666.366,1.278.905.958s1.331-2.05,1.331-4.273,2.223.439,3.068,1.4,3.6,3.8,4.1,3.774c.732-.04.825-.832-.04-1.771s-3.268-3.927-2.742-4.353,4.759,4.519,4.759,4.519.732,1.2,1.331.739c1.132-.845-3.761-5.764-4.24-6.217-.326-.32.226-.8.566-.439s4.113,5.025,5.272,4.173c.885-.666-3.994-4.08-4.233-5.478s3.435,2.975,4.253,2.323c.313-.246.506-.473-2-2.662-1.2-1.078-5.764-4.273-5.764-4.273L309.07,193.28l-10.61,6.077Z" transform="translate(-199.598 -129.205)"/><path class="d" d="M184.436,136.792l-15.349-18.318h0a10.69,10.69,0,0,0-.752-1.83,5.758,5.758,0,0,0-3.621-3.022c-.972-.213-2.09-.106-2.855-.745-.339-.286-.566-.666-.925-.958a.818.818,0,0,0-1.185.06,1.045,1.045,0,0,0,.067.919,8.54,8.54,0,0,0,2.662,3.435c-1.438.439-3.494,1.1-3.494,1.1s-3.242-3.521-4.906-3.514,1.331,3.148,1.331,3.148-2.662-2.463-3.488-1.771,1.291,2.523,1.291,2.523a3.528,3.528,0,0,0-2.163-.606c-.752.126-1.4,1.012-.992,1.657a1.731,1.731,0,0,0,.666.539l4.087,2.276a4.945,4.945,0,0,0,2.183.8c2.077.067,3.654-1.218,5.724-1.165,0,0,11.575,24.368,12.746,25.626s26.624,2.969,26.624,2.969l14.717-12.68Z" transform="translate(-149.932 -101.924)"/><path class="a" d="M268.96,348.83l15.675,6.822L276.249,375.2c-1.824-.912-1.225-12.647-1.225-12.647l-10.224-3.96Z" transform="translate(-188.343 -181.22)"/><g class="l" transform="translate(88.257 174.626)"><path class="c" d="M282.689,359.683a.872.872,0,0,1,1.151-.166.839.839,0,0,1,.166,1.138.912.912,0,0,1-1.211.166.865.865,0,0,1-.047-1.2" transform="translate(-282.527 -359.371)"/></g><path class="m" d="M290.052,358.766l-1.611-.626L281,377.116s0,1.038.666,1.2Z" transform="translate(-193.76 -184.333)"/><path class="e" d="M279.777,369.194c.1.033.346-.426.859-.759s1.012-.419,1.012-.519-.612-.2-1.218.22S279.684,369.174,279.777,369.194Z" transform="translate(-193.342 -187.573)"/><path class="e" d="M279.732,373.075c.087.067.426-.28.972-.433s1.005-.06,1.045-.153-.479-.393-1.151-.193S279.646,373.035,279.732,373.075Z" transform="translate(-193.331 -189.044)"/><path class="e" d="M281.694,376.639c.06-.08-.366-.419-.992-.4s-1.025.379-.965.453.459-.08.978-.087S281.641,376.745,281.694,376.639Z" transform="translate(-193.335 -190.385)"/><path class="e" d="M276.392,367.129c.107,0,.16-.5.433-1.018s.619-.872.559-.958-.579.173-.885.792S276.3,367.142,276.392,367.129Z" transform="translate(-192.186 -186.672)"/><path class="e" d="M272.925,364.191a2.083,2.083,0,0,0,.413-.978,4.566,4.566,0,0,0,.126-1.158,5.078,5.078,0,0,0-.053-.666A1.292,1.292,0,0,0,273.3,361a.446.446,0,0,0-.486-.26.552.552,0,0,0-.4.32,1.45,1.45,0,0,0-.106.393,3.734,3.734,0,0,0,.153,1.857c.22.632.513.938.546.912s-.153-.379-.306-.985a4.418,4.418,0,0,1-.113-1.085,4.336,4.336,0,0,1,.067-.666c.033-.226.107-.406.226-.419s.053,0,.1.067a1.331,1.331,0,0,1,.073.293,5.488,5.488,0,0,1,.073.666,5.688,5.688,0,0,1-.047,1.1,7.507,7.507,0,0,0-.16,1.005Z" transform="translate(-190.837 -185.199)"/><path class="e" d="M271.817,365.333a2.1,2.1,0,0,0-.832-.666,3.4,3.4,0,0,0-1.132-.326,3.053,3.053,0,0,0-.666,0,.9.9,0,0,0-.765.413.506.506,0,0,0,.1.526,1.519,1.519,0,0,0,.319.253,2.388,2.388,0,0,0,.666.286,2.463,2.463,0,0,0,1.185,0c.666-.166.959-.512.932-.532a8.984,8.984,0,0,1-.978.279,2.436,2.436,0,0,1-1.052-.08,2.256,2.256,0,0,1-.559-.266c-.193-.12-.326-.266-.273-.333a.593.593,0,0,1,.466-.206,3.445,3.445,0,0,1,.666,0,3.84,3.84,0,0,1,1.058.226C271.458,365.12,271.784,365.373,271.817,365.333Z" transform="translate(-189.542 -186.4)"/><path class="a" d="M252.91,387.458l6.483,13.585,2.03,12.261a1.538,1.538,0,0,0,1.877,1.245h0a1.524,1.524,0,0,0,1.072-.919c1.191-2.949,5.525-13.831,4.992-14.8-.612-1.118-5.891-14.783-5.891-14.783Z" transform="translate(-184.367 -192.997)"/><path class="m" d="M268.52,421.46l5.644-16.64.266.579a2.323,2.323,0,0,1,.113,1.6c-.413,1.418-1.631,5.325-4.912,13.525a1.531,1.531,0,0,1-1.112.938Z" transform="translate(-189.586 -199.942)"/><g class="l" transform="translate(79.651 201.297)"><path class="c" d="M269.719,399.859a.925.925,0,0,0,.266,1.211.9.9,0,0,0,1.211-.253.992.992,0,0,0-.293-1.285.925.925,0,0,0-1.225.406" transform="translate(-269.597 -399.44)"/></g><path class="e" d="M267.471,418.258a3.328,3.328,0,0,0-3.4-.12,1.074,1.074,0,0,1,.4-.4,2.383,2.383,0,0,1,1.331-.339,2.417,2.417,0,0,1,1.3.426C267.391,418.038,267.5,418.231,267.471,418.258Z" transform="translate(-188.098 -204.148)"/><path class="e" d="M267.542,421.9a11.482,11.482,0,0,0-1.478-.04,12.749,12.749,0,0,0-1.418.426c-.073-.053.459-.666,1.371-.759A1.7,1.7,0,0,1,267.542,421.9Z" transform="translate(-188.289 -205.512)"/><path class="e" d="M268.046,413.64a15.009,15.009,0,0,0-2.276-.22,14.148,14.148,0,0,0-2.25.439A4.2,4.2,0,0,1,268.046,413.64Z" transform="translate(-187.915 -202.705)"/><path class="e" d="M266.048,407.426c0,.1-.9.12-1.9.533s-1.677.992-1.744.919a3,3,0,0,1,1.624-1.231,2.962,2.962,0,0,1,2.023-.22Z" transform="translate(-187.54 -200.785)"/><path class="e" d="M263.354,401.33a7.661,7.661,0,0,0-2,.506,7.372,7.372,0,0,0-1.611,1.271c-.033,0,.033-.26.273-.579a3.248,3.248,0,0,1,1.2-.992,3.282,3.282,0,0,1,1.511-.346C263.127,401.2,263.36,401.3,263.354,401.33Z" transform="translate(-186.65 -198.728)"/><path class="e" d="M260.182,399.327a1.551,1.551,0,0,1-.253-.513,4.027,4.027,0,0,1-.193-1.544,1.751,1.751,0,0,1,.34-1.072.619.619,0,0,1,.666-.166,1.039,1.039,0,0,1,.5.526,2.176,2.176,0,0,1-.919,2.622,2.536,2.536,0,0,1-2.809-.186.872.872,0,0,1-.333-.666.606.606,0,0,1,.446-.552,2.19,2.19,0,0,1,1.118.067,4.3,4.3,0,0,1,1.418.666c.3.206.433.359.419.379a6.657,6.657,0,0,0-1.89-.8,1.95,1.95,0,0,0-.978-.033.326.326,0,0,0-.246.3.626.626,0,0,0,.246.413,2.256,2.256,0,0,0,2.436.14,1.89,1.89,0,0,0,.839-2.243.7.7,0,0,0-.333-.379.326.326,0,0,0-.379.08,1.544,1.544,0,0,0-.306.905A5.905,5.905,0,0,0,260.182,399.327Z" transform="translate(-185.794 -196.992)"/><path class="e" d="M254.1,309.548l-17.778-11.981,5.884-57.768-16.84-9.831-15.4-3.568s-6.43,13.379-9.319,21.965c-6.084,18.218-10.35,24.747-9.372,37.94.306,4.18,15.735,14.643,25.48,20.441a31.663,31.663,0,0,0,.519,3.455c3.328,15.056,13.5,35.078,13.5,35.078l15.442-7.182-4.979-17.073,5.192,3.029Zm-38.213-37.274,2.077-9.259c-.439,5.891-.839,12.034-1.125,17.925a18.4,18.4,0,0,1-.952-8.646Z" transform="translate(-163.711 -140.28)"/><path class="i" d="M243.2,353.607a1.47,1.47,0,0,1-.12-.246l-.326-.726-1.191-2.816c-1.025-2.456-2.5-5.99-4.26-10.417s-3.854-9.671-5.99-15.6c-.526-1.484-1.038-3.009-1.524-4.586-.213-.8-.486-1.584-.626-2.429-.04-.206-.087-.419-.12-.626l-.073-.632-.14-1.265q-.28-2.556-.446-5.205c-.053-.879-.1-1.771-.14-2.662a23.1,23.1,0,0,1,0-2.716c.266-7.255.872-14.138,1.378-20.4s.992-11.894,1.391-16.64.666-8.566.8-11.222c.087-1.331.133-2.356.16-3.048l.047-.8a1,1,0,0,1,0-.266,1.583,1.583,0,0,1,0,.266v.8c0,.7-.033,1.731-.093,3.055-.113,2.662-.346,6.5-.7,11.235s-.825,10.377-1.331,16.64-1.085,13.146-1.331,20.381c-.053.905,0,1.8,0,2.7s.08,1.777.14,2.662q.16,2.662.433,5.185l.14,1.271.073.626c.033.206.08.406.12.612.133.812.4,1.6.612,2.4.473,1.564.985,3.088,1.5,4.573,2.09,5.917,4.16,11.182,5.891,15.609s3.175,7.987,4.167,10.45c.486,1.225.872,2.177,1.138,2.842.12.313.22.559.286.739A.955.955,0,0,0,243.2,353.607Z" transform="translate(-176.104 -148.61)"/><path class="i" d="M231.909,242a2.732,2.732,0,0,1-.4-.326,4.2,4.2,0,0,1-.752-1.211,12.94,12.94,0,0,1-.759-4.579,38.763,38.763,0,0,1,.22-4.659,10.582,10.582,0,0,1,.266-1.9,11.254,11.254,0,0,1,0,1.917c-.06,1.178-.153,2.809-.126,4.606a14.891,14.891,0,0,0,.666,4.506,5.147,5.147,0,0,0,.632,1.2A2.566,2.566,0,0,1,231.909,242Z" transform="translate(-176.704 -141.26)"/><path class="i" d="M220.041,227.72a3.875,3.875,0,0,1,.133,1.611,7.455,7.455,0,0,1-4.253,6.243,3.934,3.934,0,0,1-1.551.466c0-.053.579-.213,1.444-.666a7.881,7.881,0,0,0,4.127-6.05C220.054,228.339,219.981,227.72,220.041,227.72Z" transform="translate(-171.479 -140.722)"/><path class="i" d="M262.3,278.18v.173a2.657,2.657,0,0,1-.04.513q-.08.719-.2,2c-.193,1.737-.459,4.207-.792,7.242-.666,6.144-1.651,14.577-2.7,23.9a43.51,43.51,0,0,0,.872,13.113,45.266,45.266,0,0,0,1.6,5.525c.6,1.7,1.151,3.295,1.664,4.752,1.005,2.889,1.817,5.238,2.39,6.889.266.8.479,1.424.666,1.877l.16.493a.532.532,0,0,1,.04.166.365.365,0,0,0-.073-.16,2.778,2.778,0,0,1-.186-.479c-.173-.446-.4-1.065-.666-1.857l-2.489-6.849c-.519-1.451-1.092-3.042-1.7-4.739a44.972,44.972,0,0,1-1.644-5.558,43.223,43.223,0,0,1-.912-13.206c1.038-9.352,2.077-17.778,2.8-23.9.379-3.035.666-5.5.9-7.235.107-.839.193-1.491.26-2a2.86,2.86,0,0,1,.073-.506.567.567,0,0,1-.02-.16Z" transform="translate(-186.111 -157.595)"/><path class="d" d="M219.43,222.749l2.729-6.969,6.223,9.279-8.3-2.07" transform="translate(-173.171 -136.729)"/><path class="a" d="M281.782,178.386,274.4,161.832c-.885-2.662-2.543-3.075-3.927-4.619l-18.5-10.43c-13.485-5.525-20.827,12.993-20.827,12.993L218.9,187.731c-14.41,4.772-4.207,15.841-4.207,15.841s-3.92-6.816-.06-9.272c4.034-2.576,8.507,4.207,12.806,10.65,5.079,7.6,21.572,12.54,21.572,12.54,1.93-2.037,1.391-9.152,2.9-12.973.479-1.2,11.9-27.663,11.9-27.663l4.426,10.723s5.671-6.656,8.427-7.708A31.367,31.367,0,0,1,281.782,178.386Z" transform="translate(-170.414 -113.313)"/><path class="e" d="M260.108,211.242a2.764,2.764,0,0,1-.559.393,10.816,10.816,0,0,1-1.684.792,12.041,12.041,0,0,1-11.688-1.8,10.363,10.363,0,0,1-1.365-1.265,2.17,2.17,0,0,1-.413-.539c.047-.047.666.706,1.917,1.617a12.507,12.507,0,0,0,11.468,1.771C259.263,211.714,260.108,211.189,260.108,211.242Z" transform="translate(-181.521 -134.401)"/><path class="a" d="M221.906,163.657h0l11.415,1.078,18.264-19.3-10.743-.373-19.123,1.89A49.615,49.615,0,0,1,221.906,163.657Z" transform="translate(-173.937 -113.081)"/><path class="e" d="M238.079,157.74a1.205,1.205,0,0,1-.14.353l-.459.985c-.413.892-.992,2.123-1.691,3.614-1.418,3.062-3.328,7.322-5.325,12.048s-3.9,9.006-5.325,12.074c-.7,1.538-1.278,2.769-1.691,3.621l-.486.972a1.624,1.624,0,0,1-.193.333,2.2,2.2,0,0,1,.133-.359l.426-1,1.6-3.661c1.331-3.135,3.188-7.4,5.212-12.114s3.994-8.972,5.438-12.014c.739-1.518,1.331-2.736,1.791-3.574.213-.386.379-.706.513-.958A1.764,1.764,0,0,1,238.079,157.74Z" transform="translate(-174.288 -117.321)"/><path class="e" d="M295.07,166.17c.033.06-.666.426-1.644,1.251a11.807,11.807,0,0,0-1.538,1.591,13.034,13.034,0,0,0-1.451,2.3,13.576,13.576,0,0,0-.905,2.556,11.629,11.629,0,0,0-.293,2.2c-.047,1.265.1,2.05.033,2.057a1.932,1.932,0,0,1-.133-.539,3.925,3.925,0,0,1-.093-.666,6.922,6.922,0,0,1-.047-.879,10.436,10.436,0,0,1,.233-2.263,12.644,12.644,0,0,1,.9-2.662,12.783,12.783,0,0,1,1.511-2.343,10.769,10.769,0,0,1,1.631-1.577,6.275,6.275,0,0,1,.712-.506,4.073,4.073,0,0,1,.566-.339A1.744,1.744,0,0,1,295.07,166.17Z" transform="translate(-196.435 -120.14)"/><path class="d" d="M290.67,117.315l-10.71,20.022a7.069,7.069,0,0,1-9.112,3.115h0a7.062,7.062,0,0,1-3.328-9.745l1.844-3.474s-4.659-3.015-2.476-8.047c1.944-4.486,9.079-17.159,10.59-19.835l9.026,4.04a10.137,10.137,0,0,1,4.167,13.925Z" transform="translate(-188.846 -97.796)"/><path class="n" d="M270.6,141.13a12.773,12.773,0,0,0,7.355,1.065s-3.155,2.909-7.947.226Z" transform="translate(-190.085 -111.767)"/><path class="e" d="M276.034,116.877a.785.785,0,0,0,.366,1.032.752.752,0,0,0,1.025-.313.785.785,0,0,0-.366-1.032.752.752,0,0,0-1.025.313Z" transform="translate(-192.075 -103.522)"/><path class="e" d="M276.129,115.971c.047.133.765,0,1.538.319s1.158.978,1.285.925.04-.233-.12-.519a2.183,2.183,0,0,0-.978-.859,2.09,2.09,0,0,0-1.278-.14C276.262,115.772,276.1,115.885,276.129,115.971Z" transform="translate(-192.13 -103.248)"/><path class="e" d="M286.843,122.2a.779.779,0,0,0,.366,1.032.752.752,0,0,0,1.025-.32.785.785,0,0,0-.366-1.025.746.746,0,0,0-1.025.313Z" transform="translate(-195.689 -105.3)"/><path class="e" d="M287.389,121.263c.047.133.765,0,1.538.319s1.158.985,1.285.932.047-.233-.12-.526a2.176,2.176,0,0,0-.978-.852,2.043,2.043,0,0,0-1.278-.14C287.522,121.07,287.362,121.2,287.389,121.263Z" transform="translate(-195.895 -105.019)"/><path class="e" d="M278.464,124.97a5.792,5.792,0,0,0-1.145-.779c-.186-.113-.359-.233-.333-.379a1.3,1.3,0,0,1,.393-.526l1.251-1.238a28.454,28.454,0,0,0,3.055-3.328,27.7,27.7,0,0,0-3.328,3.068l-1.231,1.258a1.245,1.245,0,0,0-.446.726.566.566,0,0,0,.193.433,1.537,1.537,0,0,0,.313.193A5.1,5.1,0,0,0,278.464,124.97Z" transform="translate(-192.315 -104.273)"/><path class="e" d="M280.706,130.428c-.12-.06-.493.772-1.471,1.045s-1.83-.213-1.89-.1.126.246.5.426a2.256,2.256,0,0,0,1.551.133,1.957,1.957,0,0,0,1.185-.9C280.766,130.7,280.766,130.455,280.706,130.428Z" transform="translate(-192.534 -108.187)"/><path class="e" d="M289.12,116.66c0,.246.792.486,1.644,1s1.478,1.085,1.677.952c.093-.067.053-.319-.146-.666a3.381,3.381,0,0,0-2.536-1.484C289.373,116.46,289.127,116.547,289.12,116.66Z" transform="translate(-196.475 -103.517)"/><path class="e" d="M278.048,112.809c.06.24.666.293,1.331.566s1.125.666,1.331.519.093-.28-.073-.546a1.91,1.91,0,0,0-.925-.759,1.95,1.95,0,0,0-1.2-.113C278.181,112.53,278.015,112.676,278.048,112.809Z" transform="translate(-192.771 -102.17)"/><path class="d" d="M296.643,130.85c.107,0,3.894.519,2.256,3.894s-4.659,1.032-4.659.932S296.643,130.85,296.643,130.85Z" transform="translate(-198.187 -108.329)"/><path class="n" d="M296.734,135.722s.04.067.113.166a.666.666,0,0,0,.439.22,1.624,1.624,0,0,0,1.331-.978,2.182,2.182,0,0,0,.246-.919.759.759,0,0,0-.226-.666.333.333,0,0,0-.426,0c-.087.073-.1.146-.12.146s-.047-.093.047-.22a.426.426,0,0,1,.24-.146.5.5,0,0,1,.366.073.925.925,0,0,1,.359.819,2.23,2.23,0,0,1-.253,1.038,1.7,1.7,0,0,1-1.564,1.045.752.752,0,0,1-.5-.353C296.7,135.808,296.721,135.722,296.734,135.722Z" transform="translate(-199.017 -109.154)"/><path class="e" d="M295.423,122.2a2,2,0,0,0-2,.113c-.439.386-.739.919-1.178,1.331a1.331,1.331,0,0,1-1.611.253,1.151,1.151,0,0,1-.359-1.1,3.181,3.181,0,0,1,.486-1.112c.912-1.5,1.957-2.942,2.742-4.519a8.979,8.979,0,0,0,1.072-5.105,4.926,4.926,0,0,0-3-4.04c-1.1-.386-2.323-.273-3.448-.592a4.6,4.6,0,0,1-2.955-2.716,8,8,0,0,0-.439-.759c.04-.08.439-.759.832-.892,2.969-1.005,6.982.146,9.438,2.083a10.909,10.909,0,0,1,4.207,8.174c.033,3.128-1.937,6.576-3.767,8.906" transform="translate(-195.01 -98.914)"/><path class="e" d="M293.914,119.935c.939-1.6,2.456-2.749,3.614-4.187s2-3.468,1.132-5.119c-.28-.566-.732-1.038-.965-1.624a8.047,8.047,0,0,1-.333-1.87,6.5,6.5,0,0,0-3.222-4.659c-1.185-.666-2.549-.932-3.754-1.564-1.9-1-3.288-2.849-5.325-3.641a2.529,2.529,0,0,0-2.07-.067,1.251,1.251,0,0,0-.513,1.79,1.085,1.085,0,0,0-1.5-.719,1.637,1.637,0,0,0-.845,1.6,3.561,3.561,0,0,0,.725,1.757,9.012,9.012,0,0,0,5.125,3.534l4.6-.359,3.767,2.789,2.782,4.44-5.052,6.563Z" transform="translate(-193.468 -97.015)"/></g><g transform="translate(166.083 57.773)"><path class="o" d="M241.361,84.472a16.228,16.228,0,1,0-22.145,16.141c.126,1.917.266,4.087.266,4.087l14.191-.919s-.06-2.3-.166-4.346a16.214,16.214,0,0,0,7.854-14.963Z" transform="translate(-208.937 -69.288)"/><path class="e" d="M232.512,112.309v-.792c0-.513.073-1.278.153-2.256s.193-2.183.413-3.561a24.567,24.567,0,0,1,1.178-4.606,15.734,15.734,0,0,1,1.178-2.509,3.015,3.015,0,0,1,1.045-1.065,1.671,1.671,0,0,1,1.538-.047,1.1,1.1,0,0,1,.552.606,1.112,1.112,0,0,1,0,.839,2.323,2.323,0,0,1-1.178,1.158,4.46,4.46,0,0,1-5.8-2.576,3.408,3.408,0,0,1-.22-1.864,1.458,1.458,0,0,1,1.4-1.218,1.025,1.025,0,0,1,.859.519,1.458,1.458,0,0,1,.193.985,3.182,3.182,0,0,1-1.032,1.684,4.819,4.819,0,0,1-3.707,1.331,4.22,4.22,0,0,1-3.281-2.13,2.456,2.456,0,0,1-.233-1.957,1.185,1.185,0,0,1,1.664-.732,1.651,1.651,0,0,1,.732.666,2.583,2.583,0,0,1,.306.919,4.612,4.612,0,0,1-.126,1.864,4.819,4.819,0,0,1-2.11,2.862,4.912,4.912,0,0,1-3.328.666,2.589,2.589,0,0,1-1.5-.666,1.251,1.251,0,0,1-.193-1.551,1.072,1.072,0,0,1,.706-.406,1.578,1.578,0,0,1,.785.1,2.316,2.316,0,0,1,1.058,1.052c.466.852.845,1.684,1.231,2.476,1.5,3.182,2.6,5.811,3.328,7.635.366.912.666,1.624.825,2.1.087.24.153.426.206.552a1.456,1.456,0,0,1,.06.193l-.08-.186-.226-.539-.859-2.1c-.759-1.81-1.87-4.433-3.388-7.6-.386-.785-.779-1.631-1.238-2.463a2.19,2.19,0,0,0-.985-.978,1.118,1.118,0,0,0-1.3.253,1.1,1.1,0,0,0,.186,1.331,2.41,2.41,0,0,0,1.4.619,4.733,4.733,0,0,0,3.2-.666,4.659,4.659,0,0,0,2-2.756,4.393,4.393,0,0,0,.12-1.79,1.75,1.75,0,0,0-.925-1.431,1.012,1.012,0,0,0-.845,0,1.032,1.032,0,0,0-.552.666,2.256,2.256,0,0,0,.22,1.8,4.04,4.04,0,0,0,3.128,2,4.613,4.613,0,0,0,3.548-1.285,3,3,0,0,0,.965-1.558,1.285,1.285,0,0,0-.166-.859.852.852,0,0,0-.7-.426,1.178,1.178,0,0,0-.792.313,1.331,1.331,0,0,0-.413.752,3.188,3.188,0,0,0,.206,1.757,4.28,4.28,0,0,0,5.591,2.483,2.157,2.157,0,0,0,1.092-1.065.958.958,0,0,0-.453-1.231,1.511,1.511,0,0,0-1.391.04,2.889,2.889,0,0,0-.978,1,15.731,15.731,0,0,0-1.171,2.476,24.267,24.267,0,0,0-1.2,4.566c-.233,1.378-.359,2.576-.453,3.554s-.14,1.731-.186,2.256c0,.246-.04.446-.047.586A1.813,1.813,0,0,1,232.512,112.309Z" transform="translate(-212.915 -77.55)"/><path class="e" d="M238.1,124.243l-12.181.792a.925.925,0,0,1-.978-.859h0a.919.919,0,0,1,.859-.972l12.187-.785a.912.912,0,0,1,.972.852h0A.919.919,0,0,1,238.1,124.243Z" transform="translate(-214.288 -87.054)"/><path class="e" d="M238.238,126.36l-12.187.792a.914.914,0,1,0,.12,1.824l1.331-.087,2,3.268a1.191,1.191,0,0,0,1.085.559l4.353-.28a1.2,1.2,0,0,0,1.005-.706l1.5-3.481.912-.06a.919.919,0,0,0-.12-1.83Z" transform="translate(-214.374 -88.372)"/><g class="p" transform="translate(1.817 3.271)"><path class="c" d="M215.01,77.515a11.8,11.8,0,0,1,3.108-2.363,8.765,8.765,0,0,1,2.423-.892c.612-.1.965-.067,1.005.06.087.293-1.112.805-2.662,2a13.352,13.352,0,0,0-5.225,13.472c.353,1.964.892,3.148.666,3.328-.12.073-.4-.14-.779-.626a8.42,8.42,0,0,1-1.211-2.31,11.875,11.875,0,0,1-.666-3.834,12.646,12.646,0,0,1,.832-4.759" transform="translate(-211.667 -74.202)"/></g><g class="p" transform="translate(13.549 1.846)"><path class="c" d="M231.394,74.057c-1.025.053-1.95-.166-2.09-.706-.06-.266.113-.566.466-.812a3.288,3.288,0,0,1,3.062-.186c.386.206.586.486.559.759" transform="translate(-229.292 -72.062)"/></g><path class="i" d="M238.118,134.6a7.1,7.1,0,0,1-.859-.206,7.1,7.1,0,0,0-2.083-.126,7.189,7.189,0,0,0-2,.513c-.493.213-.785.386-.8.359a2.47,2.47,0,0,1,.739-.486,5.991,5.991,0,0,1,2.063-.579,5.884,5.884,0,0,1,2.137.186A2.575,2.575,0,0,1,238.118,134.6Z" transform="translate(-216.776 -90.943)"/><path class="i" d="M238.7,129.253c0,.053-2.2.24-4.919.419s-4.919.273-4.926.213,2.2-.24,4.912-.413S238.7,129.2,238.7,129.253Z" transform="translate(-215.599 -89.335)"/><path class="i" d="M238.517,131.508a7.322,7.322,0,0,1-1.191.193c-.739.1-1.764.206-2.9.3s-2.163.14-2.909.16a6.655,6.655,0,0,1-1.2,0,6.711,6.711,0,0,1,1.2-.133l2.9-.22,2.9-.24A7.1,7.1,0,0,1,238.517,131.508Z" transform="translate(-216.084 -90.092)"/></g><g transform="translate(54.782 126.513)"><path class="a" d="M110.8,250.876l2.662,4.24s11.315-10.39,22.491-7.455C135.933,247.648,125.869,239.115,110.8,250.876Z" transform="translate(-90.82 -204.67)"/><path class="a" d="M148.56,244.107s8.287-9,20.441-6.949l3.328.5-1.052-1.91S150.118,228.505,148.56,244.107Z" transform="translate(-103.447 -201.128)"/><path class="q" d="M108.476,203.212s-16.6-2.855-27.476,3.035l17.306,32.535s14.151-13.638,27.689-5.238Z" transform="translate(-80.855 -190.579)"/><path class="e" d="M108.4,203.161a1.149,1.149,0,0,1,.093.133l.246.413.958,1.617,3.594,6.164,12.726,21.965a.146.146,0,0,1-.2.2,18.284,18.284,0,0,0-6.37-2.443,19.969,19.969,0,0,0-3.588-.253,22.551,22.551,0,0,0-3.674.466,31.55,31.55,0,0,0-13.725,7.322l-.146.133a.16.16,0,0,1-.233,0v-.033L80.8,206.263a.126.126,0,0,1,.053-.18h0a33.473,33.473,0,0,1,11.062-3.295,56.268,56.268,0,0,1,8.859-.386c2.449.087,4.36.28,5.651.439.666.08,1.145.153,1.478.213l.379.067h-.007l-.379-.047c-.333-.04-.825-.107-1.478-.173-1.331-.133-3.208-.3-5.651-.359a56.522,56.522,0,0,0-8.819.446,33.4,33.4,0,0,0-10.963,3.328l.053-.18,17.306,32.535-.26-.047.146-.133a35.046,35.046,0,0,1,6.616-4.659,27.622,27.622,0,0,1,7.268-2.756,21.78,21.78,0,0,1,3.734-.466,19.463,19.463,0,0,1,3.648.26,18.723,18.723,0,0,1,6.47,2.5l-.206.2L113.176,211.6l-3.541-6.217-.925-1.651c-.1-.186-.18-.326-.233-.433a1.117,1.117,0,0,1-.073-.14Z" transform="translate(-80.782 -190.528)"/><path class="q" d="M148.479,192.438s-12.553-7.987-25.879,6.656l17.492,30.345s3.568-12.314,24.454-8.034Z" transform="translate(-94.766 -186.48)"/><path class="e" d="M148.413,192.374a.586.586,0,0,1,.087.126c.053.1.133.226.226.393l.885,1.544,3.328,5.884,11.668,20.987a.128.128,0,0,1-.153.193h0l-3.108-.513a14.238,14.238,0,0,0-1.6-.18l-1.637-.133a13.979,13.979,0,0,0-1.671-.04l-1.684.007c-.572,0-1.138.113-1.711.166a12.745,12.745,0,0,0-1.717.26l-1.711.386-1.684.592a17.817,17.817,0,0,0-1.624.752,5.078,5.078,0,0,0-.785.446l-.765.493c-.506.339-.958.752-1.431,1.132a15.114,15.114,0,0,0-1.258,1.331A10.484,10.484,0,0,0,140.2,229.4h0a.166.166,0,0,1-.213.1.16.16,0,0,1-.087-.073l-.706-1.218c-6.184-10.75-11.981-20.767-16.767-29.134a.153.153,0,0,1,0-.166,29.447,29.447,0,0,1,9.472-7.122,18.917,18.917,0,0,1,8.939-1.677,18.357,18.357,0,0,1,5.718,1.278,14.154,14.154,0,0,1,1.4.666l.346.2.106.08-.12-.06-.353-.18c-.313-.153-.779-.379-1.4-.619a18.684,18.684,0,0,0-14.537.526,29.34,29.34,0,0,0-9.358,7.1v-.16l16.807,29.154.732,1.2-.306.04a10.956,10.956,0,0,1,1.924-3.328,18.059,18.059,0,0,1,1.291-1.378c.493-.393.952-.819,1.471-1.158l.779-.506a5.325,5.325,0,0,1,.805-.453c.559-.26,1.085-.572,1.657-.772l1.711-.592,1.744-.393a11.981,11.981,0,0,1,1.744-.26c.579-.053,1.151-.16,1.724-.166h1.711a11.816,11.816,0,0,1,1.684.04l1.651.14a12.927,12.927,0,0,1,1.617.18l3.128.526-.153.213c-4.772-8.653-8.759-15.9-11.568-21.007-1.391-2.536-2.489-4.546-3.242-5.931l-.852-1.571c-.087-.173-.16-.306-.213-.406A1.089,1.089,0,0,1,148.413,192.374Z" transform="translate(-94.7 -186.417)"/><path class="q" d="M88,184.62l18.724,36.043s15.209-.666,21.652,6.749L111.03,197.227S100.86,184.62,88,184.62Z" transform="translate(-83.196 -184.593)"/><path class="e" d="M88,184.607h.479l1.438.06h.506l.552.093,1.251.206a10.094,10.094,0,0,1,1.431.346,16.343,16.343,0,0,1,1.6.473c4.473,1.491,10.477,5.1,15.868,11.315h0L128.5,227.266a.166.166,0,0,1-.06.226.16.16,0,0,1-.2,0h0l-.732-.732a15.875,15.875,0,0,0-4.792-3.162,27.29,27.29,0,0,0-5.358-1.757,44.728,44.728,0,0,0-10.65-1.052h0a.16.16,0,0,1-.14-.08c-5.458-10.583-10.117-19.629-13.425-26.032-1.611-3.162-2.9-5.691-3.814-7.435-.433-.845-.772-1.5-1.005-2l-.253-.5-.08-.166a.939.939,0,0,1,.1.18l.28.513,1.052,2,3.9,7.468,13.512,25.839-.14-.08a44.722,44.722,0,0,1,10.723,1.038,28.009,28.009,0,0,1,5.418,1.771,16.234,16.234,0,0,1,4.886,3.235l.759.745-.273.193c-6.436-11.216-12.394-21.612-17.306-30.192h0a43.663,43.663,0,0,0-8.194-7.415,31.57,31.57,0,0,0-7.508-3.914,16.452,16.452,0,0,0-1.6-.486,9.844,9.844,0,0,0-1.418-.359l-1.245-.226-.539-.1-.493-.04Z" transform="translate(-83.192 -184.58)"/></g><g transform="translate(104.33 81.544)"><path class="o" d="M174.4,338.2l.4.666a4.593,4.593,0,0,0,1.89,1.744l.666.346-.666.4a4.659,4.659,0,0,0-1.744,1.89l-.346.7-.4-.666a4.593,4.593,0,0,0-1.89-1.744l-.7-.346.666-.4a4.547,4.547,0,0,0,1.744-1.89Z" transform="translate(-134.702 -182.98)"/><path class="o" d="M118.956,131.93l.4.666a4.579,4.579,0,0,0,1.89,1.737l.666.346-.666.406a4.513,4.513,0,0,0-1.744,1.89l-.346.666-.4-.666a4.566,4.566,0,0,0-1.9-1.744l-.7-.346.666-.4a4.659,4.659,0,0,0,1.744-1.9Z" transform="translate(-116.16 -114.005)"/><path class="o" d="M375.556,167.52l.4.666a4.566,4.566,0,0,0,1.9,1.744l.7.346-.666.4a4.593,4.593,0,0,0-1.737,1.9l-.346.666-.406-.666a4.539,4.539,0,0,0-1.89-1.737l-.706-.333.666-.406a4.513,4.513,0,0,0,1.744-1.89Z" transform="translate(-201.978 -125.906)"/><path class="o" d="M345.259,351.15l.4.666a4.593,4.593,0,0,0,1.9,1.737l.7.346-.666.406a4.6,4.6,0,0,0-1.744,1.89l-.339.7-.406-.666a4.546,4.546,0,0,0-1.89-1.744l-.7-.346.666-.4a4.566,4.566,0,0,0,1.744-1.9Z" transform="translate(-191.849 -187.31)"/><path class="o" d="M352.357,389.74l.193.08a1.245,1.245,0,0,0,.666.067l.206-.04-.08.193a1.245,1.245,0,0,0-.067.666l.04.206-.193-.08a1.251,1.251,0,0,0-.666-.067l-.206.04.08-.193a1.245,1.245,0,0,0,.067-.666Z" transform="translate(-195.106 -200.215)"/><path class="o" d="M369.806,128.81l.186.08a1.264,1.264,0,0,0,.666.067l.2-.04-.073.193a1.185,1.185,0,0,0-.067.666l.04.206-.193-.08a1.264,1.264,0,0,0-.666-.067l-.2.04.073-.193a1.185,1.185,0,0,0,.067-.666Z" transform="translate(-200.941 -112.962)"/><path class="o" d="M131.577,105l.193.073a1.185,1.185,0,0,0,.666.067h.206l-.08.186a1.265,1.265,0,0,0-.067.666l.04.2-.193-.073a1.185,1.185,0,0,0-.666-.067h-.206l.08-.186a1.265,1.265,0,0,0,.067-.666Z" transform="translate(-121.28 -105)"/><path class="o" d="M160.947,308.16l.193.073a1.132,1.132,0,0,0,.666.067l.206-.033-.08.193a1.244,1.244,0,0,0-.067.666l.04.2-.193-.073a1.185,1.185,0,0,0-.666-.067l-.206.04.08-.193a1.264,1.264,0,0,0,.067-.666Z" transform="translate(-131.101 -172.935)"/><path class="o" d="M172.843,386.69l-.186.193-.552.552-2.15,2.123-7.987,7.7v-.08c.419,8.353.952,19.669,1.511,32.315v.28l-.24-.153-2.882-1.93-18.264-12.227h-.04v-.04c-2.729-8.14-5.025-15.009-6.656-19.855-.8-2.409-1.424-4.313-1.864-5.631l-.479-1.5q-.08-.24-.12-.379a.3.3,0,0,0-.033-.133l.053.12.14.379c.12.353.293.845.519,1.484l1.93,5.611c1.651,4.839,3.994,11.688,6.749,19.815l-.053-.067,18.284,12.207L163.4,429.4l-.226.126c-.539-12.647-1.025-23.962-1.384-32.329v-.047h.033l8.041-7.628,2.19-2.057.572-.526A1.178,1.178,0,0,1,172.843,386.69Z" transform="translate(-121.757 -199.195)"/><path class="o" d="M178.177,445.25l-.06,1.884,1.524,1.118-1.81.526-.592,1.791-1.065-1.558L174.29,449l1.158-1.491-.579-1.8,1.777.639Z" transform="translate(-135.598 -218.777)"/><path class="o" d="M145.883,426.04l.04,1.218,1.025.666-1.152.406-.313,1.185-.745-.965-1.218.067.686-1.012-.439-1.138,1.171.346Z" transform="translate(-125.309 -212.353)"/><path class="o" d="M131.934,385.11l.919,1.185,1.5-.093-.839,1.245.546,1.391-1.438-.413-1.158.952-.053-1.5-1.258-.805,1.4-.513Z" transform="translate(-120.838 -198.666)"/><path class="o" d="M190.624,383.34l.925,1.178,1.491-.086-.839,1.238.546,1.4-1.438-.419-1.158.952-.047-1.5-1.265-.805,1.411-.513Z" transform="translate(-140.464 -198.074)"/><path class="o" d="M175.545,400.48l.586.759.952-.06-.532.792.346.892-.919-.266-.739.606-.033-.952-.805-.519.9-.326Z" transform="translate(-135.635 -203.806)"/></g><g transform="translate(87.23 74.769)"><circle class="a" cx="13.272" cy="13.272" r="13.272" transform="translate(8.507 126.564)"/><g class="r" transform="translate(15.716 141.814)"><path class="c" d="M118.42,310.043a2.17,2.17,0,1,1-2.163-2.163,2.17,2.17,0,0,1,2.163,2.163Z" transform="translate(-114.08 -307.88)"/></g><g class="r" transform="translate(14.464 136.475)"><path class="c" d="M114.729,301.118a1.265,1.265,0,1,1-1.265-1.258,1.265,1.265,0,0,1,1.265,1.258Z" transform="translate(-112.2 -299.86)"/></g><path class="a" d="M99.369,299.287c.06.233-11.362,11.189-8.413,13.525s15.309-3.654,25.886-12.181,20.2-18.883,17.559-21.626-15.835,5.371-15.835,5.371l1.577,1.012s7.987-5.119,10.5-3.135-4.659,9.745-14.823,17.159S95.854,312.02,94.344,309.99s5.658-8.8,5.658-8.8Z" transform="translate(-90.469 -156.222)"/><g class="r" transform="translate(0 122.218)"><path d="M99.369,299.287c.06.233-11.362,11.189-8.413,13.525s15.309-3.654,25.886-12.181,20.2-18.883,17.559-21.626-15.835,5.371-15.835,5.371l1.577,1.012s7.987-5.119,10.5-3.135-4.659,9.745-14.823,17.159S95.854,312.02,94.344,309.99s5.658-8.8,5.658-8.8Z" transform="translate(-90.469 -278.44)"/></g><g class="r" transform="translate(9.483 130.475)"><path class="c" d="M109.7,290.855c.106.126-.792.892-1.81,2.423a12.214,12.214,0,0,0-.266,13.425c.958,1.577,1.824,2.376,1.711,2.5s-1.132-.519-2.316-2.09a11.676,11.676,0,0,1,.286-14.257C108.546,291.334,109.638,290.762,109.7,290.855Z" transform="translate(-104.717 -290.845)"/></g><circle class="a" cx="10.949" cy="10.949" r="10.949" transform="translate(152.583 15.173) rotate(-43.86)"/><g class="j" transform="translate(171.634 9.557)"><path d="M348.33,110.924a1.777,1.777,0,1,1,.492,1.275A1.784,1.784,0,0,1,348.33,110.924Z" transform="translate(-348.329 -109.181)"/></g><g class="j" transform="translate(175.202 14.443)"><path d="M353.69,117.545a1.038,1.038,0,1,1,.288.744,1.045,1.045,0,0,1-.288-.744Z" transform="translate(-353.69 -116.52)"/></g><g class="j" transform="translate(173.418 18.662)"><path d="M351.4,122.86a.373.373,0,0,1,.373.386.393.393,0,0,1-.393.379.386.386,0,0,1-.373-.393.379.379,0,0,1,.393-.373Z" transform="translate(-351.01 -122.86)"/></g></g></g></svg>