<svg xmlns="http://www.w3.org/2000/svg" viewBox="0 0 138.09 138.09"><defs><style>.cls-1{fill:#29abe2;}.cls-2{fill:#009245;}</style></defs><title>Element 12@4earth</title><g id="Ebene_2" data-name="Ebene 2"><g id="Ebene_1-2" data-name="Ebene 1"><circle class="cls-1" cx="69.04" cy="69.04" r="69.04"/><path class="cls-2" d="M137,57.45H86.66A16.64,16.64,0,0,1,70,40.82h0A16.63,16.63,0,0,1,86.66,24.19h34.45A68.8,68.8,0,0,1,137,57.45Z"/><rect class="cls-2" x="75.23" y="66.81" width="42.05" height="50.25" rx="12.6"/><path class="cls-2" d="M53.27,58.43H34.4a5.29,5.29,0,0,1-5.29-5.29V33.49c0-6.66-.38-12.52-5.62-15.82l-.59.5-.61.57q-.86.78-1.68,1.59L20,20.9c-.72.72-1.42,1.45-2.1,2.2l0,0q-1,1.1-1.92,2.22l-.65.8c-.42.52-.84,1.05-1.24,1.58l-.68.9c-.42.57-.82,1.14-1.22,1.72l-.52.75c-.55.82-1.09,1.66-1.61,2.51-.1.16-.19.32-.28.48-.42.7-.83,1.41-1.22,2.12L8.16,37c-.46.86-.91,1.72-1.33,2.61a2,2,0,0,0-.1.21c-.4.83-.77,1.66-1.13,2.5-.12.27-.23.54-.34.8-.32.78-.64,1.57-.93,2.36-.06.16-.12.3-.17.46-.34.92-.65,1.85-1,2.8L3,49.47c-.24.77-.46,1.55-.66,2.33-.06.23-.13.45-.18.67-.25,1-.47,1.94-.68,2.92,0,.23-.09.47-.13.7-.16.81-.31,1.62-.44,2.44l-.12.78c-.15,1-.28,2-.39,3,0,.16,0,.33,0,.49-.09.89-.15,1.78-.21,2.68,0,.28,0,.56,0,.84,0,1-.08,2.1-.08,3.17H0C0,70.69,0,71.82.09,73c0,.38.05.75.08,1.13,0,.74.09,1.48.16,2.21s.18,1.53.28,2.29c.06.46.11.93.18,1.4.18,1.17.38,2.33.62,3.48s.47,2.14.74,3.2c.07.28.15.56.23.84.2.75.41,1.51.64,2.25.12.39.24.77.37,1.15.21.63.42,1.27.64,1.89.15.42.3.83.46,1.24.22.58.45,1.17.69,1.74s.35.84.53,1.26.5,1.11.75,1.67c.2.41.39.83.59,1.24s.55,1.08.84,1.62.41.8.63,1.2c.31.56.63,1.11,1,1.66l.63,1.07c.13.21.27.41.39.62.52.82,1,1.63,1.6,2.43l.67.95c.48.68,1,1.35,1.48,2l.76,1c.52.66,1.06,1.31,1.6,2l.7.81c.68.76,1.36,1.5,2.07,2.23,1,1,2,2,3.07,3h6v0A15.94,15.94,0,0,0,40.8,104.88v-17a4.49,4.49,0,0,1,4.49-4.49h7.63A12.7,12.7,0,0,0,65.73,71.5,12.47,12.47,0,0,0,53.27,58.43Z"/></g></g></svg>