<svg xmlns="http://www.w3.org/2000/svg" width="31.279" height="31.28" xmlns:v="https://vecta.io/nano"><ellipse cx="15.534" cy="15.64" rx="14.388" ry="15.64" fill="#353ac6"/><path d="M15.639 0C7.001 0-.001 7.002-.001 15.64s7.002 15.64 15.64 15.64 15.64-7.002 15.64-15.64S24.277 0 15.639 0zm0 29.324a13.64 13.64 0 0 1-5.41-1.113l7.122-8.012a.98.98 0 0 0 .247-.649v-2.933c0-.259-.103-.508-.286-.691s-.432-.286-.691-.286c-3.451 0-7.093-3.588-7.129-3.624-.183-.183-.432-.286-.691-.286H4.887a.98.98 0 0 0-.977.977v5.865c0 .37.209.708.54.874l3.37 1.685v5.741C2.33 23.048.407 15.818 3.272 9.772h3.57a.98.98 0 0 0 .691-.286l3.91-3.91a.98.98 0 0 0 .286-.691V2.523c3.288-.976 6.822-.686 9.906.813a5.85 5.85 0 0 0-.368.337c-1.676 1.677-2.178 4.199-1.272 6.39s3.043 3.621 5.415 3.623q.145 0 .291-.007c.87 3.753.782 7.664-.257 11.373-.013.053-.022.106-.026.16a13.64 13.64 0 0 1-9.779 4.113z" fill="#299131"/></svg>