<svg xmlns="http://www.w3.org/2000/svg" width="31.279" height="31.28" viewBox="0 0 31.279 31.28"><defs><style>.a{fill:#353ac6;}.b{fill:#299131;}</style></defs><ellipse class="a" cx="14.388" cy="15.64" rx="14.388" ry="15.64" transform="translate(1.146)"/><path class="b" d="M18.21,1.928a15.64,15.64,0,1,0,15.64,15.64A15.64,15.64,0,0,0,18.21,1.928Zm0,29.324A13.639,13.639,0,0,1,12.8,30.139l7.122-8.012a.978.978,0,0,0,.247-.649V18.545a.977.977,0,0,0-.977-.977c-3.451,0-7.093-3.588-7.129-3.624a.977.977,0,0,0-.691-.286H7.458a.978.978,0,0,0-.977.977V20.5a.977.977,0,0,0,.54.874l3.37,1.685V28.8A13.693,13.693,0,0,1,5.843,11.7h3.57a.978.978,0,0,0,.691-.286l3.91-3.91a.978.978,0,0,0,.286-.691V4.451a13.723,13.723,0,0,1,9.906.813c-.127.107-.25.219-.368.337a5.866,5.866,0,0,0,4.143,10.013q.145,0,.291-.007a22.954,22.954,0,0,1-.257,11.373.975.975,0,0,0-.026.16,13.642,13.642,0,0,1-9.779,4.113Z" transform="translate(-2.571 -1.928)"/></svg>