<svg xmlns="http://www.w3.org/2000/svg" viewBox="0 0 45.71 45.35" xmlns:v="https://vecta.io/nano"><style>.D,.F,.G,.H{isolation:isolate}</style><defs><clipPath id="A"><path d="M22.86 22.68a9 9 0 1 0-9-9h0a9 9 0 0 0 9 9zm0 4.5c-6 0-18 3-18 9v4.5h36v-4.5c-.01-5.99-12-9-18-9z" fill="none"/></clipPath><clipPath id="B"><circle cx="22.85" cy="27.95" r="23.27" fill="none"/></clipPath></defs><g clip-path="url(#A)"><g clip-path="url(#B)"><path class="D" d="M46.11 27.93A23.26 23.26 0 0 1 45 35.2v7.87a1.49 1.49 0 0 1-1.49 1.49h0A1.49 1.49 0 0 1 42 43.07v-1.9a23.23 23.23 0 0 1-19.12 10 23.64 23.64 0 0 1-4.88-.49v2.62a1.49 1.49 0 0 1-1.48 1.49h0A1.49 1.49 0 0 1 15 53.3v-3.47a22.58 22.58 0 0 1-4.21-2A23.25 23.25 0 0 1 .08 32.65a23.56 23.56 0 0 1-.38-2.52l-.1-2.2A23.17 23.17 0 0 1 3 15.78a23.62 23.62 0 0 1 4.49-5.32 23.26 23.26 0 0 1 38.6 17.47z" fill="#41abe2"/><path d="M45.75 23.86h-17a5.6 5.6 0 0 1-5.6-5.6h0a5.6 5.6 0 0 1 5.6-5.6h11.6a23.07 23.07 0 0 1 5.4 11.2z" fill="#48ae4d"/><path class="F" d="M6.2 44.16A23.4 23.4 0 0 1 3 40.08a23.15 23.15 0 0 1-2.92-7.43 23.56 23.56 0 0 1-.38-2.52l-.1-2.2A23.17 23.17 0 0 1 3 15.78a23.62 23.62 0 0 1 4.49-5.32c1.79 1.11 1.91 3.09 1.91 5.34v6.61a1.79 1.79 0 0 0 1.79 1.79h6.35a4.2 4.2 0 0 1 4.2 4.4 4.28 4.28 0 0 1-4.32 4h-2.57a1.51 1.51 0 0 0-1.51 1.51v5.73a5.28 5.28 0 0 1-4.16 5.23 7.35 7.35 0 0 1-1.82.23" fill="#bcd363"/><path class="G" d="M45.74 23.88A23.25 23.25 0 0 0 22.84 4.7v46.51A23.23 23.23 0 0 0 42 41.19v1.9a1.49 1.49 0 1 0 3 0v-7.87A23.26 23.26 0 0 0 46.1 28a22.9 22.9 0 0 0-.36-4.12z" fill="#4777bb"/><g fill="#50b377" class="H"><path d="M45.74 23.88h-17a5.59 5.59 0 0 1-5.6-5.6h0a5.6 5.6 0 0 1 5.6-5.6h11.6a23.07 23.07 0 0 1 5.4 11.2z"/><rect x="26.66" y="27.04" width="14.16" height="16.3" rx="7.08"/></g></g></g></svg>