<svg id="person-24px" xmlns="http://www.w3.org/2000/svg" xmlns:xlink="http://www.w3.org/1999/xlink" viewBox="0 0 45.71 45.35"><defs><style>.cls-1{fill:none;}.cls-2{clip-path:url(#clip-path);}.cls-3{clip-path:url(#clip-path-2);}.cls-4{fill:#41abe2;}.cls-4,.cls-6,.cls-7,.cls-8{isolation:isolate;}.cls-5{fill:#48ae4d;}.cls-6{fill:#bcd363;}.cls-7{fill:#4777bb;}.cls-8{fill:#50b377;}</style><clipPath id="clip-path"><path id="Pfad_9443" data-name="Pfad 9443" class="cls-1" d="M22.86,22.68a9,9,0,1,0-9-9h0a9,9,0,0,0,9,9Zm0,4.5c-6,0-18,3-18,9v4.5h36v-4.5C40.85,30.19,28.86,27.18,22.86,27.18Z"/></clipPath><clipPath id="clip-path-2"><circle class="cls-1" cx="22.85" cy="27.95" r="23.27"/></clipPath></defs><path id="Pfad_9442" data-name="Pfad 9442" class="cls-1" d="M2.71,0h54V54h-54Z"/><g class="cls-2"><g class="cls-3"><path class="cls-4" d="M46.11,27.93A23.26,23.26,0,0,1,45,35.2v7.87a1.49,1.49,0,0,1-1.49,1.49h0A1.49,1.49,0,0,1,42,43.07v-1.9a23.23,23.23,0,0,1-19.12,10A23.64,23.64,0,0,1,18,50.68V53.3a1.49,1.49,0,0,1-1.48,1.49h0A1.49,1.49,0,0,1,15,53.3V49.83a22.58,22.58,0,0,1-4.21-2A23.25,23.25,0,0,1,.08,32.65,23.56,23.56,0,0,1-.3,30.13c-.07-.73-.1-1.46-.1-2.2A23.17,23.17,0,0,1,3,15.78a23.62,23.62,0,0,1,4.49-5.32,23.26,23.26,0,0,1,32.88,2.2,23.26,23.26,0,0,1,5.72,15.27Z"/><path class="cls-5" d="M45.75,23.86h-17a5.6,5.6,0,0,1-5.6-5.6h0a5.6,5.6,0,0,1,5.6-5.6h11.6A23.07,23.07,0,0,1,45.75,23.86Z"/><path class="cls-6" d="M6.2,44.16A23.4,23.4,0,0,1,3,40.08,23.15,23.15,0,0,1,.08,32.65,23.56,23.56,0,0,1-.3,30.13c-.07-.73-.1-1.46-.1-2.2A23.17,23.17,0,0,1,3,15.78a23.62,23.62,0,0,1,4.49-5.32C9.28,11.57,9.4,13.55,9.4,15.8v6.61a1.79,1.79,0,0,0,1.79,1.79h6.35a4.2,4.2,0,0,1,4.2,4.4,4.28,4.28,0,0,1-4.32,4H14.85a1.51,1.51,0,0,0-1.51,1.51v5.73a5.28,5.28,0,0,1-4.16,5.23,7.35,7.35,0,0,1-1.82.23"/><path class="cls-7" d="M45.74,23.88A23.25,23.25,0,0,0,22.84,4.7V51.21A23.23,23.23,0,0,0,42,41.19v1.9a1.49,1.49,0,1,0,3,0V35.22A23.26,23.26,0,0,0,46.1,28,22.9,22.9,0,0,0,45.74,23.88Z"/><path class="cls-8" d="M45.74,23.88h-17a5.59,5.59,0,0,1-5.6-5.6h0a5.6,5.6,0,0,1,5.6-5.6h11.6A23.07,23.07,0,0,1,45.74,23.88Z"/><rect class="cls-8" x="26.66" y="27.04" width="14.16" height="16.3" rx="7.08"/></g></g></svg>