<svg xmlns="http://www.w3.org/2000/svg" width="1080" height="1080" shape-rendering="geometricPrecision" image-rendering="optimizeQuality" fill-rule="evenodd" xmlns:v="https://vecta.io/nano"><g fill="#ebc00c"><path d="M539.5-.5h11c4.605 1.39 8.772 3.723 12.5 7 2.81 3.954 4.81 8.287 6 13 1.195 36.994 1.528 73.994 1 111-5.74 14.289-16.24 19.789-31.5 16.5-7.589-3.255-12.756-8.755-15.5-16.5l-2-111c2.315-10.341 8.482-17.007 18.5-20z" opacity=".976"/><path d="M881.5 147.5c23.426-1.077 33.259 9.923 29.5 33a36.16 36.16 0 0 1-4 7L828.5 259c-14.028 7.653-25.862 5.153-35.5-7.5-4.628-8.836-4.295-17.502 1-26l73.5-68.5c4.247-3.944 8.914-7.111 14-9.5zm-694 1c6.122-.22 11.788 1.28 17 4.5l79.5 72.5c7.468 13.351 5.635 25.184-5.5 35.5-9.367 5.879-18.7 5.879-28 0L170 186.5c-7.9-19.192-2.067-31.859 17.5-38z" opacity=".972"/></g><path fill="#ecc00c" d="M650.5 853.5h-68l16-173c17.352.147 34.685-.353 52-1.5 27.124-9.153 38.624-27.986 34.5-56.5-9.504-25.843-28.004-37.01-55.5-33.5-17.5 5.5-29 17-34.5 34.5l-4.5 47h-90c-1.061-17.428-2.895-34.761-5.5-52-10.316-23.245-28.149-33.078-53.5-29.5-18.5 5.167-30.333 17-35.5 35.5-2.43 29.651 10.737 48.151 39.5 55.5 15.663.5 31.33.667 47 .5l16 173h-68c-12.418-6.922-21.585-16.922-27.5-30-6.305-36.247-17.805-70.747-34.5-103.5-73.893-67.32-104.06-150.82-90.5-250.5 14.577-79.067 55.41-140.234 122.5-183.5 71.524-41.686 146.524-49.02 225-22 90.237 36.913 145.737 103.08 166.5 198.5 15.154 87.404-5.846 164.738-63 232a423.57 423.57 0 0 1-25 24c-17.747 34.494-30.08 70.827-37 109-6.076 11.577-14.909 20.243-26.5 26z" opacity=".996"/><path d="M1010.5 491.5c9.73-.391 19.4.109 29 1.5 12.24 6.721 16.74 16.888 13.5 30.5-5.7 12.607-15.54 18.107-29.5 16.5l-99 3c-15.885-5.263-21.718-16.096-17.5-32.5 3.81-9.808 10.976-14.975 21.5-15.5l82-3.5zm-969 2c39.075.204 78.075 1.704 117 4.5 12.825 6.778 17.325 17.278 13.5 31.5-2.924 7.258-8.091 12.092-15.5 14.5a581.38 581.38 0 0 1-50.5-.5c-21.901-.341-43.735-1.508-65.5-3.5-13.294-6.529-18.127-17.029-14.5-31.5 3.081-7.249 8.247-12.249 15.5-15z" opacity=".975" fill="#ebc00c"/><path fill="#f19310" d="M582.5 853.5h-10l17-173c-29.162-.998-58.495-1.331-88-1-.302 2.559.032 4.893 1 7l16 167h-10l-16-173c-15.67.167-31.337 0-47-.5-28.763-7.349-41.93-25.849-39.5-55.5 5.167-18.5 17-30.333 35.5-35.5 25.351-3.578 43.184 6.255 53.5 29.5 2.605 17.239 4.439 34.572 5.5 52h90l4.5-47c5.5-17.5 17-29 34.5-34.5 27.496-3.51 45.996 7.657 55.5 33.5 4.124 28.514-7.376 47.347-34.5 56.5-17.315 1.147-34.648 1.647-52 1.5l-16 173z"/><path d="M441.5 598.5c19.835-2.833 34.335 4.5 43.5 22 5.571 19.295.071 34.462-16.5 45.5-21.363 8.435-37.863 2.935-49.5-16.5-7.745-23.836-.245-40.836 22.5-51zm191 0c22.883-1.987 37.383 8.013 43.5 30 1.372 20.779-7.794 34.279-27.5 40.5-22.299 3.015-36.799-6.151-43.5-27.5-2.394-21.905 6.772-36.238 27.5-43z" fill="#ecc00c"/><path fill="#ecbc0c" d="M601.5 659.5c3.102 3.604 6.435 7.104 10 10.5a60.93 60.93 0 0 1-11 .5c-.256-3.769.077-7.436 1-11z"/><path fill="#ecbe0c" d="M489.5 659.5c.982 3.462 1.315 7.129 1 11-3.35.165-6.683-.002-10-.5 3.585-3.078 6.585-6.578 9-10.5z"/><path fill="#efa80e" d="M589.5 680.5h-87v6c-.968-2.107-1.302-4.441-1-7 29.505-.331 58.838.002 88 1z"/><path fill="#ecc00c" d="M589.5 680.5l-17 173h-54l-16-167v-6h87z"/><g fill="#ebc00c"><path d="M827.5 771.5c5.336-.249 10.336.918 15 3.5 23.531 23.863 46.698 48.03 69.5 72.5 5.404 11.977 3.238 22.477-6.5 31.5-9.006 6.262-18.339 6.929-28 2L808 808.5c-5.592-18.82.908-31.154 19.5-37z" opacity=".97"/><path d="M243.5 773.5c17.329-.33 27.329 8.003 30 25-.047 3.854-.88 7.521-2.5 11L203.5 881c-17.183 9.156-30.016 4.99-38.5-12.5-2.337-6.971-1.671-13.637 2-20l66.5-69.5c3.267-2.13 6.6-3.963 10-5.5z" opacity=".971"/></g><path fill="#e0e7ec" d="M440.5 853.5h68 10 54 10 68 4v34c-5.13-2.117-10.464-3.617-16-4.5-61.667-.667-123.333-.667-185 0-5.906.726-11.572 2.226-17 4.5v-34h4z" opacity=".994"/><path fill="#eef3f3" d="M654.5 887.5c5.528 2.028 9.195 5.862 11 11.5-1.376 6.208-5.043 10.375-11 12.5-6.027 2.442-12.361 3.942-19 4.5h-180a392.84 392.84 0 0 1-19-4.5c-13.321-8.053-13.321-16.053 0-24 5.428-2.274 11.094-3.774 17-4.5h185c5.536.883 10.87 2.383 16 4.5z" opacity=".997"/><path fill="#e0e7ec" d="M436.5 911.5a392.84 392.84 0 0 0 19 4.5h180c6.639-.558 12.973-2.058 19-4.5v22c-7.458-2.458-15.125-3.958-23-4.5-57-.667-114-.667-171 0a102.8 102.8 0 0 0-24 4.5v-22z" opacity=".992"/><path fill="#eef3f3" d="M654.5 933.5c10.175 4.039 12.675 10.705 7.5 20a16.46 16.46 0 0 1-7.5 4c-4.54 1.791-9.207 3.291-14 4.5h-189a50.61 50.61 0 0 1-15-4.5c-8.18-3.027-11.013-8.693-8.5-17 2.441-2.954 5.275-5.287 8.5-7a102.8 102.8 0 0 1 24-4.5h171c7.875.542 15.542 2.042 23 4.5z" opacity=".997"/><path fill="#e0e7ec" d="M436.5 957.5a50.61 50.61 0 0 0 15 4.5h189c4.793-1.209 9.46-2.709 14-4.5v23c-6.706-2.708-13.706-4.208-21-4.5a7917.29 7917.29 0 0 0-178 0c-6.548.721-12.881 2.221-19 4.5v-23z" opacity=".992"/><path fill="#eef3f3" d="M654.5 980.5c14.65 7.951 14.65 15.951 0 24a63.63 63.63 0 0 1-17 4.5h-183c-6.088-1.2-12.088-2.7-18-4.5-13.333-8-13.333-16 0-24 6.119-2.279 12.452-3.779 19-4.5h178c7.294.292 14.294 1.792 21 4.5z" opacity=".997"/><path fill="#dee5ea" d="M436.5 1004.5c5.912 1.8 11.912 3.3 18 4.5h183a63.63 63.63 0 0 0 17-4.5c-.747 19.82-10.747 32.16-30 37-5.27-.95-10.603-1.28-16-1h-125c-5.729-.29-11.396.05-17 1-5.433-1.1-10.767-3.26-16-6.5-8.602-7.74-13.269-17.9-14-30.5z" opacity=".991"/><path fill="#32435a" d="M483.5 1040.5h125c-11.399 21.53-29.065 34.53-53 39h-21c-21.234-4.39-37.734-15.73-49.5-34-.608-1.65-1.108-3.32-1.5-5z" opacity=".999"/></svg>