<svg xmlns="http://www.w3.org/2000/svg" viewBox="0 0 45.35 45.35" xmlns:v="https://vecta.io/nano"><style>.D,.F,.G,.H{isolation:isolate}</style><defs><clipPath id="A"><path d="M22.68,41.81l-3-2.76C8.92,29.32,1.83,22.9,1.83,15A11.35,11.35,0,0,1,13.29,3.55a12.51,12.51,0,0,1,9.39,4.36,12.47,12.47,0,0,1,9.38-4.36A11.36,11.36,0,0,1,43.53,15c0,7.88-7.09,14.3-17.83,24.06Z" fill="none"/></clipPath><clipPath id="B"><circle cx="22.68" cy="19.15" r="22.65" fill="none"/></clipPath></defs><g clip-path="url(#A)"><g clip-path="url(#B)"><path class="D" d="M45.31 19.13a22.39 22.39 0 0 1-1.13 7.08v7.66a1.45 1.45 0 0 1-1.45 1.45h0a1.45 1.45 0 0 1-1.45-1.45V32a22.59 22.59 0 0 1-18.6 9.75 22.26 22.26 0 0 1-4.73-.5v2.56a1.45 1.45 0 0 1-1.45 1.45h0a1.45 1.45 0 0 1-1.45-1.45v-3.36a22.66 22.66 0 0 1-7.53-4.51 22.49 22.49 0 0 1-4.14-5 22.22 22.22 0 0 1-2.87-7.22 21.91 21.91 0 0 1-.37-2.45l-.1-2.14a22.67 22.67 0 0 1 7.7-17A22.85 22.85 0 0 1 12.36-1 22.65 22.65 0 0 1 45 15.18a23.31 23.31 0 0 1 .31 3.95z" fill="#41abe2"/><path d="M45,15.18H28.45A5.46,5.46,0,0,1,23,9.72h0a5.45,5.45,0,0,1,5.45-5.45h11.3A22.6,22.6,0,0,1,45,15.18Z" fill="#48ae4d"/><path class="F" d="M6.47 34.93a22.49 22.49 0 0 1-3.09-4 22.22 22.22 0 0 1-2.87-7.21 21.91 21.91 0 0 1-.37-2.45l-.1-2.14a22.67 22.67 0 0 1 7.7-17c1.72 1.08 1.85 3 1.85 5.19v6.44a1.73 1.73 0 0 0 1.73 1.74h6.19a4.08 4.08 0 0 1 4.08 4.28 4.16 4.16 0 0 1-4.2 3.89h-2.5a1.47 1.47 0 0 0-1.47 1.48v5.58a5.15 5.15 0 0 1-4.05 5.08A7.93 7.93 0 0 1 7.6 36" fill="#bcd363"/><path class="G" d="M45 15.19A22.67 22.67 0 0 0 22.67-3.48v45.27A22.59 22.59 0 0 0 41.27 32v1.85a1.45 1.45 0 0 0 2.9 0v-7.62a22.68 22.68 0 0 0 1.13-7.08 23.51 23.51 0 0 0-.3-3.96z" fill="#4777bb"/><g fill="#50b377" class="H"><path d="M45,15.19H28.44A5.45,5.45,0,0,1,23,9.74h0a5.45,5.45,0,0,1,5.45-5.45H39.73A22.53,22.53,0,0,1,45,15.19Z"/><rect x="26.39" y="18.26" width="13.78" height="15.86" rx="6.89"/></g></g></g></svg>