<svg id="Komponente_52" data-name="Komponente 52" xmlns="http://www.w3.org/2000/svg" width="44.989" height="69.734" viewBox="0 0 44.989 69.734">
  <ellipse id="freepik--shadow--inject-1--inject-15" cx="20.857" cy="7.163" rx="20.857" ry="7.163" transform="translate(1.626 55.408)" fill="#e6e6e6" opacity="0.67"/>
  <g id="Gruppe_6662" data-name="Gruppe 6662">
    <path id="Vereinigungsmenge_17" data-name="Vereinigungsmenge 17" d="M16.042,40.11H7a7,7,0,0,1-7-7V7A7,7,0,0,1,7,0H37.989a7,7,0,0,1,7,7V33.111a7,7,0,0,1-7,7H28.947L22.495,50.952Z" fill="#f3d516"/>
    <g id="favorite-24px" transform="translate(5.285 3.252)">
      <path id="Pfad_6638" data-name="Pfad 6638" d="M0,0H34.148V34.148H0Z" fill="none"/>
      <path id="Pfad_6639" data-name="Pfad 6639" d="M16.228,29.109l-2.063-1.878C6.838,20.586,2,16.2,2,10.826A7.75,7.75,0,0,1,9.826,3a8.521,8.521,0,0,1,6.4,2.974A8.521,8.521,0,0,1,22.631,3a7.75,7.75,0,0,1,7.826,7.826c0,5.378-4.838,9.761-12.165,16.42Z" transform="translate(0.846 1.269)" fill="#fff"/>
    </g>
  </g>
</svg>
