<?xml version="1.0" encoding="utf-8"?>
<!-- Generator: Adobe Illustrator 23.0.6, SVG Export Plug-In . SVG Version: 6.00 Build 0)  -->
<svg version="1.1" xmlns="http://www.w3.org/2000/svg" xmlns:xlink="http://www.w3.org/1999/xlink" x="0px" y="0px"
	 viewBox="0 0 112.9 206.7" style="enable-background:new 0 0 112.9 206.7;" xml:space="preserve">
<style type="text/css">
	.st0{fill:#207178;}
	.st1{clip-path:url(#SVGID_4_);}
	.st2{fill:#484848;}
</style>
<g id="Ebene_1">
	<g>
		<g>
			<g>
				<g>
					<path id="SVGID_1_" class="st0" d="M56.7,205.5c-31,0-56.2-25.3-56.2-56.4C0.5,121,21,97.7,47.9,93.4c3.1,2.7,4.9,6.1,4.9,9.9
						c0,5.1-3.4,9.6-8.5,12.4c-1.3,0.5-2.5,1-3.7,1.6c-0.1,0-0.2,0.1-0.4,0.1v0.1c-11.5,6-19.4,18-19.4,31.9
						c0,19.8,16.1,35.9,35.9,35.9s35.9-16.1,35.9-35.9c0-15.5-9.8-28.6-23.5-33.7c-5.2-2.8-8.5-7.3-8.5-12.3c0-3.8,1.9-7.2,4.9-9.9
						c26.9,4.2,47.4,27.6,47.4,55.7C112.9,180.3,87.8,205.5,56.7,205.5z"/>
				</g>
				<g>
					<defs>
						<path id="SVGID_2_" d="M56.7,205.5c-31,0-56.2-25.3-56.2-56.4C0.5,121,21,97.7,47.9,93.4c3.1,2.7,4.9,6.1,4.9,9.9
							c0,5.1-3.4,9.6-8.5,12.4c-1.3,0.5-2.5,1-3.7,1.6c-0.1,0-0.2,0.1-0.4,0.1v0.1c-11.5,6-19.4,18-19.4,31.9
							c0,19.8,16.1,35.9,35.9,35.9s35.9-16.1,35.9-35.9c0-15.5-9.8-28.6-23.5-33.7c-5.2-2.8-8.5-7.3-8.5-12.3c0-3.8,1.9-7.2,4.9-9.9
							c26.9,4.2,47.4,27.6,47.4,55.7C112.9,180.3,87.8,205.5,56.7,205.5z"/>
					</defs>
					<clipPath id="SVGID_4_">
						<use xlink:href="#SVGID_2_"  style="overflow:visible;"/>
					</clipPath>
					<g class="st1">
						<g>
							<g>
								<g>
									<rect id="SVGID_3_" x="-4.5" y="88.4" class="st0" width="122.4" height="122.1"/>
								</g>
								<g>
									<defs>
										<rect id="SVGID_5_" x="-4.5" y="88.4" width="122.4" height="122.1"/>
									</defs>
									<clipPath id="SVGID_6_">
										<use xlink:href="#SVGID_5_"  style="overflow:visible;"/>
									</clipPath>
								</g>
							</g>
						</g>
					</g>
				</g>
			</g>
		</g>
	</g>
</g>
<g id="Ebene_2">
	<path class="st2" d="M112.9,57.4c0,28.1-20.5,51.5-47.4,55.7c-3.1-2.7-4.9-6.1-4.9-9.9c0-5.1,3.4-9.6,8.5-12.3
		c13.7-5.1,23.5-18.3,23.5-33.7c0-19.8-16.1-35.9-35.9-35.9S20.8,37.4,20.8,57.2c0,13.9,7.9,25.9,19.4,31.9v0.1
		c0.1,0,0.2,0.1,0.4,0.1c1.2,0.6,2.5,1.1,3.7,1.6c5.2,2.8,8.5,7.3,8.5,12.4c0,3.8-1.9,7.2-4.9,9.9C21,108.8,0.5,85.5,0.5,57.4
		C0.5,26.3,25.7,1,56.7,1C87.8,1,112.9,26.2,112.9,57.4z"/>
</g>
</svg>
