<?xml version="1.0" encoding="UTF-8"?>
<svg id="Ebene_1" data-name="Ebene 1" xmlns="http://www.w3.org/2000/svg" viewBox="0 0 680 680">
  <defs>
    <style>
      .cls-1 {
        fill: #207178;
      }

      .cls-1, .cls-2 {
        stroke-width: 0px;
      }

      .cls-2 {
        fill: #484848;
      }
    </style>
  </defs>
  <path class="cls-1" d="M523.8,489.29c.11-90.26-65.38-167.22-154.48-181.57-9.82,7.86-15.7,19.63-16.07,32.2,0,16.52,10.95,31.16,27.77,40.25,60.54,22.39,91.46,89.62,69.07,150.16-22.39,60.54-89.62,91.46-150.16,69.07-60.54-22.39-91.46-89.62-69.07-150.16,10.09-27.28,29.99-49.82,55.81-63.21v-.23l1.21-.39c3.96-1.94,8.03-3.65,12.19-5.12,16.85-9.09,27.8-23.73,27.8-40.25-.37-12.57-6.25-24.34-16.07-32.2-100.3,15.59-168.97,109.53-153.38,209.83,15.59,100.3,109.53,168.97,209.83,153.38,89.54-13.92,155.58-91.02,155.56-181.64v-.13Z"/>
  <path class="cls-2" d="M523.8,190.71c.11,90.26-65.38,167.22-154.48,181.57-9.82-7.86-15.7-19.63-16.07-32.2,0-16.52,10.95-31.16,27.77-40.25,60.54-22.39,91.46-89.62,69.07-150.16-22.39-60.54-89.62-91.46-150.16-69.07-60.54,22.39-91.46,89.62-69.07,150.16,10.09,27.28,29.99,49.82,55.81,63.21v.23l1.21.39c3.96,1.94,8.03,3.65,12.19,5.12,16.85,9.09,27.8,23.73,27.8,40.25-.37,12.57-6.25,24.34-16.07,32.2-100.3-15.59-168.97-109.53-153.38-209.83C174,62.02,267.94-6.65,368.24,8.94c89.54,13.92,155.58,91.02,155.56,181.64v.13Z"/>
</svg>