<svg id="Ebene_1" data-name="Ebene 1" xmlns="http://www.w3.org/2000/svg" viewBox="0 0 531.62 230.97"><defs><style>.cls-1{fill:#fff;}.cls-2{fill:#207178;}</style></defs><title>CC Logo beta</title><path class="cls-1" d="M117.74,149a56.37,56.37,0,0,0-47.4-55.71,13.16,13.16,0,0,0-4.93,9.88c0,5.07,3.36,9.56,8.52,12.35a35.85,35.85,0,1,1-29,1.8v-.07l.37-.12a38.35,38.35,0,0,1,3.74-1.57c5.17-2.79,8.53-7.28,8.53-12.35a13.16,13.16,0,0,0-4.93-9.88,56.39,56.39,0,1,0,65.05,55.71Z"/><path class="cls-1" d="M143.49,98.44a19.47,19.47,0,0,1-7.93-8.72A31.43,31.43,0,0,1,132.8,76V25.5a31.72,31.72,0,0,1,2.74-13.78A19.57,19.57,0,0,1,143.43,3a27.42,27.42,0,0,1,25,0,19.44,19.44,0,0,1,7.9,8.71A32,32,0,0,1,179,25.43v4.24H165.91V25.43a18.49,18.49,0,0,0-1.11-6.91,9.28,9.28,0,0,0-3.42-4.37,9.55,9.55,0,0,0-5.4-1.5,9.38,9.38,0,0,0-5.37,1.5,9.48,9.48,0,0,0-3.41,4.37,18,18,0,0,0-1.2,7V76a17.92,17.92,0,0,0,1.2,6.91,9.48,9.48,0,0,0,3.41,4.37,9.31,9.31,0,0,0,5.32,1.56,9.41,9.41,0,0,0,5.4-1.51,9.29,9.29,0,0,0,3.47-4.42A18.5,18.5,0,0,0,166,76V71.78h13.13V76a32,32,0,0,1-2.7,13.71,19.46,19.46,0,0,1-7.9,8.72,27.44,27.44,0,0,1-25,0Z"/><path class="cls-1" d="M188.43,1h13v99.4h-13Zm7,87.09h34.31v12.31H195.41Z"/><path class="cls-1" d="M251.29,100.42h-13V1h13Z"/><path class="cls-1" d="M315.85,1h11.42v99.4h-11.9V25.16l1.16,4.37L299.44,84.15H291.1l-17-53.25,1.58-5.74v75.26h-12.4V1h11.9l20.09,62.42Z"/><path class="cls-1" d="M356.22,1h11.89l23,99.4h-14l-15-79-15,79H333.25Zm-8.28,65.49h29.47V78.75H347.94Z"/><path class="cls-1" d="M388.85,1h48.27V13.33H388.85Zm17.64,8.14h13v91.26h-13Z"/><path class="cls-1" d="M445.15,1h13v99.4h-13Zm6.76,0H487.8V13.33H451.91Zm0,43.89h32.47V57.22H451.91Zm0,43.2H487.8v12.31H451.91Z"/><path class="cls-1" d="M143.49,203.44a19.47,19.47,0,0,1-7.93-8.72A31.43,31.43,0,0,1,132.8,181V130.5a31.72,31.72,0,0,1,2.74-13.78,19.57,19.57,0,0,1,7.89-8.71,27.42,27.42,0,0,1,25,0,19.44,19.44,0,0,1,7.9,8.71,32,32,0,0,1,2.7,13.71v4.24H165.91v-4.24a18.5,18.5,0,0,0-1.16-6.91,9.28,9.28,0,0,0-3.42-4.37,9.55,9.55,0,0,0-5.4-1.5,9.38,9.38,0,0,0-5.37,1.5,9.48,9.48,0,0,0-3.41,4.37,18,18,0,0,0-1.2,7V181a17.92,17.92,0,0,0,1.2,6.91,9.48,9.48,0,0,0,3.41,4.37,9.29,9.29,0,0,0,5.37,1.51,9.41,9.41,0,0,0,5.4-1.51,9.28,9.28,0,0,0,3.42-4.37,18.5,18.5,0,0,0,1.16-6.91V176.8H179V181a32,32,0,0,1-2.7,13.71,19.46,19.46,0,0,1-7.9,8.72,27.44,27.44,0,0,1-24.95,0Z"/><path class="cls-1" d="M193.37,203.5a19.67,19.67,0,0,1-8.44-8.54,28.92,28.92,0,0,1-2.9-13.47V130a29,29,0,0,1,2.9-13.53,19.57,19.57,0,0,1,8.44-8.52,32.06,32.06,0,0,1,26.66,0,19.64,19.64,0,0,1,8.45,8.52,29.16,29.16,0,0,1,2.9,13.53v51.54a29,29,0,0,1-2.9,13.47A19.69,19.69,0,0,1,220,203.5a31.69,31.69,0,0,1-26.66,0ZM213,192.4a9.41,9.41,0,0,0,4-4.07,14,14,0,0,0,1.36-6.43V129.54a14,14,0,0,0-1.36-6.43,9.39,9.39,0,0,0-4-4.06,15,15,0,0,0-12.65,0,9.34,9.34,0,0,0-4,4.06,14,14,0,0,0-1.37,6.43V181.9a14,14,0,0,0,1.37,6.43,9.41,9.41,0,0,0,4,4.07,15,15,0,0,0,12.65,0Z"/><path class="cls-1" d="M237.11,106h11.34l27.21,76.23L273.54,184V106h12.37v99.33H274.43l-27.07-73.83,2.12-1.77v75.6H237.11Z"/><path class="cls-1" d="M293,106h11.34l27.21,76.23L329.44,184V106H341.8v99.33H330.33l-27.07-73.83,2.12-1.77v75.6H293Z"/><path class="cls-1" d="M348.91,106h13v99.4h-13Zm6.76,0h35.89v12.31H355.67Zm0,43.89h32.47v12.31H355.67Zm0,43.2h35.89v12.31H355.67Z"/><path class="cls-1" d="M405.9,203.44a19.52,19.52,0,0,1-7.93-8.72A31.41,31.41,0,0,1,395.24,181V130.5A31.71,31.71,0,0,1,398,116.72a19.65,19.65,0,0,1,7.9-8.71,27.42,27.42,0,0,1,25,0,19.38,19.38,0,0,1,7.9,8.71,31.84,31.84,0,0,1,2.7,13.71v4.24H428.32v-4.24a18.5,18.5,0,0,0-1.16-6.91,9.28,9.28,0,0,0-3.42-4.37,9.55,9.55,0,0,0-5.4-1.5,8.91,8.91,0,0,0-8.78,5.87,18,18,0,0,0-1.2,7V181a17.92,17.92,0,0,0,1.2,6.91,9.45,9.45,0,0,0,3.42,4.37,9.26,9.26,0,0,0,5.36,1.51,9.41,9.41,0,0,0,5.4-1.51,9.28,9.28,0,0,0,3.42-4.37,18.5,18.5,0,0,0,1.16-6.91V176.8h13.13V181a31.7,31.7,0,0,1-2.7,13.71,19.41,19.41,0,0,1-7.9,8.72,27.44,27.44,0,0,1-25,0Z"/><path class="cls-1" d="M440.34,106H488.6v12.31H440.34ZM458,114.16h13v91.26H458Z"/><path class="cls-1" d="M117.74,57.41a56.36,56.36,0,0,1-47.4,55.71,13.14,13.14,0,0,1-4.93-9.88c0-5.07,3.36-9.56,8.52-12.35a35.86,35.86,0,1,0-29-1.8v.07l.37.12a36,36,0,0,0,3.74,1.57c5.17,2.79,8.53,7.28,8.53,12.35a13.14,13.14,0,0,1-4.93,9.88,56.39,56.39,0,1,1,65.05-55.71Z"/><rect class="cls-1" x="380.6" y="176.26" width="151.03" height="54.71"/><path class="cls-2" d="M386.14,180.9h6.24v44.73h-6.24Zm3.69,38.92H402c3.18,0,5.49-.61,6.95-1.82a6.25,6.25,0,0,0,2.18-5.1v-.1a9,9,0,0,0-.78-3.9,5.39,5.39,0,0,0-2.48-2.51,9.41,9.41,0,0,0-4.33-.88H389.83v-5.66h13.66a7.48,7.48,0,0,0,5.24-1.63,7.41,7.41,0,0,0-.2-9.84q-2-1.66-5.9-1.66h-12.8V180.9h13.93a16.07,16.07,0,0,1,7.26,1.48,9.78,9.78,0,0,1,4.37,4.18,13.6,13.6,0,0,1,1.45,6.46,10.69,10.69,0,0,1-.89,4.33,9,9,0,0,1-2.73,3.44,10.14,10.14,0,0,1-4.53,1.92,9.83,9.83,0,0,1,4.67,1.93,10,10,0,0,1,3,3.8,11.7,11.7,0,0,1,1,4.92v.09a12.54,12.54,0,0,1-1.6,6.4,10.76,10.76,0,0,1-4.58,4.27,15.17,15.17,0,0,1-6.95,1.51H389.83Z"/><path class="cls-2" d="M426.8,180.9h6.28v44.73H426.8Zm3.05,0h25.69v6H429.85Zm0,19.54h22.3v6h-22.3Zm0,19.22h25.69v6H429.85Z"/><path class="cls-2" d="M459.53,180.9H491.1v6H459.53Zm12.65,3.66h6.27v41.07h-6.27Z"/><path class="cls-2" d="M506.66,180.9H512l16.49,44.73h-6.77l-12.39-36.08-12.4,36.08h-6.77Zm-8.89,28.95H521.3v6H497.77Z"/></svg>