<?xml version="1.0" encoding="utf-8"?>
<!-- Generator: Adobe Illustrator 23.0.6, SVG Export Plug-In . SVG Version: 6.00 Build 0)  -->
<svg version="1.1" id="Ebene_1" xmlns="http://www.w3.org/2000/svg" xmlns:xlink="http://www.w3.org/1999/xlink" x="0px" y="0px"
	 viewBox="0 0 487.4 206.7" style="enable-background:new 0 0 487.4 206.7;" xml:space="preserve">
<style type="text/css">
	.st0{fill:#207178;}
	.st1{fill:#484848;}
	.st2{clip-path:url(#SVGID_2_);}
	.st3{clip-path:url(#SVGID_4_);}
</style>
<g>
	<g>
		<g>
			<path class="st0" d="M138.7,98.6c-3.5-2-6.1-4.9-7.9-8.7c-1.8-3.8-2.7-8.4-2.7-13.7V25.6c0-5.4,0.9-10,2.7-13.8s4.5-6.7,7.9-8.7
				s7.6-3,12.5-3s9,1,12.5,3s6.1,4.9,7.9,8.7c1.8,3.8,2.7,8.4,2.7,13.7v4.2h-13.1v-4.2c0-2.7-0.4-5-1.2-6.9s-1.9-3.4-3.4-4.4
				s-3.3-1.5-5.4-1.5c-2.1,0-3.9,0.5-5.4,1.5s-2.6,2.5-3.4,4.4c-0.8,1.9-1.2,4.2-1.2,7v50.5c0,2.7,0.4,5,1.2,6.9s1.9,3.4,3.4,4.4
				s3.3,1.5,5.4,1.5c2.1,0,3.9-0.5,5.4-1.5s2.6-2.5,3.4-4.4c0.8-1.9,1.2-4.2,1.2-6.9v-4.2h13.1v4.2c0,5.3-0.9,9.9-2.7,13.7
				c-1.8,3.8-4.4,6.7-7.9,8.7s-7.6,3-12.5,3C146.3,101.6,142.2,100.6,138.7,98.6z"/>
			<path class="st0" d="M185,1.2h13v99.4h-13V1.2z M192,88.3h34.3v12.3H192V88.3z"/>
			<path class="st0" d="M247.9,100.6h-13V1.2h13V100.6z"/>
			<path class="st0" d="M312.4,1.2h11.4v99.4h-11.9V25.3l1.2,4.4L296,84.3h-8.3l-17-53.3l1.6-5.7v75.3h-12.4V1.2h11.9l20.1,62.4
				L312.4,1.2z"/>
			<path class="st0" d="M354.1,1.2H366l23,99.4h-13.9l-15-79l-15,79h-13.9L354.1,1.2z M345.9,66.7h29.5v12.2h-29.5V66.7z"/>
			<path class="st0" d="M389.5,1.2h48.3v12.3h-48.3V1.2z M407.2,9.3h13v91.3h-13V9.3z"/>
			<path class="st0" d="M443.1,1.2h13v99.4h-13V1.2z M449.8,1.2h35.9v12.3h-35.9V1.2z M449.8,45.1h32.5v12.3h-32.5V45.1z
				 M449.8,88.3h35.9v12.3h-35.9V88.3z"/>
			<path class="st1" d="M138.7,203.6c-3.5-2-6.1-4.9-7.9-8.7c-1.8-3.8-2.7-8.4-2.7-13.7v-50.5c0-5.4,0.9-10,2.7-13.8
				s4.5-6.7,7.9-8.7s7.6-3,12.5-3s9,1,12.5,3s6.1,4.9,7.9,8.7c1.8,3.8,2.7,8.4,2.7,13.7v4.2h-13.1v-4.2c0-2.7-0.4-5-1.2-6.9
				s-1.9-3.4-3.4-4.4s-3.3-1.5-5.4-1.5c-2.1,0-3.9,0.5-5.4,1.5s-2.6,2.5-3.4,4.4c-0.8,1.9-1.2,4.2-1.2,7v50.5c0,2.7,0.4,5,1.2,6.9
				s1.9,3.4,3.4,4.4s3.3,1.5,5.4,1.5c2.1,0,3.9-0.5,5.4-1.5s2.6-2.5,3.4-4.4c0.8-1.9,1.2-4.2,1.2-6.9V177h13.1v4.2
				c0,5.3-0.9,9.9-2.7,13.7s-4.4,6.7-7.9,8.7s-7.6,3-12.5,3S142.2,205.6,138.7,203.6z"/>
			<path class="st1" d="M191.3,203.7c-3.7-2-6.5-4.8-8.4-8.5s-2.9-8.2-2.9-13.5v-51.5c0-5.3,1-9.8,2.9-13.5s4.8-6.6,8.4-8.5
				c3.7-1.9,8.1-2.9,13.3-2.9s9.6,1,13.3,2.9s6.5,4.8,8.4,8.5s2.9,8.2,2.9,13.5v51.5c0,5.2-1,9.7-2.9,13.5c-1.9,3.7-4.8,6.6-8.4,8.5
				s-8.1,2.9-13.3,2.9S195,205.6,191.3,203.7z M211,192.5c1.8-0.9,3.1-2.3,4-4.1s1.4-3.9,1.4-6.4v-52.4c0-2.5-0.5-4.6-1.4-6.4
				s-2.2-3.1-4-4.1c-1.8-0.9-3.9-1.4-6.3-1.4s-4.6,0.5-6.3,1.4c-1.8,0.9-3.1,2.3-4,4.1c-0.9,1.8-1.4,3.9-1.4,6.4V182
				c0,2.5,0.5,4.6,1.4,6.4c0.9,1.8,2.2,3.1,4,4.1c1.8,0.9,3.9,1.4,6.3,1.4S209.2,193.5,211,192.5z"/>
			<path class="st1" d="M236.4,106.2h11.3l27.2,76.2l-2.1,1.8v-78h12.4v99.3h-11.5l-27.1-73.8l2.1-1.8v75.6h-12.4v-99.3H236.4z"/>
			<path class="st1" d="M292.3,106.2h11.3l27.2,76.2l-2.1,1.8v-78h12.4v99.3h-11.5l-27.1-73.8l2.1-1.8v75.6h-12.4v-99.3H292.3z"/>
			<path class="st1" d="M348.2,106.2h13v99.4h-13V106.2z M355,106.2h35.9v12.3H355V106.2z M355,150.1h32.5v12.3H355V150.1z
				 M355,193.3h35.9v12.3H355V193.3z"/>
			<path class="st1" d="M405.2,203.6c-3.5-2-6.1-4.9-7.9-8.7s-2.7-8.4-2.7-13.7v-50.5c0-5.4,0.9-10,2.7-13.8
				c1.8-3.8,4.5-6.7,7.9-8.7s7.6-3,12.5-3s9,1,12.5,3s6.1,4.9,7.9,8.7c1.8,3.8,2.7,8.4,2.7,13.7v4.2h-13.1v-4.2c0-2.7-0.4-5-1.2-6.9
				c-0.8-1.9-1.9-3.4-3.4-4.4s-3.3-1.5-5.4-1.5s-3.9,0.5-5.4,1.5s-2.6,2.5-3.4,4.4s-1.2,4.2-1.2,7v50.5c0,2.7,0.4,5,1.2,6.9
				c0.8,1.9,1.9,3.4,3.4,4.4s3.3,1.5,5.4,1.5s3.9-0.5,5.4-1.5s2.6-2.5,3.4-4.4s1.2-4.2,1.2-6.9V177h13.1v4.2c0,5.3-0.9,9.9-2.7,13.7
				c-1.8,3.8-4.4,6.7-7.9,8.7s-7.6,3-12.5,3C412.8,206.6,408.7,205.6,405.2,203.6z"/>
			<path class="st1" d="M439.6,106.2h48.3v12.3h-48.3V106.2z M457.3,114.3h13v91.3h-13V114.3z"/>
		</g>
	</g>
</g>
<g>
	<g>
		<g>
			<defs>
				<path id="SVGID_1_" d="M56.7,205.5c-31,0-56.2-25.3-56.2-56.4C0.5,121,21,97.7,47.9,93.4c3.1,2.7,4.9,6.1,4.9,9.9
					c0,5.1-3.4,9.6-8.5,12.4c-1.3,0.5-2.5,1-3.7,1.6c-0.1,0-0.2,0.1-0.4,0.1v0.1c-11.5,6-19.4,18-19.4,31.9
					c0,19.8,16.1,35.9,35.9,35.9s35.9-16.1,35.9-35.9c0-15.5-9.8-28.6-23.5-33.7c-5.2-2.8-8.5-7.3-8.5-12.3c0-3.8,1.9-7.2,4.9-9.9
					c26.9,4.2,47.4,27.6,47.4,55.7C112.9,180.3,87.8,205.5,56.7,205.5z"/>
			</defs>
			<use xlink:href="#SVGID_1_"  style="overflow:visible;fill:#207178;"/>
			<clipPath id="SVGID_2_">
				<use xlink:href="#SVGID_1_"  style="overflow:visible;"/>
			</clipPath>
			<g class="st2">
				<g>
					<g>
						<defs>
							<rect id="SVGID_3_" x="-4.5" y="88.4" width="122.4" height="122.1"/>
						</defs>
						<use xlink:href="#SVGID_3_"  style="overflow:visible;fill:#207178;"/>
						<clipPath id="SVGID_4_">
							<use xlink:href="#SVGID_3_"  style="overflow:visible;"/>
						</clipPath>
						<g class="st3">
						</g>
					</g>
				</g>
			</g>
		</g>
	</g>
</g>
<path class="st1" d="M112.9,57.6c0,28.1-20.5,51.5-47.4,55.7c-3.1-2.7-4.9-6.1-4.9-9.9c0-5.1,3.4-9.6,8.5-12.3
	C82.8,86,92.6,72.8,92.6,57.4c0-19.8-16.1-35.9-35.9-35.9S20.8,37.6,20.8,57.4c0,13.9,7.9,25.9,19.4,31.9v0.1c0.1,0,0.2,0.1,0.4,0.1
	c1.2,0.6,2.5,1.1,3.7,1.6c5.2,2.8,8.5,7.3,8.5,12.4c0,3.8-1.9,7.2-4.9,9.9C21,109,0.5,85.7,0.5,57.6c0-31.1,25.2-56.4,56.2-56.4
	C87.8,1.2,112.9,26.4,112.9,57.6z"/>
</svg>
