<svg id="Ebene_1" data-name="Ebene 1" xmlns="http://www.w3.org/2000/svg" viewBox="0 0 229.75 416.37"><defs><style>.cls-1{fill:#fff;}</style></defs><path class="cls-1" d="M182.09,208.19a114.73,114.73,0,0,0,47.66-93.25l-.1-.08A114.82,114.82,0,1,0,48,208.18a114.83,114.83,0,1,0,181.7,93.33l.1-.08A114.73,114.73,0,0,0,182.09,208.19Zm1.51,118.9A73,73,0,1,1,81.5,236.92v-.14l.76-.24a78,78,0,0,1,7.61-3.2,40.42,40.42,0,0,0,7.59-5.27,26.68,26.68,0,0,0,7-8.72,23.93,23.93,0,0,0,2.81-11.16h0a24,24,0,0,0-2.91-11.33,26.77,26.77,0,0,0-6.86-8.54,40.5,40.5,0,0,0-7.6-5.27,71.56,71.56,0,0,1-7.61-3.2l-.76-.24v-.15a73,73,0,1,1,59.05,3.67,40.91,40.91,0,0,0-7.18,4.91l-.13,0a26.94,26.94,0,0,0-8.54,12.07,23.59,23.59,0,0,0-1.48,7.69c0,.12,0,.24,0,.36s0,0,0,.07,0,0,0,.07,0,.26,0,.39a23.37,23.37,0,0,0,1.45,7.56,26.62,26.62,0,0,0,8.57,12.17l.13,0a40.91,40.91,0,0,0,7.18,4.91A73,73,0,0,1,183.6,327.09Z" transform="translate(0 0)"/></svg>