<svg id="Komponente_52" data-name="Komponente 52" xmlns="http://www.w3.org/2000/svg" width="44.989" height="69.734" viewBox="0 0 44.989 69.734">
  <ellipse id="freepik--shadow--inject-1--inject-15" cx="20.857" cy="7.163" rx="20.857" ry="7.163" transform="translate(1.626 55.408)" fill="#e6e6e6" opacity="0.67"/>
  <g id="Gruppe_6662" data-name="Gruppe 6662">
    <path id="Vereinigungsmenge_17" data-name="Vereinigungsmenge 17" d="M16.042,40.11H7a7,7,0,0,1-7-7V7A7,7,0,0,1,7,0H37.989a7,7,0,0,1,7,7V33.111a7,7,0,0,1-7,7H28.947L22.495,50.952Z" fill="#f3d516"/>
    <path id="mail_FILL1_wght400_GRAD0_opsz48" d="M5.777,26.957a1.705,1.705,0,0,1-1.244-.533A1.705,1.705,0,0,1,4,25.18V9.777a1.705,1.705,0,0,1,.533-1.244A1.705,1.705,0,0,1,5.777,8H25.919A1.822,1.822,0,0,1,27.7,9.777v15.4a1.822,1.822,0,0,1-1.777,1.777Zm10.071-9.123a.638.638,0,0,0,.252-.044q.1-.044.222-.1l9.3-6.072a.57.57,0,0,0,.222-.237.718.718,0,0,0,.074-.326.69.69,0,0,0-.341-.607.586.586,0,0,0-.7.015l-9.034,5.776-9-5.776a.626.626,0,0,0-.711-.03.652.652,0,0,0-.355.592.7.7,0,0,0,.089.341.767.767,0,0,0,.207.252l9.3,6.072q.118.059.222.1a.638.638,0,0,0,.252.044Z" transform="translate(6.152 2.522)" fill="#fff"/>
  </g>
</svg>
