<svg xmlns="http://www.w3.org/2000/svg" xmlns:xlink="http://www.w3.org/1999/xlink" width="875" height="233" viewBox="0 0 875 233">
  <defs>
    <clipPath id="clip-path">
      <rect id="Rechteck_1874" data-name="Rechteck 1874" width="875" height="233" transform="translate(-0.5 -0.304)" fill="none"/>
    </clipPath>
    <clipPath id="clip-path-2">
      <rect id="Rechteck_1862" data-name="Rechteck 1862" width="5.742" height="10.109" fill="none"/>
    </clipPath>
    <clipPath id="clip-path-3">
      <rect id="Rechteck_1864" data-name="Rechteck 1864" width="6.526" height="15.396" fill="none"/>
    </clipPath>
    <clipPath id="clip-path-4">
      <rect id="Rechteck_1865" data-name="Rechteck 1865" width="29.021" height="15.414" fill="none"/>
    </clipPath>
  </defs>
  <g id="Mountains" transform="translate(0.5 0.304)" clip-path="url(#clip-path)">
    <path id="Pfad_11817" data-name="Pfad 11817" d="M1877.077,526.017l-109.468-.342V506.04l63.967.328Z" transform="translate(-962.958 -275.602)" fill="#e48290"/>
    <rect id="Rechteck_1861" data-name="Rechteck 1861" width="769.546" height="23.757" transform="translate(44.924 230.342)" fill="#59b25f"/>
    <path id="Pfad_11818" data-name="Pfad 11818" d="M-10.356,527.16H-102l53.165-21.33h38.479Z" transform="translate(55.28 -275.488)" fill="#e48290"/>
    <path id="Pfad_11819" data-name="Pfad 11819" d="M846.168,224.783l-40.542-66.1L786.855,210.22l-17.3-30.469-14.189-54.476-18.625,76.995-14.4-34.613L714.5,197.911l-30.788-53.265-12.017,30.77L656.678,127.47,636.6,182.092l-31.917-73.156-8.265,6.453L586.1,100.662,556.673,134.05l-23.211-57.4L513.33,131.163,489.564,64.036l-8.456,8.825L466.673,46.049,456.281,62.442,435.051,14.3l-.56,1.252-.091-.2L410.265,69.569l-.009.023v0l-2.65,5.956-25.587-44.9-35.2,45.469L328.808,55.68l-7.218,10.3-2.632,3.47-8.274-6.466-.437,1-.027-.023L278.7,136.2,258.612,81.545l-.332,1.075-.05-.132-19.194,61.289-9.859,24.381-19.7-22.354-6.913,9.859-5.533-4.322-21.371,48.985-13.438-36.571-10.055,32.1-8.046-20.6L123.5,210.912l-5.25-20.255-9.64,23.174L96.144,162.283l-9.5,36.475-11.589,20.4-12.568-34.5-27.14,44.258-20.6,9.221H148.425v.319h53.047v-.319H357.815v.424H598.048v.483h79.226v-.483h199.65Z" transform="translate(-8.306 -7.788)" fill="#e48290"/>
    <path id="Pfad_11820" data-name="Pfad 11820" d="M780.282,144.164,609.69,142.229V-70.29H780.282Z" transform="translate(-332.325 38.282)" fill="none"/>
    <path id="Pfad_11821" data-name="Pfad 11821" d="M1185.233,49.926c0-.187.032-.364.032-.551a9.8,9.8,0,0,0-14.349-8.684,12.75,12.75,0,0,0-23.789,2.987,7.841,7.841,0,0,0-9.813,6.576,4.645,4.645,0,1,0-1.781,8.934h49.221a4.64,4.64,0,0,0,.5-9.258" transform="translate(-616.183 -18.378)" fill="#fff"/>
    <rect id="_330036192_336" data-name=" 330036192 336" width="1.453" height="1.056" transform="translate(769.661 200.023)" fill="#fff"/>
    <rect id="_330035328_337" data-name=" 330035328 337" width="1.453" height="1.056" transform="translate(769.661 203.174)" fill="#fff"/>
    <rect id="_330035088_338" data-name=" 330035088 338" width="1.453" height="1.056" transform="translate(769.661 206.33)" fill="#fff"/>
    <rect id="_330034944_339" data-name=" 330034944 339" width="1.453" height="1.056" transform="translate(769.661 209.486)" fill="#fff"/>
    <rect id="_330035568_340" data-name=" 330035568 340" width="1.453" height="1.056" transform="translate(769.661 212.642)" fill="#fff"/>
    <rect id="_330035544_341" data-name=" 330035544 341" width="1.453" height="1.056" transform="translate(769.661 215.793)" fill="#fff"/>
    <rect id="_330035424_342" data-name=" 330035424 342" width="1.453" height="1.056" transform="translate(769.661 218.949)" fill="#fff"/>
    <rect id="_330034488_345" data-name=" 330034488 345" width="1.453" height="1.056" transform="translate(754.93 196.867)" fill="#fff"/>
    <rect id="_330034464_346" data-name=" 330034464 346" width="1.453" height="1.056" transform="translate(754.93 200.023)" fill="#fff"/>
    <rect id="_330034896_347" data-name=" 330034896 347" width="1.453" height="1.056" transform="translate(754.93 203.174)" fill="#fff"/>
    <rect id="_330034800_348" data-name=" 330034800 348" width="1.453" height="1.056" transform="translate(754.93 206.33)" fill="#fff"/>
    <rect id="_330034368_349" data-name=" 330034368 349" width="1.453" height="1.056" transform="translate(754.93 209.486)" fill="#fff"/>
    <rect id="_330033432_350" data-name=" 330033432 350" width="1.453" height="1.056" transform="translate(754.93 212.642)" fill="#fff"/>
    <rect id="_330033576_351" data-name=" 330033576 351" width="1.453" height="1.056" transform="translate(754.93 215.793)" fill="#fff"/>
    <rect id="_330033552_352" data-name=" 330033552 352" width="1.453" height="1.056" transform="translate(754.93 218.949)" fill="#fff"/>
    <rect id="_330032616_357" data-name=" 330032616 357" width="1.453" height="1.056" transform="translate(761.683 204.185)" fill="#fff"/>
    <rect id="_330032640_358" data-name=" 330032640 358" width="1.453" height="1.056" transform="translate(761.683 207.341)" fill="#fff"/>
    <rect id="_330033264_359" data-name=" 330033264 359" width="1.453" height="1.056" transform="translate(761.683 210.497)" fill="#fff"/>
    <rect id="_330032832_360" data-name=" 330032832 360" width="1.453" height="1.056" transform="translate(761.683 213.648)" fill="#fff"/>
    <rect id="_330033168_361" data-name=" 330033168 361" width="1.453" height="1.056" transform="translate(761.683 216.804)" fill="#fff"/>
    <rect id="_330032904_362" data-name=" 330032904 362" width="1.453" height="1.056" transform="translate(761.683 219.959)" fill="#fff"/>
    <rect id="_330032112_366" data-name=" 330032112 366" width="1.453" height="1.056" transform="translate(764.306 201.03)" fill="#fff"/>
    <rect id="_330032472_367" data-name=" 330032472 367" width="1.453" height="1.056" transform="translate(764.306 204.185)" fill="#fff"/>
    <rect id="_330032544_368" data-name=" 330032544 368" width="1.453" height="1.056" transform="translate(764.306 207.341)" fill="#fff"/>
    <rect id="_330031752_369" data-name=" 330031752 369" width="1.453" height="1.056" transform="translate(764.306 210.497)" fill="#fff"/>
    <rect id="_330031272_370" data-name=" 330031272 370" width="1.453" height="1.056" transform="translate(764.306 213.648)" fill="#fff"/>
    <rect id="_330031248_371" data-name=" 330031248 371" width="1.453" height="1.056" transform="translate(764.306 216.804)" fill="#fff"/>
    <rect id="_330031704_372" data-name=" 330031704 372" width="1.453" height="1.056" transform="translate(764.306 219.959)" fill="#fff"/>
    <path id="Pfad_11822" data-name="Pfad 11822" d="M1109.528,199.8l-12.778,13.516-7.19-8.638-.5-.6-12.081,22.368-13.953-20.824L988.64,340.064l99.686-.683,88.347.2Z" transform="translate(-538.711 -108.816)" fill="#786864"/>
    <path id="Pfad_11823" data-name="Pfad 11823" d="M1178.547,109.12l-.023.041-26.535,47.077,13.953,20.824,12.081-22.368.5.6,7.19,8.638,12.778-13.516Z" transform="translate(-627.676 -59.43)" fill="#fff"/>
    <path id="Pfad_11824" data-name="Pfad 11824" d="M1275.58,328.631l11.9-29.854,26.384,20.669,22.823-38.256.337.469,12.828,18,12.313-11.248,16.653,6.648,2.5-4.649L1437,386.09l-98.475-1.33H1275.7l-23.028,1.33Z" transform="translate(-682.509 -153.143)" fill="#786864"/>
    <path id="Pfad_11825" data-name="Pfad 11825" d="M1377.535,225.27l1.179.9L1423,259.956l-2.5,4.649-16.653-6.648L1391.543,269.2l-12.828-18-.337-.469-22.823,38.256-26.385-20.669Z" transform="translate(-724.172 -122.688)" fill="#fff"/>
    <path id="Pfad_11826" data-name="Pfad 11826" d="M781.537,215.321l-16.876-29.854-26.384,20.674L715.453,167.88l-.337.474-12.828,18L689.975,175.1l-16.653,6.648-2.5-4.645L562.27,322.521l152.332.437,61.744.091L856.114,322Z" transform="translate(-306.499 -91.432)" fill="#786864"/>
    <path id="Pfad_11827" data-name="Pfad 11827" d="M846.129,111.96l-1.179.9L800.66,146.65l2.5,4.645,16.653-6.648L832.122,155.9l12.828-18,.337-.474,22.823,38.261,26.384-20.674Z" transform="translate(-436.332 -60.976)" fill="#fff"/>
    <path id="Pfad_11828" data-name="Pfad 11828" d="M997.227,147.156l-6.621,7.459-3.556-4.8-3.966-5.355-12.3,12.332-61.038,153.5h155.606Z" transform="translate(-495.74 -78.677)" fill="#b3736d"/>
    <path id="Pfad_11829" data-name="Pfad 11829" d="M1060.073,94.08l-.023.05-16.271,35.223,12.3-12.332,3.966,5.355,3.556,4.8,6.621-7.459Z" transform="translate(-568.742 -51.238)" fill="#f0f1f1"/>
    <path id="Pfad_11830" data-name="Pfad 11830" d="M1020.711,448.33h0c-24.818,0-44.941,13.3-44.941,29.709h89.886C1065.652,461.631,1045.547,448.33,1020.711,448.33Z" transform="translate(-531.702 -244.172)" fill="#59b25f"/>
    <path id="Pfad_11831" data-name="Pfad 11831" d="M1302.806,466.18h0c-12.7,0-23,9.891-23,22.1H1325.8C1325.789,476.075,1315.5,466.189,1302.806,466.18Z" transform="translate(-697.29 -253.894)" fill="#59b25f"/>
    <path id="Pfad_11832" data-name="Pfad 11832" d="M1184.793,429.28c-22.577,0-40.884,17.591-40.884,39.29h81.767C1225.677,446.871,1207.375,429.28,1184.793,429.28Z" transform="translate(-623.275 -233.797)" fill="#bbd040"/>
    <path id="Pfad_11833" data-name="Pfad 11833" d="M1655.933,438.06c-22.578,0-40.884,17.591-40.884,39.29h81.767C1696.817,455.651,1678.516,438.06,1655.933,438.06Z" transform="translate(-879.87 -238.579)" fill="#bbd040"/>
    <path id="Pfad_11834" data-name="Pfad 11834" d="M1389.571,419.71h0c-24.818,0-44.941,19.34-44.941,43.192h89.877C1434.507,439.05,1414.389,419.71,1389.571,419.71Z" transform="translate(-732.592 -228.585)" fill="#59b25f"/>
    <path id="Pfad_11835" data-name="Pfad 11835" d="M1092.038,482.55a11.407,11.407,0,0,0-10.929,14.645H1103a11.249,11.249,0,0,0,.455-3.229A11.421,11.421,0,0,0,1092.038,482.55Z" transform="translate(-588.816 -262.809)" fill="#bbd040"/>
    <path id="Pfad_11836" data-name="Pfad 11836" d="M1493.208,496.66a6.662,6.662,0,0,0-6.657,6.662,6.591,6.591,0,0,0,.278,1.881h12.75a6.591,6.591,0,0,0,.278-1.881A6.662,6.662,0,0,0,1493.208,496.66Z" transform="translate(-809.886 -270.494)" fill="#bbd040"/>
    <path id="Pfad_11837" data-name="Pfad 11837" d="M1459.14,490.45a8.616,8.616,0,0,0-8.62,8.62,8.8,8.8,0,0,0,.351,2.436h16.535a8.611,8.611,0,0,0-8.265-11.057Z" transform="translate(-790.263 -267.112)" fill="#bbd040"/>
    <g id="Gruppe_8086" data-name="Gruppe 8086" transform="translate(715.394 223.53)" clip-path="url(#clip-path-2)">
      <path id="Pfad_11838" data-name="Pfad 11838" d="M1577.334,505.339h-5.464V491.15h5.464v14.189" transform="translate(-1571.747 -491.022)" fill="#ea5b2b"/>
    </g>
    <path id="Pfad_11839" data-name="Pfad 11839" d="M1565.95,458.74h4.631l-6.494-8.115h4.567l-9.012-11.266-.009-.009-8.2,11.275h3.98l-5.9,8.115h3.875l-7.586,10.424h28.493Z" transform="translate(-842.155 -239.281)" fill="#59b25f"/>
    <path id="Pfad_11840" data-name="Pfad 11840" d="M1206.995,502.2h-5.464v-18h5.464v18" transform="translate(-654.656 -263.708)" fill="#ea5b2b"/>
    <rect id="Rechteck_1863" data-name="Rechteck 1863" width="5.742" height="12.823" transform="translate(546.751 220.328)" fill="none"/>
    <path id="Pfad_11841" data-name="Pfad 11841" d="M1196.41,453.79h4.631l-6.489-8.115h4.563l-9.012-11.266-.009-.009-8.2,11.275h3.98l-5.9,8.115h3.875l-7.587,10.428h28.493Z" transform="translate(-640.894 -236.585)" fill="#59b25f"/>
    <g id="Gruppe_8087" data-name="Gruppe 8087" transform="translate(749.921 218.243)" clip-path="url(#clip-path-3)">
      <path id="Pfad_11842" data-name="Pfad 11842" d="M1653.92,500.113h-6.33V479.74h6.33v20.373" transform="translate(-1647.513 -479.521)" fill="#ea5b2b"/>
    </g>
    <path id="Pfad_11843" data-name="Pfad 11843" d="M1641.6,444.4h5.378l-7.546-9.431h5.305l-10.474-13.1,0-.009-9.536,13.106h4.627l-6.862,9.431h4.5l-8.816,12.118h33.115Z" transform="translate(-881.575 -229.756)" fill="#59b25f"/>
    <path id="Pfad_11844" data-name="Pfad 11844" d="M1280.993,434.408h-2.413V426.63h2.413v7.778" transform="translate(-696.62 -232.354)" fill="#ea5b2b"/>
    <path id="Pfad_11845" data-name="Pfad 11845" d="M1272.456,397.06a7.336,7.336,0,1,0,7.336,7.332A7.336,7.336,0,0,0,1272.456,397.06Z" transform="translate(-689.289 -216.249)" fill="#bbd040"/>
    <path id="Pfad_11846" data-name="Pfad 11846" d="M1229.716,421.13h-2.8v-7.55h2.8v7.55" transform="translate(-668.484 -225.246)" fill="#ea5b2b"/>
    <path id="Pfad_11847" data-name="Pfad 11847" d="M1220.878,369.885l-.014-.055-6.995,19.923h14.677Z" transform="translate(-661.377 -201.419)" fill="#bbd040"/>
    <path id="Pfad_11848" data-name="Pfad 11848" d="M1058.119,444.148h-2.409V436.37h2.409v7.778" transform="translate(-575.239 -237.658)" fill="#ea5b2b"/>
    <path id="Pfad_11849" data-name="Pfad 11849" d="M1049.616,406.8a7.331,7.331,0,1,0,5.189,2.147,7.336,7.336,0,0,0-5.189-2.147Z" transform="translate(-567.925 -221.554)" fill="#bbd040"/>
    <path id="Pfad_11850" data-name="Pfad 11850" d="M518.612,309.042l11.3-19.986,17.669,13.839,15.278-25.615.228.314,8.588,12.054,8.242-7.532,11.152,4.454,1.671-3.115,72.682,97.364-101.995.291-41.339.064-53.406-.706Z" transform="translate(-255.527 -151.014)" fill="#786864"/>
    <path id="Pfad_11851" data-name="Pfad 11851" d="M316.433,243.994v-.369a6.562,6.562,0,0,0-9.6-5.824,8.529,8.529,0,0,0-15.938,2,5.273,5.273,0,0,0-6.585,4.408,3.11,3.11,0,1,0-1.189,5.984h32.955a3.106,3.106,0,0,0,.36-6.2" transform="translate(-152.771 -126.963)" fill="#fff"/>
    <g id="Gruppe_8088" data-name="Gruppe 8088" transform="translate(244.56 89.426)" clip-path="url(#clip-path-4)">
      <path id="Pfad_11852" data-name="Pfad 11852" d="M560.826,199.962a5.92,5.92,0,0,0-2.732.679,7.687,7.687,0,0,0-14.358,1.821,4.632,4.632,0,0,0-1.211-.168,4.768,4.768,0,0,0-.51,9.5v.032H560.83a5.92,5.92,0,1,0,0-11.84" transform="translate(-537.729 -196.411)" fill="#f0f1f1"/>
    </g>
    <path id="Pfad_11853" data-name="Pfad 11853" d="M60.991,187.088c0-.159.027-.323.027-.483A8.579,8.579,0,0,0,48.459,179a11.143,11.143,0,0,0-20.829,2.614,6.831,6.831,0,0,0-1.762-.232,6.908,6.908,0,1,0,0,13.816H60.545A4.066,4.066,0,0,0,61,187.088" transform="translate(-10.598 -94.15)" fill="#fff"/>
    <path id="Pfad_11854" data-name="Pfad 11854" d="M383.735,298.65l8.556,9.048,4.813-5.783.337-.4,8.087,14.977,9.34-13.944,49.809,90.014-66.744-.455-59.153.137Z" transform="translate(-184.781 -162.652)" fill="#786864"/>
    <path id="Pfad_11855" data-name="Pfad 11855" d="M450.856,237.94l.014.027,17.764,31.516-9.34,13.944-8.087-14.977-.337.4-4.813,5.783-8.556-9.048Z" transform="translate(-238.546 -129.588)" fill="#fff"/>
    <path id="Pfad_11856" data-name="Pfad 11856" d="M212.992,384.9l7.969-19.986,17.664,13.839,15.282-25.615.228.319,8.588,12.049,8.242-7.532,11.148,4.454,1.671-3.115,37.286,64.062-65.934-.888H213.069l-15.419.888Z" transform="translate(-107.918 -192.329)" fill="#786864"/>
    <path id="Pfad_11857" data-name="Pfad 11857" d="M281.222,315.7l.792.6,29.649,22.623-1.671,3.115-11.148-4.454-8.242,7.532-8.588-12.049-.228-.319L266.5,358.364,248.84,344.525Z" transform="translate(-135.797 -171.938)" fill="#fff"/>
    <path id="Pfad_11858" data-name="Pfad 11858" d="M635.522,239.84l.792.6,29.654,22.623-1.671,3.115-11.152-4.454-8.242,7.532L636.314,257.2l-.228-.314L620.809,282.5,603.14,268.665Z" transform="translate(-328.758 -130.623)" fill="#fff"/>
    <path id="Pfad_11859" data-name="Pfad 11859" d="M484.89,263.4l4.435,5,2.377-3.215,2.659-3.584,8.238,8.256,40.865,102.778H439.28Z" transform="translate(-239.515 -142.474)" fill="#b3736d"/>
    <path id="Pfad_11860" data-name="Pfad 11860" d="M546.239,227.87l.014.032,10.9,23.584-8.238-8.256-2.659,3.584-2.377,3.215-4.435-5Z" transform="translate(-294.065 -124.104)" fill="#f0f1f1"/>
    <path id="Pfad_11861" data-name="Pfad 11861" d="M368.082,479h0c8.5,0,15.4,6.621,15.4,14.8H352.69C352.69,485.612,359.58,479,368.082,479Z" transform="translate(-192.356 -260.876)" fill="#59b25f"/>
    <path id="Pfad_11862" data-name="Pfad 11862" d="M417.793,453.69c15.118,0,27.373,11.776,27.373,26.307H390.42C390.42,465.466,402.674,453.69,417.793,453.69Z" transform="translate(-212.905 -247.091)" fill="#bbd040"/>
    <path id="Pfad_11863" data-name="Pfad 11863" d="M126.623,459.35c15.118,0,27.373,11.776,27.373,26.307H99.25C99.25,471.126,111.5,459.35,126.623,459.35Z" transform="translate(-54.326 -250.174)" fill="#bbd040"/>
    <path id="Pfad_11864" data-name="Pfad 11864" d="M522.9,443.87h0c16.617,0,30.087,12.946,30.087,28.916H492.81C492.81,456.816,506.28,443.87,522.9,443.87Z" transform="translate(-268.669 -241.743)" fill="#59b25f"/>
    <path id="Pfad_11865" data-name="Pfad 11865" d="M274.831,448h0c16.617,0,30.087,12.951,30.087,28.921H244.74C244.74,460.928,258.215,448,274.831,448Z" transform="translate(-133.564 -243.992)" fill="#59b25f"/>
    <path id="Pfad_11866" data-name="Pfad 11866" d="M523.256,488.71a7.646,7.646,0,0,1,7.641,7.646,7.5,7.5,0,0,1-.314,2.158H515.924a7.5,7.5,0,0,1-.314-2.158,7.646,7.646,0,0,1,7.646-7.646Z" transform="translate(-281.087 -266.164)" fill="#bbd040"/>
    <path id="Pfad_11867" data-name="Pfad 11867" d="M222.51,504.109h3.643v-9.5H222.51v9.5" transform="translate(-121.457 -269.377)" fill="#ea5b2b"/>
    <rect id="Rechteck_1866" data-name="Rechteck 1866" width="3.848" height="6.767" transform="translate(100.944 225.146)" fill="none"/>
    <path id="Pfad_11868" data-name="Pfad 11868" d="M211.153,474.3h-3.1l4.344-5.433h-3.056l6.034-7.546,0,0,5.492,7.55h-2.664l3.953,5.433h-2.591l5.077,6.981H205.57Z" transform="translate(-112.231 -251.247)" fill="#59b25f"/>
    <path id="Pfad_11869" data-name="Pfad 11869" d="M483.29,497.761h5.4V483.69h-5.4v14.071" transform="translate(-263.484 -263.43)" fill="#ea5b2b"/>
    <rect id="Rechteck_1867" data-name="Rechteck 1867" width="5.697" height="10.027" transform="translate(219.646 220.133)" fill="none"/>
    <path id="Pfad_11870" data-name="Pfad 11870" d="M466.464,453.6h-4.595l6.439-8.051h-4.526l8.939-11.175,0-.009,8.138,11.184h-3.948l5.856,8.051h-3.843l7.523,10.337H458.19Z" transform="translate(-249.814 -236.569)" fill="#59b25f"/>
    <path id="Pfad_11871" data-name="Pfad 11871" d="M175.2,498.8h4.24V487.76H175.2V498.8" transform="translate(-95.691 -265.647)" fill="#ea5b2b"/>
    <rect id="Rechteck_1868" data-name="Rechteck 1868" width="4.372" height="8.342" transform="translate(79.427 221.995)" fill="none"/>
    <path id="Pfad_11872" data-name="Pfad 11872" d="M162,464.151h-3.6l5.05-6.312H159.9l7.013-8.771,0-.009,6.384,8.78h-3.1l4.595,6.312h-3.015l5.9,8.115H155.51Z" transform="translate(-84.967 -244.57)" fill="#59b25f"/>
    <path id="Pfad_11873" data-name="Pfad 11873" d="M368.07,474.723h2.277V467.35H368.07v7.373" transform="translate(-200.733 -254.531)" fill="#ea5b2b"/>
    <path id="Pfad_11874" data-name="Pfad 11874" d="M362.264,439.33a6.954,6.954,0,1,1-6.954,6.949,6.954,6.954,0,0,1,6.954-6.949Z" transform="translate(-193.783 -239.27)" fill="#bbd040"/>
    <path id="Pfad_11875" data-name="Pfad 11875" d="M413.85,465.342h2.564V458.42H413.85v6.922" transform="translate(-225.666 -249.667)" fill="#ea5b2b"/>
    <path id="Pfad_11876" data-name="Pfad 11876" d="M408.916,418.346l.014-.046,6.412,18.27H401.88Z" transform="translate(-219.146 -227.817)" fill="#bbd040"/>
    <path id="Pfad_11877" data-name="Pfad 11877" d="M551.24,446.456h2.842V437.28H551.24v9.176" transform="translate(-300.492 -238.154)" fill="#ea5b2b"/>
    <path id="Pfad_11878" data-name="Pfad 11878" d="M544.022,402.42a8.652,8.652,0,1,1-8.652,8.652A8.652,8.652,0,0,1,544.022,402.42Z" transform="translate(-291.849 -219.168)" fill="#bbd040"/>
    <rect id="Rechteck_1869" data-name="Rechteck 1869" width="373.585" height="161.744" transform="translate(-23.747 68.921)" fill="none"/>
    <path id="Pfad_11879" data-name="Pfad 11879" d="M729.651,414.27h0c-24.818,0-44.941,19.34-44.941,43.192h89.877C774.587,433.61,754.469,414.27,729.651,414.27Z" transform="translate(-373.183 -225.622)" fill="#59b25f"/>
    <path id="Pfad_11880" data-name="Pfad 11880" d="M838.69,401.74c-38.775,0-70.2,28.1-70.2,62.755h140.4C908.886,429.837,877.461,401.74,838.69,401.74Z" transform="translate(-418.812 -218.798)" fill="#bbd040"/>
    <path id="Pfad_11881" data-name="Pfad 11881" d="M971.964,502.91H966.5V486.23h5.464v16.68" transform="translate(-526.653 -264.813)" fill="#ea5b2b"/>
    <rect id="Rechteck_1870" data-name="Rechteck 1870" width="5.742" height="11.885" transform="translate(439.724 221.266)" fill="none"/>
    <path id="Pfad_11882" data-name="Pfad 11882" d="M961.39,455.85h4.631l-6.494-8.11H964.1l-9.016-11.271,0-.009-8.2,11.28h3.98l-5.906,8.11h3.875l-7.582,10.428h28.488Z" transform="translate(-512.896 -237.707)" fill="#59b25f"/>
    <path id="Pfad_11883" data-name="Pfad 11883" d="M884.312,496.139H878V479.65h6.33v16.489" transform="translate(-478.454 -261.23)" fill="#ea5b2b"/>
    <rect id="Rechteck_1871" data-name="Rechteck 1871" width="6.526" height="12.459" transform="translate(399.451 218.243)" fill="none"/>
    <path id="Pfad_11884" data-name="Pfad 11884" d="M871.974,444.4h5.378l-7.546-9.431h5.305l-10.474-13.1-.009-.009L855.1,434.966h4.627l-6.862,9.431h4.5l-8.812,12.118h33.11Z" transform="translate(-462.414 -229.756)" fill="#59b25f"/>
    <path id="Pfad_11885" data-name="Pfad 11885" d="M603.464,414.37c25.956,0,47,20.228,47,45.173h-94C556.46,434.6,577.5,414.37,603.464,414.37Z" transform="translate(-303.335 -225.677)" fill="#bbd040"/>
    <path id="Pfad_11886" data-name="Pfad 11886" d="M620.76,501.172h3.971V490.83H620.76v10.342" transform="translate(-338.354 -267.319)" fill="#ea5b2b"/>
    <rect id="Rechteck_1872" data-name="Rechteck 1872" width="4.185" height="7.368" transform="translate(282.292 223.42)" fill="none"/>
    <path id="Pfad_11887" data-name="Pfad 11887" d="M608.4,468.73H605.02l4.731-5.915h-3.324l6.567-8.206,0-.009,5.979,8.215h-2.9l4.3,5.915h-2.823l5.524,7.6H602.32Z" transform="translate(-328.311 -247.587)" fill="#59b25f"/>
    <path id="Pfad_11888" data-name="Pfad 11888" d="M686.61,498.8h4.235V487.76H686.61V498.8" transform="translate(-374.218 -265.647)" fill="#ea5b2b"/>
    <rect id="Rechteck_1873" data-name="Rechteck 1873" width="4.372" height="8.342" transform="translate(312.31 221.995)" fill="none"/>
    <path id="Pfad_11889" data-name="Pfad 11889" d="M667.635,452.626h-4.763l6.68-8.342h-4.695l9.267-11.585,0-.009,8.434,11.594h-4.089l6.07,8.342h-3.984l7.8,10.724H659.06Z" transform="translate(-359.213 -235.654)" fill="#59b25f"/>
  </g>
</svg>
