<svg xmlns="http://www.w3.org/2000/svg" xmlns:xlink="http://www.w3.org/1999/xlink" width="875" height="233" xmlns:v="https://vecta.io/nano"><style><![CDATA[.B{fill:#59b25f}.C{fill:#ea5b2b}.D{fill:#bbd040}.E{fill:#fff}.F{fill:#786864}.G{fill:#f0f1f1}]]></style><defs><clipPath id="A"><path transform="translate(-.5 -.304)" fill="none" d="M0 0h875v233H0z"/></clipPath><clipPath id="B"><path fill="none" d="M0 0h5.742v10.109H0z"/></clipPath><clipPath id="C"><path fill="none" d="M0 0h6.526v15.396H0z"/></clipPath><clipPath id="D"><path fill="none" d="M0 0h29.021v15.414H0z"/></clipPath><path id="E" d="M769.661 200.023h1.453v1.056h-1.453z"/></defs><g transform="translate(.5 .304)" clip-path="url(#A)"><path d="M914.119 250.415l-109.468-.342v-19.635l63.967.328z" fill="#e48290"/><path d="M44.924 230.342H814.47v23.757H44.924z" class="B"/><g fill="#e48290"><path d="M44.924 251.672H-46.72l53.165-21.33h38.479z"/><path d="M837.862 216.995l-40.542-66.1-18.771 51.537-17.3-30.469-14.189-54.476-18.625 76.995-14.4-34.613-7.841 30.254-30.788-53.265-12.017 30.77-15.017-47.946-20.078 54.622-31.917-73.156-8.265 6.453-10.318-14.727-29.427 33.388-23.211-57.4-20.132 54.513-23.766-67.127-8.456 8.825-14.435-26.812-10.392 16.393-21.23-48.142-.56 1.252-.091-.2-24.135 54.217-.009.023h0l-2.65 5.956-25.587-44.9-35.2 45.469-18.011-20.437-7.218 10.3-2.632 3.47-8.274-6.466-.437 1-.027-.023-31.52 72.239-20.088-54.655-.332 1.075-.05-.132-19.194 61.289-9.859 24.381-19.7-22.354-6.913 9.859-5.533-4.322-21.371 48.985-13.438-36.571-10.055 32.1-8.046-20.6-20.621 35.657-5.25-20.255-9.64 23.174-12.466-51.548-9.5 36.475-11.589 20.4-12.568-34.5-27.14 44.258-20.6 9.221h133.678v.319h53.047v-.319h156.343v.424h240.233v.483h79.226v-.483h199.65z"/></g><g class="E"><path d="M569.05 31.548c0-.187.032-.364.032-.551a9.8 9.8 0 0 0-14.349-8.684 12.75 12.75 0 0 0-23.789 2.987 7.84 7.84 0 0 0-9.813 6.576c-1.736-.722-3.735-.326-5.065 1.002s-1.729 3.327-1.01 5.064 2.414 2.869 4.294 2.868h49.221a4.64 4.64 0 0 0 .5-9.258"/><use xlink:href="#E"/><path d="M769.661 203.174h1.453v1.056h-1.453zm0 3.156h1.453v1.056h-1.453zm0 3.156h1.453v1.056h-1.453zm0 3.156h1.453v1.056h-1.453zm0 3.151h1.453v1.056h-1.453zm0 3.156h1.453v1.056h-1.453zm-14.731-22.082h1.453v1.056h-1.453zm0 3.156h1.453v1.056h-1.453zm0 3.151h1.453v1.056h-1.453zm0 3.156h1.453v1.056h-1.453zm0 3.156h1.453v1.056h-1.453zm0 3.156h1.453v1.056h-1.453zm0 3.151h1.453v1.056h-1.453zm0 3.156h1.453v1.056h-1.453zm6.753-14.764h1.453v1.056h-1.453zm0 3.156h1.453v1.056h-1.453zm0 3.156h1.453v1.056h-1.453zm0 3.151h1.453v1.056h-1.453zm0 3.156h1.453v1.056h-1.453zm0 3.155h1.453v1.056h-1.453zm2.623-18.929h1.453v1.056h-1.453zm0 3.155h1.453v1.056h-1.453zm0 3.156h1.453v1.056h-1.453zm0 3.156h1.453v1.056h-1.453zm0 3.151h1.453v1.056h-1.453zm0 3.156h1.453v1.056h-1.453zm0 3.155h1.453v1.056h-1.453z"/></g><path d="M570.817 90.984L558.039 104.5l-7.19-8.638-.5-.6-12.081 22.368-13.953-20.824-74.386 134.442 99.686-.683 88.347.2z" class="F"/><path d="M550.871 49.69l-.023.041-26.535 47.077 13.953 20.824 12.081-22.368.5.6 7.19 8.638 12.778-13.516z" class="E"/><path d="M593.071 175.488l11.9-29.854 26.384 20.669 22.823-38.256.337.469 12.828 18 12.313-11.248 16.653 6.648 2.5-4.649 55.682 95.68-98.475-1.33h-62.825l-23.028 1.33z" class="F"/><path d="M653.363 102.582l1.179.9 44.286 33.786-2.5 4.649-16.653-6.648-12.304 11.243-12.828-18-.337-.469-22.823 38.256-26.385-20.669z" class="E"/><path d="M475.038 123.889l-16.876-29.854-26.384 20.674-22.824-38.261-.337.474-12.828 18-12.313-11.254-16.653 6.648-2.5-4.645-108.552 145.418 152.332.437 61.744.091 79.768-1.049z" class="F"/><path d="M409.797 50.984l-1.179.9-44.29 33.79 2.5 4.645 16.653-6.648 12.309 11.253 12.828-18 .337-.474 22.823 38.261 26.384-20.674z" class="E"/><path d="M501.487 68.479l-6.621 7.459-3.556-4.8-3.966-5.355-12.3 12.332-61.038 153.5h155.606z" fill="#b3736d"/><path d="M491.331 42.842l-.023.05-16.271 35.223 12.3-12.332 3.966 5.355 3.556 4.8 6.621-7.459z" class="G"/><g class="B"><path d="M489.009 204.158h0c-24.818 0-44.941 13.3-44.941 29.709h89.886c-.004-16.408-20.109-29.709-44.945-29.709zm116.507 8.128h0c-12.7 0-23 9.891-23 22.1h45.994c-.011-12.205-10.3-22.091-22.994-22.1z"/></g><g class="D"><path d="M561.518 195.483c-22.577 0-40.884 17.591-40.884 39.29h81.767c.001-21.699-18.301-39.29-40.883-39.29zm214.545 3.998c-22.578 0-40.884 17.591-40.884 39.29h81.767c.001-21.699-18.3-39.29-40.883-39.29z"/></g><path d="M656.979 191.125h0c-24.818 0-44.941 19.34-44.941 43.192h89.877c0-23.852-20.118-43.192-44.936-43.192z" class="B"/><g class="D"><path d="M503.222 219.741c-3.597.003-6.982 1.702-9.133 4.585a11.41 11.41 0 0 0-1.796 10.06h21.891a11.25 11.25 0 0 0 .455-3.229c-.003-6.304-5.113-11.414-11.417-11.416zm180.1 6.425c-3.677.003-6.657 2.985-6.657 6.662a6.59 6.59 0 0 0 .278 1.881h12.75a6.59 6.59 0 0 0 .278-1.881c0-3.674-2.975-6.655-6.649-6.662z"/><path d="M668.877 223.338c-2.286-.001-4.48.907-6.096 2.524s-2.525 3.81-2.524 6.096a8.8 8.8 0 0 0 .351 2.436h16.535a8.61 8.61 0 0 0-8.265-11.057z"/></g><g transform="translate(715.394 223.53)" clip-path="url(#B)" class="C"><path d="M5.587 14.317H.123V.128h5.464v14.189"/></g><path d="M723.795 219.459h4.631l-6.494-8.115h4.567l-9.012-11.266-.009-.009-8.2 11.275h3.98l-5.9 8.115h3.875l-7.586 10.424h28.493z" class="B"/><path d="M552.339 238.492h-5.464v-18h5.464v18" class="C"/><path d="M555.516 217.205h4.631l-6.489-8.115h4.563l-9.012-11.266-.009-.009-8.2 11.275h3.98l-5.9 8.115h3.875l-7.587 10.428h28.493z" class="B"/><g transform="translate(749.921 218.243)" clip-path="url(#C)" class="C"><path d="M6.407 20.592H.077V.219h6.33v20.373"/></g><path d="M760.025 214.644h5.378l-7.546-9.431h5.305l-10.474-13.1v-.009l-9.536 13.106h4.627l-6.862 9.431h4.5l-8.816 12.118h33.115z" class="B"/><path d="M584.373 202.054h-2.413v-7.778h2.413v7.778" class="C"/><path d="M583.167 180.811c-2.967 0-5.643 1.788-6.778 4.53s-.507 5.897 1.592 7.995 5.255 2.724 7.996 1.588 4.527-3.813 4.526-6.78a7.34 7.34 0 0 0-7.336-7.332z" class="D"/><path d="M561.232 195.884h-2.8v-7.55h2.8v7.55" class="C"/><path d="M559.501 168.466l-.014-.055-6.995 19.923h14.677z" class="D"/><path d="M482.88 206.49h-2.409v-7.778h2.409v7.778" class="C"/><path d="M481.691 185.246a7.33 7.33 0 0 0-2.797 14.105 7.33 7.33 0 0 0 7.986-11.958c-1.376-1.376-3.243-2.148-5.189-2.147z" class="D"/><path d="M263.085 158.028l11.3-19.986 17.669 13.839 15.278-25.615.228.314 8.588 12.054 8.242-7.532 11.152 4.454 1.671-3.115 72.682 97.364-101.995.291-41.339.064-53.406-.706z" class="F"/><path d="M163.662 117.031v-.369a6.56 6.56 0 0 0-9.6-5.824 8.53 8.53 0 0 0-15.938 2c-1.466-.39-3.029-.13-4.29.714s-2.097 2.19-2.295 3.694a3.11 3.11 0 0 0-4.062 4.064 3.11 3.11 0 0 0 2.873 1.92h32.955c1.687.06 3.113-1.239 3.211-2.924s-1.169-3.14-2.851-3.276" class="E"/><g transform="translate(244.56 89.426)" clip-path="url(#D)" class="G"><path d="M23.097 3.551a5.92 5.92 0 0 0-2.732.679c-1.471-2.893-4.6-4.552-7.82-4.143S6.709 2.882 6.007 6.051a4.63 4.63 0 0 0-1.211-.168 4.77 4.77 0 0 0-4.691 4.512 4.77 4.77 0 0 0 4.181 4.988v.032h18.815a5.92 5.92 0 0 0 0-11.84"/></g><path d="M50.393 92.938c0-.159.027-.323.027-.483a8.58 8.58 0 0 0-12.559-7.605c-2.122-4.207-6.661-6.624-11.336-6.037s-8.476 4.051-9.493 8.651a6.83 6.83 0 0 0-1.762-.232 6.91 6.91 0 0 0-6.908 6.908 6.91 6.91 0 0 0 6.908 6.908h34.677c2.17.018 3.972-1.671 4.094-3.838s-1.48-4.047-3.639-4.272" class="E"/><path d="M198.954 135.998l8.556 9.048 4.813-5.783.337-.4 8.087 14.977 9.34-13.944 49.809 90.014-66.744-.455-59.153.137z" class="F"/><path d="M212.31 108.352l.014.027 17.764 31.516-9.34 13.944-8.087-14.977-.337.4-4.813 5.783-8.556-9.048z" class="E"/><path d="M105.074 192.571l7.969-19.986 17.664 13.839 15.282-25.615.228.319 8.588 12.049 8.242-7.532 11.148 4.454 1.671-3.115 37.286 64.062-65.934-.888h-42.067l-15.419.888z" class="F"/><g class="E"><path d="M145.425 143.762l.792.6 29.649 22.623-1.671 3.115-11.148-4.454-8.242 7.532-8.588-12.049-.228-.319-15.286 25.616-17.66-13.839zm161.339-34.545l.792.6 29.654 22.623-1.671 3.115-11.152-4.454-8.242 7.532-8.589-12.056-.228-.314-15.277 25.614-17.669-13.835z"/></g><path d="M245.375 120.926l4.435 5 2.377-3.215 2.659-3.584 8.238 8.256 40.865 102.778H199.765z" fill="#b3736d"/><path d="M252.174 103.766l.014.032 10.9 23.584-8.238-8.256-2.659 3.584-2.377 3.215-4.435-5z" class="G"/><path d="M175.726 218.124h0c8.5 0 15.4 6.621 15.4 14.8h-30.792c0-8.188 6.89-14.8 15.392-14.8z" class="B"/><g class="D"><path d="M204.888 206.599c15.118 0 27.373 11.776 27.373 26.307h-54.746c0-14.531 12.254-26.307 27.373-26.307zm-132.591 2.577c15.118 0 27.373 11.776 27.373 26.307H44.924c0-14.531 12.25-26.307 27.373-26.307z"/></g><g class="B"><path d="M254.231 202.127h0c16.617 0 30.087 12.946 30.087 28.916h-60.177c0-15.97 13.47-28.916 30.09-28.916zm-112.964 1.881h0c16.617 0 30.087 12.951 30.087 28.921h-60.178c0-15.993 13.475-28.921 30.091-28.921z"/></g><path d="M242.169 222.546a7.65 7.65 0 0 1 7.641 7.646 7.5 7.5 0 0 1-.314 2.158h-14.659a7.5 7.5 0 0 1-.314-2.158 7.65 7.65 0 0 1 7.646-7.646z" class="D"/><path d="M101.053 234.732h3.643v-9.5h-3.643v9.5" class="C"/><path d="M98.922 223.053h-3.1l4.344-5.433H97.11l6.034-7.546h0l5.492 7.55h-2.664l3.953 5.433h-2.591l5.077 6.981H93.339z" class="B"/><path d="M219.806 234.331h5.4V220.26h-5.4v14.071" class="C"/><path d="M216.65 217.031h-4.595l6.439-8.051h-4.526l8.939-11.175v-.009l8.138 11.184h-3.948l5.856 8.051h-3.843l7.523 10.337h-28.257z" class="B"/><path d="M79.509 233.153h4.24v-11.04h-4.24v11.04" class="C"/><path d="M77.033 219.581h-3.6l5.05-6.312h-3.55l7.013-8.771v-.009l6.384 8.78h-3.1l4.595 6.312H86.81l5.9 8.115H70.543z" class="B"/><path d="M167.337 220.192h2.277v-7.373h-2.277v7.373" class="C"/><path d="M168.481 200.06c2.813 0 5.349 1.695 6.425 4.294s.48 5.591-1.51 7.579-4.982 2.582-7.58 1.504-4.291-3.615-4.289-6.428c.003-3.839 3.115-6.949 6.954-6.949z" class="D"/><path d="M188.184 215.675h2.564v-6.922h-2.564v6.922" class="C"/><path d="M189.77 190.529l.014-.046 6.412 18.27h-13.462z" class="D"/><path d="M250.748 208.302h2.842v-9.176h-2.842v9.176" class="C"/><path d="M252.173 183.252c4.778 0 8.652 3.874 8.652 8.652s-3.874 8.652-8.652 8.652-8.652-3.874-8.652-8.652a8.65 8.65 0 0 1 8.652-8.652z" class="D"/><path d="M356.468 188.648h0c-24.818 0-44.941 19.34-44.941 43.192h89.877c0-23.852-20.118-43.192-44.936-43.192z" class="B"/><path d="M419.878 182.942c-38.775 0-70.2 28.1-70.2 62.755h140.4c-.004-34.658-31.429-62.755-70.2-62.755z" class="D"/><path d="M445.311 238.097h-5.464v-16.68h5.464v16.68" class="C"/><path d="M448.494 218.143h4.631l-6.494-8.11h4.573l-9.016-11.271v-.009l-8.2 11.28h3.98l-5.906 8.11h3.875l-7.582 10.428h28.488z" class="B"/><path d="M405.858 234.909h-6.312V218.42h6.33v16.489" class="C"/><path d="M409.56 214.644h5.378l-7.546-9.431h5.305l-10.474-13.1-.009-.009-9.528 13.106h4.627l-6.862 9.431h4.5l-8.812 12.118h33.11z" class="B"/><path d="M300.129 188.693c25.956 0 47 20.228 47 45.173h-94c-.004-24.943 21.036-45.173 47-45.173z" class="D"/><path d="M282.406 233.853h3.971v-10.342h-3.971v10.342" class="C"/><path d="M280.089 221.143h-3.38l4.731-5.915h-3.324l6.567-8.206v-.009l5.979 8.215h-2.9l4.3 5.915h-2.823l5.524 7.6h-20.754z" class="B"/><path d="M312.392 233.153h4.235v-11.04h-4.235v11.04" class="C"/><path d="M308.422 216.972h-4.763l6.68-8.342h-4.695l9.267-11.585v-.009l8.434 11.594h-4.089l6.07 8.342h-3.984l7.8 10.724h-29.295z" class="B"/></g></svg>