<svg xmlns="http://www.w3.org/2000/svg" width="63.745" height="54.616" viewBox="0 0 63.745 54.616"><defs><style>.a{fill:#00b3ff;}.b{fill:#3a80e8;}.c{fill:#bde760;}.d{fill:#00d880;}</style></defs><path class="a" d="M118.9,54.848a20.742,20.742,0,0,1-2.357,9.3L87.029,91.276C75.852,84.278,68.073,77.931,63,72.116l4.107-34.359a18.2,18.2,0,0,1,19.922,5.118,18.182,18.182,0,0,1,28.449,1.35l3.231,7.969A18.3,18.3,0,0,1,118.9,54.848Z" transform="translate(-55.156 -36.66)"/><path class="b" d="M287.872,54.848a20.742,20.742,0,0,1-2.357,9.3L256,91.276v-48.4a18.182,18.182,0,0,1,28.449,1.35l3.231,7.969A18.3,18.3,0,0,1,287.872,54.848Z" transform="translate(-224.128 -36.66)"/><path class="c" d="M31.872,67.875a4.014,4.014,0,0,1-3.984,3.984H19.919a3.985,3.985,0,0,0-3.984,3.985,4.015,4.015,0,0,1-3.984,3.984H7.844C2.316,73.493,0,67.788,0,62.562A18.2,18.2,0,0,1,11.951,45.47v6.468a3.984,3.984,0,0,0,3.984,3.984h3.984A3.985,3.985,0,0,1,23.9,59.907a4.014,4.014,0,0,0,3.984,3.984,4.014,4.014,0,0,1,3.984,3.984Z" transform="translate(0 -44.373)"/><path class="c" d="M229.483,257.43c-3.914,7.88-13.009,16.8-29.516,27.13v-7.207a3.985,3.985,0,0,0-3.984-3.985,3.984,3.984,0,0,1,0-7.968h7.968a3.984,3.984,0,0,0,3.984-3.984,4.017,4.017,0,0,1,3.985-3.985Z" transform="translate(-168.095 -229.944)"/><g transform="translate(31.872 7.565)"><path class="d" d="M285.516,257.43c-3.914,7.88-13.009,16.8-29.516,27.13V265.4h3.984a3.984,3.984,0,0,0,3.984-3.984,4.017,4.017,0,0,1,3.985-3.985Z" transform="translate(-256 -237.508)"/><path class="d" d="M371.736,105.389H355.949a3.939,3.939,0,0,1-3.939-3.94v-.088a3.939,3.939,0,0,1,3.939-3.94h12.556A18.079,18.079,0,0,1,371.736,105.389Z" transform="translate(-340.057 -97.42)"/></g></svg>