<svg xmlns="http://www.w3.org/2000/svg" xmlns:xlink="http://www.w3.org/1999/xlink" width="496.463" height="476.088" xmlns:v="https://vecta.io/nano"><style><![CDATA[.B{fill:#66bcb5}.C{fill:#263238}.D{opacity:.3}.E{fill:#ffbe9d}.F{fill:#eb996e}.G{fill:#f5f5f5}]]></style><path d="M280.209 473.788c-19.384-9.175-27.109-30.988-29.841-51.306-.461-3.373-1.428-6.881-.326-10.12s4.5-5.881 7.758-4.97c2.71.753 4.3 3.474 6.105 5.622 2.408 2.897 5.59 5.05 9.175 6.207 2.339.753 5.116.99 7.039-.54 2.631-2.1 2.249-6.173 1.709-9.524q-1.653-9.321-3.238-18.642a31.75 31.75 0 0 1-.663-10.12c.495-3.373 2.3-6.746 5.341-8.141s7.3-.259 8.523 2.912a31.83 31.83 0 0 1 .81 4.149c.326 1.383 1.237 2.811 2.62 2.98s2.586-1.012 3.429-2.17c2.878-3.969 4.5-8.725 5.959-13.436s2.833-9.512 5.352-13.74 6.364-7.871 11.12-9 10.378 1.012 12.368 5.521.067 9.782-2.249 14.122a76.11 76.11 0 0 1-13.144 17.473c-1.037.826-1.785 1.96-2.136 3.238-.349 2.361 2.148 4.228 4.5 4.587 2.631.4 5.307-.315 7.972-.45s5.689.54 7.106 2.845c1.945 3.193-.315 7.275-2.732 10.12-4.855 5.667-10.647 10.459-17.124 14.167-2.316 1.316-4.779 2.552-6.477 4.621s-2.384 5.285-.787 7.443 4.824 2.395 7.32 1.473 4.576-2.71 6.881-4.048c4.318-2.519 10.322-3.216 13.954.27a10.75 10.75 0 0 1 2.71 9.2c-.598 3.263-1.849 6.372-3.677 9.141a65.51 65.51 0 0 1-24.264 24.017c-10.063 5.51-19.8 8.2-31.078 6.105" class="G"/><g fill="#e0e0e0"><path d="M283.279 460.228a304.54 304.54 0 0 1 6.454-34.373l2.159-8.916 2.249-8.624c1.681-5.351 3.655-10.606 5.914-15.741 2.125-4.925 4.318-9.535 6.4-13.819s4.115-8.242 6.117-11.761a120.31 120.31 0 0 1 10.659-15.921c1.405-1.776 2.541-3.115 3.317-4.014l.888-1.023c.213-.258.315-.337.326-.326a3.38 3.38 0 0 1-.27.371l-.855 1.057c-.742.922-1.844 2.249-3.216 4.082-3.884 5.065-7.383 10.413-10.468 16-1.968 3.531-3.969 7.489-6.038 11.772s-4.228 8.894-6.33 13.819a151.17 151.17 0 0 0-5.847 15.741c-.866 2.777-1.563 5.622-2.249 8.59l-2.159 8.928c-2.802 11.301-4.968 22.75-6.488 34.294"/><path d="M294.332 408.27a6.51 6.51 0 0 1-.573-1.383l-1.293-3.834c-1.034-3.261-2.316-7.815-3.71-12.829s-2.732-9.546-3.823-12.773l-1.3-3.823a8.27 8.27 0 0 1-.438-1.428c.271.419.494.868.663 1.338.394.866.9 2.159 1.5 3.755 1.2 3.216 2.609 7.725 4.014 12.762l3.531 12.863 1.124 3.9a8.47 8.47 0 0 1 .315 1.45z"/><path d="M336.103 392.911a8.49 8.49 0 0 1-1.687.506l-4.6 1.248a220.36 220.36 0 0 0-14.943 4.925c-5.768 2.137-10.907 4.306-14.617 5.97-1.844.821-3.317 1.529-4.34 2.013a9.8 9.8 0 0 1-1.608.7 8.44 8.44 0 0 1 1.5-.922c.99-.551 2.44-1.316 4.262-2.249 3.632-1.777 8.759-4.014 14.538-6.162a151.8 151.8 0 0 1 15.056-4.756c1.956-.517 3.553-.855 4.666-1.068a9.6 9.6 0 0 1 1.773-.205zm-52.431 66.451a2.92 2.92 0 0 1-.382-.483l-1-1.428-3.519-5.386c-2.923-4.587-6.746-11.053-10.873-18.249L257.183 415.5l-3.373-5.5-.9-1.5a2.17 2.17 0 0 1-.281-.54 4.33 4.33 0 0 1 .382.472 54.99 54.99 0 0 1 1 1.439c.866 1.248 2.069 3.081 3.531 5.386 2.912 4.588 6.746 11.042 10.873 18.238l10.7 18.328 3.373 5.487.9 1.5a2.08 2.08 0 0 1 .281.551z"/><path d="M337.847 431.196a2.09 2.09 0 0 1-.528.337l-1.563.832-5.8 3.025-19.047 10.12-19.115 10.007-5.892 2.845-1.687.742c-.185.098-.382.174-.585.225a2.42 2.42 0 0 1 .528-.337l1.574-.832 5.8-3.036 19.036-10.12 19.115-10 5.892-2.845 1.619-.742a2.25 2.25 0 0 1 .653-.221z"/></g><path d="M139.615 232.438s-13.358 1.855-5.858 31.112 13.863 44.349 13.863 44.349 1 6.623-4.34 6.42-16.236-4.5-19.935 1.226c-3.823 5.982-.472 13.178 7.871 20.723s26.13 24.731 27.725 26.296 2.766 4.779-.9 5.217-29.661-2.609-30.359 9.816 26.1 29.605 28.987 31.539 3.373 3.441 2.7 5.127-9.287-.169-16.72-.742-16.157.09-15.966 7.286 14.269 25.411 55.309 38.949l19.441 5.026 14.358-14.145c28.9-32.146 32.056-54.938 28.649-61.279s-11.244-2.575-17.473 1.608-12.751 10.12-14.145 9-1.754-2.676-.2-5.791 16.27-31.337 9.479-41.771-27.84 5.1-31.213 6.533-3.98-1.968-3.373-4.082l11-36.6c3.534-10.739 2.856-18.631-3.441-21.914-6.072-3.16-13.369 6.016-17.912 8.849s-6.949-3.373-6.949-3.373-1.979-16.247-10.007-45.369-20.835-23.9-20.835-23.9" fill="#ebebeb"/><g fill="#e0e0e0"><path d="M201.423 469.617l-24.006-92.414-21.914-83.846-6.746-25.378-1.833-6.9-.472-1.8-.135-.618s.079.191.2.6l.517 1.788 1.956 6.87 6.971 25.321 22.094 83.812 23.826 92.447"/><path d="M138.345 322.22c.449.185.879.415 1.282.686l3.373 2.091c2.8 1.81 6.611 4.408 10.76 7.342l10.592 7.556 3.227 2.249c.407.253.784.551 1.124.888a7.07 7.07 0 0 1-1.293-.686c-.8-.472-1.945-1.192-3.373-2.1-2.777-1.833-6.555-4.5-10.7-7.421l-10.648-7.477-3.238-2.249a6.6 6.6 0 0 1-1.1-.877zm31.988 19.88c-.146-.09 4.857-8.174 11.165-18.058l11.7-17.732c.141.09-4.857 8.186-11.176 18.069L170.333 342.1zm10.772 50.912a5.91 5.91 0 0 1 1.068-1.034l3.025-2.654c2.552-2.249 6.072-5.352 9.827-8.928s7.061-6.915 9.422-9.355c1.124-1.124 2.046-2.125 2.8-2.89a7.77 7.77 0 0 1 1.124-1.023 5.9 5.9 0 0 1-.9 1.181c-.607.731-1.518 1.765-2.665 3.025-2.249 2.53-5.532 5.937-9.31 9.512s-7.331 6.656-9.962 8.815a63.73 63.73 0 0 1-3.171 2.507 6.87 6.87 0 0 1-1.258.844zm-32.888-11.615a5.62 5.62 0 0 1 1.327.326l3.564 1.124 11.66 3.845 11.6 4.037 3.5 1.282a6.07 6.07 0 0 1 1.248.551c-.454-.046-.9-.152-1.327-.315l-3.564-1.124-11.66-3.857-11.6-4.025-3.5-1.293a5.09 5.09 0 0 1-1.248-.551zm3.8 46.156c.579.086 1.149.229 1.7.427l4.565 1.394 14.988 4.824 14.932 4.992 4.5 1.574a11.5 11.5 0 0 1 1.63.663 8.9 8.9 0 0 1-1.709-.427l-4.565-1.394-14.988-4.824-14.921-4.992-4.5-1.585a9.73 9.73 0 0 1-1.63-.652zm41.389 13.256c.396-.486.837-.934 1.316-1.338l3.722-3.5 12.1-11.727c4.645-4.666 8.748-9 11.694-12.143l3.486-3.733a11.94 11.94 0 0 1 1.338-1.327c-.328.529-.704 1.025-1.124 1.484-.765.933-1.911 2.249-3.373 3.868-2.867 3.238-6.915 7.623-11.581 12.29s-9 8.737-12.233 11.615l-3.868 3.373a11.18 11.18 0 0 1-1.477 1.138z"/></g><path d="M81.597 57.966l-10.974-3.373s-2.878 9.22-12.5 6.4a9.32 9.32 0 0 1-6.825-8.354c-.292-3.299 1.027-6.537 3.542-8.692 2.822-2.5 7.77-4.014 14.752-.4l7.725-24.737-10.854-3.38-4.498 14.49s-16.462-.817-21.689 15.947c-5 16.045 8.219 24.264 14.381 26.187 4.677 1.466 21.104 5.33 26.94-14.088zm-2.652-44.247l-11.012-3.436L71.141 0l11.012 3.436z" class="G"/><path d="M111.877 30.036l4.4-1.124a3.86 3.86 0 0 1 .415-2.981c.536-.897 1.413-1.537 2.43-1.775a3.69 3.69 0 0 1 4.048 1.361 4.06 4.06 0 0 1 .618 3.632c-.416 1.428-1.754 2.98-4.857 3.238l2.62 9.906 4.34-1.124-1.529-5.8a8.76 8.76 0 0 0 3.9-9.895c-1.687-6.432-7.871-6.4-10.311-5.757-1.891.436-8.199 2.584-6.074 10.319zm11.113 13.763l4.428-1.187 1.108 4.134-4.428 1.187zm351.851 100.037l4.273 1.54a3.87 3.87 0 0 1 5.06-2.249c1.475.475 2.492 1.825 2.541 3.373a4.08 4.08 0 0 1-1.552 3.373c-1.124.933-3.137 1.439-5.836-.112l-3.5 9.636 4.228 1.529 2.046-5.622a8.78 8.78 0 0 0 8.849-5.914c2.249-6.252-2.822-9.726-5.217-10.592-1.832-.719-8.238-2.529-10.892 5.038zm.294 17.488l4.292 1.555-1.451 4.006-4.292-1.555z" fill="#ebebeb"/><path d="M21.397 192.77l9-3.486s-2.923-7.59 4.914-10.772a7.87 7.87 0 0 1 8.883 1.945 8.69 8.69 0 0 1 2.181 7.567c-.562 3.126-3.036 6.746-9.546 7.994l7.865 20.39 9-3.441-4.61-11.941s11.244-8.073 5.971-21.9c-5.116-13.223-18.2-11.716-23.23-9.771-3.884 1.489-16.747 7.527-10.428 23.415zm24.921 27.839l9.076-3.497 3.266 8.478-9.076 3.497zm432.042 6.465l-6.411 2.463s2.069 5.386-3.486 7.635a5.62 5.62 0 0 1-6.3-1.372 6.15 6.15 0 0 1-1.54-5.363c.4-2.249 2.159-4.767 6.746-5.622l-5.51-14.493-6.342 2.44 3.261 8.467a13.26 13.26 0 0 0-4.228 15.517c3.609 9.366 12.852 8.309 16.45 6.926 2.728-1.07 11.835-5.342 7.36-16.598zm-17.659-19.727l-6.432 2.478-2.312-6.002 6.432-2.478z" class="G"/><path d="M496.463 475.708c0 .169-111.146.292-248.221.292S0 475.879 0 475.708s111.123-.292 248.243-.292l248.22.292z" class="C"/><use xlink:href="#B" class="B"/><use xlink:href="#B" class="D"/><g class="C"><path d="M82.43 475.969a10.12 10.12 0 0 0 3.474-.067c1.391-.211 2.758-.558 4.082-1.034 1.828-.636 3.538-1.57 5.06-2.766.916-.736 1.631-1.691 2.08-2.777a13.12 13.12 0 0 0 .585-3.755c.024-1.361.124-2.72.3-4.07.237-1.437.757-2.813 1.529-4.048 1.484-2.609 3.958-5.082 4.745-8.624s.247-7.252-.337-11.03-1.124-7.871.292-11.829 4.115-7.5 5.5-11.93.731-9.31 1.023-14.066a18.55 18.55 0 0 1 1.642-6.994c1.012-2.249 2.429-4.329 3.531-6.668 2.249-4.745 2.631-10.12 3.238-15.393l.9-8.039c.191-2.728.662-5.43 1.405-8.062.853-2.653 1.859-5.255 3.013-7.792.594-1.312 1.083-2.669 1.462-4.059.21-1.439.344-2.887.4-4.34.134-2.909.021-5.824-.337-8.714-.337-2.9-.866-5.779-1.181-8.692v-.506l-.067-.573-.506.247a19.45 19.45 0 0 0-6.746 5.723 31.09 31.09 0 0 0-4.171 7.68c-2.1 5.408-2.856 11.075-3.913 16.484s-2.406 10.727-5.172 15.224c-1.383 2.249-3.058 4.3-4.5 6.477-1.563 2.129-2.631 4.58-3.126 7.174-.753 5.33 2.181 10.007 1.574 14.73a16.29 16.29 0 0 1-2.249 6.533c-1.124 2.013-2.485 3.879-3.767 5.746-1.299 1.831-2.428 3.777-3.373 5.813-.89 1.993-1.415 4.13-1.552 6.308-.3 4.25.292 8.275 0 12.076a27.83 27.83 0 0 1-3.115 10.356c-1.518 3.092-3.216 5.892-4.632 8.613-.708 1.349-1.372 2.676-1.911 4.014-.511 1.284-.887 2.618-1.124 3.98a24.96 24.96 0 0 0-.09 7.185c.331 3.328 1.577 6.5 3.6 9.164a9.12 9.12 0 0 0 1.023 1.124c.248.262.523.496.821.7a13.69 13.69 0 0 0 .72.506 15.66 15.66 0 0 1-2.44-2.406 18.16 18.16 0 0 1-3.373-9.108c-.286-2.357-.234-4.742.157-7.084.237-1.329.613-2.629 1.124-3.879.57-1.353 1.212-2.674 1.923-3.958 1.428-2.7 3.137-5.487 4.689-8.6a28.11 28.11 0 0 0 3.216-10.536c.337-3.879-.247-7.927.067-12.065.145-2.108.659-4.174 1.518-6.105.951-1.994 2.08-3.898 3.373-5.689 1.282-1.866 2.642-3.733 3.812-5.791 1.283-2.067 2.104-4.386 2.406-6.8.607-5.026-2.305-9.726-1.552-14.685.493-2.481 1.526-4.822 3.025-6.859 1.428-2.148 3.115-4.194 4.5-6.5 2.867-4.621 4.25-10.041 5.3-15.472s1.821-11.053 3.89-16.36a30.26 30.26 0 0 1 4.059-7.466c1.712-2.304 3.932-4.182 6.488-5.487l-.573-.326a1.66 1.66 0 0 0 .056.517c.315 2.946.843 5.824 1.124 8.7a49.88 49.88 0 0 1 .326 8.579 42.02 42.02 0 0 1-.382 4.205 25.3 25.3 0 0 1-1.417 3.924c-1.16 2.564-2.174 5.192-3.036 7.871-.75 2.673-1.224 5.416-1.417 8.186l-.888 8.051c-.607 5.3-1 10.581-3.148 15.157-1.124 2.249-2.474 4.4-3.519 6.69a19.24 19.24 0 0 0-1.687 7.252c-.281 4.857.349 9.613-.967 13.909s-4.048 7.871-5.431 11.93-.877 8.354-.27 12.121 1.214 7.477.4 10.817-3.126 5.836-4.632 8.512a11.46 11.46 0 0 0-1.563 4.216 35.4 35.4 0 0 0-.27 4.115c.002 1.242-.18 2.477-.54 3.666-.417 1.03-1.085 1.938-1.945 2.642-1.481 1.194-3.149 2.137-4.936 2.789-1.306.503-2.658.88-4.037 1.124a15.47 15.47 0 0 1-2.552.247c-.705-.073-1.008-.073-1.008-.073z"/><path d="M122.21 327.662a1.35 1.35 0 0 0-.124.382l-.27 1.124-1.023 4.363c-.472 1.863-1.63 3.98-2.609 6.578a93.86 93.86 0 0 0-2.991 8.928c-.967 3.373-1.81 7.084-2.71 11.087a46.63 46.63 0 0 1-4.025 12.29 67.3 67.3 0 0 0-3.115 6.387 29.29 29.29 0 0 0-1.81 7.219c-.64 5.123-1.548 10.208-2.721 15.236l-7.118 29.085-5.971 23.725-3.947 16.023-1.034 4.363-.259 1.124a2.08 2.08 0 0 0 0 .394c.065-.116.114-.241.146-.371.079-.3.191-.663.326-1.124l1.181-4.329 4.205-15.944 6.128-23.68 7.185-29.11a140.23 140.23 0 0 0 2.654-15.28c.287-2.414.877-4.783 1.754-7.05.888-2.249 2.024-4.261 3.058-6.33 2.249-4.1 3.137-8.512 4.025-12.481s1.675-7.725 2.6-11.075 1.889-6.342 2.856-8.928c.948-2.174 1.783-4.395 2.5-6.656.461-1.934.675-3.373.877-4.408q.112-.7.2-1.124c.032-.283.054-.418.032-.418z"/></g><path d="M84.655 476.023c8.219-4.891 10.581-19.733 7.151-28.661s-9.434-17.091-10.356-26.614c-.72-7.32 1.687-14.831 0-21.982-2.305-9.659-11.727-17.136-11.615-27.064.056-5.566 3.227-10.805 2.968-16.371-.3-6.814-5.543-12.233-8.781-18.238-4.97-9.209-5.3-20.082-6.994-30.359s-5.623-21.36-14.773-26.431c-1.349 8.759-3.654 14.763-2.935 26.626.27 4.261 5.217 12.368 5.892 21.757l1.023 16.753c.348 5.577.686 10.974 2.631 16.056 1.5 3.9 3.89 7.443 5 11.469 2.08 7.567-.663 15.741 1.023 23.432 1.428 6.5 5.926 12.087 6.848 18.676 1.282 9.254-4.7 18.878-1.642 27.7 1.529 4.385 5.127 7.871 6.15 12.424.8 3.508-.067 7.23.652 10.749 1.124 5.689 11.986 10.119 17.777 9.748" class="B"/><path d="M44.503 288.95c-.015.165-.015.33 0 .495 0 .371.112.843.18 1.439l.832 5.532c.432 2.406 1.709 5.127 2.7 8.41s2.091 7.039 3.013 11.244 1.732 8.894 2.552 13.92 1.72 10.5 4.216 15.742l3.373 8.062a36.37 36.37 0 0 1 1.732 8.883 177.78 177.78 0 0 0 2.417 19.115l7.095 36.588 6.128 29.8 4.194 20.082 1.124 5.453.326 1.405a2.8 2.8 0 0 0 .135.483 2.06 2.06 0 0 0 0-.495l-.247-1.428-1.034-5.487-3.947-20.127-5.948-29.83-7.027-36.576a179.35 179.35 0 0 1-2.425-19.119 36.9 36.9 0 0 0-1.788-9.063c-1-2.856-2.316-5.5-3.474-8.107-2.474-5.161-3.373-10.547-4.228-15.55s-1.675-9.7-2.654-13.931-2.05-8.01-3.156-11.243-2.327-5.982-2.822-8.332-.731-4.239-.967-5.487l-.27-1.428c-.002-.151-.014-.301-.034-.45z" class="C"/><path d="M441.031 54.065h-4.5a3.81 3.81 0 0 1-3.9 3.834 3.62 3.62 0 0 1-3.508-2.316 4 4 0 0 1 .315-3.621c.765-1.259 2.429-2.395 5.442-1.867V39.976h-4.419v5.914c-3.729 1.095-6.267 4.547-6.2 8.433 0 6.544 5.869 8.062 8.388 8.062 1.928.045 8.472-.416 8.382-8.32zm-6.117-16.136h-4.486v-4.194h4.486z" class="B"/><path d="M465.554 48.081c.015-.191.015-.382 0-.573v-1.663a9.62 9.62 0 0 0-.056-1.226l-.2-1.462-.247-1.72-.472-1.911a31.19 31.19 0 0 0-4.048-9.276 32.71 32.71 0 0 0-24.613-15.044 33.06 33.06 0 0 0-4.5-.09 11.46 11.46 0 0 0-2.249.146l-2.316.349c-3.178.591-6.254 1.64-9.13 3.115a35.62 35.62 0 0 0-8.2 5.971c-2.492 2.525-4.574 5.423-6.173 8.59a31.18 31.18 0 0 0-3.328 10.468c-.14.927-.219 1.862-.236 2.8a23.61 23.61 0 0 0-.056 2.822 33.18 33.18 0 0 0 5.453 16.922v-.349l-4.61 11.469-.27.686.708-.2 12.256-3.373-.292-.067a32.81 32.81 0 0 0 14.032 6.139c2.364.441 4.774.588 7.174.438 1.157-.017 2.312-.126 3.452-.326l1.675-.259c.551-.1 1.124-.27 1.619-.394a32.8 32.8 0 0 0 18.687-12.807 31.29 31.29 0 0 0 4.014-7.612l.607-1.709c.191-.585.292-1.124.416-1.63l.371-1.5c.112-.477.146-.933.214-1.372.1-.866.259-1.63.292-2.249s0-1.214 0-1.687v-1.37c-.017.116-.017.233 0 .349a5.28 5.28 0 0 1-.079 1.023c-.079.427-.067 1.023-.112 1.675s-.214 1.417-.349 2.249a32.61 32.61 0 0 1-24.186 26.086c-.529.124-1.057.281-1.6.382l-1.653.247a22.41 22.41 0 0 1-3.373.3c-2.356.124-4.719-.031-7.039-.461a32.44 32.44 0 0 1-13.706-6.038l-.135-.112h-.169L400.86 77.2l.427.483 4.621-11.458.067-.18-.1-.169c-2.214-3.35-3.785-7.083-4.632-11.008-.389-1.821-.623-3.672-.7-5.532-.038-.919-.019-1.839.056-2.755a18.41 18.41 0 0 1 .225-2.732 30.43 30.43 0 0 1 3.137-10.243c1.567-3.094 3.601-5.929 6.029-8.405a34.72 34.72 0 0 1 8.028-5.858 32.37 32.37 0 0 1 8.939-3.092l2.249-.349c.753-.112 1.507-.1 2.249-.157a33.62 33.62 0 0 1 4.4.079 32.36 32.36 0 0 1 24.313 14.617c1.855 2.801 3.245 5.885 4.115 9.13l.506 1.889.281 1.687.236 1.462c.079.45.056.855.09 1.214.013.553.055 1.104.124 1.653a1.9 1.9 0 0 0 .034.607z" class="C"/><g class="B"><use xlink:href="#C"/><path d="M219.009 414.847h65.17v60.863h-65.17z"/></g><path opacity=".1" d="M219.009 414.847h65.17v60.863h-65.17z"/><use xlink:href="#C" opacity=".1"/><use xlink:href="#D" class="B"/><use xlink:href="#D" class="D"/><path d="M192.113 414.847h65.17v60.863h-65.17z" class="B"/><path d="M192.113 414.847h65.17v60.863h-65.17z" class="D"/><path d="M232.276 125.485a5.62 5.62 0 0 1-.967 0c-.641 0-1.563-.214-2.766-.225a56.1 56.1 0 0 0-10.187.427 72.11 72.11 0 0 0-14.7 3.452c-2.809.982-5.544 2.162-8.186 3.531a43.27 43.27 0 0 0-8.017 5.183c-2.456 2.036-4.657 4.362-6.555 6.926a67.97 67.97 0 0 0-4.914 7.443 66.57 66.57 0 0 0-5.813 13.92c-.952 3.27-1.606 6.619-1.956 10.007-.135 1.192-.169 2.136-.2 2.766.001.324-.029.648-.09.967-.029-.322-.029-.645 0-.967 0-.641 0-1.585.1-2.788a51.72 51.72 0 0 1 1.788-10.12 64.77 64.77 0 0 1 5.734-14.077 67.34 67.34 0 0 1 4.936-7.522c1.914-2.606 4.142-4.966 6.634-7.027a43.58 43.58 0 0 1 8.118-5.251 62.97 62.97 0 0 1 8.242-3.6 70.63 70.63 0 0 1 14.831-3.373c3.398-.417 6.829-.497 10.243-.236a24.24 24.24 0 0 1 2.766.337c.325.053.645.129.959.227zm97.845-11.57s-.079-.079-.214-.247-.337-.461-.562-.787l-2.148-3.036-1.54-2.181-2.024-2.462-2.316-2.845-2.822-2.991-3.148-3.227-3.632-3.283-1.923-1.72-2.091-1.653-4.385-3.373a141.33 141.33 0 0 0-21.285-12.571l-5.925-2.676-5.881-2.249c-1.923-.8-3.879-1.361-5.768-1.99s-3.733-1.271-5.622-1.709l-5.378-1.406c-1.743-.461-3.474-.742-5.127-1.124-1.587-.388-3.193-.692-4.812-.911l-4.5-.652c-2.845-.483-5.453-.585-7.725-.81l-3.182-.259-2.676-.067-3.711-.124h-1.287a1.05 1.05 0 0 1 .326 0h7.365c.978 0 2.046.135 3.193.214 2.249.191 4.9.27 7.747.731l4.5.607c1.563.18 3.16.585 4.824.888s3.373.618 5.161 1.124l5.4 1.394c1.866.427 3.71 1.124 5.622 1.7a47.49 47.49 0 0 1 5.779 1.979l5.914 2.249 5.959 2.687a137.75 137.75 0 0 1 21.363 12.661c1.552 1.124 2.968 2.327 4.4 3.441l2.091 1.518c.675.562 1.293 1.124 1.923 1.732l3.621 3.373c1.124 1.124 2.136 2.249 3.137 3.272s1.956 2.024 2.8 3.025l2.249 2.867 2 2.5c.573.787 1.057 1.552 1.507 2.249l2.046 3.092.528.821a1.29 1.29 0 0 1 .229.229zm-6.769 139.425a3.49 3.49 0 0 1-.483.675l-1.552 1.833-2.451 2.89-3.373 3.7-4.284 4.306-5.138 4.711c-8.039 7.016-16.851 13.094-26.266 18.114-2.181 1.124-4.239 2.249-6.229 3.115l-5.555 2.474c-1.71.72-3.283 1.316-4.655 1.844s-2.575.956-3.564 1.271l-2.249.731c-.261.104-.533.179-.81.225a3.98 3.98 0 0 1 .765-.337l2.249-.832c.978-.349 2.159-.8 3.519-1.361s2.935-1.124 4.621-1.923 3.553-1.552 5.5-2.53l6.2-3.148c4.284-2.361 8.905-5.127 13.571-8.32a152.62 152.62 0 0 0 12.593-9.726c1.833-1.619 3.587-3.137 5.15-4.666l4.318-4.239 3.441-3.632c1.012-1.08 1.844-2.024 2.519-2.811l1.574-1.788a5.1 5.1 0 0 1 .589-.576zm-67.98 126.246c-.169 0-.3-18.058-.3-40.332l.3-40.343c.165 0 .292 18.058.292 40.343l-.292 40.332zm2.473 91.998c-.169 0-.292-12.672-.292-28.3l.292-28.312c.168 0 .292 12.672.292 28.312l-.292 28.3z" class="C"/><use xlink:href="#E" class="B"/><use xlink:href="#E" opacity=".4"/><path d="M396.809 164.861a25.5 25.5 0 0 0 15 4.7 10.6 10.6 0 0 0 7.14-2.249c.866-.8 1.518-1.81 2.406-2.575.607-.517 1.316-.911 1.889-1.462.615-.529.923-1.331.821-2.136a4.42 4.42 0 0 0-1.552-2.474c-3.047-1.732-6.69-1.664-10.2-1.585a35.09 35.09 0 0 0-10.288 2.013c-2.721.922-5.566 2.249-6.949 4.722" class="B"/><path d="M424.064 161.14c-.397-.948-1.097-1.739-1.99-2.249-3.047-1.732-6.252-1.889-9.76-1.81a35.09 35.09 0 0 0-10.288 2.013c-2.721.922-5.566 2.249-6.949 4.722l1.732 1.046a25.5 25.5 0 0 0 15 4.7 10.6 10.6 0 0 0 7.14-2.249c.866-.8 1.518-1.81 2.406-2.575.607-.517 1.316-.911 1.889-1.462.614-.529.922-1.332.82-2.136z" opacity=".4"/><path d="M344.929 205.216l56.051.742a.73.73 0 0 0 .7-.944l-6.578-20.509 2.3-22.578 4.779-42.187c-3.832-10.749-26.455-12.571-26.455-12.571l-25.782 1.529-.9-1.518-7.421 3.452c-1.619.753-3.175 1.633-4.655 2.631-4.9 3.272-16.708 10.794-18.867 19.171-4.981 19.4 3.452 41.04 3.452 41.04l5.42-4.239a38.05 38.05 0 0 1 4.3-2.867l10.862 29.111a5.14 5.14 0 0 0-2.361 3.733c-.09 2.361 1.124 5.195 5.161 6" class="B"/><path d="M368.98 170.899c1.777-9.557.843-19.385-.112-29.054-3.1 7.871-2.991 16.866-6.285 24.669a10.57 10.57 0 0 0-.877 2.6 2.91 2.91 0 0 0 .742 2.541c.9.821 2.249.371 3.441.236 1.067-.203 2.105-.535 3.092-.989" class="D"/><path d="M348.302 193.027c4.5 1.563 9.287-1.349 14.044-1.866 3.148-.337 6.3.382 9.422.888a70.68 70.68 0 0 0 19.115.472 7.33 7.33 0 0 0 2.811-.731c.922-.629 1.473-1.672 1.473-2.788-10.592-1.124-21.172-1.732-31.764-2.822-2.636-.45-5.337-.362-7.938.259-3.193.989-5.622 3.5-7.871 5.982" opacity=".4"/><path d="M422.444 157.451c-4.576-10.315-20.713-38.825-20.713-38.825l-12.49 15.663 2.912 30.752s6.6-7.365 25.051-7.511a9 9 0 0 1 6.859 3.621z" class="B"/><path d="M347.436 151.998a42.4 42.4 0 0 1-2.114-6.746 42.6 42.6 0 0 1-1.529-6.87 44.61 44.61 0 0 1 2.1 6.746c.698 2.245 1.213 4.542 1.54 6.87zm40.86-19.789a7.41 7.41 0 0 1 1.124.978 32.6 32.6 0 0 1 2.788 3.058 29.7 29.7 0 0 1 5.971 12.211 23.04 23.04 0 0 1 .349 7.533l-1.012 6.038-.562 4.07a7.53 7.53 0 0 1-.157 1.5 6.75 6.75 0 0 1-.067-1.518 36.45 36.45 0 0 1 .382-4.115l.888-6.027c.26-2.456.127-4.938-.394-7.353a31 31 0 0 0-5.723-12.076c-2.057-2.769-3.677-4.209-3.587-4.299zm-11.446 70.533a4.79 4.79 0 0 1-1.226.36 10.94 10.94 0 0 1-1.462.281l-1.956.236a28.19 28.19 0 0 1-5.15 0 33.25 33.25 0 0 1-6.184-1.237 33.73 33.73 0 0 1-5.8-2.485 29.67 29.67 0 0 1-4.261-2.89c-.585-.45-1.057-.922-1.484-1.316a12.88 12.88 0 0 1-1.046-1.057 4.4 4.4 0 0 1-.8-.989c.079-.079 1.282 1.271 3.587 3.036a32.35 32.35 0 0 0 4.262 2.744 35.78 35.78 0 0 0 5.712 2.395c1.983.597 4.015 1.019 6.072 1.259a33.3 33.3 0 0 0 5.06.157c2.888-.157 4.654-.584 4.676-.494zm17.305-6.386a3.91 3.91 0 0 1 .439 1.642 10.12 10.12 0 0 1-.3 4.093 7.1 7.1 0 0 1-2.249 3.486c-.821.686-1.451.9-1.484.843s.495-.427 1.2-1.124a7.96 7.96 0 0 0 1.923-3.373c.898-2.97.258-5.556.471-5.567zm-3.048 3.957c.499 2.363-.445 4.798-2.406 6.207-.124-.124.922-1.237 1.574-2.957s.664-3.239.832-3.25zm-10.029-36.992c-.595 1.007-1.264 1.969-2 2.878-.581 1.015-1.239 1.985-1.968 2.9a7.21 7.21 0 0 1 1.484-3.238 7.1 7.1 0 0 1 2.485-2.541zM342.6 136.088a28.22 28.22 0 0 1-2.485-1.642 31.92 31.92 0 0 0-13.279-4.959 25.05 25.05 0 0 1-2.957-.394 11 11 0 0 1 3 0 26.85 26.85 0 0 1 13.493 5.026c.83.55 1.58 1.212 2.228 1.969zm59.133-17.833a48.6 48.6 0 0 0-5.622 5.318 48.34 48.34 0 0 0-4.261 6.5 6.86 6.86 0 0 1 .776-2.181 22.68 22.68 0 0 1 3.036-4.7c1.206-1.432 2.588-2.706 4.115-3.789a6.61 6.61 0 0 1 1.956-1.147zm-23.14-9.265a2.48 2.48 0 0 1 .247.517c.219.509.396 1.036.528 1.574.474 2.004.474 4.09 0 6.094a15 15 0 0 1-4.588 7.747 15.57 15.57 0 0 1-10.344 3.688 17.55 17.55 0 0 1-10.513-3.452 19.91 19.91 0 0 1-5.746-6.96c-.914-1.828-1.558-3.778-1.911-5.791-.102-.542-.169-1.091-.2-1.642a1.81 1.81 0 0 1 0-.585 37.57 37.57 0 0 0 .439 2.181c.437 1.956 1.129 3.846 2.058 5.622 1.371 2.647 3.319 4.952 5.7 6.746a17.18 17.18 0 0 0 10.12 3.373 15.2 15.2 0 0 0 10-3.508 14.84 14.84 0 0 0 4.5-7.443 13.72 13.72 0 0 0 .2-5.937c-.22-1.482-.557-2.202-.49-2.224z" class="C"/><path d="M382.529 165.311a1.65 1.65 0 0 0-.585-1.507c-.318-.16-.694-.16-1.012 0a2.77 2.77 0 0 0-.821.675 13.8 13.8 0 0 0-3 4.8l5.509-.483-.091-3.485zm18.294-11.593a18.07 18.07 0 0 0-4-8.545c2.384 7.781 1.585 12.177.247 17.507l.292-.742c1.538-3.115 3.877-5.071 3.461-8.22z" class="D"/><path d="M389.815 415.094l-3.362 50.429-21.926-.259-3.452-52.43z" class="E"/><path d="M387.071 458.889v1.462s24.737 9.94 24.973 14.617l-49.125-.27.765-16.337c7.319 3.429 14.976 3.86 23.387.528z" class="B"/><path d="M368.665 463.601a2 2 0 0 0-1.394 2.249 1.91 1.91 0 0 0 2.249 1.405 2.1 2.1 0 0 0 1.462-2.417 1.99 1.99 0 0 0-2.5-1.2" fill="#fff"/><path d="M362.919 474.694l.18-3.924 47.044 1.709s2.181.967 1.923 2.5zm24.332-14.208c0 .236-1.214.337-2.395 1.124s-1.822 1.765-2.035 1.675.146-1.484 1.6-2.384 2.887-.67 2.83-.415zm5.139 2.159c.056.236-.989.63-1.81 1.642s-1.057 2.08-1.3 2.069-.382-1.372.663-2.6 2.436-1.28 2.447-1.111zm2.889 6.184c-.225 0-.551-1.124.079-2.462s1.743-1.821 1.844-1.63-.6.9-1.124 1.99-.552 2.08-.799 2.102zm-9.467-422.546c1.271-3.148-.27-6.96-3-9a13.09 13.09 0 0 0-9.771-1.9 38.89 38.89 0 0 0-9.6 3.373 10.83 10.83 0 0 0-18.4 6 6.9 6.9 0 0 0-8.174 9.051l15.2 5.341 16.6 29.234a13.28 13.28 0 0 0 19.542-17.653 11.53 11.53 0 0 0 2.339-2.878c2.68-1.585 4.611-4.179 5.363-7.2 1.471-6.498-3.567-13.604-10.099-14.368z" class="C"/><path d="M375.749 107.169l-1.585-7.983c.015.034 9-3.486 8.343-16-.315-6.229-2.687-16.045-4.891-24.006-1.979-7.174-8.669-15.078-15.741-12.8l-21.443 10.461c-2.148.7-2.519 2.721-2.013 4.914v1.124l8.332 34.474 3.519 15.4a13.01 13.01 0 0 0 14.527 9.872h0a13.02 13.02 0 0 0 10.952-15.46z" class="E"/><path d="M377.536 67.501a1.6 1.6 0 0 1-1.124 1.889 1.53 1.53 0 0 1-1.9-1.124c-.187-.826.308-1.653 1.124-1.878a1.52 1.52 0 0 1 1.9 1.113zm-.978-2.396c-.157.247-1.518-.371-3.182 0s-2.721 1.45-2.946 1.282 0-.483.461-.978c.617-.653 1.42-1.1 2.3-1.282.87-.188 1.777-.089 2.586.281.634.259.848.596.781.697zm-15.348 6.084c.185.825-.309 1.65-1.124 1.875a1.53 1.53 0 0 1-1.9-1.057 1.6 1.6 0 0 1 1.124-1.889 1.53 1.53 0 0 1 1.9 1.068zm-.82-2.115c-.146.247-1.518-.382-3.182 0s-2.721 1.439-2.946 1.282 0-.483.461-.989a4.42 4.42 0 0 1 2.3-1.271c.869-.185 1.774-.09 2.586.27.601.27.859.57.781.708zm8.466 10.57a11.84 11.84 0 0 1 2.609-1.057c.416-.135.81-.3.821-.607a2.25 2.25 0 0 0-.551-1.2l-1.945-2.991-4.621-7.871c.169-.079 2.519 3.261 5.24 7.522l1.9 3.013c.373.461.575 1.037.573 1.63-.068.328-.278.608-.573.765a2.82 2.82 0 0 1-.7.259 10.32 10.32 0 0 1-2.753.537z" class="C"/><path d="M374.167 99.184c-5.687 1.285-11.62.966-17.136-.922 0 0 5.892 7.691 17.777 4.014z" class="F"/><g class="C"><path d="M360.67 66.694c-.112.483-1.833.472-3.789.956s-3.508 1.214-3.823.832c-.135-.18.09-.652.686-1.124.792-.667 1.733-1.134 2.743-1.361a6.6 6.6 0 0 1 3.047 0c.799.143 1.215.469 1.136.697zm15.247-6.898c-.27.45-1.709.337-3.373.663s-2.98.888-3.373.562c-.18-.169 0-.6.483-1.124.743-.625 1.642-1.037 2.6-1.192a5.3 5.3 0 0 1 2.822.2c.684.32.953.668.841.891zm-30.19-11.006c.504 2.466 2.079 4.58 4.297 5.768a8.47 8.47 0 0 0 7.183.382c1.776-.72 3.621-2.069 5.42-1.417s2.541 3.216 4.261 4.171c2.53 1.417 5.622-1.034 8.444-.787 2.249.191 3.947 1.911 5.689 3.373s4.149 2.564 6.117 1.507a24.8 24.8 0 0 0-1.99-5.42 8.39 8.39 0 0 0-4.115-3.89c-.989-.394-2.058-.528-3-1.012-2.035-1.034-2.946-3.373-4.419-5.138-1.963-2.257-4.893-3.429-7.871-3.148-2.429.247-4.734 1.473-7.185 1.372-1.81-.079-3.542-.888-5.352-.855-3.519 0-6.162 3.148-8.118 6.083"/><path d="M357.579 51.367c-1.619-.124-4.925-.461-6.016-1.608a9.49 9.49 0 0 0-9-2.968 7.87 7.87 0 0 0-5.622 7.488c-4.008.978-7.158 4.072-8.208 8.062-1.062 4.162-.011 8.58 2.811 11.817a23.41 23.41 0 0 1 1.844 2.665 19.05 19.05 0 0 0-2 3.036c-2.575 5.689 4.408 7.871 4.408 7.871 0 3.823 3.542 3.8 5.8 3.789s3.508 6.027 5.273 5.791l-1.788-18.631c.262.102.54.155.821.157 4.261.079 3.148-7.994 1.776-10.119 1.27-1.581 2.342-3.31 3.193-5.15a17.44 17.44 0 0 0 .157-8.613c1.435-.187 7.248-3.544 6.551-3.587z"/></g><path d="M345.649 79.666a3.61 3.61 0 0 0-5.791-1.934c-1.124.967-1.72 2.586-1.046 5.3 1.822 7.241 8.714 3.924 8.669 3.722l-1.832-7.088z" class="E"/><path d="M344.581 84.558c-.088.1-.185.19-.292.27-.266.204-.6.297-.933.259a3.19 3.19 0 0 1-2.148-2.44 4.36 4.36 0 0 1-.1-1.889 1.52 1.52 0 0 1 .708-1.214c.282-.152.632-.081.832.169.146.169.135.326.18.337s.124-.169 0-.45c-.086-.167-.225-.301-.394-.382a.99.99 0 0 0-.742 0c-.574.272-.969.819-1.046 1.45a4.5 4.5 0 0 0 .079 2.136c.256 1.335 1.289 2.386 2.62 2.665.428.017.842-.16 1.124-.483.145-.248.145-.417.112-.428z" class="F"/><path d="M384.474 69.558c2.185-1.817 3.563-4.423 3.834-7.252.151-1.399.014-2.815-.4-4.16a8.93 8.93 0 0 0-2.575-4 10.59 10.59 0 0 0-10.322-2.069c-.337.112-.652.281-.967.416a8.62 8.62 0 0 0-.888.506l-.45.247v-.495a3.62 3.62 0 0 0-.911-2.361 5.79 5.79 0 0 0-2.125-1.439 7.68 7.68 0 0 0-4.824-.36c-3.1.708-5.734 2.125-8.219 2.417a7.94 7.94 0 0 1-5.622-1.124c-.44-.303-.821-.684-1.124-1.124-.18-.3-.27-.472-.247-.483a6.14 6.14 0 0 0 1.473 1.428 7.87 7.87 0 0 0 5.431.911c1.295-.243 2.561-.62 3.778-1.124a35.24 35.24 0 0 1 4.385-1.428 9.42 9.42 0 0 1 2.541-.259c.902.048 1.789.253 2.62.607a6.34 6.34 0 0 1 2.249 1.619c.665.761 1.039 1.733 1.057 2.744l-.45-.247.933-.54 1.034-.439c3.759-1.289 7.921-.46 10.9 2.17a9.31 9.31 0 0 1 2.676 4.25 10.94 10.94 0 0 1-2.148 10.12 7.14 7.14 0 0 1-1.248 1.124c-.113.131-.241.249-.382.349zm-1.462-25.422a8.8 8.8 0 0 0-2.339-.8 6.12 6.12 0 0 0-2.766.259 5.4 5.4 0 0 0-2.845 2.069l-.281.394-.169-.45c-1.196-2.814-3.819-4.762-6.859-5.093a10.91 10.91 0 0 0-6.589 1.911 29.11 29.11 0 0 1-5.228 2.7c-1.261.477-2.62.639-3.958.472a6.04 6.04 0 0 1-1.046-.292c-.225-.1-.349-.157-.337-.18s.506.146 1.417.236a8.63 8.63 0 0 0 3.789-.618 32.38 32.38 0 0 0 5.093-2.788 17.44 17.44 0 0 1 3.148-1.54 8.64 8.64 0 0 1 3.778-.483 8.87 8.87 0 0 1 7.264 5.5h-.439a5.87 5.87 0 0 1 3.137-2.181 6.4 6.4 0 0 1 2.946-.146 5.26 5.26 0 0 1 1.754.675 2.25 2.25 0 0 1 .528.36z" fill="#455a64"/><path d="M368.204 82.972a2.43 2.43 0 0 0-1.911-.54 2.89 2.89 0 0 0-1.9 1.383h0a.36.36 0 0 0-.067.09h0a1.44 1.44 0 0 0-.2.855c.099.661.52 1.23 1.124 1.518.974.494 2.153.323 2.946-.427a2.1 2.1 0 0 0 .011-2.878z" class="B"/><path d="M368.766 86.469c-.09 0-.191-.337-.495-.8a3.51 3.51 0 0 0-3.654-1.664c-.551.079-.888.236-.922.157s.225-.349.832-.562c.795-.256 1.656-.208 2.417.135.769.342 1.378.966 1.7 1.743.235.586.201.98.122.991z" class="C"/><g class="B"><path d="M345.817 87.863c.199.461.161.989-.1 1.417a2.26 2.26 0 0 1-4.25-.8 2.36 2.36 0 0 1 .461-1.552c.585-.742 1.237-.765 1.237-.7a3.47 3.47 0 0 0-.888.933 1.98 1.98 0 0 0-.27 1.259 1.8 1.8 0 0 0 .843 1.248c.445.285.991.367 1.5.225a2.1 2.1 0 0 0 1.023-.787 5.21 5.21 0 0 0 .444-1.243z"/><path d="M342.024 87.425c.056 0 0 .382-.528.63-.53.22-1.14.113-1.562-.276s-.581-.987-.406-1.534a1.43 1.43 0 0 1 .6-.731c.461-.281.81-.169.8-.1s-.27.146-.551.427c-.283.353-.327.842-.111 1.24s.65.627 1.1.582c.381-.081.583-.283.658-.238z"/></g><path d="M354.385 187.281s27.84 1.619 44.3 1.765c12.739.124 18.429-3.261 20.97-11.458 2.136-6.87-2.451-20.059-2.451-20.059-8.624 0-13.942 1.237-19.486 3.834l1.473 6.027-44.886 3.868z" class="E"/><path d="M408.547 173.823a22.4 22.4 0 0 0-4.194-4.171c-1.691-1.035-3.514-1.837-5.42-2.384.6-.087 1.212-.033 1.788.157a11.9 11.9 0 0 1 3.958 1.743 11.75 11.75 0 0 1 3.07 3.058c.629.922.865 1.563.798 1.597z" class="F"/><g class="E"><path d="M344.195 161.319h0s-8.613 2.069-14.943 6.3l6.749 18.276c2.249 6 9.119 9 14.617 5.847 8.467-4.846 11.458-18.968 11.458-18.968l9.3-40.343-15.415-9.659-11.7 38.544"/><path d="M355.903 122.775l.63-13.268-3.452-13.493c-.191-.742-.281-1.675.326-2.125a1.64 1.64 0 0 1 2.08.067c.933.967 5.431 12.762 5.431 12.762s6.825-4.093 8.039-4.3 2.732 3.474 2.833 3.755a22.85 22.85 0 0 1 0 2.474s4.216.124 4.6.7c.306 1.172.469 2.376.483 3.587 0 0 1.788.573 2.069 1.923s.866 3.576 0 4.07l-2.62 1.462s-.708 6.881-.9 7.511-4.138 4.5-4.138 4.5z"/></g><g class="F"><path d="M341.556 192.015a6.9 6.9 0 0 0 1.293.528c1.282.402 2.639.51 3.969.315 2.137-.305 4.138-1.227 5.757-2.654a26.48 26.48 0 0 0 5.352-6.746 29.29 29.29 0 0 0 2.08-4.644c.585-1.766 1.069-3.565 1.451-5.386l2.845-12.211 6.746-28.807v-.079h.056l2.327-2.35 1.124-1.226.517-.641a1.62 1.62 0 0 0 .191-.686l.787-6.926v-.146l.135-.067 2.148-1.2.506-.3a.64.64 0 0 0 .2-.371 4.05 4.05 0 0 0 0-1.124c-.109-.825-.278-1.64-.506-2.44-.383-.699-1.025-1.22-1.788-1.45l-.191-.067v-.191a17.1 17.1 0 0 0-.146-1.99c-.031-.332-.079-.662-.146-.989a1.64 1.64 0 0 0-.135-.416c0-.079 0 0-.067-.067-.061-.032-.125-.059-.191-.079a20.14 20.14 0 0 0-4.115-.461h-.292v-2.541a2.36 2.36 0 0 0-.27-.753c-.112-.27-.247-.528-.382-.8-.263-.521-.572-1.017-.922-1.484a2.46 2.46 0 0 0-.573-.562.54.54 0 0 0-.6-.067 13.2 13.2 0 0 0-1.585.731l-6.139 3.463-.292.18-.124-.315-3.148-7.871-1.54-3.857c-.163-.581-.643-1.017-1.237-1.124a1.25 1.25 0 0 0-1.462.54 1.3 1.3 0 0 0-.169.8c.049.317.125.629.225.933l.517 1.934 1 3.823q.989 3.8 1.945 7.421v.079q-.337 6.926-.641 13.268v-.022l-10.243 33.327-2.89 9.276-.776 2.44a8.1 8.1 0 0 1-.292.821s.056-.292.214-.843l.708-2.462 2.766-9.31 10.052-33.394v.056q.292-6.319.6-13.268v.079l-1.968-7.41-1.012-3.823-.517-1.934a9.9 9.9 0 0 1-.236-1.023c-.041-.39.041-.783.236-1.124a1.8 1.8 0 0 1 .911-.765c.767-.225 1.596-.038 2.193.495a2.25 2.25 0 0 1 .607.967l1.54 3.857 3.16 7.871-.416-.146 6.173-3.5c.54-.282 1.096-.534 1.664-.753.178-.074.371-.101.562-.079a1.35 1.35 0 0 1 .54.2c.271.195.51.431.708.7a9.63 9.63 0 0 1 .978 1.574l.4.832a2.89 2.89 0 0 1 .315.956v2.249l-.281-.3a20.06 20.06 0 0 1 4.3.495c.097.034.191.075.281.124a.73.73 0 0 1 .292.292c.087.182.151.375.191.573l.157 1.046a43.29 43.29 0 0 1 .146 2.035l-.2-.27a3.53 3.53 0 0 1 2.148 1.777 17.37 17.37 0 0 1 .54 2.609 3.98 3.98 0 0 1 0 1.361 1.18 1.18 0 0 1-.4.7c-.184.123-.376.236-.573.337l-2.136 1.113.146-.214-.81 6.938-.067.439a.99.99 0 0 1-.214.483c-.165.247-.35.481-.551.7l-1.124 1.248a92.68 92.68 0 0 1-2.339 2.35l.079-.135-6.825 28.8-2.9 12.188a46.38 46.38 0 0 1-1.484 5.42 30.49 30.49 0 0 1-2.136 4.689c-1.436 2.558-3.287 4.861-5.476 6.814-1.667 1.435-3.718 2.35-5.9 2.631a8.77 8.77 0 0 1-4.037-.4 6.75 6.75 0 0 1-.956-.439z"/><path d="M371.802 108.687c0 .079-.382.124-.978.146a11.3 11.3 0 0 0-2.249.27c-.713.175-1.371.527-1.912 1.023-.4.382-.585.708-.675.675s0-.439.371-.956c.524-.653 1.253-1.111 2.069-1.3a6.22 6.22 0 0 1 2.406-.112c.608.074.968.175.968.254z"/><path d="M368.542 108.81c-.146-.056-.157-.4 0-.776s.382-.63.528-.573.169.4 0 .776-.416.629-.528.573zm8.522 4.082a10.41 10.41 0 0 1-3.373.461 2.25 2.25 0 0 0-1.867.888c-.292.461-.191.843-.281.866s-.36-.371-.079-1.046c.155-.38.438-.694.8-.888a3.37 3.37 0 0 1 1.349-.4 9.24 9.24 0 0 1 3.452.124zm-.741 4.048c.157 0 .247.832.2 1.855s-.214 1.833-.371 1.833-.259-.843-.214-1.866.216-1.833.385-1.822z"/></g><g fill="#fff"><path d="M380.988 147.22l1-3.441c.095-.319.35-.565.673-.647s.665.012.901.247l1.316 1.338.81-3.249c.097-.385.425-.668.819-.708s.773.171.946.528l1.833 3.845zm8.32-.619a15.18 15.18 0 0 1-3.969 1.282 14.7 14.7 0 0 1-4.115.72 30 30 0 0 1 8.084-2.002zm-66.867-19.193c-.373.415-.708.863-1 1.338a11.31 11.31 0 0 0-1.518 4.239 30.03 30.03 0 0 0-.2 6.746l.641 8.264a144.81 144.81 0 0 0 2.372 14.864l1 4.5.292 1.2.09.427s-.056-.135-.135-.4l-.326-1.2-1.124-4.441c-1.093-4.909-1.908-9.875-2.44-14.876a131.15 131.15 0 0 1-.618-8.276c-.17-2.251-.088-4.514.247-6.746.242-1.52.793-2.974 1.619-4.273.304-.501.674-.959 1.1-1.361zm23.668-15.315l-.259.135-.742.36-2.687 1.372a98.77 98.77 0 0 0-8.444 5.285l-8.141 5.779-2.462 1.743-.686.461a1.36 1.36 0 0 1-.247.157.91.91 0 0 1 .225-.191l.652-.495 2.417-1.81 8.107-5.836c2.729-1.911 5.567-3.66 8.5-5.24l2.732-1.3.753-.315c.226-.085.226-.116.282-.105zm53.622 7.319a.82.82 0 0 1-.191-.146l-.506-.439a21 21 0 0 0-1.968-1.473 40.72 40.72 0 0 0-7.23-3.654 72.72 72.72 0 0 0-7.7-2.564l-2.395-.618-.641-.169a.9.9 0 0 1-.225-.079h.236l.652.124 2.406.551c2.638.666 5.229 1.503 7.758 2.507a36.97 36.97 0 0 1 7.23 3.733 14.48 14.48 0 0 1 2.574 2.227zm-53.307 85.826a1.58 1.58 0 0 1-.438-.146 7.87 7.87 0 0 1-1.124-.607c-1.223-.733-2.105-1.922-2.451-3.306a6.47 6.47 0 0 1 .439-4.115 5.41 5.41 0 0 1 .652-1.124c.18-.236.3-.349.315-.337a12.75 12.75 0 0 0-.821 1.5 6.67 6.67 0 0 0-.349 3.992 5.45 5.45 0 0 0 2.249 3.227c.937.669 1.551.871 1.528.916z"/><path d="M342.849 193.061c.239.446.417.923.528 1.417a5.2 5.2 0 0 1 .315 1.473 4.62 4.62 0 0 1-.54-1.406 4.5 4.5 0 0 1-.3-1.484z"/></g><g class="C"><path d="M358.051 445.161l34.294-.169-.618-118.567-.327-120.609-46.471-.6-8.354 15.741c-3.418 6.33-5.597 13.253-6.42 20.4-.562 5.465 3.531 23.23 4.947 27.727l12.787 40.543z"/><path d="M401.463 205.958l37.69 102.736a47.38 47.38 0 0 1-4.644 40.141l-43.761 85.453-24.6-30.786 36.61-76.459-32.27-52.34 5.431-68.588 15.2-.247z"/></g><path d="M388.274 240.375v.53c0 .349.056.888.1 1.552l.315 5.948 1.124 21.914 1.5 32.495.855 19.193c.214 3.373.124 6.746.157 10.12v10.457l.124 72.377v27.907l-.067-5.971-.157-21.926-.292-72.377v-10.457c0-3.441.067-6.836-.146-10.12l-.821-19.182-1.372-32.506-.877-21.914-.2-5.959v-1.551c-.007-.429-.243-.53-.243-.53zm-.866-32.393a4.07 4.07 0 0 1 .236 1.124l.416 3.07c.292 2.6.607 6.207.787 10.2a158.62 158.62 0 0 1 .135 10.232 38.97 38.97 0 0 1-.135 3.1 3.8 3.8 0 0 1-.135 1.124 32.1 32.1 0 0 1-.146-4.228c0-2.62-.124-6.218-.3-10.21s-.427-7.578-.618-10.12a37.9 37.9 0 0 1-.236-4.3zm-7.555 2.316c.056.079-.585.371-.765 1.282a1.47 1.47 0 0 0 .439 1.372c.455.422 1.114.539 1.687.3a1.62 1.62 0 0 0 .877-1.473c-.021-.512-.306-.976-.753-1.226a2.73 2.73 0 0 0-1.473-.259.83.83 0 0 1 .4-.236 1.91 1.91 0 0 1 1.259.124c.64.266 1.075.871 1.124 1.563a2.01 2.01 0 0 1-1.157 2.043c-.784.362-1.712.184-2.306-.443-.487-.484-.665-1.199-.461-1.855a1.9 1.9 0 0 1 .72-1.046c.229-.157.397-.18.409-.146zm-17.99-2.035a3.37 3.37 0 0 1 .3 1.124c.181 1.009.214 2.039.1 3.058a12.49 12.49 0 0 1-1.293 4.351c-1.7 3.434-4.996 5.798-8.793 6.308a12.19 12.19 0 0 1-4.5-.169 10.62 10.62 0 0 1-2.856-1.068 3.55 3.55 0 0 1-.922-.63 20.4 20.4 0 0 0 3.868 1.293c3.233.672 6.6-.039 9.286-1.961a11.81 11.81 0 0 0 4.848-8.159c.132-1.381.117-2.772-.045-4.149zm44.121 9.85a4.72 4.72 0 0 1-2.17-.259 10.02 10.02 0 0 1-4.419-2.833 9.89 9.89 0 0 1-2.395-4.678 4.5 4.5 0 0 1 0-2.17c.1 0 .112.821.45 2.08.924 3.299 3.349 5.97 6.544 7.207 1.169.461 2.001.54 1.99.653zm13.391 110.752a7.17 7.17 0 0 1-1.99 1.585 9.31 9.31 0 0 1-2.552 1.124 6.14 6.14 0 0 1-3.452-.09 10.05 10.05 0 0 1-4.812-3.823 9.24 9.24 0 0 1-1.316-2.159c.607.579 1.157 1.215 1.642 1.9a10.66 10.66 0 0 0 4.655 3.519 7.2 7.2 0 0 0 5.622-.821 22.05 22.05 0 0 1 2.203-1.235zm-8.593 6.555a28.45 28.45 0 0 1-3.542-4.5 29.23 29.23 0 0 1-3.081-4.824 27.49 27.49 0 0 1 3.553 4.5c1.192 1.494 2.221 3.111 3.07 4.824z" fill="#455a64"/><path d="M353.17 244.344c-.157.056-.551-.585-.9-1.451s-.495-1.6-.349-1.664.551.585.888 1.45.507 1.665.361 1.665zm21.769 3.126c-.169 0-.292-.551-.292-1.237s.124-1.248.292-1.248.292.562.292 1.248-.134 1.237-.292 1.237zm-8.95 11.829c-.157 0-.337-.675-.394-1.54s0-1.563.18-1.574.349.675.4 1.54-.029 1.562-.186 1.574zm-16.348 8.658c-.135.1-.6-.315-1.2-.742s-1.124-.753-1.124-.911.742-.067 1.428.427 1.03 1.226.896 1.226zm28.818 11.03c-.135-.09 0-.573.382-1.124s.731-.866.866-.776 0 .585-.382 1.124-.731.866-.866.776zm-17.789 3.115c-.157 0-.292-.933-.292-2.069s.135-2.08.292-2.08.292.933.292 2.08a4.38 4.38 0 0 1-.292 2.069zm-5.824 12.615c-.09.124-.675-.135-1.3-.6s-1.124-.933-.978-1.068.686.135 1.316.6 1.064.933.962 1.068zm18.012 4.385c.067.146-.292.45-.81.686s-.989.292-1.057.146.3-.45.821-.686.99-.292 1.046-.146zm-12.187 20.577c-.135.067-.72-.8-1.293-1.945s-.922-2.136-.776-2.249.731.8 1.293 1.945c.417.686.681 1.452.776 2.249zm19.868-1.912c-.146-.079.112-.832.562-1.7s.956-1.5 1.124-1.417-.112.832-.573 1.7-.979 1.496-1.113 1.417zm-8.714 17.417c-.169 0-.146-.911-.326-1.968s-.45-1.9-.292-1.979.7.72.877 1.889-.102 2.092-.259 2.058zm-9.333 9.951c-.112.112-.675-.315-1.248-.944s-.944-1.226-.821-1.338.675.315 1.248.944.944 1.225.821 1.338zm22.645 3.778c-.112-.112.3-.72.933-1.36s1.214-1.057 1.338-.945-.3.731-.922 1.361-1.225 1.056-1.349.944zm-13.02 14.898c-.157 0-.157-.888 0-1.923s.4-1.844.573-1.822.157.877 0 1.911-.416 1.857-.573 1.834zm-8.76 7.229c-.146.079-.641-.506-1.124-1.3s-.731-1.507-.6-1.585.63.495 1.124 1.293.735 1.503.6 1.592zm21.105 9.12c.1.135-.472.708-1.282 1.282s-1.518.933-1.619.8.483-.708 1.282-1.282 1.529-.924 1.619-.8zm-17.585 11.839c-.157-.056 0-.956.146-2.08s.056-2.046.225-2.069.461.922.349 2.125-.574 2.091-.72 2.024zM373.904 409c-.135.1-.607-.281-1.068-.855s-.72-1.124-.6-1.226.6.281 1.057.855.735 1.125.611 1.226zm-7.674 11.402c-.135.09-.753-.573-1.383-1.5s-1.023-1.732-.9-1.822.753.573 1.383 1.5 1.03 1.732.9 1.822zm21.145-14.313c-.146-.056-.135-.472 0-.922s.439-.787.6-.731.135.472 0 .933-.443.786-.6.72zm-9.333 27.153c-.146-.079.135-.877.36-1.878s.3-1.844.472-1.855.337.9.1 1.979-.797 1.841-.932 1.754zm6.072-173.763c-.146.067-.506-.382-.8-1.012s-.416-1.192-.27-1.259.506.382.8 1.012.439 1.192.27 1.259zm-15.572-35.014c.09.135-.7.765-1.54 1.664s-1.417 1.732-1.563 1.653.236-1.124 1.124-2.046 1.866-1.417 1.979-1.271zm13.863-.359c-.169 0-.427-.641-.821-1.406s-.753-1.394-.63-1.507.731.382 1.124 1.237.473 1.586.327 1.676zm-43.289 11.367c-.146-.067 0-.81.349-1.664s.731-1.518.888-1.45 0 .8-.349 1.664-.697 1.506-.888 1.45zm1.405 16.978c-.112.124-.753-.236-1.439-.81s-1.124-1.124-1.057-1.259.753.236 1.439.81 1.158 1.135 1.057 1.259zm28.403-41.467c-.146 0-.461-.36-.686-.933s-.292-1.124-.146-1.124.461.36.686.933.292 1.066.146 1.124zm27.199 8.298c-.157 0-.146-.708 0-1.507s.439-1.428.6-1.394.146.72 0 1.518-.443 1.417-.6 1.383zm6.386 12.852c-.146-.067.056-.9.461-1.878s.843-1.709.99-1.653 0 .9-.45 1.878-.843 1.709-1.001 1.653zm-4.553 10.366c-.146.067-.686-.708-1.2-1.732s-.81-1.934-.663-2 .675.708 1.192 1.732.817 1.922.671 2zm9.736 10.367c-.146-.056 0-.708.247-1.45s.641-1.3.8-1.248 0 .708-.247 1.45-.597 1.304-.8 1.248zm-8.703 10.154c-.135.09-.483-.214-.765-.663s-.416-.9-.27-.989.472.214.765.675.406.898.27.977zm1.856 20.959c-.112.1-.821-.45-1.563-1.259s-1.248-1.54-1.124-1.653.821.45 1.563 1.259 1.248 1.54 1.124 1.653zm11.413-12.043c-.124.1-.742-.461-1.372-1.271s-1.034-1.529-.911-1.63.742.472 1.372 1.271 1.046 1.54.911 1.63zm6.262 16.607c-.146-.067.112-.911.573-1.878s.944-1.709 1.124-1.642-.1.922-.562 1.889-.989 1.71-1.135 1.631zm-13.312 13.673c-.146.079-.663-.54-1.383-1.2s-1.383-1.124-1.316-1.293.922.135 1.709.866 1.125 1.548.99 1.627zm.832 14.088c0 .157-.562.292-1.248.292s-1.237-.135-1.237-.292.551-.292 1.237-.292 1.248.135 1.248.292zm13.683-3.935c-.146-.079.146-.787.36-1.664s.3-1.642.472-1.653.349.81.1 1.788-.808 1.619-.932 1.529zm13.594 4.734c-.146.056-.562-.742-.922-1.765s-.528-1.9-.382-1.945.573.731.933 1.754.529 1.899.371 1.956zm-2.17 19.339c-.135-.079.214-1.023.776-2.114s1.124-1.911 1.293-1.833-.2 1.023-.776 2.1-1.147 1.948-1.293 1.847zm-12.401 11.345c-.146.056-.607-.72-1.034-1.743s-.641-1.9-.483-1.968.607.72 1.023 1.743.64 1.968.494 1.968zm-13.741 4.396c0 .157-.472.292-1.046.292s-1.034-.135-1.034-.292.472-.292 1.034-.292 1.046.135 1.046.292zm7.871 18.092c-.146 0-.461-.618-.7-1.473s-.281-1.6-.124-1.63.461.618.7 1.473.281 1.541.124 1.63zm-9.951-6.071c-.135-.079 0-.607.371-1.181s.742-.967.877-.888 0 .618-.371 1.192-.731.967-.877.877zm-.202 19.912c-.157 0-.382-.753-.495-1.732s-.079-1.777.079-1.8.382.753.495 1.732.079 1.778-.079 1.8z" fill="#fafafa"/><defs ><path id="B" d="M71.298 446.51c1.124-4.138-1.653-8.287-4.689-11.244s-6.668-5.678-8.253-9.647c-2.564-6.432.877-14.752-3.486-20.115-2.575-3.148-7.185-4.205-9.467-7.578-1.056-1.859-1.754-3.9-2.058-6.016-2.426-10.683-7.681-20.516-15.213-28.47-.508 9.515 1.555 18.991 5.971 27.435 1.765 3.373 3.947 6.656 4.5 10.423.956 6.105-2.462 12.368-.956 18.4 1.72 6.859 9.422 11.458 9.782 18.519.315 5.971-4.891 11.244-4.5 17.181a15.99 15.99 0 0 0 2.687 7.084c4.61 7.68 11.4 12.964 21.678 12.8l12.593.439z"/><path id="C" d="M130.25 180.682h64.934s0-54.522 56.658-55.489c29.425-.517 44.683 18.766 50.89 33.529 7.2 17.147 5.015 36.689-4.632 52.6-11.008 18.159-34.732 36.408-78.494 28.694l-.416 144.675h64.214v-85.768s90.052-23.275 90.052-122.559c0-94.955-76.785-115.464-118.061-116.79-22.96-.731-31.281-1.72-59.683 2.316-36.195 5.172-66.227 47.202-65.462 118.792z"/><path id="D" d="M103.342 180.68h64.945s0-54.522 56.658-55.489c29.425-.517 44.683 18.766 50.879 33.529 7.207 17.147 5.026 36.689-4.621 52.6-11.008 18.159-35.148 34.665-78.91 26.985v146.386h64.214v-85.768s90.052-23.275 90.052-122.559c0-94.955-85.161-117-121.6-117-27.876.03-122.842 6.765-121.617 121.316z"/><path id="E" d="M321.767 172.057c-1.124 2.249 3.07 4.093 5.487 4.824a22.06 22.06 0 0 0 7.545.517c3.373-.18 6.825-.495 9.737-2.159a15.54 15.54 0 0 0 5.869-6.578c1.263-2.705 2.261-5.525 2.98-8.422 0 0-26.57 1.733-31.618 11.818z"/></defs></svg>