<svg xmlns="http://www.w3.org/2000/svg" width="496.463" height="476.088" viewBox="0 0 496.463 476.088">
  <g id="Questions-pana_1_" data-name="Questions-pana (1)" transform="translate(-29.23 -40.687)">
    <g id="freepik--background-complete--inject-123" transform="translate(48.909 40.687)">
      <path id="Pfad_9585" data-name="Pfad 9585" d="M281.834,476.456c-19.384-9.175-27.109-30.988-29.841-51.306-.461-3.373-1.428-6.881-.326-10.12s4.5-5.881,7.758-4.97c2.71.753,4.3,3.474,6.105,5.622a19.857,19.857,0,0,0,9.175,6.207c2.339.753,5.116.99,7.039-.54,2.631-2.1,2.249-6.173,1.709-9.524q-1.653-9.321-3.238-18.642a31.75,31.75,0,0,1-.663-10.12c.495-3.373,2.3-6.746,5.341-8.141s7.3-.259,8.523,2.912a31.831,31.831,0,0,1,.81,4.149c.326,1.383,1.237,2.811,2.62,2.98s2.586-1.012,3.429-2.17c2.878-3.969,4.5-8.725,5.959-13.436s2.833-9.512,5.352-13.74,6.364-7.871,11.12-9,10.378,1.012,12.368,5.521.067,9.782-2.249,14.122a76.109,76.109,0,0,1-13.144,17.473,6.263,6.263,0,0,0-2.136,3.238c-.349,2.361,2.148,4.228,4.5,4.587,2.631.4,5.307-.315,7.972-.45s5.689.54,7.106,2.845c1.945,3.193-.315,7.275-2.732,10.12a65.214,65.214,0,0,1-17.124,14.167c-2.316,1.316-4.779,2.552-6.477,4.621s-2.384,5.285-.787,7.443,4.824,2.395,7.32,1.473,4.576-2.71,6.881-4.048c4.318-2.519,10.322-3.216,13.954.27a10.749,10.749,0,0,1,2.71,9.2,24.657,24.657,0,0,1-3.677,9.141,65.508,65.508,0,0,1-24.264,24.017c-10.063,5.51-19.8,8.2-31.078,6.105" transform="translate(-21.304 -2.668)" fill="#f5f5f5"/>
      <path id="Pfad_9586" data-name="Pfad 9586" d="M281.17,462.669a304.541,304.541,0,0,1,6.454-34.373l2.159-8.916c.708-2.935,1.417-5.836,2.249-8.624a152.935,152.935,0,0,1,5.914-15.741c2.125-4.925,4.318-9.535,6.4-13.819s4.115-8.242,6.117-11.761a120.308,120.308,0,0,1,10.659-15.921c1.405-1.776,2.541-3.115,3.317-4.014.371-.427.675-.765.888-1.023s.315-.337.326-.326a3.378,3.378,0,0,1-.27.371l-.855,1.057c-.742.922-1.844,2.249-3.216,4.082a127.836,127.836,0,0,0-10.468,16c-1.968,3.531-3.969,7.489-6.038,11.772s-4.228,8.894-6.33,13.819a151.17,151.17,0,0,0-5.847,15.741c-.866,2.777-1.563,5.622-2.249,8.59l-2.159,8.928a311.533,311.533,0,0,0-6.488,34.294" transform="translate(-17.57 -2.441)" fill="#e0e0e0"/>
      <path id="Pfad_9587" data-name="Pfad 9587" d="M292.233,407.78a6.512,6.512,0,0,1-.573-1.383c-.337-.888-.776-2.249-1.293-3.834-1.034-3.261-2.316-7.815-3.71-12.829s-2.732-9.546-3.823-12.773c-.54-1.619-.99-2.935-1.3-3.823a8.269,8.269,0,0,1-.438-1.428,6.567,6.567,0,0,1,.663,1.338c.394.866.9,2.159,1.5,3.755,1.2,3.216,2.609,7.725,4.014,12.762s2.586,9.445,3.531,12.863c.439,1.552.8,2.856,1.124,3.9a8.468,8.468,0,0,1,.315,1.45Z" transform="translate(-17.58 0.49)" fill="#e0e0e0"/>
      <path id="Pfad_9588" data-name="Pfad 9588" d="M332.774,390.13a8.488,8.488,0,0,1-1.687.506c-1.124.281-2.665.686-4.6,1.248-3.879,1.124-9.175,2.788-14.943,4.925s-10.907,4.306-14.617,5.97c-1.844.821-3.317,1.529-4.34,2.013a9.8,9.8,0,0,1-1.608.7,8.441,8.441,0,0,1,1.5-.922c.99-.551,2.44-1.316,4.262-2.249,3.632-1.777,8.759-4.014,14.538-6.162a151.8,151.8,0,0,1,15.056-4.756c1.956-.517,3.553-.855,4.666-1.068A9.6,9.6,0,0,1,332.774,390.13Z" transform="translate(-16.35 2.781)" fill="#e0e0e0"/>
      <path id="Pfad_9589" data-name="Pfad 9589" d="M284.954,454.916a2.935,2.935,0,0,1-.382-.483l-1-1.428c-.866-1.259-2.069-3.092-3.519-5.386-2.923-4.587-6.746-11.053-10.873-18.249s-7.871-13.684-10.715-18.316l-3.373-5.5-.9-1.5a2.147,2.147,0,0,1-.281-.54,4.293,4.293,0,0,1,.382.472c.236.326.607.855,1,1.439.866,1.248,2.069,3.081,3.531,5.386,2.912,4.588,6.746,11.042,10.873,18.238s7.871,13.684,10.7,18.328l3.373,5.487c.36.6.663,1.124.9,1.5a2.082,2.082,0,0,1,.281.551Z" transform="translate(-20.961 4.446)" fill="#e0e0e0"/>
      <path id="Pfad_9590" data-name="Pfad 9590" d="M335.7,424.18a2.089,2.089,0,0,1-.528.337l-1.563.832-5.8,3.025c-4.9,2.564-11.626,6.173-19.047,10.12s-14.179,7.556-19.115,10.007c-2.474,1.226-4.5,2.249-5.892,2.845l-1.687.742a2.606,2.606,0,0,1-.585.225,2.42,2.42,0,0,1,.528-.337l1.574-.832,5.8-3.036c4.891-2.552,11.615-6.162,19.036-10.12s14.19-7.545,19.115-10c2.474-1.226,4.5-2.249,5.892-2.845l1.619-.742A2.251,2.251,0,0,1,335.7,424.18Z" transform="translate(-17.532 7.016)" fill="#e0e0e0"/>
      <path id="Pfad_9591" data-name="Pfad 9591" d="M155.374,247.439s-13.358,1.855-5.858,31.112S163.379,322.9,163.379,322.9s1,6.623-4.34,6.42-16.236-4.5-19.935,1.226c-3.823,5.982-.472,13.178,7.871,20.723S173.105,376,174.7,377.565s2.766,4.779-.9,5.217-29.661-2.609-30.359,9.816,26.1,29.605,28.987,31.539,3.373,3.441,2.7,5.127-9.287-.169-16.72-.742-16.157.09-15.966,7.286,14.269,25.411,55.309,38.949l19.441,5.026,14.358-14.145c28.9-32.146,32.056-54.938,28.649-61.279s-11.244-2.575-17.473,1.608-12.751,10.12-14.145,9-1.754-2.676-.2-5.791,16.27-31.337,9.479-41.771-27.84,5.1-31.213,6.533-3.98-1.968-3.373-4.082,7.466-25.861,11-36.6,2.856-18.631-3.441-21.914c-6.072-3.16-13.369,6.016-17.912,8.849s-6.949-3.373-6.949-3.373-1.979-16.247-10.007-45.369-20.835-23.9-20.835-23.9" transform="translate(-35.438 -15.001)" fill="#ebebeb"/>
      <path id="Pfad_9592" data-name="Pfad 9592" d="M214.466,481.688c-5.813-21.363-15.517-59.593-24.006-92.414s-16.2-62.415-21.914-83.846c-2.856-10.7-5.172-19.362-6.746-25.378-.787-2.98-1.406-5.307-1.833-6.9l-.472-1.8c-.1-.4-.135-.618-.135-.618s.079.191.2.6.292,1.023.517,1.788c.461,1.6,1.124,3.9,1.956,6.87,1.687,5.971,4.07,14.617,6.971,25.321,5.813,21.363,13.605,51.059,22.094,83.812s18.114,71.016,23.826,92.447" transform="translate(-32.722 -12.071)" fill="#e0e0e0"/>
      <path id="Pfad_9593" data-name="Pfad 9593" d="M152.27,327.26a7.265,7.265,0,0,1,1.282.686c.8.472,1.945,1.192,3.373,2.091,2.8,1.81,6.611,4.408,10.76,7.342l10.592,7.556,3.227,2.249a6.385,6.385,0,0,1,1.124.888,7.071,7.071,0,0,1-1.293-.686c-.8-.472-1.945-1.192-3.373-2.1-2.777-1.833-6.555-4.5-10.7-7.421l-10.648-7.477-3.238-2.249a6.6,6.6,0,0,1-1.1-.877Z" transform="translate(-33.604 -5.04)" fill="#e0e0e0"/>
      <path id="Pfad_9594" data-name="Pfad 9594" d="M180.72,348.9c-.146-.09,4.857-8.174,11.165-18.058s11.559-17.822,11.7-17.732-4.857,8.186-11.176,18.069S180.867,348.967,180.72,348.9Z" transform="translate(-30.066 -6.8)" fill="#e0e0e0"/>
      <path id="Pfad_9595" data-name="Pfad 9595" d="M190.3,393.083a5.926,5.926,0,0,1,1.068-1.034l3.025-2.654c2.552-2.249,6.072-5.352,9.827-8.928s7.061-6.915,9.422-9.355c1.124-1.124,2.046-2.125,2.8-2.89a7.772,7.772,0,0,1,1.124-1.023,5.9,5.9,0,0,1-.9,1.181c-.607.731-1.518,1.765-2.665,3.025-2.249,2.53-5.532,5.937-9.31,9.512s-7.331,6.656-9.962,8.815c-1.327,1.124-2.406,1.934-3.171,2.507A6.87,6.87,0,0,1,190.3,393.083Z" transform="translate(-28.874 -0.071)" fill="#e0e0e0"/>
      <path id="Pfad_9596" data-name="Pfad 9596" d="M161.05,379.89a5.62,5.62,0,0,1,1.327.326l3.564,1.124c2.991.956,7.117,2.316,11.66,3.845s8.647,2.968,11.6,4.037l3.5,1.282a6.07,6.07,0,0,1,1.248.551,5.183,5.183,0,0,1-1.327-.315l-3.564-1.124c-2.991-.956-7.117-2.316-11.66-3.857s-8.647-2.968-11.6-4.025l-3.5-1.293A5.092,5.092,0,0,1,161.05,379.89Z" transform="translate(-32.512 1.507)" fill="#e0e0e0"/>
      <path id="Pfad_9597" data-name="Pfad 9597" d="M164.43,420.94a8.927,8.927,0,0,1,1.7.427l4.565,1.394c3.845,1.2,9.141,2.9,14.988,4.824s11.12,3.677,14.932,4.992l4.5,1.574a11.5,11.5,0,0,1,1.63.663,8.9,8.9,0,0,1-1.709-.427l-4.565-1.394c-3.845-1.2-9.141-2.9-14.988-4.824s-11.12-3.688-14.921-4.992l-4.5-1.585a9.73,9.73,0,0,1-1.63-.652Z" transform="translate(-32.092 6.613)" fill="#e0e0e0"/>
      <path id="Pfad_9598" data-name="Pfad 9598" d="M201.24,436.465a10.056,10.056,0,0,1,1.316-1.338l3.722-3.5c3.137-2.957,7.455-7.061,12.1-11.727s8.748-9,11.694-12.143l3.486-3.733a11.94,11.94,0,0,1,1.338-1.327,9.967,9.967,0,0,1-1.124,1.484c-.765.933-1.911,2.249-3.373,3.868-2.867,3.238-6.915,7.623-11.581,12.29s-9,8.737-12.233,11.615c-1.619,1.428-2.935,2.586-3.868,3.373A11.181,11.181,0,0,1,201.24,436.465Z" transform="translate(-27.513 4.344)" fill="#e0e0e0"/>
      <path id="Pfad_9599" data-name="Pfad 9599" d="M106.494,96.946,95.52,93.573s-2.878,9.22-12.5,6.4a9.321,9.321,0,0,1-6.825-8.354,10.254,10.254,0,0,1,3.542-8.692c2.822-2.5,7.77-4.014,14.752-.4l7.725-24.737L91.36,54.41,86.862,68.9S70.4,68.083,65.173,84.847c-5,16.045,8.219,24.264,14.381,26.187C84.231,112.5,100.658,116.364,106.494,96.946Z" transform="translate(-44.576 -38.98)" fill="#f5f5f5"/>
      <rect id="Rechteck_1568" data-name="Rechteck 1568" width="11.536" height="10.772" transform="translate(59.266 13.719) rotate(-162.67)" fill="#f5f5f5"/>
      <path id="Pfad_9600" data-name="Pfad 9600" d="M128.778,68.572l4.4-1.124a3.857,3.857,0,0,1,2.845-4.756,3.688,3.688,0,0,1,4.048,1.361,4.059,4.059,0,0,1,.618,3.632c-.416,1.428-1.754,2.98-4.857,3.238l2.62,9.906,4.34-1.124-1.529-5.8a8.759,8.759,0,0,0,3.9-9.895c-1.687-6.432-7.871-6.4-10.311-5.757C132.961,58.689,126.653,60.837,128.778,68.572Z" transform="translate(-36.58 -38.536)" fill="#ebebeb"/>
      <rect id="Rechteck_1569" data-name="Rechteck 1569" width="4.584" height="4.28" transform="translate(103.311 43.799) rotate(-15.005)" fill="#ebebeb"/>
      <path id="Pfad_9601" data-name="Pfad 9601" d="M451.54,169.247l4.273,1.54a3.868,3.868,0,0,1,5.06-2.249,3.666,3.666,0,0,1,2.541,3.373,4.082,4.082,0,0,1-1.552,3.373c-1.124.933-3.137,1.439-5.836-.112l-3.5,9.636,4.228,1.529,2.046-5.622a8.781,8.781,0,0,0,8.849-5.914c2.249-6.252-2.822-9.726-5.217-10.592C460.6,163.49,454.194,161.68,451.54,169.247Z" transform="translate(3.622 -25.411)" fill="#ebebeb"/>
      <rect id="Rechteck_1570" data-name="Rechteck 1570" width="4.565" height="4.261" transform="translate(455.456 161.324) rotate(19.91)" fill="#ebebeb"/>
      <path id="Pfad_9602" data-name="Pfad 9602" d="M48.45,214.862l9-3.486s-2.923-7.59,4.914-10.772a7.871,7.871,0,0,1,8.883,1.945,8.692,8.692,0,0,1,2.181,7.567c-.562,3.126-3.036,6.746-9.546,7.994L71.747,238.5l9-3.441-4.61-11.941s11.244-8.073,5.971-21.9c-5.116-13.223-18.2-11.716-23.23-9.771C54.994,192.936,42.131,198.974,48.45,214.862Z" transform="translate(-46.732 -22.092)" fill="#f5f5f5"/>
      <rect id="Rechteck_1571" data-name="Rechteck 1571" width="9.726" height="9.085" transform="translate(26.639 220.609) rotate(-21.07)" fill="#f5f5f5"/>
      <path id="Pfad_9603" data-name="Pfad 9603" d="M457.411,244.493,451,246.956s2.069,5.386-3.486,7.635a5.622,5.622,0,0,1-6.3-1.372,6.15,6.15,0,0,1-1.54-5.363c.4-2.249,2.159-4.767,6.746-5.622l-5.51-14.493-6.342,2.44,3.261,8.467a13.257,13.257,0,0,0-4.228,15.517c3.609,9.366,12.852,8.309,16.45,6.926C452.779,260.021,461.886,255.749,457.411,244.493Z" transform="translate(1.27 -17.419)" fill="#f5f5f5"/>
      <rect id="Rechteck_1572" data-name="Rechteck 1572" width="6.893" height="6.432" transform="translate(441.022 207.347) rotate(158.93)" fill="#f5f5f5"/>
    </g>
    <g id="freepik--Floor--inject-123" transform="translate(29.23 516.105)">
      <path id="Pfad_9604" data-name="Pfad 9604" d="M525.693,463.8c0,.169-111.146.292-248.221.292S29.23,463.971,29.23,463.8s111.123-.292,248.243-.292S525.693,463.645,525.693,463.8Z" transform="translate(-29.23 -463.51)" fill="#263238"/>
    </g>
    <g id="freepik--Plant--inject-123" transform="translate(57.287 320.99)">
      <path id="Pfad_9605" data-name="Pfad 9605" d="M97.424,446.99c1.124-4.138-1.653-8.287-4.689-11.244s-6.668-5.678-8.253-9.647c-2.564-6.432.877-14.752-3.486-20.115-2.575-3.148-7.185-4.205-9.467-7.578a17.125,17.125,0,0,1-2.058-6.016,61.077,61.077,0,0,0-15.213-28.47,53.094,53.094,0,0,0,5.971,27.435c1.765,3.373,3.947,6.656,4.5,10.423.956,6.105-2.462,12.368-.956,18.4,1.72,6.859,9.422,11.458,9.782,18.519.315,5.971-4.891,11.244-4.5,17.181a15.989,15.989,0,0,0,2.687,7.084c4.61,7.68,11.4,12.964,21.678,12.8l12.593.439Z" transform="translate(-54.183 -280.783)" fill="#66bcb5"/>
      <g id="Gruppe_7501" data-name="Gruppe 7501" transform="translate(0 83.137)" opacity="0.3">
        <path id="Pfad_9606" data-name="Pfad 9606" d="M97.424,446.99c1.124-4.138-1.653-8.287-4.689-11.244s-6.668-5.678-8.253-9.647c-2.564-6.432.877-14.752-3.486-20.115-2.575-3.148-7.185-4.205-9.467-7.578a17.125,17.125,0,0,1-2.058-6.016,61.077,61.077,0,0,0-15.213-28.47,53.094,53.094,0,0,0,5.971,27.435c1.765,3.373,3.947,6.656,4.5,10.423.956,6.105-2.462,12.368-.956,18.4,1.72,6.859,9.422,11.458,9.782,18.519.315,5.971-4.891,11.244-4.5,17.181a15.989,15.989,0,0,0,2.687,7.084c4.61,7.68,11.4,12.964,21.678,12.8l12.593.439Z" transform="translate(-54.183 -363.92)"/>
      </g>
      <path id="Pfad_9607" data-name="Pfad 9607" d="M103.231,481.239a10.12,10.12,0,0,0,3.474-.067,21.665,21.665,0,0,0,4.082-1.034,17.485,17.485,0,0,0,5.06-2.766,6.994,6.994,0,0,0,2.08-2.777,13.122,13.122,0,0,0,.585-3.755,36.563,36.563,0,0,1,.3-4.07,11.007,11.007,0,0,1,1.529-4.048c1.484-2.609,3.958-5.082,4.745-8.624s.247-7.252-.337-11.03-1.124-7.871.292-11.829,4.115-7.5,5.5-11.93.731-9.31,1.023-14.066a18.552,18.552,0,0,1,1.642-6.994c1.012-2.249,2.429-4.329,3.531-6.668,2.249-4.745,2.631-10.12,3.238-15.393.3-2.654.6-5.341.9-8.039a39.963,39.963,0,0,1,1.405-8.062,72.144,72.144,0,0,1,3.013-7.792,27.083,27.083,0,0,0,1.462-4.059,40.984,40.984,0,0,0,.4-4.34,51.507,51.507,0,0,0-.337-8.714c-.337-2.9-.866-5.779-1.181-8.692v-.506l-.067-.573-.506.247a19.451,19.451,0,0,0-6.746,5.723,31.09,31.09,0,0,0-4.171,7.68c-2.1,5.408-2.856,11.075-3.913,16.484s-2.406,10.727-5.172,15.224c-1.383,2.249-3.058,4.3-4.5,6.477a17.743,17.743,0,0,0-3.126,7.174c-.753,5.33,2.181,10.007,1.574,14.73a16.292,16.292,0,0,1-2.249,6.533c-1.124,2.013-2.485,3.879-3.767,5.746a36.834,36.834,0,0,0-3.373,5.813,18.293,18.293,0,0,0-1.552,6.308c-.3,4.25.292,8.275,0,12.076a27.828,27.828,0,0,1-3.115,10.356c-1.518,3.092-3.216,5.892-4.632,8.613-.708,1.349-1.372,2.676-1.911,4.014a20.094,20.094,0,0,0-1.124,3.98,24.962,24.962,0,0,0-.09,7.185,18.114,18.114,0,0,0,3.6,9.164,9.122,9.122,0,0,0,1.023,1.124,5.117,5.117,0,0,0,.821.7c.472.349.72.506.72.506a15.66,15.66,0,0,1-2.44-2.406,18.159,18.159,0,0,1-3.373-9.108,24.837,24.837,0,0,1,.157-7.084,19.115,19.115,0,0,1,1.124-3.879,41.075,41.075,0,0,1,1.923-3.958c1.428-2.7,3.137-5.487,4.689-8.6a28.11,28.11,0,0,0,3.216-10.536c.337-3.879-.247-7.927.067-12.065a18.057,18.057,0,0,1,1.518-6.105,36.677,36.677,0,0,1,3.373-5.689c1.282-1.866,2.642-3.733,3.812-5.791a16.865,16.865,0,0,0,2.406-6.8c.607-5.026-2.305-9.726-1.552-14.685a17.236,17.236,0,0,1,3.025-6.859c1.428-2.148,3.115-4.194,4.5-6.5,2.867-4.621,4.25-10.041,5.3-15.472s1.821-11.053,3.89-16.36a30.258,30.258,0,0,1,4.059-7.466,18.653,18.653,0,0,1,6.488-5.487l-.573-.326a1.66,1.66,0,0,0,.056.517c.315,2.946.843,5.824,1.124,8.7a49.882,49.882,0,0,1,.326,8.579,42.021,42.021,0,0,1-.382,4.205,25.3,25.3,0,0,1-1.417,3.924,74.263,74.263,0,0,0-3.036,7.871,40.816,40.816,0,0,0-1.417,8.186c-.292,2.71-.6,5.4-.888,8.051-.607,5.3-1,10.581-3.148,15.157-1.124,2.249-2.474,4.4-3.519,6.69a19.239,19.239,0,0,0-1.687,7.252c-.281,4.857.349,9.613-.967,13.909s-4.048,7.871-5.431,11.93-.877,8.354-.27,12.121,1.214,7.477.4,10.817-3.126,5.836-4.632,8.512a11.458,11.458,0,0,0-1.563,4.216,35.4,35.4,0,0,0-.27,4.115,12.593,12.593,0,0,1-.54,3.666,6.623,6.623,0,0,1-1.945,2.642,17.327,17.327,0,0,1-4.936,2.789,21.805,21.805,0,0,1-4.037,1.124,15.47,15.47,0,0,1-2.552.247C103.534,481.239,103.231,481.239,103.231,481.239Z" transform="translate(-48.858 -285.573)" fill="#263238"/>
      <path id="Pfad_9608" data-name="Pfad 9608" d="M142.316,332.1a1.351,1.351,0,0,0-.124.382l-.27,1.124c-.247,1-.551,2.5-1.023,4.363s-1.63,3.98-2.609,6.578a93.858,93.858,0,0,0-2.991,8.928c-.967,3.373-1.81,7.084-2.71,11.087a46.629,46.629,0,0,1-4.025,12.29,67.3,67.3,0,0,0-3.115,6.387,29.29,29.29,0,0,0-1.81,7.219,147.385,147.385,0,0,1-2.721,15.236C118.4,416,115.994,425.829,113.8,434.779s-4.261,16.956-5.971,23.725-3,12.166-3.947,16.023c-.439,1.844-.787,3.294-1.034,4.363-.1.461-.191.832-.259,1.124a2.079,2.079,0,0,0,0,.394,1.473,1.473,0,0,0,.146-.371c.079-.3.191-.663.326-1.124.281-1.046.675-2.5,1.181-4.329,1.012-3.823,2.44-9.254,4.205-15.944s3.823-14.786,6.128-23.68,4.644-18.789,7.185-29.11a140.23,140.23,0,0,0,2.654-15.28,29.043,29.043,0,0,1,1.754-7.05c.888-2.249,2.024-4.261,3.058-6.33,2.249-4.1,3.137-8.512,4.025-12.481s1.675-7.725,2.6-11.075,1.889-6.342,2.856-8.928a68.394,68.394,0,0,0,2.5-6.656c.461-1.934.675-3.373.877-4.408q.112-.7.2-1.124C142.316,332.235,142.338,332.1,142.316,332.1Z" transform="translate(-48.163 -284.741)" fill="#263238"/>
      <path id="Pfad_9609" data-name="Pfad 9609" d="M109.55,485.7c8.219-4.891,10.581-19.733,7.151-28.661s-9.434-17.091-10.356-26.614c-.72-7.32,1.687-14.831,0-21.982-2.305-9.659-11.727-17.136-11.615-27.064.056-5.566,3.227-10.805,2.968-16.371-.3-6.814-5.543-12.233-8.781-18.238-4.97-9.209-5.3-20.082-6.994-30.359S76.3,295.051,67.15,289.98c-1.349,8.759-3.654,14.763-2.935,26.626.27,4.261,5.217,12.368,5.892,21.757.4,5.622.675,11.176,1.023,16.753s.686,10.974,2.631,16.056c1.5,3.9,3.89,7.443,5,11.469,2.08,7.567-.663,15.741,1.023,23.432,1.428,6.5,5.926,12.087,6.848,18.676,1.282,9.254-4.7,18.878-1.642,27.7,1.529,4.385,5.127,7.871,6.15,12.424.8,3.508-.067,7.23.652,10.749,1.124,5.689,11.986,10.119,17.777,9.748" transform="translate(-52.952 -289.98)" fill="#66bcb5"/>
      <path id="Pfad_9610" data-name="Pfad 9610" d="M68.811,297.67a2.665,2.665,0,0,0,0,.495c0,.371.112.843.18,1.439.191,1.271.4,3.126.832,5.532s1.709,5.127,2.7,8.41,2.091,7.039,3.013,11.244,1.732,8.894,2.552,13.92,1.72,10.5,4.216,15.742c1.124,2.62,2.451,5.251,3.373,8.062a36.372,36.372,0,0,1,1.732,8.883,177.778,177.778,0,0,0,2.417,19.115c2.519,12.975,4.914,25.332,7.095,36.588s4.374,21.3,6.128,29.8,3.193,15.292,4.194,20.082l1.124,5.453c.135.585.236,1.046.326,1.405a2.8,2.8,0,0,0,.135.483,2.058,2.058,0,0,0,0-.495c-.067-.371-.146-.832-.247-1.428-.247-1.3-.6-3.148-1.034-5.487-.944-4.8-2.249-11.66-3.947-20.127s-3.71-18.62-5.948-29.83-4.5-23.612-7.027-36.576A179.352,179.352,0,0,1,88.2,371.261a36.9,36.9,0,0,0-1.788-9.063c-1-2.856-2.316-5.5-3.474-8.107-2.474-5.161-3.373-10.547-4.228-15.55s-1.675-9.7-2.654-13.931S74.006,316.6,72.9,313.367s-2.327-5.982-2.822-8.332-.731-4.239-.967-5.487c-.112-.585-.2-1.057-.27-1.428a3.814,3.814,0,0,0-.034-.45Z" transform="translate(-52.365 -289.023)" fill="#263238"/>
    </g>
    <g id="freepik--speech-bubble--inject-123" transform="translate(428.943 55.764)">
      <path id="Pfad_9611" data-name="Pfad 9611" d="M423.325,90.329h-4.5a3.812,3.812,0,0,1-3.9,3.834,3.621,3.621,0,0,1-3.508-2.316,4,4,0,0,1,.315-3.621c.765-1.259,2.429-2.395,5.442-1.867V76.24h-4.419v5.914a8.635,8.635,0,0,0-6.2,8.433c0,6.544,5.869,8.062,8.388,8.062C416.871,98.694,423.415,98.233,423.325,90.329Z" transform="translate(-382.007 -51.341)" fill="#66bcb5"/>
      <rect id="Rechteck_1573" data-name="Rechteck 1573" width="4.486" height="4.194" transform="translate(35.201 22.852) rotate(180)" fill="#66bcb5"/>
      <path id="Pfad_9612" data-name="Pfad 9612" d="M450.564,87.1a3.656,3.656,0,0,0,0-.573V84.864a9.622,9.622,0,0,0-.056-1.226c-.056-.45-.124-.944-.2-1.462s-.157-1.124-.247-1.72l-.472-1.911a31.189,31.189,0,0,0-4.048-9.276,32.709,32.709,0,0,0-24.613-15.044,33.058,33.058,0,0,0-4.5-.09,11.46,11.46,0,0,0-2.249.146l-2.316.349a33.383,33.383,0,0,0-9.13,3.115,35.621,35.621,0,0,0-8.2,5.971,34.125,34.125,0,0,0-6.173,8.59,31.18,31.18,0,0,0-3.328,10.468,21.223,21.223,0,0,0-.236,2.8,23.609,23.609,0,0,0-.056,2.822,33.181,33.181,0,0,0,5.453,16.922v-.349c-1.563,3.9-3.1,7.736-4.61,11.469l-.27.686.708-.2,12.256-3.373-.292-.067a32.81,32.81,0,0,0,14.032,6.139,29.235,29.235,0,0,0,7.174.438,21.893,21.893,0,0,0,3.452-.326l1.675-.259c.551-.1,1.124-.27,1.619-.394a32.8,32.8,0,0,0,18.687-12.807,31.292,31.292,0,0,0,4.014-7.612c.214-.6.416-1.124.607-1.709s.292-1.124.416-1.63.259-1.023.371-1.5.146-.933.214-1.372c.1-.866.259-1.63.292-2.249s0-1.214,0-1.687V87.146a1.183,1.183,0,0,0,0,.349,5.282,5.282,0,0,1-.079,1.023c-.079.427-.067,1.023-.112,1.675s-.214,1.417-.349,2.249a32.607,32.607,0,0,1-24.186,26.086c-.529.124-1.057.281-1.6.382l-1.653.247a22.412,22.412,0,0,1-3.373.3,29.943,29.943,0,0,1-7.039-.461,32.438,32.438,0,0,1-13.706-6.038l-.135-.112h-.169l-12.267,3.373.427.483,4.621-11.458.067-.18-.1-.169a32.337,32.337,0,0,1-4.632-11.008,32.947,32.947,0,0,1-.7-5.532,22.477,22.477,0,0,1,.056-2.755,18.411,18.411,0,0,1,.225-2.732,30.428,30.428,0,0,1,3.137-10.243A33.855,33.855,0,0,1,395,64.22a34.721,34.721,0,0,1,8.028-5.858,32.372,32.372,0,0,1,8.939-3.092l2.249-.349c.753-.112,1.507-.1,2.249-.157a33.621,33.621,0,0,1,4.4.079A32.36,32.36,0,0,1,445.178,69.46a31.136,31.136,0,0,1,4.115,9.13l.506,1.889c.1.6.191,1.124.281,1.687s.157,1.012.236,1.462.056.855.09,1.214a16.245,16.245,0,0,0,.124,1.653,1.9,1.9,0,0,0,.034.607Z" transform="translate(-384.723 -54.096)" fill="#263238"/>
    </g>
    <g id="freepik--question-mark--inject-123" transform="translate(132.561 99.594)">
      <path id="Pfad_9613" data-name="Pfad 9613" d="M145.072,214.852h64.934s0-54.522,56.658-55.489c29.425-.517,44.683,18.766,50.89,33.529,7.2,17.147,5.015,36.689-4.632,52.6-11.008,18.159-34.732,36.408-78.494,28.694l-.416,144.675h64.214V333.093s90.052-23.275,90.052-122.559c0-94.955-76.785-115.464-118.061-116.79-22.96-.731-31.281-1.72-59.683,2.316C174.339,101.232,144.307,143.262,145.072,214.852Z" transform="translate(-118.153 -93.077)" fill="#66bcb5"/>
      <rect id="Rechteck_1574" data-name="Rechteck 1574" width="65.17" height="60.863" transform="translate(115.678 355.94)" fill="#66bcb5"/>
      <rect id="Rechteck_1575" data-name="Rechteck 1575" width="65.17" height="60.863" transform="translate(115.678 355.94)" opacity="0.1"/>
      <path id="Pfad_9614" data-name="Pfad 9614" d="M145.072,214.852h64.934s0-54.522,56.658-55.489c29.425-.517,44.683,18.766,50.89,33.529,7.2,17.147,5.015,36.689-4.632,52.6-11.008,18.159-34.732,36.408-78.494,28.694l-.416,144.675h64.214V333.093s90.052-23.275,90.052-122.559c0-94.955-76.785-115.464-118.061-116.79-22.96-.731-31.281-1.72-59.683,2.316C174.339,101.232,144.307,143.262,145.072,214.852Z" transform="translate(-118.153 -93.077)" opacity="0.1"/>
      <path id="Pfad_9615" data-name="Pfad 9615" d="M121.141,214.8h64.945s0-54.522,56.658-55.489c29.425-.517,44.683,18.766,50.879,33.529,7.207,17.147,5.026,36.689-4.621,52.6-11.008,18.159-35.148,34.665-78.91,26.985V418.811h64.214V333.043s90.052-23.275,90.052-122.559c0-94.955-85.161-117-121.6-117C214.882,93.514,119.916,100.249,121.141,214.8Z" transform="translate(-121.13 -93.027)" fill="#66bcb5"/>
      <path id="Pfad_9616" data-name="Pfad 9616" d="M121.141,214.8h64.945s0-54.522,56.658-55.489c29.425-.517,44.683,18.766,50.879,33.529,7.207,17.147,5.026,36.689-4.621,52.6-11.008,18.159-35.148,34.665-78.91,26.985V418.811h64.214V333.043s90.052-23.275,90.052-122.559c0-94.955-85.161-117-121.6-117C214.882,93.514,119.916,100.249,121.141,214.8Z" transform="translate(-121.13 -93.027)" opacity="0.3"/>
      <rect id="Rechteck_1576" data-name="Rechteck 1576" width="65.17" height="60.863" transform="translate(88.782 355.94)" fill="#66bcb5"/>
      <rect id="Rechteck_1577" data-name="Rechteck 1577" width="65.17" height="60.863" transform="translate(88.782 355.94)" opacity="0.3"/>
      <path id="Pfad_9617" data-name="Pfad 9617" d="M242.931,152.369a5.622,5.622,0,0,1-.967,0c-.641,0-1.563-.214-2.766-.225a56.1,56.1,0,0,0-10.187.427,72.163,72.163,0,0,0-14.7,3.452,62.875,62.875,0,0,0-8.186,3.531,43.268,43.268,0,0,0-8.017,5.183,39.625,39.625,0,0,0-6.555,6.926,67.874,67.874,0,0,0-4.914,7.443,66.555,66.555,0,0,0-5.813,13.92,56.614,56.614,0,0,0-1.956,10.007c-.135,1.192-.169,2.136-.2,2.766a5.115,5.115,0,0,1-.09.967,5.375,5.375,0,0,1,0-.967c0-.641,0-1.585.1-2.788a51.721,51.721,0,0,1,1.788-10.12,64.765,64.765,0,0,1,5.734-14.077,67.342,67.342,0,0,1,4.936-7.522,39.354,39.354,0,0,1,6.634-7.027,43.582,43.582,0,0,1,8.118-5.251,62.971,62.971,0,0,1,8.242-3.6,70.632,70.632,0,0,1,14.831-3.373,51.723,51.723,0,0,1,10.243-.236,24.239,24.239,0,0,1,2.766.337A6.986,6.986,0,0,1,242.931,152.369Z" transform="translate(-113.986 -85.791)" fill="#263238"/>
      <path id="Pfad_9618" data-name="Pfad 9618" d="M334.964,148.014s-.079-.079-.214-.247-.337-.461-.562-.787l-2.148-3.036c-.461-.652-.956-1.405-1.54-2.181l-2.024-2.462-2.316-2.845c-.843-.989-1.833-1.945-2.822-2.991s-2-2.159-3.148-3.227-2.372-2.159-3.632-3.283c-.63-.562-1.248-1.124-1.923-1.72l-2.091-1.653c-1.428-1.124-2.845-2.249-4.385-3.373a141.346,141.346,0,0,0-21.285-12.571l-5.925-2.676-5.881-2.249c-1.923-.8-3.879-1.361-5.768-1.99s-3.733-1.271-5.622-1.709L258.3,97.608c-1.743-.461-3.474-.742-5.127-1.124a46.753,46.753,0,0,0-4.812-.911l-4.5-.652c-2.845-.483-5.453-.585-7.725-.81-1.124-.09-2.249-.214-3.182-.259l-2.676-.067-3.711-.124H225.28a1.057,1.057,0,0,1,.326,0h7.365c.978,0,2.046.135,3.193.214,2.249.191,4.9.27,7.747.731l4.5.607c1.563.18,3.16.585,4.824.888s3.373.618,5.161,1.124l5.4,1.394c1.866.427,3.71,1.124,5.622,1.7a47.463,47.463,0,0,1,5.779,1.979l5.914,2.249,5.959,2.687a137.805,137.805,0,0,1,21.363,12.661c1.552,1.124,2.968,2.327,4.4,3.441l2.091,1.518c.675.562,1.293,1.124,1.923,1.732l3.621,3.373c1.124,1.124,2.136,2.249,3.137,3.272s1.956,2.024,2.8,3.025l2.249,2.867,2,2.5c.573.787,1.057,1.552,1.507,2.249.877,1.316,1.563,2.35,2.046,3.092l.528.821A1.292,1.292,0,0,1,334.964,148.014Z" transform="translate(-108.174 -93.006)" fill="#263238"/>
      <path id="Pfad_9619" data-name="Pfad 9619" d="M324.179,266a3.476,3.476,0,0,1-.483.675l-1.552,1.833c-.641.821-1.451,1.8-2.451,2.89s-2.069,2.372-3.373,3.7-2.7,2.811-4.284,4.306-3.306,3.07-5.138,4.711a140.413,140.413,0,0,1-26.266,18.114c-2.181,1.124-4.239,2.249-6.229,3.115s-3.845,1.754-5.555,2.474-3.283,1.316-4.655,1.844-2.575.956-3.564,1.271l-2.249.731a3.925,3.925,0,0,1-.81.225,4.017,4.017,0,0,1,.765-.337l2.249-.832c.978-.349,2.159-.8,3.519-1.361s2.935-1.124,4.621-1.923,3.553-1.552,5.5-2.53,4.025-2.013,6.2-3.148c4.284-2.361,8.905-5.127,13.571-8.32a152.619,152.619,0,0,0,12.593-9.726c1.833-1.619,3.587-3.137,5.15-4.666s3.025-2.912,4.318-4.239,2.429-2.552,3.441-3.632,1.844-2.024,2.519-2.811l1.574-1.788A5.1,5.1,0,0,1,324.179,266Z" transform="translate(-104.158 -71.567)" fill="#263238"/>
      <path id="Pfad_9620" data-name="Pfad 9620" d="M256.384,387.205c-.169,0-.3-18.058-.3-40.332s.135-40.343.3-40.343.292,18.058.292,40.343S256.541,387.205,256.384,387.205Z" transform="translate(-104.343 -66.526)" fill="#263238"/>
      <path id="Pfad_9621" data-name="Pfad 9621" d="M258.582,466.363c-.169,0-.292-12.672-.292-28.3s.124-28.312.292-28.312.292,12.672.292,28.312S258.74,466.363,258.582,466.363Z" transform="translate(-104.068 -53.686)" fill="#263238"/>
    </g>
    <g id="freepik--Character--inject-123" transform="translate(345.757 75.819)">
      <path id="Pfad_9622" data-name="Pfad 9622" d="M315.421,195.017c-1.124,2.249,3.07,4.093,5.487,4.824a22.061,22.061,0,0,0,7.545.517c3.373-.18,6.825-.495,9.737-2.159a15.539,15.539,0,0,0,5.869-6.578,46.274,46.274,0,0,0,2.98-8.422S320.469,184.932,315.421,195.017Z" transform="translate(-310.181 -58.092)" fill="#66bcb5"/>
      <g id="Gruppe_7502" data-name="Gruppe 7502" transform="translate(5.052 125.108)" opacity="0.4">
        <path id="Pfad_9623" data-name="Pfad 9623" d="M315.421,195.017c-1.124,2.249,3.07,4.093,5.487,4.824a22.061,22.061,0,0,0,7.545.517c3.373-.18,6.825-.495,9.737-2.159a15.539,15.539,0,0,0,5.869-6.578,46.274,46.274,0,0,0,2.98-8.422S320.469,184.932,315.421,195.017Z" transform="translate(-315.233 -183.2)"/>
      </g>
      <path id="Pfad_9624" data-name="Pfad 9624" d="M382.332,188.174a25.5,25.5,0,0,0,15,4.7,10.6,10.6,0,0,0,7.14-2.249c.866-.8,1.518-1.81,2.406-2.575.607-.517,1.316-.911,1.889-1.462a2.417,2.417,0,0,0,.821-2.136,4.419,4.419,0,0,0-1.552-2.474c-3.047-1.732-6.69-1.664-10.2-1.585a35.092,35.092,0,0,0-10.288,2.013c-2.721.922-5.566,2.249-6.949,4.722" transform="translate(-302.05 -58.445)" fill="#66bcb5"/>
      <g id="Gruppe_7503" data-name="Gruppe 7503" transform="translate(78.55 121.933)" opacity="0.4">
        <path id="Pfad_9625" data-name="Pfad 9625" d="M409.587,184.451a4.666,4.666,0,0,0-1.99-2.249c-3.047-1.732-6.252-1.889-9.76-1.81a35.091,35.091,0,0,0-10.288,2.013c-2.721.922-5.566,2.249-6.949,4.722l1.732,1.046a25.5,25.5,0,0,0,15,4.7,10.6,10.6,0,0,0,7.14-2.249c.866-.8,1.518-1.81,2.406-2.575.607-.517,1.316-.911,1.889-1.462A2.417,2.417,0,0,0,409.587,184.451Z" transform="translate(-380.6 -180.376)"/>
      </g>
      <path id="Pfad_9626" data-name="Pfad 9626" d="M339.142,234.047l56.051.742a.731.731,0,0,0,.7-.944l-6.578-20.509s.967-10.254,2.3-22.578c2.035-18.721,4.745-42.255,4.779-42.187C392.562,137.822,369.939,136,369.939,136l-25.782,1.529-.9-1.518-7.421,3.452a33.875,33.875,0,0,0-4.655,2.631c-4.9,3.272-16.708,10.794-18.867,19.171-4.981,19.4,3.452,41.04,3.452,41.04l5.42-4.239a38.049,38.049,0,0,1,4.3-2.867l10.862,29.111a5.138,5.138,0,0,0-2.361,3.733c-.09,2.361,1.124,5.195,5.161,6" transform="translate(-310.74 -63.963)" fill="#66bcb5"/>
      <g id="Gruppe_7504" data-name="Gruppe 7504" transform="translate(45.127 106.713)" opacity="0.3">
        <path id="Pfad_9627" data-name="Pfad 9627" d="M358.2,195.894c1.777-9.557.843-19.385-.112-29.054-3.1,7.871-2.991,16.866-6.285,24.669a10.569,10.569,0,0,0-.877,2.6,2.912,2.912,0,0,0,.742,2.541c.9.821,2.249.371,3.441.236a13.424,13.424,0,0,0,3.092-.989" transform="translate(-350.874 -166.84)"/>
      </g>
      <g id="Gruppe_7505" data-name="Gruppe 7505" transform="translate(31.067 150.765)" opacity="0.4">
        <path id="Pfad_9628" data-name="Pfad 9628" d="M339.078,213.149c4.5,1.563,9.287-1.349,14.044-1.866,3.148-.337,6.3.382,9.422.888a70.679,70.679,0,0,0,19.115.472,7.332,7.332,0,0,0,2.811-.731,3.373,3.373,0,0,0,1.473-2.788c-10.592-1.124-21.172-1.732-31.764-2.822a19.835,19.835,0,0,0-7.938.259c-3.193.989-5.622,3.5-7.871,5.982" transform="translate(-338.37 -206.019)"/>
      </g>
      <path id="Pfad_9629" data-name="Pfad 9629" d="M408.613,185.015C404.037,174.7,387.9,146.19,387.9,146.19L375.41,161.853l2.912,30.752s6.6-7.365,25.051-7.511a9,9,0,0,1,6.859,3.621Z" transform="translate(-302.696 -62.696)" fill="#66bcb5"/>
      <path id="Pfad_9630" data-name="Pfad 9630" d="M338.633,177.376a42.4,42.4,0,0,1-2.114-6.746,42.6,42.6,0,0,1-1.529-6.87,44.611,44.611,0,0,1,2.1,6.746,43.434,43.434,0,0,1,1.54,6.87Z" transform="translate(-307.724 -60.51)" fill="#263238"/>
      <path id="Pfad_9631" data-name="Pfad 9631" d="M374.57,158.27a7.408,7.408,0,0,1,1.124.978,32.6,32.6,0,0,1,2.788,3.058,29.7,29.7,0,0,1,5.971,12.211,23.038,23.038,0,0,1,.349,7.533c-.281,2.3-.72,4.329-1.012,6.038s-.472,3.1-.562,4.07a7.53,7.53,0,0,1-.157,1.5,6.748,6.748,0,0,1-.067-1.518,36.449,36.449,0,0,1,.382-4.115c.236-1.72.63-3.767.888-6.027a23.264,23.264,0,0,0-.394-7.353,31,31,0,0,0-5.723-12.076C376.1,159.8,374.48,158.36,374.57,158.27Z" transform="translate(-302.801 -61.193)" fill="#263238"/>
      <path id="Pfad_9632" data-name="Pfad 9632" d="M367.639,222.007a4.789,4.789,0,0,1-1.226.36,10.941,10.941,0,0,1-1.462.281c-.573.079-1.226.2-1.956.236a28.19,28.19,0,0,1-5.15,0,33.249,33.249,0,0,1-6.184-1.237,33.732,33.732,0,0,1-5.8-2.485,29.67,29.67,0,0,1-4.261-2.89c-.585-.45-1.057-.922-1.484-1.316a12.957,12.957,0,0,1-1.046-1.057,4.4,4.4,0,0,1-.8-.989c.079-.079,1.282,1.271,3.587,3.036a32.348,32.348,0,0,0,4.262,2.744,35.744,35.744,0,0,0,5.712,2.395,35.237,35.237,0,0,0,6.072,1.259,33.3,33.3,0,0,0,5.06.157C365.851,222.344,367.617,221.917,367.639,222.007Z" transform="translate(-307.316 -54.397)" fill="#263238"/>
      <path id="Pfad_9633" data-name="Pfad 9633" d="M380.178,215.32a3.913,3.913,0,0,1,.439,1.642,10.12,10.12,0,0,1-.3,4.093,7.106,7.106,0,0,1-2.249,3.486c-.821.686-1.451.9-1.484.843s.495-.427,1.2-1.124a7.961,7.961,0,0,0,1.923-3.373C380.605,217.917,379.965,215.331,380.178,215.32Z" transform="translate(-302.55 -54.096)" fill="#263238"/>
      <path id="Pfad_9634" data-name="Pfad 9634" d="M377.337,218.84a6.094,6.094,0,0,1-2.406,6.207c-.124-.124.922-1.237,1.574-2.957S377.169,218.851,377.337,218.84Z" transform="translate(-302.757 -53.659)" fill="#263238"/>
      <path id="Pfad_9635" data-name="Pfad 9635" d="M368.589,185.94a23.876,23.876,0,0,1-2,2.878,23.045,23.045,0,0,1-1.968,2.9,7.208,7.208,0,0,1,1.484-3.238,7.1,7.1,0,0,1,2.485-2.541Z" transform="translate(-304.038 -57.751)" fill="#263238"/>
      <path id="Pfad_9636" data-name="Pfad 9636" d="M336,162.505a28.221,28.221,0,0,1-2.485-1.642,31.921,31.921,0,0,0-13.279-4.959,25.052,25.052,0,0,1-2.957-.394,10.974,10.974,0,0,1,3,0,26.85,26.85,0,0,1,13.493,5.026A10.726,10.726,0,0,1,336,162.505Z" transform="translate(-309.927 -61.549)" fill="#263238"/>
      <path id="Pfad_9637" data-name="Pfad 9637" d="M387.613,145.86a48.6,48.6,0,0,0-5.622,5.318,48.341,48.341,0,0,0-4.261,6.5,6.858,6.858,0,0,1,.776-2.181,22.679,22.679,0,0,1,3.036-4.7,22.084,22.084,0,0,1,4.115-3.789,6.611,6.611,0,0,1,1.956-1.147Z" transform="translate(-302.407 -62.737)" fill="#263238"/>
      <path id="Pfad_9638" data-name="Pfad 9638" d="M369.541,137.62a2.466,2.466,0,0,1,.247.517,10.034,10.034,0,0,1,.528,1.574,13.235,13.235,0,0,1,0,6.094,15,15,0,0,1-4.588,7.747,15.573,15.573,0,0,1-10.344,3.688,17.552,17.552,0,0,1-10.513-3.452,19.913,19.913,0,0,1-5.746-6.96,21.085,21.085,0,0,1-1.911-5.791,12.666,12.666,0,0,1-.2-1.642,1.81,1.81,0,0,1,0-.585s.124.787.439,2.181a22.926,22.926,0,0,0,2.058,5.622,19.924,19.924,0,0,0,5.7,6.746,17.18,17.18,0,0,0,10.12,3.373,15.2,15.2,0,0,0,10-3.508,14.842,14.842,0,0,0,4.5-7.443,13.718,13.718,0,0,0,.2-5.937C369.811,138.362,369.474,137.642,369.541,137.62Z" transform="translate(-307.475 -63.762)" fill="#263238"/>
      <g id="Gruppe_7506" data-name="Gruppe 7506" transform="translate(60.582 128.552)" opacity="0.3">
        <path id="Pfad_9639" data-name="Pfad 9639" d="M370.04,187.89a1.65,1.65,0,0,0-.585-1.507,1.124,1.124,0,0,0-1.012,0,2.777,2.777,0,0,0-.821.675,13.8,13.8,0,0,0-3,4.8l5.509-.483C370.1,190.24,370.073,189.048,370.04,187.89Z" transform="translate(-364.62 -186.263)"/>
      </g>
      <g id="Gruppe_7507" data-name="Gruppe 7507" transform="translate(80.293 110.041)" opacity="0.3">
        <path id="Pfad_9640" data-name="Pfad 9640" d="M386.153,178.345a18.069,18.069,0,0,0-4-8.545c2.384,7.781,1.585,12.177.247,17.507l.292-.742C384.23,183.45,386.569,181.494,386.153,178.345Z" transform="translate(-382.15 -169.8)"/>
      </g>
      <path id="Pfad_9641" data-name="Pfad 9641" d="M379.1,410.11l-3.362,50.429-21.926-.259-3.452-52.43Z" transform="translate(-305.812 -30.148)" fill="#ffbe9d"/>
      <path id="Pfad_9642" data-name="Pfad 9642" d="M376.152,448.868v1.462s24.737,9.94,24.973,14.617L352,464.677l.765-16.337C360.084,451.769,367.741,452.2,376.152,448.868Z" transform="translate(-305.608 -25.111)" fill="#66bcb5"/>
      <path id="Pfad_9643" data-name="Pfad 9643" d="M357.267,453.008a2,2,0,0,0-1.394,2.249,1.911,1.911,0,0,0,2.249,1.405,2.1,2.1,0,0,0,1.462-2.417,1.99,1.99,0,0,0-2.5-1.2" transform="translate(-305.129 -24.539)" fill="#fff"/>
      <path id="Pfad_9644" data-name="Pfad 9644" d="M352,463.3l.18-3.924,47.044,1.709s2.181.967,1.923,2.5Z" transform="translate(-305.608 -23.738)" fill="#263238"/>
      <path id="Pfad_9645" data-name="Pfad 9645" d="M374.136,450.255c0,.236-1.214.337-2.395,1.124s-1.822,1.765-2.035,1.675.146-1.484,1.6-2.384S374.193,450,374.136,450.255Z" transform="translate(-303.412 -24.901)" fill="#263238"/>
      <path id="Pfad_9646" data-name="Pfad 9646" d="M378.574,452.158c.056.236-.989.63-1.81,1.642s-1.057,2.08-1.3,2.069-.382-1.372.663-2.6S378.563,451.989,378.574,452.158Z" transform="translate(-302.711 -24.645)" fill="#263238"/>
      <path id="Pfad_9647" data-name="Pfad 9647" d="M380.812,458.107c-.225,0-.551-1.124.079-2.462s1.743-1.821,1.844-1.63-.6.9-1.124,1.99S381.059,458.085,380.812,458.107Z" transform="translate(-302.06 -24.41)" fill="#263238"/>
      <path id="Pfad_9648" data-name="Pfad 9648" d="M377.821,83.084c1.271-3.148-.27-6.96-3-9a13.088,13.088,0,0,0-9.771-1.9,38.915,38.915,0,0,0-9.6,3.373,10.828,10.828,0,0,0-18.4,6,6.9,6.9,0,0,0-8.174,9.051l15.2,5.341,16.6,29.234a13.279,13.279,0,0,0,19.542-17.653,11.526,11.526,0,0,0,2.339-2.878,11.626,11.626,0,0,0,5.363-7.2C389.391,90.954,384.353,83.848,377.821,83.084Z" transform="translate(-308.536 -71.933)" fill="#263238"/>
      <path id="Pfad_9649" data-name="Pfad 9649" d="M367.562,142.769c-.944-4.756-1.6-8.017-1.585-7.983s9-3.486,8.343-16c-.315-6.229-2.687-16.045-4.891-24.006-1.979-7.174-8.669-15.078-15.741-12.8L332.245,92.441c-2.148.7-2.519,2.721-2.013,4.914v1.124l8.332,34.474,3.519,15.4a13.009,13.009,0,0,0,14.527,9.872h0a13.02,13.02,0,0,0,10.952-15.46Z" transform="translate(-308.34 -70.732)" fill="#ffbe9d"/>
      <path id="Pfad_9650" data-name="Pfad 9650" d="M365.339,100.85a1.6,1.6,0,0,1-1.124,1.889,1.529,1.529,0,0,1-1.9-1.124,1.585,1.585,0,0,1,1.124-1.878,1.518,1.518,0,0,1,1.9,1.113Z" transform="translate(-304.33 -68.481)" fill="#263238"/>
      <path id="Pfad_9651" data-name="Pfad 9651" d="M364.818,98.708c-.157.247-1.518-.371-3.182,0s-2.721,1.45-2.946,1.282,0-.483.461-.978a4.385,4.385,0,0,1,2.3-1.282,4.127,4.127,0,0,1,2.586.281C364.671,98.27,364.885,98.607,364.818,98.708Z" transform="translate(-304.787 -68.735)" fill="#263238"/>
      <path id="Pfad_9652" data-name="Pfad 9652" d="M350.819,104.125A1.585,1.585,0,0,1,349.695,106a1.529,1.529,0,0,1-1.9-1.057,1.6,1.6,0,0,1,1.124-1.889,1.529,1.529,0,0,1,1.9,1.068Z" transform="translate(-306.136 -68.068)" fill="#263238"/>
      <path id="Pfad_9653" data-name="Pfad 9653" d="M350.438,102.238c-.146.247-1.518-.382-3.182,0s-2.721,1.439-2.946,1.282,0-.483.461-.989a4.419,4.419,0,0,1,2.3-1.271,4.216,4.216,0,0,1,2.586.27C350.258,101.8,350.516,102.1,350.438,102.238Z" transform="translate(-306.575 -68.296)" fill="#263238"/>
      <path id="Pfad_9654" data-name="Pfad 9654" d="M357.689,113.039a11.84,11.84,0,0,1,2.609-1.057c.416-.135.81-.3.821-.607a2.249,2.249,0,0,0-.551-1.2l-1.945-2.991c-2.721-4.261-4.79-7.792-4.621-7.871s2.519,3.261,5.24,7.522l1.9,3.013a2.575,2.575,0,0,1,.573,1.63,1.124,1.124,0,0,1-.573.765,2.834,2.834,0,0,1-.7.259A10.321,10.321,0,0,1,357.689,113.039Z" transform="translate(-305.36 -68.527)" fill="#263238"/>
      <path id="Pfad_9655" data-name="Pfad 9655" d="M363.9,129a31.483,31.483,0,0,1-17.136-.922s5.892,7.691,17.777,4.014Z" transform="translate(-306.26 -64.948)" fill="#eb996e"/>
      <path id="Pfad_9656" data-name="Pfad 9656" d="M350.846,100.1c-.112.483-1.833.472-3.789.956s-3.508,1.214-3.823.832c-.135-.18.09-.652.686-1.124a6.454,6.454,0,0,1,2.743-1.361,6.6,6.6,0,0,1,3.047,0C350.509,99.546,350.925,99.872,350.846,100.1Z" transform="translate(-306.703 -68.538)" fill="#263238"/>
      <path id="Pfad_9657" data-name="Pfad 9657" d="M364.314,94c-.27.45-1.709.337-3.373.663s-2.98.888-3.373.562c-.18-.169,0-.6.483-1.124a5.375,5.375,0,0,1,2.6-1.192,5.3,5.3,0,0,1,2.822.2C364.157,93.429,364.426,93.777,364.314,94Z" transform="translate(-304.924 -69.336)" fill="#263238"/>
      <path id="Pfad_9658" data-name="Pfad 9658" d="M336.781,84.705a8.467,8.467,0,0,0,11.48,6.15c1.776-.72,3.621-2.069,5.42-1.417s2.541,3.216,4.261,4.171c2.53,1.417,5.622-1.034,8.444-.787,2.249.191,3.947,1.911,5.689,3.373s4.149,2.564,6.117,1.507a24.846,24.846,0,0,0-1.99-5.42,8.388,8.388,0,0,0-4.115-3.89c-.989-.394-2.058-.528-3-1.012-2.035-1.034-2.946-3.373-4.419-5.138a9.276,9.276,0,0,0-7.871-3.148c-2.429.247-4.734,1.473-7.185,1.372-1.81-.079-3.542-.888-5.352-.855-3.519,0-6.162,3.148-8.118,6.083" transform="translate(-307.581 -71.047)" fill="#263238"/>
      <path id="Pfad_9659" data-name="Pfad 9659" d="M350.486,86.9c-1.619-.124-4.925-.461-6.016-1.608a9.49,9.49,0,0,0-9-2.968,7.871,7.871,0,0,0-5.622,7.488,11.244,11.244,0,0,0-8.208,8.062,13.065,13.065,0,0,0,2.811,11.817,23.409,23.409,0,0,1,1.844,2.665,19.048,19.048,0,0,0-2,3.036c-2.575,5.689,4.408,7.871,4.408,7.871,0,3.823,3.542,3.8,5.8,3.789s3.508,6.027,5.273,5.791l-1.788-18.631a2.317,2.317,0,0,0,.821.157c4.261.079,3.148-7.994,1.776-10.119a24.963,24.963,0,0,0,3.193-5.15,17.439,17.439,0,0,0,.157-8.613C345.37,90.3,351.183,86.943,350.486,86.9Z" transform="translate(-309.434 -70.665)" fill="#263238"/>
      <path id="Pfad_9660" data-name="Pfad 9660" d="M337.428,111.844a3.609,3.609,0,0,0-5.791-1.934c-1.124.967-1.72,2.586-1.046,5.3,1.822,7.241,8.714,3.924,8.669,3.722S338.215,114.835,337.428,111.844Z" transform="translate(-308.306 -67.31)" fill="#ffbe9d"/>
      <path id="Pfad_9661" data-name="Pfad 9661" d="M336.136,116.489a1.894,1.894,0,0,1-.292.27,1.293,1.293,0,0,1-.933.259,3.192,3.192,0,0,1-2.148-2.44,4.361,4.361,0,0,1-.1-1.889,1.518,1.518,0,0,1,.708-1.214.663.663,0,0,1,.832.169c.146.169.135.326.18.337s.124-.169,0-.45a.866.866,0,0,0-.394-.382.99.99,0,0,0-.742,0,1.855,1.855,0,0,0-1.046,1.45,4.5,4.5,0,0,0,.079,2.136,3.373,3.373,0,0,0,2.62,2.665,1.417,1.417,0,0,0,1.124-.483C336.169,116.669,336.169,116.5,336.136,116.489Z" transform="translate(-308.082 -67.063)" fill="#eb996e"/>
      <path id="Pfad_9662" data-name="Pfad 9662" d="M375.025,104.958a10.765,10.765,0,0,0,3.834-7.252,10.365,10.365,0,0,0-.4-4.16,8.928,8.928,0,0,0-2.575-4,10.592,10.592,0,0,0-10.322-2.069c-.337.112-.652.281-.967.416a8.621,8.621,0,0,0-.888.506l-.45.247v-.495a3.62,3.62,0,0,0-.911-2.361,5.791,5.791,0,0,0-2.125-1.439,7.68,7.68,0,0,0-4.824-.36c-3.1.708-5.734,2.125-8.219,2.417a7.938,7.938,0,0,1-5.622-1.124,4.374,4.374,0,0,1-1.124-1.124c-.18-.3-.27-.472-.247-.483a6.139,6.139,0,0,0,1.473,1.428,7.871,7.871,0,0,0,5.431.911,19.114,19.114,0,0,0,3.778-1.124,35.239,35.239,0,0,1,4.385-1.428,9.421,9.421,0,0,1,2.541-.259,7.725,7.725,0,0,1,2.62.607,6.341,6.341,0,0,1,2.249,1.619,4.284,4.284,0,0,1,1.057,2.744l-.45-.247.933-.54c.349-.135.675-.315,1.034-.439a11.053,11.053,0,0,1,10.9,2.17,9.31,9.31,0,0,1,2.676,4.25,10.94,10.94,0,0,1-2.148,10.12,7.14,7.14,0,0,1-1.248,1.124,2.137,2.137,0,0,1-.382.349Z" transform="translate(-307.078 -70.532)" fill="#455a64"/>
      <path id="Pfad_9663" data-name="Pfad 9663" d="M373.456,80.41a8.8,8.8,0,0,0-2.339-.8,6.116,6.116,0,0,0-2.766.259,5.4,5.4,0,0,0-2.845,2.069l-.281.394-.169-.45a8.444,8.444,0,0,0-6.859-5.093,10.906,10.906,0,0,0-6.589,1.911,29.11,29.11,0,0,1-5.228,2.7,8.287,8.287,0,0,1-3.958.472,6.038,6.038,0,0,1-1.046-.292c-.225-.1-.349-.157-.337-.18s.506.146,1.417.236a8.636,8.636,0,0,0,3.789-.618,32.414,32.414,0,0,0,5.093-2.788,17.438,17.438,0,0,1,3.148-1.54,8.636,8.636,0,0,1,3.778-.483,8.871,8.871,0,0,1,7.264,5.5h-.439a5.869,5.869,0,0,1,3.137-2.181,6.4,6.4,0,0,1,2.946-.146,5.262,5.262,0,0,1,1.754.675,2.248,2.248,0,0,1,.528.36Z" transform="translate(-306.971 -71.406)" fill="#455a64"/>
      <path id="Pfad_9664" data-name="Pfad 9664" d="M357.152,114.543a2.429,2.429,0,0,0-1.911-.54,2.89,2.89,0,0,0-1.9,1.383h0a.359.359,0,0,0-.067.09h0a1.44,1.44,0,0,0-.2.855,2.013,2.013,0,0,0,1.124,1.518,2.586,2.586,0,0,0,2.946-.427,2.1,2.1,0,0,0,.011-2.878Z" transform="translate(-305.475 -66.703)" fill="#66bcb5"/>
      <path id="Pfad_9665" data-name="Pfad 9665" d="M357.761,117.925c-.09,0-.191-.337-.495-.8a3.508,3.508,0,0,0-3.654-1.664c-.551.079-.888.236-.922.157s.225-.349.832-.562a3.373,3.373,0,0,1,2.417.135,3.283,3.283,0,0,1,1.7,1.743C357.874,117.52,357.84,117.914,357.761,117.925Z" transform="translate(-305.522 -66.588)" fill="#263238"/>
      <path id="Pfad_9666" data-name="Pfad 9666" d="M337.272,119.013a1.545,1.545,0,0,1-.1,1.417,2.258,2.258,0,0,1-4.25-.8,2.361,2.361,0,0,1,.461-1.552c.585-.742,1.237-.765,1.237-.7a3.468,3.468,0,0,0-.888.933,1.979,1.979,0,0,0-.27,1.259,1.8,1.8,0,0,0,.843,1.248,1.855,1.855,0,0,0,1.5.225,2.1,2.1,0,0,0,1.023-.787A5.211,5.211,0,0,0,337.272,119.013Z" transform="translate(-307.982 -66.282)" fill="#66bcb5"/>
      <path id="Pfad_9667" data-name="Pfad 9667" d="M333.7,118.672c.056,0,0,.382-.528.63a1.473,1.473,0,0,1-1.968-1.81,1.428,1.428,0,0,1,.6-.731c.461-.281.81-.169.8-.1s-.27.146-.551.427a1.124,1.124,0,0,0,.989,1.822C333.423,118.829,333.625,118.627,333.7,118.672Z" transform="translate(-308.203 -66.379)" fill="#66bcb5"/>
      <path id="Pfad_9668" data-name="Pfad 9668" d="M344.419,210.541s27.84,1.619,44.3,1.765c12.739.124,18.429-3.261,20.97-11.458,2.136-6.87-2.451-20.059-2.451-20.059-8.624,0-13.942,1.237-19.486,3.834l1.473,6.027-44.886,3.868Z" transform="translate(-306.561 -58.392)" fill="#ffbe9d"/>
      <path id="Pfad_9669" data-name="Pfad 9669" d="M393.644,196.01a22.4,22.4,0,0,0-4.194-4.171,22.037,22.037,0,0,0-5.42-2.384,3.924,3.924,0,0,1,1.788.157,11.9,11.9,0,0,1,3.958,1.743,11.75,11.75,0,0,1,3.07,3.058C393.475,195.335,393.711,195.976,393.644,196.01Z" transform="translate(-301.624 -57.319)" fill="#eb996e"/>
      <path id="Pfad_9670" data-name="Pfad 9670" d="M337,188.424h0s-8.613,2.069-14.943,6.3L328.806,213c2.249,6,9.119,9,14.617,5.847,8.467-4.846,11.458-18.968,11.458-18.968l9.3-40.343-15.415-9.659-11.7,38.544" transform="translate(-309.332 -62.237)" fill="#ffbe9d"/>
      <path id="Pfad_9671" data-name="Pfad 9671" d="M346.088,153.113l.63-13.268-3.452-13.493c-.191-.742-.281-1.675.326-2.125a1.642,1.642,0,0,1,2.08.067c.933.967,5.431,12.762,5.431,12.762s6.825-4.093,8.039-4.3,2.732,3.474,2.833,3.755a22.851,22.851,0,0,1,0,2.474s4.216.124,4.6.7a14.875,14.875,0,0,1,.483,3.587s1.788.573,2.069,1.923.866,3.576,0,4.07-2.62,1.462-2.62,1.462-.708,6.881-.9,7.511-4.138,4.5-4.138,4.5Z" transform="translate(-306.712 -65.47)" fill="#ffbe9d"/>
      <path id="Pfad_9672" data-name="Pfad 9672" d="M333,222.363a6.9,6.9,0,0,0,1.293.528,8.927,8.927,0,0,0,3.969.315,11.075,11.075,0,0,0,5.757-2.654,26.48,26.48,0,0,0,5.352-6.746,29.291,29.291,0,0,0,2.08-4.644,49.275,49.275,0,0,0,1.451-5.386c.877-3.789,1.833-7.871,2.845-12.211,2.024-8.669,4.3-18.361,6.746-28.807v-.079h.056c.776-.765,1.552-1.54,2.327-2.35.382-.4.765-.81,1.124-1.226.18-.214.371-.427.517-.641a1.62,1.62,0,0,0,.191-.686c.3-2.249.54-4.576.787-6.926v-.146l.135-.067,2.148-1.2c.157-.1.4-.214.506-.3a.641.641,0,0,0,.2-.371,4.049,4.049,0,0,0,0-1.124,17.063,17.063,0,0,0-.506-2.44,3.036,3.036,0,0,0-1.788-1.45l-.191-.067v-.191a17.1,17.1,0,0,0-.146-1.99,9.115,9.115,0,0,0-.146-.989,1.641,1.641,0,0,0-.135-.416c0-.079,0,0-.067-.067a1.125,1.125,0,0,0-.191-.079,20.139,20.139,0,0,0-4.115-.461h-.292v-2.541a2.361,2.361,0,0,0-.27-.753c-.112-.27-.247-.528-.382-.8a9.955,9.955,0,0,0-.922-1.484,2.462,2.462,0,0,0-.573-.562.54.54,0,0,0-.6-.067,13.2,13.2,0,0,0-1.585.731c-2.091,1.124-4.138,2.249-6.139,3.463l-.292.18-.124-.315c-1.057-2.665-2.114-5.3-3.148-7.871-.517-1.293-1.023-2.586-1.54-3.857a1.574,1.574,0,0,0-1.237-1.124,1.248,1.248,0,0,0-1.462.54,1.3,1.3,0,0,0-.169.8,5.856,5.856,0,0,0,.225.933c.18.652.349,1.293.517,1.934.337,1.293.663,2.564,1,3.823q.989,3.8,1.945,7.421v.079q-.337,6.926-.641,13.268v-.022l-10.243,33.327-2.89,9.276c-.337,1.046-.6,1.866-.776,2.44a8.1,8.1,0,0,1-.292.821s.056-.292.214-.843l.708-2.462c.652-2.17,1.585-5.307,2.766-9.31,2.429-8.051,5.881-19.542,10.052-33.394v.056q.292-6.319.6-13.268v.079c-.641-2.417-1.3-4.891-1.968-7.41l-1.012-3.823c-.169-.641-.337-1.293-.517-1.934a9.9,9.9,0,0,1-.236-1.023,1.866,1.866,0,0,1,.236-1.124,1.8,1.8,0,0,1,.911-.765,2.316,2.316,0,0,1,2.193.495,2.249,2.249,0,0,1,.607.967l1.54,3.857c1.046,2.586,2.091,5.217,3.16,7.871l-.416-.146c2.013-1.192,4.037-2.384,6.173-3.5a16.184,16.184,0,0,1,1.664-.753,1.125,1.125,0,0,1,.562-.079,1.349,1.349,0,0,1,.54.2,3.216,3.216,0,0,1,.708.7,9.629,9.629,0,0,1,.978,1.574c.146.281.281.551.4.832a2.889,2.889,0,0,1,.315.956c0,.8,0,1.54,0,2.249l-.281-.3a20.059,20.059,0,0,1,4.3.495,1.955,1.955,0,0,1,.281.124.731.731,0,0,1,.292.292,2.443,2.443,0,0,1,.191.573c.067.36.112.7.157,1.046.067.686.112,1.361.146,2.035l-.2-.27a3.53,3.53,0,0,1,2.148,1.777,17.37,17.37,0,0,1,.54,2.609,3.98,3.98,0,0,1,0,1.361,1.18,1.18,0,0,1-.4.7,5.725,5.725,0,0,1-.573.337l-2.136,1.113.146-.214c-.259,2.35-.495,4.655-.81,6.938l-.067.439a.989.989,0,0,1-.214.483,5.793,5.793,0,0,1-.551.7c-.382.427-.765.843-1.124,1.248-.776.81-1.552,1.585-2.339,2.35l.079-.135c-2.474,10.434-4.767,20.127-6.825,28.8-1.023,4.329-2,8.41-2.9,12.188a46.38,46.38,0,0,1-1.484,5.42,30.49,30.49,0,0,1-2.136,4.689,26.557,26.557,0,0,1-5.476,6.814,11.244,11.244,0,0,1-5.9,2.631,8.771,8.771,0,0,1-4.037-.4,6.752,6.752,0,0,1-.956-.439Z" transform="translate(-307.971 -65.48)" fill="#eb996e"/>
      <path id="Pfad_9673" data-name="Pfad 9673" d="M360.547,137.386c0,.079-.382.124-.978.146a11.3,11.3,0,0,0-2.249.27,4.374,4.374,0,0,0-1.912,1.023c-.4.382-.585.708-.675.675s0-.439.371-.956a3.733,3.733,0,0,1,2.069-1.3,6.218,6.218,0,0,1,2.406-.112C360.187,137.206,360.547,137.307,360.547,137.386Z" transform="translate(-305.272 -63.831)" fill="#eb996e"/>
      <path id="Pfad_9674" data-name="Pfad 9674" d="M357.013,137.61c-.146-.056-.157-.4,0-.776s.382-.63.528-.573.169.4,0,.776S357.125,137.666,357.013,137.61Z" transform="translate(-304.998 -63.932)" fill="#eb996e"/>
      <path id="Pfad_9675" data-name="Pfad 9675" d="M365.213,141.115a10.412,10.412,0,0,1-3.373.461,2.249,2.249,0,0,0-1.867.888c-.292.461-.191.843-.281.866s-.36-.371-.079-1.046a1.765,1.765,0,0,1,.8-.888,3.373,3.373,0,0,1,1.349-.4,9.254,9.254,0,0,1,3.452.124Z" transform="translate(-304.676 -63.355)" fill="#eb996e"/>
      <path id="Pfad_9676" data-name="Pfad 9676" d="M363.964,144.69c.157,0,.247.832.2,1.855s-.214,1.833-.371,1.833-.259-.843-.214-1.866S363.795,144.679,363.964,144.69Z" transform="translate(-304.168 -62.882)" fill="#eb996e"/>
      <path id="Pfad_9677" data-name="Pfad 9677" d="M368.07,172.336l1-3.441a.945.945,0,0,1,1.574-.4l1.316,1.338.81-3.249a.944.944,0,0,1,1.765-.18l1.833,3.845Z" transform="translate(-303.609 -60.248)" fill="#fff"/>
      <path id="Pfad_9678" data-name="Pfad 9678" d="M376.364,171.07a15.178,15.178,0,0,1-3.969,1.282,14.7,14.7,0,0,1-4.115.72A30,30,0,0,1,376.364,171.07Z" transform="translate(-303.583 -59.601)" fill="#fff"/>
      <path id="Pfad_9679" data-name="Pfad 9679" d="M316.338,154a9.243,9.243,0,0,0-1,1.338,11.311,11.311,0,0,0-1.518,4.239,30.065,30.065,0,0,0-.2,6.746c.124,2.552.326,5.341.641,8.264a144.812,144.812,0,0,0,2.372,14.864c.394,1.889.753,3.373,1,4.5.112.472.214.866.292,1.2s.09.427.09.427-.056-.135-.135-.4-.2-.742-.326-1.2c-.281-1.046-.663-2.552-1.124-4.441a133.445,133.445,0,0,1-2.44-14.876c-.315-2.923-.506-5.723-.618-8.276a30.145,30.145,0,0,1,.247-6.746,11.244,11.244,0,0,1,1.619-4.273,6.523,6.523,0,0,1,1.1-1.361Z" transform="translate(-310.424 -61.724)" fill="#fff"/>
      <path id="Pfad_9680" data-name="Pfad 9680" d="M339.668,140.38l-.259.135-.742.36c-.641.3-1.574.753-2.687,1.372a98.772,98.772,0,0,0-8.444,5.285c-3.216,2.249-6.06,4.3-8.141,5.779l-2.462,1.743-.686.461a1.373,1.373,0,0,1-.247.157.91.91,0,0,1,.225-.191l.652-.495,2.417-1.81c2.058-1.518,4.891-3.632,8.107-5.836a85.514,85.514,0,0,1,8.5-5.24c1.124-.6,2.069-1.023,2.732-1.3l.753-.315C339.612,140.4,339.612,140.369,339.668,140.38Z" transform="translate(-310.086 -63.419)" fill="#fff"/>
      <path id="Pfad_9681" data-name="Pfad 9681" d="M387.047,147.9a.821.821,0,0,1-.191-.146l-.506-.439a21,21,0,0,0-1.968-1.473,40.722,40.722,0,0,0-7.23-3.654,72.722,72.722,0,0,0-7.7-2.564c-1.012-.281-1.821-.483-2.395-.618l-.641-.169a.9.9,0,0,1-.225-.079h.236l.652.124c.573.112,1.394.292,2.406.551a62.467,62.467,0,0,1,7.758,2.507,36.969,36.969,0,0,1,7.23,3.733A14.482,14.482,0,0,1,387.047,147.9Z" transform="translate(-303.843 -63.62)" fill="#fff"/>
      <path id="Pfad_9682" data-name="Pfad 9682" d="M337.791,224.286a1.585,1.585,0,0,1-.438-.146,7.871,7.871,0,0,1-1.124-.607,5.374,5.374,0,0,1-2.451-3.306,6.465,6.465,0,0,1,.439-4.115,5.409,5.409,0,0,1,.652-1.124c.18-.236.3-.349.315-.337a12.737,12.737,0,0,0-.821,1.5,6.668,6.668,0,0,0-.349,3.992,5.453,5.453,0,0,0,2.249,3.227C337.2,224.039,337.814,224.241,337.791,224.286Z" transform="translate(-307.894 -54.18)" fill="#fff"/>
      <path id="Pfad_9683" data-name="Pfad 9683" d="M334.15,212.39a5.625,5.625,0,0,1,.528,1.417,5.2,5.2,0,0,1,.315,1.473,4.621,4.621,0,0,1-.54-1.406,4.5,4.5,0,0,1-.3-1.484Z" transform="translate(-307.828 -54.461)" fill="#fff"/>
      <path id="Pfad_9684" data-name="Pfad 9684" d="M350.762,463.145l34.294-.169-.618-118.567L384.111,223.8l-46.471-.6-8.354,15.741a56.536,56.536,0,0,0-6.42,20.4c-.562,5.465,3.531,23.23,4.947,27.727L340.6,327.611Z" transform="translate(-309.238 -53.116)" fill="#263238"/>
      <path id="Pfad_9685" data-name="Pfad 9685" d="M390.187,223.87l37.69,102.736a47.382,47.382,0,0,1-4.644,40.141L379.472,452.2l-24.6-30.786,36.61-76.459-32.27-52.34,5.431-68.588,15.2-.247Z" transform="translate(-305.251 -53.044)" fill="#263238"/>
      <path id="Pfad_9686" data-name="Pfad 9686" d="M374.55,254.47V255c0,.349.056.888.1,1.552.079,1.383.18,3.373.315,5.948.259,5.206.618,12.683,1.124,21.914s.933,20.239,1.5,32.495c.27,6.117.562,12.537.855,19.193.214,3.373.124,6.746.157,10.12s0,6.926,0,10.457c0,28.256.09,53.836.124,72.377v27.907c0-1.394,0-3.373-.067-5.971,0-5.206-.09-12.683-.157-21.926-.079-18.541-.18-44.121-.292-72.377V346.232c0-3.441.067-6.836-.146-10.12-.281-6.645-.562-13.065-.821-19.182-.517-12.233-.989-23.241-1.372-32.506s-.663-16.708-.877-21.914c-.09-2.564-.157-4.565-.2-5.959V255C374.786,254.571,374.55,254.47,374.55,254.47Z" transform="translate(-302.803 -49.227)" fill="#455a64"/>
      <path id="Pfad_9687" data-name="Pfad 9687" d="M373.78,225.66a4.07,4.07,0,0,1,.236,1.124c.124.72.259,1.765.416,3.07.292,2.6.607,6.207.787,10.2s.191,7.612.135,10.232c0,1.3-.079,2.372-.135,3.1a3.8,3.8,0,0,1-.135,1.124,32.1,32.1,0,0,1-.146-4.228c0-2.62-.124-6.218-.3-10.21s-.427-7.578-.618-10.12a37.894,37.894,0,0,1-.236-4.3Z" transform="translate(-302.899 -52.81)" fill="#455a64"/>
      <path id="Pfad_9688" data-name="Pfad 9688" d="M367.194,227.752c.056.079-.585.371-.765,1.282a1.473,1.473,0,0,0,.439,1.372,1.585,1.585,0,0,0,1.687.3,1.619,1.619,0,0,0,.877-1.473,1.473,1.473,0,0,0-.753-1.226,2.732,2.732,0,0,0-1.473-.259.833.833,0,0,1,.4-.236,1.911,1.911,0,0,1,1.259.124,1.833,1.833,0,0,1,1.124,1.563,2.013,2.013,0,0,1-3.463,1.6,1.844,1.844,0,0,1-.461-1.855,1.9,1.9,0,0,1,.72-1.046C367.014,227.741,367.182,227.718,367.194,227.752Z" transform="translate(-303.868 -52.586)" fill="#455a64"/>
      <path id="Pfad_9689" data-name="Pfad 9689" d="M353.047,225.91a3.372,3.372,0,0,1,.3,1.124,10.637,10.637,0,0,1,.1,3.058,12.491,12.491,0,0,1-1.293,4.351,11.525,11.525,0,0,1-8.793,6.308,12.189,12.189,0,0,1-4.5-.169,10.614,10.614,0,0,1-2.856-1.068,3.566,3.566,0,0,1-.922-.63,20.4,20.4,0,0,0,3.868,1.293,11.817,11.817,0,0,0,14.134-10.12,19.565,19.565,0,0,0-.045-4.149Z" transform="translate(-307.711 -52.779)" fill="#455a64"/>
      <path id="Pfad_9690" data-name="Pfad 9690" d="M391.309,235.77a4.722,4.722,0,0,1-2.17-.259,10.018,10.018,0,0,1-4.419-2.833A9.883,9.883,0,0,1,382.325,228a4.5,4.5,0,0,1,0-2.17c.1,0,.112.821.45,2.08a10.873,10.873,0,0,0,6.544,7.207C390.488,235.578,391.32,235.657,391.309,235.77Z" transform="translate(-301.852 -52.789)" fill="#455a64"/>
      <path id="Pfad_9691" data-name="Pfad 9691" d="M403.772,333.542a7.172,7.172,0,0,1-1.99,1.585,9.312,9.312,0,0,1-2.552,1.124,6.139,6.139,0,0,1-3.452-.09,10.052,10.052,0,0,1-4.812-3.823,9.242,9.242,0,0,1-1.316-2.159,13.065,13.065,0,0,1,1.642,1.9,10.66,10.66,0,0,0,4.655,3.519,7.2,7.2,0,0,0,5.622-.821A22.05,22.05,0,0,1,403.772,333.542Z" transform="translate(-300.924 -39.809)" fill="#455a64"/>
      <path id="Pfad_9692" data-name="Pfad 9692" d="M395.3,340.031a28.449,28.449,0,0,1-3.542-4.5,29.23,29.23,0,0,1-3.081-4.824,27.49,27.49,0,0,1,3.553,4.5,26.876,26.876,0,0,1,3.07,4.824Z" transform="translate(-301.045 -39.743)" fill="#455a64"/>
      <path id="Pfad_9693" data-name="Pfad 9693" d="M343.474,258.345c-.157.056-.551-.585-.9-1.451s-.495-1.6-.349-1.664.551.585.888,1.45S343.62,258.345,343.474,258.345Z" transform="translate(-306.831 -49.133)" fill="#fafafa"/>
      <path id="Pfad_9694" data-name="Pfad 9694" d="M362.722,261.055c-.169,0-.292-.551-.292-1.237s.124-1.248.292-1.248.292.562.292,1.248S362.88,261.055,362.722,261.055Z" transform="translate(-304.31 -48.717)" fill="#fafafa"/>
      <path id="Pfad_9695" data-name="Pfad 9695" d="M354.776,271.645c-.157,0-.337-.675-.394-1.54s0-1.563.18-1.574.349.675.4,1.54S354.933,271.633,354.776,271.645Z" transform="translate(-305.314 -47.478)" fill="#fafafa"/>
      <path id="Pfad_9696" data-name="Pfad 9696" d="M340.448,279.191c-.135.1-.6-.315-1.2-.742s-1.124-.753-1.124-.911.742-.067,1.428.427S340.582,279.191,340.448,279.191Z" transform="translate(-307.334 -46.366)" fill="#fafafa"/>
      <path id="Pfad_9697" data-name="Pfad 9697" d="M365.826,289.022c-.135-.09,0-.573.382-1.124s.731-.866.866-.776,0,.585-.382,1.124S365.961,289.112,365.826,289.022Z" transform="translate(-303.894 -45.167)" fill="#fafafa"/>
      <path id="Pfad_9698" data-name="Pfad 9698" d="M350.032,292.039c-.157,0-.292-.933-.292-2.069s.135-2.08.292-2.08.292.933.292,2.08A4.387,4.387,0,0,1,350.032,292.039Z" transform="translate(-305.889 -45.069)" fill="#fafafa"/>
      <path id="Pfad_9699" data-name="Pfad 9699" d="M345.075,302.988c-.09.124-.675-.135-1.3-.6s-1.124-.933-.978-1.068.686.135,1.316.6S345.177,302.853,345.075,302.988Z" transform="translate(-306.756 -43.403)" fill="#fafafa"/>
      <path id="Pfad_9700" data-name="Pfad 9700" d="M361.047,306.709c.067.146-.292.45-.81.686s-.989.292-1.057.146.3-.45.821-.686S360.991,306.563,361.047,306.709Z" transform="translate(-304.716 -42.739)" fill="#fafafa"/>
      <path id="Pfad_9701" data-name="Pfad 9701" d="M350.233,325.465c-.135.067-.72-.8-1.293-1.945s-.922-2.136-.776-2.249.731.8,1.293,1.945A5.607,5.607,0,0,1,350.233,325.465Z" transform="translate(-306.089 -40.918)" fill="#fafafa"/>
      <path id="Pfad_9702" data-name="Pfad 9702" d="M367.675,323.645c-.146-.079.112-.832.562-1.7s.956-1.5,1.124-1.417-.112.832-.573,1.7S367.809,323.724,367.675,323.645Z" transform="translate(-303.663 -41.01)" fill="#fafafa"/>
      <path id="Pfad_9703" data-name="Pfad 9703" d="M359.994,339.227c-.169,0-.146-.911-.326-1.968s-.45-1.9-.292-1.979.7.72.877,1.889S360.151,339.261,359.994,339.227Z" transform="translate(-304.696 -39.175)" fill="#fafafa"/>
      <path id="Pfad_9704" data-name="Pfad 9704" d="M351.852,347.895c-.112.112-.675-.315-1.248-.944s-.944-1.226-.821-1.338.675.315,1.248.944S351.975,347.782,351.852,347.895Z" transform="translate(-305.887 -37.892)" fill="#fafafa"/>
      <path id="Pfad_9705" data-name="Pfad 9705" d="M371.762,351.257c-.112-.112.3-.72.933-1.36s1.214-1.057,1.338-.945-.3.731-.922,1.361S371.886,351.369,371.762,351.257Z" transform="translate(-303.152 -37.476)" fill="#fafafa"/>
      <path id="Pfad_9706" data-name="Pfad 9706" d="M360.193,364.664c-.157,0-.157-.888,0-1.923s.4-1.844.573-1.822.157.877,0,1.911S360.35,364.687,360.193,364.664Z" transform="translate(-304.603 -35.985)" fill="#fafafa"/>
      <path id="Pfad_9707" data-name="Pfad 9707" d="M352.584,371c-.146.079-.641-.506-1.124-1.3s-.731-1.507-.6-1.585.63.495,1.124,1.293S352.719,370.911,352.584,371Z" transform="translate(-305.754 -35.092)" fill="#fafafa"/>
      <path id="Pfad_9708" data-name="Pfad 9708" d="M371.482,378.793c.1.135-.472.708-1.282,1.282s-1.518.933-1.619.8.483-.708,1.282-1.282S371.392,378.669,371.482,378.793Z" transform="translate(-303.547 -33.765)" fill="#fafafa"/>
      <path id="Pfad_9709" data-name="Pfad 9709" d="M355.527,389.779c-.157-.056,0-.956.146-2.08s.056-2.046.225-2.069.461.922.349,2.125S355.673,389.846,355.527,389.779Z" transform="translate(-305.177 -32.912)" fill="#fafafa"/>
      <path id="Pfad_9710" data-name="Pfad 9710" d="M361.957,404.672c-.135.1-.607-.281-1.068-.855s-.72-1.124-.6-1.226.6.281,1.057.855S362.081,404.571,361.957,404.672Z" transform="translate(-304.58 -30.804)" fill="#fafafa"/>
      <path id="Pfad_9711" data-name="Pfad 9711" d="M355.2,414.948c-.135.09-.753-.573-1.383-1.5s-1.023-1.732-.9-1.822.753.573,1.383,1.5S355.33,414.858,355.2,414.948Z" transform="translate(-305.497 -29.678)" fill="#fafafa"/>
      <path id="Pfad_9712" data-name="Pfad 9712" d="M373.762,402.034c-.146-.056-.135-.472,0-.922s.439-.787.6-.731.135.472,0,.933S373.919,402.1,373.762,402.034Z" transform="translate(-302.914 -31.077)" fill="#fafafa"/>
      <path id="Pfad_9713" data-name="Pfad 9713" d="M365.454,426.413c-.146-.079.135-.877.36-1.878s.3-1.844.472-1.855.337.9.1,1.979S365.589,426.5,365.454,426.413Z" transform="translate(-303.939 -28.303)" fill="#fafafa"/>
      <path id="Pfad_9714" data-name="Pfad 9714" d="M370.975,271.712c-.146.067-.506-.382-.8-1.012s-.416-1.192-.27-1.259.506.382.8,1.012S371.144,271.645,370.975,271.712Z" transform="translate(-303.388 -47.365)" fill="#fafafa"/>
      <path id="Pfad_9715" data-name="Pfad 9715" d="M357.347,240.323c.09.135-.7.765-1.54,1.664s-1.417,1.732-1.563,1.653.236-1.124,1.124-2.046S357.234,240.177,357.347,240.323Z" transform="translate(-305.332 -50.99)" fill="#fafafa"/>
      <path id="Pfad_9716" data-name="Pfad 9716" d="M369.493,240.324c-.169,0-.427-.641-.821-1.406s-.753-1.394-.63-1.507.731.382,1.124,1.237S369.639,240.234,369.493,240.324Z" transform="translate(-303.615 -51.35)" fill="#fafafa"/>
      <path id="Pfad_9717" data-name="Pfad 9717" d="M330.836,250.455c-.146-.067,0-.81.349-1.664s.731-1.518.888-1.45,0,.8-.349,1.664S331.027,250.511,330.836,250.455Z" transform="translate(-308.247 -50.114)" fill="#fafafa"/>
      <path id="Pfad_9718" data-name="Pfad 9718" d="M332.357,265.442c-.112.124-.753-.236-1.439-.81s-1.124-1.124-1.057-1.259.753.236,1.439.81S332.458,265.318,332.357,265.442Z" transform="translate(-308.363 -48.123)" fill="#fafafa"/>
      <path id="Pfad_9719" data-name="Pfad 9719" d="M357.441,228.558c-.146,0-.461-.36-.686-.933s-.292-1.124-.146-1.124.461.36.686.933S357.587,228.5,357.441,228.558Z" transform="translate(-305.044 -52.706)" fill="#fafafa"/>
      <path id="Pfad_9720" data-name="Pfad 9720" d="M381.543,236.031c-.157,0-.146-.708,0-1.507s.439-1.428.6-1.394.146.72,0,1.518S381.7,236.065,381.543,236.031Z" transform="translate(-301.947 -51.881)" fill="#fafafa"/>
      <path id="Pfad_9721" data-name="Pfad 9721" d="M387.215,247.531c-.146-.067.056-.9.461-1.878s.843-1.709.99-1.653,0,.9-.45,1.878S387.373,247.587,387.215,247.531Z" transform="translate(-301.233 -50.529)" fill="#fafafa"/>
      <path id="Pfad_9722" data-name="Pfad 9722" d="M383.371,256.773c-.146.067-.686-.708-1.2-1.732s-.81-1.934-.663-2,.675.708,1.192,1.732S383.517,256.695,383.371,256.773Z" transform="translate(-301.942 -49.405)" fill="#fafafa"/>
      <path id="Pfad_9723" data-name="Pfad 9723" d="M391.826,265.879c-.146-.056,0-.708.247-1.45s.641-1.3.8-1.248,0,.708-.247,1.45S392.029,265.935,391.826,265.879Z" transform="translate(-300.661 -48.144)" fill="#fafafa"/>
      <path id="Pfad_9724" data-name="Pfad 9724" d="M384.2,274.795c-.135.09-.483-.214-.765-.663s-.416-.9-.27-.989.472.214.765.675S384.336,274.716,384.2,274.795Z" transform="translate(-301.738 -46.906)" fill="#fafafa"/>
      <path id="Pfad_9725" data-name="Pfad 9725" d="M386.029,293.574c-.112.1-.821-.45-1.563-1.259s-1.248-1.54-1.124-1.653.821.45,1.563,1.259S386.153,293.461,386.029,293.574Z" transform="translate(-301.711 -44.726)" fill="#fafafa"/>
      <path id="Pfad_9726" data-name="Pfad 9726" d="M396.135,282.862c-.124.1-.742-.461-1.372-1.271s-1.034-1.529-.911-1.63.742.472,1.372,1.271S396.27,282.772,396.135,282.862Z" transform="translate(-300.404 -46.057)" fill="#fafafa"/>
      <path id="Pfad_9727" data-name="Pfad 9727" d="M401.454,297.7c-.146-.067.112-.911.573-1.878s.944-1.709,1.124-1.642-.1.922-.562,1.889S401.6,297.779,401.454,297.7Z" transform="translate(-299.461 -44.288)" fill="#fafafa"/>
      <path id="Pfad_9728" data-name="Pfad 9728" d="M389.909,309.751c-.146.079-.663-.54-1.383-1.2s-1.383-1.124-1.316-1.293.922.135,1.709.866S390.044,309.672,389.909,309.751Z" transform="translate(-301.228 -42.666)" fill="#fafafa"/>
      <path id="Pfad_9729" data-name="Pfad 9729" d="M390.625,322.032c0,.157-.562.292-1.248.292s-1.237-.135-1.237-.292.551-.292,1.237-.292S390.625,321.875,390.625,322.032Z" transform="translate(-301.112 -40.859)" fill="#fafafa"/>
      <path id="Pfad_9730" data-name="Pfad 9730" d="M402.524,318.867c-.146-.079.146-.787.36-1.664s.3-1.642.472-1.653.349.81.1,1.788S402.648,318.957,402.524,318.867Z" transform="translate(-299.328 -41.629)" fill="#fafafa"/>
      <path id="Pfad_9731" data-name="Pfad 9731" d="M414.76,323.121c-.146.056-.562-.742-.922-1.765s-.528-1.9-.382-1.945.573.731.933,1.754S414.918,323.064,414.76,323.121Z" transform="translate(-297.97 -41.149)" fill="#fafafa"/>
      <path id="Pfad_9732" data-name="Pfad 9732" d="M412.683,340.347c-.135-.079.214-1.023.776-2.114s1.124-1.911,1.293-1.833-.2,1.023-.776,2.1S412.829,340.448,412.683,340.347Z" transform="translate(-298.063 -39.036)" fill="#fafafa"/>
      <path id="Pfad_9733" data-name="Pfad 9733" d="M401.824,350.411c-.146.056-.607-.72-1.034-1.743s-.641-1.9-.483-1.968.607.72,1.023,1.743S401.97,350.411,401.824,350.411Z" transform="translate(-299.605 -37.755)" fill="#fafafa"/>
      <path id="Pfad_9734" data-name="Pfad 9734" d="M389.66,353.942c0,.157-.472.292-1.046.292s-1.034-.135-1.034-.292.472-.292,1.034-.292S389.66,353.785,389.66,353.942Z" transform="translate(-301.182 -36.89)" fill="#fafafa"/>
      <path id="Pfad_9735" data-name="Pfad 9735" d="M396.531,370.343c-.146,0-.461-.618-.7-1.473s-.281-1.6-.124-1.63.461.618.7,1.473S396.688,370.254,396.531,370.343Z" transform="translate(-300.182 -35.199)" fill="#fafafa"/>
      <path id="Pfad_9736" data-name="Pfad 9736" d="M387.586,364.83c-.135-.079,0-.607.371-1.181s.742-.967.877-.888,0,.618-.371,1.192S387.732,364.92,387.586,364.83Z" transform="translate(-301.188 -35.757)" fill="#fafafa"/>
      <path id="Pfad_9737" data-name="Pfad 9737" d="M387.462,382.7c-.157,0-.382-.753-.495-1.732s-.079-1.777.079-1.8.382.753.495,1.732S387.62,382.678,387.462,382.7Z" transform="translate(-301.266 -33.715)" fill="#fafafa"/>
    </g>
  </g>
</svg>
