<svg xmlns="http://www.w3.org/2000/svg" width="644.287" height="632.418" viewBox="0 0 644.287 632.418">
  <g id="Mobile_login-pana_1_" data-name="Mobile login-pana (1)" transform="translate(-39.68 -34.05)">
    <g id="freepik--background-complete--inject-70" transform="translate(39.68 34.05)">
      <path id="Pfad_9861" data-name="Pfad 9861" d="M550.167,364.391H303V221.36H550.167Zm-245.659-1.508H548.659V222.868H304.508Z" transform="translate(94.12 61.127)" fill="#e0e0e0"/>
      <rect id="Rechteck_1718" data-name="Rechteck 1718" width="163.074" height="4.781" transform="translate(430.223 358.753)" fill="#f0f0f0"/>
      <rect id="Rechteck_1719" data-name="Rechteck 1719" width="174.309" height="5.218" transform="translate(430.223 376.579)" fill="#f0f0f0"/>
      <rect id="Rechteck_1720" data-name="Rechteck 1720" width="174.309" height="5.218" transform="translate(430.223 394.616)" fill="#f0f0f0"/>
      <rect id="Rechteck_1721" data-name="Rechteck 1721" width="56.992" height="12.412" transform="translate(430.223 332.859)" fill="#f0f0f0"/>
      <rect id="Rechteck_1722" data-name="Rechteck 1722" width="245.613" height="22.773" transform="translate(397.919 283.241)" fill="#e0e0e0"/>
      <path id="Pfad_9862" data-name="Pfad 9862" d="M453.867,240.087c-.317-.3,2.85-4.117,7.058-8.521s7.9-7.737,8.2-7.45-2.851,4.117-7.058,8.536S454.169,240.388,453.867,240.087Z" transform="translate(170.768 62.519)" fill="#fff"/>
      <path id="Pfad_9863" data-name="Pfad 9863" d="M469.15,240.087c-.3.3-3.982-3.016-8.2-7.435s-7.375-8.234-7.058-8.536,3.981,3.016,8.2,7.45S469.436,239.786,469.15,240.087Z" transform="translate(170.779 62.518)" fill="#fff"/>
      <rect id="Rechteck_1723" data-name="Rechteck 1723" width="245.613" height="141.538" transform="translate(94.529)" fill="#e6e6e6"/>
      <rect id="Rechteck_1724" data-name="Rechteck 1724" width="163.074" height="4.781" transform="translate(126.848 75.527)" fill="#f0f0f0"/>
      <rect id="Rechteck_1725" data-name="Rechteck 1725" width="174.309" height="5.218" transform="translate(126.848 93.353)" fill="#f0f0f0"/>
      <rect id="Rechteck_1726" data-name="Rechteck 1726" width="174.309" height="5.218" transform="translate(126.848 111.39)" fill="#f0f0f0"/>
      <rect id="Rechteck_1727" data-name="Rechteck 1727" width="56.992" height="12.412" transform="translate(126.848 49.632)" fill="#f0f0f0"/>
      <rect id="Rechteck_1728" data-name="Rechteck 1728" width="245.613" height="22.773" transform="translate(94.529)" fill="#e0e0e0"/>
      <path id="Pfad_9864" data-name="Pfad 9864" d="M252.147,52.2c-.317-.287,2.85-4.117,7.058-8.521s7.9-7.737,8.2-7.435-2.85,4.117-7.058,8.521S252.449,52.474,252.147,52.2Z" transform="translate(68.269 -32.944)" fill="#fff"/>
      <path id="Pfad_9865" data-name="Pfad 9865" d="M267.41,52.2c-.3.3-3.982-3.016-8.2-7.435s-7.375-8.219-7.058-8.521,3.981,3.016,8.2,7.435S267.726,51.916,267.41,52.2Z" transform="translate(68.269 -32.944)" fill="#fff"/>
      <path id="Pfad_9866" data-name="Pfad 9866" d="M286.8,256.586H39.68V113.54H286.8ZM41.188,255.078H285.293V115.048H41.188Z" transform="translate(-39.68 6.341)" fill="#e0e0e0"/>
      <rect id="Rechteck_1729" data-name="Rechteck 1729" width="163.074" height="4.781" transform="translate(33.073 196.162)" fill="#f0f0f0"/>
      <rect id="Rechteck_1730" data-name="Rechteck 1730" width="174.309" height="5.218" transform="translate(33.073 213.988)" fill="#f0f0f0"/>
      <rect id="Rechteck_1731" data-name="Rechteck 1731" width="174.309" height="5.218" transform="translate(33.073 232.025)" fill="#f0f0f0"/>
      <rect id="Rechteck_1732" data-name="Rechteck 1732" width="56.992" height="12.412" transform="translate(33.073 170.267)" fill="#f0f0f0"/>
      <rect id="Rechteck_1733" data-name="Rechteck 1733" width="245.613" height="22.773" transform="translate(0.754 120.635)" fill="#e0e0e0"/>
      <rect id="Rechteck_1734" data-name="Rechteck 1734" width="290.013" height="259.639" transform="translate(242.311 295.698)" fill="#e6e6e6"/>
      <rect id="Rechteck_1735" data-name="Rechteck 1735" width="227.184" height="236.037" transform="translate(29.71 213.913)" fill="#f0f0f0"/>
      <rect id="Rechteck_1736" data-name="Rechteck 1736" width="227.184" height="25.714" transform="translate(29.71 213.913)" fill="#e0e0e0"/>
      <path id="Pfad_9867" data-name="Pfad 9867" d="M75.03,185.917a4.766,4.766,0,1,1-4.766-4.977A4.886,4.886,0,0,1,75.03,185.917Z" transform="translate(-26.559 40.589)" fill="#fff"/>
      <path id="Pfad_9868" data-name="Pfad 9868" d="M87.87,185.917A4.781,4.781,0,1,1,83.1,180.94,4.886,4.886,0,0,1,87.87,185.917Z" transform="translate(-20.05 40.589)" fill="#fff"/>
      <path id="Pfad_9869" data-name="Pfad 9869" d="M100.7,185.917a4.781,4.781,0,1,1-4.766-4.977A4.886,4.886,0,0,1,100.7,185.917Z" transform="translate(-13.53 40.589)" fill="#fff"/>
      <rect id="Rechteck_1737" data-name="Rechteck 1737" width="290.013" height="289.047" transform="translate(321.834 51.623)" fill="#f0f0f0"/>
      <rect id="Rechteck_1738" data-name="Rechteck 1738" width="290.013" height="33.857" transform="translate(321.834 51.623)" fill="#e0e0e0"/>
      <path id="Pfad_9870" data-name="Pfad 9870" d="M273.7,81.49a6.289,6.289,0,1,1-6.289-6.56A6.44,6.44,0,0,1,273.7,81.49Z" transform="translate(72.841 -13.278)" fill="#fff"/>
      <path id="Pfad_9871" data-name="Pfad 9871" d="M288.808,77.006a6.289,6.289,0,1,1-9.049-.211A6.41,6.41,0,0,1,288.808,77.006Z" transform="translate(81.362 -13.228)" fill="#fff"/>
      <path id="Pfad_9872" data-name="Pfad 9872" d="M307.476,81.49a6.289,6.289,0,1,1-6.289-6.56A6.44,6.44,0,0,1,307.476,81.49Z" transform="translate(90.006 -13.278)" fill="#fff"/>
    </g>
    <g id="freepik--Floor--inject-70" transform="translate(121.104 665.683)">
      <path id="Pfad_9873" data-name="Pfad 9873" d="M561.445,453.262c0,.211-104.724.392-233.865.392s-233.91-.181-233.91-.392,104.709-.392,233.91-.392S561.445,453.066,561.445,453.262Z" transform="translate(-93.67 -452.87)" fill="#263238"/>
    </g>
    <g id="freepik--Plant--inject-70" transform="translate(459.082 320.781)">
      <path id="Pfad_9874" data-name="Pfad 9874" d="M345.532,384.844c-23.3-16.273-28.579-46.48-27.659-73.642.151-4.524-.347-9.32,1.81-13.287s7.194-6.7,11.251-4.8c3.363,1.583,4.826,5.5,6.711,8.747a26.483,26.483,0,0,0,10.632,10.15c2.881,1.508,6.455,2.413,9.305.845,3.921-2.157,4.374-7.541,4.343-12.065q0-12.623-.151-25.216a41.971,41.971,0,0,1,1.357-13.392c1.4-4.283,4.524-8.25,8.792-9.456s9.592,1.282,10.557,5.686a43.438,43.438,0,0,1,.136,5.61c.121,1.885,1,3.951,2.76,4.525s3.6-.739,4.962-2.066c4.645-4.524,7.812-10.421,10.753-16.243s5.821-11.809,10.044-16.77,10.059-8.9,16.589-9.275,13.332,3.635,14.961,9.969-2.066,12.8-6.033,17.947A100.847,100.847,0,0,1,415.705,272.1a8.205,8.205,0,0,0-3.514,3.755c-.98,3.016,1.87,6.033,4.841,6.983,3.363,1.116,7.013.769,10.557,1.191s7.315,1.961,8.657,5.278c1.84,4.615-2.021,9.441-5.806,12.608a86.539,86.539,0,0,1-25.518,14.734c-3.318,1.206-6.8,2.277-9.486,4.6s-4.283,6.379-2.669,9.562,5.761,4.193,9.245,3.544,6.575-2.519,9.893-3.77c6.2-2.338,14.192-1.915,18.1,3.438a14.267,14.267,0,0,1,1.508,12.623,32.923,32.923,0,0,1-6.832,11.145,86.914,86.914,0,0,1-37.19,25.985c-14.372,4.977-27.689,6.334-41.971,1.1" transform="translate(-317.775 -224.174)" fill="#207178"/>
      <path id="Pfad_9875" data-name="Pfad 9875" d="M427.053,226.66s-.136.151-.437.422l-1.342,1.191c-1.177,1.056-2.911,2.594-5.1,4.63a168.292,168.292,0,0,0-17.223,18.6c-3.363,4.178-6.847,8.913-10.557,14.056s-7.541,10.693-11.341,16.589a204.568,204.568,0,0,0-11.115,19.274c-1.75,3.454-3.288,7.058-4.871,10.738l-4.675,11.236a414.515,414.515,0,0,0-16.076,43.389,202.084,202.084,0,0,0-7.541,36.994,147.1,147.1,0,0,0-.422,25.472c.241,3.016.468,5.324.679,6.892.09.754.151,1.357.211,1.795v.618a3.148,3.148,0,0,1-.136-.6c-.075-.437-.166-1.026-.286-1.78-.271-1.508-.558-3.891-.829-6.907a140.151,140.151,0,0,1,.151-25.548,198.79,198.79,0,0,1,7.375-37.16,404.749,404.749,0,0,1,16.031-43.494l4.8-11.19c1.583-3.665,3.137-7.3,4.9-10.768a201.92,201.92,0,0,1,11.205-19.319c3.861-6.033,7.752-11.492,11.417-16.589s7.209-9.863,10.557-14.026a160.325,160.325,0,0,1,17.449-18.46c2.232-2.006,4.012-3.514,5.218-4.524l1.4-1.131A3.291,3.291,0,0,1,427.053,226.66Z" transform="translate(-308.778 -222.91)" fill="#263238"/>
      <path id="Pfad_9876" data-name="Pfad 9876" d="M360.215,292.712a9.335,9.335,0,0,1-.437-1.915c-.241-1.252-.513-3.016-.829-5.309-.648-4.524-1.312-10.723-2.021-17.585s-1.508-13.076-2.172-17.555c-.347-2.232-.648-4.027-.86-5.278a8.146,8.146,0,0,1-.256-1.961A8.335,8.335,0,0,1,354.2,245c.332,1.237.709,3.016,1.131,5.263.86,4.524,1.7,10.678,2.413,17.555s1.312,12.91,1.78,17.6c.226,2.111.422,3.906.573,5.339A8.361,8.361,0,0,1,360.215,292.712Z" transform="translate(-299.551 -214.552)" fill="#263238"/>
      <path id="Pfad_9877" data-name="Pfad 9877" d="M415.962,268.854a12.077,12.077,0,0,1-2.232.271c-1.508.136-3.65.317-6.3.618-5.309.573-12.608,1.629-20.616,3.137s-15.2,3.212-20.375,4.524c-2.579.664-4.66,1.267-6.033,1.674a11.012,11.012,0,0,1-2.262.543,13.143,13.143,0,0,1,2.172-.86c1.418-.5,3.469-1.191,6.033-1.93,5.143-1.508,12.337-3.3,20.375-4.841a205.288,205.288,0,0,1,20.586-2.865c2.669-.226,4.826-.317,6.334-.347A11.6,11.6,0,0,1,415.962,268.854Z" transform="translate(-297.265 -201.522)" fill="#263238"/>
      <path id="Pfad_9878" data-name="Pfad 9878" d="M351.132,343.669a3.143,3.143,0,0,1-.392-.709l-1-2.1c-.86-1.825-2.021-4.524-3.408-7.827-2.805-6.636-6.38-15.926-10.18-26.241s-7.3-19.606-9.954-26.317c-1.3-3.258-2.368-5.927-3.167-7.918l-.845-2.157a2.915,2.915,0,0,1-.241-.784,3.135,3.135,0,0,1,.392.709l1,2.1c.845,1.825,2.021,4.524,3.408,7.827,2.805,6.636,6.379,15.926,10.18,26.242s7.3,19.606,9.954,26.317c1.3,3.258,2.368,5.927,3.152,7.918.347.86.633,1.508.86,2.156A2.916,2.916,0,0,1,351.132,343.669Z" transform="translate(-315.654 -201.081)" fill="#263238"/>
      <path id="Pfad_9879" data-name="Pfad 9879" d="M418.34,302.25a3.2,3.2,0,0,1-.769.317l-2.232.754-8.25,2.669c-6.967,2.262-16.589,5.49-27.146,9.049s-20.224,6.726-27.237,8.838c-3.5,1.071-6.349,1.885-8.325,2.428l-2.277.588a3.907,3.907,0,0,1-.814.166,3.2,3.2,0,0,1,.769-.317l2.232-.754,8.249-2.669c6.967-2.262,16.589-5.489,27.146-9.049s20.209-6.726,27.222-8.838c3.514-1.071,6.349-1.885,8.34-2.428l2.277-.588A3.905,3.905,0,0,1,418.34,302.25Z" transform="translate(-305.826 -184.501)" fill="#263238"/>
    </g>
    <g id="freepik--Padlock--inject-70" transform="translate(451.761 41.092)">
      <path id="Pfad_9880" data-name="Pfad 9880" d="M401.326,70.331l-7.767,2.775-3.333-10.15C384.1,44.24,364.588,34.3,346.656,40.621S319.178,67.465,325.3,86.181l3.333,10.15-7.8,2.79a12.4,12.4,0,0,0-7.269,15.5l21.611,66.041a11.658,11.658,0,0,0,14.87,7.706l80.489-28.79a12.457,12.457,0,0,0,7.345-15.654L416.256,77.886a11.628,11.628,0,0,0-14.93-7.556Zm-61.35,10.557a19.892,19.892,0,0,1,11.7-24.959,18.641,18.641,0,0,1,23.874,12.231l3.318,10.15L343.293,91.037Zm45.244,58.606,5.52,16.861a1.372,1.372,0,0,1-.86,1.689l-7.737,2.76a1.237,1.237,0,0,1-1.508-.814L375.069,143.2A15.081,15.081,0,0,1,361.5,132.646a15.85,15.85,0,0,1,9.335-19.877,14.855,14.855,0,0,1,19.018,9.743,16.107,16.107,0,0,1-4.615,17.027Z" transform="translate(-312.921 -38.719)" fill="#207178"/>
      <path id="Pfad_9881" data-name="Pfad 9881" d="M388.035,61.4c0,.211-14.4,5.625-32.319,12.065s-32.53,11.613-32.606,11.462,14.4-5.61,32.334-12.065S387.96,61.206,388.035,61.4Z" transform="translate(-307.743 -27.197)" fill="#263238"/>
      <path id="Pfad_9882" data-name="Pfad 9882" d="M397.541,63.24a2.633,2.633,0,0,1,.166.407c.121.3.256.694.437,1.176.392,1.1.935,2.624,1.614,4.524l5.791,16.861c2.413,7.149,5.294,15.624,8.491,25.035,1.508,4.72,3.288,9.637,4.947,14.81a22.62,22.62,0,0,1,1.131,8.28,11.116,11.116,0,0,1-1.222,4.177,11.52,11.52,0,0,1-2.85,3.363,27.15,27.15,0,0,1-7.661,3.906l-7.767,2.79-14.7,5.263-24.9,8.868L344.2,168.613l-4.524,1.508-1.206.392a1.28,1.28,0,0,1-.407.106.791.791,0,0,0,.377-.181l1.176-.467,4.524-1.7,16.725-6.153,24.854-9.049,14.674-5.309,7.767-2.805a25.834,25.834,0,0,0,7.435-3.785,10.725,10.725,0,0,0,2.654-3.122,9.924,9.924,0,0,0,1.131-3.876,21.7,21.7,0,0,0-1.086-7.978c-1.629-5.128-3.348-10.089-4.9-14.81-3.137-9.426-6.033-17.932-8.325-25.08s-4.223-12.894-5.55-16.936c-.633-1.976-1.116-3.514-1.508-4.63l-.362-1.206A1.4,1.4,0,0,1,397.541,63.24Z" transform="translate(-300.147 -26.26)" fill="#263238"/>
      <path id="Pfad_9883" data-name="Pfad 9883" d="M360.163,50.429s-.8-.392-2.277-1a20.088,20.088,0,0,0-6.591-1.327,22.622,22.622,0,0,0-9.742,1.84,21.718,21.718,0,0,0-9.215,7.707A20.389,20.389,0,0,0,328.794,69.1a35.282,35.282,0,0,0,1.508,9.878c.784,2.745,1.6,4.932,2.142,6.455a16.838,16.838,0,0,1,.784,2.383,13.239,13.239,0,0,1-1.071-2.277c-.618-1.508-1.508-3.65-2.383-6.41A34.3,34.3,0,0,1,328.04,69.1a20.676,20.676,0,0,1,3.62-11.884,22.064,22.064,0,0,1,9.577-7.933,22.442,22.442,0,0,1,10.029-1.719,18.987,18.987,0,0,1,6.681,1.584,12.459,12.459,0,0,1,1.629.9,2.249,2.249,0,0,1,.588.377Z" transform="translate(-305.238 -34.246)" fill="#263238"/>
      <path id="Pfad_9884" data-name="Pfad 9884" d="M352.845,89.216a5.2,5.2,0,0,1,.754-.377,14.973,14.973,0,0,1,2.338-.829,16.724,16.724,0,0,1,3.906-.664,13.241,13.241,0,0,1,5.294.8C369,89.5,372.541,93.439,374.29,98.7a15.2,15.2,0,0,1,0,8.657,19.605,19.605,0,0,1-4.856,8.129l.09-.407c2.006,5.5,4.193,11.477,6.455,17.705l.136.377-.377.136-3.454,1.146-7.541,2.519-.377.121-.121-.377c-2.066-6.244-4.328-12.065-6.032-17.781l.332.256A15.082,15.082,0,0,1,350.462,116a18.248,18.248,0,0,1-5.052-6.033,13.782,13.782,0,0,1-1.6-6.787,16.378,16.378,0,0,1,6.319-12.457,9.591,9.591,0,0,1,2.609-1.508,29.06,29.06,0,0,0-2.473,1.644,16.033,16.033,0,0,0-4.66,6.621,14.267,14.267,0,0,0,.467,12.171,17.708,17.708,0,0,0,4.932,5.791,14.358,14.358,0,0,0,7.707,3.016h.256l.075.226c1.659,5.61,3.936,11.477,6.032,17.751l-.5-.241,7.541-2.519,3.439-1.161-.241.513c-2.247-6.229-4.419-12.216-6.41-17.72v-.226l.181-.181a19.213,19.213,0,0,0,4.766-7.8,14.583,14.583,0,0,0,0-8.28c-1.644-5.067-5.037-8.913-8.717-10.27a12.955,12.955,0,0,0-5.113-.86,17.284,17.284,0,0,0-3.861.528C353.916,88.779,352.86,89.292,352.845,89.216Z" transform="translate(-297.226 -14.021)" fill="#263238"/>
    </g>
    <g id="freepik--Device--inject-70" transform="translate(277.466 107.767)">
      <path id="Pfad_9885" data-name="Pfad 9885" d="M380.648,526.907,230,526.214a32.832,32.832,0,0,1-32.651-32.968l1.6-377.65A32.8,32.8,0,0,1,231.916,82.93l150.632.694a32.832,32.832,0,0,1,32.666,32.953l-1.6,377.635A32.832,32.832,0,0,1,380.648,526.907Z" transform="translate(-197.35 -82.93)" fill="#455a64"/>
      <path id="Pfad_9886" data-name="Pfad 9886" d="M378.943,92.173h-29.2a7.254,7.254,0,0,0-7.118,7.39v5.294a7.239,7.239,0,0,1-7.118,7.375l-56.917-.256a7.269,7.269,0,0,1-7.073-7.45V99.231a7.269,7.269,0,0,0-7.058-7.45h-10.27l-25.563-.121a22.984,22.984,0,0,0-23.12,22.758L204,483.034a22.969,22.969,0,0,0,22.863,23.074l150.33.694a22.984,22.984,0,0,0,23.089-22.878l1.508-368.616a23,23,0,0,0-22.848-23.135Z" transform="translate(-193.971 -78.494)" fill="#fff"/>
      <path id="Pfad_9887" data-name="Pfad 9887" d="M344.953,346.225l-111.782-.483c-1.161,0-2.1-1.267-2.081-2.805l.121-29.243c0-1.508.95-2.805,2.111-2.805L345.1,311.4a2.534,2.534,0,0,1,2.081,2.82l-.105,29.212C347.08,344.989,346.115,346.24,344.953,346.225Z" transform="translate(-180.206 32.903)" fill="#207178"/>
      <text id="SING_UP" data-name="SING UP" transform="translate(83.309 362.932)" fill="#e8e8e3" font-size="10" font-family="Montserrat"><tspan x="0" y="0">SING UP</tspan></text>
      <rect id="Rechteck_1739" data-name="Rechteck 1739" width="38.789" height="7.118" transform="translate(36.473 121.863) rotate(0.26)" fill="#207178"/>
      <rect id="Rechteck_1740" data-name="Rechteck 1740" width="38.789" height="7.118" transform="translate(36.473 121.863) rotate(0.26)" opacity="0.1"/>
      <path id="Pfad_9888" data-name="Pfad 9888" d="M374.207,201.783a3.47,3.47,0,0,0,.89-.211,2.383,2.383,0,0,0,1.508-2.036V179.508a2.927,2.927,0,0,0-.422-1.976,2.262,2.262,0,0,0-1.795-.92H350.242l-126.14-.467a2.006,2.006,0,0,0-1.659.83,2.881,2.881,0,0,0-.392,1.976v18.1a11.9,11.9,0,0,0,0,2.111,2.036,2.036,0,0,0,1.176,1.357,2.351,2.351,0,0,0,.935.166h7.676l33.5.181,56.706.347,38.231.3,10.391.121H322.041l-56.706-.181-33.5-.136h-7.676a3.017,3.017,0,0,1-1.237-.211,2.835,2.835,0,0,1-1.629-1.885,4.266,4.266,0,0,1-.091-1.206V178.8a8.468,8.468,0,0,1,0-1.206,2.564,2.564,0,0,1,.5-1.222A2.775,2.775,0,0,1,224,175.21l126.14.694,21.792.151h2.353a2.58,2.58,0,0,1,2.112,1.1,3.212,3.212,0,0,1,.482,2.217v9.637c0,4.524-.105,7.993-.136,10.406a2.443,2.443,0,0,1-1.583,2.1,1.809,1.809,0,0,1-.95.271Z" transform="translate(-185.238 -36.04)" fill="#e0e0e0"/>
      <rect id="Rechteck_1741" data-name="Rechteck 1741" width="70.942" height="6.651" transform="translate(48.125 147.676)" fill="#207178"/>
      <rect id="Rechteck_1742" data-name="Rechteck 1742" width="70.942" height="6.651" transform="translate(48.125 147.676)" fill="#fff" opacity="0.2"/>
      <rect id="Rechteck_1743" data-name="Rechteck 1743" width="38.789" height="7.118" transform="translate(36.208 186.801) rotate(0.26)" fill="#207178"/>
      <rect id="Rechteck_1744" data-name="Rechteck 1744" width="38.789" height="7.118" transform="translate(36.208 186.801) rotate(0.26)" opacity="0.1"/>
      <path id="Pfad_9889" data-name="Pfad 9889" d="M373.344,244.787a7.815,7.815,0,0,0,.905-.166,3.091,3.091,0,0,0,1.9-1.719,4.221,4.221,0,0,0,.271-1.915V222.995a3.242,3.242,0,0,0-.437-1.991,2.926,2.926,0,0,0-1.644-1.282,9.247,9.247,0,0,0-2.277-.121h-21.7l-125.7-.468a2.79,2.79,0,0,0-2.76,2.428c0,1.433,0,3.016,0,4.524V239.66a8.659,8.659,0,0,0,.09,2.111,2.865,2.865,0,0,0,1.1,1.508,3.137,3.137,0,0,0,1.87.483h6.455l33.375.166,56.51.347,38.1.3,10.361.121H321.3l-56.54-.06-33.375-.121h-6.56a3.784,3.784,0,0,1-2.307-.618,3.619,3.619,0,0,1-1.418-1.976,9.5,9.5,0,0,1-.121-2.323V221.5a3.574,3.574,0,0,1,3.544-3.122l125.7.694,21.7.166a9.337,9.337,0,0,1,2.413.166,3.333,3.333,0,0,1,1.855,1.508,3.635,3.635,0,0,1,.483,2.2v18.067a4.208,4.208,0,0,1-.317,1.976,3.2,3.2,0,0,1-2.036,1.719A2.833,2.833,0,0,1,373.344,244.787Z" transform="translate(-185.356 -14.104)" fill="#e0e0e0"/>
      <rect id="Rechteck_1745" data-name="Rechteck 1745" width="38.789" height="7.118" transform="translate(35.916 254.559) rotate(0.26)" fill="#207178"/>
      <rect id="Rechteck_1746" data-name="Rechteck 1746" width="38.789" height="7.118" transform="translate(35.916 254.559) rotate(0.26)" opacity="0.1"/>
      <path id="Pfad_9890" data-name="Pfad 9890" d="M373.1,289.763a7.215,7.215,0,0,0,.9-.166,3.107,3.107,0,0,0,1.9-1.7,4.253,4.253,0,0,0,.271-1.915V267.971a3.243,3.243,0,0,0-.437-1.991,3.016,3.016,0,0,0-1.644-1.267,9.215,9.215,0,0,0-2.277-.136h-21.7l-125.7-.468a2.79,2.79,0,0,0-2.76,2.428v18.1a8.537,8.537,0,0,0,.09,2.1,2.76,2.76,0,0,0,1.1,1.508,3.017,3.017,0,0,0,1.87.483h6.56l33.375.181,56.509.347,38.1.3,10.361.121H321.158l-56.509-.166-33.375-.136h-6.56a3.7,3.7,0,0,1-2.307-.618,3.62,3.62,0,0,1-1.418-1.976,9.5,9.5,0,0,1-.121-2.323V266.282a3.559,3.559,0,0,1,3.529-3.122l125.7.694,21.7.166a9.336,9.336,0,0,1,2.413.166,3.333,3.333,0,0,1,1.855,1.508,3.633,3.633,0,0,1,.483,2.2v18.067a4.13,4.13,0,0,1-.317,1.976,3.2,3.2,0,0,1-2.036,1.719A2.384,2.384,0,0,1,373.1,289.763Z" transform="translate(-185.412 8.65)" fill="#e0e0e0"/>
      <rect id="Rechteck_1747" data-name="Rechteck 1747" width="70.942" height="6.651" transform="translate(46.61 214.175) rotate(0.26)" fill="#207178"/>
      <rect id="Rechteck_1748" data-name="Rechteck 1748" width="70.942" height="6.651" transform="translate(46.61 214.175) rotate(0.26)" fill="#fff" opacity="0.2"/>
      <path id="Pfad_9891" data-name="Pfad 9891" d="M234.6,273.763a3.107,3.107,0,1,1-3.016-3.333A3.2,3.2,0,0,1,234.6,273.763Z" transform="translate(-181.575 12.344)" fill="#207178"/>
      <path id="Pfad_9892" data-name="Pfad 9892" d="M240.971,273.789a3.107,3.107,0,1,1-1.484-2.87,3.107,3.107,0,0,1,1.484,2.87Z" transform="translate(-178.338 12.363)" fill="#207178"/>
      <path id="Pfad_9893" data-name="Pfad 9893" d="M247.351,273.823a3.107,3.107,0,1,1-3.016-3.333A3.212,3.212,0,0,1,247.351,273.823Z" transform="translate(-175.096 12.374)" fill="#207178"/>
      <path id="Pfad_9894" data-name="Pfad 9894" d="M253.721,273.853a3.107,3.107,0,1,1-3.016-3.333A3.212,3.212,0,0,1,253.721,273.853Z" transform="translate(-171.859 12.389)" fill="#207178"/>
      <path id="Pfad_9895" data-name="Pfad 9895" d="M260.091,273.868a3.107,3.107,0,1,1-3.016-3.318A3.212,3.212,0,0,1,260.091,273.868Z" transform="translate(-168.623 12.405)" fill="#207178"/>
      <path id="Pfad_9896" data-name="Pfad 9896" d="M266.471,273.9a3.107,3.107,0,1,1-3.092-3.318,3.212,3.212,0,0,1,3.092,3.318Z" transform="translate(-165.381 12.42)" fill="#207178"/>
      <path id="Pfad_9897" data-name="Pfad 9897" d="M272.841,273.93a3.107,3.107,0,1,1-1.484-2.87A3.107,3.107,0,0,1,272.841,273.93Z" transform="translate(-162.144 12.434)" fill="#207178"/>
      <path id="Pfad_9898" data-name="Pfad 9898" d="M279.211,273.958a3.107,3.107,0,1,1-3.092-3.318A3.212,3.212,0,0,1,279.211,273.958Z" transform="translate(-158.907 12.451)" fill="#207178"/>
      <path id="Pfad_9899" data-name="Pfad 9899" d="M285.581,273.988a3.107,3.107,0,1,1-3.016-3.318A3.212,3.212,0,0,1,285.581,273.988Z" transform="translate(-155.671 12.466)" fill="#207178"/>
      <g id="Gruppe_7749" data-name="Gruppe 7749" transform="translate(46.821 282.773)" opacity="0.2">
        <path id="Pfad_9900" data-name="Pfad 9900" d="M234.6,273.763a3.107,3.107,0,1,1-3.016-3.333A3.2,3.2,0,0,1,234.6,273.763Z" transform="translate(-228.396 -270.429)" fill="#fff"/>
        <path id="Pfad_9901" data-name="Pfad 9901" d="M240.971,273.789a3.107,3.107,0,1,1-1.484-2.87,3.107,3.107,0,0,1,1.484,2.87Z" transform="translate(-225.159 -270.41)" fill="#fff"/>
        <path id="Pfad_9902" data-name="Pfad 9902" d="M247.351,273.823a3.107,3.107,0,1,1-3.016-3.333A3.212,3.212,0,0,1,247.351,273.823Z" transform="translate(-221.917 -270.399)" fill="#fff"/>
        <path id="Pfad_9903" data-name="Pfad 9903" d="M253.721,273.853a3.107,3.107,0,1,1-3.016-3.333A3.212,3.212,0,0,1,253.721,273.853Z" transform="translate(-218.68 -270.384)" fill="#fff"/>
        <path id="Pfad_9904" data-name="Pfad 9904" d="M260.091,273.868a3.107,3.107,0,1,1-3.016-3.318A3.212,3.212,0,0,1,260.091,273.868Z" transform="translate(-215.444 -270.368)" fill="#fff"/>
        <path id="Pfad_9905" data-name="Pfad 9905" d="M266.471,273.9a3.107,3.107,0,1,1-3.092-3.318,3.212,3.212,0,0,1,3.092,3.318Z" transform="translate(-212.202 -270.353)" fill="#fff"/>
        <path id="Pfad_9906" data-name="Pfad 9906" d="M272.841,273.93a3.107,3.107,0,1,1-1.484-2.87A3.107,3.107,0,0,1,272.841,273.93Z" transform="translate(-208.965 -270.339)" fill="#fff"/>
        <path id="Pfad_9907" data-name="Pfad 9907" d="M279.211,273.958a3.107,3.107,0,1,1-3.092-3.318A3.212,3.212,0,0,1,279.211,273.958Z" transform="translate(-205.728 -270.322)" fill="#fff"/>
        <path id="Pfad_9908" data-name="Pfad 9908" d="M285.581,273.988a3.107,3.107,0,1,1-3.016-3.318A3.212,3.212,0,0,1,285.581,273.988Z" transform="translate(-202.492 -270.307)" fill="#fff"/>
      </g>
      <path id="Pfad_9909" data-name="Pfad 9909" d="M278.5,132.281a5.836,5.836,0,0,0,3.484-5.414,5.49,5.49,0,1,0-10.964,0,5.852,5.852,0,0,0,3.5,5.475c-8.445,1.267-8.068,10.436-8.068,10.436l19.968.09S286.886,133.533,278.5,132.281Z" transform="translate(-162.239 -63.54)" fill="#207178"/>
      <path id="Pfad_9910" data-name="Pfad 9910" d="M278.5,132.281a5.836,5.836,0,0,0,3.484-5.414,5.49,5.49,0,1,0-10.964,0,5.852,5.852,0,0,0,3.5,5.475c-8.445,1.267-8.068,10.436-8.068,10.436l19.968.09S286.886,133.533,278.5,132.281Z" transform="translate(-162.239 -63.54)" opacity="0.1"/>
      <rect id="Rechteck_1749" data-name="Rechteck 1749" width="71.168" height="8.506" transform="translate(77.54 84.92) rotate(0.26)" fill="#207178"/>
      <rect id="Rechteck_1750" data-name="Rechteck 1750" width="71.168" height="8.506" transform="translate(77.54 84.92) rotate(0.26)" fill="#fff" opacity="0.2"/>
    </g>
    <g id="freepik--speech-bubble--inject-70" transform="translate(125.741 237.089)">
      <path id="Pfad_9911" data-name="Pfad 9911" d="M135.542,168.68h-.709l-2.051.151a23.281,23.281,0,0,0-3.3.437,20.418,20.418,0,0,0-2.1.407l-2.338.648a38.413,38.413,0,0,0-11.115,5.5,39.121,39.121,0,0,0-10.949,12.186,40.843,40.843,0,0,0-3.831,8.762A42.139,42.139,0,0,0,97.476,207a41.452,41.452,0,0,0,.09,5.459,22.266,22.266,0,0,0,.377,2.775,17.832,17.832,0,0,0,.528,2.79,39.8,39.8,0,0,0,22.622,27.644,35.833,35.833,0,0,0,12.955,2.911,34.973,34.973,0,0,0,13.573-1.945l1.327-.5h.181l.151.09L168.3,255.88l-.558.483c-2.036-6.3-4-12.412-5.9-18.278v-.226l.166-.166a40.719,40.719,0,0,0,9.984-16.589,41.775,41.775,0,0,0,1.508-17.675,41.292,41.292,0,0,0-4.992-14.991,40.718,40.718,0,0,0-8.6-10.557,42,42,0,0,0-9.335-5.942,40.626,40.626,0,0,0-7.9-2.488l-3.016-.5-2.187-.166-1.327-.09h-.452a2.052,2.052,0,0,1,.452,0h1.342l2.187.09,3.016.437a39.964,39.964,0,0,1,8.008,2.4,41.91,41.91,0,0,1,9.5,5.927,40.825,40.825,0,0,1,8.777,10.557,41.4,41.4,0,0,1,5.143,15.187,42.227,42.227,0,0,1-1.4,17.977A41.262,41.262,0,0,1,162.582,238.2l.09-.392c1.9,5.867,3.876,11.975,5.927,18.263l.287.92-.86-.437-19.017-9.637h.332l-1.357.5a35.986,35.986,0,0,1-13.83,1.991,36.647,36.647,0,0,1-13.226-3.016,39.679,39.679,0,0,1-18.9-16.906,40.266,40.266,0,0,1-4.268-11.16,23.108,23.108,0,0,1-.528-2.85c-.121-.95-.317-1.885-.362-2.82a44.567,44.567,0,0,1,1.674-15.926,40.55,40.55,0,0,1,3.936-8.868A39.468,39.468,0,0,1,113.659,175.6a38.126,38.126,0,0,1,11.3-5.459l2.368-.6a20.963,20.963,0,0,1,2.111-.377,22.4,22.4,0,0,1,3.333-.362l2.066-.075A5.061,5.061,0,0,1,135.542,168.68Z" transform="translate(-96.745 -168.68)" fill="#207178"/>
      <path id="Pfad_9912" data-name="Pfad 9912" d="M136.068,196.731h-2.79l-6.033-8.476V182.69s-4.313-.271-3.8,7.013,0,5.429,0,5.429-9.154,0-9.908.829-.8,9.667-.9,14.6a5.339,5.339,0,0,0,3.785,5.369,3.734,3.734,0,0,0,.98.136c2.292,0,13.95-1.855,13.95-1.855h4.811Z" transform="translate(-88.675 -161.561)" fill="#207178"/>
      <path id="Pfad_9913" data-name="Pfad 9913" d="M135.645,191.01l-1.719,19.063H129.16V191.4Z" transform="translate(-80.274 -157.333)" fill="#207178"/>
    </g>
    <g id="freepik--Character--inject-70" transform="translate(164.523 246.054)">
      <path id="Pfad_9914" data-name="Pfad 9914" d="M179.006,452.74V439.846l-23.12-.166-.2,19.5,1.433.105c6.379.407,32.455,1.011,36.738-.317C198.626,457.491,179.006,452.74,179.006,452.74Z" transform="translate(-105.575 -39.943)" fill="#207178"/>
      <path id="Pfad_9915" data-name="Pfad 9915" d="M194.378,451.8c0,.211-8.657.392-19.319.392s-19.319-.181-19.319-.392,8.657-.392,19.319-.392S194.378,451.591,194.378,451.8Z" transform="translate(-105.55 -33.983)" fill="#263238"/>
      <path id="Pfad_9916" data-name="Pfad 9916" d="M171.445,450.906c-.2-.106,0-.784.467-1.508s1.1-1.026,1.252-.875-.166.724-.618,1.342S171.641,451.011,171.445,450.906Z" transform="translate(-97.608 -35.469)" fill="#263238"/>
      <path id="Pfad_9917" data-name="Pfad 9917" d="M172.435,451.6c-.211,0-.106-.844.347-1.644s1.056-1.282,1.222-1.161-.106.8-.528,1.508S172.631,451.677,172.435,451.6Z" transform="translate(-97.119 -35.32)" fill="#263238"/>
      <path id="Pfad_9918" data-name="Pfad 9918" d="M162.607,453.155c-.091,0-.437-.271-.935-.844a14.945,14.945,0,0,0-2.021-2.021,5.324,5.324,0,0,0-2.5-1.1c-.709-.09-1.161,0-1.207-.09s.392-.407,1.222-.467a4.66,4.66,0,0,1,3.016,1.026,8.506,8.506,0,0,1,1.991,2.338C162.516,452.657,162.7,453.094,162.607,453.155Z" transform="translate(-105.449 -35.396)" fill="#263238"/>
      <path id="Pfad_9919" data-name="Pfad 9919" d="M172.223,448.506c.106.181-.287.633-.95.875s-1.252.151-1.282,0,.437-.468,1.01-.679S172.1,448.325,172.223,448.506Z" transform="translate(-98.309 -35.498)" fill="#263238"/>
      <path id="Pfad_9920" data-name="Pfad 9920" d="M172.165,447.777c0,.226-.6.407-1.387.422s-1.4-.166-1.387-.377.633-.407,1.387-.422S172.135,447.566,172.165,447.777Z" transform="translate(-98.614 -36.021)" fill="#263238"/>
      <path id="Pfad_9921" data-name="Pfad 9921" d="M216.756,452.74V439.846l-23.12-.166-.2,19.3,1.433.105c6.379.407,32.47,1.206,36.738-.121C236.376,457.491,216.756,452.74,216.756,452.74Z" transform="translate(-86.393 -39.943)" fill="#207178"/>
      <path id="Pfad_9922" data-name="Pfad 9922" d="M232.123,451.822c0,.211-8.641.392-19.319.392s-19.3-.181-19.3-.392,8.642-.392,19.3-.392S232.123,451.611,232.123,451.822Z" transform="translate(-86.363 -33.973)" fill="#263238"/>
      <path id="Pfad_9923" data-name="Pfad 9923" d="M209.193,450.906c-.181-.106,0-.784.467-1.508s1.1-1.026,1.252-.875-.166.724-.618,1.342S209.389,451.011,209.193,450.906Z" transform="translate(-78.424 -35.469)" fill="#263238"/>
      <path id="Pfad_9924" data-name="Pfad 9924" d="M210.183,451.6c-.2,0-.105-.844.362-1.644s1.056-1.282,1.222-1.161-.121.8-.543,1.508S210.394,451.677,210.183,451.6Z" transform="translate(-77.935 -35.32)" fill="#263238"/>
      <path id="Pfad_9925" data-name="Pfad 9925" d="M200.357,453.155c-.091,0-.422-.271-.935-.844a14.951,14.951,0,0,0-2.021-2.021,5.324,5.324,0,0,0-2.5-1.1c-.694-.09-1.161,0-1.207-.09s.392-.407,1.222-.467a4.66,4.66,0,0,1,3.016,1.026,8.248,8.248,0,0,1,1.991,2.338C200.267,452.657,200.447,453.094,200.357,453.155Z" transform="translate(-86.267 -35.396)" fill="#263238"/>
      <path id="Pfad_9926" data-name="Pfad 9926" d="M209.972,448.506c.106.181-.287.633-.95.875s-1.252.151-1.282,0,.437-.468,1.011-.679S209.852,448.325,209.972,448.506Z" transform="translate(-79.127 -35.498)" fill="#263238"/>
      <path id="Pfad_9927" data-name="Pfad 9927" d="M209.93,447.777c0,.226-.6.407-1.388.422s-1.387-.166-1.372-.377.618-.407,1.372-.422S209.93,447.566,209.93,447.777Z" transform="translate(-79.417 -36.021)" fill="#263238"/>
      <path id="Pfad_9928" data-name="Pfad 9928" d="M338,201.29c-.6-.618-2.1-.317-2.1-.317a7.718,7.718,0,0,0,0-2.624c-.271-.845-2.172-.679-2.172-.679a8.754,8.754,0,0,1,0-2.142.769.769,0,0,0-.437-.769,6.967,6.967,0,0,0-2.835-.513c-1.161-.83,3.544-7.42,5.293-9.531s1.433-3.755-.121-3.755c-1.071,0-6.56,6.334-8.249,8.461s-6.168,8.038-6.319,3.318-2.051-8.28-3.242-8.883-2.458.814-1.81,2.126a16.88,16.88,0,0,1,1.056,4.645,11.1,11.1,0,0,1-.166,3.8,45.589,45.589,0,0,1-2.036,6.817h-.121s-32.907,31.565-35.29,33.812c-2.126,2.021-44.9-2.4-53.478-3.3a57.434,57.434,0,0,0-8.808-.6c-3.725.166-4.389.694-8.1.739a183.415,183.415,0,0,0-27.961,2.458,23.18,23.18,0,0,0-18.188,15.775c-8.641,27-28.217,90.895-31.671,126.788a152.333,152.333,0,0,0-7.058,14.584c-2.428,6.606-1.84,6.832-1.026,6.983,2.2.407,4.705-11.447,5.64-8.581s-4.751,14.131-2.443,14.463c3.016.422,5.414-12.065,5.7-13.06s1.78-.679,1.508.256c-.437,1.327-4.675,15.4-1.719,15.85,1.629.241,1.81-2.73,1.81-2.73s3.016-13.468,4.389-13.2-.09,8.219-.784,10.874.271,4,1.689,3.348c.965-.452,3.273-8.521,3.906-11.145s2.217-9.893,4.343-5.686,5.354,6.651,6.681,6.711a1.508,1.508,0,0,0,.739-2.7,17.088,17.088,0,0,1-2.911-3.77,11.115,11.115,0,0,1-1.508-3.529,38.259,38.259,0,0,1-1.056-7.631l-.241-1.508c3.378-16.725,13.106-65.815,27.146-97.169l5.761,11.854,2.5,8.777-15.353,37.9,65.483-.86-9.773-37.613,11.869-39.211h0c12.834.287,45.787.769,51.276-1.719,6.907-3.016,42.635-48.139,42.635-48.139h0a82.517,82.517,0,0,0,6.681-5.791S339.314,202.647,338,201.29Z" transform="translate(-122.46 -171.406)" fill="#ffbe9d"/>
      <path id="Pfad_9929" data-name="Pfad 9929" d="M158.26,293.936c1.9-6.485,11.658-38.548,11.658-38.548s4.8,26.136,3.529,29.288a55.8,55.8,0,0,1-4.117,7.782c-11.07,16.846-9.622,25.276-9.622,25.276l66.885-2.036c.151-9.35-5.384-31.1-6.53-34.566s2.669-14.825,2.669-14.825,7.541-7.676,7.269-11.628a63.916,63.916,0,0,0-1.312-10.557l40.719,1.508-1.282-27.6-58.485-5.852c-2.036,5.746-20.45,2.926-20.45,2.926-19.877.664-21.114,4.313-29.378,10.738s-21.943,61.562-21.943,61.562Z" transform="translate(-114.63 -155.542)" fill="#207178"/>
      <path id="Pfad_9930" data-name="Pfad 9930" d="M185.643,262.868a14.073,14.073,0,0,1-3.514.181c-2.187,0-5.188-.151-8.491-.483s-6.289-.8-8.415-1.221a14.52,14.52,0,0,1-3.423-.875,18.857,18.857,0,0,1,3.514.332c2.141.272,5.113.649,8.4.98s6.274.558,8.43.709A18.6,18.6,0,0,1,185.643,262.868Z" transform="translate(-102.47 -131.005)" fill="#263238"/>
      <path id="Pfad_9931" data-name="Pfad 9931" d="M189.385,258.29a15.459,15.459,0,0,1-3.65,1.252,67.054,67.054,0,0,1-18.444,2.187,15.223,15.223,0,0,1-3.831-.362,25.787,25.787,0,0,1,3.831-.2c2.368-.075,5.625-.241,9.215-.664s6.787-1.026,9.049-1.508A25,25,0,0,1,189.385,258.29Z" transform="translate(-101.627 -132.112)" fill="#263238"/>
      <path id="Pfad_9932" data-name="Pfad 9932" d="M197.45,241.47a15.708,15.708,0,0,1-.468,3.408c-.392,2.1-1,4.962-1.764,8.1s-1.508,6.032-2.172,7.993a15.084,15.084,0,0,1-1.176,3.242,15.35,15.35,0,0,1,.633-3.378c.573-2.353,1.221-5.067,1.945-8.038s1.418-5.686,1.991-8.038A14.389,14.389,0,0,1,197.45,241.47Z" transform="translate(-87.191 -140.659)" fill="#263238"/>
      <path id="Pfad_9933" data-name="Pfad 9933" d="M158.735,265.715a70.085,70.085,0,0,1-10.3-2.4,71.586,71.586,0,0,1-10.1-3.167,72.511,72.511,0,0,1,10.3,2.4A70.766,70.766,0,0,1,158.735,265.715Z" transform="translate(-114.396 -131.167)" fill="#263238"/>
      <path id="Pfad_9934" data-name="Pfad 9934" d="M204.844,243.257a5.066,5.066,0,0,1-1.719,0,17.869,17.869,0,0,1-4.6-1.1,18.9,18.9,0,0,1-10.919-10.723,19.484,19.484,0,0,1-1.342-8.491,13.2,13.2,0,0,1,2.066-6.726,6.983,6.983,0,0,1,3.816-2.82,4.613,4.613,0,0,1,1.282-.166h.452a4.89,4.89,0,0,0-1.644.407,6.862,6.862,0,0,0-3.454,2.82c-2.051,3.228-2.624,9.124-.437,14.629a18.43,18.43,0,0,0,4.66,6.817,19.8,19.8,0,0,0,5.716,3.68,29.054,29.054,0,0,0,6.123,1.674Z" transform="translate(-90.061 -155.008)" fill="#263238"/>
      <path id="Pfad_9935" data-name="Pfad 9935" d="M222.02,243.365a125.688,125.688,0,0,1-.362-13.9,124.427,124.427,0,0,1,.422-13.89,125.26,125.26,0,0,1,.362,13.89,120.661,120.661,0,0,1-.422,13.9Z" transform="translate(-72.082 -153.819)" fill="#263238"/>
      <path id="Pfad_9936" data-name="Pfad 9936" d="M192.776,231.1c.166-3.363.513-7.164.513-7.164s8.325-.92,8.823-9.516,0-28.428,0-28.428L187.03,178.27l-16.74,13.166,2.579,42.982,15.353.98A4.434,4.434,0,0,0,192.776,231.1Z" transform="translate(-98.156 -172.772)" fill="#ffbe9d"/>
      <path id="Pfad_9937" data-name="Pfad 9937" d="M187.348,199.382a.7.7,0,0,1-.136.362,1.116,1.116,0,0,1-.95.422c-.965,0-1.9-1.116-2.232-2.413a3.938,3.938,0,0,1,0-1.915,1.659,1.659,0,0,1,.9-1.3.829.829,0,0,1,.633,0,.769.769,0,0,1,.347.347.425.425,0,0,1,0,.407.44.44,0,0,0-.151-.3.543.543,0,0,0-.709-.151,1.282,1.282,0,0,0-.618,1.071,3.862,3.862,0,0,0,0,1.7c.3,1.176,1.116,2.126,1.84,2.217a1.041,1.041,0,0,0,.8-.226C187.257,199.488,187.317,199.367,187.348,199.382Z" transform="translate(-91.235 -164.537)" fill="#eb996e"/>
      <path id="Pfad_9938" data-name="Pfad 9938" d="M220.57,183.2c-1.161-3.951-5.369-5.912-9.2-7-5.836-1.659-12.14-2.383-17.841-.287s-12.548,5.776-12.548,12.065c-3.363-.272-5.294,2.669-6.621,6.319a23.678,23.678,0,0,0-1.508,6.937h0c-.422,8.234-2.73,19.606-8.068,25.638-3.016,3.363-7.194,5.686-8.913,9.878-1.508,3.635-.724,7.948-2.126,11.628-1.252,3.242-4.012,5.55-6.032,8.37a22.441,22.441,0,0,0-1.433,21.7A27.479,27.479,0,0,0,162.7,292.629a38.413,38.413,0,0,0,21.642.211,36.2,36.2,0,0,0,14.508-7.194,24.22,24.22,0,0,0,8.415-13.935c1.071-6.153-.648-12.412-1.93-18.535-4.012-19.349-2.865-20.36,2.2-38.322.121-.317.181-.648.271-.965s.136-.467.2-.709h0a11.37,11.37,0,0,0,.226-2.157,4.147,4.147,0,0,1-4.358-.935,4.524,4.524,0,0,1-1.025-4.524,6.575,6.575,0,0,1,3.891-3.665c1.674-.694,3.469-1.056,5.112-1.825,3.484-1.659,5.9-5.1,7.541-8.7a11.944,11.944,0,0,0,1.176-8.174Z" transform="translate(-111.442 -174.625)" fill="#263238"/>
      <path id="Pfad_9939" data-name="Pfad 9939" d="M187.455,198a7.37,7.37,0,0,1,.784,1.508c.453.95,1.056,2.292,1.719,3.846l.121.287h-.317l-1.508.136c-1.041,0-1.915.2-2.941.181a.543.543,0,0,1-.392-.347.678.678,0,0,1,0-.422,6.024,6.024,0,0,1,.136-.6l.271-1.071a10.206,10.206,0,0,1,.633-2.081,10.179,10.179,0,0,1-.317,2.157l-.211,1.071c-.075.362-.211.92,0,.875.754,0,1.825-.166,2.82-.226l1.508-.136-.2.332c-.648-1.508-1.191-2.926-1.508-3.906a5.884,5.884,0,0,1-.6-1.6Z" transform="translate(-90.739 -162.747)" fill="#207178"/>
      <path id="Pfad_9940" data-name="Pfad 9940" d="M153.438,282.856l66.885-2.036L249.43,394.442l-5.354,130.332H208.711l4.328-127.558-25.864-79.1,3.981,211.711-35.743.528-3.755-199c-.166-5.535-1.976-18.007-1.3-23.5Z" transform="translate(-108.36 -120.664)" fill="#263238"/>
      <path id="Pfad_9941" data-name="Pfad 9941" d="M187.968,308.113a13.4,13.4,0,0,1-3.273-.2c-2.021-.241-4.781-.664-7.812-1.267s-5.746-1.3-7.706-1.855a12.451,12.451,0,0,1-3.016-1.086c0-.226,4.916.95,10.949,2.172S188,307.887,187.968,308.113Z" transform="translate(-100.255 -109.048)" fill="#455a64"/>
      <path id="Pfad_9942" data-name="Pfad 9942" d="M224.268,437.972c0,.211-8.008.392-17.886.392s-17.9-.181-17.9-.392,8.008-.392,17.9-.392S224.268,437.746,224.268,437.972Z" transform="translate(-88.914 -41.01)" fill="#455a64"/>
      <path id="Pfad_9943" data-name="Pfad 9943" d="M188.852,442.412c0,.226-7.782.392-17.374.392s-17.359-.166-17.359-.392,7.782-.392,17.359-.392S188.852,442.2,188.852,442.412Z" transform="translate(-106.373 -38.754)" fill="#455a64"/>
      <path id="Pfad_9944" data-name="Pfad 9944" d="M175.251,511.543c-.211,0-1.146-46.254-2.1-103.306S171.647,304.9,171.843,304.9s1.161,46.239,2.1,103.322S175.478,511.543,175.251,511.543Z" transform="translate(-97.387 -108.428)" fill="#455a64"/>
      <path id="Pfad_9945" data-name="Pfad 9945" d="M217.185,516.94a3.86,3.86,0,0,1,0-.618v-1.81c0-1.629.121-3.966.211-6.937.211-6.033.513-14.795.89-25.533.814-21.6,1.961-51.367,3.212-84.229v-.784c-7.918-31.671-15.081-60.415-20.284-81.213l-6.033-24.6c-.694-2.881-1.222-5.128-1.6-6.7-.181-.739-.3-1.312-.407-1.749a2.611,2.611,0,0,1-.106-.6,3.339,3.339,0,0,1,.181.588c.121.422.272,1,.483,1.719.407,1.508,1,3.8,1.749,6.666,1.508,5.821,3.635,14.207,6.289,24.537,5.248,20.782,12.487,49.451,20.51,81.167v1c-1.342,32.862-2.564,62.617-3.454,84.214-.467,10.753-.86,19.455-1.131,25.518-.151,3.016-.271,5.309-.347,6.937,0,.769-.09,1.373-.106,1.81A2.881,2.881,0,0,1,217.185,516.94Z" transform="translate(-86.581 -119.978)" fill="#455a64"/>
      <path id="Pfad_9946" data-name="Pfad 9946" d="M206.822,356.5a40.4,40.4,0,0,1-7.812,1.734c-3.258.558-6.033.95-7.284,1.011v-.3c.407.121.618.2.618.256s-.256,0-.679,0h-.9l.9-.272c1.176-.347,3.951-.92,7.209-1.508a40.735,40.735,0,0,1,7.948-.92Z" transform="translate(-87.755 -82.209)" fill="#455a64"/>
      <path id="Pfad_9947" data-name="Pfad 9947" d="M205.736,359.786a38.917,38.917,0,0,1-7.043-.317,39.792,39.792,0,0,1-7.013-.769A44.648,44.648,0,0,1,205.736,359.786Z" transform="translate(-87.288 -81.166)" fill="#455a64"/>
      <path id="Pfad_9948" data-name="Pfad 9948" d="M152.16,285.254a9.169,9.169,0,0,0,6.606,3.514,29.754,29.754,0,0,0,8.1-.151c17.268-1.915,35.562-3.68,52.468-7.8-21.883,1.222-45,.814-66.885,2.036l-.226,1.87" transform="translate(-107.369 -120.664)" opacity="0.2"/>
      <g id="Gruppe_7750" data-name="Gruppe 7750" transform="translate(67.338 195.431)" opacity="0.2">
        <path id="Pfad_9949" data-name="Pfad 9949" d="M167.11,304.21l12.336,47.868-.86-45.847Z" transform="translate(-167.11 -304.21)"/>
      </g>
    </g>
  </g>
</svg>
