<?xml version="1.0" encoding="UTF-8"?>
<svg width="1100px" height="1100px" viewBox="0 0 1100 1100" version="1.1" xmlns="http://www.w3.org/2000/svg" xmlns:xlink="http://www.w3.org/1999/xlink">
    <!-- Generator: Sketch 61.2 (89653) - https://sketch.com -->
    <title>Startnext Logo monochrom konvertiert</title>
    <desc>Created with Sketch.</desc>
    <g id="Startnext-Logo-monochrom-konvertiert" stroke="none" stroke-width="1" fill="none" fill-rule="evenodd">
        <g id="Startnext_Logo_Typo_bq" transform="translate(125.000000, 372.000000)" fill="#FFFFFF" fill-rule="nonzero">
            <g id="Group" transform="translate(0.000000, 53.000000)">
                <path d="M238.77002,0.480957031 L223.6,128.1 L76.9,140.7 C42.2,143.7 11.6,118 8.7,83.2 C5.8,48.4 31.4,17.9 66.1,15 L238.77002,0.480957031 Z" id="Path"></path>
                <path d="M168,289.6 L0,304 L15,176.1 L157.2,163.9 C191.9,160.9 222.5,186.6 225.4,221.4 C228.5,256.1 202.7,286.6 168,289.6" id="Path"></path>
            </g>
            <path d="M366,76.9 C362,68.8 356,66.2 344.7,67.1 C333.1,68.1 328.3,74.2 328.9,81.3 C329.4,87.5 335.8,91.2 349.8,94 C372.2,98.7 382.6,108.5 384.1,125.7 C386.3,151.5 369.3,170.2 335.1,173.2 C312,175.2 297.7,169.8 287.6,156.3 L311.2,138.5 C316.6,146 323.9,148.8 335.3,147.8 C348.7,146.7 353.5,140.2 352.9,133.2 C352.4,127.2 346.9,124 330.9,120 C312,115.4 299.5,105.4 298,87.8 C296.1,65.5 309.1,44.7 347,41.4 C367.2,39.7 381.9,45.9 389.5,59.3 L366,76.9 Z" id="Path"></path>
            <polygon id="Path" points="499.7 30.5 497 56.2 464 59 453.1 161.6 422.7 164.2 433.7 61.6 400.7 64.4 403.5 38.8"></polygon>
            <path d="M487.5,158.7 L544.8,26.7 L574,24.2 L604.1,148.7 L572.9,151.4 L568.5,130 L529.7,133.3 L520.8,155.8 L487.5,158.7 Z M540.3,107.1 L563.4,105.1 L555.8,68.2 L540.3,107.1 Z" id="Shape"></path>
            <path d="M695.5,141 L679.7,94.3 L664,95.7 L658.8,144.2 L628.4,146.8 L642,18.5 L689.6,14.4 C715,12.2 731.7,24.4 733.6,45.6 C735.2,64.4 726.6,78.2 709.3,86.7 L728.8,138.1 L695.5,141 Z M680.2,68.8 C694.3,67.6 704,64.7 702.7,50.1 C701.9,40.8 694,39.4 683.1,40.4 L669.6,41.6 L666.7,70 L680.2,68.8 Z" id="Shape"></path>
            <polygon id="Path" points="849.6 0 753.5 8.2 750.8 34 783.7 31.2 772.8 134.2 803.1 131.6 813.9 28.6 846.8 25.8"></polygon>
            <polygon id="Path" points="393.2 196.4 379.4 325.7 354.7 327.6 314.4 259.9 306.8 331.5 277.6 334 291.4 205.2 315.7 203.1 356.1 273.9 364 198.9"></polygon>
            <polygon id="Path" points="519.6 185.5 516.8 211.8 466.4 216.1 464 240.1 508.7 236.2 505.9 262.5 461.1 266.3 458.1 294.8 508.5 290.5 505.7 315.4 424.3 322.2 438.3 192.5"></polygon>
            <polygon id="Path" points="530.9 313.5 574.3 242.5 549.1 183 582.1 180.1 596.5 215.9 618 177.1 652.3 174.1 613.1 241.1 641.9 304.5 609.4 307.3 591.4 268.6 565.6 310.7"></polygon>
            <polygon id="Path" points="765.9 164.5 763.1 190.7 729.6 193.6 718.6 298.6 687.7 301.2 698.7 196.2 665.2 199.1 668.1 172.9"></polygon>
        </g>
    </g>
</svg>