<svg xmlns="http://www.w3.org/2000/svg" xmlns:xlink="http://www.w3.org/1999/xlink" viewBox="0 0 1920 154" xmlns:v="https://vecta.io/nano"><style><![CDATA[.P{isolation:isolate}.W{fill-rule:evenodd}.X{fill:#fff}.Y{fill:#227279}.Z{stroke-miterlimit:10}.a{stroke:#227279}.b{fill:none}.c{stroke-miterlimit:11.34}.d{fill:#f6f6f6}.e{stroke-width:.57}.f{stroke-width:2}.g{stroke-dasharray:11.94 11.94}.h{font-family:MyriadPro-Regular,Myriad Pro}]]></style><path d="M0 0h1920v154H0z" fill="#66bdb6"/><g stroke="#ffed00" class="Z b f"><path d="M-184.2,113.62C-157.74,90-100.07,47.9-17.38,43.79c67.91-3.37,120,20.48,146.39,35.55" stroke-dasharray="12.26 12.26"/><path d="M134.3 82.45l5.1 3.15m68.52 23.22q2-2 4.24-4.23"/><path d="M221.07,96.24C243.71,76,280,50.19,329.85,38,445.69,9.64,542.1,77.3,572.65,102.12" stroke-dasharray="12.22 12.22"/><path d="M577.35 106l4.5 4m-65.03-3.5q1.86-2 4.1-4.38"/><path d="M529.24,93.84c20.39-19.33,55-45.48,103.71-57C734.1,12.88,817.1,70.58,844.6,93" stroke-dasharray="11.74 11.74"/><path d="M849.11 96.72l4.48 4M324 99.53l3.73-4.7"/><path d="M335.39,85.65C372.05,42.75,479.19-65.49,649.21-79.3,875-97.65,1022.24,66,1056.48,108.63" class="g"/><path d="M1060.18 113.32l3.61 4.8m210.56-37.75q-2.53-1.45-5.22-2.94"/><path d="M1258.73,71.89a359.56,359.56,0,0,0-109.8-35.65C1039.11,19.5,928.28,82.09,885,107.57" stroke-dasharray="11.78 11.78"/><path d="M879.89 110.57l-5.17 3m201.84-26.81l2.75-5.33"/><path d="M1085,70.92c86.46-155.28,253.8-246.18,424.73-230.35,211.86,19.61,322,193.24,347.45,239.1" class="g"/><path d="M1860 84.91l2.73 5.33m-178.81-12.77l-4.33-4.16"/><path d="M1669.53,65.54a85.21,85.21,0,0,0-69.23-11.3c-31.25,8.49-47.38,32.25-54.52,46.65" stroke-dasharray="12.72 12.72"/><path d="M1543.14 106.68l-2.06 5.63m-54.58-11.61l-3.93-4.54"/><path d="M1474,87.32c-16.65-16.11-47-39.26-90.89-47-60.88-10.75-108.85,15-129.52,28.86" stroke-dasharray="12.3 12.3"/><path d="M1248.57 72.69l-4.78 3.62"/></g><g class="Y"><path d="M-.88 138.66h1919.81v13.89H-.88z"/><path d="M509.26,139.36V115.7l-1.4-.79s2-.34,2.64-1.06a45.93,45.93,0,0,0,2.51-4.64l-.37-1h4l4.09-1h35.94l4.09,1h4l-.37,1a45.93,45.93,0,0,0,2.51,4.64c.61.72,2.64,1.06,2.64,1.06l-1.4.79v23.66l-29.36.55h-.08l-29.36-.55Z" class="W"/><path d="M524.69 104.19h1.2v3.74h-1.2zm7.6 2.11h.84v1.37h-.84zm11.88-1.12h1.71v2.98h-1.71z"/></g><g class="X"><path d="M513.12 131.53h2.01v3.8h-2.01zm0-7.55h2.01v3.8h-2.01zm0-7.92h2.01v3.8h-2.01zm5.29 15.47h2.01v3.8h-2.01zm0-7.55h2.01v3.8h-2.01zm0-7.92h2.01v3.8h-2.01zm5.12 15.47h2.01v3.8h-2.01zm0-7.55h2.01v3.8h-2.01zm0-7.92h2.01v3.8h-2.01zm28.19 15.47h2.01v3.8h-2.01zm0-7.55h2.01v3.8h-2.01zm0-7.92h2.01v3.8h-2.01zm5.29 15.47h2.01v3.8h-2.01zm0-7.55h2.01v3.8h-2.01zm0-7.92h2.01v3.8h-2.01zm5.12 15.47h2.01v3.8h-2.01zm0-7.55h2.01v3.8h-2.01zm0-7.92h2.01v3.8h-2.01zm-30.37 15.47h2.01v3.8h-2.01zm0-7.55h2.01v3.8h-2.01zm0-7.92h2.01v3.8h-2.01zm5.97 9.18h2.01v3.8h-2.01z"/><path d="M536.72,131.87c1.16-1.09,2.4-1.52,3.85,0v6.56h-3.85Z" class="W"/><path d="M537.77 116.06h2.01v3.8h-2.01zm5.76 15.47h2.01v3.8h-2.01zm0-7.55h2.01v3.8h-2.01zm0-7.92h2.01v3.8h-2.01z"/><path d="M513.28 110.74a1.62 1.62 0 0 1 1.93 0v2.12h-1.93zm5.39 0a1.62 1.62 0 0 1 1.93 0v2.12h-1.93zm5.23 0a1.62 1.62 0 0 1 1.93 0v2.12h-1.93zm27.59 0a1.62 1.62 0 0 1 1.93 0v2.12h-1.93zm5.39 0a1.6 1.6 0 0 1 1.92 0v2.12h-1.92zm5.22 0a1.62 1.62 0 0 1 1.93 0v2.12h-1.93z" class="W"/></g><g class="Y"><path d="M1526.88,139.34V115.68l-1.4-.79s2-.34,2.64-1.06a45.93,45.93,0,0,0,2.51-4.64l-.37-1h4l4.09-1h35.94l4.09,1h4l-.37,1a45.93,45.93,0,0,0,2.51,4.64c.61.72,2.64,1.06,2.64,1.06l-1.4.79v23.66l-29.36.55h-.08l-29.36-.55Z" class="W"/><path d="M1542.31 104.17h1.2v3.74h-1.2zm7.6 2.12h.84v1.37h-.84zm11.87-1.12h1.71v2.98h-1.71z"/></g><g class="X"><path d="M1530.73 131.51h2.01v3.8h-2.01zm0-7.54h2.01v3.8h-2.01zm0-7.93h2.01v3.8h-2.01zm5.29 15.47h2.01v3.8h-2.01zm0-7.54h2.01v3.8h-2.01zm0-7.93h2.01v3.8h-2.01zm5.13 15.47h2.01v3.8h-2.01zm0-7.54h2.01v3.8h-2.01zm0-7.93h2.01v3.8h-2.01zm28.19 15.47h2.01v3.8h-2.01zm0-7.54h2.01v3.8h-2.01zm0-7.93h2.01v3.8h-2.01zm5.29 15.47h2.01v3.8h-2.01zm0-7.54h2.01v3.8h-2.01zm0-7.93h2.01v3.8h-2.01zm5.12 15.47h2.01v3.8h-2.01zm0-7.54h2.01v3.8h-2.01zm0-7.93h2.01v3.8h-2.01zm-30.38 15.47h2.01v3.8h-2.01zm0-7.54h2.01v3.8h-2.01zm0-7.93h2.01v3.8h-2.01zm5.98 9.18h2.01v3.8h-2.01z"/><path d="M1554.33,131.85c1.17-1.09,2.41-1.52,3.86,0v6.56h-3.86Z" class="W"/><path d="M1555.39 116.04h2.01v3.8h-2.01zm5.76 15.47h2.01v3.8h-2.01zm0-7.54h2.01v3.8h-2.01zm0-7.93h2.01v3.8h-2.01z"/><g class="W"><use xlink:href="#B"/><use xlink:href="#B" x="5.39"/><path d="M1541.52,110.72a1.62,1.62,0,0,1,1.92,0v2.12h-1.92Z"/><use xlink:href="#B" x="38.21"/><use xlink:href="#B" x="43.59"/><use xlink:href="#B" x="48.82"/></g></g><g class="Y"><path d="M55.12 138.08v-11l-.93-.76a30.7 30.7 0 0 0 5-2.68l6.22-4.1-.16-.41a3.54 3.54 0 0 0 1.58-.36 5.24 5.24 0 0 1 .59-.44v-1.71l-.81-2.22h.78v-.49l.16-.16V113l-.21-.14v-.25l.17-.06v-.13l.24-.06v-2.54l-.21-.8v-.27h.3V107l-.68-2.77 1-.36h.67v-5.22l-.38-1.75H72v41.76l-16.87-.58zm33.75 0v-11l.92-.76a30.7 30.7 0 0 1-5-2.68l-6.22-4.1.16-.41a3.54 3.54 0 0 1-1.58-.36 5.24 5.24 0 0 0-.59-.44v-1.71l.82-2.22h-.79v-.49l-.16-.16V113l.21-.14v-.25l-.17-.06v-.13l-.24-.06v-2.54l.22-.8v-.27h-.31V107l.68-2.77-1-.36h-.66v-5.22l.37-1.75H72v41.76l16.87-.58z" class="W"/><path d="M68.54 97l-.22-.23s1.05-1.08 1.1-1.52.28-1.33.28-1.33l-.26-.39v-1.26l.35-.21s0-2 .34-2.21a3.24 3.24 0 0 1 1.28-.71 3.89 3.89 0 0 0 .51 0h0 .2 0a3.78 3.78 0 0 0 .51 0 3.24 3.24 0 0 1 1.28.71c.34.26.34 2.21.34 2.21l.35.21v1.26l-.26.39.28 1.33c.05.44 1.1 1.52 1.1 1.52l-.22.23-3.36.55h0-.1-.1 0l-3.4-.55z" class="W"/><path d="M72 86.83h.34v2.5H72z"/><ellipse cx="72.2" cy="86.68" rx=".45" ry=".68"/><path d="M72.16 83.94h.06v2.23h-.06z"/></g><g class="X"><circle cx="59.27" cy="128.08" r=".97"/><circle cx="63.51" cy="128.08" r=".97"/><circle cx="63.51" cy="128.08" r=".97"/><circle cx="80.48" cy="128.08" r=".97"/><circle cx="84.72" cy="128.08" r=".97"/><circle cx="72" cy="127.63" r=".97"/><path d="M58.05 130.15h2.39v5.24h-2.39zm4.07 0h2.39v5.24h-2.39z"/><path d="M62.34 130.15h2.39v5.24h-2.39zm16.93 0h2.39v5.24h-2.39zm4.29 0h2.39v5.24h-2.39z"/><path d="M70.66 133.85a1.77 1.77 0 0 1 2.67 0v4.09h-2.67zm.22-14.39a1.4 1.4 0 0 1 2.09 0v3.14h-2.09zm0-10.24a1.4 1.4 0 0 1 2.09 0v3.15h-2.09z" class="W"/><circle cx="72" cy="106.63" r=".97"/><circle cx="72" cy="97.75" r=".62"/><path d="M71.38 99.15h1.1v1.54h-1.1z"/><circle cx="72.1" cy="94.2" r=".55"/></g><g class="Y"><g class="W"><path d="M1489.38 139.32v-11l-.92-.76a31.15 31.15 0 0 0 5-2.67l6.22-4.11-.16-.41a3.54 3.54 0 0 0 1.58-.36 5.24 5.24 0 0 1 .59-.44v-1.71l-.82-2.22h.79v-.49l.16-.16v-.83l-.21-.14v-.25l.17-.06v-.13l.24-.06V111l-.22-.8v-.27h.31v-1.68l-.68-2.77 1-.36h.66v-5.23l-.37-1.75h3.51v41.76l-16.87-.58zm33.75 0v-11l.93-.76a31.15 31.15 0 0 1-5-2.67l-6.22-4.11.16-.41a3.6 3.6 0 0 1-1.59-.36 4.84 4.84 0 0 0-.58-.44v-1.71l.81-2.22h-.78v-.49l-.16-.16v-.83l.21-.14v-.25l-.17-.06v-.13l-.24-.06V111l.21-.8v-.27h-.3v-1.68l.68-2.77-1-.36h-.67v-5.23l.38-1.75h-3.52v41.76l16.87-.58z"/><path d="M1502.8 98.23l-.22-.23s1.06-1.08 1.11-1.52.28-1.33.28-1.33l-.26-.39V93.5l.34-.21s0-2 .35-2.21a3.17 3.17 0 0 1 1.28-.71 3.89 3.89 0 0 0 .51 0h0 .2 0a3.63 3.63 0 0 0 .5 0 3.11 3.11 0 0 1 1.28.71c.35.26.35 2.21.35 2.21l.34.21v1.26l-.26.39.27 1.33c.05.44 1.13 1.52 1.13 1.52l-.22.23-3.36.55h0-.1-.1 0l-3.37-.55z"/></g><path d="M1506.27 88.07h.34v2.5h-.34z"/><ellipse cx="1506.47" cy="87.92" rx=".45" ry=".68"/><path d="M1506.42 85.18h.06v2.23h-.06z"/></g><g class="X"><circle cx="1493.54" cy="129.32" r=".97"/><circle cx="1497.78" cy="129.32" r=".97"/><circle cx="1497.78" cy="129.32" r=".97"/><circle cx="1514.75" cy="129.32" r=".97"/><circle cx="1518.99" cy="129.32" r=".97"/><circle cx="1506.27" cy="128.87" r=".97"/><path d="M1492.32 131.39h2.39v5.24h-2.39zm4.07 0h2.39v5.24h-2.39z"/><path d="M1496.6 131.39h2.39v5.24h-2.39zm16.94 0h2.39v5.24h-2.39zm4.29 0h2.39v5.24h-2.39z"/><path d="M1504.93 135.09a1.77 1.77 0 0 1 2.67 0v4.09h-2.67zm.22-14.39a1.4 1.4 0 0 1 2.09 0v3.14h-2.09zm0-10.24a1.4 1.4 0 0 1 2.09 0v3.15h-2.09z" class="W"/><circle cx="1506.27" cy="107.87" r=".97"/><circle cx="1506.27" cy="98.99" r=".62"/><path d="M1505.65 100.39h1.1v1.54h-1.1z"/><circle cx="1506.36" cy="95.44" r=".55"/></g><g class="Y"><g class="W"><path d="M1024.59,138.26V118.5l1.11-1.59-3.18-1.21v-1.87h-2.79s-.45-.61-.29-1a.74.74,0,0,0-.17-.75,1.21,1.21,0,0,0-.88-.23c-.4.12-.47-.35-.47-.35h-1.49a4.77,4.77,0,0,1-1.59-1.28c-.49-.72,0-5.42,0-5.42l.72-3.08h-.89V96.55l.67-4.48h-1.59v-.79H1009v47.58l15.6-.6Z"/><path d="M993.43,138.26V118.5l-1.11-1.59,3.18-1.21v-1.87h2.8s.44-.61.28-1a.74.74,0,0,1,.17-.75,1.23,1.23,0,0,1,.88-.23c.4.12.47-.35.47-.35h1.5a4.87,4.87,0,0,0,1.59-1.28c.48-.72,0-5.42,0-5.42l-.73-3.08h.9V96.55l-.68-4.48h1.6v-.79H1009v47.58l-15.61-.6Z"/><path d="M1005.56,91.28V88.47l.5-.4V86.49l1.25-1.22V83.93l.33-.16v-.84a2.44,2.44,0,0,1,.56-.45,2.25,2.25,0,0,1,.64-.2v0h.09v0a2.12,2.12,0,0,1,.63.2,2.36,2.36,0,0,1,.57.45v.84l.33.16v1.34l1.25,1.22v1.58l.49.4v2.81l-3.27.17h-.09Z"/></g><path d="M1008.67 81.49h.43v.93h-.43z"/><circle cx="1008.87" cy="81.24" r=".36"/></g><g class="W"><path d="M997.22 114.07l.82-3.92.45 4.16-1.27-.24z" fill="#2c2b2a"/><g class="Y"><path d="M1000.26 111.64v-1.78h.37v-.56h.41v.53h.36v2.46l-1.14-.65zm-3.04 2.43l.82-3.92.45 4.16-1.27-.24z"/><path d="M1000.08 111.64v-1.78h.37v-.56h.41v.53h.36v2.46l-1.14-.65zm20.83 2.31l-.82-3.92-.44 4.16 1.26-.24zm-3.03-2.43v-1.77h-.38v-.57h-.41v.53h-.36v2.46l1.15-.65z"/></g><path d="M1007 131.26c1.24-1.08 2.54-1.51 4.07 0v6.5H1007zm.45-11.26c.91-1 1.87-1.34 3 0v5.79h-3zm10.26 1.6c.46-1.29.94-1.8 1.51 0v7.78h-1.51zm-18.29 0c.46-1.29.94-1.8 1.51 0v7.78h-1.51zm8.71-12.87a1 1 0 0 1 1.5 0v2.33h-1.5zm0-3.83a1 1 0 0 1 1.5 0v2.33h-1.5zm-.38-9.23a1.78 1.78 0 0 1 2.12 0V98h-2.12z" class="X"/></g><circle cx="1008.86" cy="88.38" r=".64" class="X"/><path d="M1008.61 83.79c.14-.16.28-.23.45 0v1h-.45zm-.81.27a.29.29 0 0 1 .45 0v.73h-.45zm1.7 0a.29.29 0 0 1 .45 0v.73h-.45z" class="W X"/><path d="M998.11 133.35h1.78v4.19h-1.78zm20.29 0h1.78v4.19h-1.78z" class="X"/><g class="W Y"><path d="M248.47 139.4v-7.63h-.2V131h.21l.2-1.38-.33-.57h.42v-13.69l-.25-.45h.5l-.14-.53h.27v-.61l-.35-.2s-.1.2 0-.15-.49-.56-.49-.56v-.43l-1.19-.68 10.35-1.8 5.8-1.73h28.41v-1l-.44-.77h25.56l-.45.77v1h28.41l5.8 1.73c.8.26 10.36 1.8 10.36 1.8l-1.2.68v.43s-.6.22-.49.56 0 .15 0 .15l-.34.2v.61h.27l-.14.53h.5l-.26.45v13.69h.43l-.34.57.21 1.38h.2v.77h-.19v7.63l-55.45.68h-.21l-55.45-.68z"/><path d="M291.93 106.56l.32-.25v-.2l.26-.21s.12-.12 0-.26-.17-.18-.17-.24.1-.17.1-.17v-.14s-.1.06 0-.16a.57.57 0 0 0 .09-.32l-.65-1.17.17-.09.06.13h.42s.1-.54.27-.54a.59.59 0 0 1 .33.17l.09.22.17.22.14.38v.53.17.3.4h.17v.87s.21.2.17.38 0 .51-.13.51-1.65-.57-1.65-.57z"/></g><path d="M292.17 103.72l.25.34-.06-.32-.19-.02z" class="W X"/><g class="Y"><path d="M298.72 106.59v-.33l.07-.48-.22-.19v-.39-.26a.88.88 0 0 0-.08-.43v-.86l.06-.09v-.72l.18.76.07.23v-.18s.18-.25.33-.27.16-.08.16-.13-.09-.38 0-.49a.46.46 0 0 1 .19-.16s0 .11.08.09.09 0 .06-.06.13-.28.13-.28h.1v.39a.92.92 0 0 1 0 .37c0 .08-.18.11-.18.11v.21s.2.08.26 0 0 0 .07.07.08.16.21.16.08-.1.18 0 .15.17.07.3-.22.2-.26.27.17.11.17.11a.36.36 0 0 1 0 .33c-.11.2-.2.11-.17.21s.12 0 .12.2.07.06 0 .24-.08.08-.08.17.1.07.1.2.05.3 0 .39a.46.46 0 0 0-.11.28 2.21 2.21 0 0 1-.06.3l-1.41-.14zm1.71-.02a1.17 1.17 0 0 1 .22-.48.58.58 0 0 0 .17-.46.93.93 0 0 1 .09-.45c.06-.13.09-.39.17-.46s.26-.16.28-.08a.94.94 0 0 1-.08.36 4.39 4.39 0 0 0-.11.46 2.51 2.51 0 0 0 .41.13h.15s-.1 0 0-.13.15-.07.13-.13a.15.15 0 0 1 0-.13c0-.06.08 0 .08-.11s0-.08.07-.07 0 .1 0 .1.1-.05.13-.05h.09s.1 0 .11.05-.12.07-.12.12a.27.27 0 0 0 0 .15v.16c0 .01-.1 0-.1.08v.09c0 .01.17 0 .17.08s.46.57.46.57-.1.13-.13.13h-.18l-.22-.29s0-.06-.05 0-.06.08-.08.15 0 .16-.1.15a3.62 3.62 0 0 1-.68-.08v-.51-.2l-.2-.09s-.05-.1-.1 0a.72.72 0 0 0-.09.24c0 .08-.06 0-.06.16a.68.68 0 0 1 0 .19v.23a2.77 2.77 0 0 1-.4 0z" class="W"/><ellipse cx="304.15" cy="105.35" rx="1.01" ry=".55"/><g class="W"><path d="M303.57 105.75v.47a.54.54 0 0 0-.22 0 .82.82 0 0 0-.3.07l-.32.26 1.27.45c.05 0 1.49-.19 1.49-.21s.11-.25 0-.3l-.43-.19-.26-.09v-.42zm.43-.83h.23v-.48c-.08-.11-.15-.1-.23 0zm-.16.39l.21-.08-.17-.44c-.06-.14-.18-.05-.21.08z"/><path d="M303.6,105.34l.21-.08-.16-.45c-.12-.08-.18,0-.22.09l.17.44Z"/><path d="M303.5,105.43l.18-.14-.29-.38c-.13,0-.18,0-.18.14Z"/><path d="M303.53,105.45l.08-.22-.45-.14c-.14,0-.15.11-.08.21l.45.15Z"/><path d="M303.55,105.51l-.05-.23-.46.1c-.1.09-.08.17,0,.22l.47-.09Z"/><path d="M303.78 105.61l-.13-.19-.39.27c-.05.13 0 .19.13.19l.39-.27zm.64-.32l-.21-.08.16-.45c.12-.08.18 0 .22.08z"/><path d="M304.66 105.32l-.21-.09.16-.44c.05-.15.18 0 .22.08z"/><path d="M304.76,105.41l-.18-.14.28-.38c.13,0,.19,0,.19.14Z"/><path d="M304.72,105.43l-.07-.22.45-.15c.13,0,.14.12.07.22Z"/><path d="M304.71,105.48l.05-.22.46.09c.1.1.08.17,0,.23Z"/><path d="M304.48,105.59l.13-.19.39.27c.05.13,0,.19-.13.19l-.39-.27Z"/></g></g><ellipse cx="304.13" cy="105.35" rx=".76" ry=".41" class="X"/><path d="M309.69 106.59v-.33l-.07-.48.22-.19v-.39-.26a.83.83 0 0 1 .07-.43v-.86l-.05-.09v-.72l-.19.76-.06.23-.05-.18s-.19-.25-.34-.27-.15-.08-.15-.13.09-.38 0-.49a.54.54 0 0 0-.19-.16s0 .11-.08.09-.1 0-.07-.06-.13-.28-.13-.28h-.09v.39a1 1 0 0 0 0 .37c0 .08.19.11.19.11v.21s-.2.08-.26 0 0 0-.06.07-.09.16-.22.16-.07-.1-.18 0-.15.17-.06.3.21.2.26.27-.17.11-.17.11a.32.32 0 0 0 0 .33c.1.2.2.11.16.21s-.12 0-.12.2-.06.06 0 .24.09.08.09.17-.11.07-.11.2v.39a.46.46 0 0 1 .11.28 2.21 2.21 0 0 0 .06.3l1.42-.14zm-1.69-.02a1.34 1.34 0 0 0-.22-.48.59.59 0 0 1-.18-.46 1.06 1.06 0 0 0-.08-.45c-.07-.13-.09-.39-.18-.46s-.26-.16-.28-.08a.82.82 0 0 0 .09.36c0 .14.1.46.1.46a2.22 2.22 0 0 1-.41.13h-.15s.11 0 0-.13-.14-.07-.13-.13a.15.15 0 0 0 0-.13c0-.06-.08 0-.08-.11s0-.08-.06-.07 0 .1 0 .1-.09-.05-.13-.05h-.08s-.1 0-.1.05.11.07.11.12v.15.16c0 .01.09 0 .09.08v.09c0 .01-.17 0-.17.08s-.45.57-.45.57.09.13.12.13h.19l.21-.29s0-.06.06 0 0 .08.07.15 0 .16.1.15a3.64 3.64 0 0 0 .69-.08v-.51-.2l.21-.09s0-.1.1 0a1 1 0 0 1 .08.24c0 .08.07 0 .07.16a1.34 1.34 0 0 0 0 .19v.23a2.91 2.91 0 0 0 .41 0zm8.12-.01l-.32-.25v-.2l-.26-.21a.16.16 0 0 1 0-.26c.17-.15.18-.18.18-.24s-.1-.17-.1-.17v-.14s.11.06 0-.16a.6.6 0 0 1-.08-.32l.64-1.17-.16-.09-.07.13h-.41s-.1-.54-.27-.54a.59.59 0 0 0-.34.17l-.08.22-.17.22-.14.38v.53l.05.17v.3.4h-.16v.87s-.21.2-.17.38 0 .51.13.51 1.65-.57 1.65-.57z" class="W Y"/><g class="X"><path d="M315.88 103.72l-.26.34.07-.32.19-.02z" class="W"/><use xlink:href="#C"/><use xlink:href="#C" x="5.84"/><use xlink:href="#C" x="11.68"/><use xlink:href="#C" x="17.53"/><use xlink:href="#C" x="23.37"/><use xlink:href="#C" x="29.21"/><use xlink:href="#C" x="35.05"/><use xlink:href="#C" x="5.84"/><use xlink:href="#C" x="11.68"/><use xlink:href="#C" x="17.53"/><use xlink:href="#C" x="23.37"/><use xlink:href="#C" x="29.21"/><use xlink:href="#C" x="35.05"/><use xlink:href="#C" y="-7.58"/><use xlink:href="#C" x="5.84" y="-7.58"/><use xlink:href="#C" x="11.68" y="-7.58"/><use xlink:href="#C" x="17.53" y="-7.58"/><use xlink:href="#C" x="23.37" y="-7.58"/><use xlink:href="#C" x="29.21" y="-7.58"/><use xlink:href="#C" x="35.05" y="-7.58"/><use xlink:href="#C" y="-17.27"/><use xlink:href="#C" x="5.84" y="-17.27"/><use xlink:href="#C" x="11.68" y="-17.27"/><use xlink:href="#C" x="17.53" y="-17.27"/><use xlink:href="#C" x="23.37" y="-17.27"/><use xlink:href="#C" x="29.21" y="-17.27"/><use xlink:href="#C" x="35.05" y="-17.27"/><use xlink:href="#C" x="67.63"/><use xlink:href="#C" x="73.47"/><use xlink:href="#C" x="79.31"/><use xlink:href="#C" x="85.16"/><use xlink:href="#C" x="91"/><use xlink:href="#C" x="96.84"/><use xlink:href="#C" x="102.68"/><use xlink:href="#C" x="67.63" y="-7.58"/><use xlink:href="#C" x="73.47" y="-7.58"/><use xlink:href="#C" x="79.31" y="-7.58"/><use xlink:href="#C" x="85.16" y="-7.58"/><use xlink:href="#C" x="91" y="-7.58"/><use xlink:href="#C" x="96.84" y="-7.58"/><use xlink:href="#C" x="102.68" y="-7.58"/><use xlink:href="#C" x="67.63" y="-17.27"/><use xlink:href="#C" x="73.47" y="-17.27"/><use xlink:href="#C" x="79.31" y="-17.27"/><use xlink:href="#C" x="85.16" y="-17.27"/><use xlink:href="#C" x="91" y="-17.27"/><use xlink:href="#C" x="96.84" y="-17.27"/><use xlink:href="#C" x="102.68" y="-17.27"/><use xlink:href="#C" x="58.61"/><path d="M310.49 123.67h2.22v4.87h-2.22zm0-10.43h2.22v4.87h-2.22zm-5.97 0h2.22v4.87h-2.22zm0 10.47h2.22v4.87h-2.22z"/><use xlink:href="#C" x="43.62"/><path d="M295.5 123.67h2.22v4.87h-2.22zm0-10.43h2.22v4.87h-2.22zm5.97 0h2.22v4.87h-2.22zm0 10.47h2.22v4.87h-2.22z"/><path d="M301.08,132.7a4.79,4.79,0,0,1,5.76,0v6.43h-5.76Z" class="W"/></g><g class="Y"><path d="M651.48 78.7h67.62v58.54h-67.62z"/><path d="M646.09 134.78h78.4v11.25h-78.4z"/></g><path d="M653.83 82.96h62.89v48.33h-62.89z" class="X"/><g class="Y"><use xlink:href="#D"/><use xlink:href="#D" y="5.3"/><use xlink:href="#D" y="11.16"/><use xlink:href="#D" y="19.58"/><use xlink:href="#D" y="28.94"/><use xlink:href="#D" y="38.49"/><path d="M659.22 82.3h.57v55.89h-.57zm8.52-.38h.57v55.89h-.57zm10.87-.47h.57v55.89h-.57zm33 .85h.57v55.89h-.57zm-6.71-1.32h.57v55.89h-.57zm-8.51.38h.57v55.89h-.57zm-8.23 0h.57v55.89h-.57zm940.13-2.66h67.62v58.54h-67.62z"/><path d="M1622.89 134.78h78.4v11.25h-78.4z"/></g><path d="M1630.63 82.96h62.89v48.33h-62.89z" class="X"/><g class="Y"><use xlink:href="#D" x="976.8"/><use xlink:href="#D" x="976.8" y="5.3"/><use xlink:href="#D" x="976.8" y="11.16"/><use xlink:href="#D" x="976.8" y="19.58"/><use xlink:href="#D" x="976.8" y="28.94"/><use xlink:href="#D" x="976.8" y="38.49"/><path d="M1636.02 82.3h.57v55.89h-.57zm8.52-.38h.57v55.89h-.57zm10.87-.47h.57v55.89h-.57zm33 .85h.57v55.89h-.57zm-6.71-1.32h.57v55.89h-.57zm-8.51.38h.57v55.89h-.57zm-8.23 0h.57v55.89h-.57z"/><path d="M990.64 143.08v-18.73h-5.85v-17.06h-3.72v-3.57h-27.62V91.16l-4.8-13.5v-2.83h-10.86v2.99h-10.32v5.7l-1.2-1.71-14.93 1.71v59.56h79.3z" class="W"/></g><path d="M947 106.13h32.11v2.48H947zm0 5.35h32.11v2.48H947zm0 5.51h32.11v2.48H947zm0 5.59h32.11v2.48H947zm-31.83 6.101l.257-39.849 3.08.02-.257 39.849zm5.586-.936l.257-39.849 3.08.02-.257 39.849zm11.011-5.425l.257-39.849 3.08.02-.257 39.849z" class="X"/><path d="M572.34 140.73v-25.3h4.8l-.14-.52-3.51-2.98v-.72h46.08v-9.82l1.86-3.73h15.83v14.23h3.99v27.05l-68.91 1.79z" class="W Y"/><text class="P X h" transform="translate(623.54 100.98)" font-size="2.43">SIEMENS</text><g class="X"><circle cx="629.45" cy="104.8" r="2.23"/><path d="M634.17 104.4h.89v1.69h-.89zm.14 3.85h.89v1.69h-.89zm0 3.92h.89v1.69h-.89zm-.14 4.05h.89v1.69h-.89zm.14 3.85h.89v1.69h-.89zm0 3.92h.89v1.69h-.89zm0 3.54h.89v1.69h-.89zm0 4.37h.89v1.69h-.89zm-5.85-.11h3.08v1.69h-3.08zm0-4.15h3.08v1.69h-3.08zm0-3.65h3.08v1.69h-3.08zm0-4h3.08v1.69h-3.08zm0-3.69h3.08v1.69h-3.08zm-.73-3.99h3.81V114h-3.81zm0-4.08h3.81v1.69h-3.81zm-3.74-3.83h.89v1.69h-.89zm.14 3.85h.89v1.69h-.89zm.24 10.29h.89v1.69h-.89zm0 3.57h.89v1.69h-.89zm-3.65-3.31h.89v1.69h-.89zm0 3.58h.89v1.69h-.89zm-3.88-3.58h.89v1.69h-.89zm0 3.58h.89v1.69h-.89z"/><use xlink:href="#E"/><use xlink:href="#E" x="-3.84"/><use xlink:href="#E" x="-7.33"/><use xlink:href="#E" x="-11.45"/><use xlink:href="#E" x="-15.29"/><use xlink:href="#E" x="-18.79"/><use xlink:href="#E" x="-23.13"/><use xlink:href="#E" x="-26.63"/><path d="M582.67 118.54h.89v1.69h-.89zm0 3.57h.89v1.69h-.89zm-3.66-3.31h.89v1.69h-.89zm0 3.58h.89v1.69h-.89zm-3.88-3.58h.89v1.69h-.89zm0 3.58h.89v1.69h-.89zm17 13.59h15.03v4.4h-15.03z"/></g><path d="M1711.69 140.73v-25.3h4.8l-.14-.52-3.51-2.98v-.72h46.07v-9.82l1.87-3.73h15.83v14.23h4v27.05l-68.92 1.79z" class="W Y"/><text class="P X h" transform="translate(1762.89 100.98)" font-size="2.43">SIEMENS</text><g class="X"><circle cx="1768.8" cy="104.8" r="2.23"/><path d="M1773.52 104.4h.89v1.69h-.89zm.14 3.85h.89v1.69h-.89zm0 3.92h.89v1.69h-.89zm-.14 4.05h.89v1.69h-.89zm.14 3.85h.89v1.69h-.89zm0 3.92h.89v1.69h-.89zm0 3.54h.89v1.69h-.89zm0 4.37h.89v1.69h-.89zm-5.85-.11h3.08v1.69h-3.08zm0-4.15h3.08v1.69h-3.08zm0-3.65h3.08v1.69h-3.08zm0-4h3.08v1.69h-3.08zm0-3.69h3.08v1.69h-3.08zm-.73-3.99h3.81V114h-3.81zm0-4.08h3.81v1.69h-3.81zm-3.74-3.83h.89v1.69h-.89zm.14 3.85h.89v1.69h-.89zm.24 10.29h.89v1.69h-.89zm0 3.57h.89v1.69h-.89zm-3.65-3.31h.89v1.69h-.89zm0 3.58h.89v1.69h-.89zm-3.88-3.58h.89v1.69h-.89zm0 3.58h.89v1.69h-.89z"/><use xlink:href="#E" x="1139.35"/><use xlink:href="#E" x="1135.51"/><use xlink:href="#E" x="1132.02"/><use xlink:href="#E" x="1127.9"/><use xlink:href="#E" x="1124.06"/><use xlink:href="#E" x="1120.56"/><use xlink:href="#E" x="1116.22"/><use xlink:href="#E" x="1112.72"/><path d="M1722.02 118.54h.89v1.69h-.89zm0 3.57h.89v1.69h-.89zm-3.65-3.31h.89v1.69h-.89zm0 3.58h.89v1.69h-.89zm-3.89-3.58h.89v1.69h-.89zm0 3.58h.89v1.69h-.89zm17 13.59h15.03v4.4h-15.03z"/></g><path d="M1447.48,139.55v-25.3l-.74-1.28.48.13v-1.84l-1.49-2.79a9.54,9.54,0,0,0,2.89-.92,14.4,14.4,0,0,0,3.75-3.61c.14-.35-.29-1.07-.29-1.07l.9-.6-.36-.61,3.42-.11,6.75-1.46h9.38l6.74,1.46,3.43.11-.36.61.89.6s-.43.72-.28,1.07a14.49,14.49,0,0,0,3.74,3.61,9.63,9.63,0,0,0,2.89.92l-1.48,2.79v1.84l.47-.13-.74,1.28v25.3l-19.8.84h-.39l-19.8-.84Z" class="W Y"/><g class="X"><path d="M1452.41 122.76h2.64v5.14h-2.64zm7.28 0h2.64v5.14h-2.64zm14.2 0h2.64v5.14h-2.64zm7.28 0h2.64v5.14h-2.64zm0-8.74h2.64v4.1h-2.64zm-7.21 0h2.64v4.1h-2.64zm-7.49.16h2.64v4.1h-2.64zm-6.85.28h2.64v4.1h-2.64zm-7.03 0h2.64v4.1h-2.64z"/><path d="M1465.54 132.82c1.83-1.23 3.76-1.71 6 0v7.37h-6zm.83-9.77a2.77 2.77 0 0 1 3.56 0v4.33h-3.56zm-13.95 10.06a1.66 1.66 0 0 1 2.63 0v4.33h-2.63zm7.2 0a1.67 1.67 0 0 1 2.64 0v4.33h-2.64zm14.85-.01a1.65 1.65 0 0 1 2.63 0v4.33h-2.63zm7.2 0a1.65 1.65 0 0 1 2.63 0v4.33h-2.63z" class="W"/><path d="M1453.34 104.19h1.74v2.71h-1.74zm6.58 0h1.74v2.71h-1.74zm7.12.05h1.74v2.71h-1.74zm6.76 0h1.74v2.71h-1.74zm6.71 0h1.74v2.71h-1.74z"/></g><path d="M1589.41 118.31h1.67v-2.52h4.06v2.52h1.26v-2.52h4.06v2.52h1.29v-2.52h4.06v2.52h1.31v-2.52h4.05v2.52h1.69v20.47h-23.45v-20.47z" class="W Y"/><path d="M1591.58 126.27h2.8v2.8h-2.8zm5.39 0h2.8v2.8h-2.8zm5.41 0h2.8v2.8h-2.8zm5.38 0h2.8v2.8h-2.8zm-16.18-4.94h2.8v2.8h-2.8zm5.39 0h2.8v2.8h-2.8zm5.41 0h2.8v2.8h-2.8zm5.38 0h2.8v2.8h-2.8zm-15.99 10.58h5.5v6.01h-5.5zm6.02 0h5.5v6.01h-5.5zm6.06 0h7.6v6.01h-7.6z" class="X"/><g class="Y"><g class="W"><path d="M90.83 88.72h11.12V85.2h10v3.52h9.64v10.01h4.26v43.54h-4.26-2.04-28.72V88.72z"/><path d="M125.79 142.7h9.08 9.63 30.39V70.99H144.5v27.06h-9.63v13.52h-7.78v7.04h-1.3v24.09z"/></g><path d="M154.32 68.32h9.82v5.93h-9.82z"/><path d="M201.76 142.92h10.47 14.36v.09h15.57v-26.77h-14.92v-14.36h-.65v-5.19H215.1v5.19h-2.87V99h-10.47v3.25h-7.13v-4.08h-11.21v4.08h-9.08v40.67h27.42z" class="W"/></g><g class="X"><use xlink:href="#F"/><use xlink:href="#F" y="4.2"/><use xlink:href="#F" y="8.4"/><use xlink:href="#F" y="12.6"/><use xlink:href="#F" y="16.81"/><use xlink:href="#F" y="21.01"/><use xlink:href="#F" y="25.21"/><use xlink:href="#F" y="29.41"/><use xlink:href="#F" y="33.61"/><use xlink:href="#F" y="37.82"/><use xlink:href="#F" x="-19.56"/><use xlink:href="#F" x="-19.56" y="4.2"/><use xlink:href="#F" x="-19.56" y="8.4"/><use xlink:href="#F" x="-19.56" y="12.6"/><use xlink:href="#F" x="-19.56" y="16.81"/><use xlink:href="#F" x="-19.56" y="21.01"/><use xlink:href="#F" x="-19.56" y="25.21"/><use xlink:href="#F" x="-19.56" y="29.41"/><use xlink:href="#F" x="-19.56" y="33.61"/><use xlink:href="#F" x="-19.56" y="37.82"/><use xlink:href="#F" x="-10.6" y="1.34"/><use xlink:href="#F" x="-10.6" y="5.55"/><use xlink:href="#F" x="-10.6" y="9.75"/><path d="M104.23 106.59h1.93V108h-1.93z"/><use xlink:href="#F" x="-10.6" y="18.15"/><use xlink:href="#F" x="-10.6" y="22.35"/><use xlink:href="#F" x="-10.6" y="26.56"/><use xlink:href="#F" x="-10.6" y="30.76"/><use xlink:href="#F" x="-10.6" y="34.96"/><use xlink:href="#F" x="-10.6" y="39.16"/><use xlink:href="#F" x="-7.11" y="1.34"/><use xlink:href="#F" x="-7.11" y="5.55"/><use xlink:href="#F" x="-7.11" y="9.75"/><path d="M107.72 106.59h1.93V108h-1.93z"/><use xlink:href="#F" x="-7.11" y="18.15"/><use xlink:href="#F" x="-7.11" y="22.35"/><use xlink:href="#F" x="-7.11" y="26.56"/><use xlink:href="#F" x="-7.11" y="30.76"/><use xlink:href="#F" x="-7.11" y="34.96"/><use xlink:href="#F" x="-7.11" y="39.16"/><use xlink:href="#F" x="53.29" y="-19.48"/><use xlink:href="#F" x="53.29" y="-15.28"/><use xlink:href="#F" x="53.29" y="-11.08"/><use xlink:href="#F" x="53.29" y="-6.87"/><use xlink:href="#F" x="53.29" y="-2.67"/><use xlink:href="#F" x="53.29" y="1.53"/><use xlink:href="#F" x="53.29" y="5.73"/><use xlink:href="#F" x="53.29" y="9.93"/><use xlink:href="#F" x="53.29" y="14.14"/><use xlink:href="#F" x="53.29" y="18.34"/><use xlink:href="#F" x="45.51" y="-18.96"/><use xlink:href="#F" x="45.51" y="-14.76"/><use xlink:href="#F" x="45.51" y="-10.56"/><use xlink:href="#F" x="45.51" y="-6.36"/><use xlink:href="#F" x="45.51" y="-2.15"/><use xlink:href="#F" x="45.51" y="2.05"/><use xlink:href="#F" x="45.51" y="6.25"/><use xlink:href="#F" x="45.51" y="10.45"/><use xlink:href="#F" x="45.51" y="14.65"/><use xlink:href="#F" x="45.51" y="18.86"/><use xlink:href="#F" x="39.36" y="-18.96"/><use xlink:href="#F" x="39.36" y="-14.76"/><use xlink:href="#F" x="39.36" y="-10.56"/><use xlink:href="#F" x="39.36" y="-6.36"/><use xlink:href="#F" x="39.36" y="-2.15"/><use xlink:href="#F" x="39.36" y="2.05"/><use xlink:href="#F" x="39.36" y="6.25"/><use xlink:href="#F" x="39.36" y="10.45"/><use xlink:href="#F" x="39.36" y="14.65"/><use xlink:href="#F" x="39.36" y="18.86"/><use xlink:href="#F" x="32.76" y="-18.96"/><use xlink:href="#F" x="32.76" y="-14.76"/><use xlink:href="#F" x="32.76" y="-10.56"/><use xlink:href="#F" x="32.76" y="-6.36"/><use xlink:href="#F" x="32.76" y="-2.15"/><use xlink:href="#F" x="32.76" y="2.05"/><use xlink:href="#F" x="32.76" y="6.25"/><use xlink:href="#F" x="32.76" y="10.45"/><use xlink:href="#F" x="32.76" y="14.65"/><use xlink:href="#F" x="32.76" y="18.86"/><use xlink:href="#F" x="106.77" y="10.36"/><use xlink:href="#F" x="106.77" y="14.56"/><use xlink:href="#F" x="106.77" y="18.76"/><use xlink:href="#F" x="106.77" y="22.96"/><use xlink:href="#F" x="106.77" y="27.17"/><use xlink:href="#F" x="106.77" y="31.37"/><use xlink:href="#F" x="106.77" y="35.57"/><use xlink:href="#F" x="106.77" y="39.77"/><use xlink:href="#F" x="106.77" y="43.97"/><use xlink:href="#F" x="106.77" y="48.18"/><use xlink:href="#F" x="102.48" y="10.36"/><use xlink:href="#F" x="102.48" y="14.56"/><use xlink:href="#F" x="102.48" y="18.76"/><use xlink:href="#F" x="102.48" y="22.96"/><use xlink:href="#F" x="102.48" y="27.17"/><use xlink:href="#F" x="102.48" y="31.37"/><use xlink:href="#F" x="102.48" y="35.57"/><use xlink:href="#F" x="102.48" y="39.77"/><use xlink:href="#F" x="102.48" y="43.97"/><use xlink:href="#F" x="102.48" y="48.18"/><use xlink:href="#F" x="90.26" y="10.32"/><use xlink:href="#F" x="90.26" y="14.52"/><use xlink:href="#F" x="90.26" y="18.72"/><use xlink:href="#F" x="90.26" y="22.93"/><use xlink:href="#F" x="90.26" y="27.13"/><use xlink:href="#F" x="90.26" y="31.33"/><use xlink:href="#F" x="90.26" y="35.53"/><use xlink:href="#F" x="90.26" y="39.74"/><use xlink:href="#F" x="90.26" y="43.94"/><use xlink:href="#F" x="90.26" y="48.14"/><use xlink:href="#F" x="72.92" y="15.12"/><use xlink:href="#F" x="72.92" y="19.32"/><use xlink:href="#F" x="72.92" y="23.52"/><use xlink:href="#F" x="72.92" y="27.72"/><use xlink:href="#F" x="72.92" y="31.92"/><use xlink:href="#F" x="72.92" y="36.13"/><use xlink:href="#F" x="72.92" y="40.33"/><use xlink:href="#F" x="72.92" y="44.53"/><use xlink:href="#F" x="61.87" y="14.67"/><use xlink:href="#F" x="61.87" y="18.87"/><use xlink:href="#F" x="61.87" y="23.08"/><use xlink:href="#F" x="61.87" y="31.48"/><use xlink:href="#F" x="61.87" y="35.68"/><use xlink:href="#F" x="61.87" y="39.88"/><use xlink:href="#F" x="61.87" y="44.09"/></g><g class="Y"><g class="W"><path d="M1265.8 87.11h-11.12v-3.52h-10.01v3.52h-9.63v10.01h-4.26v43.54h4.26 2.04 28.72V87.11z"/><path d="M1230.84 141.1h-9.08-9.64-30.39V69.39h30.39v27.05h9.64v13.53h7.78v7.04h1.3v24.09z"/></g><path d="M1192.48 66.71h9.82v5.93h-9.82z"/><path d="M1154.86 141.31h-10.47-14.36v.1h-15.56v-26.78h14.92v-14.36h.64v-5.19h11.49v5.19h2.87V97.4h10.47v3.24h7.14v-4.08h11.21v4.08h9.08v40.67h-27.43z" class="W"/></g><g class="X"><use xlink:href="#F" x="1125.04" y="-1.61"/><use xlink:href="#F" x="1125.04" y="2.59"/><use xlink:href="#F" x="1125.04" y="6.8"/><use xlink:href="#F" x="1125.04" y="11"/><use xlink:href="#F" x="1125.04" y="15.2"/><use xlink:href="#F" x="1125.04" y="19.4"/><use xlink:href="#F" x="1125.04" y="23.6"/><use xlink:href="#F" x="1125.04" y="27.81"/><use xlink:href="#F" x="1125.04" y="32.01"/><use xlink:href="#F" x="1125.04" y="36.21"/><use xlink:href="#F" x="1144.6" y="-1.61"/><use xlink:href="#F" x="1144.6" y="2.59"/><use xlink:href="#F" x="1144.6" y="6.8"/><use xlink:href="#F" x="1144.6" y="11"/><use xlink:href="#F" x="1144.6" y="15.2"/><use xlink:href="#F" x="1144.6" y="19.4"/><use xlink:href="#F" x="1144.6" y="23.6"/><use xlink:href="#F" x="1144.6" y="27.81"/><use xlink:href="#F" x="1144.6" y="32.01"/><use xlink:href="#F" x="1144.6" y="36.21"/><use xlink:href="#F" x="1135.63" y="-0.26"/><use xlink:href="#F" x="1135.63" y="3.94"/><use xlink:href="#F" x="1135.63" y="8.14"/><use xlink:href="#F" x="1135.63" y="12.34"/><use xlink:href="#F" x="1135.63" y="16.54"/><use xlink:href="#F" x="1135.63" y="20.75"/><path d="M1250.46 117.59h1.93V119h-1.93z"/><use xlink:href="#F" x="1135.63" y="29.15"/><use xlink:href="#F" x="1135.63" y="33.35"/><use xlink:href="#F" x="1135.63" y="37.56"/><use xlink:href="#F" x="1132.15" y="-0.26"/><use xlink:href="#F" x="1132.15" y="3.94"/><use xlink:href="#F" x="1132.15" y="8.14"/><use xlink:href="#F" x="1132.15" y="12.34"/><use xlink:href="#F" x="1132.15" y="16.54"/><use xlink:href="#F" x="1132.15" y="20.75"/><path d="M1246.98 117.59h1.93V119h-1.93z"/><use xlink:href="#F" x="1132.15" y="29.15"/><use xlink:href="#F" x="1132.15" y="33.35"/><use xlink:href="#F" x="1132.15" y="37.56"/><use xlink:href="#F" x="1071.75" y="-21.09"/><use xlink:href="#F" x="1071.75" y="-16.89"/><use xlink:href="#F" x="1071.75" y="-12.68"/><use xlink:href="#F" x="1071.75" y="-8.48"/><use xlink:href="#F" x="1071.75" y="-4.28"/><use xlink:href="#F" x="1071.75" y="-0.08"/><use xlink:href="#F" x="1071.75" y="4.12"/><use xlink:href="#F" x="1071.75" y="8.33"/><use xlink:href="#F" x="1071.75" y="12.53"/><use xlink:href="#F" x="1071.75" y="16.73"/><use xlink:href="#F" x="1079.53" y="-20.57"/><use xlink:href="#F" x="1079.53" y="-16.37"/><use xlink:href="#F" x="1079.53" y="-12.16"/><use xlink:href="#F" x="1079.53" y="-7.96"/><use xlink:href="#F" x="1079.53" y="-3.76"/><use xlink:href="#F" x="1079.53" y="0.44"/><use xlink:href="#F" x="1079.53" y="4.64"/><use xlink:href="#F" x="1079.53" y="8.84"/><use xlink:href="#F" x="1079.53" y="13.05"/><use xlink:href="#F" x="1079.53" y="17.25"/><use xlink:href="#F" x="1085.68" y="-20.57"/><use xlink:href="#F" x="1085.68" y="-16.37"/><use xlink:href="#F" x="1085.68" y="-12.16"/><use xlink:href="#F" x="1085.68" y="-7.96"/><use xlink:href="#F" x="1085.68" y="-3.76"/><use xlink:href="#F" x="1085.68" y="0.44"/><use xlink:href="#F" x="1085.68" y="4.64"/><use xlink:href="#F" x="1085.68" y="8.84"/><use xlink:href="#F" x="1085.68" y="13.05"/><use xlink:href="#F" x="1085.68" y="17.25"/><use xlink:href="#F" x="1092.28" y="-20.57"/><use xlink:href="#F" x="1092.28" y="-16.37"/><use xlink:href="#F" x="1092.28" y="-12.16"/><use xlink:href="#F" x="1092.28" y="-7.96"/><use xlink:href="#F" x="1092.28" y="-3.76"/><use xlink:href="#F" x="1092.28" y="0.44"/><use xlink:href="#F" x="1092.28" y="4.64"/><use xlink:href="#F" x="1092.28" y="8.84"/><use xlink:href="#F" x="1092.28" y="13.05"/><use xlink:href="#F" x="1092.28" y="17.25"/><use xlink:href="#F" x="1018.27" y="8.75"/><path d="M1133.1 105.59h1.93V107h-1.93z"/><use xlink:href="#F" x="1018.27" y="17.15"/><use xlink:href="#F" x="1018.27" y="21.36"/><use xlink:href="#F" x="1018.27" y="25.56"/><use xlink:href="#F" x="1018.27" y="29.76"/><use xlink:href="#F" x="1018.27" y="33.96"/><use xlink:href="#F" x="1018.27" y="38.16"/><use xlink:href="#F" x="1018.27" y="42.37"/><use xlink:href="#F" x="1018.27" y="46.57"/><use xlink:href="#F" x="1022.56" y="8.75"/><path d="M1137.39 105.59h1.93V107h-1.93z"/><use xlink:href="#F" x="1022.56" y="17.15"/><use xlink:href="#F" x="1022.56" y="21.36"/><use xlink:href="#F" x="1022.56" y="25.56"/><use xlink:href="#F" x="1022.56" y="29.76"/><use xlink:href="#F" x="1022.56" y="33.96"/><use xlink:href="#F" x="1022.56" y="38.16"/><use xlink:href="#F" x="1022.56" y="42.37"/><use xlink:href="#F" x="1022.56" y="46.57"/><use xlink:href="#F" x="1034.78" y="8.71"/><use xlink:href="#F" x="1034.78" y="12.92"/><use xlink:href="#F" x="1034.78" y="17.12"/><use xlink:href="#F" x="1034.78" y="21.32"/><use xlink:href="#F" x="1034.78" y="25.52"/><use xlink:href="#F" x="1034.78" y="29.72"/><use xlink:href="#F" x="1034.78" y="33.93"/><use xlink:href="#F" x="1034.78" y="38.13"/><use xlink:href="#F" x="1034.78" y="42.33"/><use xlink:href="#F" x="1034.78" y="46.53"/><use xlink:href="#F" x="1052.12" y="13.51"/><use xlink:href="#F" x="1052.12" y="17.71"/><use xlink:href="#F" x="1052.12" y="21.91"/><use xlink:href="#F" x="1052.12" y="26.11"/><use xlink:href="#F" x="1052.12" y="30.32"/><use xlink:href="#F" x="1052.12" y="34.52"/><use xlink:href="#F" x="1052.12" y="38.72"/><use xlink:href="#F" x="1052.12" y="42.92"/><path d="M1178 105.7h1.93v1.41H1178zm0 4.21h1.93v1.41H1178zm0 4.2h1.93v1.41H1178zm0 8.4h1.93v1.41H1178zm0 4.2h1.93v1.41H1178zm0 4.21h1.93v1.41H1178zm0 4.2h1.93v1.41H1178z"/></g><g class="Y"><g class="W"><path d="M1043.87,130.25c5.42-3.45,12.14-5.89,15.68-12v12.1Z"/><path d="M1075.22,130.25c-5.42-3.45-12.13-5.89-15.67-12v12.1Z"/></g><ellipse cx="1059.53" cy="117.84" rx=".55" ry=".78"/><path d="M1046.3 130.26h.66v8.32h-.66zm2.28.03h.66v8.32h-.66zm2.78-.45h.66v8.32h-.66zm6.42.24h.66v8.32h-.66zm2.65.21h.66v8.32h-.66zm7.63-.1h.66v8.32h-.66zm4.27.1h.66v8.32h-.66z"/><g class="a"><path d="M1076.76 133.55h.97v5.33h-.97z" class="Z"/><g class="e"><ellipse cx="1076.61" cy="132.16" rx="2.79" ry="2.03"/><ellipse cx="1077.42" cy="129.69" rx="1.97" ry="2.47"/><ellipse cx="1078.33" cy="130.6" rx="2.73" ry="2.12"/><ellipse cx="1077.2" cy="133.64" rx="2.73" ry="2.12"/><path d="M1092.55 132.27h.97v5.75h-.97z" class="c"/><ellipse cx="1093.09" cy="130.9" rx="5.85" ry="2.83"/><ellipse cx="1091.11" cy="129.1" rx="2.71" ry="1.85"/><ellipse cx="1094.43" cy="127.95" rx="3.34" ry="2.41"/><ellipse cx="1095.57" cy="132.76" rx="2.88" ry="1.46"/><path d="M1101.39 134.7h.48v2.99h-.48z" class="c"/><ellipse cx="1100.96" cy="133.77" rx="1.71" ry="1.41"/><ellipse cx="1101.61" cy="133" rx="1.62" ry="1.53"/><circle cx="1102.54" cy="133.37" r="1.35" transform="matrix(.160226 -.98708 .98708 .160226 794.28 1200.31)"/><ellipse cx="1102.17" cy="134.3" rx=".83" ry=".98"/><path d="M1083.93 135.47h.62v3.63h-.62z" class="c"/><ellipse cx="1084.27" cy="134.61" rx="3.69" ry="1.79"/><ellipse cx="1083.03" cy="133.47" rx="1.71" ry="1.17"/><ellipse cx="1085.12" cy="132.75" rx="2.11" ry="1.52"/><ellipse cx="1085.84" cy="135.78" rx="1.82" ry=".92"/></g><path d="M1032.74 133.12h.97v5.33h-.97z" class="Z"/><g class="e"><ellipse cx="1032.59" cy="131.73" rx="2.79" ry="2.03"/><ellipse cx="1033.41" cy="129.26" rx="1.97" ry="2.47"/><ellipse cx="1034.32" cy="130.17" rx="2.73" ry="2.12"/><ellipse cx="1033.18" cy="133.2" rx="2.73" ry="2.12"/><path d="M1039.92 135.03h.62v3.63h-.62z" class="c"/><ellipse cx="1040.25" cy="134.17" rx="3.69" ry="1.79"/><ellipse cx="1039.01" cy="133.03" rx="1.71" ry="1.17"/><ellipse cx="1041.1" cy="132.31" rx="2.11" ry="1.52"/><ellipse cx="1041.82" cy="135.34" rx="1.82" ry=".92"/></g></g><g class="W"><path d="M1376.68,130.29c5.42-3.45,12.14-5.9,15.68-12v12.1Z"/><path d="M1408,130.29c-5.42-3.45-12.13-5.9-15.67-12v12.1Z"/></g><ellipse cx="1392.34" cy="117.88" rx=".55" ry=".78"/><path d="M1379.11 130.3h.66v8.32h-.66zm2.28.03h.66v8.32h-.66zm2.78-.45h.66v8.32h-.66zm6.42.24h.66v8.32h-.66zm2.65.21h.66v8.32h-.66zm7.63-.1h.66v8.32h-.66zm4.27.1h.66v8.32h-.66z"/><g class="a"><path d="M1409.57 133.59h.97v5.33h-.97z" class="Z"/><g class="e"><ellipse cx="1409.42" cy="132.2" rx="2.79" ry="2.03"/><ellipse cx="1410.24" cy="129.73" rx="1.97" ry="2.47"/><ellipse cx="1411.14" cy="130.64" rx="2.73" ry="2.12"/><ellipse cx="1410.01" cy="133.68" rx="2.73" ry="2.12"/><path d="M1425.36 132.31h.97v5.75h-.97z" class="c"/><ellipse cx="1425.9" cy="130.94" rx="5.85" ry="2.83"/><ellipse cx="1423.92" cy="129.14" rx="2.71" ry="1.85"/><ellipse cx="1427.24" cy="127.99" rx="3.34" ry="2.41"/><ellipse cx="1428.39" cy="132.79" rx="2.88" ry="1.46"/><path d="M1434.2 134.74h.48v2.99h-.48z" class="c"/><ellipse cx="1433.77" cy="133.81" rx="1.71" ry="1.41"/><ellipse cx="1434.42" cy="133.03" rx="1.62" ry="1.53"/><circle cx="1435.35" cy="133.41" r="1.35" transform="matrix(.160226 -.98708 .98708 .160226 1073.74 1528.86)"/><ellipse cx="1434.98" cy="134.33" rx=".83" ry=".98"/><path d="M1416.74 135.51h.62v3.63h-.62z" class="c"/><ellipse cx="1417.08" cy="134.65" rx="3.69" ry="1.79"/><ellipse cx="1415.84" cy="133.51" rx="1.71" ry="1.17"/><ellipse cx="1417.93" cy="132.79" rx="2.11" ry="1.52"/><ellipse cx="1418.65" cy="135.82" rx="1.82" ry=".92"/></g><path d="M1365.55 133.16h.97v5.33h-.97z" class="Z"/><g class="e"><ellipse cx="1365.4" cy="131.76" rx="2.79" ry="2.03"/><ellipse cx="1366.22" cy="129.29" rx="1.97" ry="2.47"/><ellipse cx="1367.13" cy="130.2" rx="2.73" ry="2.12"/><ellipse cx="1365.99" cy="133.24" rx="2.73" ry="2.12"/><path d="M1372.73 135.07h.62v3.63h-.62z" class="c"/><ellipse cx="1373.07" cy="134.21" rx="3.69" ry="1.79"/><ellipse cx="1371.82" cy="133.07" rx="1.71" ry="1.17"/><ellipse cx="1373.91" cy="132.35" rx="2.11" ry="1.52"/><ellipse cx="1374.64" cy="135.38" rx="1.82" ry=".92"/></g></g><g class="W"><path d="M.23,131.64c5.42-3.46,12.14-5.9,15.67-12v12.1Z"/><path d="M31.58,131.64c-5.42-3.46-12.14-5.9-15.68-12v12.1Z"/></g><ellipse cx="15.89" cy="119.23" rx=".55" ry=".78"/><path d="M2.65 131.65h.66v8.32h-.66zm2.28.03h.66V140h-.66zm2.78-.45h.66v8.32h-.66zm6.43.24h.66v8.32h-.66zm2.64.21h.66V140h-.66zm7.63-.11h.66v8.32h-.66zm4.28.11h.66V140h-.66z"/><g class="a"><path d="M33.11 134.94h.97v5.33h-.97z" class="Z"/><g class="e"><ellipse cx="32.96" cy="133.55" rx="2.79" ry="2.03"/><ellipse cx="33.78" cy="131.08" rx="1.97" ry="2.47"/><ellipse cx="34.69" cy="131.99" rx="2.73" ry="2.12"/><ellipse cx="33.55" cy="135.02" rx="2.73" ry="2.12"/><path d="M48.91 133.66h.97v5.75h-.97z" class="c"/><ellipse cx="49.44" cy="132.29" rx="5.85" ry="2.83"/><ellipse cx="47.47" cy="130.49" rx="2.71" ry="1.85"/><ellipse cx="50.78" cy="129.34" rx="3.34" ry="2.41"/><ellipse cx="51.93" cy="134.14" rx="2.88" ry="1.46"/><path d="M57.75 136.09h.48v2.99h-.48z" class="c"/><ellipse cx="57.32" cy="135.16" rx="1.71" ry="1.41"/><ellipse cx="57.97" cy="134.38" rx="1.62" ry="1.53"/><circle cx="58.89" cy="134.76" r="1.35" transform="matrix(.160226 -.98708 .98708 .160226 -83.56 171.31)"/><ellipse cx="58.52" cy="135.68" rx=".83" ry=".98"/><path d="M40.29 136.86h.62v3.63h-.62z" class="c"/><ellipse cx="40.63" cy="136" rx="3.69" ry="1.79"/><ellipse cx="39.38" cy="134.86" rx="1.71" ry="1.17"/><ellipse cx="41.47" cy="134.13" rx="2.11" ry="1.52"/><ellipse cx="42.2" cy="137.17" rx="1.82" ry=".92"/><ellipse cx="-3.39" cy="135.56" rx="3.69" ry="1.79"/><ellipse cx="-1.82" cy="136.73" rx="1.82" ry=".92"/></g></g><path d="M417.73 139.31l2.78-97.81h5.17l1.99 97.81h-9.94z"/><path d="M415.55 25.8l-3.78 7.75 4.77 7.95h13.32l5.76-7.85-4.77-7.85h-15.3z"/><path d="M423.99-26.4l1.5 52.2h-3.98L423-26.4"/><path d="M419.73 8.5h7.16v1.13h-7.16zm-1.06 6.16h9.28v1.13h-9.28zm-1.36 6.23h11.99v1.06h-11.99zm12.55 120.2V71.32h2.08v-1.19h.8v-1h11.43v-3.97h4.18v.79h2.98v1.19h8.25v7.26h3.67v3.18h3.58V90.4h-1.69v50.69h-35.28z"/></g><g class="X"><path d="M432.44 70.72h12.42v67.09h-12.42z"/><path d="M430.06 71.77h12.42v65.65h-12.42z"/></g><path d="M438.6 71.32v67.98" class="Z a b"/><path d="M452.02 78.97h3.08v57.35h-3.08z" class="d"/><g class="Z a b"><path d="M444.87 71.32v67.98m7.15-67.48v67.98m3.08-67.98v67.98m-22.66-68.48v68.98m-1.99-68.98v68.98"/><path d="M446.36 137.42h-16.3m16.7-5.17h-16.31m16.31-5.17h-16.31m15.91-5.17h-16.3m16.7-5.07h-16.31m16.31-5.07h-16.31m16.31-5.07h-16.31m16.31-5.07h-16.31m16.31-5.46h-16.31m16.31-5.47h-16.31m16.31-4.97h-16.31m32.8 50.59h-16.3m-.19-55.56h-16.31m32.8-1.79h-16.3m-.19-3.28h-16.31m17.32-4.52h-15.82"/></g><path d="M472.38 141.09V80.2h1.82v-1.04h.7v-.87h9.98v-3.47h3.64v.69h2.6v1.04h7.2v6.34h3.21v2.77h3.12v11.19h-1.47v44.24h-30.8z" class="Y"/><g class="X"><path d="M474.64 79.68h10.84v58.55h-10.84z"/><path d="M472.56 80.59h10.84v57.3h-10.84z"/></g><path d="M480.02 80.2v59.33" class="Z a b"/><path d="M491.73 86.88h2.69v50.05h-2.69z" class="d"/><g class="Z a b"><path d="M485.48 80.2v59.33m6.25-58.9v59.34m2.69-59.34v59.34M474.64 80.2v60.2m-1.74-60.2v60.2"/><path d="M486.78 137.88h-14.22m14.57-4.51H472.9m14.23-4.51H472.9m13.88-4.51h-14.22m14.57-4.42H472.9m14.23-4.43H472.9m14.23-4.42H472.9m14.23-4.42H472.9m14.23-4.78H472.9m14.23-4.77H472.9m14.23-4.33H472.9m28.63 44.15H487.3m-.17-48.49H472.9m28.63-1.56H487.3m-.17-2.87H472.9m15.12-3.94H474.2"/></g><path d="M369.83 141.09V53.72h2.61v-1.49h1v-1.25h14.31v-4.97h5.23V47h3.73v1.5h10.33v9.08h4.6v3.98h4.49v16.06h-2.12v63.47h-44.18z" class="Y"/><g class="X"><path d="M373.06 52.98h15.56v84.01h-15.56z"/><path d="M370.08 54.28h15.56v82.21h-15.56z"/></g><path d="M380.78 53.72v85.13" class="Z a b"/><path d="M397.58 63.31h3.86v71.81h-3.86z" class="d"/><g class="Z a b"><path d="M388.62 53.72v85.13m8.96-84.5v85.13m3.86-85.13v85.13m-28.38-85.76v86.38m-2.49-86.38v86.38"/><path d="M390.49 136.49h-20.41m20.9-6.47h-20.41m20.41-6.47h-20.41m19.92-6.48h-20.41m20.9-6.34h-20.41m20.41-6.35h-20.41m20.41-6.35h-20.41m20.41-6.35h-20.41m20.41-6.84h-20.41m20.41-6.85h-20.41m20.41-6.22h-20.41m41.08 63.35h-20.42m-.25-69.57h-20.41m41.08-2.24h-20.42m-.25-4.11h-20.41m21.69-5.66h-19.82"/></g><path d="M1302.72 139.71V78.82h-1.82v-1.04h-.7v-.87h-9.97v-3.47h-3.65v.69h-2.6v1.04h-7.2v6.34h-3.21v2.77h-3.12v11.19h1.47v44.24h30.8z" class="Y"/><g class="X"><path d="M1300.46 136.85h-10.84V78.3h10.84z"/><path d="M1302.55 136.5h-10.84V79.2h10.84z"/></g><path d="M1295.08 78.82v59.33" class="Z a b"/><path d="M1283.38 135.55h-2.69V85.5h2.69z" class="d"/><g class="Z a b"><path d="M1289.62 78.82v59.33m-6.25-58.9v59.34m-2.69-59.34v59.34m19.78-59.77v60.2m1.74-60.2v60.2"/><path d="M1288.32 136.5h14.22m-14.57-4.51h14.23m-14.23-4.51h14.23m-13.88-4.51h14.22m-14.57-4.42h14.23m-14.23-4.43h14.23m-14.23-4.42h14.23m-14.23-4.42h14.23m-14.23-4.78h14.23m-14.23-4.77h14.23m-14.23-4.33h14.23m-28.63 44.15h14.23m.17-48.49h14.23m-28.63-1.56h14.23m.17-2.87h14.23m-15.12-3.94h13.82"/></g><path d="M1357.88 139.85V52.48h-2.61v-1.49h-1v-1.25h-14.31v-4.98h-5.23v1H1331v1.49h-10.33v9.09h-4.61v3.98h-4.48v16.06h2.12v63.47h44.18z" class="Y"/><g class="X"><path d="M1354.64 135.75h-15.56V51.74h15.56z"/><path d="M1357.63 135.24h-15.56V53.03h15.56z"/></g><path d="M1346.93 52.48v85.13" class="Z a b"/><path d="M1330.12 133.88h-3.86V62.07h3.86z" class="d"/><g class="Z a b"><path d="M1339.09 52.48v85.13m-8.97-84.51v85.13m-3.85-85.13v85.13m28.37-85.75v86.37m2.49-86.37v86.37"/><path d="M1337.22 135.24h20.41m-20.91-6.47h20.41m-20.41-6.47h20.41m-19.91-6.47h20.41m-20.91-6.35h20.41m-20.41-6.35h20.41m-20.41-6.34h20.41m-20.41-6.35h20.41m-20.41-6.85h20.41m-20.41-6.84h20.41m-20.41-6.22h20.41m-41.07 63.35h20.41m.25-69.58h20.41m-41.07-2.24h20.41m.25-4.1h20.41m-21.68-5.67h19.82"/></g><path d="M729.96 114.19H905.7v25.29H729.96z" class="Y"/><path d="M731.51 117.09h170.77v18.19H731.51z" class="d"/><g class="Z a b"><path d="M749.32 116.02v21.16m-9.03-21.16v21.16m28-21.16v21.16m-9.49-21.16v21.16m18.65-21.16v21.16m10.06-21.16v21.16m9.03-21.16v21.16m8-21.16v21.16m10.33-21.16v21.16m8.38-21.16v21.16m10.46-21.16v21.16m10.19-21.16v21.16m8.39-21.16v21.16m9.03-21.16v21.16m9.29-21.16v21.16m9.42-21.16v21.16m8.64-21.16v21.16m8.39-21.16v21.16" stroke-width="4"/><g class="f"><path d="M904.42 116.02v21.16M731.51 116v21.16"/><path d="M731.51 136.18h172.91m-172.91-19.16h172.91"/></g></g><path d="M772.03 99.29h26.13v16.74h-26.13zm76.45 0l-.19 16.73H816.9v-10.93l3.51-5.8h28.07zM755 113.08h5.42v1.26H755zm115.61-.05h8.23v1.16h-8.23zm916.67 1.16h175.74v25.29h-175.74z" class="Y"/><path d="M1788.83 117.09h170.77v18.19h-170.77z" class="d"/><g class="Z a b"><path d="M1806.64 116.02v21.16m-9.03-21.16v21.16m28-21.16v21.16m-9.49-21.16v21.16m18.65-21.16v21.16m10.06-21.16v21.16m9.03-21.16v21.16m8-21.16v21.16m10.33-21.16v21.16m8.38-21.16v21.16m10.46-21.16v21.16m10.19-21.16v21.16m8.39-21.16v21.16m9.03-21.16v21.16" stroke-width="4"/><g class="f"><path d="M1788.83 116v21.16m0-.98h172.91"/><path d="M1788.83 117.02h172.91"/></g></g><path d="M1829.35 99.29h26.13v16.74h-26.13zm76.45 0l-.19 16.73h-31.39v-10.93l3.51-5.8h28.07zm-93.48 13.79h5.42v1.26h-5.42z" class="Y"/><defs ><path id="B" d="M1530.9,110.72a1.63,1.63,0,0,1,1.93,0v2.12h-1.93Z"/><path id="C" d="M251.88 132.82h2.22v3.66h-2.22z"/><path id="D" d="M652.32 86.46h65.35v1.32h-65.35z"/><path id="E" d="M612.59 118.36h1.91v5.65h-1.91z"/><path id="F" d="M114.83 92.64h1.93v1.41h-1.93z"/></defs></svg>