<svg xmlns="http://www.w3.org/2000/svg" xmlns:xlink="http://www.w3.org/1999/xlink" width="334.976" height="278.063" xmlns:v="https://vecta.io/nano"><style><![CDATA[.AN{fill:#263238}.AO{fill:#207178}.AP{fill:#455a64}.AQ{fill:#37474f}.AR{opacity:.1}.AS{fill:#ebebeb}.AT{opacity:.2}.AU{fill:#b16668}.AV{fill:#fff}.AW{fill:#f28f8f}.AX{opacity:.3}.AY{fill:#e0e0e0}.AZ{fill:#ffa8a7}.Aa{opacity:.6}.Ab{fill:#fafafa}.Ac{fill:#9a4a4d}.Ad{opacity:.5}.Ae{opacity:.15}.Af{fill:#ffbda7}.Ag{fill:#f3d516}]]></style><ellipse cx="157.444" cy="190.057" rx="152.241" ry="88.005" fill="#efeeee"/><path d="M90.221 141.246v34.676a.98.98 0 0 1-.438.765l-1.184.654a.98.98 0 0 1-.877 0l-1.184-.654a.98.98 0 0 1-.438-.765v-34.676a.5.5 0 0 1 .5-.5h3.109a.5.5 0 0 1 .51.5z" class="AN"/><path d="M86.603 140.742h1.05a.5.5 0 0 1 .51.5v35.913c0 .281-.2.393-.438.255l-1.184-.654a.98.98 0 0 1-.438-.766v-34.672a.5.5 0 0 1 .5-.576z" class="AQ"/><path d="M110.124 152.695v34.676a.96.96 0 0 1-.438.759l-1.184.654a.98.98 0 0 1-.877 0l-1.184-.654a.96.96 0 0 1-.438-.759v-34.676a.51.51 0 0 1 .51-.51h3.108a.51.51 0 0 1 .5.51z" class="AN"/><path d="M106.512 152.185h1.047a.51.51 0 0 1 .5.51v35.88c0 .281-.2.393-.438.255l-1.184-.654a.96.96 0 0 1-.438-.759v-34.676a.51.51 0 0 1 .51-.556z" class="AQ"/><path d="M108.802 127.232a1.87 1.87 0 0 0 1.616 2.081h.236a1.87 1.87 0 0 0 1.845-1.636c1.066-8.564-.458-27.715-4.122-38.51-.153-.491-.538-.876-1.029-1.029s-1.026-.055-1.431.263h0c-.772.445-1.309 1.125-1.04 1.963 3.513 10.154 4.959 28.617 3.925 36.868z" class="AP"/><path d="M87.232 132.158a1.23 1.23 0 0 1-.373-.059 1.18 1.18 0 0 1-.752-1.492c2.741-8.342 16.232-15.768 24.941-15.768.423 0 .814.226 1.025.592s.212.818 0 1.184-.602.592-1.025.592c-7.851 0-20.282 6.857-22.7 14.139a1.18 1.18 0 0 1-1.119.811zm-1.277-10.815a1.16 1.16 0 0 1-.366-.059c-.621-.203-.961-.87-.759-1.492 2.853-8.669 16.749-15.7 25.418-14.793.639.08 1.096.656 1.03 1.296s-.631 1.111-1.272 1.059c-7.681-.779-20.426 5.581-22.9 13.177-.164.494-.631.823-1.152.811zm-2.63-8.57a1.22 1.22 0 0 1-.478-.1c-.288-.126-.515-.362-.629-.656a1.18 1.18 0 0 1 .021-.908c4.083-9.291 18.594-16.919 26.445-15.833.649.089 1.103.686 1.014 1.335s-.686 1.103-1.335 1.014c-6.942-.962-20.282 6.137-23.959 14.44a1.17 1.17 0 0 1-1.08.707z" class="AQ"/><path d="M80.309 102.827a1.86 1.86 0 0 0-.765 2.349c4.279 10 6.543 22.206 6.543 35.572v1.793l.144.15c.147.153.351.236.563.229a2.2 2.2 0 0 0 .779-.19 3.31 3.31 0 0 1 .379-.118c1.027-.004 1.858-.838 1.858-1.865 0-13.864-2.355-26.576-6.844-37.045a1.86 1.86 0 0 0-2.617-.883z" class="AP"/><path d="M86.1 142.11v.451c.047.837.443 1.616 1.093 2.146l19.772 14.3a2.27 2.27 0 0 0 2.27.118l27.891-16.1c.69-.455 1.124-1.21 1.171-2.035v-.465a2.31 2.31 0 0 0-1.23-1.924l-25.025-11.559a2.93 2.93 0 0 0-2.4.1L87.273 140.07c-.692.456-1.127 1.213-1.173 2.04z" class="AQ"/><path d="M87.271 140.075l22.369-12.928a2.93 2.93 0 0 1 2.4-.1l25.026 11.554c.654.314.707.87.059 1.25l-27.891 16.1a2.27 2.27 0 0 1-2.27-.118l-19.772-14.281a.81.81 0 0 1 .079-1.472z" class="AO"/><path d="M121.162 167.776c-.5.347-1.073.746-1.132 1.309a5.56 5.56 0 0 0 .818 3.376 10.87 10.87 0 0 1 1.014 5.594c-.118 1.636-.824 5.712.857 7.727s6.4 3.841 7.02.883-2.839-15.539-2.839-15.539z" class="AN"/><path d="M123.484 170.243c.387 2.235.606 4.497.654 6.765 0 2.473.353 4.292 1.433 5.182s2.9 1.152 2.565-.6-1.217-10.468-1.217-10.468z" class="Ac"/><path d="M119.199 124.477s10.4 6.418 14.544 9.906 5.561 4.914 6.065 7.132c.536 2.342-.942 6.144-3.441 12.66-.654 1.76-5.129 12.156-5.129 12.156l-6.039-19.582-12.326-11.41z" class="AP"/><path d="M128.922 186.717c-.451.177-.6 1.165-.713 1.891s-.824 1.557 0 2.879 2.545 1.793 3.651 3.6 1.675 4.272 5.535 5.293 6.9-.131 7.688-1.256.19-2.264-2.238-3.808l-3.311-2.126z" class="AN"/><path d="M133.508 178.892l2.669 7.76c.81 2.285 2.035 4.401 3.612 6.242.412.484 1.361 1.38 1.7 1.773a.75.75 0 0 1-.079 1.158c-.857.811-4.462.994-6.477-.523s-2.964-3.625-4.168-4.848l-1.583-1.623c-.397-.413-.548-1.004-.4-1.557l.137-.556c.281-1.165-1.243-5.947-1.243-5.947z" class="AU"/><path d="M94.036 124.614c-2.009 4.344-1.171 9.114.137 13.085s6.543 8.381 11.064 11.064 11.482 5.947 12.837 6.543 1.5 1.426 1.309 4.024.687 6.831 3.553 12.15c3.029 5.614 4.75 9.264 4.75 9.264 2.141.688 4.486.122 6.078-1.466 0 0-4.835-25.667-5.98-29.056s-13.864-14.394-13.864-14.394 4.285-7.5 5.3-11.4z" class="AP"/><path d="M129.552 151.885c-.7-3.422-3.206-6.124-5.607-8.407-1.963-1.871-7.014-6.405-8.767-7.982.535-1.191.958-2.43 1.263-3.7 0 0-1 1.8-1.884 3.154h0l-.556.811-.085.118h0l.052.065c.752.654 12.719 11.057 13.831 14.335.654 1.884 2.408 10.632 3.86 18.038-.134-1.136-1.456-13.168-2.107-16.432z" class="Aa"/><path d="M109.51 89.14l26.295-2.885s16.029-9.16 17.521-11.98c1.655-3.114 2.172-7.936 3.114-10.861s4.3 3.271 2.251 13.236c-.294 1.407-2.172 2.133-3.553 3.716-3.775 4.331-10.148 9.277-13.929 12.058a14.29 14.29 0 0 1-6.641 2.676l-23.776 3.1z" class="Af"/><path d="M118.316 108.022c.36 3.311 1.6 17.083 1.6 17.083-7.125 5.744-23.024 4.482-25.915-.144a57.7 57.7 0 0 0 3.147-9.958l-2.342-9.546s4.331-5.888.622-14.191l5.987-1.066 8.316-1.217 3.6-.242s4.9 5.293 6.235 8.7c.863 2.2 2.564 6.1-1.25 10.581z" fill="#f5f5f5"/><path d="M96.168 118.85l.209-.726.772-3.121-2.342-9.546h0c.039-.039.2-.38.294-.491h0c.654-.772 2.283-3.134 1.76-7.3h0s1.74 5.784-.15 8.558l1.786 8.021 2.584 3.762-3.134-1.23a55.37 55.37 0 0 0-1.237 5.888c-.072 1.125 2.617 4.861 8.289 6.294-5.1-.229-9.624-1.681-11.044-3.926h0a53.09 53.09 0 0 0 2.211-6.183z" class="AR"/><path d="M80.545 117.076c1.25-4.874 6.216-15.7 7.72-19.628 1.721-4.475 4.155-6.157 7.354-6.2 1.178 1.518 3.271 10.122-.779 14.355-1.544 3.271-6.543 13-6.543 13 .118.877 3.88 12.019 5.234 15 .25.524.683.938 1.217 1.165 1.177.598 2.261 1.362 3.219 2.27.89.654 1.577.792 1.511 1.066a1.31 1.31 0 0 1-1.538.818 8.98 8.98 0 0 1-2-.733c.63 1.117 1.436 2.124 2.388 2.983 2.166 1.963 2.054 3.618-1.642 4.207-2.316.366-4.377-.785-6.889-5.633-.72-1.4-1.649-3.441-2.375-5.293-1.721-4.39-3.566-6.994-4.763-9.9-1.872-4.591-2.598-5.625-2.114-7.477z" class="Af"/><path d="M108.789 84.462l-4.4.118c-2.94.077-5.79-1.018-7.922-3.043s-3.371-4.816-3.443-7.757h0c-.097-3.521 1.21-6.936 3.632-9.494s5.762-4.047 9.283-4.141h0c3.521-.097 6.936 1.21 9.494 3.632s4.047 5.762 4.141 9.283h0c.087 2.944-1.002 5.801-3.027 7.941s-4.818 3.384-7.762 3.459z" class="AQ"/><g class="AN"><path d="M95.174 67.352l-3.271-1.158c.13-.446.438-.819.851-1.031s.895-.246 1.334-.094a1.84 1.84 0 0 1 1.086 2.283z"/><path d="M95.142 66.502l-1.021-3.343c.437-.159.921-.131 1.337.077s.728.578.863 1.023a1.84 1.84 0 0 1-1.178 2.244z"/></g><path d="M114.272 65.894c1.426.785 3.271 4.266 3.271 11.666 0 6.268-1.963 7.851-2.97 8.348s-2.983.255-4.907 0l.052 3.088s3.435 3.271 3.311 5.012-4.41 2.617-6.929 1.008a20.08 20.08 0 0 1-4.7-4.8l-.183-8.689s-1.1 1.125-3.049-.491c-1.616-1.309-2.211-3.644-1.014-4.927a2.75 2.75 0 0 1 4.39.752c2.336-.555 4.543-1.554 6.5-2.944 2.982-1.829 5.196-4.681 6.228-8.023z" class="Af"/><path d="M102.188 78.907l-1.014-3.343a1.71 1.71 0 0 1 2.2 1.1 1.83 1.83 0 0 1-1.184 2.244zm7.851-3.363a.8.8 0 0 1-.726.87.82.82 0 1 1 .726-.87z" class="AN"/><path d="M110.87 81.485l1.852.53a.95.95 0 0 1-1.178.654 1 1 0 0 1-.674-1.184z" class="AW"/><path d="M116.726 73.699l-1.623-1.064a.93.93 0 0 1 1.309-.308 1.02 1.02 0 0 1 .314 1.372zm-.268 1.707c.016.428-.314.791-.742.814s-.796-.302-.825-.729.289-.8.717-.837a.8.8 0 0 1 .851.752z" class="AN"/><path d="M112.139 75.073l.1 5.143 2.473-.844zm-2.46 10.822c-2.022-.209-6.2-1.309-6.889-2.9.282.82.809 1.533 1.51 2.043 1.269 1.027 5.417 2.113 5.417 2.113z" class="AW"/><path d="M86.414 89.192h0c4.54.003 8.226-3.671 8.237-8.211V67.104h0c-2.185 0-4.28.868-5.824 2.413s-2.413 3.64-2.413 5.824z" class="AQ"/><g fill="#e6e6e6"><ellipse cx="266.556" cy="201.54" rx="30.142" ry="17.403"/><ellipse cx="44.649" cy="199.093" rx="31.47" ry="18.169"/><path d="M212.302 192.525a2.77 2.77 0 0 1-1.354-.334l-27.885-16.1a1.31 1.31 0 0 1 .1-2.408l25.032-11.561a3.27 3.27 0 0 1 1.309-.268c.58-.011 1.153.129 1.662.406l22.4 12.909a1.46 1.46 0 0 1 .131 2.565l-19.772 14.283c-.478.33-1.048.502-1.629.491zm-113.904-3.821c.471.007.936-.11 1.348-.34l27.891-16.1a1.31 1.31 0 0 0-.111-2.408L102.5 158.302c-.413-.18-.859-.272-1.309-.268a3.37 3.37 0 0 0-1.662.406l-22.376 12.919a1.56 1.56 0 0 0-.831 1.25 1.54 1.54 0 0 0 .707 1.309l19.772 14.283a2.79 2.79 0 0 0 1.629.491z"/><path d="M60.276 207.226l89.792 51.818a3.01 3.01 0 0 0 2.715 0l92.153-53.251a.83.83 0 0 0 0-1.57l-89.785-51.818c-.856-.432-1.866-.432-2.722 0l-92.153 53.231c-.359.098-.607.423-.607.795s.249.697.607.795z"/></g><use xlink:href="#B" class="AO"/><use xlink:href="#B" class="AT"/><path d="M117.758 4.436a4 4 0 0 0-1.819-3.147L114.46.432a4.03 4.03 0 0 0-3.631 0L88.133 13.56a4.01 4.01 0 0 0-1.819 3.147v24.97a4.03 4.03 0 0 0 1.819 3.147l1.479.857c1.144.576 2.494.576 3.638 0l7.3-4.22 2.617 4.508c.076.131.222.206.373.19s.279-.118.327-.262l2.748-7.93 9.343-5.417a4 4 0 0 0 1.819-3.147z" class="Ag"/><path d="M86.314 41.677a4.01 4.01 0 0 0 1.819 3.147l1.479.857c1.036.521 2.246.573 3.324.144-.857.321-1.5-.157-1.5-1.2V19.66c.021-.633.204-1.25.53-1.793l-5.122-2.95a3.72 3.72 0 0 0-.53 1.786z" class="AT"/><g class="AV"><path d="M117.699 3.919c-.209-.772-.916-1.021-1.753-.536l-22.7 13.144a3.6 3.6 0 0 0-1.309 1.354l-5.119-2.951c.313-.556.764-1.023 1.309-1.354l22.7-13.144c1.144-.576 2.494-.576 3.638 0l1.485.857a4 4 0 0 1 1.749 2.63z" class="AX"/><path d="M113.695 22.14h0c-.043-.007-.088-.007-.131 0l-1.734-.1c-.077.002-.152-.028-.208-.082s-.086-.128-.086-.206l.039-.811a6.27 6.27 0 0 0-.039-.864.85.85 0 0 1 .2-.51l1.963-2.349c.115-.133.159-.313.118-.484l-.923-2.035c-.012-.025-.03-.048-.052-.065h0c-.078-.039-.19 0-.3.092l-2.067 1.891c-.113.129-.301.162-.451.079a3.2 3.2 0 0 0-.89-.517.32.32 0 0 1-.209-.36l.654-2.9c.023-.081-.012-.167-.085-.209-.065-.019-.135-.019-.2 0l-2.022.2a.57.57 0 0 0-.445.308l-1.1 2.944c-.094.191-.251.344-.445.432a9.16 9.16 0 0 0-1.25.726c-.17.111-.36.124-.438 0l-1.034-1.583c-.072-.111-.242-.085-.373.052l-2.224 2.349a.61.61 0 0 0-.177.491l.622 2.094a.72.72 0 0 1-.111.51 17.1 17.1 0 0 0-1.027 1.773.8.8 0 0 1-.478.36l-1.9.458c-.191.049-.35.181-.432.36l-.955 3.226c-.052.15.059.281.236.288l1.734.1c.159-.003.29.122.294.281a8.95 8.95 0 0 0 0 1.675c-.004.189-.071.371-.19.517l-1.963 2.349c-.115.133-.159.313-.118.484l.923 2.035c.014.026.034.048.059.065h0c.024.007.048.007.072 0h0a.38.38 0 0 0 .229-.1l2.068-1.9c.115-.126.302-.156.451-.072.27.213.57.385.89.51.148.057.235.21.209.366l-.654 2.9c-.019.078.016.159.085.2h0c.062.021.128.021.19 0l2.022-.2c.192-.019.36-.135.445-.308l1.1-2.951a.97.97 0 0 1 .445-.425l.654-.34c.229-.124.406-.249.615-.386s.36-.124.432 0l1.034 1.583c.012.02.03.036.052.046.117.049.252.007.321-.1l2.231-2.349a.61.61 0 0 0 .17-.484l-.622-2.094a.72.72 0 0 1 .111-.51c.38-.569.723-1.161 1.027-1.773a.77.77 0 0 1 .484-.36l1.9-.458c.191-.049.35-.181.432-.36l.936-3.232c.04-.104-.002-.221-.1-.275zm-10.154 7.851h-.785a2.05 2.05 0 0 1-1.91-1.309c-.211-.526-.315-1.088-.308-1.655.127-2.157 1.017-4.198 2.512-5.758.45-.483.966-.901 1.531-1.243a5.41 5.41 0 0 1 .51-.262 3.27 3.27 0 0 1 1.439-.3h.242c.717.108 1.323.589 1.59 1.263.864 1.9-.124 5.234-2.2 7.406a5.79 5.79 0 0 1-2.624 1.884z"/></g><use xlink:href="#C" class="AO"/><use xlink:href="#C" class="AT"/><path d="M195.73 4.436a4 4 0 0 1 1.819-3.147l1.479-.857c1.144-.576 2.494-.576 3.638 0l22.692 13.128a4.01 4.01 0 0 1 1.819 3.147v24.97a4.01 4.01 0 0 1-1.819 3.147l-1.479.857a4.03 4.03 0 0 1-3.631 0l-7.3-4.22-2.618 4.508c-.076.131-.222.206-.373.19s-.279-.118-.327-.262l-2.748-7.93-9.343-5.417a4 4 0 0 1-1.819-3.147z" class="Ag"/><path d="M227.177 41.677a4.01 4.01 0 0 1-1.819 3.147l-1.479.857a4.05 4.05 0 0 1-3.324.144c.857.321 1.5-.157 1.5-1.2V19.66c-.021-.633-.204-1.25-.53-1.793l5.116-2.951c.325.541.508 1.155.53 1.786z" class="AT"/><path d="M195.792 3.919c.216-.772.916-1.021 1.753-.536l22.7 13.144a3.6 3.6 0 0 1 1.276 1.354l5.116-2.951c-.311-.558-.762-1.024-1.309-1.354L202.668.432c-1.144-.576-2.494-.576-3.638 0l-1.485.857c-.919.601-1.552 1.551-1.753 2.63z" class="AV AX"/><path d="M211.29 37.057l-3.2-1.865c-.23-.169-.367-.435-.373-.72v-1.361c0-.275.17-.406.373-.281l3.226 1.858c.234.169.374.438.379.726v1.354c-.03.282-.2.406-.405.289z" fill="#f8f8f8"/><path d="M207.144 23.442a3.07 3.07 0 0 1 .576 1.171 1.53 1.53 0 0 1-.654-.654c-.039-.085-.164-.353-.059-.478s.091-.078.137-.039zm2.532-.583c.09.05.15.14.164.242a1.31 1.31 0 0 1-.164.824 2.21 2.21 0 0 1-.157-1.008c.024-.078.053-.117.157-.058zm2.532 3.481h0c.039 0 .072.065.118.177a.32.32 0 0 1-.059.406c-.131.118-.366.1-.654-.085.242-.38.458-.498.595-.498z" class="AV"/><g fill="#f8f8f8"><path d="M204.605 20.806c0 5.372 3.324 8.178 3.324 10.344h0v.909l3.5 2.028v-.916c0-2.166 3.324-1.138 3.324-6.5 0-3.742-2.277-8.08-5.077-9.7s-5.071.099-5.071 3.835zm2.048 2.126c.144-.183.347-.177.569 0a4.07 4.07 0 0 1 .929 1.812 1.37 1.37 0 0 0 .484 0 1.68 1.68 0 0 0 .785-.445 3.45 3.45 0 0 1-.307-1.747c.072-.308.288-.393.563-.229.306.197.511.517.563.877a1.9 1.9 0 0 1-.304 1.394 8.68 8.68 0 0 0 .785 1.348 5.57 5.57 0 0 0 .484.589c.275-.576.6-.844.929-.739a1.08 1.08 0 0 1 .569.654.97.97 0 0 1-.092 1.1c-.236.209-.654.177-1.165-.216-.133.367-.238.743-.314 1.125-.276 1.421-.416 2.865-.419 4.312 0 .157-.092.229-.2.17a.5.5 0 0 1-.216-.4 23.3 23.3 0 0 1 .432-4.456 9.04 9.04 0 0 1 .307-1.125 6.13 6.13 0 0 1-.537-.654 9.36 9.36 0 0 1-.818-1.387 1.87 1.87 0 0 1-.818.445 1.68 1.68 0 0 1-.537.039c.118.451.216.949.307 1.485a29.9 29.9 0 0 1 .432 4.953c0 .15-.092.216-.209.15h0a.52.52 0 0 1-.209-.406 30.24 30.24 0 0 0-.419-4.8c-.1-.569-.2-1.06-.314-1.479-.511-.226-.925-.627-1.165-1.132-.253-.365-.288-.839-.092-1.237zm3.023-7.917c-.282-.225-.444-.568-.438-.929V12.6c0-.373.2-.563.438-.419a1.14 1.14 0 0 1 .438.923v1.459c.001.399-.196.584-.438.452zm-3.239-.535a.97.97 0 0 1-.379-.556l-.484-1.577c-.124-.393-.052-.765.157-.831s.478.2.6.6l.484 1.577c.118.393.046.759-.164.824-.073.024-.153.012-.216-.033zm-2.375 2.281a.82.82 0 0 1-.216-.216l-.844-1.237c-.209-.294-.268-.67-.157-1.014.118-.255.386-.209.6.1l.844 1.237c.209.294.268.67.157 1.014a.25.25 0 0 1-.38.118zm-.863 4.482l-.994-.556c-.282-.225-.444-.568-.438-.929 0-.373.2-.563.438-.419l.975.556c.282.225.444.568.438.929.018.374-.182.563-.419.419zm.026 5.752a.99.99 0 0 1-.379-.556c-.124-.393-.052-.765.157-.831l.844-.262c.209-.065.478.2.6.589s.052.765-.157.831l-.844.262a.29.29 0 0 1-.221-.033zm12.902 7.449c-.088-.054-.162-.128-.216-.216l-.844-1.23a1.15 1.15 0 0 1-.157-1.014c.118-.255.386-.209.6.1l.844 1.237a1.13 1.13 0 0 1 .157 1.008c-.024.075-.083.134-.159.158s-.158.009-.22-.04zm1.001-5.153l-.975-.563a1.15 1.15 0 0 1-.432-.929c0-.373.19-.556.432-.419l.975.563a1.15 1.15 0 0 1 .438.923c-.004.373-.195.563-.438.425z"/><path d="M215.289 23.239a.97.97 0 0 1-.379-.556c-.124-.393-.052-.765.157-.824l.844-.268c.209-.065.478.2.6.6s.052.765-.157.824l-.844.268c-.077.019-.158.003-.221-.044zm-2.374-5.018c-.088-.057-.161-.133-.216-.222a1.16 1.16 0 0 1-.164-1.008l.491-1.021c.118-.249.386-.2.6.1a1.16 1.16 0 0 1 .164 1.008l-.458 1.021a.25.25 0 0 1-.412.118z"/></g><path d="M208.55 89.958l-26.3-2.885s-16.03-9.16-17.521-11.98c-1.655-3.114-2.172-7.936-3.114-10.861s-4.3 3.271-2.251 13.236c.294 1.407 2.172 2.133 3.553 3.716 3.775 4.331 10.148 9.277 13.929 12.058a14.29 14.29 0 0 0 6.641 2.676l23.776 3.1z" class="AZ"/><path d="M171.502 155.409v2.977c-.004 2.853.786 5.651 2.282 8.08l.344.532.041.057.311.442a15.45 15.45 0 0 0 10.787 6.257h1.7c3.189-.159 6.286-1.124 9-2.805l1.309-.761c11.384-6.543 20.61-22.548 20.61-35.7v-2.993a15.45 15.45 0 0 0-1.866-7.363h0l-.147-.286c-.049-.065-.082-.139-.123-.2-.106-.2-.229-.384-.344-.573l-.2-.286-.164-.221c-.077-.117-.162-.229-.253-.335l-.147-.18c-2.57-3.316-6.379-5.442-10.55-5.888-.467-.056-.937-.084-1.407-.082h-.237a18.67 18.67 0 0 0-9 2.805l-1.317.761c-11.399 6.639-20.629 22.619-20.629 35.762zm7.729.761c0-11.1 7.794-24.584 17.4-30.138s17.4-1.055 17.4 10.051-7.787 24.585-17.399 30.126-17.4 1.059-17.4-10.039z" class="AP"/><path d="M175.371 157.642v1.56c0 6.5 2.257 11.082 5.913 13.265l.18.106c.035.025.074.045.115.057l.074.049.286.147a6.41 6.41 0 0 0 .589.262l.27.115.335.123.294.09a6.8 6.8 0 0 0 .728.2l.384.082.4.065.45.065h1.39a18.73 18.73 0 0 0 9.2-2.813l1.309-.761c11.384-6.543 20.61-22.548 20.61-35.7v-3.353a2.35 2.35 0 0 0-.057-.63v-.115c-.013-.244-.043-.488-.09-.728-.033-.237-.057-.425-.1-.638s-.041-.245-.057-.368l-.155-.761-.164-.654c-.106-.393-.221-.777-.352-1.145h0a7.98 7.98 0 0 0-.221-.605c-.147-.376-.3-.736-.474-1.088l-.147-.286-.147-.286c-.049-.065-.082-.139-.123-.2-.106-.2-.229-.384-.343-.573l-.2-.286-.164-.221c-.077-.117-.162-.229-.254-.335-.082-.114-.172-.213-.262-.319a3.19 3.19 0 0 0-.27-.311c-.18-.201-.371-.392-.572-.572l-.294-.27a7.22 7.22 0 0 0-.622-.5c-.106-.074-.213-.155-.327-.221s-.221-.147-.335-.221l-.065-.041-.286-.172c-3.721-2.077-8.825-1.742-14.459 1.513l-1.309.761c-11.453 6.59-20.678 22.554-20.678 35.713zm3.86-1.472c0-11.1 7.794-24.584 17.4-30.137s17.4-1.055 17.4 10.051-7.794 24.584-17.4 30.129-17.4 1.055-17.4-10.043z" class="AQ"/><use xlink:href="#D" class="AO"/><use xlink:href="#D" class="AT"/><path d="M179.239 156.17c0 11.1 7.786 15.6 17.4 10.043s17.4-19.039 17.4-30.137-7.794-15.588-17.4-10.043-17.4 19.039-17.4 30.137zm1.93-1.112c0-9.863 6.927-21.861 15.465-26.793s15.465-.932 15.465 8.931-6.919 21.853-15.465 26.784-15.465.949-15.465-8.923z" class="AO"/><path d="M181.693 150.151a2.3 2.3 0 0 1 .115-.523l13.47-3.615.3-.45-9.9-5.725.237-.409 9.9 5.725.237-.491-3.573-13.347.4-.352 3.517 13.085.474-.548 3.459-16.9.515-.139-3.41 16.676.54-.082 9.283-16.079.417.229-9.291 16.128.2.507 12.865-11.4.139.507-13.045 11.532-.229.679 13.364-3.541a2.48 2.48 0 0 1-.106.523l-13.576 3.631-.3.45 10.092 5.831-.229.417-10.1-5.831-.237.491 3.664 13.707-.4.36-3.615-13.494-.474.54-3.525 17.387-.515.131 3.509-17.175-.54.082-9.486 16.428-.4-.245 9.479-16.422-.2-.507-12.963 11.491-.131-.515 13.135-11.646.229-.687z" class="AS"/><use xlink:href="#E" class="AY"/><use xlink:href="#E" class="AT"/><path d="M190.836 149.472c0 3.7 2.593 5.2 5.8 3.353 3.425-2.234 5.58-5.968 5.8-10.051 0-3.7-2.593-5.193-5.8-3.345-3.425 2.23-5.58 5.962-5.8 10.043zm5.815-4.506c-.7.286-.131-.818-1.309-1.268-.924-.327-1.93 0-1.554-.818s3.141-3.026 4.285-3.042-.416 4.71-1.422 5.127zm4.948-1.84c-.172 1.562-3.828 3.149-4 2.085-.123-.72.72-.818 1.259-2.781.425-1.529.352-2.683.941-2.789s1.979 1.93 1.8 3.484zm-4.367 3.59c.613-.736.581.319 2.086-.458 1.186-.613 2.151-1.636 2.143-.891-.637 1.957-1.724 3.738-3.173 5.2-1.253.974-1.956-2.813-1.056-3.851zm-1.169.671c.5.27-.368 1.055 0 2.5.311 1.153.981 1.685.384 2.241s-3.165.679-3.762-.27 2.642-4.866 3.378-4.474zm-4.335 3.2c-.36-.384 0-3.8.818-5.373s3.574-.213 3.116 1.1c-.3.9-.818.327-2.061 2-.965 1.325-1.546 2.666-1.873 2.274z" class="AY"/><path d="M196.63 148.172c-.981.564-1.775.106-1.775-1.022.068-1.249.727-2.391 1.775-3.075.981-.564 1.775-.106 1.775 1.03a3.91 3.91 0 0 1-1.775 3.067z" class="AP"/><path d="M167.372 158.272a.82.82 0 0 0-1.153-.3l-.72.417a17.56 17.56 0 0 0-7.148 7.745l-2.175 4.6h0l-6.837 14.427a.82.82 0 0 0 .409 1.129c.113.051.236.079.36.082a.82.82 0 0 0 .761-.483l6.714-14.173 8.448-4.793a.84.84 0 1 0-.818-1.472l-6.379 3.574 1.047-2.2a15.94 15.94 0 0 1 6.461-7.009l.72-.409a.86.86 0 0 0 .31-1.135z" class="Ab"/><path d="M165.884 166.413c2.4 4.523 1.636 10.28 1.529 12.268s.9 1.578 1.456 0 2.028-8.039-.466-13.674z" class="AS"/><path d="M161.328 180.468c.222-4.016 2.349-7.684 5.725-9.871 1.636-.957 3.132-.99 4.179-.294h0l2.454 1.366-8.178 13.9-2.4-1.374h0c-1.11-.594-1.78-1.87-1.78-3.727z" class="AP"/><path d="M169.605 172.069a12.6 12.6 0 0 0-5.725 9.871c0 3.639 2.552 5.112 5.725 3.271a12.61 12.61 0 0 0 5.725-9.871c-.025-3.615-2.576-5.087-5.725-3.271z" class="AQ"/><path d="M169.601 176.379c-1.183.774-1.925 2.065-2 3.476 0 1.276.9 1.791 2 1.153 1.188-.77 1.936-2.062 2.012-3.476-.005-1.317-.896-1.84-2.012-1.153z" class="AN"/><path d="M167.601 166.222c2.388 4.523 1.636 10.28 1.529 12.268s.9 1.578 1.456 0 2.028-8.039-.474-13.674z" class="Ab"/><path d="M165.074 168.854l20.34-12.03v-2.519l-18.312 10.869z" class="AQ"/><g class="AO"><path d="M177.785 210.409l11.442-6.6-36.6-21.141-11.442 6.61z"/><path d="M189.225 203.809v2.642l-11.442 6.6v-2.642z"/></g><path d="M189.225 203.809v2.642l-11.442 6.6v-2.642z" class="AX"/><path d="M141.185 189.276v2.642l36.6 21.133v-2.645z" class="AO"/><path d="M141.185 189.276v2.642l36.6 21.133v-2.645z" class="Ae"/><path d="M204.379 179.208a.82.82 0 0 0-1.153-.311l-.72.417a17.6 17.6 0 0 0-7.148 7.745l-2.176 4.6h0l-6.854 14.419c-.201.42-.024.923.397 1.124s.923.024 1.124-.397l6.723-14.173 8.456-4.809a.84.84 0 0 0 .323-1.141.84.84 0 0 0-1.141-.323l-6.346 3.6 1.039-2.2c1.391-2.936 3.645-5.379 6.461-7l.72-.417a.82.82 0 0 0 .294-1.137z" class="Ab"/><path d="M204.805 188.745c2.388 4.523 1.636 10.28 1.529 12.268s.891 1.578 1.448 0 2.028-8.039-.466-13.674z" class="AS"/><path d="M200.233 202.795a12.61 12.61 0 0 1 5.725-9.871c1.636-.949 3.141-.99 4.179-.294h0l2.454 1.374-8.178 13.9-2.4-1.366h0c-1.126-.603-1.78-1.887-1.78-3.743z" class="AP"/><path d="M208.502 194.371c-3.376 2.187-5.503 5.855-5.725 9.871 0 3.631 2.552 5.1 5.725 3.271a12.61 12.61 0 0 0 5.725-9.871c-.033-3.59-2.544-5.062-5.725-3.271z" class="AQ"/><path d="M208.502 198.665c-1.188.77-1.936 2.062-2.012 3.476 0 1.276.9 1.8 2.012 1.161 1.18-.776 1.922-2.066 2-3.476.004-1.284-.896-1.799-2-1.161z" class="AN"/><path d="M206.49 188.557c2.388 4.523 1.636 10.28 1.529 12.268s.9 1.587 1.456 0 2.028-8.039-.474-13.674z" class="Ab"/><path d="M245.599 109.446l-2.952-5.1 12.48-7.205h0a1.44 1.44 0 0 1 1.5.123c1.229.806 2.003 2.147 2.086 3.615a1.48 1.48 0 0 1-.589 1.325h0z" class="AP"/><path d="M246.204 108.098c0 1.333-.932 1.873-2.086 1.2a4.59 4.59 0 0 1-2.085-3.607c0-1.325.932-1.865 2.085-1.2a4.6 4.6 0 0 1 2.086 3.607z" class="AQ"/><path d="M244.012 105.669a.75.75 0 0 0-.622-.106l-.164.106-8.71 5.022.188.139.581.417 1.259.957a4.23 4.23 0 0 1 .335.327l7.663-4.424.311-.18a.77.77 0 0 0 .155-.523c-.038-.703-.408-1.347-.996-1.735z" class="AY"/><path d="M216.778 92.583l-2.952-5.1 12.488-7.213h0a1.43 1.43 0 0 1 1.488.131 4.6 4.6 0 0 1 2.085 3.607 1.47 1.47 0 0 1-.581 1.325h0z" class="AP"/><path d="M217.408 91.242c0 1.325-.932 1.865-2.077 1.2-1.231-.804-2.006-2.147-2.085-3.615 0-1.325.932-1.865 2.085-1.2a4.63 4.63 0 0 1 2.077 3.615z" class="AQ"/><path d="M215.192 88.805a.73.73 0 0 0-.613-.1l-.172.1-8.7 5.022.18.139.581.417a14.38 14.38 0 0 1 1.268.965l.335.319 7.655-4.425.319-.172a.82.82 0 0 0 .155-.532 2.24 2.24 0 0 0-1.006-1.734z" class="AY"/><path d="M204.118 100.156l9.086 5.251-41.26 19.514a10.33 10.33 0 0 0-4.662 7.017l-5.643 36.558a.63.63 0 0 1-.941.442h0c-.213-.123-.335-.36-.262-1.243l3.271-38.848c.356-2.61 1.725-4.975 3.811-6.584z" class="AQ"/><path d="M205.647 170.057l34.276-19.8c1.276-.836 2.078-2.23 2.159-3.754v-2.02c-.081-1.524-.883-2.918-2.159-3.754l-34.276-19.787a4.77 4.77 0 0 0-4.335 0l-34.268 19.784a4.8 4.8 0 0 0-2.167 3.754v2.045a4.8 4.8 0 0 0 2.167 3.754l34.264 19.778c1.364.688 2.975.688 4.339 0z" class="AO"/><path d="M205.018 170.327a3.11 3.11 0 0 0 .63-.27l34.276-19.808c1.275-.834 2.077-2.225 2.159-3.746v-2.02c-.083-1.349-.719-2.603-1.758-3.468.769.687.638 1.636-.4 2.216l-34.114 19.694z" class="AX"/><path d="M164.878 144.483v2.045c.081 1.526.887 2.92 2.167 3.754l34.276 19.773a4.8 4.8 0 0 0 3.7.27l.818-7.4-.164.09a4.75 4.75 0 0 1-4.326 0l-34.276-19.784c-1.047-.605-1.178-1.529-.409-2.216-1.048.86-1.693 2.115-1.783 3.468z" class="Ae"/><g class="AO"><path d="M193.453 127.979l34.272 19.776a4.57 4.57 0 0 0 2.535.5l.384-.041h.082l.221-.041h0a2.63 2.63 0 0 0 .343-.082 3.98 3.98 0 0 0 .736-.311l1.767-1.022a6.06 6.06 0 0 0 2.6-3.713l5.21-29.091c.033-.178.049-.359.049-.54v-.213a3.7 3.7 0 0 0-.237-1.063 3.81 3.81 0 0 0-1.145-1.636l-.147-.115a1.8 1.8 0 0 0-.229-.147l-34.269-19.792a4.8 4.8 0 0 0-4.326 0l-1.767 1.022c-.383.222-.733.497-1.039.818a1.84 1.84 0 0 0-.172.2 6.41 6.41 0 0 0-.638.818l-.123.2-.1.172-.131.262a2.39 2.39 0 0 0-.115.254.54.54 0 0 1-.09.213v.106l-.065.188a2.3 2.3 0 0 0-.065.254c-.005.06-.005.12 0 .18l-5.21 29.1a3.8 3.8 0 0 0 1.669 3.744z"/><use xlink:href="#F"/></g><use xlink:href="#F" class="Ae"/><path d="M202.171 89.022l-16.611-1.746c-2.565 2.588-3.199 6.521-1.577 9.784.429.274 12.23 2.132 12.23 2.132z" class="AQ"/><path d="M228.613 148.114c.533.144 1.086.197 1.636.155l.384-.041.3-.057h0c.116-.02.231-.047.344-.082a3.98 3.98 0 0 0 .736-.311l1.767-1.022a6.06 6.06 0 0 0 2.6-3.713l5.21-29.091c.033-.178.049-.359.049-.54v-.213c-.026-.364-.106-.722-.237-1.063l-6.117 3.476a3.41 3.41 0 0 1 .221 1.856l-5.21 29.1c-.072.882-.833 1.547-1.717 1.5.015.012.027.028.034.046z" class="AX"/><path d="M156.635 174.155s-2.077 8.129-3.468 10.681c-1.498 2.899-3.345 5.605-5.5 8.056-.523.581-1.709 1.636-2.135 2.135a.93.93 0 0 0 .065 1.431c1.03 1.022 5.471 1.333 7.99-.482s4.645-4.85 6.158-6.322l1.987-1.971a2 2 0 0 0 .532-1.906l-.164-.687c-.532-2.413 2.347-8.489 2.347-8.489-2.087-3.002-5.105-2.875-7.812-2.446z" class="AZ"/><path d="M162.401 188.229c.056.409.008.825-.139 1.21a7.59 7.59 0 0 1-2.633 1.889 4.31 4.31 0 0 0-2.167 2.159 9.5 9.5 0 0 1-4.326 4.171c-2.467 1.001-5.179 1.229-7.778.654-3.271-.646-3.468-2.568-3.468-2.568s-.131-1.807.679-2.077 19.832-5.438 19.832-5.438z" class="AN"/><path d="M162.523 182.676a3.44 3.44 0 0 0 0 .859l.2 2.454a5.16 5.16 0 0 1-.352 2.208c-.981 1.309-3.271 1.7-4.6 3.484s-2.944 4.547-7.213 5.308-7.467-.654-8.236-1.873 0-2.355 2.732-3.778c2.928-1.5 6.445-5.61 6.445-5.61.352-.409.671-.875.981-1.317a5.8 5.8 0 0 0 .949-1.636c.206-.616.324-1.257.352-1.906a.23.23 0 0 1 .041-.164c.044-.03.094-.047.147-.049a7.4 7.4 0 0 1 4.547 1.063 1.04 1.04 0 0 1 .368.311 1.2 1.2 0 0 1 .147.368l.278 1.03c.035.282.194.534.433.687.311.139.654-.082.924-.294s.45-.7.744-.916c.324-.224.726-.306 1.112-.229z" class="AP"/><path d="M153.363 196.065a5.39 5.39 0 0 0-3.059-4.678c-3.173-1.709-5.144-.687-6.134 0-1.186.818-2.9 2.543-1.906 3.836s2.813 2.085 6.085 2.192a7.77 7.77 0 0 0 5.014-1.35z" class="Ab"/><use xlink:href="#G" class="AO"/><use xlink:href="#G" opacity=".35"/><path d="M164.085 177.401a11.27 11.27 0 0 1-3.271-.5c.143-.333.316-.654.515-.957a77.75 77.75 0 0 0 4.85-9c3.582-7.238 3.754-13.314 5.725-16.447 1.685-2.674 12.93-5.251 17.06-6.257 3.345-.818 4.85-1.9 5.9-3.443s-1.979-4.981-1.407-8.178a16.97 16.97 0 0 0 5.995 7.361c-.442.981-8.113 7.54-8.113 7.54-4.314 1.802-8.733 3.342-13.233 4.613h0l-.679.221h-.074l-.188.065h-.074l-.155.057h-.049l-.155.065-.818.384a3.64 3.64 0 0 0-1.636 1.3c-.315.525-.547 1.096-.687 1.693l-.155.605-.4 1.767c-.049.188-.09.384-.139.589a31.53 31.53 0 0 1-.491 1.856l-.2.662c-.147.458-.319.941-.515 1.456a40.51 40.51 0 0 1-2.118 4.539l-.4.744-2.184 4c-.115.2-.229.4-.335.605l-1.309 2.314-.957 1.677-.319.556z" class="AR"/><path d="M179.289 184.763s-2.069 8.129-3.459 10.681c-1.498 2.899-3.345 5.605-5.5 8.056-.523.581-1.709 1.636-2.143 2.135a.93.93 0 0 0 .074 1.431c1.03 1.022 5.463 1.333 7.99-.483s4.645-4.85 6.15-6.322l1.987-1.971a2.03 2.03 0 0 0 .54-1.906l-.164-.687c-.532-2.413 2.347-8.489 2.347-8.489-2.089-3.002-5.124-2.88-7.822-2.445z" class="AZ"/><path d="M185.063 198.837a2.38 2.38 0 0 1-.147 1.21c-.73.809-1.625 1.453-2.625 1.889a4.99 4.99 0 0 0-2.167 2.159 10.5 10.5 0 0 1-4.335 4.171c-2.466 1.004-5.179 1.232-7.778.654-3.271-.646-3.46-2.568-3.46-2.568s-.139-1.807.679-2.077 19.833-5.438 19.833-5.438z" class="AN"/><path d="M185.177 193.283a3.91 3.91 0 0 0 .041.859l.188 2.454a5.17 5.17 0 0 1-.343 2.208c-.99 1.309-3.271 1.7-4.6 3.484s-2.944 4.547-7.213 5.308-7.475-.654-8.236-1.873 0-2.355 2.732-3.778c2.928-1.5 6.445-5.61 6.445-5.61.352-.409.662-.875.981-1.317a6.23 6.23 0 0 0 .949-1.636 7.24 7.24 0 0 0 .344-1.906.23.23 0 0 1 .049-.164c.043-.031.094-.048.147-.049a7.4 7.4 0 0 1 4.547 1.063c.144.076.27.182.368.311a1.18 1.18 0 0 1 .139.368l.286 1.03c.035.28.19.53.425.687.311.139.654-.082.924-.294s.458-.7.752-.924a1.48 1.48 0 0 1 1.071-.221z" class="AP"/><path d="M176.026 206.64c-.072-2.006-1.25-3.808-3.059-4.678-3.173-1.709-5.144-.687-6.142 0-1.186.818-2.887 2.543-1.9 3.836s2.813 2.086 6.085 2.192a7.77 7.77 0 0 0 5.013-1.349z" class="Ab"/><use xlink:href="#H" class="AO"/><use xlink:href="#H" opacity=".35"/><path d="M190.714 170.654c.875-2.961.712-6.011 1.488-9 .818-3.271 3.672-5.545 6.33-7.606l8.178-6.346a11.8 11.8 0 0 0 2.373-2.221c.909-1.261 1.28-2.832 1.03-4.367a6.68 6.68 0 0 0-3.141-4.359l-6.927-4.375c-2.316-1.464-4.318-3.374-5.888-5.619-.049-.082-.818-1.636-.613-1.636l29.8 3.893.507 3.149.123.981.2 2.527v1.02l-.041 1.513a8.07 8.07 0 0 1-.082 1 14.2 14.2 0 0 1-.45 2.347 8.57 8.57 0 0 1-1.12 2.454l-.466.654c-.479.638-.996 1.247-1.546 1.824a24.4 24.4 0 0 1-1.807 1.726l-1.4 1.137-1.57 1.161-4.833 3.222-2.3 1.472-5.251 3.337-.654.425-3.149 2.077c-.708.495-1.352 1.078-1.914 1.734-.83.946-1.394 2.094-1.636 3.329-.694 3.986-1.981 7.845-3.819 11.45a134.6 134.6 0 0 1-3.271 6.445l-1.1 2.036-1.456 2.7a10.5 10.5 0 0 1-3.369-.213 8.18 8.18 0 0 1 .7-1.578 98.37 98.37 0 0 0 7.074-16.293z" class="AR"/><path d="M212.395 89.124c5.61 1.039 9.356 2.249 10.419 3.271 2.388 4.907-.72 21.264-.72 21.264l.319 7.663 1.341 7.655c-6.06 5.128-26.874 3.271-30.187-3.885l1.488-26.392c.474-4.76 3.067-9.749 9.43-10.117z" class="Ab"/><path d="M216.484 126.973c1.636-2.5 3.042-8.9 3.042-8.9s-2.683-16.717-2.028-20.659l5.856 7.41-1.259 8.865.319 7.663 1.341 7.655c-4.85 4.089-18.434 4.67-26.85-.515 8.914 2.946 17.952.974 19.579-1.519z" class="AS"/><g class="AN"><path d="M215.691 67.116c0 6.207-5.152 14.271-11.36 14.271s-11.343-5.725-11.123-14.271c.155-6.207 4.089-5.954 10.28-5.954s12.203-.254 12.203 5.954zm1.529 6.82a75.35 75.35 0 0 1-1.382 7.769c-.33.697-.916 1.239-1.636 1.513l-.254-4.613z"/><path d="M214.766 64.678a3.27 3.27 0 0 1 2.74.744c1.235 1.088.875 4.809-.286 8.514l-2.609.5z"/></g><path d="M213.826 74.492c.548.278 1.227-.818 1.824-1.521a2.3 2.3 0 0 1 3.877.335c1.227 2.151-.54 5.341-2.167 5.995-2.813 1.112-3.386-.7-3.386-.7l.613 11.45c-2.609 5.676-15.114 5.365-9.454-.164l-.213-3.6c-1.435.211-2.884.318-4.335.319-2.143-.164-3.4-1.284-4.22-3.533-1.309-3.6-1.636-6.821-1.3-14.116.368-8.007 9.585-8.775 14.795-6.011s3.966 11.546 3.966 11.546z" class="AZ"/><g class="AN"><path d="M214.006 60.376c-1.802-.614-3.668-1.025-5.561-1.225-4.089-.572-8.244-1.071-12.055-2.658a2.55 2.55 0 0 0-1.472-.3c-.957.2-1.292 1.4-1.259 2.38.034.908.219 1.803.548 2.65-.654-.534-1.615-.445-2.159.2-.5.657-.669 1.508-.458 2.306a5.66 5.66 0 0 0 3.549 3.86 12.89 12.89 0 0 0 5.39.654c2.543-.117 5.067-.499 7.532-1.137.588-.195 1.205-.287 1.824-.27.634.021 1.198.407 1.448.99.344.973 1.129 7.77 2.535 7.688.254 0 1.12-1.8 1.717-2.454.761-.818 1.137-6.723 1.2-7.81.012-.086.047-.168.1-.237.818-1.349-.417-3.435-1.636-4.048a9.95 9.95 0 0 0-1.243-.589z"/><path d="M216.386 65.155c.483.489 1.191.683 1.856.509s1.187-.691 1.367-1.355-.007-1.373-.492-1.861z"/></g><path d="M204.92 86.261s4.694-.818 6.281-1.807a5.48 5.48 0 0 0 2.11-2.454 7.46 7.46 0 0 1-1.1 2.764c-1.1 1.636-7.189 3.271-7.189 3.271z" class="AW"/><path d="M204.454 73.952a.95.95 0 0 0 1.038.836.95.95 0 0 0 .851-1.026.95.95 0 0 0-1.013-.865c-.532.052-.923.523-.875 1.055zm.736-3.647l2.11.965c.251-.602-.012-1.295-.6-1.578a1.14 1.14 0 0 0-1.513.613z" class="AN"/><path d="M204.928 80.544l-2.1.965c.117.286.345.512.632.626s.608.107.889-.021a1.21 1.21 0 0 0 .581-1.57z" class="AW"/><path d="M196.063 71.801l1.742-1.562a1.13 1.13 0 0 0-1.636-.123c-.478.444-.524 1.184-.106 1.685zm.76 2.47a.95.95 0 0 0 1.041.835.95.95 0 0 0 .847-1.031.95.95 0 0 0-1.021-.859c-.255.025-.49.15-.652.348a.97.97 0 0 0-.215.707z" class="AN"/><path d="M201.648 73.298l.115 5.709-3.051-.785z" class="AW"/><path d="M240.929 117.952l-.622 3.44-31.3 24.846a10.34 10.34 0 0 0-3.868 7.238l-3.7 38.439c-.026.244.097.48.311.6a.62.62 0 0 0 .662 0h0l11.981-6.984v-2.519l-9.953 5.823 4.375-32.9c.489-2.894 2.184-5.445 4.662-7.017l26.7-16.88c2.369-1.497 3.865-4.049 4.015-6.847s-1.067-5.495-3.263-7.236z" class="AQ"/><path d="M234.779 125.787c.728 1.317 1.538 5.406.818 6.142-.805.772-1.731 1.407-2.74 1.881a49.24 49.24 0 0 1-4.817 2.069c-3.271 1.243-6.862 2.257-9.929 3.141z" class="AN"/><path d="M235.155 123.121c-1.21-4.784-5.005-18.352-6.224-22.7-1.979-7.083-4.089-7.925-7.287-8.612-2.544 2.012-5.03 9.544-1.636 16.357l4.973 17.69s-.981.72-5.144 4.416c-3.746 3.32-5.218 4.441-6.894 5.725-1.636 1.175-3.211 2.434-4.719 3.77-.613.581-5.725 7.074-5.635 8.326.09 1.12 1.129 1.946 3.165 2.241 1.865.27 3.181-.72 4.465-1.947l.605-.622a9.9 9.9 0 0 1 2.593-2.061c.835-.441 1.624-.964 2.355-1.562 1-.818 1.309-1.758 2.756-2.683l14.582-9.242c3.755-2.398 3.436-3.592 2.045-9.096z" class="AZ"/><path d="M225.005 125.837s2.5-1.439 6.78 0a8.75 8.75 0 0 0-7.066-1.014z" class="AW"/><path d="M220.197 91.176c4.866.564 6.665 2 8.416 7.271s5.152 18.508 5.152 18.508-5.4 3.108-11.131 2.642l-3.8-13.208s-5.098-10.854 1.363-15.213z" class="AQ"/><path d="M212.394 179.144v3c-.004 2.853.786 5.651 2.282 8.08l.344.532v.057l.319.442c2.557 3.508 6.472 5.779 10.787 6.257h1.7c3.189-.159 6.286-1.124 9-2.805l1.309-.761c11.384-6.543 20.61-22.556 20.61-35.7v-2.993c.008-2.57-.631-5.102-1.856-7.361h0a3.2 3.2 0 0 0-.155-.286l-.114-.213c-.106-.188-.229-.376-.352-.564l-.188-.286-.164-.229c-.082-.114-.164-.221-.254-.327l-.147-.18a15.41 15.41 0 0 0-10.55-5.888 11.4 11.4 0 0 0-1.407-.082h-.237a18.67 18.67 0 0 0-9 2.805l-1.317.761c-11.38 6.615-20.61 22.598-20.61 35.741zm7.729.761c0-11.1 7.794-24.593 17.4-30.138s17.4-1.055 17.4 10.043-7.794 24.592-17.4 30.137-17.399 1.055-17.399-10.043z" class="AP"/><path d="M216.263 181.376v1.543c0 6.5 2.257 11.082 5.913 13.265l.18.106.115.057.074.041a2.37 2.37 0 0 0 .286.147 5.3 5.3 0 0 0 .581.27l.278.115.327.114.3.1a7.68 7.68 0 0 0 .728.2 2.68 2.68 0 0 0 .384.074 2.91 2.91 0 0 0 .4.074l.45.065h1.39c3.259-.122 6.43-1.091 9.2-2.813l1.309-.761c11.384-6.543 20.61-22.556 20.61-35.7v-3.353a2.32 2.32 0 0 0-.057-.63.63.63 0 0 0 0-.123 5.23 5.23 0 0 0-.082-.72c-.033-.237-.057-.433-.1-.638s-.041-.245-.057-.368l-.155-.761c-.049-.246-.106-.442-.164-.654-.106-.393-.221-.777-.352-1.153h0c-.065-.2-.139-.4-.221-.6-.147-.376-.311-.744-.474-1.088l-.147-.286a3.18 3.18 0 0 0-.155-.286l-.115-.213c-.106-.188-.229-.376-.352-.564l-.188-.286-.164-.229a4.83 4.83 0 0 0-.254-.327c-.09-.106-.172-.221-.262-.319l-.27-.311c-.18-.2-.376-.393-.572-.581l-.294-.262a7.91 7.91 0 0 0-.622-.5l-.327-.229-.335-.213-.065-.041-.286-.172c-3.721-2.077-8.824-1.742-14.459 1.5l-1.309.769c-11.462 6.617-20.687 22.565-20.687 35.741zm3.86-1.472c0-11.1 7.794-24.592 17.4-30.137s17.4-1.055 17.4 10.043-7.794 24.593-17.4 30.137-17.4 1.055-17.4-10.044z" class="AQ"/><use xlink:href="#I" class="AO"/><use xlink:href="#I" class="AT"/><path d="M220.131 179.904c0 11.1 7.786 15.6 17.4 10.043s17.4-19.039 17.4-30.137-7.794-15.6-17.4-10.043-17.4 19.038-17.4 30.137zm1.93-1.12c0-9.863 6.927-21.853 15.465-26.784s15.465-.932 15.465 8.931-6.96 21.853-15.465 26.784-15.465.931-15.465-8.932z" class="AO"/><path d="M222.585 173.876a2.51 2.51 0 0 1 .115-.523l13.47-3.607.3-.45-9.9-5.725.245-.409 9.9 5.725.237-.491-3.581-13.346.4-.352 3.517 13.085.474-.54 3.459-16.9.515-.139-3.41 16.668.54-.074 9.283-16.087.417.237-9.291 16.079.2.515 12.865-11.409.139.507-13.045 11.572-.229.679 13.364-3.541a2.31 2.31 0 0 1-.106.515l-13.571 3.643-.3.45 10.092 5.831-.229.417-10.1-5.831-.237.491 3.664 13.691-.4.36-3.615-13.445-.474.54-3.525 17.355-.515.131 3.509-17.175-.54.082-9.487 16.43-.409-.245 9.487-16.422-.2-.515-12.963 11.5-.131-.515 13.135-11.654.229-.679z" class="AS"/><use xlink:href="#J" class="AY"/><use xlink:href="#J" class="AT"/><path d="M231.728 173.206c0 3.7 2.593 5.193 5.8 3.353a12.83 12.83 0 0 0 5.8-10.051c0-3.7-2.593-5.193-5.8-3.353a12.83 12.83 0 0 0-5.8 10.051zm5.815-4.506c-.7.286-.139-.818-1.309-1.268-.924-.327-1.938 0-1.554-.818s3.132-3.026 4.285-3.042-.416 4.711-1.422 5.128zm4.948-1.84c-.18 1.562-3.827 3.149-4 2.085-.123-.72.72-.818 1.26-2.781.425-1.529.352-2.691.941-2.789s1.971 1.931 1.799 3.485zm-4.367 3.582c.613-.728.581.327 2.085-.45 1.186-.613 2.151-1.636 2.135-.891a13.24 13.24 0 0 1-3.165 5.2c-1.252.974-1.955-2.788-1.055-3.859zm-1.17.679c.5.27-.368 1.055 0 2.5.311 1.145.981 1.685.384 2.241s-3.165.679-3.762-.27 2.642-4.864 3.378-4.471zm-4.335 3.2c-.36-.393 0-3.8.818-5.373s3.574-.221 3.116 1.1c-.3.9-.818.327-2.061 2-.965 1.322-1.545 2.696-1.874 2.27z" class="AY"/><path d="M237.522 171.906c-.981.564-1.775.106-1.775-1.022a3.91 3.91 0 0 1 1.775-3.075c.981-.564 1.775-.106 1.775 1.022a3.91 3.91 0 0 1-1.775 3.075z" class="AP"/><path d="M157.071 197.255v50.788c.023.462.266.885.654 1.138l1.4.811c.412.208.897.208 1.309 0l1.4-.811c.388-.253.631-.676.654-1.138v-50.788c0-.419-.294-.589-.654-.379l-1.4.811c-.412.208-.897.208-1.309 0l-1.4-.811c-.34-.21-.654-.04-.654.379z" class="AQ"/><path d="M160.466 249.989l1.4-.811c.388-.253.631-.676.654-1.138v-50.785c0-.419-.294-.589-.654-.379l-1.4.811a1.46 1.46 0 0 0-.654 1.138v50.784c0 .419.294.589.654.38z" class="AP"/><path d="M82.969 154.473v50.79c.023.462.266.885.654 1.138l1.4.8c.41.214.899.214 1.309 0l1.4-.8c.388-.253.631-.676.654-1.138v-50.79c0-.419-.294-.589-.654-.379l-1.387.792c-.412.208-.897.208-1.309 0l-1.4-.8c-.373-.202-.667-.033-.667.387z" class="AQ"/><path d="M86.345 207.226l1.4-.8c.388-.253.631-.676.654-1.138v-50.81c0-.419-.294-.589-.654-.379l-1.4.792c-.389.255-.632.681-.654 1.145v50.778c-.007.412.288.601.654.412z" class="AP"/><path d="M220.914 160.387v50.765c.026.461.269.883.654 1.138l1.4.811a1.45 1.45 0 0 0 1.309 0l1.4-.811c.388-.253.631-.676.654-1.138v-50.765c0-.419-.294-.589-.654-.379l-1.4.8c-.412.208-.897.208-1.309 0l-1.4-.8c-.379-.21-.654-.04-.654.379z" class="AQ"/><path d="M224.29 213.114l1.4-.811c.388-.253.631-.676.654-1.138v-50.778c0-.419-.294-.589-.654-.379l-1.4.8a1.47 1.47 0 0 0-.654 1.145v50.782c0 .425.294.595.654.379z" class="AP"/><use xlink:href="#K" class="AO"/><use xlink:href="#K" opacity=".65" class="AV"/><use xlink:href="#L" class="AO"/><use xlink:href="#L" class="AV Ad"/><use xlink:href="#M" class="AO"/><use xlink:href="#M" opacity=".8" class="AV"/><path d="M210.859 151.194l1.354-1.6-2.82.752" class="AP AR"/><use xlink:href="#N" class="AO"/><use xlink:href="#N" class="AX"/><g class="AO"><use xlink:href="#O"/><use xlink:href="#O"/></g><use xlink:href="#O" class="AT"/><path d="M191.453 154.577l8.767-5.051-25.628-14.793-8.806 5.025z" class="AX"/><path d="M165.786 139.757l.334.2 8.473-4.842 25.287 14.6.334-.19-25.621-14.8z" class="AO"/><path d="M165.786 139.758l.334.2 8.473-4.842 25.287 14.6.334-.19-25.621-14.8zm29.978.758l-.164.1-4.3 2.48-7.635-4.41-.157-.092 4.456-2.578z" class="Aa"/><path d="M195.601 140.615l-4.3 2.48-7.635-4.41 4.3-2.486z" class="AO"/><path d="M195.601 140.615l-4.3 2.48-7.635-4.41 4.3-2.486z" class="Ad"/><g class="AO"><use xlink:href="#P"/><use xlink:href="#P"/></g><use xlink:href="#P" class="Aa"/><g class="AO"><path d="M190.864 156.193c-.524.205-1.114.159-1.6-.124l-27.28-15.748a1.84 1.84 0 0 1-.9-1.309l-2.99-17.809c-.007-.103-.007-.205 0-.308.004-.49.199-.96.543-1.309l28.356 16.357a1.38 1.38 0 0 1 .654.955z"/><use xlink:href="#Q"/></g><use xlink:href="#Q" class="AR"/><path d="M187.37 136.316l.438-.255a1.4 1.4 0 0 1 .262.6l3.232 19.3-.183.1a1.53 1.53 0 0 1-.255.124l-3.226-19.275c-.042-.218-.134-.423-.268-.6z" opacity=".25"/><path d="M175.495 139.745c-.425-1.489-1.41-2.755-2.748-3.533-1.322-.759-2.225-.412-2.022.779.429 1.489 1.412 2.756 2.748 3.54 1.322.764 2.224.411 2.022-.786z" class="AX"/><path d="M97.33 145.142v.513a1.52 1.52 0 0 0 .752 1.309l14.5 8.355a1.5 1.5 0 0 0 .759.2c.268.002.532-.067.765-.2l26.609-15.364a1.54 1.54 0 0 0 .765-1.309v-.366l-28.133 16.245-15.925-9.2a.2.2 0 0 1-.092-.183z" class="AQ"/><use xlink:href="#R" class="AP"/><g class="AN"><use xlink:href="#R" y="-0.001" class="AT"/><path d="M113.209 153.175l-8.512-4.914 24.888-14.368 8.558 4.887zm-4.181-13.653l.157.085 4.168 2.408 7.419-4.279.157-.092-4.331-2.493z"/></g><path d="M109.185 139.607l4.168 2.408 7.419-4.279-4.174-2.408z" class="AQ"/><path d="M109.185 139.607l4.168 2.408 7.419-4.279-4.174-2.408z" class="AN Ad"/><use xlink:href="#S" class="AQ"/><use xlink:href="#S" class="AN Ad"/><use xlink:href="#T" class="AP"/><use xlink:href="#T" class="AN AT"/><path d="M113.353 154.518l.183.1c.079.046.164.085.249.124l3.134-18.725a1.34 1.34 0 0 1 .654-.929l27.532-15.9c-.109-.109-.232-.204-.366-.281l-27.577 15.931a1.35 1.35 0 0 0-.654.929z" class="AP"/><path d="M116.919 136.002l-3.134 18.719a1.73 1.73 0 0 1-.249-.118l-.183-.1 3.14-18.745a1.31 1.31 0 0 1 .209-.517l.425.249a1.31 1.31 0 0 0-.208.512z" class="AN Ad"/><path d="M128.709 138.769c.413-1.447 1.369-2.678 2.669-3.435 1.309-.739 2.159-.4 1.963.759a5.89 5.89 0 0 1-2.676 3.435c-1.269.74-2.153.399-1.956-.759z" class="AO"/><path d="M93.823 150.906l-12.51 6.595-.262.4v.327a.47.47 0 0 0 .262.406l16.488 9.52a.93.93 0 0 0 .857 0l12.228-7.06v-.321z" class="AN"/><path d="M98.226 167.923a.82.82 0 0 1-.425-.1l-16.488-9.52a.44.44 0 0 1-.26-.4.44.44 0 0 1 .26-.4l11.96-6.909 17.613 10.187-12.228 7.06a.83.83 0 0 1-.432.082z" class="AP"/><path d="M93.274 149.65l-11.829 6.8-.118.17v1.269h0a.2.2 0 0 0 .118.17l16.494 9.52c.182.098.4.098.582 0l11.829-6.811v-1.308z" class="AS"/><path d="M110.35 159.464l-.15.085-1.924 1.112-.36.209-9.4 5.417c-.182.098-.4.098-.582 0l-16.494-9.52c-.07-.028-.115-.095-.115-.17s.046-.142.115-.17l.157-.085 11.676-6.692 16.926 9.775h.039z" fill="#f0f0f0"/><path d="M98.227 166.386v1.269c-.101.004-.201-.021-.288-.072l-16.494-9.52a.2.2 0 0 1-.118-.17v-1.269a.2.2 0 0 0 .118.17l16.494 9.52c.087.051.187.076.288.072z" class="AY"/><path d="M110.35 159.32l-2.133 1.23-.334.19-9.363 5.4c-.182.098-.4.098-.582 0l-14.765-8.504-.373-.209a3.69 3.69 0 0 1-1.2-1.04.28.28 0 0 0 0-.046.23.23 0 0 1-.039-.092c-.017-.137.074-.265.209-.294.387-.112.76-.268 1.112-.465h0l10.4-6.006z" class="AV"/><path d="M108.145 159.169a.17.17 0 0 0 0 .321c.174.081.376.081.55 0a.17.17 0 0 0 0-.321c-.174-.081-.376-.081-.55 0z" class="AR"/><path d="M109.905 158.155a.74.74 0 0 0-.739.052c-.456.31-.784.775-.923 1.309a.67.67 0 0 0 .2 0c.125-.482.42-.902.831-1.184a.73.73 0 0 1 .334-.1c.07.001.138.019.2.052a.78.78 0 0 1 .275.654 1.36 1.36 0 0 1 0 .164l.19.111a1.96 1.96 0 0 0 0-.275.95.95 0 0 0-.366-.779zm.34 1.224v.046h-.039z" class="AN"/><use xlink:href="#U" class="AR"/><path d="M108.256 157.187a.74.74 0 0 0-.739.052c-.455.313-.784.777-.929 1.309a.7.7 0 0 0 .2 0 2.08 2.08 0 0 1 .824-1.184.75.75 0 0 1 .34-.1.4.4 0 0 1 .2.052.76.76 0 0 1 .275.654 1.36 1.36 0 0 1 0 .164l.19.111a1.31 1.31 0 0 0 0-.275.96.96 0 0 0-.361-.783z" class="AN"/><use xlink:href="#V" class="AR"/><path d="M106.6 156.231a.74.74 0 0 0-.739.052c-.455.313-.784.777-.929 1.309a.54.54 0 0 0 .2 0c.127-.481.422-.901.831-1.184.101-.061.216-.096.334-.1.07-.003.139.013.2.046a.76.76 0 0 1 .281.654 1.31 1.31 0 0 1 0 .164l.2.111c.006-.092.006-.183 0-.275a.95.95 0 0 0-.373-.779z" class="AN"/><path d="M103.186 156.311c-.069.021-.117.085-.117.157s.047.136.117.157c.172.092.378.092.55 0 .069-.021.117-.085.117-.157s-.047-.136-.117-.157a.58.58 0 0 0-.55 0z" class="AR"/><path d="M104.946 155.283a.7.7 0 0 0-.733.052c-.459.308-.79.774-.929 1.309a.51.51 0 0 0 .2 0 2.04 2.04 0 0 1 .824-1.178c.102-.064.22-.099.34-.1a.34.34 0 0 1 .2.052.74.74 0 0 1 .275.654 1.31 1.31 0 0 1 0 .164l.19.111a1.96 1.96 0 0 0 0-.275c.015-.307-.122-.602-.367-.789z" class="AN"/><path d="M101.536 155.355c-.15.085-.15.229 0 .321a.61.61 0 0 0 .543 0c.157-.092.157-.236 0-.321a.61.61 0 0 0-.543 0z" class="AR"/><path d="M103.296 154.328c-.237-.122-.522-.102-.739.052a2.29 2.29 0 0 0-.929 1.309c.066.013.134.013.2 0a2.05 2.05 0 0 1 .831-1.178c.1-.063.216-.098.334-.1a.4.4 0 0 1 .2.052c.198.156.304.402.281.654.003.055.003.109 0 .164l.2.111c.006-.092.006-.183 0-.275.012-.309-.129-.605-.378-.789z" class="AN"/><path d="M99.881 154.4a.17.17 0 0 0 0 .321c.174.081.376.081.55 0a.17.17 0 0 0 0-.321c-.174-.081-.376-.081-.55 0z" class="AR"/><path d="M101.64 153.372c-.237-.119-.521-.099-.739.052a2.3 2.3 0 0 0-.923 1.308c.066.01.134.01.2 0 .121-.482.414-.903.824-1.184.1-.063.216-.098.334-.1.07.001.139.018.2.052a.75.75 0 0 1 .275.654c.003.055.003.109 0 .164l.19.111a2 2 0 0 0 0-.275c.014-.304-.121-.595-.361-.782z" class="AN"/><use xlink:href="#U" x="-8.263" y="-4.769" class="AR"/><path d="M99.992 152.417a.74.74 0 0 0-.739.052c-.456.312-.785.776-.929 1.309.066.01.134.01.2 0a2.06 2.06 0 0 1 .824-1.184.75.75 0 0 1 .34-.1.4.4 0 0 1 .2.052.76.76 0 0 1 .281.654c.003.055.003.109 0 .164l.2.111c.006-.092.006-.183 0-.275a.95.95 0 0 0-.377-.783z" class="AN"/><use xlink:href="#W" class="AR"/><path d="M98.338 151.462a.74.74 0 0 0-.739.052 2.3 2.3 0 0 0-.923 1.309.49.49 0 0 0 .2 0c.127-.481.422-.901.831-1.184.101-.061.216-.095.334-.1a.4.4 0 0 1 .2.052.76.76 0 0 1 .281.654c.003.055.003.109 0 .164l.19.111c.006-.092.006-.183 0-.275a.95.95 0 0 0-.374-.783z" class="AN"/><use xlink:href="#W" x="-1.662" y="-0.955" class="AR"/><path d="M96.682 150.514c-.234-.121-.516-.104-.733.046-.455.313-.784.777-.929 1.309.066.013.134.013.2 0a2.08 2.08 0 0 1 .824-1.184c.103-.061.22-.095.34-.1.07-.003.139.013.2.046a.76.76 0 0 1 .275.654 1.31 1.31 0 0 1 0 .164l.19.111c.006-.092.006-.183 0-.275.009-.301-.128-.588-.367-.771z" class="AN"/><use xlink:href="#V" x="-11.567" y="-6.676" class="AR"/><path d="M95.035 149.558c-.237-.122-.522-.102-.739.052a2.29 2.29 0 0 0-.929 1.309c.066.013.134.013.2 0a2.05 2.05 0 0 1 .831-1.178c.1-.063.216-.098.334-.1a.34.34 0 0 1 .2.052c.198.156.304.402.281.654.003.052.003.105 0 .157l.2.111a1.91 1.91 0 0 0 0-.268c.012-.307-.127-.6-.373-.785z" class="AN"/><path d="M96.577 164.443c-.087.006-.166-.051-.188-.136s.018-.173.096-.211l9.094-5.234c.058-.037.131-.039.19-.006s.096.097.094.166-.041.13-.102.161l-9.094 5.234a.21.21 0 0 1-.091.026zm-1.105-.634c-.065-.001-.125-.036-.157-.092a.19.19 0 0 1 .065-.255l9.1-5.234c.042-.025.093-.032.14-.018s.087.046.109.09.034.093.022.141-.044.089-.087.114l-9.094 5.234c-.03.016-.064.023-.098.02zm-1.1-.636a.2.2 0 0 1-.164-.092.19.19 0 0 1 .072-.255l9.094-5.234c.089-.052.203-.023.255.066s.023.203-.065.255l-9.1 5.234a.15.15 0 0 1-.092.026zm-1.098-.634c-.085.003-.162-.052-.186-.134s.012-.17.086-.213l9.1-5.234a.19.19 0 0 1 .255.065c.025.043.032.095.019.143s-.046.089-.091.112l-9.094 5.234c-.027.017-.057.026-.089.027zm-1.109-.634a.19.19 0 0 1-.092-.353l9.094-5.234c.089-.052.203-.023.255.066s.023.203-.065.255l-9.1 5.234c-.028.018-.059.029-.092.032zm-1.097-.642c-.087.006-.166-.051-.188-.136s.018-.173.096-.211l9.094-5.234c.09-.051.204-.018.255.072s.018.204-.072.255l-9.094 5.234a.21.21 0 0 1-.091.02zm-1.105-.634c-.065-.001-.125-.036-.157-.092a.19.19 0 0 1 .065-.255l9.1-5.234c.042-.025.093-.032.14-.018s.087.046.109.09.034.093.022.141-.044.089-.087.114l-9.094 5.234c-.031.016-.065.023-.1.02zm-1.1-.635a.2.2 0 0 1-.164-.092.19.19 0 0 1 .072-.255l9.094-5.234c.057-.034.128-.035.186-.002s.094.094.095.161-.034.129-.091.163l-9.1 5.234a.15.15 0 0 1-.092.026zm-1.099-.635a.19.19 0 0 1-.1-.347l9.1-5.234a.19.19 0 0 1 .255.065c.025.043.032.095.019.143s-.046.089-.091.112l-9.094 5.234a.28.28 0 0 1-.089.027zm-1.105-.638c-.065.001-.126-.035-.157-.092-.026-.042-.034-.093-.022-.141s.044-.089.087-.114l9.094-5.234c.042-.026.093-.034.141-.022s.089.044.114.087a.19.19 0 0 1-.065.255l-9.1 5.234a.21.21 0 0 1-.092.027zm-1.098-.637c-.087.006-.166-.051-.188-.136s.018-.173.096-.211l9.094-5.234a.19.19 0 1 1 .183.327l-9.095 5.234a.15.15 0 0 1-.09.02zm-1.118-.635c-.065-.001-.125-.036-.157-.092a.19.19 0 0 1 .065-.255l9.1-5.234a.19.19 0 0 1 .255.072c.024.043.029.093.016.139s-.045.086-.088.11l-9.091 5.233c-.03.018-.065.028-.1.027zm-1.089-.602a.2.2 0 0 1-.164-.092.19.19 0 0 1 .072-.255l9.094-5.234c.057-.034.128-.035.186-.002s.094.094.095.16-.034.128-.091.162l-9.1 5.234a.15.15 0 0 1-.092.026z" class="AS"/><path d="M97.696 165.084c-.086.003-.163-.054-.185-.137s.016-.17.093-.21l9.618-5.568c.057-.034.128-.035.186-.002s.094.094.095.161-.034.129-.091.163l-9.624 5.568c-.028.015-.06.024-.092.026z" class="AO"/><g opacity=".25" class="AP"><path d="M102.505 158.156a.79.79 0 0 0-.373-.242 1.65 1.65 0 0 1-.177-.092c-.085-.131-.2-.353-.052-.379s.262.079.353.1.046-.065 0-.079c-.164-.065-.471-.262-.537 0-.017.086-.005.176.033.255a.53.53 0 0 0-.236-.046c-.081.003-.144 0-.17.1a.17.17 0 0 0 0 .1c.003.04.033.072.072.078h-.085c-.111 0-.425-.079-.5.065s.039.137.033.164-.229.085-.268.111 0 .072 0 .078a2.66 2.66 0 0 1-.334 0c-.183 0-.654-.052-.576.229l.039.072c-.002.024-.002.048 0 .072l-.046.033c-.046.033-.079 0-.1.046s.046.144-.059.216-.471-.1-.654 0 .046.366-.2.373c-.052 0 0 .078 0 .085.222 0 .2 0 .242-.209.072-.3.523-.092.772-.164.033 0 .033-.046 0-.065s0-.17.111-.216c.018-.018.018-.047 0-.065 0-.046-.124-.2-.065-.268a1.11 1.11 0 0 1 .268 0h.589c.013.001.026-.005.033-.016s.01-.024.006-.036c0-.065.222-.1.281-.118.013-.015.013-.037 0-.052-.124-.3.327-.19.51-.164.039 0 .065 0 .052-.052s-.255-.209 0-.242c.069 0 .138.015.2.046.115.194.274.358.465.478.327.085.511.02.373-.196zm-.085.052c.059.078-.118 0-.137 0-.099-.061-.181-.146-.236-.249l.137.072a.56.56 0 0 1 .236.19zm-4.469 1.911c0-.131 0-.275.085-.294s0-.085 0-.085c-.164 0-.216.137-.19.307a1.29 1.29 0 0 0-.209-.072c-.1 0-.177 0-.209.085s0 .111 0 .17.078.052-.046.085c-.05.006-.1.006-.15 0a.23.23 0 0 0-.222.072c-.085.065.118.1-.118.059-.065 0-.124-.039-.19 0s-.131.039-.118.137.1.1.1.131c0 .209-.222.033-.308 0s-.059 0-.059.033.072.137-.079.151a.8.8 0 0 0-.157-.059c-.033 0-.183.124-.308.118s-.046 0-.039.052.085.15-.1.235h-.216c-.059 0 0 .085 0 .092s.379.131.471 0-.065-.19 0-.242a.42.42 0 0 1 .19-.059.33.33 0 0 1 .144-.039c.023.018.05.032.079.039h.111c.039 0 .039-.065.052-.072s-.046-.046 0-.072.092.033.137.046.177.079.236 0-.065-.17-.052-.236.249-.039.34-.1 0 0 0-.046c-.059-.2.314-.039.432-.065.023 0 .043-.016.046-.039l-.052-.131c0-.124.2-.111.281-.092.072.255.275.5.491.438.006-.012.006-.027 0-.039a.47.47 0 0 0-.373-.508zm.079.2v-.059c.072.052.144.118.15.151s-.124-.085-.15-.124z"/><path d="M101.261 161.427a.83.83 0 0 0-.373-.236l-.183-.092c-.079-.137-.19-.36-.046-.386a1.21 1.21 0 0 1 .353.1c.052 0 .046-.059 0-.078-.164-.059-.471-.262-.543 0-.011.087.002.175.039.255a.53.53 0 0 0-.236-.046c-.081.003-.144 0-.17.1s0 .072 0 .111.065.072.078.078h-.085c-.118 0-.432-.085-.5.059s.039.144.033.164-.229.085-.268.111 0 .072 0 .078a2.8 2.8 0 0 1-.334 0c-.183 0-.654-.052-.576.229 0 .033 0 0 .039.072s0 .065 0 .072 0 0-.046.039-.079 0-.1.039.046.151-.065.216-.465-.1-.622 0 .046.366-.2.373c-.059 0 0 .079 0 .085.229 0 .2 0 .249-.209.072-.3.523-.092.772-.164v-.065c-.005-.087.037-.17.111-.216.018-.018.018-.047 0-.065 0-.046-.124-.2-.065-.268s.236 0 .268-.033h.589c.014-.001.026-.009.033-.02s.01-.026.006-.039c-.033-.059.222-.1.281-.118s.033-.033 0-.052c-.124-.3.327-.19.51-.157.016.003.032-.003.043-.015s.014-.029.009-.044c0-.1-.255-.2 0-.242.069 0 .138.015.2.046a1.44 1.44 0 0 0 .465.484c.289.102.465.037.334-.166zm-.085.052c.059.079-.118 0-.137 0a.61.61 0 0 1-.236-.249l.137.072c.093.037.174.098.236.177zm2.899-2.361c-.033-.131-.039-.275.085-.294s0-.085 0-.085c-.164 0-.216.137-.2.308a1.09 1.09 0 0 0-.2-.072c-.1 0-.177 0-.209.085s0 .111 0 .17.079.052-.052.085c-.05.006-.1.006-.15 0-.082-.017-.166.01-.222.072-.078.065.124.1-.118.059a.56.56 0 0 0-.183 0c-.038-.007-.077.008-.101.038s-.031.07-.017.106c.02.1.1.1.1.131 0 .209-.229.033-.314 0s-.052 0-.052.033.065.137-.079.15a.8.8 0 0 0-.157-.059c-.033 0-.183.124-.314.118 0 0-.046 0 0 .052s.085.15-.1.236h-.222c-.052 0 0 .085 0 .092s.38.131.465 0-.059-.19 0-.242c.055-.035.118-.055.183-.059.047-.023.098-.036.15-.039 0 0 .046.039.072.039h.111c.033 0 .039-.065.059-.072s-.046-.052 0-.072.092.033.131.046.183.079.242 0-.065-.17-.052-.236.242-.039.34-.1c.01-.014.01-.032 0-.046-.059-.2.314-.039.432-.065s.046 0 .039-.039c-.012-.045-.028-.088-.046-.131.033-.124.2-.111.275-.092.079.255.275.5.5.438.006-.012.006-.027 0-.039-.043-.225-.19-.416-.396-.516zm.079.2a.29.29 0 0 1 0-.059.53.53 0 0 1 .15.151c-.007.124-.15-.052-.17-.092zm-8.369-4.866a.83.83 0 0 0-.373-.236l-.177-.092c-.085-.137-.2-.353-.052-.386a1.21 1.21 0 0 1 .353.1c.052 0 .046-.059 0-.078-.164-.059-.471-.262-.537 0a.4.4 0 0 0 .033.255.53.53 0 0 0-.236-.046c-.081.003-.144 0-.17.1s0 .072 0 .111.065.072.079.078h-.085c-.118 0-.425-.085-.5.059s.039.144 0 .164-.229.085-.268.111 0 .072 0 .078a2.66 2.66 0 0 1-.334 0c-.183 0-.654-.052-.576.229 0 0 .033 0 .039.078s0 .059 0 .065 0 0-.046.039-.079 0-.1.039.046.15-.065.216-.465-.1-.622 0 .046.366-.2.373c-.059 0 0 .079 0 .085.229 0 .2 0 .249-.209.072-.3.523-.092.772-.164v-.065c0-.02 0-.164.111-.209.018-.018.018-.047 0-.065 0-.052-.124-.2-.065-.275s.236 0 .268-.033h.589c.014-.001.026-.009.033-.02s.01-.026.006-.039c0-.059.222-.1.281-.118s0-.033 0-.052c-.124-.3.327-.19.51-.157.016.003.032-.003.043-.015s.014-.029.009-.044c0-.1-.255-.2 0-.242.069 0 .138.015.2.046a1.44 1.44 0 0 0 .465.484c.32.103.504.044.366-.165zm-.085.052c.059.078-.118 0-.137 0a.61.61 0 0 1-.236-.249l.137.072c.093.037.174.098.236.177zm-4.468 1.865c-.033-.131-.033-.275.085-.294s0-.085 0-.085c-.164 0-.216.137-.2.308-.063-.031-.131-.053-.2-.065-.1 0-.177 0-.209.085s.033.1 0 .164.079.052-.046.085a1.25 1.25 0 0 1-.15 0c-.131 0-.144 0-.222.065s.118.1-.118.065a.47.47 0 0 0-.19 0c-.036-.005-.073.008-.097.036s-.032.066-.021.101c.013.092.1.1.1.131 0 .209-.222.033-.314 0s-.052 0-.052.033.072.144-.078.15a.8.8 0 0 0-.157-.059c-.033 0-.183.124-.308.118-.014-.007-.032-.003-.041.01s-.009.031.002.042c.033.1.085.157-.1.236H88.7c-.059 0 0 .085 0 .092s.379.131.471 0-.065-.19-.033-.242.164-.052.19-.059c.046-.021.094-.034.144-.039.023.018.05.032.079.039h.1c.033 0 .046-.059.059-.072s-.046-.046 0-.072.092.033.137.046.177.079.236 0-.065-.164-.052-.235.242-.033.34-.1c.012-.013.012-.033 0-.046-.059-.209.314-.046.432-.065s.046 0 .039-.046a.98.98 0 0 0-.046-.131c.033-.124.2-.111.281-.085.072.249.275.5.491.432.006-.012.006-.027 0-.039.076-.216-.133-.386-.336-.504zm.079.209v-.065a.63.63 0 0 1 .15.15c.019.125-.131-.051-.151-.084z"/><path d="M94.543 157.711a.83.83 0 0 0-.373-.236l-.183-.092c-.085-.137-.19-.353-.046-.379s.262.072.353.1.039-.059 0-.072c-.164-.065-.471-.268-.543 0a.45.45 0 0 0 .039.255.53.53 0 0 0-.236-.046c-.081.003-.144 0-.17.1s0 .072 0 .111.065.072.079.078h-.085c-.118 0-.432-.078-.5.059s.039.144 0 .164-.229.085-.268.111 0 .072 0 .078c-.109.01-.218.01-.327 0-.183 0-.654-.052-.576.229 0 .033.033 0 .039.078a.1.1 0 0 0 0 .065l-.046.039c-.046.039-.079 0-.1.046s.046.144-.065.209-.465-.1-.622 0 .046.366-.2.366c-.059 0 0 .085 0 .085.229 0 .2 0 .249-.209.072-.3.517-.092.772-.164.033 0 .033-.039 0-.065s0-.164.111-.209c.018-.018.018-.047 0-.065 0-.052-.124-.2-.065-.275a1.62 1.62 0 0 1 .268 0c.196-.013.393-.013.589 0 .014-.001.026-.009.033-.02s.01-.026.006-.039c-.033-.059.222-.1.281-.111.011-.016.011-.036 0-.052-.124-.307.321-.2.51-.164.016.003.032-.003.043-.015s.014-.029.009-.044c-.033-.1-.255-.2 0-.242.07.002.138.02.2.052a1.48 1.48 0 0 0 .465.478c.313.064.489.007.359-.204zm-.085.059c.059.072-.118 0-.144 0-.097-.061-.176-.147-.229-.249l.137.072c.094.035.176.097.236.177zm2.878-2.368c0-.131-.039-.275.085-.294s0-.085 0-.085c-.164 0-.216.137-.2.308-.063-.031-.131-.053-.2-.065-.1 0-.177 0-.209.085s0 .1 0 .164.079.052-.052.085a1.25 1.25 0 0 1-.15 0c-.131 0-.144 0-.222.065s.124.1-.118.065c-.06-.013-.123-.013-.183 0-.092 0-.137.046-.118.137s.1.1.1.131c0 .209-.229.033-.314 0s-.052 0-.052.033.065.144-.085.15a1.21 1.21 0 0 0-.15-.059c-.1 0-.19.124-.314.118s-.046 0-.033.052.085.157-.1.236h-.228c-.052 0 0 .085 0 .092s.379.131.465 0-.059-.19-.033-.242.17-.052.19-.059a.56.56 0 0 1 .15-.039s.046.039.072.039h.111c.033 0 .039-.059.052-.072s-.039-.046 0-.072.085.033.131.046.183.079.242 0-.065-.17-.052-.235.242-.033.34-.1c.008-.014.008-.032 0-.046-.059-.209.314-.046.432-.072 0 0 .046 0 .039-.039a.98.98 0 0 0-.046-.131c0-.124.2-.111.275-.085.079.249.275.5.491.432.019-.003.033-.02.033-.039.043-.217-.153-.367-.349-.504zm.079.2c-.003-.02-.003-.039 0-.059a.65.65 0 0 1 .15.151c.013.126-.131-.05-.151-.09zm-2.186 4.353a.79.79 0 0 0-.373-.236l-.177-.092c-.085-.137-.2-.353-.046-.386a1.31 1.31 0 0 1 .353.1c.052 0 .039-.059 0-.072-.157-.065-.471-.268-.536 0a.41.41 0 0 0 .039.255.55.55 0 0 0-.229-.065c-.079 0-.137 0-.17.1s0 .072 0 .111.059.072.079.078h-.092c-.111 0-.425-.085-.5.059s.039.144 0 .164-.229.085-.268.111 0 .072 0 .078a2.8 2.8 0 0 1-.334 0c-.177 0-.654-.052-.569.229 0 .033 0 0 .033.078v.065l-.039.039c-.039.039-.079 0-.1.039s.046.15-.059.216-.471-.1-.622 0 .039.373-.2.373c-.052 0 0 .085 0 .085.222 0 .2 0 .242-.209.072-.3.523-.092.779-.164.018-.018.018-.047 0-.065-.072-.1 0-.164.111-.209.011-.007.017-.019.017-.032s-.007-.025-.017-.033c0-.052-.118-.2-.059-.275s.236 0 .268-.033q.294-.015.589 0a.04.04 0 0 0 .034-.02c.007-.012.007-.027-.001-.039 0-.059.229-.1.281-.111.014-.017.014-.042 0-.059-.118-.3.327-.19.51-.157.016.003.032-.003.043-.015s.014-.029.009-.044c0-.1-.249-.2 0-.242.073-.002.145.016.209.052.115.194.274.358.465.478.291.116.467.057.33-.152zm-.078.052c.052.079-.124 0-.144 0-.099-.061-.181-.146-.236-.249a.97.97 0 0 0 .144.072.61.61 0 0 1 .236.177z"/><path d="M97.448 157.849c-.033-.131-.039-.275.085-.288s0-.092 0-.092c-.17 0-.216.137-.2.307-.064-.03-.131-.051-.2-.065-.111 0-.177 0-.216.085s0 .1 0 .164.085.052-.046.085-.111 0-.15 0a.35.35 0 0 0-.222.065c-.079.065.118.1-.118.065-.06-.013-.123-.013-.183 0-.092 0-.137.046-.124.144s.1.1.1.124c0 .209-.229.033-.314 0s-.052 0-.052.033.065.144-.085.15a.72.72 0 0 0-.15-.059c-.033 0-.19.131-.314.118s-.046 0-.039.059.092.15-.1.229h-.229v.092s.386.131.471 0-.065-.183 0-.242a.35.35 0 0 1 .19-.059.79.79 0 0 1 .15-.039s.046.046.072.039a.63.63 0 0 1 .111 0c.033 0 .039-.059.052-.072s-.039-.046 0-.065.085 0 .131.046c.07.059.172.059.242 0 .065-.072-.065-.164-.052-.236s.242 0 .34-.1c.008-.014.008-.032 0-.046-.059-.209.314-.046.432-.065.023-.003.039-.023.039-.046l-.046-.131c0-.124.2-.1.275-.085.079.249.275.5.491.432h0a.56.56 0 0 0-.341-.547zm.078.209l-.033-.059a.5.5 0 0 1 .157.15c.039.124-.118-.059-.118-.092zm2.453-1.918c.006-.015.006-.031 0-.046-.033-.131-.183-.033-.209.046s.033.1 0 .164.085.052-.046.085a1.25 1.25 0 0 1-.15 0c-.131 0-.144 0-.222.065s.118.1-.118.065c-.06-.013-.123-.013-.183 0-.092 0-.137.046-.124.137s.1.1.1.131c0 .209-.229 0-.314 0h-.052s.065.144-.085.15a.72.72 0 0 0-.15-.059c-.033 0-.19.124-.314.118s-.046 0-.039.052.092.157-.1.235h-.222c-.046 0 0 .085 0 .092s.386.131.471 0-.065-.19 0-.242a.42.42 0 0 1 .19-.059.49.49 0 0 1 .15-.039s.046.039.072.039h.111c.033 0 .039-.059.052-.072s-.039-.046 0-.072.085 0 .131.046a.18.18 0 0 0 .242 0c.065-.078-.065-.164-.052-.236s.242-.033.34-.1c.006-.015.006-.031 0-.046-.059-.209.314-.046.432-.065.023-.003.039-.023.039-.046-.02-.088-.02-.18 0-.268a.19.19 0 0 0 .05-.075z"/></g><path d="M105.6 169.612l1.557.9 12.267-7.177 1.354-1.6-2.826.746z" class="AP AR"/><path d="M118.07 161.387l2.617-.51c.034-.01.071.005.089.036s.014.07-.011.095l-1.773 2.009z" class="AZ"/><path d="M120.759 161.008c.027-.025.033-.066.014-.098s-.058-.046-.093-.033l-.51.1h0a.45.45 0 0 1 .209.419v.033z" class="AN"/><path d="M109.239 168.625l.216-.124.255-.144 9.278-5.319c.171-.7-.229-1.412-.916-1.629l-9.271 5.319-.491.281c.346-.184 1.255 1.429.929 1.616z" class="AO"/><path d="M110.056 168.14l.478-.275c.137-.072.059-.419-.1-.779-.216-.478-.654-.936-.837-.837l-.347.2-.124.072c.183-.1.615.366.831.837.157.347.236.654.118.772h0z" class="AS"/><path d="M110.173 168.076c.327-.177-.608-1.793-.936-1.616l-.478.268c.327-.17 1.263 1.446.936 1.616z" class="AO"/><path d="M109.237 168.624l.471-.268c.327-.17-.563-1.734-.909-1.629h0l-.471.275c.327-.173 1.237 1.432.909 1.622z" class="AS"/><path d="M120.773 160.924l-.092-.046-1.9 1.034-9.814 5.627h-.046c.275.438.484.988.3 1.08l.216-.124.255-.144 9.278-5.319h0l1.773-2.009a.1.1 0 0 0 .026-.1z" class="Ae"/><path d="M107.236 169.749l2-1.145c.144-.072.065-.412-.1-.772-.216-.478-.654-.942-.831-.844h0l-2.015 1.151c-.4.229 0 1.1.419 1.485a.47.47 0 0 0 .527.125z" class="AW"/><path d="M107.347 169.128a1.44 1.44 0 0 0-.811-.988c-.101-.033-.211-.018-.3.039-.3.281.046 1.08.471 1.446.131.143.334.195.517.131.156-.092.208-.321.123-.628z" class="AR"/><path d="M139.53 188.017a1.57 1.57 0 0 0 .785-.2l13.085-7.557c.232-.113.385-.342.4-.6a.7.7 0 0 0-.4-.6l-2.336-1.354 1.119-.654c.239-.104.394-.339.394-.6s-.155-.496-.394-.6l-19.275-11.123a1.57 1.57 0 0 0-.785-.2 1.6 1.6 0 0 0-.785.2l-13.085 7.556c-.232.113-.385.342-.4.6a.7.7 0 0 0 .4.6l2.336 1.354-1.119.654a.7.7 0 0 0-.4.6c.015.258.168.487.4.6l19.268 11.122a1.6 1.6 0 0 0 .792.2z" class="AP AR"/><path d="M119.333 175.082a.45.45 0 0 1 .268-.379l13.085-7.563c.412-.208.897-.208 1.309 0l19.275 11.123c.151.069.253.214.268.379v.6c-.015.165-.117.309-.268.379l-13.085 7.563a1.45 1.45 0 0 1-1.309 0l-19.275-11.123c-.149-.068-.251-.21-.268-.373z" class="AS"/><path d="M153.289 178.268l-19.275-11.123c-.412-.208-.897-.208-1.309 0l-13.085 7.563a.4.4 0 0 0 0 .759l19.275 11.121a1.45 1.45 0 0 0 1.309 0l13.085-7.563a.4.4 0 0 0 0-.759z" class="AV"/><path d="M139.536 186.747v.589a1.31 1.31 0 0 0 .654-.157l13.085-7.557c.153-.068.258-.212.275-.379v-.6a.45.45 0 0 1-.275.379l-13.085 7.563a1.34 1.34 0 0 1-.654.162z" class="AY"/><path d="M118.116 171.896a.45.45 0 0 1 .268-.379l13.085-7.563c.412-.208.897-.208 1.309 0l19.278 11.121c.151.07.253.215.268.38v.6c-.015.165-.117.31-.268.379l-13.085 7.557c-.412.208-.897.208-1.309 0l-19.275-11.123c-.149-.068-.251-.21-.268-.373z" class="AS"/><path d="M152.072 175.075l-19.275-11.123c-.412-.208-.897-.208-1.309 0l-13.085 7.563a.4.4 0 0 0 0 .759l19.275 11.123c.412.208.897.208 1.309 0l13.085-7.563a.4.4 0 0 0 0-.759z" class="AV"/><path d="M138.319 183.555v.589a1.31 1.31 0 0 0 .654-.157l13.085-7.557c.153-.067.258-.212.275-.379v-.6c-.017.167-.122.312-.275.379l-13.085 7.563a1.34 1.34 0 0 1-.654.162z" class="AY"/><path d="M169.699 171.6c-.252.003-.5-.06-.72-.183l-20.151-11.633a.78.78 0 0 1-.033-1.4l16.645-10.586a1.49 1.49 0 0 1 .792-.209c.251-.005.499.056.72.177l5.993 3.468c.501.291.687.922.425 1.439l-.242.471a.21.21 0 0 0 .078.262l12.078 7.027a.79.79 0 0 1 .033 1.407l-14.826 9.546a1.51 1.51 0 0 1-.792.216z" class="AP AR"/><use xlink:href="#X" class="AO"/><use xlink:href="#X" class="AP AT"/><path d="M148.336 157.881l17.011-10.8a1.14 1.14 0 0 1 1.066 0l6.117 3.533c.301.174.414.554.255.864l-.249.491c-.159.31-.046.69.255.864l12.326 7.2c.138.049.231.18.231.327s-.092.278-.231.327l-15.133 9.742c-.331.177-.729.177-1.06 0l-20.564-11.875c-.157-.032-.272-.167-.278-.327s.098-.304.252-.347z" class="AO"/><path d="M209.393 150.35l-12.961 7.465 1.557.9 12.869-7.518" class="AP AR"/><path d="M210.655 150.718l1.538-1.832c.022-.024.025-.059.008-.086s-.049-.04-.08-.032l-2.349.517z" class="AW"/><path d="M212.134 148.767h0l-2.349.517.465.759.255-.157 1.642-1.04z" class="AZ"/><path d="M212.121 148.767c.031-.008.064.005.08.032s.013.062-.008.086l-.3.353h0c-.008-.151-.099-.284-.236-.347h-.033z" class="AN"/><path d="M199.134 155.701l.19-.111.229-.137 10.22-6.17a1.06 1.06 0 0 1 .654.432 1.1 1.1 0 0 1 .236.994l-10.22 6.17-.438.262c.248-.183-.596-1.603-.871-1.44z" class="AQ"/><path d="M199.134 155.701l.19-.111.229-.137 10.22-6.17a1.14 1.14 0 0 1 .746.582l-10.665 6.51v.039c-.255-.405-.57-.811-.72-.713z" class="AP"/><path d="M199.854 155.264l.425-.255c.118-.079.353.137.563.425s.458.916.294 1.021l-.307.19-.118.065c.164-.1 0-.654-.294-1.021-.2-.275-.425-.484-.55-.432h0z" class="AS"/><path d="M199.958 155.205c.281-.183 1.138 1.256.864 1.439l-.425.255c.281-.177-.582-1.623-.864-1.439z" class="AQ"/><path d="M199.134 155.702l.419-.249c.268-.183 1.112 1.2.883 1.426h0l-.425.249c.242-.17-.602-1.59-.877-1.426z" class="AS"/><path d="M212.2 148.793c-.013-.02-.035-.032-.059-.033.024.001.046.013.059.033z" class="AZ"/><path d="M197.355 156.781l1.78-1.08c.118-.078.353.137.563.419.281.379.458.916.3 1.021h0l-1.786 1.08c-.353.216-.87-.451-.981-.968-.062-.168-.013-.356.124-.472z" class="AW"/><path d="M197.898 156.958a1.31 1.31 0 0 1 .419 1.073.3.3 0 0 1-.157.216c-.353.118-.824-.5-.929-.995-.06-.165-.013-.349.118-.465.137-.078.339-.026.549.171z" class="AR"/><path d="M49.986 61.73c6.078-.569 9.644 3.533 11.574 7.668 2.323 5.005 6.543 15.787 6.543 15.787l20.361 3.533-1.78 5.071-19.347-.51c-2.31-.124-4.2.236-5.574-2.094s-6.451-16-6.451-16z" class="AU"/><path d="M49.986 61.73s4.508-.916 7.014.844c3.317 2.329 4.285 5.306 5.986 8.937a103.93 103.93 0 0 1 2.866 6.732S61.141 83.327 57 82.725 49.986 61.73 49.986 61.73z" class="AQ"/><path d="M88.489 88.718c6.261 1.053 8.244 4.128 9.474 5.764a4.19 4.19 0 0 1 .052 5.424c-1.426 1.695-2.185 1.407-5.044-1.734-1.518-1.668-3.127-2.839-3.513-2.839s1.309 1.838.393 3.108-1.616-1.021-2.211-1.747a7.69 7.69 0 0 1-1.878-4.58M36.098 197.135l-6.202-.18.308-10.625 6.202.18z" class="AU"/><path d="M36.188 194.068v-.881c.582.275 1.812 5.574 4.213 7.891 1.9 1.838 4.514 3.978 5.136 5.986s-3.808 3.108-5.627 2.728c-2.113-.432-5.751-2.035-6.641-3.448s-1.256-3.468-1.963-4.508-2.421-2.225-2.794-3.409a7.67 7.67 0 0 1 .445-3.271c.347-1.21.654-2.29 1.04-2.172v.654c.863.718 1.946 1.119 3.069 1.138.904.104 3.108-.014 3.122-.708z" class="AN"/><path d="M47.29 189.501l6.189.393.635-11.234-6.5-.4z" class="AU"/><path d="M53.604 187.984c.321 0 .569.478 1.256 1.269 1.033 1.102 2.243 2.023 3.579 2.728 2.29 1.23 6.752 3.147 8.767 4.128 1.263.608 1.158 2.153-.19 2.99s-4.547 1.381-8.348.419c-2.074-.523-4.73-2.532-6.451-2.473s-4.933-.065-6.176-.975-.654-2.761-.275-4.351c.438-1.74 1.008-4.456 1.583-4.318v.6c.713 1.151 4.58 1.721 6.216.936z" class="AN"/><use xlink:href="#Y" class="AO"/><use xlink:href="#Y" class="AX"/><path d="M45.249 121.621a23.01 23.01 0 0 0 8.774-4.7s-1.753 3.075-6.791 5.836l.033 21.944z" opacity=".35"/><path d="M33.557 64.314c-1.361.608-2.133 2.571-2.682 3.965-.484 1.237-1.963 3.271-1.963 5.614l1.047 11.908-.458 21.309a28.73 28.73 0 0 0 30.273-2.355l-.785-32.314v-.654a10.89 10.89 0 0 0-8.577-10c-1.675-.379-10.887 1.531-10.887 1.531l-5.954 1.008z" class="AO"/><g class="AN"><path d="M41.271 41.583c0 3.44 2.072 6.541 5.25 7.858s6.836.589 9.269-1.844 3.16-6.091 1.844-9.269-4.418-5.25-7.858-5.25c-4.697 0-8.505 3.808-8.505 8.505zm-6.209 6.06a74.5 74.5 0 0 0 1.93 7.557c.371.658.979 1.149 1.7 1.374l-.1-4.58z"/><path d="M36.796 38.339a3.2 3.2 0 0 0-2.65.929c-1.138 1.165-.5 4.809.916 8.375l2.617.294z"/></g><path d="M38.471 47.944c-.523.308-1.269-.694-1.91-1.367a2.27 2.27 0 0 0-3.795.615c-1.047 2.2.922 5.234 2.578 5.744 2.853.9 3.271-.936 3.271-.936l.216 11.535h0c3.54 4.58 13.38 4.2 9.284-.55v-4.1a18.23 18.23 0 0 0 3.847.2c2.094-.327 3.415-1.963 4.05-4.253 1.021-3.644 1.413-6.588.543-13.74-.949-7.851-10.089-7.936-15.048-4.828s-3.036 11.68-3.036 11.68z" class="AU"/><g class="AN"><path d="M38.471 48.821c-.262 0-1.263-1.649-1.91-2.244-.9-.818.262-8.237.262-8.237-.486-1.312-.146-2.788.864-3.756 1.237-1.354 2.578-2.211 6.137-2.4a72.3 72.3 0 0 1 7.282.34c3.513.242 4.809-.654 6.824-1.191 1.544-.432 1.721 5.136-2.179 6.981-1.428.715-2.986 1.133-4.58 1.23a49.39 49.39 0 0 1-9.258-.177c-.968-.131-1.171.8-1.695 3.369-.511 2.251-.89 6.065-1.747 6.085z"/><path d="M36.796 38.916l-3.154-1.695a1.74 1.74 0 0 1 2.388-.792c.878.491 1.215 1.586.765 2.486z"/></g><path d="M48.081 58.884c-2.156-.409-4.269-1.016-6.314-1.812a5.39 5.39 0 0 1-2.264-2.238c.258.951.703 1.84 1.309 2.617 1.191 1.531 7.289 2.656 7.289 2.656z" class="Ac"/><path d="M47.852 46.769a.95.95 0 0 1-.936.968.982.982 0 1 1 0-1.963.97.97 0 0 1 .936.995zm-.994-3.535l-2 1.106a1.19 1.19 0 0 1 .465-1.6 1.11 1.11 0 0 1 1.538.491z" class="AN"/><path d="M47.629 53.25l2.139.8c-.095.291-.304.531-.579.664s-.593.149-.88.043a1.19 1.19 0 0 1-.68-1.507z" class="Ac"/><path d="M55.947 44.012l-1.825-1.407a1.11 1.11 0 0 1 .741-.468 1.1 1.1 0 0 1 .849.219 1.22 1.22 0 0 1 .235 1.656zm-.564 2.493c.005.253-.09.499-.266.682s-.417.288-.67.293c-.528-.018-.946-.453-.942-.981a.94.94 0 0 1 1.432-.878.94.94 0 0 1 .446.878z" class="AN"/><path d="M50.607 45.615l.307 5.64 2.944-1z" class="Ac"/><path d="M26.956 55.639c-.517-.321-3.114.713-4.8 2.741s-2.048 5.012-1.609 5.673 6.746-1.623 6.746-1.623z" class="AQ"/><path d="M16.794 56.476c.857 2.126 11.306 17.161 13.812 20.76 6.968-3.075 2.2-11.247 2.2-11.247l-8.728-13.805c-.288-.509-.472-1.069-.543-1.649-.164-1.066-.844-14.086-.262-18.025.112-.699.478-1.333 1.027-1.78 1.171-1.097 2.174-2.36 2.977-3.749.8-1.112 1.57-1.466 1.407-1.76-.474-.666-1.381-.854-2.081-.432a10.94 10.94 0 0 0-2.087 1.538 14.53 14.53 0 0 1 1.767-4.292c1.852-3.042 1.721-4.737-2.794-4.155-2.826.36-5.555 2.617-6.824 9.107a56.34 56.34 0 0 0-.523 7.118c-.249 5.515-.347 14.224-.2 18.038a9.14 9.14 0 0 0 .852 4.333z" class="AU"/><path d="M35.058 64.314l-8.1-8.676s.2 6.948-6.412 8.414l8.6 12.955c.955 1.963 4.58.131 5.594-3.978 1.427-5.738.318-8.715.318-8.715z" class="AQ"/><g class="AU"><path d="M263.833 63.18c-4.974-.165-7.088 1.394-9.552 5.264-2.933 4.668-8.7 16.259-8.7 16.259l-20.64.964 1.127 5.248 19.264 1.918c2.302.161 4.145.759 5.823-1.387s8.383-15.069 8.383-15.069z"/><path d="M224.975 85.664c-6.341.263-8.697 3.076-10.123 4.533a4.2 4.2 0 0 0-.732 5.38c1.199 1.864 2 1.665 5.223-1.093 1.091-1.048 2.387-1.857 3.808-2.376.343.047-1.515 1.665-.778 3.035s1.733-.819 2.414-1.437a7.66 7.66 0 0 0 2.44-4.334"/></g><path d="M285.747 190.188a32.59 32.59 0 0 1 .5 5.234c.059 3.167.654 4.285.713 6.883.092 2.964-.425 4.076-1.629 5.744s-4.357 3.18-5.692.36-1.165-4.665-.739-7.576l.752-6.961.5-3.559z" class="AN"/><path d="M276.764 165.313l10.422-.19c-.157 6.955-1.263 18.535-1.439 25.065 0 1.223 0 9.546-.432 12.071-.7 3.8-5.234 3.271-5.444 1.014s.288-11.986.275-12.987c.059-4.187-1.9-15.107-2.951-22.625-.052-.366-.379-1.958-.431-2.348z" class="AU"/><path d="M261.447 184.771s.543.033.654.471.124 1.348.34 2.2c.351 1.346.477 2.741.373 4.128-.183.968-2.4 2.414-3.926 2.669-1.823.55-3.485 1.536-4.842 2.872a11.68 11.68 0 0 1-6.739 2.65c-2.532 0-4.292-.844-5.129-2.2s.759-1.518 3.657-3.4l2.244-1.459c4.58-3 6.261-4.58 7.557-7.6z" class="AN"/><path d="M255.579 183.142c.079-2.153-1.021-18.018-1.021-18.018l8.963 1.008c-2.12 12.654-2.29 16.959-2.054 18.8h0c.046.173.066.351.059.53 0 2.46-2.781 3.788-4.946 5.424-1.671 1.473-3.572 2.662-5.627 3.52-1.662.563-4.743.779-5.136-.229 2.617-2.015 6.216-4.639 8.309-6.935 1.001-1.104 1.381-1.915 1.453-4.1z" class="AU"/><path d="M282.573 98.146c4.724 10.75 2.022 43.1 2.022 43.1.144 1.734 2.126 5.143 2.866 12.771.87 9.016-1.61 33.139-1.61 33.139a5.77 5.77 0 0 1-5.836.124l-7.439-44.412c-.988-7.851-3.749-24.064-3.749-24.064l-4.514 24a46.7 46.7 0 0 1 1.708 7.714c.51 5.273-4.626 31.725-4.626 31.725a7.24 7.24 0 0 1-5.81-.111l-2.754-40.525c-.8-10.665 2.035-43.934 3.991-50.248z" class="AP"/><path d="M268.827 118.801l-1.158-7.962s-6.719-.9-9.768-3.762a11.03 11.03 0 0 0 7.91 5.005l1.191 7.2-2.048 20.9z" class="Aa"/><path d="M255.945 61.475h18.143a9.49 9.49 0 0 0 9.487-9.487v-6.5a13.09 13.09 0 0 0-13.053-13.089h-1.525a13.09 13.09 0 0 0-13.085 13.085z" class="AN"/><path d="M274.783 63.084h0c1.589.011 3.159.348 4.613.988a5.76 5.76 0 0 1 3.18 5.4c.033 2.748-.654 4.508-1.472 9.029l-1.636 8.689a146.64 146.64 0 0 0 3.8 12.431c-7.173 3.861-15.678 4.387-23.272 1.439-1.706-.658-3.222-1.729-4.413-3.117-.137-.929 1.014-9.847 1.014-14.832-1.9-4.77-2.035-5.81-1.237-8.957 1.492-5.856 7.269-11.554 9.814-11.345z" class="AO"/><path d="M260.989 101.444h0c17.22 1.217 18.091-10.01 17.109-11.731s-2.944 0-2.944 0 3.742-7.2 3.088-9.546c-1.309-4.331-1.538-11.319-1.538-11.319l4.39-3.487a5.89 5.89 0 0 1 1.5 4.109c.033 2.748-.654 4.508-1.466 9.029l-1.659 8.688a146.64 146.64 0 0 0 3.8 12.431c-6.852 3.671-14.921 4.333-22.28 1.826z" fill="#1d666c"/><g class="AQ"><path d="M278.824 31.869l-.9 3.422a1.72 1.72 0 0 0 2.179-1.2 1.86 1.86 0 0 0-1.282-2.225z"/><path d="M281.514 33.4l-2.951 1.963c.237.404.629.694 1.085.801s.936.024 1.329-.232a1.86 1.86 0 0 0 .537-2.532z"/></g><path d="M260.765 38.3c-1.459.864-3.271 4.534-3.082 12.228.15 6.543 2.264 8.133 3.324 8.6s3.108.177 5.1-.15v3.926s-2.748 3.193-2.578 4.986 3.971 2.218 6.543.465c1.678-1.2 3.117-2.702 4.246-4.429V53.78s1.309 1.459 3.494 0a3.76 3.76 0 0 0 .726-5.62c-.663-.583-1.576-.791-2.427-.555s-1.525.885-1.793 1.726a15.7 15.7 0 0 1-7.4-2.2c-3.344-1.792-5.63-5.073-6.153-8.831z" class="AU"/><path d="M265.694 48.893a.82.82 0 0 0 1.371.64.82.82 0 0 0-.517-1.422.82.82 0 0 0-.854.782z" class="AN"/><path d="M264.745 54.415l-1.9.608a.99.99 0 0 0 1.237.654c.515-.184.804-.733.663-1.262z" class="Ac"/><path d="M258.967 46.374l1.662-1.152a.97.97 0 0 0-1.381-.281 1.06 1.06 0 0 0-.281 1.433zm.387 1.924c-.018.221.054.44.199.607a.83.83 0 0 0 .573.283.84.84 0 0 0 .864-.811.82.82 0 0 0-.779-.849.82.82 0 0 0-.857.77z" class="AN"/><path d="M263.358 47.827l-.131 4.94-2.6-.8zm2.748 11.148c2.094-.275 6.412-1.518 7.079-3.219a4.41 4.41 0 0 1-1.485 2.172c-1.309 1.106-5.568 2.349-5.568 2.349z" class="Ac"/><use xlink:href="#Z" class="AO"/><use xlink:href="#Z" class="Aa"/><use xlink:href="#a" class="AO"/><use xlink:href="#a" class="Ad"/><path d="M292.944 91.767v15.048a1 1 0 0 1-.458.792l-17.855 10.311v1.963l-1.734-1h0c-.131 0-.229-.124-.229-.314v-17.209l20.282-11.711 1.891 1.093z" class="AS"/><path d="M274.566 119.587c0 .288.2.406.458.262l19.36-11.181a1 1 0 0 0 .458-.785V90.668l-20.283 11.718z" class="AV"/><path d="M274.572 102.379l-1.9-1.093 20.279-11.711 1.891 1.093z" fill="#e6e6e6"/><g class="AN"><path d="M275.43 102.602a.55.55 0 0 0-.131.118c-.067.063-.113.146-.131.236-.01.027-.01.058 0 .085 0 .157.118.209.275.118.071-.042.132-.101.177-.17a.51.51 0 0 0 .1-.268c.004-.011.004-.022 0-.033-.035-.132-.146-.171-.29-.086z"/><path d="M276.352 101.937c.009.228-.046.455-.157.654a.8.8 0 0 1-.589.412.92.92 0 0 1-.438-.033c.018-.09.064-.173.131-.236a.6.6 0 0 0 .406-.033.75.75 0 0 0 .386-.752c-.039-.797-.458-1.526-1.125-1.963-.622-.36-1.125-.079-1.132.654l-.255.15c-.003-.046-.003-.091 0-.137-.011-.228.041-.454.15-.654h0a.82.82 0 0 1 .6-.406 1.16 1.16 0 0 1 .772.177 2.73 2.73 0 0 1 1.251 2.167z"/></g><path d="M276.561 101.359l-1.341 19.419-.249-.144a.5.5 0 0 1-.229-.393l1.472-19.085z" class="AO"/><path d="M276.561 101.359l-1.341 19.419-.249-.144a.5.5 0 0 1-.229-.393l1.472-19.085z" class="Aa"/><g class="AO"><path d="M275.089 120.483c0 .294.2.412.451.262l19.369-11.182a1.01 1.01 0 0 0 .451-.785l1.479-19.438-20.284 11.718z"/><path d="M272.06 98.454l20.269-11.718 4.514 2.611-20.282 11.7z"/></g><path d="M272.06 98.454l20.269-11.718 4.514 2.611-20.282 11.7z" class="AR"/><path d="M276.934 96.661c-.129.218-.151.484-.059.72.108.248.298.451.537.576a2.76 2.76 0 0 0 2.519 0 1.31 1.31 0 0 0 .484-.451.94.94 0 0 0-.484-1.309 2.76 2.76 0 0 0-2.519 0c-.198.107-.363.265-.478.458z" class="AP"/><path d="M277.588 97.734c-.361 0-.654-.293-.654-.654s.293-.654.654-.654a2.48 2.48 0 0 1 2.251 0c.361 0 .654.293.654.655s-.293.654-.654.654a2.5 2.5 0 0 1-2.251 0zm4.286-2.242l-.34-.2a.75.75 0 0 1 0-1.426l8.787-5.077a2.76 2.76 0 0 1 2.48 0l.34.2a.76.76 0 0 1 0 1.433l-8.794 5.07a2.7 2.7 0 0 1-2.473 0z" fill="#f5f5f5"/><path d="M272.053 98.762l4.488 2.591.02-.3-4.5-2.6z" class="AO"/><path d="M272.053 98.762l4.488 2.591.02-.3-4.5-2.6z" class="Aa"/><g class="AU"><path d="M277.288 63.431c4.75.079 7.269.366 9 6.543 1.309 4.58 4.469 15.441 5.378 20 .419 2.1-.046 10.468-.687 19.975-.111 1.668-.118 3.585-1.047 4.5-2.061 2.041-6.4 3.3-6.844 1.963l2.663-1.538-1.237-22.7-5.47-15.048c.332 1.15-4.068-8.912-1.756-13.695z"/><path d="M285.198 104.604c-.164 1.08-1.25 2.617-2.074 4.063-.694 1.2-1.191 3.376-1.524 3.749s.55 1.119 1.649.183a10.21 10.21 0 0 0 1.87-2.615l-.242 5.378 2.768-.654z"/></g><path d="M316.912 107.735c-.208-.133-.279-.403-.163-.621l.21-.411c.582-1.064.282-2.394-.7-3.105l-.373-.279c-.153-.158-.177-.401-.058-.586s.35-.264.558-.19l.411.21h0c1.064.582 2.394.282 3.105-.7l.279-.373c.149-.2.427-.251.637-.116h0c.21.131.285.401.171.621l-.217.411c-.582 1.064-.282 2.394.7 3.105l.373.279c.153.158.177.401.058.586s-.35.264-.558.19l-.411-.21c-1.064-.582-2.394-.282-3.105.7l-.279.373c-.149.201-.428.252-.638.116zm.9-3.742a3.33 3.33 0 0 1 .388 1.7 3.32 3.32 0 0 1 1.7-.388 3.4 3.4 0 0 1-.388-1.7 3.33 3.33 0 0 1-1.7.388zm12.479 3.392a3.06 3.06 0 1 1 4.215-.963c-.914 1.407-2.781 1.834-4.215.963zm2.748-4.378a2.11 2.11 0 1 0 .66 2.9c.613-.984.319-2.278-.66-2.9zm-5.085 12.864a.48.48 0 0 1-.155-.66l.854-1.343c.066-.107.172-.184.295-.211s.252-.005.357.064c.223.137.292.429.155.652l-.854 1.366c-.068.105-.176.178-.298.203s-.25-.001-.354-.071zm-1.312.302l-1.351-.854c-.153-.158-.177-.401-.058-.586s.35-.264.558-.19l1.351.854c.153.158.177.401.058.586s-.35.264-.558.19zm-.605 2.732c-.22-.14-.286-.431-.147-.652l.846-1.351c.067-.108.175-.184.299-.212s.254-.004.361.065.184.172.211.295.005.252-.064.357l-.846 1.351c-.067.108-.175.184-.299.212s-.254.004-.361-.065zm3.656-.839l-1.351-.846a.49.49 0 0 1-.148-.66.47.47 0 0 1 .299-.212.48.48 0 0 1 .361.064l1.343.846a.48.48 0 0 1 .155.66.49.49 0 0 1-.659.148zm-317.54-15.124c-.025.248-.24.433-.489.419h-.466a2.41 2.41 0 0 0-2.484 1.956l-.085.45a.48.48 0 0 1-.521.359.48.48 0 0 1-.426-.468v-.466h0a2.41 2.41 0 0 0-1.956-2.484l-.45-.093c-.243-.047-.409-.274-.38-.52h0c.029-.25.248-.434.5-.419h.458a2.41 2.41 0 0 0 2.484-1.956l.093-.45c.047-.243.274-.409.52-.381s.429.242.419.49v.466a2.41 2.41 0 0 0 1.956 2.484l.45.093c.244.045.41.274.377.52zm-3.765.776c.354-.478.828-.853 1.374-1.087a3.3 3.3 0 0 1-1.079-1.327c-.354.478-.828.853-1.374 1.087a3.3 3.3 0 0 1 1.079 1.351zM6.095 91.01a3.06 3.06 0 1 1-2.632-3.4 3.06 3.06 0 0 1 2.632 3.4zm-5.124-.613c.011-.92.762-1.659 1.683-1.653s1.663.753 1.663 1.673-.743 1.668-1.663 1.673-1.672-.733-1.683-1.653zm13.796-.916c-.014.126-.077.241-.177.32s-.226.114-.351.099l-1.553-.194c-.262-.032-.448-.27-.416-.531a.48.48 0 0 1 .532-.416l1.553.194c.259.033.443.269.411.528zm.828 1.056l-.186 1.553c-.032.262-.27.448-.532.415s-.448-.27-.415-.531l.186-1.553a.48.48 0 0 1 .536-.419c.126.016.24.081.318.182a.47.47 0 0 1 .093.354zm2.735-.629c-.033.259-.269.443-.528.411l-1.553-.186c-.262-.032-.448-.27-.416-.531a.48.48 0 0 1 .532-.416l1.553.186a.48.48 0 0 1 .411.536zm-2.306-2.934l-.186 1.553c-.032.262-.27.448-.532.415s-.448-.27-.415-.531l.186-1.553c.032-.262.27-.448.532-.416s.448.27.415.531zM300.14 23.187a.49.49 0 0 1-.567-.326l-.132-.442a2.43 2.43 0 0 0-2.686-1.677l-.458.07c-.167.043-.345-.008-.464-.133a.47.47 0 0 1-.107-.47c.053-.164.191-.287.36-.32l.442-.14h0a2.42 2.42 0 0 0 1.677-2.678l-.07-.458c-.048-.25.11-.493.358-.551s.497.089.566.334l.14.442c.352 1.147 1.493 1.861 2.678 1.677l.458-.07c.25-.048.493.11.551.358s-.089.497-.334.566l-.443.14c-1.15.352-1.865 1.498-1.677 2.686l.07.45a.49.49 0 0 1-.363.543zm-2.026-3.284c.567.177 1.078.498 1.483.932a3.34 3.34 0 0 1 .924-1.483 3.35 3.35 0 0 1-1.483-.932 3.29 3.29 0 0 1-.924 1.483zm-1.166 15.1a3.06 3.06 0 1 1 1.931-1.35 3.06 3.06 0 0 1-1.931 1.35zm-1.157-5.03a1.752 1.752 0 1 0 0-.039zm-11.068-5.722a.48.48 0 0 1-.574-.357l-.357-1.553a.48.48 0 0 1 .61-.612.48.48 0 0 1 .322.395l.357 1.553a.48.48 0 0 1-.358.574zm-.715 1.142l-1.553.357a.48.48 0 0 1-.612-.61.48.48 0 0 1 .395-.322l1.553-.357a.48.48 0 0 1 .529.368.48.48 0 0 1-.312.564zm1.522 2.352a.48.48 0 0 1-.574-.357l-.357-1.553c-.03-.123-.009-.252.058-.359s.175-.182.299-.208.254-.009.362.058.184.175.212.299l.357 1.553c.058.255-.102.509-.357.567zm1.972-3.16l-1.553.357a.48.48 0 0 1-.566-.605.48.48 0 0 1 .349-.327l1.553-.357a.48.48 0 0 1 .574.358.48.48 0 0 1-.358.574zM40.183 11.75h0a.49.49 0 0 1-.652 0l-.357-.326h0c-.854-.808-2.167-.88-3.105-.171l-.371.268a.48.48 0 0 1-.644-.706l.326-.334a2.42 2.42 0 0 0 .194-3.16l-.279-.388a.48.48 0 0 1 .062-.644.46.46 0 0 1 .644 0l.334.318c.856.845 2.204.93 3.16.2l.365-.279c.2-.15.481-.119.644.07a.46.46 0 0 1 0 .644l-.318.334a2.4 2.4 0 0 0-.233 3.167l.279.373c.15.19.13.463-.047.629zm-3.338-1.9a3.26 3.26 0 0 1 1.747.109 3.42 3.42 0 0 1 .109-1.747 3.42 3.42 0 0 1-1.747-.109 3.26 3.26 0 0 1-.109 1.745zm18.902 7.978a3.03 3.03 0 0 1-1.692.776c-1.5.183-2.91-.754-3.322-2.208s.298-2.992 1.672-3.622 3.002-.165 3.836 1.096.624 2.941-.494 3.958zm-3.555-3.742c-.086.078-.164.163-.233.256a2.1 2.1 0 1 0 1.4-.815 2.06 2.06 0 0 0-1.167.559zM39.306 26.065h0l-1.172 1.079a.48.48 0 1 1-.644-.706l1.172-1.079c.088-.09.208-.141.334-.141s.246.051.334.141c.097.093.151.223.146.358s-.066.261-.169.348zm2.414 1.234h0a.48.48 0 0 1-.675 0l-1.095-1.2a.48.48 0 0 1 0-.675c.089-.09.211-.141.338-.141s.248.051.337.141l1.071 1.172c.104.085.166.211.17.345s-.049.263-.147.355zm.226-3.625h0l-1.172 1.079a.48.48 0 0 1-.675 0 .5.5 0 0 1 0-.675l1.172-1.071c.191-.18.491-.171.672.019s.171.491-.019.672zm-2.648.978h0a.48.48 0 0 1-.675 0l-1.079-1.172a.48.48 0 1 1 .706-.644l1.079 1.172a.48.48 0 0 1-.031.644z" class="Ag"/><defs ><path id="B" d="M103.279 46.106l-2.486-4.632 1.963-5.718v-3.527l-6.065 3.5v3.5l2.617 4.514c.04.07.103.125.177.157h0z"/><path id="C" d="M210.213 46.106l2.46-4.632-1.963-5.718v-3.527l6.065 3.5v3.5l-2.617 4.514a.34.34 0 0 1-.177.157h0z"/><path id="D" d="M183.696 163.367c2.748 3.271 7.516 3.746 12.938.622 8.546-4.907 15.465-16.929 15.465-26.793 0-4.408-1.382-7.647-3.672-9.438 1.636 1.889 2.527 4.711 2.527 8.326 0 9.814-6.927 21.853-15.474 26.784-4.718 2.732-8.946 2.723-11.784.499z"/><path id="E" d="M189.937 148.965a4.11 4.11 0 0 0 1.636 3.713l.818.483c.566.347 1.228.502 1.889.442h0l.417-.065h.131l.327-.09.237-.065.229-.1.352-.139.589-.3c3.425-2.234 5.58-5.968 5.8-10.051q0-.335 0-.638c.004-.074.004-.147 0-.221a2.97 2.97 0 0 0-.049-.376 1.59 1.59 0 0 0-.057-.254l-.074-.278c-.017-.095-.051-.187-.1-.27a1.63 1.63 0 0 0-.082-.213c-.041-.1-.09-.188-.131-.27l-.09-.155c-.055-.093-.115-.183-.18-.27l-.074-.1c-.07-.09-.146-.175-.229-.254l-.065-.065a2.45 2.45 0 0 0-.278-.229h-.041l-.221-.147c-.286-.164-.548-.286-.769-.417-1.055-.662-2.535-.605-4.179.344-3.411 2.218-5.566 5.924-5.807 9.986zm7.279 1.21c-.474-.932-.573-2.764 0-3.46s.581.319 2.085-.458a9.81 9.81 0 0 0 1.014-.622c-.691 1.649-1.687 3.153-2.936 4.433a.58.58 0 0 1-.164.139zm-3.484-7.14a.6.6 0 0 1 .057-.172c1.002-1.28 2.306-2.292 3.795-2.944a8.08 8.08 0 0 1-1.546 4.335c-.103-.186-.256-.339-.442-.442l-.891-.507a1.7 1.7 0 0 0-.245-.106c-.238-.079-.484-.134-.733-.163zm5.978-3.345a4.37 4.37 0 0 1 1 2.936c-.123 1.1-1.979 2.208-3.116 2.4.049-.573.818-.818 1.268-2.593.398-1.442.365-2.538.848-2.742zm-6.944 12.268l-.057-.074c-.458-.728 1.325-3.2 2.511-4.089a3.02 3.02 0 0 0 0 1.636c.311 1.145.981 1.685.376 2.233a3.82 3.82 0 0 1-2.83.27zm-1.178-2.4c.036-1.494.372-2.965.99-4.326a1.5 1.5 0 0 1 1.824-.613 1.16 1.16 0 0 1 .409 1.21c-.3.9-.818.319-2.061 2-.483.613-.859 1.251-1.161 1.7z"/><path id="F" d="M235.547 117.494l-5.21 29.1c-.038.598-.399 1.127-.942 1.38s-1.18.189-1.662-.167l-34.28-19.8a3.8 3.8 0 0 1-1.717-3.713l5.226-29.123c.038-.599.4-1.129.944-1.381s1.183-.187 1.665.171l34.262 19.788a3.81 3.81 0 0 1 1.714 3.745z"/><path id="G" d="M202.932 132.036c-1.529 4.392-2.069 9.372-7.827 13.421-5.234 3.689-16.929 6.477-18.4 7.2s-2.454.99-3.091 3.378c-.859 3.271-.965 5.725-4.024 11.45-2.151 4.04-3.8 6.919-5.5 9.9-1.554.172-6.854-1.276-7.647-2.519.393-2.5 4.833-26.294 7.524-31.5 2.265-4.384 30.5-18.737 30.5-18.737s9.995 3.023 8.465 7.407z"/><path id="H" d="M223.37 129.018c.777 4.351 1.8 11.139-.818 14.967-2.454 3.541-5.684 5.938-11.622 9.724l-11.352 7.312a7.99 7.99 0 0 0-3.509 5.062 40.51 40.51 0 0 1-3.819 11.45c-2.176 4.613-4.588 8.841-5.815 11.18-1.84.311-6.428-.572-7.63-2.126.662-3.492 4.474-28.256 6.1-31.9s14.511-14.669 14.511-14.669 1.014-6.657 0-11z"/><path id="I" d="M224.589 187.101c2.748 3.271 7.516 3.746 12.938.613 8.546-4.907 15.465-16.921 15.465-26.784 0-4.408-1.382-7.647-3.68-9.438 1.636 1.889 2.527 4.711 2.527 8.318 0 9.863-6.919 21.861-15.465 26.793-4.719 2.731-8.955 2.719-11.785.498z"/><path id="J" d="M230.829 172.701a4.11 4.11 0 0 0 1.636 3.713l.818.483a3.11 3.11 0 0 0 1.9.442h0l.417-.065h.123l.335-.09.229-.065.237-.1c.117-.039.232-.086.344-.139l.6-.3a12.83 12.83 0 0 0 5.8-10.051v-.859a1.13 1.13 0 0 0-.049-.376 2.29 2.29 0 0 0-.065-.254c-.01-.098-.032-.194-.065-.286l-.1-.262c-.013-.078-.04-.153-.082-.221-.041-.09-.088-.177-.139-.262a1.52 1.52 0 0 0-.082-.164c-.055-.09-.115-.178-.18-.262l-.074-.106-.229-.253-.065-.057-.278-.237h-.041l-.221-.147-.769-.425c-1.055-.663-2.535-.605-4.179.352-3.418 2.216-5.579 5.925-5.821 9.991zm7.279 1.21a3.99 3.99 0 0 1 0-3.468c.573-.7.581.327 2.086-.45a11.45 11.45 0 0 0 1.014-.622c-.691 1.649-1.687 3.153-2.936 4.433a.7.7 0 0 1-.164.123zm-3.525-7.14a.91.91 0 0 1 .065-.172c1.002-1.281 2.306-2.292 3.795-2.944a8.08 8.08 0 0 1-1.546 4.335c-.103-.186-.256-.339-.442-.442l-.891-.507c-.081-.046-.166-.084-.254-.114a3.41 3.41 0 0 0-.727-.158zm5.987-3.353a4.45 4.45 0 0 1 1 2.944c-.123 1.1-1.979 2.208-3.116 2.4.041-.572.818-.818 1.268-2.593.425-1.439.393-2.535.883-2.748zm-6.943 12.268l-.057-.065c-.458-.736 1.325-3.2 2.511-4.13a3.02 3.02 0 0 0 0 1.636c.311 1.145.981 1.685.376 2.233a3.82 3.82 0 0 1-2.8.3zm-1.178-2.388a10.97 10.97 0 0 1 .99-4.326 1.47 1.47 0 0 1 1.824-.613 1.16 1.16 0 0 1 .409 1.21c-.3.9-.818.319-2.061 2-.45.613-.826 1.251-1.129 1.7z"/><path id="K" d="M69.975 159.111v-.478c.041-.845.488-1.617 1.2-2.074l81.273-46.944c.753-.388 1.647-.388 2.4 0l79.166 45.7c.712.457 1.159 1.229 1.2 2.074v.478c-.041.845-.488 1.617-1.2 2.074l-81.253 46.95c-.755.379-1.645.379-2.4 0l-79.166-45.7a2.65 2.65 0 0 1-1.22-2.08z"/><path id="L" d="M151.568 203.954v3.271a2.56 2.56 0 0 1-1.2-.288l-79.166-45.7c-.712-.457-1.159-1.229-1.2-2.074v-.484c.035-.749.39-1.447.975-1.917-.432.366-.36.883.222 1.23l79.166 45.7c.372.19.786.28 1.203.262z"/><path id="M" d="M71.179 157.94l79.166 45.707c.755.379 1.645.379 2.4 0l81.273-46.95c.298-.098.5-.376.5-.69s-.202-.592-.5-.69l-79.166-45.7c-.753-.388-1.647-.388-2.4 0L71.179 156.56c-.298.098-.5.376-.5.69s.202.592.5.69z"/><path id="N" d="M162.338 139.234v.379a1.59 1.59 0 0 0 .785 1.361l27.4 15.814a1.51 1.51 0 0 0 .779.209c.278.002.551-.07.792-.209l14.93-8.6c.485-.279.784-.795.785-1.354v-.523h0a.21.21 0 0 1-.1.177l-16.4 9.467z"/><path id="O" d="M162.338 139.235l16.245-9.382c.291-.163.645-.163.936 0l28.186 16.278a.21.21 0 0 1 0 .36l-16.4 9.467z"/><path id="P" d="M191.302 155.954v1.04a1.51 1.51 0 0 1-.779-.209l-27.4-15.82c-.486-.277-.786-.794-.785-1.354v-.379z"/><path id="Q" d="M191.302 155.958l-.183.1a1.52 1.52 0 0 1-.255.124l-3.226-19.27a1.38 1.38 0 0 0-.654-.955L158.628 119.6c.117-.108.243-.205.379-.288l28.408 16.4c.35.208.589.56.654.962z"/><path id="R" d="M141.487 138.273l-15.774-9.114c-.283-.157-.626-.157-.909 0l-27.375 15.807a.2.2 0 0 0 0 .353l15.925 9.2z"/><path id="S" d="M113.353 154.511v1.027c.266.003.529-.066.759-.2l26.6-15.375a1.53 1.53 0 0 0 .761-1.308v-.366z"/><path id="T" d="M113.785 154.74a1.8 1.8 0 0 0 1.551-.124l26.5-15.3a1.8 1.8 0 0 0 .877-1.256l2.9-17.3a1.49 1.49 0 0 0 0-.294c.009-.492-.185-.965-.536-1.309l-27.532 15.904a1.34 1.34 0 0 0-.654.929z"/><path id="U" d="M106.489 158.214c-.15.092-.15.236 0 .321.174.081.376.081.55 0 .15-.085.15-.229 0-.321-.174-.081-.376-.081-.55 0z"/><path id="V" d="M104.841 157.262c-.069.021-.117.085-.117.157s.047.136.117.157a.57.57 0 0 0 .543 0c.157-.085.157-.229 0-.314a.57.57 0 0 0-.543 0z"/><path id="W" d="M96.578 152.496c-.069.021-.117.085-.117.157s.047.136.117.157a.58.58 0 0 0 .55 0c.069-.021.117-.085.117-.157s-.047-.136-.117-.157a.58.58 0 0 0-.55 0z"/><path id="X" d="M169.993 170.404l15.094-8.741c.135-.044.226-.169.226-.311s-.091-.267-.226-.311l-20.7-11.777c-.339-.174-.741-.174-1.08 0L148.35 157.9c-.135.044-.226.169-.226.311s.091.267.226.311l20.564 11.875a1.2 1.2 0 0 0 1.08.007z"/><path id="Y" d="M29.828 106.966c-.17 5.928-.111 40.408-.111 40.408-.19 1.7-1.917 4.685-2.224 10.822-.438 8.9 2.29 33.446 2.29 33.446a8.17 8.17 0 0 0 6.9.334l5.129-41.873c1.191-7.661 3.435-28.513 3.435-28.513l2.2 25.2a35.28 35.28 0 0 0-1.053 9.814c.177 4.083.6 29.357.6 29.357a8.46 8.46 0 0 0 7.145.752l5.587-39.6c.2-4.259-.255-47.833-.255-47.833z"/><path id="Z" d="M272.06 118.736c-.011.114.039.226.131.294l.353.2 19.333-11.411a1.01 1.01 0 0 0 .451-.785V86.749l-20.281 11.718z"/><path id="a" d="M272.401 118.932c0 .294.2.406.451.262l19.366-11.179c.268-.175.438-.466.458-.785V86.945l-20.282 11.718z"/></defs></svg>