<svg xmlns="http://www.w3.org/2000/svg" width="420.525" height="249.24" viewBox="0 0 420.525 249.24"><defs><style>.a{fill:#ebebeb;}.b{fill:none;stroke:#ebebeb;stroke-miterlimit:10;}.c{fill:#c7c7c7;}.d{fill:#f3d516;}.e,.h,.m{fill:#263238;}.f{fill:#fff;}.g{fill:#dbdbdb;}.h{font-size:15px;font-family:SegoeUI-Bold, Segoe UI;font-weight:700;letter-spacing:-0.02em;}.i{fill:#37474f;}.j{fill:#a6a6a6;}.k{fill:#455a64;}.l{fill:#eb9481;}.m,.s{opacity:0.2;}.n{fill:#ad6359;}.o{fill:#d3766a;}.p{fill:#ff9cbd;}.q{fill:#f7a9a0;}.r{opacity:0.1;}</style></defs><g transform="translate(-50.12 -40.23)"><g transform="translate(50.12 40.23)"><path class="a" d="M65.194,67.825a44.089,44.089,0,0,0-2.986,13.643H50.12v-.337c.032-.311.071-.648.1-.926a32.767,32.767,0,0,1,.8-4.761,37.054,37.054,0,0,1,2.682-7.45.272.272,0,0,1,.292-.175h11.2Z" transform="translate(-50.12 -49.946)"/><path class="a" d="M64.825,107.635h-11.1a.246.246,0,0,1-.266-.175,33.854,33.854,0,0,1-2.76-8.421,34.482,34.482,0,0,1-.544-4.25,1.457,1.457,0,0,0-.032-.143V94.31H61.994c.22,0,.207,0,.227.22.071.972.136,1.943.227,2.909a38.867,38.867,0,0,0,.745,4.573,40.73,40.73,0,0,0,1.581,5.435C64.793,107.512,64.806,107.564,64.825,107.635Z" transform="translate(-50.12 -59.277)"/><path class="a" d="M131.731,120.305c-.039.065-.065.117-.1.162a33.074,33.074,0,0,1-3.148,4.081,31.094,31.094,0,0,1-4.606,4.25,32.934,32.934,0,0,1-10.805,5.416,34.338,34.338,0,0,1-4.606.985,2.654,2.654,0,0,0-.453.078h-.272l-.253-.162.292-.214a35.422,35.422,0,0,0,8.758-8.493,40.523,40.523,0,0,0,3.576-5.934.253.253,0,0,1,.272-.175H131.75Z" transform="translate(-70.326 -68.43)"/><path class="a" d="M119.279,81.483h-15.6v-13.6h12.179a.227.227,0,0,1,.246.162,37.92,37.92,0,0,1,2.481,7.987,40.521,40.521,0,0,1,.6,4.321C119.214,80.7,119.247,81.081,119.279,81.483Z" transform="translate(-68.984 -49.967)"/><path class="a" d="M119.139,94.49a6.7,6.7,0,0,1-.045.959c-.071.764-.123,1.522-.233,2.28-.143,1.043-.3,2.086-.512,3.122a37.345,37.345,0,0,1-2.021,6.653.266.266,0,0,1-.285.2h-12.5V94.49Z" transform="translate(-68.935 -59.34)"/><path class="a" d="M89.98,68V81.6H74.75a5.4,5.4,0,0,1,.065-1.024c.078-.758.143-1.529.259-2.287.188-1.153.389-2.313.648-3.459a35.078,35.078,0,0,1,2.2-6.711A.233.233,0,0,1,78.151,68Z" transform="translate(-58.795 -50.01)"/><path class="a" d="M89.989,94.669V107.7H77.817a.246.246,0,0,1-.266-.175,34.631,34.631,0,0,1-2.073-6.873c-.227-1.211-.4-2.436-.557-3.66-.1-.8-.123-1.607-.181-2.416v-.084H89.808C89.957,94.468,89.989,94.52,89.989,94.669Z" transform="translate(-58.791 -59.338)"/><path class="a" d="M144.735,81.543H131.954A44.342,44.342,0,0,0,129,67.829h11.913a.259.259,0,0,1,.279.168,33.548,33.548,0,0,1,2.947,8.544,36.071,36.071,0,0,1,.648,4.794A.342.342,0,0,0,144.735,81.543Z" transform="translate(-77.902 -49.949)"/><path class="a" d="M144.931,94.33a5.779,5.779,0,0,1-.045.894,33.92,33.92,0,0,1-.421,3.44,33.5,33.5,0,0,1-2.326,7.676c-.175.4-.363.79-.544,1.179a.175.175,0,0,1-.188.123H129.52l.415-1.2a41.789,41.789,0,0,0,2.131-10.864c0-.363.045-.732.065-1.1,0-.1,0-.143.13-.136a.778.778,0,0,0,.123,0Z" transform="translate(-78.085 -59.284)"/><path class="a" d="M131.374,54.631a.377.377,0,0,0,0,.052H120a.253.253,0,0,1-.266-.155,38.427,38.427,0,0,0-5.552-8.221,30.523,30.523,0,0,0-4.256-3.926c-.764-.589-1.555-1.14-2.332-1.7l-.13-.1.155-.1a1.364,1.364,0,0,0-.071-.246A33.446,33.446,0,0,1,131.374,54.631Z" transform="translate(-70.319 -40.23)"/><path class="a" d="M82.093,135.072a1.14,1.14,0,0,1-.324.052,30.353,30.353,0,0,1-3.641-.706,32.792,32.792,0,0,1-13.1-6.744,31.6,31.6,0,0,1-3.978-3.977,33.26,33.26,0,0,1-2.481-3.433l-.052-.1H69.112a.259.259,0,0,1,.266.168,40.237,40.237,0,0,0,3.822,6.238,39.71,39.71,0,0,0,4.483,4.962A34.847,34.847,0,0,0,82,135Z" transform="translate(-53.079 -68.381)"/><path class="a" d="M82.148,40.606c-.473.343-1.036.738-1.574,1.153a38.914,38.914,0,0,0-5.046,4.7A35.331,35.331,0,0,0,70.235,54c-.091.175-.168.356-.266.518a.246.246,0,0,1-.162.1H59.06A33.166,33.166,0,0,1,82.031,40.34l-.065.136Z" transform="translate(-53.269 -40.269)"/><path class="a" d="M114.561,120.32a36.671,36.671,0,0,1-5.182,6.97,32.48,32.48,0,0,1-5.888,4.995V120.32Z" transform="translate(-68.917 -68.438)"/><path class="a" d="M92.5,120.33v11.732A33.983,33.983,0,0,1,81.91,120.33Z" transform="translate(-61.317 -68.441)"/><path class="a" d="M114.256,56.3H103.69V45.13a32.39,32.39,0,0,1,5.94,4.975A37.34,37.34,0,0,1,114.256,56.3Z" transform="translate(-68.987 -41.956)"/><path class="a" d="M92.73,45.67V56.585H82.56A32.176,32.176,0,0,1,92.73,45.67Z" transform="translate(-61.545 -42.146)"/><rect class="b" width="151.798" height="114.628" transform="translate(256.081 7.845)"/><rect class="b" width="151.798" height="7.618" transform="translate(256.081 7.845)"/><path class="c" d="M454.347,57.243A1.943,1.943,0,1,1,452.4,55.3a1.943,1.943,0,0,1,1.943,1.943Z" transform="translate(-191.121 -45.538)"/><path class="a" d="M466.427,57.243a1.943,1.943,0,1,1-1.943-1.943,1.943,1.943,0,0,1,1.943,1.943Z" transform="translate(-195.375 -45.538)"/><path class="d" d="M478.5,57.243a1.943,1.943,0,1,1-1.943-1.943,1.943,1.943,0,0,1,1.943,1.943Z" transform="translate(-199.626 -45.538)"/><rect class="b" width="83.747" height="60.329" transform="translate(5.921 74.723)"/><rect class="b" width="83.747" height="7.618" transform="translate(5.921 74.723)"/><path class="c" d="M68.177,160.5a1.943,1.943,0,1,1-1.943-1.911,1.943,1.943,0,0,1,1.943,1.911Z" transform="translate(-55.111 -81.917)"/><path class="a" d="M80.257,160.5a1.943,1.943,0,1,1-1.943-1.911,1.943,1.943,0,0,1,1.943,1.911Z" transform="translate(-59.365 -81.917)"/><path class="d" d="M92.327,160.5a1.943,1.943,0,1,1-1.943-1.911,1.943,1.943,0,0,1,1.943,1.911Z" transform="translate(-63.617 -81.917)"/></g><g transform="translate(50.509 288.822)"><path class="e" d="M50.72,424.3l52.517-.155,52.517-.058,105.034-.11,105.034.11,52.517.052,52.517.162-52.517.155-52.517.058-105.034.11-105.034-.11-52.517-.058Z" transform="translate(-50.72 -423.98)"/></g><g transform="translate(74.982 64.373)"><g transform="translate(35.396 81.635)"><path class="e" d="M148.3,203.68h2.319l5.144,13.52h-2.7l-1.257-3.369h-4.729l-1.237,3.369h-2.7Zm3.025,8.3-1.866-5.318-1.943,5.318Z" transform="translate(-143.14 -203.576)"/><path class="e" d="M175.816,213.714a3.084,3.084,0,0,1-1.3,2.591,4.535,4.535,0,0,1-1.393.648,6.153,6.153,0,0,1-1.684.227H164.92v-13.5h7.242a2.637,2.637,0,0,1,1.3.3,3.174,3.174,0,0,1,.965.79,3.615,3.615,0,0,1,.648,1.1,3.679,3.679,0,0,1-.279,3.1,2.986,2.986,0,0,1-1.445,1.3,3.466,3.466,0,0,1,1.84,1.231,3.563,3.563,0,0,1,.628,2.209Zm-8.266-7.774v3.407h3.5a1.561,1.561,0,0,0,1.134-.46,1.671,1.671,0,0,0,.466-1.257,1.743,1.743,0,0,0-.428-1.237,1.393,1.393,0,0,0-1.056-.453Zm5.616,7.294a1.943,1.943,0,0,0-.123-.7,1.866,1.866,0,0,0-.33-.577,1.549,1.549,0,0,0-.5-.4,1.425,1.425,0,0,0-.648-.143h-4v3.563h3.887a1.781,1.781,0,0,0,.648-.13,1.671,1.671,0,0,0,.544-.376,1.794,1.794,0,0,0,.363-.564,1.84,1.84,0,0,0,.162-.693Z" transform="translate(-150.811 -203.575)"/><path class="e" d="M190.238,217.24a6.134,6.134,0,0,1-2.695-.583,6.646,6.646,0,0,1-2.073-1.542,7.2,7.2,0,0,1-1.82-4.735,6.757,6.757,0,0,1,.505-2.591,7.042,7.042,0,0,1,1.393-2.2,6.589,6.589,0,0,1,2.105-1.509,6.2,6.2,0,0,1,2.643-.564,5.9,5.9,0,0,1,2.675.6,6.543,6.543,0,0,1,2.066,1.568,7.294,7.294,0,0,1,1.334,2.209,6.927,6.927,0,0,1-1.393,7.268,6.62,6.62,0,0,1-2.092,1.5A6.231,6.231,0,0,1,190.238,217.24Zm-3.887-6.86a5.318,5.318,0,0,0,.266,1.7,4.534,4.534,0,0,0,.771,1.451,3.888,3.888,0,0,0,1.237,1,3.485,3.485,0,0,0,1.665.382,3.575,3.575,0,0,0,1.691-.389,3.887,3.887,0,0,0,1.237-1.036,4.6,4.6,0,0,0,.758-1.458,5.331,5.331,0,0,0,.259-1.652,5.143,5.143,0,0,0-.279-1.691,4.592,4.592,0,0,0-.777-1.451,3.789,3.789,0,0,0-1.237-1,3.64,3.64,0,0,0-1.652-.369,3.576,3.576,0,0,0-1.691.389,3.686,3.686,0,0,0-1.237,1.03,4.658,4.658,0,0,0-.758,1.445,5.487,5.487,0,0,0-.285,1.645Z" transform="translate(-157.408 -203.519)"/><path class="e" d="M212.774,214.971a2.986,2.986,0,0,0,1.574-.382,3.141,3.141,0,0,0,1.017-.985,4.082,4.082,0,0,0,.551-1.4,8.421,8.421,0,0,0,.162-1.626v-6.9h2.591v6.893a9.971,9.971,0,0,1-.337,2.591,5.915,5.915,0,0,1-1.049,2.131,5.033,5.033,0,0,1-1.833,1.451,6.316,6.316,0,0,1-2.688.531,6.154,6.154,0,0,1-2.753-.564,5.137,5.137,0,0,1-1.833-1.483,5.986,5.986,0,0,1-1.024-2.144,10.2,10.2,0,0,1-.311-2.533V203.68h2.63v6.893a8.008,8.008,0,0,0,.162,1.645,3.958,3.958,0,0,0,.551,1.386,2.961,2.961,0,0,0,1.017.985A3,3,0,0,0,212.774,214.971Z" transform="translate(-165.575 -203.576)"/><path class="e" d="M238.693,205.98h-4.321V217.2h-2.591V205.98H227.46v-2.3h11.233Z" transform="translate(-172.838 -203.576)"/><path class="e" d="M259.221,214.971a2.986,2.986,0,0,0,1.574-.382,3.018,3.018,0,0,0,1.03-.991,4.082,4.082,0,0,0,.551-1.4,7.907,7.907,0,0,0,.162-1.626V203.68h2.591v6.893a9.716,9.716,0,0,1-.337,2.591,6.012,6.012,0,0,1-1.043,2.131,5.052,5.052,0,0,1-1.84,1.451,6.316,6.316,0,0,1-2.688.531,6.108,6.108,0,0,1-2.747-.564,5.1,5.1,0,0,1-1.84-1.483,5.985,5.985,0,0,1-1.024-2.144,10.2,10.2,0,0,1-.311-2.533V203.68h2.63v6.893a8.005,8.005,0,0,0,.162,1.645,3.958,3.958,0,0,0,.551,1.4,2.844,2.844,0,0,0,2.559,1.354Z" transform="translate(-181.939 -203.576)"/><path class="e" d="M283.193,207.188a3.076,3.076,0,0,0-.486-.363,5.184,5.184,0,0,0-.855-.447,7.489,7.489,0,0,0-1.095-.376,5.021,5.021,0,0,0-1.2-.149,2.688,2.688,0,0,0-1.619.4,1.335,1.335,0,0,0-.538,1.127,1.172,1.172,0,0,0,.2.693,1.691,1.691,0,0,0,.583.486,4.746,4.746,0,0,0,.959.382c.389.117.836.233,1.347.363.648.175,1.257.369,1.794.57a4.794,4.794,0,0,1,1.373.764,3.161,3.161,0,0,1,.868,1.095,3.634,3.634,0,0,1,.3,1.568,3.92,3.92,0,0,1-.408,1.859,3.44,3.44,0,0,1-1.108,1.25,4.833,4.833,0,0,1-1.6.693,8.176,8.176,0,0,1-1.892.22,10.21,10.21,0,0,1-3.012-.46,9.251,9.251,0,0,1-2.662-1.3l1.16-2.267a3.45,3.45,0,0,0,.615.447,9.346,9.346,0,0,0,1.062.557,8.62,8.62,0,0,0,1.347.466,6.337,6.337,0,0,0,1.529.188c1.445,0,2.17-.46,2.17-1.393a1.14,1.14,0,0,0-.246-.738,2.137,2.137,0,0,0-.706-.538,6.673,6.673,0,0,0-1.108-.415l-1.445-.421a11.243,11.243,0,0,1-1.684-.583,4.346,4.346,0,0,1-1.192-.738,2.728,2.728,0,0,1-.713-.991,3.375,3.375,0,0,1-.24-1.341,4.165,4.165,0,0,1,.382-1.833,3.6,3.6,0,0,1,1.056-1.3,4.675,4.675,0,0,1,1.568-.81,6.365,6.365,0,0,1,1.943-.279,7.469,7.469,0,0,1,2.63.447,10.023,10.023,0,0,1,2.092,1.056Z" transform="translate(-189.282 -203.54)"/></g><rect class="f" width="370.65" height="224.17" transform="translate(0.317 0.266)"/><path class="a" d="M459.468,301.962l-370.644.22h-.24v-.22L88.5,77.824V77.5h.324l370.65.136h.188v.188Zm0,0L459.28,77.824l.188.188L88.824,78.09l.324-.324L89.064,301.9l-.24-.24Z" transform="translate(-88.5 -77.5)"/><rect class="a" width="9.879" height="1.587" transform="translate(35.299 36.562)"/><rect class="a" width="9.879" height="1.587" transform="translate(35.299 43.681)"/><rect class="a" width="9.879" height="1.587" transform="translate(35.299 40.157)"/><rect class="d" width="116.774" height="2.403" transform="translate(14.171 94.773)"/><path class="g" d="M143,248.061c6.64-.13,13.273-.188,19.913-.24l19.913-.071,19.92.071,9.957.091,9.957.149-9.957.155-9.957.084-19.92.071-19.913-.071C156.267,248.249,149.633,248.191,143,248.061Z" transform="translate(-107.695 -137.462)"/><path class="g" d="M143,257.831c6.64-.13,13.273-.188,19.913-.24l19.913-.071,19.92.071,9.957.084,9.976.155-9.957.149-9.957.084-19.92.071-19.913-.071C156.267,258.012,149.633,257.948,143,257.831Z" transform="translate(-107.695 -140.903)"/><path class="g" d="M143,267.571c6.64-.13,13.273-.188,19.913-.233l19.913-.078,19.92.071,9.957.091,9.957.149-9.957.155-9.957.084-19.92.071-19.913-.071C156.267,267.739,149.633,267.7,143,267.571Z" transform="translate(-107.695 -144.334)"/><path class="g" d="M143,287.085c6.64-.123,13.273-.188,19.913-.233l19.913-.071,19.92.071,9.957.084,9.957.149-9.957.155-9.957.084-19.92.071-19.913-.071C156.267,287.272,149.633,287.214,143,287.085Z" transform="translate(-107.695 -151.209)"/><path class="g" d="M143,296.831c6.64-.13,13.273-.188,19.913-.24l19.913-.071,19.92.071,9.957.084,9.976.155-9.957.149-9.957.091-19.92.071-19.913-.071C156.267,297.025,149.633,296.967,143,296.831Z" transform="translate(-107.695 -154.639)"/><path class="g" d="M143,306.6c4.042-.13,8.078-.188,12.12-.24s8.078-.045,12.12-.071,8.078,0,12.12.071l6.057.084c2.021.052,4.042.084,6.057.155-2.015.065-4.036.1-6.057.149l-6.057.084c-4.042.052-8.085.052-12.12.071s-8.085,0-12.12-.071S147.036,306.745,143,306.6Z" transform="translate(-107.695 -158.075)"/><rect class="d" width="36.646" height="10.08" transform="translate(35.299 161.535)"/><path class="f" d="M150.26,335.32v-3.09h.3v2.818h1.781v.272Z" transform="translate(-110.252 -167.216)"/><path class="f" d="M156.249,335.061v.259H154.17v-3.09h2.041v.272h-1.736v1.114H156v.253h-1.509v1.179Z" transform="translate(-111.629 -167.216)"/><path class="f" d="M159.046,332.25h.259l1.3,3.09h-.324l-.4-.965h-1.386l-.4.965h-.324Zm.745,1.885-.648-1.529-.648,1.529Z" transform="translate(-112.897 -167.224)"/><path class="f" d="M162.8,335.32v-3.09h1.3a.862.862,0,0,1,.369.084,1.1,1.1,0,0,1,.291.227,1.075,1.075,0,0,1,.188.311.952.952,0,0,1,.065.35,1.089,1.089,0,0,1-.045.324,1.029,1.029,0,0,1-.143.279.725.725,0,0,1-.214.207.7.7,0,0,1-.285.117l.758,1.192h-.343l-.726-1.14H163.1v1.14Zm.3-1.406h1.011a.537.537,0,0,0,.246-.065.65.65,0,0,0,.188-.155.848.848,0,0,0,.123-.227.908.908,0,0,0,.039-.266.723.723,0,0,0-.181-.492.647.647,0,0,0-.2-.149.524.524,0,0,0-.24-.058H163.1Z" transform="translate(-114.669 -167.216)"/><path class="f" d="M167.484,332.813v2.507h-.3v-3.09h.24l2.041,2.591V332.23h.3v3.09H169.5Z" transform="translate(-116.211 -167.216)"/><path class="f" d="M176.814,335.32v-2.533l-1.127,1.943h-.175l-1.127-1.943v2.533h-.3v-3.09h.311l1.2,2.118,1.218-2.118h.3v3.09Z" transform="translate(-118.641 -167.216)"/><text class="h" transform="translate(82.758 93.662)"><tspan x="-66.367" y="0">CLIMATE CONNECT</tspan></text><path class="f" d="M181.1,335.349a1.3,1.3,0,0,1-.589-.13,1.548,1.548,0,0,1-.46-.35,1.651,1.651,0,0,1-.3-.505,1.619,1.619,0,0,1-.1-.577,1.678,1.678,0,0,1,.11-.6,1.657,1.657,0,0,1,.311-.5,1.425,1.425,0,0,1,.46-.343,1.332,1.332,0,0,1,1.16.006,1.482,1.482,0,0,1,.46.363,1.658,1.658,0,0,1,.292.5,1.581,1.581,0,0,1,.1.57,1.548,1.548,0,0,1-.11.6,1.639,1.639,0,0,1-.3.5,1.529,1.529,0,0,1-.46.343A1.294,1.294,0,0,1,181.1,335.349Zm-1.147-1.561a1.367,1.367,0,0,0,.084.486,1.16,1.16,0,0,0,.233.408,1.128,1.128,0,0,0,.363.292.991.991,0,0,0,.466.1,1.036,1.036,0,0,0,.473-.11,1.243,1.243,0,0,0,.363-.3,1.353,1.353,0,0,0,.227-.415,1.47,1.47,0,0,0,.078-.466,1.367,1.367,0,0,0-.084-.486,1.523,1.523,0,0,0-.233-.415,1.3,1.3,0,0,0-.363-.285,1,1,0,0,0-.46-.1,1.063,1.063,0,0,0-.479.11,1.191,1.191,0,0,0-.356.292,1.438,1.438,0,0,0-.227.415A1.3,1.3,0,0,0,179.954,333.788Z" transform="translate(-120.603 -167.213)"/><path class="f" d="M185,335.32v-3.09h1.3a.861.861,0,0,1,.369.084,1.1,1.1,0,0,1,.292.227,1.076,1.076,0,0,1,.188.311.953.953,0,0,1,.065.35.919.919,0,0,1-.052.324,1.01,1.01,0,0,1-.136.279.725.725,0,0,1-.214.207.738.738,0,0,1-.285.117l.758,1.192h-.337l-.726-1.14H185.3v1.14Zm.3-1.406h.991a.556.556,0,0,0,.246-.065.648.648,0,0,0,.188-.155.848.848,0,0,0,.123-.227.907.907,0,0,0,.039-.266.739.739,0,0,0-.045-.266,1.107,1.107,0,0,0-.136-.227.648.648,0,0,0-.2-.149.524.524,0,0,0-.24-.058h-.985Z" transform="translate(-122.488 -167.216)"/><path class="f" d="M191.463,335.061v.259H189.39v-3.09h2.034v.272h-1.73v1.114H191.2v.253h-1.509v1.179Z" transform="translate(-124.034 -167.216)"/><rect class="i" width="370.65" height="5.804" transform="translate(0.317 0.266)"/><path class="c" d="M94.546,81.608a1.438,1.438,0,1,1-1.438-1.438A1.438,1.438,0,0,1,94.546,81.608Z" transform="translate(-89.616 -78.44)"/><path class="f" d="M103.616,81.608A1.438,1.438,0,1,1,102.2,80.17a1.438,1.438,0,0,1,1.412,1.438Z" transform="translate(-92.811 -78.44)"/><path class="d" d="M112.686,81.608a1.445,1.445,0,1,1-.43-1.022,1.438,1.438,0,0,1,.43,1.022Z" transform="translate(-96.005 -78.44)"/><rect class="g" width="6.368" height="218.373" transform="translate(364.6 6.07)"/><path class="j" d="M655.345,163.266h0a1.639,1.639,0,0,1-1.645-1.645V90.485a1.645,1.645,0,0,1,1.645-1.645h0a1.645,1.645,0,0,1,1.645,1.645V161.62A1.645,1.645,0,0,1,655.345,163.266Z" transform="translate(-287.565 -81.494)"/></g><g transform="translate(341.145 203.922)"><path class="a" d="M584.67,361.83v25.543h25.543V361.83Zm1.943,23.612V363.76h21.675v21.682Z" transform="translate(-521.659 -317.19)"/><rect class="k" width="74.73" height="74.73"/><path class="e" d="M509.618,382.521h41.576c.175-1.587-6.193-35.37-13.669-46.233-.849-1.231-8.123-2.131-10.792.933C512.6,353.461,509.281,382.133,509.618,382.521Z" transform="translate(-495.217 -307.791)"/><path class="l" d="M546.581,340.32c1.179,3.058,5.629,13.772,8.052,21.468,1.62,5.182,2.241,9.49,2.591,10.63,0,0-12.308-3.939-15.042-3.945-4.256,0-11.084,8.875-9.413,9.989,2.637,1.756,15.184,7.709,25.212,9.581,5.448,1.017,15.709-5.908,14.9-11.414-1.134-7.728-15.1-28.1-20.412-33.873C549.716,339.757,545.136,336.6,546.581,340.32Z" transform="translate(-503.288 -309.019)"/><path class="e" d="M574.734,377.882c-.259,5.565-7.223,10.255-11.259,10.5-6.964.421-27.855-5.662-27.855-5.662l8.117-15.651s14.252,4.826,14.582,4.962h0c-.123-.415-3.628-13.6-5.182-17.938-.084-.24-.181-.486-.272-.745-.453-1.211-1.069-2.8-1.756-4.535h0c-.376-.959-.777-1.943-1.172-2.941h0c-1.717-4.262-3.388-8.324-3.388-8.324,2.39.4,4.755,1.652,8.635,5.727S575.155,368.7,574.734,377.882Z" transform="translate(-504.383 -308.639)"/><path class="i" d="M542.993,396.629c.583-1.108,1.173-2.209,1.749-3.317s1.153-2.164,1.736-3.239a37.9,37.9,0,0,0,1.717-3.394h0a28.532,28.532,0,0,0-1.943,3.077q-.933,1.62-1.827,3.278t-1.717,3.239a27.375,27.375,0,0,0-1.568,3.472c0,.052.045.1.078.052A33.051,33.051,0,0,0,542.993,396.629Z" transform="translate(-506.327 -325.935)"/><path class="i" d="M571.09,380.473l-4.34-2.306h0c-.123-.415-3.628-13.6-5.182-17.938-.084-.24-.181-.486-.272-.745-.453-1.211-1.069-2.8-1.756-4.535Z" transform="translate(-512.808 -314.767)"/><path class="i" d="M578.5,394.93a35.553,35.553,0,0,0-3.809-2.449,19.4,19.4,0,0,0-2.008-1.017c-.713-.3-1.5-.564-2.228-.894-.058,0-.1.065-.039.084.648.311,1.3.738,1.976,1.095s1.36.732,2.047,1.088c1.354.693,2.682,1.432,4.029,2.144C578.5,395,578.557,394.949,578.5,394.93Z" transform="translate(-516.628 -327.313)"/><path class="l" d="M548.95,373.764c-1.095,0-7.67-1.743-8.629-.836-5.83,5.5-7.683,4.392-8.927,5.111-9.62,5.532-22.472,12.036-27.059,12.075-6.951.058-9.717-5.778-8.564-11.291,2.287-10.9,16.985-32.157,23.638-37.805,3.531-2.993,3.239,1.522,1.788,6.42-.855,2.876-2.352,7.126-3.887,11.343-1.354,3.738-4.936,13.286-5,13.513h.071a125.1,125.1,0,0,1,16.81-6.063c2.915-.751,8.985-1.82,11.162-.849,1.3.577,1.3,1.354,1.3,1.354a3.187,3.187,0,0,1,2.138.8,3.076,3.076,0,0,1,.946,1.445,3.239,3.239,0,0,1,1.73.816,2.96,2.96,0,0,1,.764,1.613A2.724,2.724,0,0,1,548.95,373.764Z" transform="translate(-490.259 -309.522)"/><path class="e" d="M561.567,381a15.861,15.861,0,0,0-2.591.292c-.058,0-.058.1,0,.091.842-.091,1.7-.11,2.552-.136s1.7-.045,2.552-.032h0A13.686,13.686,0,0,0,561.567,381Z" transform="translate(-512.594 -323.942)"/><path class="e" d="M569.015,384.428a10.525,10.525,0,0,0-4.593-.408.052.052,0,0,0,0,.1,17.974,17.974,0,0,1,4.593.343S569.034,384.435,569.015,384.428Z" transform="translate(-514.515 -324.973)"/><path class="e" d="M573.005,388.014a10.32,10.32,0,0,0-4.353-.816.046.046,0,1,0,0,.091,25.32,25.32,0,0,1,4.34.79C573.018,388.085,573.038,388.027,573.005,388.014Z" transform="translate(-515.999 -326.123)"/><path class="e" d="M542.156,380.68a18.76,18.76,0,0,0-2.151.479c-.758.188-1.509.389-2.241.648a41.456,41.456,0,0,0-4.327,1.717.045.045,0,1,0,0,.084c1.438-.505,2.9-.978,4.353-1.432l2.138-.7c.732-.24,1.5-.421,2.215-.693C542.2,380.751,542.2,380.673,542.156,380.68Z" transform="translate(-503.592 -323.829)"/><path class="e" d="M522.545,367.015a7.94,7.94,0,0,1,2.215-.518l8.655,14.614s-23.845,8.583-28.736,9.069a9.762,9.762,0,0,1-10.559-9.5c-.136-8.635,13.954-29.378,21.04-37.4,3.239-3.673,7.029-6.342,7.994-5.739,1.14.713-.926,5.331-2.021,8.778-2.015,6.368-9.238,25.089-9.238,25.089S520.757,367.6,522.545,367.015Z" transform="translate(-489.766 -308.603)"/><path class="i" d="M529.2,382.27c-1.347.078-7.126,2.1-10,3.323a49.234,49.234,0,0,0-8.13,4.392c-1.445.978-2.824,2.041-4.178,3.142a.047.047,0,1,0,.052.078,86.237,86.237,0,0,1,16.195-8.8c1.626-.648,4.424-1.581,6.011-2C529.575,382.289,529.238,382.263,529.2,382.27Z" transform="translate(-494.257 -324.389)"/><path class="i" d="M528.615,361.209c-.363.583-.732,1.166-1.043,1.781l-.039.091c.46-1.406.9-2.811,1.3-4.23,0-.084-.117-.13-.149-.045-2.047,5.182-3.952,10.436-5.8,15.7-.512,1.477-.965,2.96-1.432,4.45,0,.052.065.078.084,0,.564-1.3,1.134-2.539,1.646-3.841s1-2.591,1.477-3.887q1.3-3.427,2.436-6.9c.24-.4.486-.81.719-1.218.33-.6.609-1.231.888-1.859C528.751,361.189,528.654,361.144,528.615,361.209Z" transform="translate(-499.393 -316.109)"/><path class="i" d="M542.739,394.679c-.648-1.075-1.257-2.157-1.892-3.239s-1.224-2.118-1.833-3.181a36.887,36.887,0,0,0-1.976-3.239H537a27.644,27.644,0,0,0,1.594,3.239c.589,1.1,1.2,2.2,1.814,3.284s1.224,2.125,1.853,3.174a28.239,28.239,0,0,0,2.125,3.174c.032.039.1,0,.084-.045A32.452,32.452,0,0,0,542.739,394.679Z" transform="translate(-504.869 -325.358)"/><path class="i" d="M540.674,402.631c-.719-1.419-1.833-2.8-2.662-4.152,0-.052-.1,0-.078.052.751,1.263,1.438,2.624,2.157,3.887-3.271,1.354-6.75,2.559-10.093,3.744s-6.873,2.364-10.365,3.375c-1.943.564-3.887,1.173-5.875,1.691-.123,0-.091.13.032.1a88.091,88.091,0,0,0,10.462-2.753c3.492-1.108,6.944-2.345,10.365-3.628C536.521,404.224,540.732,402.741,540.674,402.631Z" transform="translate(-496.656 -330.09)"/><path class="l" d="M534.367,376.4a116.537,116.537,0,0,0-12,3.958l-.175.065c-2.047.8-3.31,1.4-3.615,1.451l-.065-.039h0a2.589,2.589,0,0,0-.648-.35c-.577-.207-6.115-.9-5.973-2.591s2.39-1.587,2.721-1.568c-.356-.078-3.362-.784-2.384-2.28.693-1.069,3.667-.913,3.971-.9-.3-.1-3.071-1-2.118-2.533.68-1.095,4-.952,4.386-.887-.311-.117-2.773-.531-1.619-1.853.8-.92,7.055,0,9.84,1.406A28.8,28.8,0,0,1,534.367,376.4Z" transform="translate(-496.024 -319.539)"/><path class="e" d="M523.838,385.12l-.175.065a20.081,20.081,0,0,0-7.45-3.038c-.181,0-.194-.123,0-.117a13.811,13.811,0,0,1,7.625,3.09Z" transform="translate(-497.498 -324.305)"/><path class="e" d="M518.7,377.283a22.289,22.289,0,0,1,9.115,3.8c.045.032.1-.039.052-.071-3.161-2.364-5.124-3.537-9.134-3.835C518.555,377.166,518.523,377.244,518.7,377.283Z" transform="translate(-498.383 -322.596)"/><path class="e" d="M522.161,371.941a20.043,20.043,0,0,1,8.823,4.347c.071.058.162,0,.091-.1a14.174,14.174,0,0,0-8.875-4.353C521.954,371.811,521.921,371.882,522.161,371.941Z" transform="translate(-499.585 -320.713)"/><path class="l" d="M546.672,340.655c-2.241.8-6.595-2.261-8.48-4.936-.123-.188-.058-2.28-.1-4.826a43.815,43.815,0,0,0-.285-4.833l10.093,1.3a25.312,25.312,0,0,0-.266,6.122,3.786,3.786,0,0,0,.142.648v.1C548.142,335.388,548.836,339.878,546.672,340.655Z" transform="translate(-505.154 -304.592)"/><path class="e" d="M547.806,334.19a1.594,1.594,0,0,1,.052.22c-6.038-.259-8.337-2.915-9.827-5.461-.045-.972-.11-1.943-.22-2.889l10.093,1.3a24.953,24.953,0,0,0-.266,6.122,3.245,3.245,0,0,0,.143.648A.572.572,0,0,1,547.806,334.19Z" transform="translate(-505.155 -304.592)"/><path class="l" d="M531.4,305.959c-.551,3.621,2.76,13.364,5.552,15.236,4.055,2.714,9.95,2.157,12.068-2.546,2.054-4.535-2.481-17.18-5.532-18.786C538.989,297.453,532.207,300.6,531.4,305.959Z" transform="translate(-502.875 -295.076)"/><path class="e" d="M545.767,316.48s-.039.052,0,.078c.24.648.4,1.438-.117,1.853v.032C546.33,318.112,546.1,317.063,545.767,316.48Z" transform="translate(-507.916 -301.218)"/><path class="e" d="M544.261,315.72c-1.082.272-.46,2.416.551,2.164S545.188,315.487,544.261,315.72Z" transform="translate(-507.227 -300.944)"/><path class="e" d="M552.08,314.6s.065,0,.071.045c.175.648.486,1.412,1.147,1.458v.039C552.54,316.252,552.138,315.267,552.08,314.6Z" transform="translate(-510.18 -300.556)"/><path class="e" d="M552.472,313.234c1.049-.389,1.756,1.73.784,2.092S551.6,313.565,552.472,313.234Z" transform="translate(-510.177 -300.058)"/><path class="e" d="M542.407,313.6a7.582,7.582,0,0,0,.751-.538c.279-.207.531-.343.648-.687a.479.479,0,0,0-.233-.531,1.185,1.185,0,0,0-1.166.214,1.723,1.723,0,0,0-.745,1,.5.5,0,0,0,.745.544Z" transform="translate(-506.506 -299.56)"/><path class="e" d="M552.382,310.536a8.775,8.775,0,0,1-.92,0,1.529,1.529,0,0,1-.946-.149.479.479,0,0,1-.13-.564,1.16,1.16,0,0,1,1.056-.538,1.723,1.723,0,0,1,1.2.337.505.505,0,0,1-.259.913Z" transform="translate(-509.569 -298.681)"/><path class="e" d="M548.157,325.919c.207.11.427.279.648.227a1.793,1.793,0,0,0,.648-.376h.039a.939.939,0,0,1-.739.609.732.732,0,0,1-.693-.44C548.08,325.919,548.131,325.919,548.157,325.919Z" transform="translate(-508.765 -304.49)"/><path class="e" d="M548.385,318.233a2.384,2.384,0,0,0,1.8.57,3.046,3.046,0,0,0,.829-.2l.149-.065.142-.065a.181.181,0,0,0,.091-.188h0a.271.271,0,0,0,0-.065h0v-.058c-.136-.512-.408-1.3-.408-1.3.214.045,1.3.194,1.2-.071a35.261,35.261,0,0,0-2.876-6.6c0-.071-.142,0-.117.052.648,2.125,1.7,4.113,2.4,6.238a4.158,4.158,0,0,0-1.166,0c-.065.039.557,1.464.6,1.7h0a3.239,3.239,0,0,1-2.552-.045C548.366,318.129,548.327,318.194,548.385,318.233Z" transform="translate(-508.87 -298.993)"/><path class="m" d="M532.461,314.706c.57-.473,1.3-2.87,1.632-3.887s-.687-5.182-1.024-6.439a6.815,6.815,0,0,0-1.665,3.466A17.813,17.813,0,0,0,532.461,314.706Z" transform="translate(-502.876 -296.956)"/><path class="e" d="M544.691,306.259A3.33,3.33,0,0,1,542.1,308.2a3.414,3.414,0,0,1-3.083-1.224c0-.032-.058,0-.039.032a3.368,3.368,0,0,0,3.148,1.464,3.44,3.44,0,0,0,2.669-2.164C544.782,306.246,544.711,306.213,544.691,306.259Z" transform="translate(-505.564 -297.61)"/><path class="e" d="M537.176,295.4a5.234,5.234,0,0,0-3.569,3.55,3.712,3.712,0,0,0,.324,2.449H534a4.12,4.12,0,0,1,.836-4.107,5.292,5.292,0,0,1,4.347-1.833,3.381,3.381,0,0,1,2.131.887c.058.058.181,0,.13-.084A4,4,0,0,0,537.176,295.4Z" transform="translate(-503.646 -293.707)"/><path class="e" d="M554.225,296a4.249,4.249,0,0,0-2.377-1.7,5.926,5.926,0,0,0-3.848.6v.052a5.9,5.9,0,0,1,3.3-.564,4.256,4.256,0,0,1,2.429,1.425,4.029,4.029,0,0,1-3.284,6.569c-.039,0-.052.071,0,.071a4.172,4.172,0,0,0,3.757-6.478Z" transform="translate(-508.743 -293.357)"/><path class="e" d="M530.319,306.282s-2.708-2.831-1.775-5.182c.531-1.328,3.349-1.943,3.349-1.943a5.183,5.183,0,0,1,2.591-3.025,9.528,9.528,0,0,1,5.318-.648,4.852,4.852,0,0,1,4.256-1.3c3.349.836,4.23,5.331,1.723,7.56-1.756,1.568-5.033.544-5.033.544-.259.117-2.52,2.526-5.267.648,0,0-1.25,1.943-3.051,1.347a2.514,2.514,0,0,1-2.112,2Z" transform="translate(-501.822 -293.326)"/><path class="l" d="M534.142,320.725s-2.8-2.85-4.126-1.8,1.153,5.448,2.98,5.8a1.762,1.762,0,0,0,2.183-1.328Z" transform="translate(-502.277 -301.997)"/><path class="e" d="M531.36,321v.045a4.482,4.482,0,0,1,2.753,2.384.985.985,0,0,0-1.49,0s0,.071.039.058a1.1,1.1,0,0,1,1.25.175,4.916,4.916,0,0,1,.726.868c.078.1.259,0,.2-.11h0C534.593,322.8,533.07,320.854,531.36,321Z" transform="translate(-502.883 -302.806)"/><path class="a" d="M546.882,337.653l-2.144,5.94-7.514-7.093-1.943,2.442s7.521,11.434,7.54,10.9l2.209-5.111,3.6,3.362-.648-8.752Z" transform="translate(-504.263 -308.269)"/><path class="e" d="M548.732,345.312c-.149-1.438-.259-2.9-.479-4.327a.049.049,0,0,0-.1,0c-.233,1.406.369,6.918.415,8.24h0c-.149-.143-3.323-2.947-3.356-2.9-.486.816-2.112,4.535-2.215,4.878-1.192-1.82-5.74-8.421-7.126-10.119a.052.052,0,0,0-.084.052c1.062,1.943,7.08,10.812,7.165,10.779a55.277,55.277,0,0,0,2.306-5.4,38.168,38.168,0,0,0,3.77,3.576A46.731,46.731,0,0,0,548.732,345.312Z" transform="translate(-504.442 -309.832)"/></g><g transform="translate(240.924 165.556)"><rect class="d" width="76.427" height="78.908" transform="translate(18.637 1.059)"/><path class="j" d="M332.69,271.7v40.578h40.578V271.7Zm3.064,37.514v-34.45H370.2v34.45Z" transform="translate(-332.69 -247.08)"/><path class="e" d="M439.052,269.54c2.008-.473,7.217.888,9,3.55s1.7,7.022.81,7.463-4.735.168-7.391-1.244S438.061,269.805,439.052,269.54Z" transform="translate(-370.003 -246.287)"/><path class="e" d="M439.241,269.536c-.065,0-.078-.123,0-.13a18.5,18.5,0,0,1,5.357.959,10.227,10.227,0,0,1,3.887,1.717,4.729,4.729,0,0,1,1.775,3.55,9.665,9.665,0,0,1-.855,4.833c0,.039-.1,0-.084,0,.771-2.954,1.425-6.556-1.529-8.512C445.272,270.262,442.091,270.113,439.241,269.536Z" transform="translate(-370.199 -246.27)"/><path class="e" d="M452.905,285.41c1.768.2,6.407,3.492,7.223,6.834s-1.827,8.344-2.682,8.713-4.807-2.786-6.115-5.124c-.875-1.568-.233-3.414.13-5.254C451.953,287.872,452.6,285.384,452.905,285.41Z" transform="translate(-374.321 -251.909)"/><path class="e" d="M449.821,295.466c-.577-3.407,1.3-6.821,2.423-9.924,0-.032.065,0,.058,0-.6,2.973-2.339,5.662-2.345,8.758a5.656,5.656,0,0,0,2.2,4.735,16.484,16.484,0,0,0,4.535,1.9c.1.032.039.181-.065.149C453.559,300.15,450.411,298.99,449.821,295.466Z" transform="translate(-373.906 -251.95)"/><path class="e" d="M454.529,285.811a.078.078,0,0,1,.058-.142c2.526,1.153,5.571,2.837,6.951,5.357,1.5,2.734.084,5.636-1.172,8.143h-.052c1.237-2.539,2.539-5.688.849-8.344C459.7,288.513,456.913,286.938,454.529,285.811Z" transform="translate(-375.588 -251.999)"/><path class="e" d="M454.074,309.28a7.554,7.554,0,0,0-2.766,5.3c-.259,4.094-1.859,3.453-6.148,4.969a4.4,4.4,0,0,0-1.807,7.378,2.91,2.91,0,0,1,.972-3.958c2.837-1.807,10.009.648,12.995-3.932C461.181,313.115,454.074,309.28,454.074,309.28Z" transform="translate(-371.189 -260.316)"/><path class="e" d="M452.439,312.346c.039-.058-.058-.136-.11-.078a6.153,6.153,0,0,0-1.03,1.872c-.291.894-.214,1.82-.44,2.714-.577,2.293-3.239,2.488-5.182,2.818-2.591.447-4.5,2.241-4.379,4.988h.058a4.632,4.632,0,0,1,2.352-4.191c1.451-.8,3.194-.648,4.729-1.173a3.659,3.659,0,0,0,2.468-2.034,9.211,9.211,0,0,0,.3-1.892A6.4,6.4,0,0,1,452.439,312.346Z" transform="translate(-370.94 -261.361)"/><path class="e" d="M456.765,309.93s-.052,0,0,.039c1.62,1.3,3.317,2.591,3.958,4.677a6.221,6.221,0,0,1-1.911,6.2c-1.853,1.743-4.081,1.224-6.368,1.017a9.29,9.29,0,0,0-4.865.538c-.045,0,0,.1.039.084,2.507-.855,4.93-.33,7.488-.175a5.092,5.092,0,0,0,4.8-2.488C462.44,316,460.238,312.158,456.765,309.93Z" transform="translate(-373.148 -260.545)"/><path class="d" d="M441.539,266.577a.706.706,0,0,1,1.108.868C442.1,268.171,440.988,267.3,441.539,266.577Z" transform="translate(-370.974 -245.196)"/><path class="d" d="M440.734,268.427a.706.706,0,0,1,1.108.868C441.291,270.014,440.209,269.153,440.734,268.427Z" transform="translate(-370.694 -245.848)"/><path class="d" d="M439.617,270.127a.706.706,0,1,1,.154.944.706.706,0,0,1-.154-.944Z" transform="translate(-370.309 -246.447)"/><path class="d" d="M438.289,271.617a.706.706,0,0,1,1.108.868C438.846,273.211,437.738,272.343,438.289,271.617Z" transform="translate(-369.829 -246.972)"/><path class="d" d="M436.727,272.851c.551-.726,1.658.143,1.108.868a.706.706,0,0,1-1.108-.868Z" transform="translate(-369.291 -247.39)"/><path class="d" d="M434.99,273.877a.706.706,0,0,1,1.108.868C435.547,275.432,434.446,274.564,434.99,273.877Z" transform="translate(-368.669 -247.768)"/><path class="n" d="M404.5,283.357c-3.038,3.744-19.3,15.547-33.038,15.314-4.664-.071-17.62-19.978-20.017-27.544-1.717-5.435,9.821-8.182,13.086-7.4,4.068.985,12,18.054,13.565,18.138,4.664.324,12.671-2.481,22.5-3.479C405.654,277.9,406.846,280.48,404.5,283.357Z" transform="translate(-339.235 -244.226)"/><path class="n" d="M349.24,261.845c-.868-1.892-4.943-12.405-5.273-15.107s-.713-10.566,1.334-11.013,2.339,1.833,2.339,1.833.363-3.349,2.468-3.628,2.449,3.3,2.449,3.3.648-3.407,2.74-3.537,1.859,3.53,1.859,3.53.421-3.142,2.209-2.513c2.157.758.719,6.478,1.3,9.419.136.648,3.679,13.435,3.679,13.435Z" transform="translate(-336.569 -233.695)"/><path class="e" d="M363.835,238.541c-1.043,4.191-.777,6.212.557,10.255,0,.078-.084.136-.117.052-1.671-3.835-2.371-6.316-.648-10.365C363.718,238.281,363.887,238.34,363.835,238.541Z" transform="translate(-343.235 -235.337)"/><path class="e" d="M356.995,238.537c-.7,4.45-.428,6.64.648,10.98,0,.058-.084.091-.1.032-1.425-4.165-2.066-6.659-.777-11.013C356.826,238.336,357.027,238.33,356.995,238.537Z" transform="translate(-340.923 -235.346)"/><path class="e" d="M349.544,239.882a20.49,20.49,0,0,0,1.419,10.851.084.084,0,0,1-.149.071,14.547,14.547,0,0,1-1.406-10.915C349.473,239.6,349.57,239.584,349.544,239.882Z" transform="translate(-338.408 -235.797)"/><path class="n" d="M373.689,263.7a52.8,52.8,0,0,0,.343-7.806c-.259-2.423-4.535-11.1-6.478-10.287-2.488,1.056-1,6.556.078,9.153,0,0-5.759,2.442-5.545,6.621S373.689,263.7,373.689,263.7Z" transform="translate(-343.042 -237.873)"/><path class="e" d="M366.861,246.428c-1.574,2.591.065,5.914.926,8.512a.253.253,0,0,1-.233.343c-2.345,1.185-5.312,3.537-5.7,6.284a.065.065,0,0,1-.123,0c0-3.006,2.74-5.552,5.39-6.685-.92-2.649-2.416-6.05-.279-8.467C366.848,246.4,366.874,246.408,366.861,246.428Z" transform="translate(-342.918 -238.171)"/><path class="a" d="M403.43,288.334l5.662,13.086s8.564-4.075,13.772-9.341-.583-7.035-5.623-6.271S403.43,288.334,403.43,288.334Z" transform="translate(-357.605 -251.989)"/><path class="c" d="M425.005,293.095c-5.182,5.267-13.772,9.341-13.772,9.341l-1.723-3.984,17.251-10C427.4,289.5,427.046,291.028,425.005,293.095Z" transform="translate(-359.746 -252.98)"/><path class="e" d="M412.811,301.057A100.4,100.4,0,0,1,407.92,289.8c0-.045.058-.078.078,0,.382,1.011,3.077,6.582,4.9,11.246C412.921,301.083,412.837,301.109,412.811,301.057Z" transform="translate(-359.186 -253.44)"/><path class="a" d="M412.136,313.622l-2.326,17.737h37.125s-4.91-33.264-12.839-43.493c-3.965-5.111-9.276-4.975-13.034-1.069-.823.849-9.115,12.7-10.579,17.588C409.208,308.719,412.136,313.622,412.136,313.622Z" transform="translate(-359.852 -251.392)"/><path class="e" d="M426.6,291.11l-2.345,6.29q-1.16,3.148-2.228,6.316c-.648,2.125-1.458,4.25-1.14,6.413a16.332,16.332,0,0,0,2.105,6.18l.052.091v.091c-.324,2.818-.706,5.636-1.049,8.421s-.738,5.629-1.14,8.421q.363-4.25.771-8.48c.285-2.824.544-5.649.855-8.467l.039.175a16.843,16.843,0,0,1-2.261-6.407,9.289,9.289,0,0,1,.24-3.433c.285-1.1.648-2.17.991-3.239.719-2.131,1.568-4.2,2.416-6.277S425.652,293.144,426.6,291.11Z" transform="translate(-363.509 -253.917)"/><path class="e" d="M422.074,303.51a.557.557,0,0,0,.408.648.512.512,0,0,0,.583-.453.551.551,0,0,0-.408-.648.505.505,0,0,0-.583.453Z" transform="translate(-364.168 -258.122)"/><path class="e" d="M418.6,312.964a.551.551,0,0,0,.408.648.505.505,0,0,0,.577-.447.551.551,0,0,0-.408-.648.505.505,0,0,0-.577.447Z" transform="translate(-362.945 -261.454)"/><path class="e" d="M418.164,322.6a.551.551,0,0,0,.408.648.512.512,0,0,0,.583-.447.557.557,0,0,0-.408-.648.512.512,0,0,0-.583.447Z" transform="translate(-362.79 -264.849)"/><path class="e" d="M420.844,330.594a.551.551,0,0,0,.408.648.512.512,0,0,0,.583-.447.557.557,0,0,0-.408-.648.512.512,0,0,0-.583.447Z" transform="translate(-363.734 -267.664)"/><path class="e" d="M419.8,339.3a.557.557,0,0,0,.408.648.505.505,0,0,0,.577-.453.557.557,0,0,0-.408-.648.505.505,0,0,0-.577.454Z" transform="translate(-363.368 -270.728)"/><path class="e" d="M418.854,347.9a.557.557,0,0,0,.408.648.512.512,0,0,0,.583-.453.551.551,0,0,0-.415-.648.5.5,0,0,0-.577.453Z" transform="translate(-363.033 -273.756)"/><path class="n" d="M430.1,378.737c1.872,1.3,5.02-4.327,6.089-5.526s1.535-1.16,1.471-.246L440.1,363.3c-1.263.978-3.939,3.083-5.364,4.47C432.822,369.623,428.229,377.467,430.1,378.737Z" transform="translate(-366.843 -279.342)"/><path class="n" d="M447.818,290.54c7.929,6.394,17.925,17.64,19.965,24.908,1.568,5.61-6.323,25.1-8.674,29.65-1.024,1.982-14.6-4.049-15.2-6.361s8.868-19.1,8.959-20.879-6.1-13.545-10.313-21.5C437.408,286.718,441.042,285.105,447.818,290.54Z" transform="translate(-370.529 -252.628)"/><path class="n" d="M432.235,384.01c1.25,1.36,3.783-.292,3.783-.292s-2.254,2.786-.492,3.887,4.165-1.3,4.165-1.3-1.943,2.669-.1,3.615,4.2-1.121,4.2-1.121-.13,1.023,1.47,1.114c2.293.13,5.565-3.589,6.815-5.934s4.088-11.861,4.5-13.325l-15-8.149s-.266.194-.693.531l-2.442,9.646a33.292,33.292,0,0,1-2.377,5.383C434.677,380.473,430.829,382.482,432.235,384.01Z" transform="translate(-367.643 -279.064)"/><path class="e" d="M438.314,390.558c3.362-2.546,4.392-4.237,5.83-8.123,0-.078.149-.052.123.032-1.082,3.932-2.066,6.245-5.863,8.266C438.242,390.856,438.152,390.707,438.314,390.558Z" transform="translate(-369.861 -286.065)"/><path class="e" d="M443.618,394.575a22.538,22.538,0,0,0,6.225-8.739c0-.058.123,0,.1.039-1.464,4.036-2.5,6.316-6.148,8.836C443.631,394.828,443.469,394.7,443.618,394.575Z" transform="translate(-371.738 -287.271)"/><path class="e" d="M450.215,398.015a19.985,19.985,0,0,0,5.558-9.108.08.08,0,1,1,.155.039,14.184,14.184,0,0,1-5.61,9.147C450.105,398.248,450.04,398.2,450.215,398.015Z" transform="translate(-374.047 -288.339)"/><path class="a" d="M446.042,307.8l11.447-8.57s-5.947-7.385-12.276-11.233-6.718,2.215-4.774,6.944S446.042,307.8,446.042,307.8Z" transform="translate(-370.276 -252.39)"/><path class="e" d="M458.421,303.443a101.48,101.48,0,0,1-9.814,7.365c-.039,0-.084-.039-.045-.071.9-.609,5.694-4.535,9.814-7.372C458.421,303.333,458.467,303.4,458.421,303.443Z" transform="translate(-373.495 -258.23)"/><path class="e" d="M445.194,308.837c-.693-1.561-1.645-3.835-2.436-5.357h-.039c.311.887.648,1.775,1.03,2.649a1.555,1.555,0,0,0-.084-.136c-.285-.408-.583-.81-.9-1.2h0c.24.44.5.875.777,1.3.175.266.363.518.551.771.2.46.648,1.6.862,2.06.337.771,1.982,5.111,2.054,5.059a11.848,11.848,0,0,0,1.153-.862.067.067,0,0,0-.084-.1c-.207.175-.726.518-.81.583-.369-.784-.648-1.613-1.017-2.416S445.551,309.647,445.194,308.837Z" transform="translate(-371.442 -258.273)"/><path class="n" d="M434.567,279.989c-.194.648-3.608,4.82-6.646,4.535-.991-.1-.68-5.532-.68-5.532l-.071-.4-.959-5.688,6.828-3.887.985-.505s.155,1.574.337,3.531v.279a1.082,1.082,0,0,0,.032.317c.032.3.058.6.084.894s.039.447.052.687a5.26,5.26,0,0,0,.045.713A37.525,37.525,0,0,1,434.567,279.989Z" transform="translate(-365.628 -245.957)"/><path class="e" d="M434.359,272a11.589,11.589,0,0,1-7.191,6.523l-.959-5.688,6.828-3.887.985-.505S434.178,270.04,434.359,272Z" transform="translate(-365.628 -245.932)"/><path class="n" d="M414.98,254.012c-2.06,9.9,3.647,12.256,5.778,12.7,1.943.4,8.6,1.516,11.66-8.13s-.887-13.727-5.28-14.9S417.034,244.1,414.98,254.012Z" transform="translate(-361.517 -237.095)"/><path class="e" d="M420.2,255.678a6.324,6.324,0,0,0,.7,0,1.166,1.166,0,0,0,.706-.162.363.363,0,0,0,.071-.434.9.9,0,0,0-.836-.356,1.3,1.3,0,0,0-.887.324.382.382,0,0,0,.246.628Z" transform="translate(-363.391 -241.1)"/><path class="e" d="M430.18,257.879c-.227-.071-.428-.168-.648-.259a1.173,1.173,0,0,1-.615-.389.356.356,0,0,1,.078-.434.894.894,0,0,1,.9-.058,1.3,1.3,0,0,1,.732.6.389.389,0,0,1-.447.544Z" transform="translate(-366.567 -241.778)"/><path class="e" d="M428.09,261.86s.045.039.039.065c-.155.648-.214,1.47.356,1.814v.039C427.747,263.525,427.838,262.469,428.09,261.86Z" transform="translate(-366.226 -243.615)"/><path class="e" d="M428.856,261c1.1.123.764,2.326-.253,2.2S427.93,260.854,428.856,261Z" transform="translate(-366.253 -243.308)"/><path class="e" d="M429.916,261.219c.168.149.324.4.557.46s.5-.136.706-.33c0,0,.039,0,.032.032-.058.421-.285.829-.745.823s-.648-.421-.7-.862C429.742,261.258,429.826,261.154,429.916,261.219Z" transform="translate(-366.879 -243.382)"/><path class="e" d="M421.221,260.383c0-.032-.058,0-.058.052-.078.648-.285,1.458-.933,1.594v.039C421,262.074,421.26,261.044,421.221,260.383Z" transform="translate(-363.522 -243.09)"/><path class="e" d="M420.424,259.14c-1.082-.24-1.49,1.943-.486,2.17S421.318,259.341,420.424,259.14Z" transform="translate(-363.217 -242.65)"/><path class="e" d="M419.6,259.071c-.194.084-.408.266-.615.24s-.376-.3-.486-.551h-.039c-.091.421-.032.881.356,1.036s.687-.168.862-.57C419.71,259.168,419.678,259.039,419.6,259.071Z" transform="translate(-362.885 -242.523)"/><path class="e" d="M425.039,269.856a1.045,1.045,0,0,1-.648.343,1.838,1.838,0,0,1-.719-.253l-.032.032a.933.933,0,0,0,.829.466.738.738,0,0,0,.609-.551C425.117,269.856,425.065,269.836,425.039,269.856Z" transform="translate(-364.723 -246.428)"/><path class="e" d="M421.355,261.769s-.311.991-.389,1.47c0,.045.1.084.266.123h0a2.3,2.3,0,0,0,2.352-.486c.039-.039,0-.1-.058-.078a3.465,3.465,0,0,1-2.177.253c0-.136.583-1.678.505-1.7a4.268,4.268,0,0,0-1.127.065c.583-2.086,1.49-4.062,2.041-6.148a.066.066,0,0,0-.123-.045,34.887,34.887,0,0,0-2.475,6.523C420.131,262.016,421.174,261.815,421.355,261.769Z" transform="translate(-363.5 -241.263)"/><path class="e" d="M423.511,244.711a4.457,4.457,0,0,0-.123,2.591c.855,2.339,3.608,2.008,4.444,2.98s.317,2.591,1.017,3.5c.978,1.25,2.494.946,2.591,1.736s.382,3.3,1.341,3.712,7.035-15.547-5.895-16.247c0,0-1.7-.887-4.573.227-3.168,1.237-4.962,6.089-4.962,6.089s.071-.065.551-.408c.648-.492.959-.972,1.451-1.3.771-.486,1.14-.24,1.943-.713A8.538,8.538,0,0,0,423.511,244.711Z" transform="translate(-362.507 -236.85)"/><path class="e" d="M426.8,244.76a8.222,8.222,0,0,0-.564,1.943,3.582,3.582,0,0,0,.091,1.943,2.656,2.656,0,0,0,1.367,1.3c.589.285,1.3.415,1.9.738a2.053,2.053,0,0,1,.8.732,2.643,2.643,0,0,1,.285,1.03,3.589,3.589,0,0,0,.544,1.846,2.248,2.248,0,0,0,1.658.894,4.723,4.723,0,0,1,1.989.292,4.787,4.787,0,0,0-2-.136,2.462,2.462,0,0,1-1.846-.894,3.641,3.641,0,0,1-.648-1.943,2.54,2.54,0,0,0-.259-.913,1.749,1.749,0,0,0-.693-.6c-.564-.3-1.244-.453-1.866-.758a3.641,3.641,0,0,1-.875-.59,2.17,2.17,0,0,1-.6-.875,3.777,3.777,0,0,1,0-2.06A8.545,8.545,0,0,1,426.8,244.76Z" transform="translate(-365.533 -237.592)"/><path class="e" d="M423.863,245.63a7.223,7.223,0,0,1-.79,1.717,3.343,3.343,0,0,1-1.432,1.3,4.951,4.951,0,0,1-.92.259,1.574,1.574,0,0,0-.745.4,4.863,4.863,0,0,1-.648.706,2.034,2.034,0,0,1-.868.4,2.209,2.209,0,0,0,.758-.512,5.181,5.181,0,0,0,.551-.745,1.587,1.587,0,0,1,.849-.531,5.184,5.184,0,0,0,.875-.266,3.491,3.491,0,0,0,1.347-1.153A13.452,13.452,0,0,0,423.863,245.63Z" transform="translate(-362.898 -237.898)"/><path class="n" d="M437.529,264.985s2.662-2.792,3.958-1.8-1.03,5.273-2.785,5.642a1.717,1.717,0,0,1-2.131-1.257Z" transform="translate(-369.277 -244.006)"/><path class="e" d="M441.292,265.168v.045a4.232,4.232,0,0,0-2.591,2.339.939.939,0,0,1,1.432-.039c.032,0,0,.065-.039.052a1.043,1.043,0,0,0-1.2.194,4.844,4.844,0,0,0-.693.842c-.071.1-.246,0-.188-.1h0C438.2,267,439.672,265.057,441.292,265.168Z" transform="translate(-369.781 -244.778)"/><path class="a" d="M426.761,285.04l1.432,4.612,6.012-5.182,1.425,1.943s-6.154,8.538-6.161,8.13l-1.529-4-2.87,2.462.758-6.7Z" transform="translate(-365.226 -251.578)"/><path class="e" d="M425.163,290.642c.162-1.1.292-2.215.505-3.31a.039.039,0,0,1,.078,0,61.289,61.289,0,0,1-.59,6.323h0c.123-.1,2.656-2.157,2.675-2.118.35.648,1.477,3.556,1.548,3.822.972-1.36,4.684-6.277,5.83-7.547.032-.032.091,0,.065.045-.881,1.445-5.83,8.078-5.869,8.052a44.266,44.266,0,0,1-1.594-4.23,29.165,29.165,0,0,1-3.012,2.63A34.606,34.606,0,0,1,425.163,290.642Z" transform="translate(-365.131 -252.574)"/></g><g transform="translate(341.145 93.576)"><rect class="g" width="83.819" height="83.819" transform="translate(0 21.241)"/><path class="e" d="M542.57,122.58v56.469h56.469V122.58Zm53.4,53.392H545.634V125.644h50.334Z" transform="translate(-506.831 -122.58)"/><path class="e" d="M530.112,209l4.535.317a13.992,13.992,0,0,0,1.82-8.253c-.052-.648,1.328,3.174.473,8.421,4.787.33,11.3.784,16.992,1.127.214-2.222.512-4.269.512-4.269a24.873,24.873,0,0,0,.732,4.347c.777.052,1.542.091,2.274.13a85.7,85.7,0,0,1,.855-9.451,30.384,30.384,0,0,0,2.377,9.626c3.621.181,6,.233,5.83.052-5.182-6.523-1.011-9.957-2.319-15.547-1.561-6.7-7.223-8.02-6.828-12.956.317-4.042,1.153-11.356-3.887-13.163a9.853,9.853,0,0,0-10.533-2.572c-8.22,2.721-5.591,15.346-6.258,17.86-.952,3.589-2.74,4.787-4.217,8.868s.279,6.99.363,9.834S529.205,208.947,530.112,209Z" transform="translate(-502.393 -137.955)"/><path class="e" d="M581.4,218.493a14.255,14.255,0,0,1-1.594-3.621,7.463,7.463,0,0,1,.188-3.8,38,38,0,0,0,.849-3.965,10.508,10.508,0,0,0-.207-4.185,9.271,9.271,0,0,0-2.015-3.692,24.537,24.537,0,0,0-2.986-2.779,14.971,14.971,0,0,1-2.753-2.792,7.327,7.327,0,0,1-1.3-3.686,6.834,6.834,0,0,0,.868,3.945,13.6,13.6,0,0,0,2.637,3.122,30.576,30.576,0,0,1,2.766,2.818,8.874,8.874,0,0,1,1.743,3.336,10.455,10.455,0,0,1,.207,3.79c-.136,1.3-.434,2.591-.648,3.887a13.469,13.469,0,0,0-.22,2.06A5.894,5.894,0,0,0,579.3,215a11.6,11.6,0,0,0,2.1,3.492Z" transform="translate(-517.042 -146.315)"/><path class="e" d="M537.458,174a20.2,20.2,0,0,0-1.3,4.781c-.279,1.626-.479,3.239-.648,4.9l-.292,2.442a12.227,12.227,0,0,1-.473,2.326,13.254,13.254,0,0,1-2.4,4.081,18.613,18.613,0,0,0-1.419,2.1,11.314,11.314,0,0,0-1.011,2.377,17.6,17.6,0,0,0-.473,2.507,10.625,10.625,0,0,0,0,2.591c.11.849.311,1.658.473,2.449a13,13,0,0,1,.272,2.39,5.085,5.085,0,0,1-2.177,4.088,5.183,5.183,0,0,0,2.688-4.068,12.648,12.648,0,0,0-.1-2.526c-.11-.829-.279-1.632-.331-2.423a12.959,12.959,0,0,1,.59-4.69,11.307,11.307,0,0,1,.946-2.144,17.966,17.966,0,0,1,1.367-1.976,23.392,23.392,0,0,0,1.445-2.066,10.365,10.365,0,0,0,1.069-2.358,13.357,13.357,0,0,0,.44-2.52c.084-.829.136-1.652.188-2.475.11-1.645.194-3.284.35-4.917A23.653,23.653,0,0,1,537.458,174Z" transform="translate(-501.706 -140.69)"/><path class="d" d="M603.612,281.052a.582.582,0,0,0-.052-.292,3.5,3.5,0,0,1,.058.363A.264.264,0,0,0,603.612,281.052Z" transform="translate(-528.312 -178.291)"/><path class="d" d="M578.6,285.64a1.032,1.032,0,0,0,.168.091v-.045h0l-.175-.039Z" transform="translate(-519.517 -180.01)"/><path class="o" d="M531.87,213.607c-10.183,11.453-22.511,35.078-19.745,39.593,3.077,5.027,17.763-11.285,17.257-12.023-.427-.648,4.347-14.757,7.819-25.089S534.39,210.776,531.87,213.607Z" transform="translate(-495.969 -153.323)"/><path class="k" d="M531.87,213.607c-10.183,11.453-22.511,35.078-19.745,39.593,3.077,5.027,17.763-11.285,17.257-12.023-.427-.648,4.347-14.757,7.819-25.089S534.39,210.776,531.87,213.607Z" transform="translate(-495.969 -153.323)"/><path class="a" d="M537.572,235.467c-1,3.012-1.9,5.83-2.591,8.1-1.574.071-6.18-.181-10.961-4.781,1.438-2.546,2.993-5.1,4.6-7.553A14.317,14.317,0,0,0,537.572,235.467Z" transform="translate(-500.298 -160.847)"/><path class="k" d="M527.66,257.913l2.552-17.329s-4.094-7.126-1.717-12.308c1.2-2.591,9.432-15.314,13.863-18.533,4.159-3.019,9.859-.266,11.8,2.358,5.571,7.553,8.285,21.144,11.395,45.793Z" transform="translate(-501.58 -152.814)"/><path class="e" d="M535.065,222.817c-.842,1.153-1.658,2.326-2.462,3.511.22-.46.44-.92.648-1.38,0-.032,0-.065-.045,0-.3.577-.577,1.16-.842,1.749q-1.613,2.377-3.122,4.833a12.86,12.86,0,0,0-1.108,2.164,9.684,9.684,0,0,0-.538,2.293,11.536,11.536,0,0,0-.039,2.364,15.782,15.782,0,0,0,.343,2.4,14.988,14.988,0,0,0,.842,2.63c.181.415.369.823.577,1.231s.564,1.114.564,1.14c-.078.415-.155.706-.207,1.056s-.11.713-.162,1.069c-.11.713-1.03,7.631-1.134,8.344-.207,1.412-.389,2.824-.564,4.243-.1.816-.155,1.632-.266,2.442,0,.032.045.045.052,0,.117-.706.292-1.4.415-2.105s.259-1.412.4-2.118c.266-1.425,1.3-9.069,1.516-10.5.065-.4.123-.79.188-1.192a7.51,7.51,0,0,0,.149-1.3,31.844,31.844,0,0,1-1.762-4.431,15.581,15.581,0,0,1-.5-2.358,12.278,12.278,0,0,1,0-2.339,10.62,10.62,0,0,1,.447-2.3,12.348,12.348,0,0,1,1-2.19c.829-1.47,1.71-2.915,2.591-4.347q1.516-2.436,3.083-4.852S535.084,222.792,535.065,222.817Z" transform="translate(-501.528 -157.882)"/><path class="o" d="M512.233,270.244c2.591,3.336,9.218,3.654,25.815,6.012,2.293.33,8.959-15.256,6.523-15.729-3.064-.6-15.094-2.261-15.988-2.267C521.037,258.169,510.465,267.983,512.233,270.244Z" transform="translate(-496.077 -170.366)"/><path class="o" d="M551.361,260.86s7.016.693,10.591,2.2a24.92,24.92,0,0,1,9.406,7.359c2.695,3.414,6.841,13.539,4.133,15.243-2.449,1.542-6.167-9.024-6.167-9.024s5.565,10.145,2.274,11.46-6.912-11.194-6.912-11.194,5.487,10.553,1.879,11.369c-2.727.648-6.64-10.52-6.64-10.52s4.651,9.1,1.872,9.853c-3.071.836-7.327-9.218-7.327-9.218-7.385.732-11.207-1.943-13.695-4.165C540.141,273.68,551.361,260.86,551.361,260.86Z" transform="translate(-506.19 -171.283)"/><path class="e" d="M582.155,279.61c.7,1.166,1.412,2.345,2,3.569s1.14,2.475,1.613,3.751a22.808,22.808,0,0,1,1.373,5.137,49.6,49.6,0,0,0-3.33-8.739c-.6-1.231-1.114-2.475-1.7-3.7Z" transform="translate(-520.757 -177.886)"/><path class="e" d="M575.251,282.773c.823,1.529,1.7,3.019,2.462,4.58s1.3,3.109,1.943,4.716c.052.123,0,.11-.091,0-.706-1.581-1.483-2.986-2.209-4.535s-1.393-3.168-2.177-4.709C575.2,282.76,575.238,282.747,575.251,282.773Z" transform="translate(-518.316 -178.996)"/><path class="e" d="M568.84,284.42a38.452,38.452,0,0,1,3.239,7.3c.045.123-.058.1-.11-.032-1.03-2.442-1.814-4.373-3.194-7.216C568.743,284.427,568.814,284.375,568.84,284.42Z" transform="translate(-516.058 -179.574)"/><path class="k" d="M546.45,260.061,532.788,276.14s-18.657-1.3-20.807-6.219,12.056-12.081,16.487-11.66S546.45,260.061,546.45,260.061Z" transform="translate(-495.98 -170.361)"/><path class="e" d="M526.444,260.327c1.075-.738,4.12-2.475,7.19-2.131v.052a19.977,19.977,0,0,0-7.165,2.118C526.444,260.385,526.418,260.34,526.444,260.327Z" transform="translate(-501.148 -170.329)"/><path class="e" d="M539.7,274.138a167.053,167.053,0,0,0,11.071-13.6c.039-.052-.052-.117-.091-.065-.842,1.153-7.126,8.324-11.077,13.6C539.558,274.132,539.649,274.19,539.7,274.138Z" transform="translate(-505.782 -171.138)"/><rect class="d" width="30.272" height="23.249" transform="matrix(0.2, -0.98, 0.98, 0.2, 13.71, 97.573)"/><rect class="a" width="11.019" height="3.343" transform="matrix(0.98, 0.201, -0.201, 0.98, 26.162, 67.609)"/><path class="a" d="M537.449,227.458l-1.328-.279.3-1.5-3.226-.667-.311,1.509-1.328-.272.564-2.747,5.908,1.211Z" transform="translate(-502.953 -158.124)"/><path class="o" d="M558.285,216.88c10.974,13.96,15.113,39.075,9.024,41.019-5.565,1.788-28.451-3.939-35.273-6.258-2-.68,4.185-16.247,6.329-15.547,2.591.875,16.739,4.23,17.018,4.237.59,0-2.559-15.431-3.887-22.433C549.592,208.154,554.165,211.633,558.285,216.88Z" transform="translate(-502.983 -153.979)"/><path class="o" d="M511.931,239.719a2.507,2.507,0,0,0-.22,2.863,3.744,3.744,0,0,0-2.04,1.516c-.79,1.3.939,3.142.939,3.142a4.593,4.593,0,0,0-1.9,1.943c-.648,1.341.855,3.427.855,3.427a4.023,4.023,0,0,0-.6,2.753c.479,2.552,4.165,4,6.478,4.949s9.846,1.432,11.265,1.671l6.193-14.945s-9.27-7.21-12.179-7.936C518.312,238.5,513.233,238.216,511.931,239.719Z" transform="translate(-494.849 -163.448)"/><path class="e" d="M513.707,244.44c2.76,0,5.357.855,8,1.542.058,0,0,.1,0,.091-2.591-.713-5.351-.894-7.994-1.5a.065.065,0,0,1-.006-.13Z" transform="translate(-496.644 -165.499)"/><path class="e" d="M511.87,251.66a7.125,7.125,0,0,1,1.827.434c.648.2,1.3.408,1.892.648,1.3.44,2.507.913,3.744,1.419.052,0,0,.11,0,.091q-1.885-.648-3.79-1.237c-.648-.194-1.3-.382-1.911-.564a8.654,8.654,0,0,1-1.788-.6.1.1,0,1,1,.026-.194Z" transform="translate(-495.979 -168.042)"/><path class="e" d="M510.177,260.23a5.06,5.06,0,0,1,1.626.486c.563.214,1.14.421,1.71.648,1.14.408,2.287.823,3.44,1.192a.052.052,0,0,1,0,.1c-1.172-.376-2.358-.732-3.53-1.114l-1.723-.577a4.534,4.534,0,0,1-1.522-.648.042.042,0,0,1,0-.084Z" transform="translate(-495.407 -171.061)"/><path class="k" d="M557.427,239.474c.175-.11-3.109-15.009-4.211-22.79s2.371-7.029,7.365-.382c5.357,7.126,14.9,26.4,11.589,40.682-1.069,4.625-34.191-1.853-34.191-1.853l4.463-19.039S557.135,239.636,557.427,239.474Z" transform="translate(-505.214 -153.751)"/><path class="a" d="M580.28,246.824c-5.4,1.581-11.265.777-13.656.33-.343-1.872-1.179-5.927-2.034-10.306a26.91,26.91,0,0,0,11.628-.887A73.591,73.591,0,0,1,580.28,246.824Z" transform="translate(-514.587 -162.513)"/><path class="e" d="M544.583,267.792a146.738,146.738,0,0,0,3.407-15.158.045.045,0,1,0-.091,0c-.214,1.244-2.39,9.419-3.42,15.152C544.466,267.837,544.564,267.85,544.583,267.792Z" transform="translate(-507.503 -168.368)"/><path class="e" d="M566.018,255.246c-.648-.11-17.549-4.871-21.241-5.448-.058,0,0-.2.052-.188a156.169,156.169,0,0,1,21.416,5.325C567.087,255.271,567.21,255.453,566.018,255.246Z" transform="translate(-507.6 -167.32)"/><path class="e" d="M566.008,247.84s-1.114-5.739-1.3-6.1-.648-1.185-.829-1.568c-.369-.771-.687-1.561-1.023-2.345,0-.065.071-.11.1-.045.369.751.8,1.477,1.231,2.2.214.35.428.706.648,1.049,0,0-1.043-5.571-1.192-6.556,0-.071.065-.1.091,0,.317.991,2.533,12.2,2.837,13.448a3.885,3.885,0,0,1-.564-.084Z" transform="translate(-513.977 -161.967)"/><path class="e" d="M544.609,278.931c-1.108-.3-5.532-1.017-6.608-1.173a14.009,14.009,0,0,0,.389-2.423.052.052,0,0,0-.091,0,19.389,19.389,0,0,0-.81,2.773c0,.091,5.96.842,7.126.9C544.629,279,544.642,278.944,544.609,278.931Z" transform="translate(-505.042 -176.371)"/><path class="o" d="M546.19,211.158s.44,4.379,4.075,5.059,10.417-4.088,10.417-4.088a10.112,10.112,0,0,0-7.651-3.679C548.3,208.444,546.19,211.158,546.19,211.158Z" transform="translate(-508.106 -152.824)"/><path class="o" d="M557.761,204.471c-.194.648-3.621,4.807-6.659,4.489-.991-.11-.648-5.539-.648-5.539l-.065-.4-.939-5.688,6.841-3.887.985-.505s.156,1.574.324,3.537v.279a1.082,1.082,0,0,0,.032.317c0,.292.058.589.078.887s.039.453.052.687l.039.713A37.374,37.374,0,0,1,557.761,204.471Z" transform="translate(-509.254 -147.361)"/><path class="e" d="M557.569,196.5a11.583,11.583,0,0,1-7.21,6.517l-.939-5.688,6.841-3.887.985-.505S557.407,194.54,557.569,196.5Z" transform="translate(-509.244 -147.361)"/><path class="o" d="M538.9,177.874c-2.662,9.756,2.889,12.457,4.995,13.027,1.943.518,8.48,2.041,12.14-7.391s-.039-13.759-4.353-15.178S541.557,168.112,538.9,177.874Z" transform="translate(-505.287 -138.52)"/><path class="e" d="M544.52,179.859h.7a1.127,1.127,0,0,0,.713-.117.35.35,0,0,0,.1-.428.888.888,0,0,0-.8-.408,1.3,1.3,0,0,0-.913.259.389.389,0,0,0,.2.693Z" transform="translate(-507.394 -142.416)"/><path class="e" d="M554.755,181.195a5.625,5.625,0,0,1-.648-.291,1.114,1.114,0,0,1-.6-.415.356.356,0,0,1,.1-.428.874.874,0,0,1,.907,0,1.3,1.3,0,0,1,.7.648.382.382,0,0,1-.46.486Z" transform="translate(-510.673 -142.78)"/><path class="e" d="M551.873,186.7s.039.045,0,.071c-.188.648-.285,1.458.266,1.827v.032C551.446,188.345,551.595,187.3,551.873,186.7Z" transform="translate(-510.026 -145.163)"/><path class="e" d="M552.682,185.846c1.1.181.648,2.364-.363,2.19S551.768,185.69,552.682,185.846Z" transform="translate(-510.063 -144.859)"/><path class="e" d="M553.721,186.149c.162.162.3.421.531.492s.505-.11.726-.291c0,0,.039,0,0,.032-.084.421-.33.816-.79.784s-.648-.46-.648-.9C553.566,186.188,553.657,186.084,553.721,186.149Z" transform="translate(-510.695 -144.962)"/><path class="e" d="M545.2,184.64s-.058,0-.065.052c-.123.68-.376,1.432-1.036,1.522v.039C544.864,186.311,545.195,185.307,545.2,184.64Z" transform="translate(-507.37 -144.438)"/><path class="e" d="M544.484,183.343c-1.069-.317-1.62,1.84-.648,2.131S545.378,183.608,544.484,183.343Z" transform="translate(-507.099 -143.97)"/><path class="e" d="M543.71,183.189c-.2.071-.421.233-.648.194s-.356-.324-.447-.583h-.039c-.117.408-.091.875.285,1.056s.693-.123.9-.505C543.82,183.292,543.788,183.163,543.71,183.189Z" transform="translate(-506.812 -143.79)"/><path class="e" d="M548.586,194.576a1.049,1.049,0,0,1-.648.3,1.84,1.84,0,0,1-.7-.285H547.2a.939.939,0,0,0,.8.512.745.745,0,0,0,.648-.518C548.664,194.576,548.618,194.556,548.586,194.576Z" transform="translate(-508.461 -147.934)"/><path class="e" d="M545.176,186.331s-.356.978-.46,1.451c0,.045.1.091.259.136h0a2.287,2.287,0,0,0,2.371-.363c.045-.039,0-.1-.058-.078a3.459,3.459,0,0,1-2.183.136c0-.136.648-1.645.6-1.671a4.178,4.178,0,0,0-1.134,0c.693-2.054,1.7-3.977,2.358-6.031,0-.078-.084-.123-.117-.058A34.93,34.93,0,0,0,544,186.24C543.913,186.513,544.969,186.37,545.176,186.331Z" transform="translate(-507.332 -142.741)"/><path class="e" d="M545.8,191.949a2.753,2.753,0,0,0,.836,1.1,1.237,1.237,0,0,0,.712.24c.557,0,.7-.479.713-.913a2.933,2.933,0,0,0-.065-.687A3.582,3.582,0,0,1,545.8,191.949Z" transform="translate(-507.969 -146.921)"/><path class="p" d="M547.09,193.408a1.237,1.237,0,0,0,.712.24c.557,0,.7-.479.713-.913A1.3,1.3,0,0,0,547.09,193.408Z" transform="translate(-508.423 -147.278)"/><path class="e" d="M556.791,182.26c-1.043-.369-2.967-4.075-1.581-9.212a38.608,38.608,0,0,0-.771,5.474c.155.771-1.075-2.086,0-6.245a17.33,17.33,0,0,1-4.865.985c-2.1,0-3.291-.376-3.388-.557s3.025-.259,4.055-.933c0,0-5.869.926-8.311.421-.279-.058,1.017-5.83,5.4-7.184s9.484,2.928,10.624,4.9c0,0,1.768.79,2.993,4.1S557.912,182.655,556.791,182.26Z" transform="translate(-506.593 -137.432)"/><path class="o" d="M562,191.067s2.734-2.714,4-1.684-1.185,5.241-2.947,5.552a1.71,1.71,0,0,1-2.092-1.3Z" transform="translate(-513.308 -146.026)"/><path class="e" d="M565.757,191.346v.045a4.324,4.324,0,0,0-2.682,2.261.939.939,0,0,1,1.438,0s0,.065-.045.052a1.049,1.049,0,0,0-1.2.156,5.371,5.371,0,0,0-.713.823c-.078.1-.253,0-.188-.1h0C562.615,193.062,564.137,191.2,565.757,191.346Z" transform="translate(-513.797 -146.797)"/><path class="o" d="M578.63,285.65l.168.039h0Z" transform="translate(-519.531 -180.014)"/><path class="d" d="M603.56,280.76a3.5,3.5,0,0,1,.058.363.267.267,0,0,0,0-.071Z" transform="translate(-528.312 -178.291)"/><path class="d" d="M603.56,280.76a3.5,3.5,0,0,1,.058.363.267.267,0,0,0,0-.071Z" transform="translate(-528.312 -178.291)"/><path class="d" d="M577.45,288.37h0l.525.123Z" transform="translate(-519.116 -180.972)"/><path class="g" d="M603.56,280.76a3.5,3.5,0,0,1,.058.363.267.267,0,0,0,0-.071Z" transform="translate(-528.312 -178.291)"/></g><g transform="translate(231.181 81.249)"><path class="a" d="M317.65,113.62v25.51h25.543V113.62Zm1.943,23.606V115.544h21.669v21.682Z" transform="translate(-317.65 -107.097)"/><rect class="i" width="86.656" height="79.802" transform="translate(18.151)"/><path class="q" d="M433,162.793c10.559,10.7,23.839,33.213,21.377,37.78-2.76,5.085-17.458-9.918-17.406-10.8.045-.648-5.124-14.336-9.069-24.279S430.389,160.143,433,162.793Z" transform="translate(-356.041 -123.219)"/><path class="d" d="M436.822,189.709c-.447-1.464-7.489-19.492-9.5-25.2s-.149-7.463,5.6-2.241,18.339,22.673,21.215,31.93c2.766,8.907-1.827,8.907-7.864,4.807C441.292,195.642,436.822,189.709,436.822,189.709Z" transform="translate(-356.002 -123.134)"/><path class="r" d="M433.857,164.87a4.657,4.657,0,0,1-1,2.177,4.413,4.413,0,0,1,.356-1.153A4.586,4.586,0,0,1,433.857,164.87Zm17.413,24.8a4.048,4.048,0,0,0-.356,1.153,4.236,4.236,0,0,0,.648-1.024,4.413,4.413,0,0,0,.356-1.153A4.047,4.047,0,0,0,451.27,189.668Zm-6.225-9.477a4.157,4.157,0,0,0-.356,1.16,4.407,4.407,0,0,0,.648-1.03,4.27,4.27,0,0,0,.356-1.153,4.365,4.365,0,0,0-.648,1.024Zm-6.478-2.377a4.047,4.047,0,0,0-1.153-.356,4.658,4.658,0,0,0,2.177,1,4.237,4.237,0,0,0-1.011-.641Zm5.83,9.581a4.159,4.159,0,0,0-1.16-.356,4.4,4.4,0,0,0,1.03.648,4.269,4.269,0,0,0,1.153.356,4.369,4.369,0,0,0-1.011-.648Zm-4.742-16.409a4.048,4.048,0,0,0-1.153-.356,4.236,4.236,0,0,0,1.023.648,4.112,4.112,0,0,0,1.153.356,4.236,4.236,0,0,0-1.011-.648Zm-3.615,12.794a4.346,4.346,0,0,0,.564,1.069,4.691,4.691,0,0,0-.836-2.248,4.536,4.536,0,0,0,.285,1.179Zm12.2,11.414a4.232,4.232,0,0,0,.564,1.069,4.691,4.691,0,0,0-.836-2.248,4.225,4.225,0,0,0,.285,1.179Zm-8.214-1.943h0l.214.253a4.075,4.075,0,0,0,.991-.531,4.217,4.217,0,0,0-1.192.3Zm14.452,6.815a4.239,4.239,0,0,0,1.069-.564,4.223,4.223,0,0,0-1.179.272,4.034,4.034,0,0,0-1.069.564,4.47,4.47,0,0,0,1.192-.253Zm-21.682-26.424a5.147,5.147,0,0,0-.764.356l.058.162a4.285,4.285,0,0,0,.81-.227,4.074,4.074,0,0,0,1.075-.564,4.41,4.41,0,0,0-1.166.292Z" transform="translate(-357.935 -125.147)"/><path class="d" d="M418.623,201.637H378.46s6.381-31.483,21.773-45.113c1.9-1.684,6.193-1.3,9,.091,1,.5,4.586,5.519,5.61,10.268S418.74,201.495,418.623,201.637Z" transform="translate(-339.067 -121.816)"/><path class="e" d="M435.151,176.129c.317,1.062.577,2.157.79,3.239a.866.866,0,0,1,0-.13,13.739,13.739,0,0,1,.084-1.872s.058-.039.058,0a9.167,9.167,0,0,1,.052,1.885c0,.292-.032.589-.058.887.084.492.162.991.22,1.483.123.933.434,4.424.46,5.118,0,.143-.162.168-.2,0-.188-.7-.687-4.3-.849-5.228a50.7,50.7,0,0,1-.648-5.422C435.079,176.09,435.138,176.09,435.151,176.129Z" transform="translate(-359.002 -129.099)"/><path class="r" d="M403.517,166.707a4.276,4.276,0,0,1-.363,1.153,4.049,4.049,0,0,1-.648,1.023,4.355,4.355,0,0,1,.363-1.153,4.165,4.165,0,0,1,.648-1.024Zm-5.441,15.988a4.047,4.047,0,0,0-.356,1.153,4.657,4.657,0,0,0,1-2.177A4.235,4.235,0,0,0,398.075,182.694Zm-13.04,5.72a4.159,4.159,0,0,0-.356,1.16,4.365,4.365,0,0,0,.648-1.024,4.157,4.157,0,0,0,.356-1.16A4.365,4.365,0,0,0,385.035,188.414Zm9.587,10.255a4.051,4.051,0,0,0-.356,1.153,4.588,4.588,0,0,0,.648-1.024,4.639,4.639,0,0,0,.356-1.16A4.2,4.2,0,0,0,394.622,198.669Zm16.733-19.81a4.384,4.384,0,0,0-.356,1.16,4.2,4.2,0,0,0,.648-1.03,4.048,4.048,0,0,0,.356-1.153,4.587,4.587,0,0,0-.648,1.024Zm5.273,10.877a4.158,4.158,0,0,0-.356,1.16,4.367,4.367,0,0,0,.648-1.024,4.16,4.16,0,0,0,.356-1.16A4.536,4.536,0,0,0,416.628,189.736Zm-12.762,7.838a4.64,4.64,0,0,0-.356,1.16,4.2,4.2,0,0,0,.648-1.03,4.277,4.277,0,0,0,.363-1.153,4.392,4.392,0,0,0-.654,1.023Zm-12.224-21.2a4.352,4.352,0,0,0-.363,1.153,4.05,4.05,0,0,0,.648-1.024,4.274,4.274,0,0,0,.363-1.153A4.167,4.167,0,0,0,391.643,176.372Zm15.171-3.576a4.049,4.049,0,0,0-1.153-.356,4.237,4.237,0,0,0,1.023.648,4.34,4.34,0,0,0,1.153.356A4.236,4.236,0,0,0,406.814,172.8Zm2.533,12.917a4.049,4.049,0,0,0-1.153-.356,4.444,4.444,0,0,0,1.024.648,4.269,4.269,0,0,0,1.153.356A4.049,4.049,0,0,0,409.347,185.713ZM385.741,199.4a4.275,4.275,0,0,0-1.153-.363,4.048,4.048,0,0,0,1.023.648,4.425,4.425,0,0,0,1.153.363A4.05,4.05,0,0,0,385.741,199.4Zm24.02,2.591a4.341,4.341,0,0,0-1.153-.356,4.237,4.237,0,0,0,1.024.648l.246.11a3.7,3.7,0,0,1,.648.039,4.663,4.663,0,0,0-.764-.421Zm-15-13.073a4.269,4.269,0,0,0-1.153-.356,4.049,4.049,0,0,0,1.024.648,4.185,4.185,0,0,0,1.153.356,4.443,4.443,0,0,0-1.024-.628Zm12.049-27.577a4.274,4.274,0,0,0-1.153-.363,4.264,4.264,0,0,0,1.023.648,4.6,4.6,0,0,0,1.153.356,4.049,4.049,0,0,0-1.024-.622Zm2.591,5.992a4.139,4.139,0,0,0,.564,1.069,4.41,4.41,0,0,0-.272-1.179,4.335,4.335,0,0,0-.564-1.069,4.283,4.283,0,0,0,.285,1.2Zm6.42,29.9a4.036,4.036,0,0,0,.564,1.069,4.69,4.69,0,0,0-.836-2.248,4.225,4.225,0,0,0,.272,1.179ZM398.6,174.862a4.452,4.452,0,0,0,.564,1.069,4.217,4.217,0,0,0-.266-1.179,4.45,4.45,0,0,0-.564-1.069,4.455,4.455,0,0,0,.233,1.179Zm4.962,13.15a4.125,4.125,0,0,0,.564,1.069,4.282,4.282,0,0,0-.272-1.179,4.346,4.346,0,0,0-.564-1.069,4.173,4.173,0,0,0,.227,1.179Zm-23,15.424a1.378,1.378,0,0,0,0,.162h.1Zm11.3-.052a4.269,4.269,0,0,0-.564-1.075,4.171,4.171,0,0,0,.272,1.179l.039.11h.324A.262.262,0,0,1,391.856,203.385Zm-2.306-9.27a4.345,4.345,0,0,0,.564,1.069,4.172,4.172,0,0,0-.272-1.179,4.128,4.128,0,0,0-.564-1.069,4.28,4.28,0,0,0,.24,1.179Zm9.717-30.952a3.939,3.939,0,0,0,.564,1.069,4.282,4.282,0,0,0-.272-1.179,4.347,4.347,0,0,0-.564-1.069,4.172,4.172,0,0,0,.246,1.179ZM409.995,193.5a4.335,4.335,0,0,0,1.069-.564,4.217,4.217,0,0,0-1.179.266,4.451,4.451,0,0,0-1.069.564A4.217,4.217,0,0,0,409.995,193.5Zm-10.52,9.665a4.238,4.238,0,0,0,1.069-.564,4.69,4.69,0,0,0-2.248.836,4.223,4.223,0,0,0,1.179-.272ZM381.6,194.413a1.1,1.1,0,0,1-.084.272,3.485,3.485,0,0,0,.551-.337,3.518,3.518,0,0,0-.466.065Zm9.16-11.136a4.269,4.269,0,0,0,1.075-.564,4.172,4.172,0,0,0-1.179.272,4.269,4.269,0,0,0-1.075.564,4.412,4.412,0,0,0,1.179-.272Zm8.421,10.637a4.238,4.238,0,0,0,1.095-.531,4.69,4.69,0,0,0-2.248.836,4.223,4.223,0,0,0,1.16-.3Zm4.982-15.256a4.5,4.5,0,0,0,1.075-.564,4.165,4.165,0,0,0-1.179.266,4.333,4.333,0,0,0-1.069.564,4.172,4.172,0,0,0,1.173-.266Zm10.591-6.076a4.075,4.075,0,0,0,1.075-.564,4.172,4.172,0,0,0-1.179.272,4.127,4.127,0,0,0-1.069.564,4.185,4.185,0,0,0,1.2-.272Zm-18.935-3.55a4.236,4.236,0,0,0,1.069-.564,4.69,4.69,0,0,0-2.248.836,4.223,4.223,0,0,0,1.2-.272Z" transform="translate(-339.806 -123.777)"/><path class="q" d="M358.444,125.889c-.084-1.943.3-10.8.965-13.241s3.071-9.341,4.995-9.024,1.38,2.39,1.38,2.39,1.477-2.753,3.388-2.261.952,3.7.952,3.7,1.723-2.714,3.6-2.086.369,3.686.369,3.686,1.458-2.552,2.779-1.386c1.587,1.4-1.639,5.83-2.164,8.557-.123.648-1.529,12.846-1.529,12.846Z" transform="translate(-332.014 -103.572)"/><path class="e" d="M381.027,111.528c-2.371,3.239-2.844,5.079-3.1,9.024a.062.062,0,0,1-.123,0c-.1-3.887.168-6.271,3.071-9.153C381.014,111.269,381.163,111.379,381.027,111.528Z" transform="translate(-338.83 -106.294)"/><path class="e" d="M374.942,109.093a21.184,21.184,0,0,0-3.278,9.672c0,.058-.1.052-.1,0,.233-4.081.551-6.478,3.181-9.717C374.864,108.86,375.039,108.925,374.942,109.093Z" transform="translate(-336.637 -105.446)"/><path class="e" d="M368.208,107.568a19.322,19.322,0,0,0-2.591,9.834.078.078,0,0,1-.149,0,13.55,13.55,0,0,1,2.591-9.885C368.24,107.315,368.325,107.341,368.208,107.568Z" transform="translate(-334.464 -104.899)"/><path class="q" d="M377.088,137.831a49.843,49.843,0,0,0,4.936-5.318c1.276-1.866,3.466-10.591,1.607-11.175-2.4-.745-4.651,4.036-5.448,6.523,0,0-5.545-1.736-7.9,1.347S377.088,137.831,377.088,137.831Z" transform="translate(-336.05 -109.787)"/><path class="e" d="M383.086,121.385c-2.675.894-3.511,4.224-4.47,6.582a.233.233,0,0,1-.369.1c-2.371-.577-5.882-.693-7.774,1.017a.06.06,0,1,1-.091-.078c1.82-2.118,5.28-2.28,7.838-1.49.939-2.429,1.943-5.739,4.891-6.161C383.086,121.353,383.086,121.379,383.086,121.385Z" transform="translate(-336.217 -109.822)"/><path class="q" d="M394.407,154.42c-2.41,4.172-16.337,17.031-28.5,19.259-1.645.3-7.916-1.024-9.231-5.182-2.339-7.411-.466-22.712.726-31.923.233-1.794,16.933,1.9,16.5,4.645-.479,3.045-2.267,14.219-1.989,14.349,1,.46,11.66-4.152,18.676-5.662C395.573,148.829,396.266,151.206,394.407,154.42Z" transform="translate(-331 -115.014)"/><path class="k" d="M354.754,143.85l19.032,4.12s-1.73,9.717-1.393,9.672,13.694-4.93,18.844-5.441,5.144,1.756,2.533,6.005-19.713,18.475-28.14,18.475c-4.288,0-8.279-2.747-9.069-4.062C354.158,168.563,354.754,143.85,354.754,143.85Z" transform="translate(-330.695 -117.744)"/><path class="d" d="M354.754,143.85l19.032,4.12s-1.73,9.717-1.393,9.672,13.694-4.93,18.844-5.441,5.144,1.756,2.533,6.005-19.713,18.475-28.14,18.475c-4.288,0-8.279-2.747-9.069-4.062C354.158,168.563,354.754,143.85,354.754,143.85Z" transform="translate(-330.695 -117.744)"/><path class="r" d="M382.379,158.659a4.27,4.27,0,0,0-.356,1.153,4.048,4.048,0,0,0,.648-1.024,4.111,4.111,0,0,0,.356-1.153,4.445,4.445,0,0,0-.648,1.024Zm-15.12,16.992a4.05,4.05,0,0,0-.356,1.153,4.658,4.658,0,0,0,1-2.177A4.365,4.365,0,0,0,367.26,175.651Zm-11.207-11.66a4.063,4.063,0,0,0-.363,1.153,4.262,4.262,0,0,0,.648-1.023,4.532,4.532,0,0,0,.356-1.153A4.167,4.167,0,0,0,356.053,163.991Zm16.564.045a4.386,4.386,0,0,0-.356,1.16,4.082,4.082,0,0,0,.648-1.03,4.276,4.276,0,0,0,.363-1.153,4.314,4.314,0,0,0-.654,1.03Zm-8.3,4.807a4.412,4.412,0,0,0-.356,1.153,4.049,4.049,0,0,0,.648-1.024,4.276,4.276,0,0,0,.363-1.153,4.263,4.263,0,0,0-.654,1.024Zm.738-11.7a4.185,4.185,0,0,0-.356,1.153,4.658,4.658,0,0,0,1-2.177,4.236,4.236,0,0,0-.674,1.024Zm-8.512-8.7a4.276,4.276,0,0,0-.363,1.153,3.886,3.886,0,0,0,.648-1.024,4.352,4.352,0,0,0,.363-1.153A4.238,4.238,0,0,0,356.539,148.444Zm34.223,9.827a4.238,4.238,0,0,0-.564-1.069,4.173,4.173,0,0,0,.272,1.179,4.107,4.107,0,0,0,.557,1.069,4.216,4.216,0,0,0-.253-1.173Zm-11.272,7.774a4.335,4.335,0,0,0-.564-1.069,4.221,4.221,0,0,0,.272,1.179,4.036,4.036,0,0,0,.564,1.069,4.411,4.411,0,0,0-.259-1.166Zm-8.467-8.765a4.236,4.236,0,0,0-.564-1.069,4.69,4.69,0,0,0,.836,2.248,4.224,4.224,0,0,0-.259-1.166Zm-1.095,12.684a4.237,4.237,0,0,0-.564-1.069,4.223,4.223,0,0,0,.272,1.179,4.129,4.129,0,0,0,.564,1.069,4.223,4.223,0,0,0-.259-1.166ZM359.072,168.6a4.126,4.126,0,0,0-.564-1.069,4.534,4.534,0,0,0,.272,1.179,4.237,4.237,0,0,0,.564,1.069,4.172,4.172,0,0,0-.259-1.166Zm3.427-17.931a4.267,4.267,0,0,0-.564-1.075,4.263,4.263,0,0,0,.266,1.185,4.581,4.581,0,0,0,.564,1.069,4.165,4.165,0,0,0-.253-1.166Zm-1.3,10.17a4.334,4.334,0,0,0-.564-1.069,4.225,4.225,0,0,0,.272,1.179,4.126,4.126,0,0,0,.564,1.069,4.173,4.173,0,0,0-.246-1.166Zm25.782,3.155a4.237,4.237,0,0,0-1.069.564,4.281,4.281,0,0,0,1.179-.272,4.237,4.237,0,0,0,1.069-.564A4.224,4.224,0,0,0,386.985,163.991Zm-20.134-.466a4.579,4.579,0,0,0-1.069.564,4.172,4.172,0,0,0,1.179-.272,4.127,4.127,0,0,0,1.069-.564,4.223,4.223,0,0,0-1.185.246Zm1.9-11.958a4.333,4.333,0,0,0-1.069.564,4.185,4.185,0,0,0,1.173-.272,3.938,3.938,0,0,0,1.069-.564,4.185,4.185,0,0,0-1.179.246Zm-10.805,3.751a4.334,4.334,0,0,0-1.069.564,4.6,4.6,0,0,0,2.248-.829,4.4,4.4,0,0,0-1.186.24Zm17.963,16.195a4.451,4.451,0,0,0-1.069.564,4.6,4.6,0,0,0,2.248-.829,4.217,4.217,0,0,0-1.186.266Zm-14.465,3.168a4.237,4.237,0,0,0-1.069.564,4.172,4.172,0,0,0,1.179-.272,4.126,4.126,0,0,0,1.069-.564,4.224,4.224,0,0,0-1.185.272Zm15.593-16.1a4.334,4.334,0,0,0-1.069.564,4.6,4.6,0,0,0,2.248-.829,4.164,4.164,0,0,0-1.185.266Z" transform="translate(-331.048 -119.001)"/><path class="e" d="M381.162,165.221a29.157,29.157,0,0,1-.758,4.3c-.318,1.438-.771,2.831-1.192,4.237h-.052c.369-1.412.648-2.857.946-4.288s.525-2.863.894-4.275C381,165.092,381.168,165.124,381.162,165.221Z" transform="translate(-339.314 -125.239)"/><path class="e" d="M373.082,154c-2.2-.544-4.431-.978-6.666-1.4s-4.47-.855-6.711-1.224c-1.3-.207-2.539-.421-3.816-.589,0,0-.045.052,0,.058,2.2.551,4.431.991,6.659,1.432s4.47.855,6.7,1.25c1.3.22,2.539.421,3.816.583C373.114,154.126,373.146,154.023,373.082,154Z" transform="translate(-331.111 -120.188)"/><path class="e" d="M392.139,180.948c.35-.311.738-.577,1.108-.862s.713-.564,1.075-.836l2.2-1.691c1.464-1.134,2.9-2.306,4.353-3.459.829-.648,1.645-1.3,2.462-2a.034.034,0,1,1,.045.052c-1,.939-2.008,1.866-3.045,2.76l.389-.188c.4-.2.79-.415,1.179-.648,0,0,.058.032,0,.052a10.364,10.364,0,0,1-1.14.7c-.194.1-.389.207-.589.3l-.292.123h0c-.233.2-.466.4-.706.6q-2.157,1.762-4.4,3.388-.648.447-1.263.875c-.447.292-.881.615-1.354.881A.039.039,0,0,1,392.139,180.948Z" transform="translate(-343.885 -127.692)"/><path class="e" d="M421.3,170.132l2.222-3.382,2.092,2.844-.855,2.513-2.371.052Z" transform="translate(-354.156 -125.809)"/><path class="e" d="M420.839,175.072l-3.939,26.19,4,9.231,3.608-9.516-1.3-25.957Z" transform="translate(-352.606 -128.722)"/><path class="q" d="M421.694,157.966c-2.313.557-6.31-2.954-7.9-5.83-.11-.194.181-2.267.408-4.807.136-1.542.246-3.239.24-4.839l9.9,2.339a24.948,24.948,0,0,0-.913,6.057,2.924,2.924,0,0,0,.071.648v.11C423.7,152.881,423.9,157.415,421.694,157.966Z" transform="translate(-351.505 -117.265)"/><path class="e" d="M415.84,142.77c.3,2.086,1.717,8.953,7.359,9.069a6.239,6.239,0,0,0,1.017-.058.829.829,0,0,1,0-.11,3.353,3.353,0,0,1-.078-.648,25.226,25.226,0,0,1,.92-6.057Z" transform="translate(-352.233 -117.363)"/><path class="q" d="M411.18,121.966c-.758,3.582,1.982,13.507,4.664,15.547,3.887,2.941,9.808,2.727,12.192-1.846,2.313-4.431-1.483-17.3-4.437-19.091C419.245,113.894,412.314,116.667,411.18,121.966Z" transform="translate(-350.547 -107.772)"/><path class="e" d="M424.749,134.54s-.045.045-.039.071c.2.648.324,1.458-.22,1.846v.032C425.216,136.185,425.047,135.136,424.749,134.54Z" transform="translate(-355.279 -114.465)"/><path class="e" d="M423.334,133.7c-1.095.207-.6,2.39.421,2.2S424.254,133.53,423.334,133.7Z" transform="translate(-354.655 -114.167)"/><path class="e" d="M431.11,132.993c0-.032.058,0,.065.045.13.68.4,1.438,1.062,1.522v.039C431.473,134.658,431.123,133.641,431.11,132.993Z" transform="translate(-357.611 -113.915)"/><path class="e" d="M431.543,131.661c1.069-.33,1.652,1.833.648,2.138S430.649,131.94,431.543,131.661Z" transform="translate(-357.604 -113.439)"/><path class="j" d="M421.6,131.514c.279-.143.512-.324.777-.492a1.52,1.52,0,0,0,.693-.648.466.466,0,0,0-.2-.538,1.16,1.16,0,0,0-1.179.143,1.736,1.736,0,0,0-.8.952.505.505,0,0,0,.712.583Z" transform="translate(-354.006 -112.773)"/><path class="j" d="M431.611,129.006a8.771,8.771,0,0,1-.92,0,1.438,1.438,0,0,1-.926-.207.473.473,0,0,1-.1-.57,1.172,1.172,0,0,1,1.088-.473,1.717,1.717,0,0,1,1.173.408.505.505,0,0,1-.311.842Z" transform="translate(-357.082 -112.072)"/><path class="e" d="M426.438,144.121c.2.123.408.3.648.266a1.749,1.749,0,0,0,.687-.337h.039a.939.939,0,0,1-.777.564.745.745,0,0,1-.648-.479C426.36,144.128,426.412,144.1,426.438,144.121Z" transform="translate(-355.945 -117.814)"/><path class="e" d="M426.838,136.431a2.352,2.352,0,0,0,1.775.648,2.876,2.876,0,0,0,.836-.149l.149-.052.149-.058a.175.175,0,0,0,.1-.181h0a.313.313,0,0,0,0-.071h0v-.058c-.1-.525-.337-1.3-.337-1.3.214.052,1.3.266,1.2,0a35.693,35.693,0,0,0-2.488-6.757.066.066,0,0,0-.123.045c.544,2.157,1.458,4.2,2.034,6.361a4.029,4.029,0,0,0-1.16-.078c-.071.039.473,1.5.505,1.736h0a3.239,3.239,0,0,1-2.552-.194C426.832,136.327,426.786,136.386,426.838,136.431Z" transform="translate(-356.099 -112.307)"/><path class="e" d="M429.049,141.181a2.837,2.837,0,0,1-.952,1.062,1.3,1.3,0,0,1-.738.181c-.577-.045-.648-.544-.648-.985a2.805,2.805,0,0,1,.123-.7A3.641,3.641,0,0,0,429.049,141.181Z" transform="translate(-356.061 -116.648)"/><path class="p" d="M428.1,142.616a1.3,1.3,0,0,1-.738.181c-.577-.045-.648-.544-.648-.985A1.3,1.3,0,0,1,428.1,142.616Z" transform="translate(-356.061 -117.022)"/><g class="s" transform="translate(66.943 13.928)"><path d="M424.591,127.04a8.514,8.514,0,0,0,1.069-.162c.356-.091.687-.253,1.043-.337a5.979,5.979,0,0,1,2.066,0c.058,0,.058.045,0,.039a5.059,5.059,0,0,0-2.157.175,6.42,6.42,0,0,1-1.736.421,6.478,6.478,0,0,0-3.8,1.257h0a6.439,6.439,0,0,1,3.511-1.393Z" transform="translate(-421.022 -125.544)"/><path d="M424.326,125.6a6.755,6.755,0,0,0,1.017-.149c.337-.084.648-.24.991-.317a5.662,5.662,0,0,1,1.943,0c.058,0,.058.045,0,.039a4.955,4.955,0,0,0-2.047.168,5.985,5.985,0,0,1-1.645.4,6.141,6.141,0,0,0-3.6,1.2h0A6.161,6.161,0,0,1,424.326,125.6Z" transform="translate(-420.99 -125.05)"/></g><path class="j" d="M411.047,128.318s-3.472-5.72-3.148-9.03c.143-1.5,2.177-2.5,2.177-2.5a3.382,3.382,0,0,1,1.069-3.4c1.768-1.665,6.05-1.3,6.05-1.3s2.773-4.01,6.7-2.423,1.373,6.037,1.373,6.037,1.438,2.047-2.079,3.647-10.43.032-10.43.032a24.326,24.326,0,0,1-.1,7.255,2.228,2.228,0,0,1-1.607,1.678Z" transform="translate(-349.428 -105.574)"/><path class="j" d="M418.848,113.417a6.815,6.815,0,0,0-2.76-.5,7.379,7.379,0,0,0-2.488.389,4.126,4.126,0,0,0-2.909,3.1,2.889,2.889,0,0,0,.551,2.17h.039a3.01,3.01,0,0,1,.505-3.816,6.258,6.258,0,0,1,4.139-1.535,12.425,12.425,0,0,1,2.9.3C418.881,113.514,418.9,113.443,418.848,113.417Z" transform="translate(-350.408 -106.849)"/><path class="j" d="M432,111.492a3.362,3.362,0,0,0-2.332-2.138,5.72,5.72,0,0,0-3.718.13,7.314,7.314,0,0,0-3.038,2.254s0,.052.039,0a6.348,6.348,0,0,1,6.07-2.261,3.109,3.109,0,0,1,2.429,4.632,6.478,6.478,0,0,1-2.52,2.533v.039a6.724,6.724,0,0,0,2.513-2.151,3.789,3.789,0,0,0,.557-3.038Z" transform="translate(-354.723 -105.506)"/><path class="q" d="M413.276,136.639s-2.63-3.006-4.023-2.034.842,5.506,2.643,5.96a1.768,1.768,0,0,0,2.261-1.2Z" transform="translate(-349.759 -114.419)"/><path class="e" d="M410.53,136.69v.045a4.345,4.345,0,0,1,2.591,2.539.991.991,0,0,0-1.49-.11.04.04,0,1,0,.045.065,1.082,1.082,0,0,1,1.231.246,5.182,5.182,0,0,1,.648.907c.065.1.259,0,.2-.1h0C413.652,138.7,412.208,136.664,410.53,136.69Z" transform="translate(-350.363 -115.222)"/><path class="k" d="M422.706,136.69a3.058,3.058,0,1,1,2.429-4.172h0a3.058,3.058,0,0,1-1.7,3.977,3.3,3.3,0,0,1-.732.194Zm-.751-5.662a2.934,2.934,0,0,0-.648.168,2.643,2.643,0,1,0,.648-.168Z" transform="translate(-353.43 -113.077)"/><path class="k" d="M433.5,133.987c-1.16.155-2.371-.894-2.766-2.436a3.673,3.673,0,0,1,.1-2.235,1.9,1.9,0,0,1,3.155-.8,3.55,3.55,0,0,1,1.153,1.943c.415,1.632-.233,3.239-1.451,3.518A1.029,1.029,0,0,1,433.5,133.987Zm-1.056-5.591h-.155a1.645,1.645,0,0,0-1.075,1.049,3.278,3.278,0,0,0-.084,1.976c.363,1.419,1.464,2.364,2.462,2.105s1.522-1.607,1.16-3.025a3.239,3.239,0,0,0-1.017-1.7,1.658,1.658,0,0,0-1.289-.408Z" transform="translate(-357.433 -112.15)"/><path class="k" d="M428.147,133.513l-.337-.24c.356-.492,1.263-1.263,2.183-.648l-.22.343C428.95,132.419,428.179,133.468,428.147,133.513Z" transform="translate(-356.449 -113.71)"/><path class="k" d="M408.035,138.561l-.4-.091c.039-.188.441-1.82,1.3-2.19s6.232-1.2,6.478-1.231l.065.4c-1.561.246-5.746.933-6.361,1.2S408.139,138.114,408.035,138.561Z" transform="translate(-349.345 -114.644)"/><path class="a" d="M422.4,155.144l-2.766,5.675L412.919,153l-2.209,2.222s6.264,12.166,6.342,11.66l2.74-4.846,3.239,3.725.317-8.771Z" transform="translate(-350.426 -120.966)"/><path class="e" d="M423.567,162.9c0-1.451.052-2.909,0-4.36a.049.049,0,0,0-.1,0c-.382,1.373-.376,6.918-.473,8.24h0c-.13-.155-2.993-3.284-3.025-3.239-.577.758-2.591,4.288-2.727,4.612-.985-1.943-4.807-8.972-6.005-10.818a.052.052,0,0,0-.091.045c.849,2.028,5.895,11.5,5.979,11.479A56.432,56.432,0,0,0,420,163.74a40.674,40.674,0,0,0,3.362,3.958A46.651,46.651,0,0,0,423.567,162.9Z" transform="translate(-350.58 -122.488)"/><path class="q" d="M451.682,217.058c-2.377,3.394-8.849,4.049-24.979,7.2-2.235.44-9.561-14.485-7.2-15.074,2.973-.745,14.673-2.98,15.547-3.038C442.437,205.657,453.295,214.726,451.682,217.058Z" transform="translate(-353.359 -139.679)"/><path class="q" d="M412.053,209.67s-6.841,1.036-10.261,2.688a24.449,24.449,0,0,0-8.81,7.683c-2.462,3.485-6.012,13.6-3.271,15.146,2.481,1.386,5.584-9.147,5.584-9.147s-4.936,10.216-1.645,11.336,6.2-11.3,6.2-11.3-4.839,10.617-1.263,11.233c2.708.466,5.973-10.65,5.973-10.65s-4.094,9.153-1.334,9.756c3.051.648,6.711-9.412,6.711-9.412,7.268.343,10.87-2.468,13.2-4.774C423.694,221.654,412.053,209.67,412.053,209.67Z" transform="translate(-342.681 -140.926)"/><path class="e" d="M398.84,229.3a37.117,37.117,0,0,0-1.775,3.6c-.512,1.231-.991,2.481-1.393,3.751a23.113,23.113,0,0,0-1.082,5.1,49.027,49.027,0,0,1,2.818-8.726c.518-1.231.965-2.488,1.483-3.712C398.9,229.29,398.859,229.277,398.84,229.3Z" transform="translate(-344.748 -147.835)"/><path class="e" d="M405.957,232.05c-.732,1.542-1.516,3.045-2.177,4.619s-1.147,3.109-1.7,4.716c-.045.123.039.1.084,0,.615-1.581,1.3-3,1.943-4.573s1.2-3.181,1.892-4.729C406,232.044,405.963,232.012,405.957,232.05Z" transform="translate(-347.383 -148.802)"/><path class="e" d="M412.911,233.348a37.651,37.651,0,0,0-2.786,7.314c-.039.123.065.091.1-.039.881-2.449,1.555-4.373,2.76-7.236C413.008,233.348,412.937,233.3,412.911,233.348Z" transform="translate(-350.217 -149.258)"/><path class="d" d="M422.54,208.4l14.135,15.761s14.3-3.278,16.4-6.944c1.386-2.416-9.38-12.192-17.491-11.051Z" transform="translate(-354.593 -139.661)"/><path class="r" d="M435.665,219.018a4.187,4.187,0,0,1-.356,1.153,4.05,4.05,0,0,1-.648,1.024,4.27,4.27,0,0,1,.356-1.153,4.445,4.445,0,0,1,.648-1.024Zm9.821-.887a4.382,4.382,0,0,0-.356,1.16,4.2,4.2,0,0,0,.648-1.03,4.276,4.276,0,0,0,.363-1.153,4.394,4.394,0,0,0-.654,1.023Zm-7-3.3a4.048,4.048,0,0,0-1.153-.356,4.657,4.657,0,0,0,2.177,1A4.238,4.238,0,0,0,438.483,214.827Zm7-4.334a4.235,4.235,0,0,0,.564,1.069,4.69,4.69,0,0,0-.836-2.248A4.224,4.224,0,0,0,445.486,210.493Zm-14.3,3.407a4.036,4.036,0,0,0,.564,1.069,4.69,4.69,0,0,0-.836-2.248A4.224,4.224,0,0,0,431.189,213.9Zm-5.83-3.731a4.332,4.332,0,0,0,1.069-.564,4.218,4.218,0,0,0-1.179.266,4.45,4.45,0,0,0-1.069.564A4.217,4.217,0,0,0,425.359,210.169Zm12.036-1.3a4.333,4.333,0,0,0,1.069-.564,4.268,4.268,0,0,0-1.179.266,4.579,4.579,0,0,0-1.069.564,4.407,4.407,0,0,0,1.166-.272Zm4.457,13.837a4.238,4.238,0,0,0,1.069-.564,4.171,4.171,0,0,0-1.179.272,4.125,4.125,0,0,0-1.069.564,4.283,4.283,0,0,0,1.166-.279Zm10.624-7.851a4.864,4.864,0,0,0-.849.24,4.236,4.236,0,0,0-1.069.564,4.473,4.473,0,0,0,1.179-.272,4.16,4.16,0,0,0,.836-.408Z" transform="translate(-355.17 -140.447)"/><path class="e" d="M452.321,208.689A14.083,14.083,0,0,0,442.6,206.1c-.039,0-.039.071,0,.071a23.081,23.081,0,0,1,9.678,2.559C452.328,208.774,452.36,208.715,452.321,208.689Z" transform="translate(-361.649 -139.641)"/><path class="e" d="M443.74,222.666c-1.464-1.814-3.019-3.543-4.586-5.273s-3.122-3.466-4.729-5.182c-.907-.952-1.807-1.943-2.747-2.837a.032.032,0,1,0-.052.039c1.464,1.807,3.012,3.55,4.535,5.286s3.122,3.472,4.71,5.182c.894.965,1.807,1.943,2.747,2.844C443.695,222.789,443.779,222.731,443.74,222.666Z" transform="translate(-357.79 -140.817)"/><path class="e" d="M422.447,208.187a19.391,19.391,0,0,1,2.65-.609c.887-.162,1.788-.317,2.682-.46a54.718,54.718,0,0,1,8.817-1.088c.039,0-.149.181-.188.175-1.568-.084-12.794,2.151-13.714,2.215.032.065.071.123.1.188a.053.053,0,0,1-.078.071c-.117-.078-.194-.175-.3-.259a.13.13,0,0,1,.039-.233Z" transform="translate(-354.526 -139.644)"/></g><g transform="translate(200.701 169.058)"><path class="e" d="M297.943,260.614l2.714,6.569-2.714,1.127-2.734-6.614-4.489,3.485v-18.5l12.949,13.086Z" transform="translate(-285.44 -241.77)"/><path class="e" d="M290.823,241.555a2.266,2.266,0,0,1-.324-1.231,2.235,2.235,0,0,1,.324-1.224,2.346,2.346,0,0,1,.324,1.224A2.384,2.384,0,0,1,290.823,241.555Z" transform="translate(-285.362 -239.1)"/><path class="e" d="M286.759,243.293a2.306,2.306,0,0,1-1.1-.648,2.274,2.274,0,0,1-.648-1.095,2.274,2.274,0,0,1,1.095.648A2.358,2.358,0,0,1,286.759,243.293Z" transform="translate(-283.429 -239.963)"/><path class="e" d="M285.025,247.323a2.384,2.384,0,0,1-1.231.324,2.345,2.345,0,0,1-1.224-.324,2.235,2.235,0,0,1,1.224-.324,2.326,2.326,0,0,1,1.231.324Z" transform="translate(-282.57 -241.882)"/><path class="e" d="M286.763,250.76a2.371,2.371,0,0,1-.648,1.095,2.287,2.287,0,0,1-1.095.648,2.248,2.248,0,0,1,.648-1.095,2.306,2.306,0,0,1,1.095-.648Z" transform="translate(-283.433 -243.207)"/><path class="e" d="M295.58,247.323A2.287,2.287,0,0,1,296.8,247a2.255,2.255,0,0,1,1.231.324,2.488,2.488,0,0,1-2.455,0Z" transform="translate(-287.152 -241.882)"/><path class="e" d="M294.23,243.289a2.352,2.352,0,0,1,.648-1.1,2.293,2.293,0,0,1,1.1-.648,2.286,2.286,0,0,1-.648,1.095,2.313,2.313,0,0,1-1.1.654Z" transform="translate(-286.677 -239.959)"/></g><g transform="translate(51.556 176.831)"><path class="d" d="M91.693,308.994a43.494,43.494,0,0,0-1.406,7.974c.071.136.058.648,0,.492,0,.434-.648.356-.648-.071v-.842c-1.555-1.943-3.816-3.155-5.649-4.839a10.546,10.546,0,0,1-3.09-4.923c-1.516-5.228-.1-10.76-1.943-15.975-1.568-4.5-4.386-8.421-6.776-12.47-2.52-4.308-4.373-8.829-4.535-13.876-.149-3.887.311-9,3.239-11.9,3.116-3.071,6.983-.771,9.374,1.943,6.918,7.942,10.119,17.983,11.414,28.244a112.439,112.439,0,0,1,1.3,17.128,46.15,46.15,0,0,1-1.276,9.115Z" transform="translate(-57.72 -251.099)"/><path class="e" d="M94.227,326.626a97.4,97.4,0,0,0-.188-16.091v-.058c.084-4.353.434-8.687.259-13.04a77.128,77.128,0,0,0-1.943-13.986c0-.052-.1-.039-.084,0a91.429,91.429,0,0,1,1.509,13.675q.136,3.692-.058,7.378c-.039.8-.117,1.6-.168,2.4h0A86.1,86.1,0,0,0,80.6,272.658c-.091-.143-.343,0-.253.155a89.6,89.6,0,0,1,10.533,25.394c-3.33-6.167-8.357-11.233-12.081-17.16,0,0-.078,0-.058.032,3.407,6.608,8.959,11.809,12.477,18.339q.92,3.978,1.49,8.013a90.188,90.188,0,0,1,.8,11.129,127.514,127.514,0,0,1-5.791-11.421c-.045-.11-.2-.032-.162.071a44.719,44.719,0,0,0,5.96,12.2c0,2.637-.058,5.273-.214,7.9-.415,7.029-1.62,13.96-2.17,20.963a.162.162,0,0,0,.317.032,160.079,160.079,0,0,0,2.779-21.682Z" transform="translate(-61.634 -258.672)"/><path class="e" d="M91.087,272.34c0-.045-.091,0-.078.039a110.384,110.384,0,0,1,2.941,10.779.147.147,0,1,0,.292-.032A39.756,39.756,0,0,0,91.087,272.34Z" transform="translate(-65.957 -258.574)"/><path class="d" d="M127.649,293.126a52.394,52.394,0,0,1-2.954,6.063c-2.306,4.2-4.716,8.046-5.182,12.956a30.282,30.282,0,0,1-.926,6.478A19.389,19.389,0,0,1,116,323.689c-2.5,3.654-5.636,6.8-7.955,10.579a44.511,44.511,0,0,0-5.286,12.749c-.058.246-.441.181-.389-.065a.155.155,0,0,0,0-.058.058.058,0,0,1,0-.052c-.369-10.475.466-21.034,3.667-31.094a107.823,107.823,0,0,1,5.079-12.956,30.669,30.669,0,0,1,6.847-9.859c1.943-1.756,6.18-5.085,8.959-3.323C128.271,290.483,128.174,291.824,127.649,293.126Z" transform="translate(-69.928 -264.486)"/><path class="e" d="M115.69,321.795a86.848,86.848,0,0,1-6.089,8.752c-1.017,1.328-2.047,2.637-3.058,3.965-.479.648-1.017,1.25-1.458,1.943.279-1.1.551-2.2.829-3.3a130.042,130.042,0,0,1,4.664-15.729,106.2,106.2,0,0,1,7.275-14.252c.071-.123-.123-.207-.194-.091-2.215,3.641-4.463,7.275-6.323,11.116a56.923,56.923,0,0,0-2.682,6.595,102.354,102.354,0,0,1,3.569-14.1c0-.039-.045-.071-.065,0a48.229,48.229,0,0,0-3.718,14.595h0c-.453,1.36-.868,2.734-1.257,4.12-1.652,5.863-3.1,11.783-4.444,17.73a62.836,62.836,0,0,1,1.011-11.66.071.071,0,0,0-.136,0,36.821,36.821,0,0,0-1.017,12.308q-.758,3.394-1.483,6.782c-1.03,4.833-2.293,9.749-2.9,14.653a.1.1,0,1,0,.194.032c.719-2.643,1.153-5.383,1.736-8.059s1.2-5.37,1.827-8.046c.907-3.887,1.859-7.774,2.831-11.66a21.016,21.016,0,0,1,2.844-3.887c1.03-1.3,2.066-2.591,3.071-3.952a59.55,59.55,0,0,0,5.04-7.774C115.813,321.795,115.723,321.723,115.69,321.795Z" transform="translate(-68.496 -269.387)"/><path class="e" d="M122.64,325.052a54.514,54.514,0,0,0-5.96,9.471c0,.039.045.084.071.045,2-3.142,3.977-6.31,5.979-9.458C122.763,325.059,122.672,325.013,122.64,325.052Z" transform="translate(-74.998 -277.141)"/><path class="d" d="M55.357,304.245c1.36,2.339,2.909,5.143,2.326,7.955-.369,1.775-1.671,3.239-1.9,5.033-.525,4,3.466,6.646,6.348,8.538,7.2,4.722,17.063,8.927,18.372,18.566.045.343.648.259.6-.078a.286.286,0,0,0,0-.065v-.052a36.827,36.827,0,0,0-.136-14.724,46.766,46.766,0,0,0-5.8-13.8c-4.327-7.385-8.914-14.951-15.463-20.613-1.749-1.548-5.493-4.379-6.931-.842C51.36,297.6,53.712,301.394,55.357,304.245Z" transform="translate(-52.336 -265.668)"/><path class="e" d="M67.151,329.267c4.768,5.182,12.354,8.059,16.461,13.843A58.016,58.016,0,0,0,70.96,319.349a.188.188,0,0,1,.266-.259A46.835,46.835,0,0,1,81.59,334.06a67.248,67.248,0,0,0-4.45-11.388.123.123,0,1,1,.214-.123,43.4,43.4,0,0,1,4.794,12.8c5.409,13.1,5.914,28.458,4.781,42.262,0,.194-.317.2-.311,0,.311-10.877.136-21.947-2.475-32.571-.052-.227-.117-.441-.168-.648-4.47-6.232-12.017-9.115-16.843-15.029C67.028,329.293,67.1,329.215,67.151,329.267Z" transform="translate(-57.528 -275.033)"/><path class="e" d="M65.392,327.979c2.507,2.293,4.969,4.645,7.476,6.944v.045a36.51,36.51,0,0,1-7.592-6.841C65.158,328.011,65.288,327.868,65.392,327.979Z" transform="translate(-56.877 -278.163)"/><path class="e" d="M64.792,312.59a77.922,77.922,0,0,0,7.5,10.306c0,.045,0,.1-.065.065a36.173,36.173,0,0,1-7.566-10.294C64.617,312.584,64.74,312.506,64.792,312.59Z" transform="translate(-56.673 -272.744)"/><path class="k" d="M82.27,408.437H104.2L101.25,378.93h-15.6Z" transform="translate(-62.879 -296.122)"/><path class="e" d="M86.64,383.724h16.629l-.479-4.794h-15.6Z" transform="translate(-64.418 -296.122)"/><rect class="k" width="20.561" height="4.709" transform="translate(40.645 84.246) rotate(180)"/></g></g></svg>