<svg xmlns="http://www.w3.org/2000/svg" width="50" height="50" viewBox="0 0 50 50"><defs><style>.a{fill:#227178;}</style></defs><path class="a" d="M50,25a5.826,5.826,0,0,0-5-5.767V15.345l2.256-2.256a.833.833,0,1,0-1.178-1.178L45,12.988V8.333A3.337,3.337,0,0,0,41.667,5h-7.5V1.667A1.669,1.669,0,0,0,32.5,0h-15a1.669,1.669,0,0,0-1.667,1.667V5h-7.5A3.337,3.337,0,0,0,5,8.333v3.822L2.744,14.411a.833.833,0,0,0,1.178,1.178L5,14.512v4.722A5.826,5.826,0,0,0,5,30.767v3.888L2.744,36.911a.833.833,0,0,0,1.178,1.178L5,37.012v4.655A3.337,3.337,0,0,0,8.333,45H19.655l4.756,4.756a.833.833,0,0,0,1.178,0L30.345,45H41.667A3.337,3.337,0,0,0,45,41.667V37.845l2.256-2.256a.833.833,0,0,0-1.178-1.178L45,35.488V30.767A5.826,5.826,0,0,0,50,25ZM17.5,1.667h15V10h-15ZM5.833,29.167A4.167,4.167,0,1,1,10,25,4.167,4.167,0,0,1,5.833,29.167ZM25,47.988l-3.822-3.822L25,40.345l3.822,3.822Zm18.333-12.5-1.077-1.077a.833.833,0,0,0-1.178,1.178l2.256,2.256v3.822a1.669,1.669,0,0,1-1.667,1.667H30.345l-4.756-4.756a.833.833,0,0,0-1.178,0l-4.756,4.756H8.333a1.669,1.669,0,0,1-1.667-1.667V37.012l1.078,1.078a.833.833,0,1,0,1.178-1.178L6.667,34.655V30.767a5.826,5.826,0,0,0,0-11.534V14.512l1.078,1.078a.833.833,0,0,0,1.178-1.178L6.667,12.155V8.333A1.669,1.669,0,0,1,8.333,6.667h7.5V10A1.669,1.669,0,0,0,17.5,11.667h15A1.669,1.669,0,0,0,34.167,10V6.667h7.5a1.669,1.669,0,0,1,1.667,1.667v4.655l-1.078-1.078a.833.833,0,0,0-1.178,1.178l2.256,2.256v3.888a5.826,5.826,0,0,0,0,11.534v4.721Zm.833-6.322A4.167,4.167,0,1,1,48.333,25,4.167,4.167,0,0,1,44.167,29.167Z"/><path class="a" d="M164.661,146.09a3.333,3.333,0,0,0-4.713,0l-.569.568h0l-2.335,2.336L146.53,159.508c-.017.017-.024.041-.04.059a.851.851,0,0,0-.157.291.749.749,0,0,0-.031.075l-1.168,5.841a.833.833,0,0,0,.981.981l5.841-1.168c.026-.005.045-.022.069-.029a.883.883,0,0,0,.293-.157c.02-.017.045-.023.063-.042l10.513-10.513,2.335-2.335h0l.569-.569a3.338,3.338,0,0,0,0-4.714Zm-7.029,4.672,1.157,1.158-9.335,9.335L148.3,160.1Zm-10.619,14.113.618-3.088,2.471,2.471Zm4.779-1.284-1.158-1.158,9.334-9.335,1.158,1.158ZM162.3,153.078l-1.747-1.747-1.747-1.747,1.157-1.158,3.143,3.142.352.352Zm2.337-2.336-3.494-3.494a1.7,1.7,0,0,1,2.336.02h0l1.138,1.137A1.669,1.669,0,0,1,164.641,150.741Z" transform="translate(-130.946 -130.942)"/></svg>