<svg xmlns="http://www.w3.org/2000/svg" width="49.999" height="50" viewBox="0 0 49.999 50"><defs><style>.a{fill:#227178;}</style></defs><g transform="translate(-0.004 0)"><path class="a" d="M34.97,113.867a.833.833,0,0,0,.833-.834V94.7a.833.833,0,0,0-1.667,0v18.333A.833.833,0,0,0,34.97,113.867Zm0,0" transform="translate(-30.799 -84.701)"/><path class="a" d="M34.97,46a.833.833,0,0,0,.833-.833V43.5a.833.833,0,0,0-1.667,0v1.667A.833.833,0,0,0,34.97,46Zm0,0" transform="translate(-30.799 -38.502)"/><path class="a" d="M225.2,170.668A3.333,3.333,0,1,0,228.538,174,3.333,3.333,0,0,0,225.2,170.668Zm0,5A1.667,1.667,0,1,1,226.871,174,1.667,1.667,0,0,1,225.2,175.668Zm0,0" transform="translate(-200.201 -154.002)"/><path class="a" d="M165.09,105.016h-1.542a8.479,8.479,0,0,0-.929-1.608l.77-1.336a1.677,1.677,0,0,0-.621-2.268l-2.877-1.659a1.646,1.646,0,0,0-1.26-.175,1.675,1.675,0,0,0-1.02.774l-.771,1.331a8.245,8.245,0,0,0-1.858,0l-.766-1.328a1.669,1.669,0,0,0-2.277-.61L149.051,99.8a1.669,1.669,0,0,0-.611,2.277l.767,1.328a8.3,8.3,0,0,0-.93,1.609l-1.54,0a1.677,1.677,0,0,0-1.179.5,1.638,1.638,0,0,0-.478,1.17l0,3.327a1.679,1.679,0,0,0,1.664,1.675h1.532a8.483,8.483,0,0,0,.928,1.608l-.771,1.337a1.677,1.677,0,0,0,.623,2.267l2.876,1.658a1.647,1.647,0,0,0,1.261.175,1.676,1.676,0,0,0,1.021-.774l.771-1.331a8.228,8.228,0,0,0,1.858,0l.766,1.328a1.656,1.656,0,0,0,1.012.776,1.678,1.678,0,0,0,.435.058,1.652,1.652,0,0,0,.829-.223l2.886-1.667a1.669,1.669,0,0,0,.611-2.277l-.766-1.328a8.284,8.284,0,0,0,.929-1.609l1.54,0a1.674,1.674,0,0,0,1.179-.5,1.64,1.64,0,0,0,.479-1.169l0-3.327a1.677,1.677,0,0,0-1.653-1.676Zm-2.116,5.006a.834.834,0,0,0-.786.561,6.562,6.562,0,0,1-1.212,2.1.834.834,0,0,0-.089.959l1.05,1.818-2.887,1.667L158,115.305a.834.834,0,0,0-.875-.4,6.591,6.591,0,0,1-2.423,0,.831.831,0,0,0-.878.4l-1.054,1.817-2.891-1.664,1.049-1.818a.833.833,0,0,0-.09-.96,6.7,6.7,0,0,1-1.211-2.1.833.833,0,0,0-.786-.558l-2.1-.006,0-3.331,2.106,0a.833.833,0,0,0,.786-.561,6.552,6.552,0,0,1,1.212-2.1.834.834,0,0,0,.089-.959l-1.05-1.818,2.887-1.667,1.05,1.819a.83.83,0,0,0,.875.4,6.551,6.551,0,0,1,2.423,0,.833.833,0,0,0,.878-.4l1.054-1.818,2.89,1.665-1.049,1.818a.834.834,0,0,0,.09.96,6.7,6.7,0,0,1,1.212,2.1.834.834,0,0,0,.786.558h2.1l0,3.336Zm0,0" transform="translate(-130.907 -88.353)"/><path class="a" d="M50,8.985a4.987,4.987,0,0,0-5-4.819H11.671v-2.5A1.668,1.668,0,0,0,10,0H5A4.987,4.987,0,0,0,0,5V40.835a5.172,5.172,0,0,0,4.933,4.983c.023,0,.043.014.066.014h.575l1.233,2.7a2.493,2.493,0,0,0,.221.383c.027.039.056.074.085.112a2.468,2.468,0,0,0,.2.228c.035.035.069.071.106.1a2.508,2.508,0,0,0,.329.251c.026.016.054.028.081.043a2.44,2.44,0,0,0,.312.153c.022.009.042.023.064.031s.056.014.084.023a2.5,2.5,0,0,0,.246.068c.051.012.1.025.153.034a2.494,2.494,0,0,0,.32.029c.024,0,.049.006.073.006a2.489,2.489,0,0,0,1.036-.227l8.64-3.941H38.337v2.5A1.668,1.668,0,0,0,40,50h5a5.005,5.005,0,0,0,5-5V9.166c0-.01-.005-.018-.006-.028,0-.051,0-.1,0-.153ZM2.64,2.642A3.345,3.345,0,0,1,5,1.666h5V35.833H5a5,5,0,0,0-3.333,1.276V5A3.34,3.34,0,0,1,2.64,2.642ZM30.506,38.234l-1.765-3.869,5.335-.352.169.447ZM27.07,34.717l.692,1.517-5.307,2.421a.833.833,0,1,0,.692,1.516l5.307-2.421.692,1.517L18.262,44.23l-.015.007-4.265,1.946-.692-1.517L19.356,41.9a.833.833,0,0,0-.692-1.516L12.6,43.149l-.692-1.516ZM9.433,48.257a.833.833,0,0,1-1.1-.412L6.946,44.812a.834.834,0,0,1,.412-1.1l3.033-1.384L11.428,44.6h0l1.037,2.274Zm12.985-4.091,8.177-3.73a.768.768,0,0,0,.118-.085.8.8,0,0,0,.129-.086l4.564-4.608a1.664,1.664,0,0,0,.381-1.912l-.193-.423a1.655,1.655,0,0,0-1.66-.97l-6.505.428a.822.822,0,0,0-.262.067c-.01,0-.02,0-.029.007L6.666,42.192a2.492,2.492,0,0,0-1.435,1.974H5.2a3.493,3.493,0,0,1-3.533-3.333v-.121A3.324,3.324,0,0,1,5,37.5h5a1.668,1.668,0,0,0,1.667-1.667v-30H45a3.321,3.321,0,0,1,3.332,3.212,3.2,3.2,0,0,1-.928,2.342A3.644,3.644,0,0,1,44.8,12.5H40a1.668,1.668,0,0,0-1.667,1.667v30ZM45,48.332H40V14.166h4.8A5.31,5.31,0,0,0,48.337,12.8V45A3.337,3.337,0,0,1,45,48.332Zm0,0" transform="translate(0 0)"/></g></svg>