<svg xmlns="http://www.w3.org/2000/svg" width="1473.001" height="1045.001" viewBox="0 0 1473.001 1045.001"><defs><style>.a{fill:#207178;}</style></defs><path class="a" d="M-4660.686,1158.791H-4661a183.461,183.461,0,0,1-38.12-3.972c-46.605,35.866-107.173,57.532-173.38,57.532-69.9,0-133.521-24.157-181.055-63.672-47.521,39.459-111.1,63.583-180.946,63.583-87.8,0-165.69-38.111-214.244-96.906a158.827,158.827,0,0,1-34.255,3.706c-78.977,0-143-57.46-143-128.341,0-.074,0-.148,0-.222s0-.148,0-.222c0-65.976,55.462-120.323,126.828-127.529A217.089,217.089,0,0,1-5516,778.919c0-90.695,56.252-169.6,139.144-210.153-.095-2.632-.143-5.285-.143-7.937,0-132.1,119.314-239.181,266.5-239.181a289.322,289.322,0,0,1,129.006,29.841c25.853-51.462,83.511-87.28,150.493-87.28,49.034,0,93.072,19.2,123.293,49.671C-4673.035,244.4-4595.317,196-4505,196c122.606,0,222,89.2,222,199.243a181.227,181.227,0,0,1-17.58,77.836A130.546,130.546,0,0,1-4218,594.5a129.9,129.9,0,0,1-20.489,70.227A150.519,150.519,0,0,1-4153,800.5a150.526,150.526,0,0,1-131.036,149.253A182.238,182.238,0,0,1-4259,1041.758C-4259,1151.8-4358.394,1241-4481,1241-4554.883,1241-4620.331,1208.615-4660.686,1158.791Z" transform="translate(5626.001 -196)"/></svg>