<svg id="Komponente_52_19" data-name="Komponente 52 – 19" xmlns="http://www.w3.org/2000/svg" width="83.001" height="128.653" viewBox="0 0 83.001 128.653">
  <ellipse id="freepik--shadow--inject-1--inject-15" cx="38.48" cy="13.216" rx="38.48" ry="13.216" transform="translate(3 102.222)" fill="#E6E6E6" opacity="0.67"/>
  <g id="Gruppe_6662" data-name="Gruppe 6662" transform="translate(-823 -1301)">
    <path id="Vereinigungsmenge_17" data-name="Vereinigungsmenge 17" d="M-9744.405,74H-9767a7,7,0,0,1-7-7V7a7,7,0,0,1,7-7h69a7,7,0,0,1,7,7V67a7,7,0,0,1-7,7h-22.6l-11.9,20Z" transform="translate(10597 1301)" fill="#F3D516"/>
    <g id="bitcoin" transform="translate(834.856 1308.24)">
      <g id="Gruppe_6999" data-name="Gruppe 6999" transform="translate(0 0)">
        <g id="Gruppe_6998" data-name="Gruppe 6998">
          <path id="Pfad_8337" data-name="Pfad 8337" d="M29.475,0A29.452,29.452,0,1,0,58.9,29.452,29.451,29.451,0,0,0,29.475,0Zm-.046,54A24.551,24.551,0,1,1,53.98,29.452,24.551,24.551,0,0,1,29.429,54Z" transform="translate(0 0)" fill="#F8F8F8"/>
        </g>
      </g>
      <g id="Gruppe_7001" data-name="Gruppe 7001" transform="translate(17.302 12.264)">
        <g id="Gruppe_7000" data-name="Gruppe 7000">
          <path id="Pfad_8338" data-name="Pfad 8338" d="M170.473,122.353a5.381,5.381,0,0,0,2.667-5.562c-.456-3.442-4.559-4.742-7.8-5.015V106.6h-3.191v5.129H160.01V106.6h-3.191v5.129H150.39v3.305h2.394c1.071,0,1.6.319,1.6,1.185v14.2c0,1.185-.593,1.55-1.231,1.55h-2.439v3.374h6.2v5.243h3.214v-5.243h2.143v5.243h3.123v-5.243h.684c6.565,0,8.754-3.214,8.754-7.591A5.676,5.676,0,0,0,170.473,122.353Zm-10.463-7.112h2.28c1.6,0,4.742.274,4.742,2.872a3.215,3.215,0,0,1-2.8,3.4H160.01S160.01,115.241,160.01,115.241Zm3.533,16.413v-.023H160.01v-6.839h4.1c.957,0,4.559.319,4.559,2.872S166.963,131.654,163.543,131.654Z" transform="translate(-150.39 -106.601)" fill="#F8F8F8"/>
        </g>
      </g>
    </g>
  </g>
</svg>