<svg xmlns="http://www.w3.org/2000/svg" width="83.001" height="128.653" xmlns:v="https://vecta.io/nano"><ellipse cx="41.48" cy="115.438" rx="38.48" ry="13.216" fill="#e6e6e6" opacity=".67"/><path d="M29.595 74H7a7 7 0 0 1-7-7V7a7 7 0 0 1 7-7h69a7 7 0 0 1 7 7v60a7 7 0 0 1-7 7H53.4L41.5 94z" fill="#f3d516"/><path d="M41.331 7.24c-11.915-.011-22.662 7.158-27.229 18.162s-2.054 23.677 6.367 32.106 21.091 10.954 32.1 6.397 18.187-15.298 18.187-27.213C70.757 20.436 57.587 7.254 41.331 7.24zm-.046 54a24.55 24.55 0 1 1 24.551-24.548C65.834 50.25 54.843 61.24 41.285 61.24zm7.956-25.984a5.38 5.38 0 0 0 2.667-5.562c-.456-3.442-4.559-4.742-7.8-5.015v-5.176h-3.191v5.129h-2.139v-5.129h-3.191v5.129h-6.429v3.305h2.394c1.071 0 1.6.319 1.6 1.185v14.2c0 1.185-.593 1.55-1.231 1.55h-2.439v3.374h6.2v5.243h3.214v-5.243h2.143v5.243h3.123v-5.243h.684c6.565 0 8.754-3.214 8.754-7.591-.056-2.582-1.847-4.8-4.359-5.399zm-10.463-7.112h2.28c1.6 0 4.742.274 4.742 2.872.111 1.695-1.115 3.184-2.8 3.4h-4.222v-6.272zm3.533 16.413v-.023h-3.533v-6.839h4.1c.957 0 4.559.319 4.559 2.872s-1.706 3.99-5.126 3.99z" fill="#f8f8f8"/></svg>