<svg xmlns="http://www.w3.org/2000/svg" height="512" viewBox="0 0 58 58" width="512" xmlns:v="https://vecta.io/nano"><path d="m18 44h8v12h-8z" fill="#805333"/><path d="M33 29a16 16 0 0 0 7.01 9.86l-.01 6.8c-.577.192-1.182.287-1.79.28-1.73.021-3.441-.359-5-1.11l-2.26 1.08A13.95 13.95 0 0 1 29.32 50h-3.91A21.76 21.76 0 0 1 22 45.94C19.68 49.57 15 50 15 50c-1.91-2-1.56-2.37-1.95-4.09l-2.26-1.08a10.74 10.74 0 0 1-2.79.91L1.53 44A7.73 7.73 0 0 1 0 41.09C5.63 38.56 11 33 12 29z" fill="#33907c"/><path d="M29 19.354c2.58 4.75 6.622 8.543 11.526 10.817a5.73 5.73 0 0 1-5.291 3.614 3.38 3.38 0 0 1-.5.024 9.9 9.9 0 0 1-6.948-2.425S26.632 37.448 22 39.873c-4.632-2.425-5.789-8.489-5.789-8.489a9.9 9.9 0 0 1-6.948 2.425 3.38 3.38 0 0 1-.5-.024 5.73 5.73 0 0 1-5.291-3.614c4.943-2.286 9.007-6.119 11.578-10.919z" fill="#14a085"/><path d="M19.137 10.159c-2.423 2.082-5.254 5.3-11.027 7.881.899 2.235 3.103 3.667 5.51 3.58a9.4 9.4 0 0 0 3.75-1.15 6.81 6.81 0 0 0 2.67 4.77h3.92a6.81 6.81 0 0 0 2.67-4.77 9.4 9.4 0 0 0 3.75 1.15c2.407.087 4.611-1.345 5.51-3.58-5.773-2.583-8.6-5.8-11.027-7.881z" fill="#26b99a"/><g fill="#f0c419"><path d="M22.489.316l1.738 3.7c.076.166.23.283.41.311l3.9.594a.57.57 0 0 1 .3.957l-2.831 2.9c-.126.131-.183.314-.153.494l.666 4.08a.55.55 0 0 1-.792.591l-3.472-1.916a.53.53 0 0 0-.512 0l-3.472 1.916a.55.55 0 0 1-.792-.591l.666-4.08c.03-.18-.027-.363-.153-.494l-2.831-2.9a.57.57 0 0 1 .3-.957l3.9-.594c.18-.028.334-.145.41-.311L21.509.321c.086-.194.277-.319.488-.32s.404.122.492.315z"/><ellipse cx="22" cy="26.533" rx="2.316" ry="2.425"/><ellipse cx="12.737" cy="43.511" rx="2.316" ry="2.425"/><ellipse cx="31.263" cy="43.511" rx="2.316" ry="2.425"/></g><g fill="#ecf0f1"><ellipse cx="30.105" cy="27.746" rx="1.158" ry="1.213"/><ellipse cx="13.895" cy="27.746" rx="1.158" ry="1.213"/></g><path d="M5 58h2 18v-4H8z" fill="#f0c419"/><g fill="#e64c3c"><rect height="14" rx="1" width="8" y="44"/><rect height="20" rx="1" width="18" x="40" y="38"/></g><path d="m13 54h2v4h-2z" fill="#955ba5"/><path d="M5 44H3v5H0v2h3v7h2v-7h3v-2H5zm53 3h-8v-8h2a4 4 0 1 0-3-6.618A3.99 3.99 0 1 0 46 39h2v8h-8v2h8v9h2v-9h8zm-6-14a2 2 0 1 1 0 4h-2v-2a2 2 0 0 1 2-2zm-8 2a2 2 0 1 1 4 0v2h-2a2 2 0 0 1-2-2z" fill="#f0c419"/><rect fill="#955ba5" height="8" rx="1" width="12" x="23" y="50"/><path d="m28 50h2v8h-2z" fill="#f3d55b"/></svg>