<svg height="512" viewBox="0 0 58 58" width="512" xmlns="http://www.w3.org/2000/svg"><g id="Page-1" fill="none" fill-rule="evenodd"><g id="042---Christmas-Tree-and-Presents" fill-rule="nonzero"><path id="Rectangle-path" d="m18 44h8v12h-8z" fill="#805333"/><path id="Shape" d="m33 29c.9561673 4.0774459 3.4729426 7.6174465 7.01 9.86l-.01 6.8c-.5769408.1922397-1.1819132.2868722-1.79.28-1.7299813.0206912-3.4412857-.3592184-5-1.11l-2.26 1.08c-.3233905 1.441026-.8735758 2.8215523-1.63 4.09h-3.91c-1.2979104-1.209276-2.4430758-2.5727281-3.41-4.06-2.32 3.63-7 4.06-7 4.06-1.91-2-1.56-2.37-1.95-4.09l-2.26-1.08c-.88397707.4295738-1.82274025.7357654-2.79.91l-6.47-1.74c-.71281737-.8490323-1.23462405-1.8414882-1.53-2.91 5.63-2.53 11-8.09 12-12.09z" fill="#33907c"/><path id="Shape" d="m29 19.354c2.5799055 4.7504717 6.6215165 8.5434707 11.526 10.817-.8626084 2.1701581-2.9557314 3.5998588-5.291 3.614-.165844.0203512-.3329692.0283732-.5.024-2.5415581.1144541-5.0296262-.7539347-6.948-2.425 0 0-1.155 6.064-5.787 8.489-4.632-2.425-5.789-8.489-5.789-8.489-1.9183738 1.6710653-4.4064419 2.5394541-6.948 2.425-.16703082.0043732-.33415596-.0036488-.5-.024-2.3352686-.0141412-4.42839157-1.4438419-5.291-3.614 4.94268301-2.2857726 9.006825-6.1185906 11.578-10.919z" fill="#14a085"/><path id="Shape" d="m19.137 10.159c-2.423 2.082-5.254 5.3-11.027 7.881.89893815 2.2350601 3.1025006 3.6667758 5.51 3.58 1.31696-.1153709 2.5947745-.507234 3.75-1.15.1845505 1.89318 1.1527124 3.6228175 2.67 4.77h3.92c1.5172876-1.1471825 2.4854495-2.87682 2.67-4.77 1.1552255.642766 2.43304 1.0346291 3.75 1.15 2.4074994.0867758 4.6110619-1.3449399 5.51-3.58-5.773-2.583-8.6-5.8-11.027-7.881z" fill="#26b99a"/><g fill="#f0c419"><path id="Shape" d="m22.489.316 1.738 3.7c.075748.16595686.2297683.28278692.41.311l3.9.594c.206398.03865051.3746334.18802038.4374457.38839162.0628123.20037123.0099527.41904991-.1374457.56860838l-2.831 2.9c-.1264919.13106361-.1832695.31438475-.153.494l.666 4.08c.0406069.2068624-.0410483.4186784-.2100032.5447546s-.3952517.1440577-.5819968.0462454l-3.472-1.916c-.1592991-.0880922-.3527009-.0880922-.512 0l-3.472 1.916c-.1867451.0978123-.4130419.0798308-.5819968-.0462454s-.2506101-.3378922-.2100032-.5447546l.666-4.08c.0302695-.17961525-.0265081-.36293639-.153-.494l-2.831-2.9c-.1473984-.14955847-.200258-.36823715-.1374457-.56860838.0628123-.20037124.2310477-.34974111.4374457-.38839162l3.9-.594c.1802317-.02821308.334252-.14504314.41-.311l1.738-3.695c.0855735-.19350756.2767993-.31872852.4883811-.31980802.2115817-.0010795.4040753.12218371.4916189.31480802z"/><ellipse id="Oval" cx="22" cy="26.533" rx="2.316" ry="2.425"/><ellipse id="Oval" cx="12.737" cy="43.511" rx="2.316" ry="2.425"/><ellipse id="Oval" cx="31.263" cy="43.511" rx="2.316" ry="2.425"/></g><ellipse id="Oval" cx="30.105" cy="27.746" fill="#ecf0f1" rx="1.158" ry="1.213"/><ellipse id="Oval" cx="13.895" cy="27.746" fill="#ecf0f1" rx="1.158" ry="1.213"/><path id="Shape" d="m5 58h2 18v-4h-17z" fill="#f0c419"/><rect id="Rectangle-path" fill="#e64c3c" height="14" rx="1" width="8" y="44"/><rect id="Rectangle-path" fill="#e64c3c" height="20" rx="1" width="18" x="40" y="38"/><path id="Rectangle-path" d="m13 54h2v4h-2z" fill="#955ba5"/><path id="Shape" d="m5 44h-2v5h-3v2h3v7h2v-7h3v-2h-3z" fill="#f0c419"/><path id="Shape" d="m58 47h-8v-8h2c1.849086.0111801 3.4648278-1.2465255 3.907743-3.0418166.4429151-1.7952911-.4024542-3.6601759-2.0445633-4.5103064-1.642109-.8501305-3.652897-.463897-4.8631797.934123-1.2110928-1.3866594-3.2134336-1.7652231-4.8471665-.916408-1.6337329.848815-2.4750835 2.7048345-2.0366995 4.4929591s2.0427901 3.0445323 3.883866 3.0414489h2v8h-8v2h8v9h2v-9h8zm-6-14c1.1045695 0 2 .8954305 2 2s-.8954305 2-2 2h-2v-2c0-1.1045695.8954305-2 2-2zm-8 2c0-1.1045695.8954305-2 2-2s2 .8954305 2 2v2h-2c-1.1045695 0-2-.8954305-2-2z" fill="#f0c419"/><rect id="Rectangle-path" fill="#955ba5" height="8" rx="1" width="12" x="23" y="50"/><path id="Rectangle-path" d="m28 50h2v8h-2z" fill="#f3d55b"/></g></g></svg>