<svg xmlns="http://www.w3.org/2000/svg" width="53.783" height="53.783" viewBox="0 0 53.783 53.783"><defs><style>.a{fill:#484848;}</style></defs><g transform="translate(0)"><path class="a" d="M51.589,196.342a39.585,39.585,0,0,1-1.181-9.593,1.576,1.576,0,0,0-1.576-1.576H40.393a1.576,1.576,0,0,0-1.576,1.576,39.575,39.575,0,0,1-1.181,9.593l-.465,1.86q-.178-.755-.378-1.506c-.5-1.853-1.075-4.012-1.657-6.186a47.19,47.19,0,0,1-1.606-12.2,1.576,1.576,0,0,0-1.576-1.576H21.828a1.576,1.576,0,0,0-1.576,1.576,47.2,47.2,0,0,1-1.605,12.2c-1.242,4.637-1.566,5.845-1.658,6.187q-.2.749-.378,1.5l-.465-1.86a39.583,39.583,0,0,1-1.181-9.593,1.576,1.576,0,0,0-1.576-1.576H4.951a1.576,1.576,0,0,0-1.576,1.576,39.58,39.58,0,0,1-1.181,9.593l-.919,3.677A42.728,42.728,0,0,0,0,210.377a1.576,1.576,0,0,0,1.576,1.576H52.207a1.576,1.576,0,0,0,1.576-1.576,42.716,42.716,0,0,0-1.275-10.358Zm-4.3-8.018q.035.957.114,1.912H41.825q.078-.954.115-1.912ZM30.4,179.886q.03.956.1,1.912h-7.22q.066-.955.1-1.912Zm-18.561,8.439q.036.957.115,1.912H6.383q.078-.954.114-1.912ZM3.183,208.8a39.571,39.571,0,0,1,1.15-8.018l.919-3.677q.46-1.841.755-3.719h6.327q.3,1.875.755,3.719l.919,3.678a39.558,39.558,0,0,1,1.149,8.017Zm15.183,0a49.71,49.71,0,0,1,1.668-11.288c.494-1.844.995-3.712,1.657-6.187a50.3,50.3,0,0,0,1.272-6.377H30.82a50.341,50.341,0,0,0,1.273,6.377c.651,2.43,1.167,4.358,1.657,6.187A49.738,49.738,0,0,1,35.417,208.8Zm20.259,0a39.567,39.567,0,0,1,1.15-8.018l.919-3.677q.461-1.841.755-3.719h6.327q.295,1.875.755,3.719l.919,3.678A39.529,39.529,0,0,1,50.6,208.8Zm0,0" transform="translate(0 -158.169)"/><path class="a" d="M1.576,3.151H33.642a1.8,1.8,0,1,1,0,3.6H25.2a4.951,4.951,0,0,0,0,9.9h3.375a1.576,1.576,0,0,0,0-3.151H25.2a1.8,1.8,0,1,1,0-3.6h8.439a4.951,4.951,0,1,0,0-9.9H1.576a1.576,1.576,0,0,0,0,3.151Zm0,0" transform="translate(0)"/><path class="a" d="M374.483,18.342h1.688a1.8,1.8,0,1,1,0,3.6H372.8a1.576,1.576,0,1,0,0,3.151h3.375a4.951,4.951,0,1,0,0-9.9h-1.688a1.8,1.8,0,1,1,0-3.6H378.7A5.8,5.8,0,0,0,378.7,0H372.8a1.576,1.576,0,1,0,0,3.151H378.7a2.644,2.644,0,0,1,0,5.288h-4.219a4.951,4.951,0,1,0,0,9.9Zm0,0" transform="translate(-330.714 0)"/><path class="a" d="M1.576,83.483H11.7a1.8,1.8,0,1,1,0,3.6H8.327a4.951,4.951,0,0,0,0,9.9H11.7a1.576,1.576,0,0,0,0-3.151H8.327a1.8,1.8,0,0,1,0-3.6H11.7a4.951,4.951,0,0,0,0-9.9H1.576a1.576,1.576,0,0,0,0,3.151Zm0,0" transform="translate(0 -71.893)"/></g></svg>