<svg xmlns="http://www.w3.org/2000/svg" width="102.532" height="102.153" fill="none" stroke="#207178" stroke-width="6.5" xmlns:v="https://vecta.io/nano"><g stroke-miterlimit="10"><path d="M18.052 57.544h14.015a6.04 6.04 0 0 1 2.951.769l13.087 7.325a4.22 4.22 0 0 0 2.055.536h14.143a5.68 5.68 0 0 1 5.55 5.8c-.02 3.099-2.455 5.644-5.55 5.8h1.576c.353.001.703-.063 1.032-.189l24.036-9.108c2.676-1.043 5.711.062 7.089 2.582h0a5.78 5.78 0 0 1-2.635 8.031l-40.9 18.007a14.2 14.2 0 0 1-12.493-.519L28.59 90.034a63.1 63.1 0 0 0-5.835-2.96c-.394-.116-.794-.206-1.2-.268l-6.195-.86v-28.4h2.7z"/><path d="M67.16 77.884H47.32" stroke-linecap="round"/><path d="M4.442 51.862h7.981a2.54 2.54 0 0 1 2.073 1.339 6.13 6.13 0 0 1 .859 3.244v30.837c0 2.531-1.31 4.583-2.926 4.583H4.442c-.382 0-.692-.486-.692-1.084V52.944c0-.6.31-1.082.692-1.082z"/><path d="M59.768 66.347V34.278" stroke-linecap="round"/></g><path d="M73.317 6.04h0c-1.323-1.483-3.225-2.319-5.212-2.289s-3.863.922-5.14 2.445l-3.5 3.864-3.499-3.838a6.85 6.85 0 0 0-10.35-.156h0a10.33 10.33 0 0 0-.129 13.589l13.906 15.211.06.066h0l.085-.091 13.9-15.2c3.366-3.926 3.314-9.735-.121-13.601z" stroke-linejoin="round"/><g stroke-miterlimit="10"><path d="M34.066 37.53h11.65c7.58 0 13.724 6.144 13.724 13.724v3.7H47.79c-7.58 0-13.724-6.144-13.724-13.724z"/><path d="M71.007 54.945h-11.65v-3.69c.001-7.579 6.145-13.723 13.724-13.723h11.652v3.679c.003 3.642-1.442 7.136-4.017 9.712s-6.067 4.023-9.709 4.022z"/></g></svg>