<svg xmlns="http://www.w3.org/2000/svg" width="88.481" height="87.342" fill="none" stroke="#66bcb5" stroke-width="5" xmlns:v="https://vecta.io/nano"><g stroke-miterlimit="10"><path d="M15.017 49.374H27.19c.897 0 1.779.228 2.563.664l11.369 6.323c.546.303 1.16.463 1.785.463h12.284a4.92 4.92 0 0 1 4.821 5.008 5.06 5.06 0 0 1-4.821 5.007h1.369a2.5 2.5 0 0 0 .9-.163l20.875-7.862a4.98 4.98 0 0 1 6.158 2.229h0c.67 1.213.804 2.65.37 3.966s-1.398 2.39-2.659 2.965L46.674 83.52a12.4 12.4 0 0 1-10.851-.446l-11.655-5.651c-1.645-.938-3.336-1.791-5.069-2.555a8 8 0 0 0-1.044-.231l-5.381-.744V49.374h2.344z"/><path d="M57.651 66.838h-17.13" stroke-linecap="round"/><path d="M3.255 44.469h6.89a2.19 2.19 0 0 1 1.79 1.155 5.29 5.29 0 0 1 .742 2.8v26.62c0 2.185-1.131 3.956-2.526 3.956H3.255c-.33 0-.6-.419-.6-.936V45.403c0-.516.268-.934.6-.934z"/><path d="M51.272 56.752V29.069" stroke-linecap="round"/></g><path d="M62.992 4.481h0a5.91 5.91 0 0 0-8.938.134l-3.026 3.336-3.017-3.314c-1.104-1.312-2.723-2.081-4.438-2.106s-3.356.695-4.498 1.974h0c-2.967 3.332-3.014 8.343-.111 11.73l12.007 13.13.052.057h0l.074-.079L63.101 16.22a8.93 8.93 0 0 0-.109-11.739z" stroke-linejoin="round"/><path d="M29.016 31.853h10.059a11.85 11.85 0 0 1 11.849 11.846v3.19H40.865a11.85 11.85 0 0 1-11.849-11.846zm32.136 15.034H51.093v-3.185a11.85 11.85 0 0 1 11.849-11.846h10.061v3.176a11.85 11.85 0 0 1-11.851 11.855z" stroke-miterlimit="10"/></svg>