<svg xmlns="http://www.w3.org/2000/svg" width="102.532" height="102.153" viewBox="0 0 102.532 102.153"><defs><style>.a,.b,.c{fill:none;stroke:#207178;stroke-width:7.5px;}.a,.b{stroke-linecap:round;}.a,.c{stroke-miterlimit:10;}.b{stroke-linejoin:round;}</style></defs><g transform="translate(-4.75 -4.738)"><path class="a" d="M100.417,288.59h14.015a6.042,6.042,0,0,1,2.951.769l13.087,7.325a4.218,4.218,0,0,0,2.055.536h14.143a5.679,5.679,0,0,1,5.55,5.8,5.845,5.845,0,0,1-5.55,5.8h1.576a2.856,2.856,0,0,0,1.032-.189l24.036-9.108a5.714,5.714,0,0,1,7.089,2.582h0a5.778,5.778,0,0,1-2.635,8.031l-40.9,18.007a14.2,14.2,0,0,1-12.493-.519l-13.418-6.544a63.1,63.1,0,0,0-5.835-2.96,9.136,9.136,0,0,0-1.2-.268l-6.195-.86v-28.4h2.7Z" transform="translate(-77.615 -226.308)"/><path class="a" d="M242.67,389" transform="translate(-189.246 -305.753)"/><line class="a" x1="19.84" transform="translate(52.07 82.622)"/><path class="a" d="M9.192,242.5h7.981a2.539,2.539,0,0,1,2.073,1.339,6.128,6.128,0,0,1,.859,3.244V277.92c0,2.531-1.31,4.583-2.926,4.583H9.192c-.382,0-.692-.486-.692-1.084V243.582c0-.6.31-1.082.692-1.082Z" transform="translate(0 -185.9)"/><line class="a" y1="32.069" transform="translate(64.518 39.016)"/><path class="b" d="M251.092,29.518h0a6.844,6.844,0,0,0-10.352.156l-3.5,3.864L233.741,29.7a6.848,6.848,0,0,0-10.35-.156h0a10.33,10.33,0,0,0-.129,13.589l13.906,15.211.06.066h0l.085-.091,13.9-15.2A10.343,10.343,0,0,0,251.092,29.518Z" transform="translate(-173.025 -18.74)"/><path class="c" d="M174.45,172.15H186.1a13.724,13.724,0,0,1,13.724,13.724v3.7h-11.65a13.724,13.724,0,0,1-13.724-13.724Z" transform="translate(-135.634 -129.882)"/><path class="c" d="M13.726,0h11.65V3.69A13.724,13.724,0,0,1,11.652,17.413H0V13.734A13.724,13.724,0,0,1,13.726,0Z" transform="translate(89.483 59.683) rotate(180)"/></g></svg>