<svg id="Ebene_1" data-name="Ebene 1" xmlns="http://www.w3.org/2000/svg" viewBox="0 0 508.23 474.51"><defs><style>.cls-1,.cls-2,.cls-3{fill:none;stroke:#000;stroke-width:17px;}.cls-1,.cls-2{stroke-linecap:round;}.cls-1,.cls-3{stroke-miterlimit:10;}.cls-2{stroke-linejoin:round;}</style></defs><title>Donate icon</title><path class="cls-1" d="M110.78,288.59h67.87a29.4,29.4,0,0,1,14.29,3.7l63.38,35.26a20.52,20.52,0,0,0,9.95,2.58h68.49c14.85,0,26.88,12.5,26.88,27.93,0,14.18-12,27.92-26.88,27.92l7.63,0a13.9,13.9,0,0,0,5-.91l116.4-43.84a27.75,27.75,0,0,1,34.33,12.43h0a27.74,27.74,0,0,1-12.76,38.66L287.28,479a69.14,69.14,0,0,1-60.5-2.5L161.8,445c-4.66-2.51-23.18-12.75-28.26-14.25a44.44,44.44,0,0,0-5.82-1.29l-30-4.14V288.59h13.07Z" transform="translate(-1.89 -18.74)"/><path class="cls-1" d="M242.67,389" transform="translate(-1.89 -18.74)"/><line class="cls-1" x1="333.38" y1="367.24" x2="237.88" y2="367.24"/><path class="cls-1" d="M13.72,242.5H73.89A22.06,22.06,0,0,1,96,264.56V413a22.06,22.06,0,0,1-22.06,22.06H13.72a5.22,5.22,0,0,1-5.22-5.22V247.71A5.22,5.22,0,0,1,13.72,242.5Z"/><line class="cls-1" x1="298.14" y1="310.99" x2="298.14" y2="156.62"/><path class="cls-2" d="M366.7,38.25h0c-14.31-15-35.84-14.63-49.83.75L300,57.6,283.18,39.12c-14-15.38-35.52-15.71-49.82-.75h0c-16.53,17.28-16.81,47.71-.62,65.41L299.68,177l.29.32h0l.41-.44,66.93-73.17C383.51,86,383.22,55.53,366.7,38.25Z" transform="translate(-1.89 -18.74)"/><path class="cls-3" d="M174.45,172.15h56.08a66.06,66.06,0,0,1,66.06,66.06V256a0,0,0,0,1,0,0H240.51a66.06,66.06,0,0,1-66.06-66.06V172.15A0,0,0,0,1,174.45,172.15Z"/><path class="cls-3" d="M366.47,190.89h56.08a0,0,0,0,1,0,0v17.76a66.06,66.06,0,0,1-66.06,66.06H300.4a0,0,0,0,1,0,0V257A66.06,66.06,0,0,1,366.47,190.89Z" transform="translate(721.07 446.87) rotate(180)"/></svg>