<svg xmlns="http://www.w3.org/2000/svg" width="83.001" height="128.653" xmlns:v="https://vecta.io/nano"><ellipse cx="41.48" cy="115.438" rx="38.48" ry="13.216" fill="#e6e6e6" opacity=".67"/><path d="M29.595 74H7a7 7 0 0 1-7-7V7a7 7 0 0 1 7-7h69a7 7 0 0 1 7 7v60a7 7 0 0 1-7 7H53.4L41.5 94z" fill="#f3d516"/><path d="M41.5 39.469c3.833.013 7.622.817 11.13 2.362 2.819 1.268 4.629 4.075 4.62 7.166v4.253h-31.5v-4.226a7.78 7.78 0 0 1 4.62-7.166c3.502-1.567 7.294-2.38 11.13-2.389zm-21 .656a5.25 5.25 0 1 0 0-10.5 5.25 5.25 0 0 0-5.25 5.25c.008 2.896 2.354 5.242 5.25 5.25zm2.966 2.888a18.33 18.33 0 0 0-2.966-.263c-2.512-.001-4.997.518-7.3 1.522a5.28 5.28 0 0 0-3.2 4.857v4.121h11.813v-4.226a11.81 11.81 0 0 1 1.653-6.011zM62.5 40.125a5.25 5.25 0 1 0 0-10.5 5.25 5.25 0 0 0-5.25 5.25c.008 2.896 2.354 5.242 5.25 5.25zm10.5 9a5.28 5.28 0 0 0-3.2-4.856c-3.222-1.424-6.793-1.862-10.264-1.26a11.81 11.81 0 0 1 1.654 6.011v4.23H73zM41.5 21.75c4.349 0 7.875 3.526 7.875 7.875S45.849 37.5 41.5 37.5s-7.875-3.526-7.875-7.875c-.003-2.089.826-4.094 2.303-5.572s3.482-2.306 5.572-2.303z" fill="#fff"/></svg>