<svg xmlns="http://www.w3.org/2000/svg" width="83.001" height="128.653" xmlns:v="https://vecta.io/nano"><ellipse cx="41.48" cy="115.438" rx="38.48" ry="13.216" fill="#e6e6e6" opacity=".67"/><path d="M29.595 74H7a7 7 0 0 1-7-7V7a7 7 0 0 1 7-7h69a7 7 0 0 1 7 7v60a7 7 0 0 1-7 7H53.4L41.5 94z" fill="#f3d516"/><path d="M40.999 13.875a17.63 17.63 0 0 0-3.675.368c-6.82 1.376-12.275 6.491-14.088 13.208s.329 13.882 5.53 18.502a5.1 5.1 0 0 1 1.733 3.859v6.063c.008 2.896 2.354 5.242 5.25 5.25h.735a5.2 5.2 0 0 0 9.03 0h.735c2.896-.008 5.242-2.354 5.25-5.25v-6.064a5.09 5.09 0 0 1 1.68-3.836c5.714-5.057 7.703-13.122 4.996-20.257s-9.546-11.85-17.176-11.843zm5.25 42h-10.5V53.25h10.5zm0-5.25h-10.5V48h10.5zm-3.937-14.674v6.8h-2.625v-6.8l-4.8-4.778 1.864-1.864 4.253 4.253 4.252-4.253 1.863 1.866z" fill="#fff"/></svg>