<svg xmlns="http://www.w3.org/2000/svg" width="83.001" height="128.653" viewBox="0 0 83.001 128.653"><defs><style>.a{fill:#e6e6e6;opacity:0.67;}.b{fill:#f3d516;}.c{fill:none;}.d{fill:#fff;}</style></defs><ellipse class="a" cx="38.48" cy="13.216" rx="38.48" ry="13.216" transform="translate(3 102.222)"/><g transform="translate(-823 -1301)"><path class="b" d="M-9744.405,74H-9767a7,7,0,0,1-7-7V7a7,7,0,0,1,7-7h69a7,7,0,0,1,7,7V67a7,7,0,0,1-7,7h-22.6l-11.9,20Z" transform="translate(10597 1301)"/></g><g transform="translate(17.319 9.049)"><path class="c" d="M0,0H50.817V50.817H0Z" transform="translate(-0.877 -0.61)"/><g transform="translate(-5.755 -4.004)"><path class="c" d="M0,0H59.193V59.193H0Z"/><path class="d" d="M36.507,7.91A19.731,19.731,0,1,0,56.238,27.641,19.726,19.726,0,0,0,36.507,7.91Zm0,34.529a14.8,14.8,0,1,1,14.8-14.8A14.81,14.81,0,0,1,36.507,42.439Zm-29.6-14.8a14.783,14.783,0,0,1,8.46-13.368A2.306,2.306,0,0,0,16.776,12.2v-.469A2.262,2.262,0,0,0,13.52,9.711a19.7,19.7,0,0,0,0,35.861,2.271,2.271,0,0,0,3.256-2.022v-.444a2.341,2.341,0,0,0-1.406-2.1A14.783,14.783,0,0,1,6.91,27.641Z" transform="translate(0.489 1.955)"/></g></g></svg>