<svg xmlns="http://www.w3.org/2000/svg" width="83.001" height="128.653" xmlns:v="https://vecta.io/nano"><ellipse cx="41.48" cy="115.438" rx="38.48" ry="13.216" fill="#e6e6e6" opacity=".67"/><path d="M29.595 74H7a7 7 0 0 1-7-7V7a7 7 0 0 1 7-7h69a7 7 0 0 1 7 7v60a7 7 0 0 1-7 7H53.4L41.5 94z" fill="#f3d516"/><path d="M41.25 62.044l-3.806-3.469C23.925 46.32 15 38.235 15 28.313a14.3 14.3 0 0 1 14.438-14.438 15.72 15.72 0 0 1 11.812 5.486 15.72 15.72 0 0 1 11.813-5.486A14.3 14.3 0 0 1 67.5 28.313c0 9.923-8.925 18.007-22.444 30.293z" fill="#fff"/></svg>