<svg xmlns="http://www.w3.org/2000/svg" width="83.001" height="128.653" viewBox="0 0 83.001 128.653"><defs><style>.a{fill:#e6e6e6;opacity:0.67;}.b{fill:#f3d516;}.c{fill:none;}.d{fill:#fff;}</style></defs><ellipse class="a" cx="38.48" cy="13.216" rx="38.48" ry="13.216" transform="translate(3 102.222)"/><path class="b" d="M-9744.405,74H-9767a7,7,0,0,1-7-7V7a7,7,0,0,1,7-7h69a7,7,0,0,1,7,7V67a7,7,0,0,1-7,7h-22.6l-11.9,20Z" transform="translate(9774)"/><g transform="translate(9.75 6)"><path class="c" d="M0,0H63V63H0Z"/><path class="d" d="M28.25,51.169,24.444,47.7C10.925,35.445,2,27.36,2,17.438A14.3,14.3,0,0,1,16.438,3,15.72,15.72,0,0,1,28.25,8.486,15.72,15.72,0,0,1,40.063,3,14.3,14.3,0,0,1,54.5,17.438c0,9.923-8.925,18.007-22.444,30.293Z" transform="translate(3.25 4.875)"/></g></svg>