<svg xmlns="http://www.w3.org/2000/svg" width="83.001" height="131.923" xmlns:v="https://vecta.io/nano"><ellipse cx="41.48" cy="118.708" rx="38.48" ry="13.216" fill="#e6e6e6" opacity=".67"/><path d="M29.595 77.27H7a7 7 0 0 1-7-7v-60a7 7 0 0 1 7-7h69a7 7 0 0 1 7 7v60a7 7 0 0 1-7 7H53.4l-11.9 20z" fill="#f3d516"/><path d="M63.549 25.113c-5.076-1.584-10.612-.259-14.421 3.451l-7.572 6.716-4.067 3.586h.027l-7.2 6.395c-2.188 2.179-5.328 3.105-8.348 2.462-3.384-.711-6.058-3.303-6.874-6.663a9.08 9.08 0 0 1 15.331-8.48l1.258 1.1a2.68 2.68 0 0 0 4.445-1.453 2.68 2.68 0 0 0-.887-2.56l-1.124-.963c-5.601-5.612-14.686-5.638-20.319-.058s-5.692 14.665-.133 20.318 14.644 5.746 20.318.208l7.573-6.692.027.027 4.04-3.639h-.027l7.2-6.395c2.188-2.179 5.328-3.105 8.348-2.462 3.384.71 6.059 3.302 6.876 6.662a9.08 9.08 0 0 1-15.331 8.481l-1.287-1.124c-1.111-.951-2.78-.836-3.75.259s-.885 2.765.192 3.754l1.124.99c4.44 4.408 11.21 5.462 16.78 2.613s8.677-8.956 7.701-15.135a14.22 14.22 0 0 0-9.9-11.4z" fill="#fff"/></svg>