<svg xmlns="http://www.w3.org/2000/svg" width="83.001" height="128.653" viewBox="0 0 83.001 128.653"><defs><style>.a{fill:#e6e6e6;opacity:0.67;}.b{fill:#f3d516;}.c{fill:none;}.d{fill:#fff;}</style></defs><g transform="translate(-1448 -1287)"><ellipse class="a" cx="38.48" cy="13.216" rx="38.48" ry="13.216" transform="translate(1451 1389.222)"/><g transform="translate(433 -14)"><path class="b" d="M-9744.405,74H-9767a7,7,0,0,1-7-7V7a7,7,0,0,1,7-7h69a7,7,0,0,1,7,7V67a7,7,0,0,1-7,7h-22.6l-11.9,20Z" transform="translate(10789 1301)"/><g transform="translate(1024.5 1307)"><rect class="c" width="63" height="63" transform="translate(0.5 0)"/><g transform="translate(13.116 7.875)"><path class="d" d="M23.38,3a17.63,17.63,0,0,0-3.675.368,18.352,18.352,0,0,0-8.558,31.71,5.1,5.1,0,0,1,1.733,3.859V45a5.265,5.265,0,0,0,5.25,5.25h.735a5.2,5.2,0,0,0,9.03,0h.735A5.265,5.265,0,0,0,33.88,45V38.936A5.091,5.091,0,0,1,35.56,35.1,18.355,18.355,0,0,0,23.38,3Zm5.25,42H18.13V42.375h10.5Zm0-5.25H18.13V37.125h10.5ZM24.693,25.076v6.8H22.068v-6.8l-4.8-4.778,1.864-1.864,4.253,4.253,4.252-4.253L29.5,20.3Z" transform="translate(-4.997 -3)"/></g></g></g></g></svg>