<svg xmlns="http://www.w3.org/2000/svg" width="83.001" height="128.653" xmlns:v="https://vecta.io/nano"><ellipse cx="41.48" cy="115.438" rx="38.48" ry="13.216" fill="#e6e6e6" opacity=".67"/><path d="M29.595 74H7a7 7 0 0 1-7-7V7a7 7 0 0 1 7-7h69a7 7 0 0 1 7 7v60a7 7 0 0 1-7 7H53.4L41.5 94z" fill="#f3d516"/><path d="M48.56 14.91c-10.897 0-19.731 8.834-19.731 19.731s8.834 19.731 19.731 19.731 19.731-8.834 19.731-19.731c.001-5.233-2.077-10.253-5.778-13.953s-8.72-5.779-13.953-5.778zm0 34.529c-8.174 0-14.8-6.626-14.8-14.8s6.626-14.8 14.8-14.8 14.8 6.626 14.8 14.8c-.006 8.172-6.628 14.794-14.8 14.8zm-29.6-14.8c-.002-5.717 3.292-10.923 8.46-13.368.836-.353 1.388-1.164 1.409-2.071v-.469a2.26 2.26 0 0 0-3.256-2.02 19.7 19.7 0 0 0 0 35.861 2.27 2.27 0 0 0 3.256-2.022v-.444a2.34 2.34 0 0 0-1.406-2.1c-5.167-2.445-8.461-7.649-8.46-13.365z" fill="#fff"/></svg>