<svg xmlns="http://www.w3.org/2000/svg" width="83.001" height="128.653" xmlns:v="https://vecta.io/nano"><ellipse cx="41.48" cy="115.438" rx="38.48" ry="13.216" fill="#e6e6e6" opacity=".67"/><path d="M29.595 74H7a7 7 0 0 1-7-7V7a7 7 0 0 1 7-7h69a7 7 0 0 1 7 7v60a7 7 0 0 1-7 7H53.4L41.5 94z" fill="#f3d516"/><path d="M67.321 28.862c.012-1.754-.891-3.387-2.383-4.309L42 11.12 19.062 24.554c-1.498.919-2.41 2.551-2.408 4.308v25.347c.008 2.796 2.273 5.061 5.069 5.069h40.554c2.796-.008 5.061-2.273 5.069-5.069zM42 41.536L21.064 28.457 42 16.189l20.936 12.268z" fill="#f8f8f8"/></svg>