<svg xmlns="http://www.w3.org/2000/svg" width="83.001" height="131.923" viewBox="0 0 83.001 131.923"><defs><style>.a{fill:#e6e6e6;opacity:0.67;}.b{fill:#f3d516;}.c{fill:none;}.d{fill:#fff;}</style></defs><g transform="translate(0 3.27)"><ellipse class="a" cx="38.48" cy="13.216" rx="38.48" ry="13.216" transform="translate(3 102.222)"/><g transform="translate(-823 -1301)"><path class="b" d="M-9744.405,74H-9767a7,7,0,0,1-7-7V7a7,7,0,0,1,7-7h69a7,7,0,0,1,7,7V67a7,7,0,0,1-7,7h-22.6l-11.9,20Z" transform="translate(10597 1301)"/></g><g transform="translate(1 -3.27)"><path class="c" d="M0,0H81.111V81.111H0Z"/><g transform="translate(8.449 6.759)"><path class="c" d="M0,0H64.213V64.213H0Z"/><path class="d" d="M54.1,13.733a14.486,14.486,0,0,0-14.421,3.451L32.107,23.9,28.04,27.486h.027l-7.2,6.395a9.134,9.134,0,0,1-8.348,2.462A8.973,8.973,0,0,1,5.645,29.68,9.077,9.077,0,0,1,20.976,21.2l1.258,1.1a2.682,2.682,0,1,0,3.558-4.013l-1.124-.963a14.394,14.394,0,1,0-.134,20.468L32.107,31.1l.027.027,4.04-3.639h-.027l7.2-6.395a9.134,9.134,0,0,1,8.348-2.462,8.973,8.973,0,0,1,6.876,6.662,9.077,9.077,0,0,1-15.331,8.481L41.953,32.65a2.682,2.682,0,0,0-3.558,4.013l1.124.99A14.466,14.466,0,0,0,64,25.131a14.219,14.219,0,0,0-9.9-11.4Z" transform="translate(0 4.621)"/></g></g></g></svg>