<svg xmlns="http://www.w3.org/2000/svg" width="83.001" height="128.653" viewBox="0 0 83.001 128.653"><defs><style>.a{fill:#e6e6e6;opacity:0.67;}.b{fill:#f3d516;}.c{fill:none;}.d{fill:#fff;}</style></defs><ellipse class="a" cx="38.48" cy="13.216" rx="38.48" ry="13.216" transform="translate(3 102.222)"/><g transform="translate(-823 -1301)"><path class="b" d="M-9744.405,74H-9767a7,7,0,0,1-7-7V7a7,7,0,0,1,7-7h69a7,7,0,0,1,7,7V67a7,7,0,0,1-7,7h-22.6l-11.9,20Z" transform="translate(10597 1301)"/></g><g transform="translate(12 3.73)"><path class="c" d="M0,0H59.951V59.951H0Z"/><path class="d" d="M46.963,11.992H41.517a7.476,7.476,0,0,0-13.289-6.62L26.979,7.046l-1.249-1.7a7.478,7.478,0,0,0-13.289,6.645H7a4.957,4.957,0,0,0-4.971,5L2,44.465a4.979,4.979,0,0,0,5,5H46.963a4.979,4.979,0,0,0,5-5V16.988A4.979,4.979,0,0,0,46.963,11.992ZM34.473,7a2.5,2.5,0,1,1-2.5,2.5A2.505,2.505,0,0,1,34.473,7ZM19.486,7a2.5,2.5,0,1,1-2.5,2.5A2.505,2.505,0,0,1,19.486,7ZM46.963,44.465H7v-5H46.963Zm0-12.49H7V19.486a2.505,2.505,0,0,1,2.5-2.5H19.685l-3.7,5.046a2.493,2.493,0,1,0,4.022,2.948l6.969-9.492,6.969,9.492a2.493,2.493,0,1,0,4.022-2.948l-3.7-5.046H44.465a2.505,2.505,0,0,1,2.5,2.5Z" transform="translate(2.996 2.996)"/></g></svg>