<svg xmlns="http://www.w3.org/2000/svg" width="83.001" height="128.653" viewBox="0 0 83.001 128.653"><defs><style>.a{fill:#e6e6e6;opacity:0.67;}.b{fill:#f3d516;}.c{fill:none;}.d{fill:#fff;}</style></defs><g transform="translate(-924 -1287)"><ellipse class="a" cx="38.48" cy="13.216" rx="38.48" ry="13.216" transform="translate(927 1389.222)"/><g transform="translate(5 -14)"><path class="b" d="M-9744.405,74H-9767a7,7,0,0,1-7-7V7a7,7,0,0,1,7-7h69a7,7,0,0,1,7,7V67a7,7,0,0,1-7,7h-22.6l-11.9,20Z" transform="translate(10693 1301)"/><g transform="translate(929 1307)"><rect class="c" width="63" height="63" transform="translate(0 0)"/><g transform="translate(0 15.75)"><path class="d" d="M31.5,23.719a27.853,27.853,0,0,1,11.13,2.362,7.834,7.834,0,0,1,4.62,7.166V37.5H15.75V33.274a7.779,7.779,0,0,1,4.62-7.166A27.406,27.406,0,0,1,31.5,23.719Zm-21,.656a5.25,5.25,0,1,0-5.25-5.25A5.265,5.265,0,0,0,10.5,24.375Zm2.966,2.888A18.329,18.329,0,0,0,10.5,27a18.245,18.245,0,0,0-7.3,1.522A5.278,5.278,0,0,0,0,33.379V37.5H11.813V33.274A11.809,11.809,0,0,1,13.466,27.263ZM52.5,24.375a5.25,5.25,0,1,0-5.25-5.25A5.265,5.265,0,0,0,52.5,24.375Zm10.5,9a5.278,5.278,0,0,0-3.2-4.856,17.845,17.845,0,0,0-10.264-1.26,11.809,11.809,0,0,1,1.654,6.011V37.5H63ZM31.5,6a7.875,7.875,0,1,1-7.875,7.875A7.864,7.864,0,0,1,31.5,6Z" transform="translate(0 -6)"/></g></g></g></g></svg>