<svg xmlns="http://www.w3.org/2000/svg" width="105" height="105" xmlns:v="https://vecta.io/nano"><path d="M36.716 60.572C24.776 60.572 1 65.73 1 76v7.714h71.431V76c0-10.27-23.776-15.428-35.715-15.428zM12.939 74.9c4.286-2.557 14.643-5.51 23.776-5.51s19.491 2.954 23.776 5.51zm23.777-22.042c9.847 0 17.858-6.921 17.858-15.429S46.563 22 36.716 22s-17.858 6.921-17.858 15.429 8.01 15.429 17.858 15.429zm0-22.041c4.235 0 7.653 2.954 7.653 6.612s-3.418 6.612-7.653 6.612-7.653-2.954-7.653-6.612 3.418-6.612 7.653-6.612zm35.92 30.02c5.919 3.7 10 8.64 10 15.164v7.714h20.409V76c0-8.9-17.858-13.973-30.41-15.163zm-5.306-7.979c9.847 0 17.858-6.921 17.858-15.429S77.176 22 67.329 22c-2.628.004-5.229.528-7.653 1.543 3.264 3.894 5.068 8.805 5.1 13.886-.032 5.081-1.836 9.992-5.1 13.886 2.424 1.015 5.025 1.539 7.653 1.543z" fill="#207178"/></svg>