<svg xmlns="http://www.w3.org/2000/svg" width="105" height="105" viewBox="0 0 105 105"><defs><style>.a{fill:none;}.b{fill:#207178;}</style></defs><g transform="translate(-8 -64.09)"><path class="a" d="M0,0H105V105H0Z" transform="translate(8 64.091)"/><path class="b" d="M37.716,43.572C25.776,43.572,2,48.73,2,59v7.714H73.431V59C73.431,48.73,49.655,43.572,37.716,43.572ZM13.939,57.9c4.286-2.557,14.643-5.51,23.776-5.51s19.491,2.954,23.776,5.51ZM37.716,35.858c9.847,0,17.858-6.921,17.858-15.429S47.563,5,37.716,5,19.858,11.921,19.858,20.429,27.868,35.858,37.716,35.858Zm0-22.041c4.235,0,7.653,2.954,7.653,6.612s-3.418,6.612-7.653,6.612-7.653-2.954-7.653-6.612S33.481,13.817,37.716,13.817Zm35.92,30.02c5.919,3.7,10,8.64,10,15.164v7.714h20.409V59C104.045,50.1,86.187,45.027,73.635,43.837Zm-5.306-7.979c9.847,0,17.858-6.921,17.858-15.429S78.176,5,68.329,5a19.886,19.886,0,0,0-7.653,1.543,21.834,21.834,0,0,1,5.1,13.886,21.834,21.834,0,0,1-5.1,13.886A19.886,19.886,0,0,0,68.329,35.858Z" transform="translate(7 81.09)"/></g></svg>