<svg xmlns="http://www.w3.org/2000/svg" width="597.253" height="409.001" viewBox="0 0 597.253 409.001"><defs><style>.a{fill:#207178;}</style></defs><path class="a" d="M343.461,461.5a128.033,128.033,0,0,1-43.432,7.5c-64.221,0-116.282-46.562-116.282-104,0-29.553,13.785-56.23,35.915-75.164A146.642,146.642,0,0,1,212.977,246c0-89.47,80.81-162,180.495-162,50.615,0,96.366,18.7,129.141,48.822C549.458,115.32,582.492,105,618.219,105,708.121,105,781,170.366,781,251S708.121,397,618.219,397a182.9,182.9,0,0,1-22.278-1.356C574.04,452.319,514.162,493,443.73,493,405.823,493,370.978,481.221,343.461,461.5Z" transform="translate(-183.747 -84)"/></svg>