<svg xmlns="http://www.w3.org/2000/svg" width="75.077" height="74.472" viewBox="0 0 75.077 74.472"><defs><style>.a{fill:#66bcb5;}</style></defs><path class="a" d="M43.4,65.352l-10.51,6.07A21.929,21.929,0,0,1,10.966,33.438l10.513-6.07,4.632,8.022L15.6,41.463A12.659,12.659,0,1,0,28.262,63.387l10.51-6.061L43.4,65.352ZM33.445,10.965l-6.07,10.51L35.4,26.113,41.467,15.6A12.665,12.665,0,0,1,63.4,28.264l-6.073,10.51L65.353,43.4,71.426,32.9A21.929,21.929,0,0,0,33.445,10.965ZM56.368,73.606l-5.342.756-1.62-11.427,5.336-.753Zm18-22.569-.772,5.342L62.165,54.746l.765-5.336ZM56.6,60.373l3.808-3.811,8.174,8.167L64.768,68.54,56.6,60.373Z" transform="translate(0.235 0.098)"/></svg>