<svg xmlns="http://www.w3.org/2000/svg" width="1054" height="826.142" xmlns:v="https://vecta.io/nano"><path d="M883.931 134.028c8.941-1.534 17.997-2.304 27.069-2.3 78.977 0 143 57.461 143 128.341v.284.272c0 47.407-28.637 88.809-71.234 111.033C1008.882 408.65 1024 452.497 1024 499.522c0 132.1-119.317 239.18-266.5 239.18-19.234.013-38.425-1.843-57.3-5.542-24.357 54.5-83.768 92.982-153.2 92.982-56.948 0-107.156-25.888-136.808-65.273C371.82 789.285 322.633 806.35 269 806.35c-122.608 0-222-89.2-222-199.242 0-37.772 11.714-73.092 32.054-103.189-44.242-13.629-76.055-51.377-76.055-95.811 0-31.749 16.242-60.087 41.653-78.649C16.619 296.105 0 254.592 0 209.594 0 99.555 99.393 10.35 222 10.35c62.808 0 119.53 23.414 159.913 61.041A182 182 0 0 1 435 63.561a184.73 184.73 0 0 1 26.344 1.877C509.1 24.872 573.558 0 644.5 0c105.141 0 196.068 54.656 239.431 134.028z" fill="#66bcb5"/></svg>