<svg xmlns="http://www.w3.org/2000/svg" width="1054" height="826.142" viewBox="0 0 1054 826.142"><defs><style>.a{fill:#66bcb5;}</style></defs><path class="a" d="M483.069,920.322a159.666,159.666,0,0,1-27.069,2.3c-78.977,0-143-57.461-143-128.341,0-.1,0-.189,0-.284s0-.181,0-.272c0-47.407,28.637-88.809,71.234-111.033C358.118,645.7,343,601.853,343,554.828c0-132.1,119.317-239.18,266.5-239.18a296.864,296.864,0,0,1,57.3,5.542c24.357-54.5,83.768-92.982,153.2-92.982,56.948,0,107.156,25.888,136.808,65.273C995.18,265.065,1044.367,248,1098,248c122.608,0,222,89.2,222,199.242,0,37.772-11.714,73.092-32.054,103.189,44.242,13.629,76.055,51.377,76.055,95.811,0,31.749-16.242,60.087-41.653,78.649C1350.381,758.245,1367,799.758,1367,844.756,1367,954.795,1267.607,1044,1145,1044c-62.808,0-119.53-23.414-159.913-61.041A182,182,0,0,1,932,990.789a184.73,184.73,0,0,1-26.344-1.877C857.9,1029.478,793.442,1054.35,722.5,1054.35,617.359,1054.35,526.432,999.694,483.069,920.322Z" transform="translate(1367 1054.35) rotate(180)"/></svg>