<svg id="Ebene_1" data-name="Ebene 1" xmlns="http://www.w3.org/2000/svg" viewBox="0 0 824.77 702.45"><defs><style>.cls-1{opacity:0.58;}.cls-16,.cls-2{fill:#d7f7f5;}.cls-3{fill:#207178;}.cls-4{opacity:0.15;}.cls-11,.cls-13,.cls-14,.cls-16,.cls-21,.cls-23,.cls-4,.cls-9{isolation:isolate;}.cls-13,.cls-14,.cls-5{fill:#fff;}.cls-6{fill:#fafafa;}.cls-7{fill:#37474f;}.cls-8{fill:#455a64;}.cls-9{opacity:0.2;}.cls-10,.cls-13{opacity:0.5;}.cls-11{opacity:0.3;}.cls-12{fill:#263238;}.cls-14,.cls-23{opacity:0.1;}.cls-15{fill:#f3d516;}.cls-16{opacity:0.4;}.cls-17{fill:#b16668;}.cls-18{fill:#1e7a82;}.cls-19{fill:#9a4a4d;}.cls-20,.cls-21{fill:#f28f8f;}.cls-21{opacity:0.6;}.cls-22{fill:#ffa8a7;}</style></defs><title>Unbenannt-1</title><g id="World-amico"><g id="freepik--Shadows--inject-3" class="cls-1"><path id="freepik--Shadow--inject-3" class="cls-2" d="M298.24,569.26c-61.11,29.3-61.11,76.81,0,106.09s160.36,29.29,221.53,0,61.18-76.79,0-106.09S359.48,540,298.24,569.26Z"/><path id="freepik--shadow--inject-3-2" class="cls-2" d="M37.2,549.73c-28.66,16.54-28.66,43.37,0,59.92s75.17,16.55,103.81,0,28.66-43.38,0-59.92S65.81,533.18,37.2,549.73Z"/><path id="freepik--shadow--inject-3-3" class="cls-2" d="M650.2,549.73c-28.66,16.54-28.66,43.37,0,59.92s75.17,16.55,103.81,0,28.66-43.38,0-59.92S678.81,533.18,650.2,549.73Z"/></g><g id="freepik--Plants--inject-3"><g id="freepik--plants--inject-3-2"><path id="Pfad_4553" data-name="Pfad 4553" class="cls-3" d="M749.58,573.62l-4.9-6.07a107.78,107.78,0,0,1-4.79-44.26c3.15-27.22,15.69-37,24.51-34,6.54,2.22,8.5,9.69-2.06,25.29C756.08,523.73,747.85,549.73,749.58,573.62Z"/><path id="Pfad_4554" data-name="Pfad 4554" class="cls-4" d="M749.58,573.62l-4.9-6.07a107.78,107.78,0,0,1-4.79-44.26c3.15-27.22,15.69-37,24.51-34,6.54,2.22,8.5,9.69-2.06,25.29C756.08,523.73,747.85,549.73,749.58,573.62Z"/><path id="Pfad_4555" data-name="Pfad 4555" class="cls-5" d="M746.69,556.69h.08a.56.56,0,0,0,.44-.65v0c-4.9-23.9,3.17-50.93,13.4-62.26a.56.56,0,0,0,0-.81.57.57,0,0,0-.81,0l0,0c-10.4,11.53-18.57,39-13.66,63.25a.59.59,0,0,0,.6.44Z"/><path id="Pfad_4556" data-name="Pfad 4556" class="cls-3" d="M748,576.07a12.51,12.51,0,0,0,2,2.07c.75.44,1.35-.65,1.92.33.32.52.36,1.24.89,1.63a1.41,1.41,0,0,0,1.63-.31,8.13,8.13,0,0,0,1.05-1.55,9.29,9.29,0,0,1,6.53-3.58,57.44,57.44,0,0,0,8.32-1.63,6.78,6.78,0,0,0,4.72-5.49c.13-1.9-1-3.17-2-5.13-1.11-2.26.16-4.25,1.81-5.7s5-2.62,7.05-3.78,5.34-3.54,5.78-5.86c1.1-5.7-4.9-6-5.13-10.05-.11-2.7,1.9-5,2.48-7.63s.72-5.31-1.12-7-5.1-1.52-7.54-.81a24.35,24.35,0,0,0-8.17,4.69c-2.86,2.3-4.77,3.89-8.25,2.48-4.9-2-9.62,1.93-9.4,8.84.08,2.71,1,5.46-.31,7.81-1.22,2.11-4.74,2.08-6.53,3.73a11.17,11.17,0,0,0-3.27,9.28C740.89,564.19,743.83,571.87,748,576.07Z"/><path id="Pfad_4557" data-name="Pfad 4557" class="cls-6" d="M750.69,579.68h0a.59.59,0,0,1-.65-.52v0c-2-20.35,14.83-45.17,27.77-53.92a.61.61,0,0,1,.84.14.59.59,0,0,1-.15.82l0,0c-12.7,8.67-29.21,33-27.27,52.89A.59.59,0,0,1,750.69,579.68Z"/><path id="Pfad_4558" data-name="Pfad 4558" class="cls-6" d="M758.16,550.05a.62.62,0,0,1-.56-.26.58.58,0,0,1,.17-.81h0c7.37-4.76,15.88-6.44,21.68-4.3a.58.58,0,0,1,.43.71.59.59,0,0,1-.71.43l-.13-.05c-5.45-2-13.56-.38-20.63,4.18A.82.82,0,0,1,758.16,550.05Z"/></g><g id="freepik--plants--inject-3-3"><path id="Pfad_4559" data-name="Pfad 4559" class="cls-3" d="M50.58,580l3.81-6.78a107.93,107.93,0,0,0-2.75-44.45C44,502.51,30,494.92,21.8,499.4c-6,3.27-6.74,11,6.28,24.51C35.79,532,48.27,556.21,50.58,580Z"/><path id="Pfad_4560" data-name="Pfad 4560" class="cls-4" d="M50.58,580l3.81-6.78a107.93,107.93,0,0,0-2.75-44.45C44,502.51,30,494.92,21.8,499.4c-6,3.27-6.74,11,6.28,24.51C35.79,532,48.27,556.21,50.58,580Z"/><path id="Pfad_4561" data-name="Pfad 4561" class="cls-5" d="M50.59,562.88h0a.57.57,0,0,1-.58-.56v0c.76-24.38-11.69-49.67-23.66-59.13a.56.56,0,0,1,0-.79h0a.57.57,0,0,1,.8-.1c12.19,9.62,24.87,35.33,24.08,60.06a.57.57,0,0,1-.58.56Z"/><path id="Pfad_4562" data-name="Pfad 4562" class="cls-3" d="M49.09,585.17c-.42,1.14-1,1-2.12.65-.85-.26-1.64-.68-2.5-.93a42.61,42.61,0,0,0-5.08-1.21c-3.13-.54-6.3-.29-9.38-.83a6.76,6.76,0,0,1-5.59-4.61c-.44-1.85.46-3.27,1.08-5.38.72-2.41-.87-4.18-2.75-5.32s-5.36-1.73-7.58-2.54-5.85-2.6-6.68-4.82c-2-5.44,3.85-6.74,3.36-10.76-.32-2.68-2.71-4.61-3.72-7.09s-1.64-5.14,0-7.16,4.75-2.34,7.29-2.06a23.94,23.94,0,0,1,8.88,3.27c3.27,1.78,5.38,3,8.57,1,4.46-2.76,9.8.3,10.75,7.14.36,2.7-.12,5.56,1.63,7.65s5,1.26,7.08,2.58A11.24,11.24,0,0,1,57,563.4c.57,5.87-1,13.92-4.4,18.78A12.37,12.37,0,0,1,51,584.55C50.4,585,49.48,584.15,49.09,585.17Z"/><path id="Pfad_4563" data-name="Pfad 4563" class="cls-6" d="M50.58,586.2h0a.59.59,0,0,0,.55-.64c-1.45-20.39-22.22-42-36.47-48.56a.6.6,0,0,0-.8.28.6.6,0,0,0,.29.8h0c14,6.41,34.32,27.6,35.76,47.55a.6.6,0,0,0,.64.56Z"/><path id="Pfad_4564" data-name="Pfad 4564" class="cls-6" d="M38.18,558.26a.58.58,0,0,0,.18-1.11c-8.08-3.47-16.74-3.7-22.09-.6a.58.58,0,0,0-.29.78.59.59,0,0,0,.78.28l.09-.05c5-2.91,13.3-2.65,21,.65a.39.39,0,0,0,.28,0Z"/></g><g id="freepik--plants--inject-3-4"><path id="Pfad_4565" data-name="Pfad 4565" class="cls-7" d="M465.22,583.42c-7.89-14.71-3.27-31.27,3.53-42.91,7.17-12.35-2-20.46-11.31-11.14s-8.94,33.07,2,51.65Z"/><path id="Pfad_4566" data-name="Pfad 4566" class="cls-6" d="M459.74,578.24a.41.41,0,0,1-.38-.26c-9.28-23.07-2.58-41,2.84-48a.4.4,0,0,1,.56,0l0,0a.42.42,0,0,1,0,.57c-.59.75-14.2,18.69-2.75,47.15a.41.41,0,0,1-.21.54h0Z"/><path id="Pfad_4567" data-name="Pfad 4567" class="cls-8" d="M461.21,578.52c-2.3-9.1,4.1-24.19,13.84-30.53,8.75-5.68,13.92-5.29,16.45-2.1s-1.42,8-8.17,12.07-17.73,13.07-18.1,23.4Z"/><path id="Pfad_4568" data-name="Pfad 4568" class="cls-6" d="M462.74,578.21h0a.41.41,0,0,1-.34-.46c2-14.36,14-27.78,23.46-30.33a.41.41,0,0,1,.5.29.41.41,0,0,1-.29.5h0c-9.21,2.41-20.94,15.6-22.87,29.65a.4.4,0,0,1-.43.35Z"/></g><g id="freepik--plants--inject-3-5"><path id="Pfad_4569" data-name="Pfad 4569" class="cls-7" d="M347.66,583.84c7.89-14.7,3.27-31.29-3.51-42.92-7.19-12.34,2-20.44,11.29-11.13s8.95,33.07-2,51.65Z"/><path id="Pfad_4570" data-name="Pfad 4570" class="cls-6" d="M353.15,578.63H353a.41.41,0,0,1-.24-.53h0c11.43-28.46-2.16-46.4-2.75-47.15a.43.43,0,0,1,0-.58.4.4,0,0,1,.56,0h0c5.43,7,12.14,24.9,2.85,48A.42.42,0,0,1,353.15,578.63Z"/><path id="Pfad_4571" data-name="Pfad 4571" class="cls-8" d="M351.68,578.94c2.32-9.1-4.08-24.2-13.82-30.52-8.77-5.7-13.92-5.29-16.47-2.11s1.42,8,8.17,12.08,17.71,13.07,18.09,23.4Z"/><path id="Pfad_4572" data-name="Pfad 4572" class="cls-6" d="M350.16,578.63a.41.41,0,0,1-.41-.36c-1.93-14-13.66-27.22-22.87-29.64a.4.4,0,0,1-.36-.45.41.41,0,0,1,.45-.36l.11,0c9.46,2.47,21.5,16,23.48,30.32a.43.43,0,0,1-.36.46Z"/></g></g><g id="freepik--Globe--inject-3"><g id="freepik--globe--inject-3-2"><path id="Pfad_4573" data-name="Pfad 4573" class="cls-3" d="M459.16,630.16a22.93,22.93,0,0,0,1.55-2.56c.13-.23.25-.46.36-.7a19.59,19.59,0,0,0,.95-2.26l.26-.7a23.31,23.31,0,0,0,.72-2.85h0a19.19,19.19,0,0,0,.24-2.93v-.87a15.27,15.27,0,0,0-.16-2,6.16,6.16,0,0,0-.16-1.06c-.13-.64-.3-1.29-.49-2-.1-.31-.18-.63-.3-1a19,19,0,0,0-1.14-2.71c-.15-.3-.33-.56-.49-.85a21.22,21.22,0,0,0-1.14-1.9l-.82-1.13c-.21-.28-.38-.56-.6-.83l-1-1.1-.54-.6a67.32,67.32,0,0,0-101.57,0l-.44.49c-.34.41-.69.82-1,1.18a6.18,6.18,0,0,0-.64.88c-.21.29-.52.68-.75,1-.46.67-.87,1.36-1.26,2.05-.12.24-.28.47-.39.7a21.14,21.14,0,0,0-1.18,2.77c-.1.28-.16.58-.24.85a19.21,19.21,0,0,0-.53,2.08,6.2,6.2,0,0,1-.16,1c-.1.72-.15,1.44-.18,2.16v.75a19.32,19.32,0,0,0,1,5.93,2.16,2.16,0,0,0,.21.62,22.32,22.32,0,0,0,1,2.36l.29.62a26.6,26.6,0,0,0,1.64,2.7.21.21,0,0,0,0,.11,29.34,29.34,0,0,0,2.32,2.89l.18.18c.77.83,1.61,1.65,2.5,2.46l.64.53a27.14,27.14,0,0,0,2.61,2.06c.23.17.44.35.69.51,1.2.86,2.44,1.65,3.72,2.39,22.47,13,59,13,81.45,0,1.33-.77,2.54-1.56,3.7-2.37.27-.18.5-.38.76-.56.9-.65,1.74-1.31,2.54-2l.7-.6a33.26,33.26,0,0,0,2.4-2.35l.26-.27a31.24,31.24,0,0,0,2.29-2.84Z"/><path id="Pfad_4574" data-name="Pfad 4574" class="cls-9" d="M459.16,630.16a22.93,22.93,0,0,0,1.55-2.56c.13-.23.25-.46.36-.7a19.59,19.59,0,0,0,.95-2.26l.26-.7a23.31,23.31,0,0,0,.72-2.85h0a19.19,19.19,0,0,0,.24-2.93v-.87a15.27,15.27,0,0,0-.16-2,6.16,6.16,0,0,0-.16-1.06c-.13-.64-.3-1.29-.49-2-.1-.31-.18-.63-.3-1a19,19,0,0,0-1.14-2.71c-.15-.3-.33-.56-.49-.85a21.22,21.22,0,0,0-1.14-1.9l-.82-1.13c-.21-.28-.38-.56-.6-.83l-1-1.1-.54-.6a67.32,67.32,0,0,0-101.57,0l-.44.49c-.34.41-.69.82-1,1.18a6.18,6.18,0,0,0-.64.88c-.21.29-.52.68-.75,1-.46.67-.87,1.36-1.26,2.05-.12.24-.28.47-.39.7a21.14,21.14,0,0,0-1.18,2.77c-.1.28-.16.58-.24.85a19.21,19.21,0,0,0-.53,2.08,6.2,6.2,0,0,1-.16,1c-.1.72-.15,1.44-.18,2.16v.75a19.32,19.32,0,0,0,1,5.93,2.16,2.16,0,0,0,.21.62,22.32,22.32,0,0,0,1,2.36l.29.62a26.6,26.6,0,0,0,1.64,2.7.21.21,0,0,0,0,.11,29.34,29.34,0,0,0,2.32,2.89l.18.18c.77.83,1.61,1.65,2.5,2.46l.64.53a27.14,27.14,0,0,0,2.61,2.06c.23.17.44.35.69.51,1.2.86,2.44,1.65,3.72,2.39,22.47,13,59,13,81.45,0,1.33-.77,2.54-1.56,3.7-2.37.27-.18.5-.38.76-.56.9-.65,1.74-1.31,2.54-2l.7-.6a33.26,33.26,0,0,0,2.4-2.35l.26-.27a31.24,31.24,0,0,0,2.29-2.84Z"/><g id="Gruppe_6531" data-name="Gruppe 6531" class="cls-10"><path id="Pfad_4575" data-name="Pfad 4575" class="cls-3" d="M414.44,597.5c-2.45.62,2.39,9.64,7.6,25.65,2.74,8.47,4.22,20.6,18,13.86,12.7-6.22,2.06-20.88-7.77-30.24C423.51,598.43,417.07,596.83,414.44,597.5Z"/><path id="Pfad_4576" data-name="Pfad 4576" class="cls-3" d="M416.71,592c1.29.67,9.25,1.72,22.06,13.68,6.88,6.43,12.25,14.57,14.82,15.62s4.35-10.22,0-15.84a44.89,44.89,0,0,0-21-14.94C423.7,587.85,414.57,590.87,416.71,592Z"/><path id="Pfad_4577" data-name="Pfad 4577" class="cls-3" d="M405.63,645.05c-13.22,0-15.45-2.39-10.36-23.71,2.68-11.26,8.17-22.56,10.36-22.56s7.68,11.3,10.38,22.56C421.11,642.66,418.87,645.05,405.63,645.05Z"/><path id="Pfad_4578" data-name="Pfad 4578" class="cls-3" d="M396.84,597.5c2.45.62-2.38,9.64-7.6,25.65-2.74,8.47-4.21,20.6-18,13.86-12.7-6.22-2.06-20.88,7.78-30.24C387.77,598.43,394.21,596.83,396.84,597.5Z"/><path id="Pfad_4579" data-name="Pfad 4579" class="cls-3" d="M394.55,592c-1.27.67-9.23,1.72-22,13.68-6.88,6.43-12.25,14.57-14.82,15.62s-4.34-10.22,0-15.84a44.84,44.84,0,0,1,21-14.94C387.58,587.85,396.71,590.87,394.55,592Z"/></g><path id="Pfad_4580" data-name="Pfad 4580" class="cls-3" d="M405.63,530.15a9.06,9.06,0,0,0-4.41,1.06,3.27,3.27,0,0,0-1.78,2.26h0c-1.11,26.39-3.17,39.21-11.6,53.18,0,2.63,1.73,5.26,5.23,7.27a25.51,25.51,0,0,0,12.6,3h0a25.54,25.54,0,0,0,12.61-3c3.5-2,5.23-4.64,5.23-7.27-8.43-14-10.49-26.8-11.6-53.18h0a3.27,3.27,0,0,0-1.78-2.26A9.13,9.13,0,0,0,405.63,530.15Z"/><path id="Pfad_4581" data-name="Pfad 4581" class="cls-11" d="M405.63,530.15a9.06,9.06,0,0,0-4.41,1.06,3.27,3.27,0,0,0-1.78,2.26h0c-1.11,26.39-3.17,39.21-11.6,53.18,0,2.63,1.73,5.26,5.23,7.27a25.51,25.51,0,0,0,12.6,3h0a25.54,25.54,0,0,0,12.61-3c3.5-2,5.23-4.64,5.23-7.27-8.43-14-10.49-26.8-11.6-53.18h0a3.27,3.27,0,0,0-1.78-2.26A9.13,9.13,0,0,0,405.63,530.15Z"/><path id="Pfad_4582" data-name="Pfad 4582" class="cls-4" d="M412,536.15q-6.35.24-12.7,0c-.38,8.26-.87,16.34-1.64,24q8-.15,15.87-1C412.81,551.85,412.35,544.09,412,536.15Z"/><path id="Pfad_4583" data-name="Pfad 4583" class="cls-4" d="M373.43,633.48c-18.73-11.71-17.4-32.68-5-43.3a67.74,67.74,0,0,0-13.61,12l-.44.49c-.34.41-.68.82-1,1.18a6.81,6.81,0,0,0-.64.88c-.21.29-.52.69-.75,1-.46.67-.87,1.35-1.26,2-.11.24-.28.47-.39.7a21.27,21.27,0,0,0-1.18,2.78c-.1.27-.16.57-.26.85-.2.7-.37,1.39-.5,2.07a6.35,6.35,0,0,1-.17,1c-.1.71-.14,1.43-.18,2.15v.75a19.55,19.55,0,0,0,1,6,3.48,3.48,0,0,0,.21.62,22.23,22.23,0,0,0,1,2.35l.29.62a26.14,26.14,0,0,0,1.63,2.7v.12a32.24,32.24,0,0,0,2.32,2.89l.18.18c.78.83,1.61,1.64,2.5,2.45l.64.54a28.94,28.94,0,0,0,2.62,2.06l.68.51a43.66,43.66,0,0,0,3.73,2.38c22.46,13,59,13,81.45,0,1.32-.77,2.53-1.55,3.69-2.37.28-.18.51-.37.77-.55.9-.66,1.73-1.31,2.53-2l.7-.6a31.29,31.29,0,0,0,2.4-2.35l.26-.26C433.33,649.85,392.17,645.26,373.43,633.48Z"/><path id="Pfad_4584" data-name="Pfad 4584" class="cls-7" d="M534.6,463.89A182.82,182.82,0,0,1,276,463.84c-71.39-71.41-71.36-187.17,0-258.56l-11.8-11.78c-82.21,82.21-90.05,207.7-7.79,289.9S464,557.72,546.3,475.51Z"/><path id="Pfad_4585" data-name="Pfad 4585" class="cls-12" d="M251.73,207.11,263.66,219q5.86-7.18,12.43-13.76l-11.8-11.78Q257.67,200.12,251.73,207.11Z"/><path id="Pfad_4586" data-name="Pfad 4586" class="cls-12" d="M534.6,463.89A183.14,183.14,0,0,1,521,476.23l11.84,11.84q6.91-5.93,13.5-12.48Z"/><path id="Pfad_4587" data-name="Pfad 4587" class="cls-8" d="M206.29,352.47c5.28,43.22,20.83,93.4,62.71,130.2C304.68,514,359.26,547.27,443.3,535c-64.94,16.44-134.58.64-186.8-51.58-79.77-79.77-74.79-200.24.67-282.43C254.07,204.68,196.76,274.55,206.29,352.47Z"/><path id="Pfad_4588" data-name="Pfad 4588" class="cls-7" d="M552.82,492.29a10.36,10.36,0,0,0,7.34-17.7l-295-294.75a10.4,10.4,0,0,0-14.94,14.48l.24.23,295,294.72a10.42,10.42,0,0,0,7.33,3Z"/><path id="Pfad_4589" data-name="Pfad 4589" class="cls-8" d="M265.19,179.84l295,294.75a10.42,10.42,0,0,1,2.37,11A10.09,10.09,0,0,1,552,483l-295-294.75a10.37,10.37,0,0,1-2.37-10.95,10.33,10.33,0,0,1,10.49,2.5Z"/><path id="Pfad_4590" data-name="Pfad 4590" class="cls-3" d="M235.91,334.56a169.44,169.44,0,1,0,72.73-139.15A169.45,169.45,0,0,0,235.91,334.56Z"/><path id="Pfad_4591" data-name="Pfad 4591" class="cls-13" d="M235.91,334.56a169.44,169.44,0,1,0,72.73-139.15A169.45,169.45,0,0,0,235.91,334.56Z"/><path id="Pfad_4592" data-name="Pfad 4592" class="cls-3" d="M440.27,192.78c-7.25-2.76-17.5-3.9-12.45,2.86s9.17,8.86,7.09,14.19-7.76,9.51-7.56,13.95,1.26,9.95,4.49,9.8,14.09-5.54,18.2-3.45,18.42,8.58,22.43,4.66,6-2.71,11.65-6.62,8.17-11,4-12.76-5.52-.15-12.43-3.51-8.32-9.38-15.75-10.92S445.58,194.81,440.27,192.78Z"/><path id="Pfad_4593" data-name="Pfad 4593" class="cls-3" d="M412.8,184c-9.9,1.1-29.72.79-36.8-4.61-3.5-2.7-7.56-6.16-12.22-9.1a169.94,169.94,0,0,0-97.61,67.54,55.89,55.89,0,0,0,2.7,13.85c3.27,9.8,9.36,13.32,16.65,18s3,8.17,5.05,14.33,2.58,9.57,6,13.84-4.45,6.53-8.17,11-5.43,7-5.92,18.84,6.67,24.41,8.17,29.67-5.62,7.8-7.64,16.72-11.34,31-8.3,46.76,8.43,16.21,11.16,7.5,3.26-17.78,10.61-22.16,16.67,1.26,24.68-9,9.93-8.83,16.87-10.6,5.9-6.13,14.47-13.08S366,358.62,360.06,352s-10.95-8.17-13.79-19.47a87.51,87.51,0,0,0-16.5-32.25c-7.16-8.63-24.1-8.38-29.23-12.39s-4.37-16.5-2.29-20.62-1.78-6.94-6.37-7.58-5.84-4.22-4.76-10.26,12.58-9.61,19.84-7.32,9.8,7.06,7.5,16.7a19,19,0,0,0,7.81,20.78c5.85,4.22,4.49-4.16,1.73-10.62s-1.39-10.78,6.16-19.61,15.78-4.6,25.9-11.43,8.53.72,14.59,4.21,6.54-.34,11.21-5.24,10.88,3.41,19.51,1.34-2.44-15.1,1.06-21.24,9.8-3.27,10.1-14.33,5.36-9.48,9.35-12.06S422.61,182.85,412.8,184Zm-18.93,19.72c-4,3.91-5.49,2.26-11.07,6.08s-12.17,4.54-15.86,3.56-7-9.54-5.72-13.53,7.3-2.89,13.94-1.19,13.07,1.11,20.65-1.08c5.9-1.74,2,2.26-2,6.16Z"/><path id="Pfad_4594" data-name="Pfad 4594" class="cls-3" d="M567,385.46l-.13.46a11.91,11.91,0,0,0-8.72,3.69c-7.08,7.34-6.19,3.27-17,5.82s-9.46,8.58-11.44,14.71-14.38,9-20,9.23-13.23,13-14.31,20.21-10.09,6.78-17.36,10.88-14.08,13.07-19.2,16.67a16,16,0,0,1-17.38.91c-5.36-3.26-6.88-14.91-6.68-24.41a51.59,51.59,0,0,1,8.17-27.3c5.37-8.25,4.3-7.4,7.77-22.25s-4.74-23-9.6-26.5-15.09-4-18.78-8.7-4.13-9.65-2-24.11,9.8-14.84,17.81-19.9,21-8.53,31.05-7.4,15.23,6,19.61,11,4.54,12.17,8.3,14.17,7.95,1.31,11.6,3.64,5.5,5.31,9.59,6.2,3.43-4.5,3.85-7.16-3.26-3.42-7.89-5.3-5.24-3.61-5.67-7.32-4.12-2.09-5.83-4.23-3.55,3.68-4.61,5.77-1.22-2.42-1.22-2.42-3.09,2.22-3.37.53,2.92-4.24,4-7.72-4.1-4.64-6.11-8.46-6.1-5.9-10.8-6.18-5.07-1.63-8.37,1.34-13.33,1.78-16,.17,1.64-6.65,6.2-10.8,8.87-.41,14.1-4.33,1.2-6.39-1.36-8.4-2.35-5.13,3.27-10.53,9-2,9.41,1.77,3.46,6.68,7.37,8.28,4.05-1.5,6.22-7.19,6-7.68,12-7.77,16-.17,20.54-1.92,9.54,2.59,11.29,7.13,8.07,8.51,14.7,12.6a6.38,6.38,0,0,0,5.75.36A168.51,168.51,0,0,1,567,385.46Z"/><path id="Pfad_4596" data-name="Pfad 4596" class="cls-14" d="M502.12,211.54c-88.6-69-134.64-8.17-98.77,56.08s121.19,114.88,144.81,91.5S568,262.91,502.12,211.54Z"/><path id="Pfad_4595" data-name="Pfad 4595" class="cls-3" d="M506.53,451c-3.58-2.19-3.74-.78-7.19,1.32s-8.17,4.24-8.77,7.6-1.91,7.37,1.63,6.11,3.76-4.4,8.17-4.59S511.87,454.27,506.53,451Z"/><path id="Pfad_4597" data-name="Pfad 4597" class="cls-4" d="M331.11,396.28c-52.29-95-.21-218.09,84.08-230.85h0c-3.27-.2-6.53-.33-9.8-.33A169.43,169.43,0,1,0,526.14,453.35C491.91,475.06,383.39,491.26,331.11,396.28Z"/></g></g><g id="freepik--Locators--inject-3"><path id="freepik--pin--inject-3" class="cls-15" d="M358.07,117.6a15.62,15.62,0,0,0-12.46,18.22c2.73,14.56,20.63,25.44,20.63,25.44s12.78-16.63,10.05-31.17a15.62,15.62,0,0,0-18.22-12.49Zm4.09,21.83a7.56,7.56,0,1,1,6-8.83h0A7.58,7.58,0,0,1,362.16,139.43Z"/><path id="freepik--pin--inject-3-2" class="cls-15" d="M542.17,157a15.59,15.59,0,0,0-21.71,3.91h0c-8.45,12.15-3.61,32.56-3.61,32.56s20.81-2.6,29.25-14.7a15.59,15.59,0,0,0-3.83-21.71l-.1-.07Zm-12.66,18.23a7.54,7.54,0,1,1,5.66,1.24A7.55,7.55,0,0,1,529.51,175.25Z"/></g><path id="Differenzmenge_54" data-name="Differenzmenge 54" class="cls-16" d="M137,111.36H44.63a12.77,12.77,0,1,1,4.43-24.75A21.92,21.92,0,0,1,83,71.24,28.3,28.3,0,0,1,139.09,76h0v9.79A12.77,12.77,0,1,1,137,111.18h0v.17Z"/><path id="Differenzmenge_55" data-name="Differenzmenge 55" class="cls-16" d="M717.76,66.36H810.1a12.77,12.77,0,1,0-4.44-24.75,21.91,21.91,0,0,0-33.95-15.37,28,28,0,0,0-3.48-9.08A28.3,28.3,0,0,0,715.63,31h0v9.79a12.78,12.78,0,1,0,2.13,25.37h0v.18Z"/><path id="Differenzmenge_56" data-name="Differenzmenge 56" class="cls-16" d="M215.71,151.36H143.86a8.16,8.16,0,0,1-5.66-2.43A8.11,8.11,0,0,1,144,135.14l.55,0h7.69a14,14,0,0,1,13.82-11.64,14.46,14.46,0,0,1,3.47.43,13.81,13.81,0,0,1,3.16,1.23,17.6,17.6,0,0,1,2.34-5.5,18.13,18.13,0,0,1,31.8,2.4,17.8,17.8,0,0,1,1.53,6.85h0v6.23h6.78l.55,0a8.16,8.16,0,0,1,5.77,2.38,8.11,8.11,0,0,1-5.62,13.84Z"/><path id="Differenzmenge_57" data-name="Differenzmenge 57" class="cls-16" d="M594,137.36h71.84a8.17,8.17,0,0,0,5.67-2.43,8.11,8.11,0,0,0-5.82-13.79l-.55,0h-7.7a14,14,0,0,0-13.81-11.64,14.46,14.46,0,0,0-3.47.43,13.81,13.81,0,0,0-3.16,1.23,17.84,17.84,0,0,0-2.34-5.5,18.13,18.13,0,0,0-31.8,2.4,17.8,17.8,0,0,0-1.53,6.85h0v6.23h-6.79l-.54,0a8.16,8.16,0,0,0-5.77,2.38,8.11,8.11,0,0,0,5.61,13.84Z"/><g id="freepik--character-1--inject-7"><g id="freepik--character--inject-7"><path id="Pfad_7146" data-name="Pfad 7146" class="cls-17" d="M150.53,292.63l-8.17,26s-25.2,14-36.8,19.1c3.77,2.35,6.53,5.75,9.67,12.56l2.55,6.85s22.48-14.06,35.21-24c5.8-4.53,6.54-8.76,7.32-13.3,1-5.56,1.46-8.79,2.83-19,.33-2.55.69-4.9,1-7.11a107,107,0,0,1,2.55-10.9,26.33,26.33,0,0,0,.59-10.78,12.45,12.45,0,0,0-10.18-11.8,3.34,3.34,0,0,0-4,1.29,4.6,4.6,0,0,0-.16,2.6c.44,3.66,1.22,7.38.5,11a1.64,1.64,0,0,1-.63,1.19c-.77.44-2.06-2.35-2.63-2.91a3.28,3.28,0,0,0-4.45-.59c-.55.48.74,1.72,1.64,4.51,1,3.55.6,6.54,2.66,9.95a7,7,0,0,1,.49,5.38Z"/><path id="Pfad_7148" data-name="Pfad 7148" class="cls-18" d="M102.87,337.87l19.36-9.16s3.28-.1,7.4,6.44a17.85,17.85,0,0,1,2.27,13.23L117.22,360Z"/><path id="Pfad_7120" data-name="Pfad 7120" class="cls-12" d="M71.62,592.56c-.31,1.35-1,5.19-8.1,5.29s-11.24-2.78-12.65-6.33-.69-6.33-.6-9.45S48,577,47.43,575.25c-.8-2.53,1.27-6,1.27-6Z"/><path id="Pfad_7121" data-name="Pfad 7121" class="cls-12" d="M138.08,572a4.24,4.24,0,0,1-.27,3.43,14.88,14.88,0,0,1-11.13,3.6A27.29,27.29,0,0,1,114.49,575a15.77,15.77,0,0,0-9.36-2.19c-3.39.06-5.91-.57-6.21-1.45-.54-1.53-.59-2.53.16-2.53Z"/><path id="Pfad_7122" data-name="Pfad 7122" class="cls-17" d="M51,564c.09,6.49,12.52,7.51,12.14,2.28l4.13-15.19-14.06-1.27Z"/><path id="Pfad_7123" data-name="Pfad 7123" class="cls-12" d="M71.51,589.32a40.37,40.37,0,0,0-2.73-4.25,34.87,34.87,0,0,1-5-19.46c0-.38,0-1.12-.28-1.38s-.77,0-1.19.11h0a7.71,7.71,0,0,1-2.24.3,39.8,39.8,0,0,1-5.84-1c-.49,0-.82,1.48-1,3.1-.81-.67-1-1.81-1.67-2.53-.4-.39-.57-.43-.5-1s.12-.71.17-1.08c-.61-.26-1.45,2.1-2.2,3.9-.88,2.08-1.93,4.42-1.35,6.73a19.25,19.25,0,0,0,1.55,3.62,13.86,13.86,0,0,1,1.78,6.5c0,1-.22,2-.21,3a8.74,8.74,0,0,0,5.23,7.86c4.1,1.86,10.54,2.44,14.67-.08C72.17,592.77,72,590.54,71.51,589.32Z"/><path id="Pfad_7124" data-name="Pfad 7124" class="cls-17" d="M101.41,558c3.55,2.53,6.8,2.74,10.9.62l1.77-22.16-15.19.2Z"/><path id="Pfad_7125" data-name="Pfad 7125" class="cls-8" d="M66.14,411.63c-2.45,25.78-5.4,82-5.4,82a63.16,63.16,0,0,0-5.6,20.25c-1.82,15.37-3.8,44.57-3.8,44.57s7.25,4.56,14.2,2.22c0,0,15.33-46.27,18.3-61.41,2.53-13.22,7.07-45.38,7.07-45.38l6.72,41.77a57.85,57.85,0,0,0-1.73,18c.39,7.09,3.56,34.18,3.56,34.18,2.33,2.15,11.21,2.32,14.15.39,0,0,3.65-45.19,4.17-52.65.68-9.81,1.17-85.19,1.17-85.19Z"/><path id="Pfad_7126" data-name="Pfad 7126" class="cls-7" d="M90.9,453.86,94.13,438a37.65,37.65,0,0,0,13.08-6.33s-1.95,5.06-10.3,9.06l-3.3,14.88,3.52,37.54Z"/><path id="Pfad_7127" data-name="Pfad 7127" class="cls-12" d="M135,567.62a72.48,72.48,0,0,1-15.19-7,27.26,27.26,0,0,1-2.45-1.82c-1.49-1.47-2.44-4.7-3.09-5.07-.21-.11-.5,0-.92.3a1.09,1.09,0,0,0-.68-.4l-.08.9a9.83,9.83,0,0,1-3.92,1.56c-3.56.49-3.71-.22-3.8,1a6.63,6.63,0,0,0,0,1.26c-1.9-.21-3.42-.75-3.54-1.45l-.33-2.28c-1.9-.07-1.85,3.3-2.28,7.12-.35,3.07-1,5.34,0,7.6,3,2.34,8,1.48,10.83,1.81,4.08.45,6.13,3.35,11.85,5.06,9.22,2.67,14.76-1.26,16.38-2.9C138.8,571,138.2,568.72,135,567.62Z"/><path id="Pfad_7128" data-name="Pfad 7128" class="cls-7" d="M83,337.44c-6.42.38-12.25,1.58-17.29,2.33-2.83.87-4.83,7.19-3.52,16.52,2,14.24,4.75,36.47,4.75,36.47l-1.61,23.67c6.54,6.81,37.5,9.41,53.84-.92,0,0-.2-47.05-.75-55-1-13.92-9.17-22.79-14.32-23.08Z"/><path id="Pfad_7129" data-name="Pfad 7129" class="cls-12" d="M79.47,295.49s-3.93.61-5.34,3.6c-1.27,2.61-.68,8.86,1.09,15.61a62.53,62.53,0,0,0,4.42,12.66,5.17,5.17,0,0,0,3,2.36l-.3-8.06L82,316s3.55-5,3.89-9c.43-5.21-.7-7.32-.7-7.32Z"/><path id="Pfad_7130" data-name="Pfad 7130" class="cls-12" d="M78.56,296.55,73,294a3.27,3.27,0,0,1,4.19-1.78,3.13,3.13,0,0,1,1.45,4.19l-.06.12Z"/><path id="Pfad_7131" data-name="Pfad 7131" class="cls-12" d="M85.94,303.21a15.08,15.08,0,1,0,14.83-15.32h0A15.08,15.08,0,0,0,85.94,303.21Z"/><path id="Pfad_7132" data-name="Pfad 7132" class="cls-17" d="M82.21,315.2c-1.34,1.27-2.53-1.84-3.65-3s-4.9-2.73-6.68,1.2,1.83,9.37,4.62,10.62c4.1,1.82,5.87-2.3,5.87-2.3l.66,17c4.39,7.67,9.17,9.07,14.55,8.5,4.44-.94,4.86-4.7,1.86-8.05l-.1-5.54a31.56,31.56,0,0,0,6.8.25c3.7-.64,5.58-3.46,6.64-7.49,1.7-6.46,2.27-17.31-.38-29.8-4.2-3.15-18.57-2.43-27.2,3.22C86,310.86,83.54,314,82.21,315.2Z"/><path id="Pfad_7133" data-name="Pfad 7133" class="cls-12" d="M114.34,287.69a.72.72,0,0,0-.55-.42,1,1,0,0,0-.49.23,23.66,23.66,0,0,1-3.28,2.27,11.75,11.75,0,0,0,0-4.5c-.18-.91-.47-3-1.6-3.24-.67-.12-1.27.46-1.75.93-4.47,4.3-10.4,2.41-15.86,2.67-4.56.2-10,2.14-12,6.6-.91,2-1,4.19.84,5.57a13,13,0,0,0,5.58,2c9.11,1.45,22.19,5.06,28.8-3.56a6.74,6.74,0,0,0,1.34-4.46,9.2,9.2,0,0,0-1-4.08Z"/><path id="Pfad_7134" data-name="Pfad 7134" class="cls-19" d="M99.33,333.59s-8.3-1.52-11.21-3a9.55,9.55,0,0,1-4.07-3.89,13.08,13.08,0,0,0,2.36,4.64c2.15,2.65,13,4.47,13,4.47Z"/><path id="Pfad_7135" data-name="Pfad 7135" class="cls-12" d="M98.3,312.93a1.83,1.83,0,1,1-1.87-1.87,1.84,1.84,0,0,1,1.86,1.83v0Z"/><path id="Pfad_7136" data-name="Pfad 7136" class="cls-12" d="M95.77,306.68l-3.19,2.53A2.13,2.13,0,0,1,93,306.3,2,2,0,0,1,95.77,306.68Z"/><path id="Pfad_7137" data-name="Pfad 7137" class="cls-17" d="M97.87,323.54l5.31,1.89a2.75,2.75,0,0,1-3.43,1.85l-.12,0A2.94,2.94,0,0,1,97.87,323.54Z"/><path id="Pfad_7138" data-name="Pfad 7138" class="cls-20" d="M99.63,327.24a2.65,2.65,0,0,0,1.45.09,2.52,2.52,0,0,0-2.53-2.42,2,2,0,0,0-.72.13,2.89,2.89,0,0,0,1.8,2.2Z"/><path id="Pfad_7139" data-name="Pfad 7139" class="cls-12" d="M112.15,307.16l-3.8-1.35a2,2,0,0,1,2.48-1.29l0,0A2.15,2.15,0,0,1,112.15,307.16Z"/><path id="Pfad_7140" data-name="Pfad 7140" class="cls-12" d="M111.41,311.59a1.82,1.82,0,1,1-1.86-1.87,1.84,1.84,0,0,1,1.86,1.83Z"/><path id="Pfad_7141" data-name="Pfad 7141" class="cls-19" d="M103,310.69l.73,10.2,5.17-1.86Z"/><path id="Pfad_7147" data-name="Pfad 7147" class="cls-17" d="M121.07,395.56,93.6,381.33S88,371.1,81.66,358c-10.87-16.53-16.47-17.5-16.47-17.5-12.54,7-7.55,17.63,9.33,50,3.26,6.3,7.63,7.87,16.47,11,5.62,2,8.59,3.14,19.44,6.54,2.6.82,5.9,1.75,8.17,2.43,3.77,1.2,6.32,2.37,10.25,3.5a41.33,41.33,0,0,0,11.22,2.3,15.72,15.72,0,0,0,8.17-1.63,15.9,15.9,0,0,0,5.85-7.14,3.55,3.55,0,0,0-.73-4.41,4.89,4.89,0,0,0-2.7-.56c-3.91-.11-7.93.13-11.6-1.19a1.78,1.78,0,0,1-1.18-.85c-.33-.87,2.79-1.8,3.46-2.3a3.51,3.51,0,0,0,1.33-4.58c-.41-.65-1.91.51-4.9.95-3.91.56-6.91-.37-10.85,1.24a7.35,7.35,0,0,1-5.85-.26Z"/><path id="Pfad_7149" data-name="Pfad 7149" class="cls-18" d="M67.52,339c-10.91,3.62-10.31,12.09-9.55,16.16a38.52,38.52,0,0,0,3.46,9.93c4,9.15,11.63,23.6,11.63,23.6s9-1,20.43-11.24c0,0-13.38-26.33-14.71-28.9C77.62,346.36,73.26,339.29,67.52,339Z"/></g><path id="Pfad_7144" data-name="Pfad 7144" class="cls-19" d="M94.93,324.05l9.06.79a4.47,4.47,0,0,1-4.64,4.28h-.18A4.76,4.76,0,0,1,94.93,324.05Z"/><path id="Pfad_7145" data-name="Pfad 7145" class="cls-21" d="M97.62,326a3.4,3.4,0,0,0-1.71,1.2,4.64,4.64,0,0,0,3.35,2,4.32,4.32,0,0,0,2.84-.71A3.57,3.57,0,0,0,97.69,326l-.07,0Z"/></g><g id="freepik--character-2--inject-7"><g id="freepik--Character--inject-7-2"><path id="Pfad_7083" data-name="Pfad 7083" class="cls-22" d="M678.57,354.18c-4.49-3.65-15.92-10.81-19.16-12.93-3.73-2.44-8.68-5.9-12.29-8.51,0,0-14.6-23.33-14.73-25.6l-3.23-8.77c-.48-1.4,0-4.82.29-7,.28-2.42.87-4.52,1-5.57.68-4.12-5.26-6-7.88-3.94a14.13,14.13,0,0,0-4.59,6.79c-3.41,10.34,3.39,22.43,3.39,22.43S631,332.89,633,336.84a24.43,24.43,0,0,0,5.64,8S656.14,359,659.9,361.92c4.73,3.6,6.7,5.33,10,6,1.84.39,1.85.33,7.32.36a18.22,18.22,0,0,0,1.57-4.65C679,362.28,679.56,355,678.57,354.18Z"/><path id="Pfad_7092" data-name="Pfad 7092" class="cls-8" d="M661.62,364l6.56,4.95,15.36-14.37c-1.89-1.52-5.85-3.15-9.38-4.87a73.58,73.58,0,0,1-6.57-3.48C667.49,346.18,661.72,354.39,661.62,364Z"/><path id="Pfad_7093" data-name="Pfad 7093" class="cls-22" d="M634.54,297.84c.14-2.31-.42-4.56.07-6.84.12-.57.16-1.31-.41-1.5a.79.79,0,0,0-.48,0,4.49,4.49,0,0,0-2.63,3.09c-.42,1.2-.66,3.53-2.34,4.74l3.82,10.35C632.4,305.05,634.35,301.3,634.54,297.84Z"/><path id="Pfad_7094" data-name="Pfad 7094" class="cls-7" d="M689,562.33a.84.84,0,0,1,.64.54c.45,1.22.51,2.62.85,3.94a20.1,20.1,0,0,1,.91,6.45c-.22,1.63-2.29,3.33-6.28,4.74a27.47,27.47,0,0,0-8.54,5.25,20.4,20.4,0,0,1-10.68,5.35c-4.15.39-8.85-.87-10-3.8-.52-1.24-1-3.36,4.82-6.08a35.77,35.77,0,0,0,5.62-3.1c2.63-1.82,6.66-4.23,8.81-6.57a11.71,11.71,0,0,0,2.88-8.13,5,5,0,0,1,6.91,4.86c.29.14.63-.15.71-.46a7.85,7.85,0,0,0,0-1,2,2,0,0,1,1.31-1.55,4,4,0,0,1,2.08-.48Z"/><path id="Pfad_7095" data-name="Pfad 7095" class="cls-7" d="M741.61,562.27a8.51,8.51,0,0,0-.51,2.87,16.66,16.66,0,0,0-.34,2.44c0,.72-.18,1.59-.85,1.85a1.49,1.49,0,0,1-1.52-.5c-.38-.42-.62-.94-1-1.4a4.07,4.07,0,0,0-3-1.66c-1.2-.06-1.31,0-2.07.92.09.24.59,1.42.68,1.64a27,27,0,0,1,1,17.16,12.93,12.93,0,0,1-3.07,4.25,17.83,17.83,0,0,1-1.85,1.63c-.58.46-1.15,1-1.22,1.49a3.3,3.3,0,0,0,.35,2,3.7,3.7,0,0,0,2.26,1.64,14.53,14.53,0,0,0,10.77-.34,10,10,0,0,0,3.64-3.08c2-3.48,1.77-6.8,1.79-9.8a66,66,0,0,1,1.74-13.35C749,566.05,742.86,561.69,741.61,562.27Z"/><path id="Pfad_7096" data-name="Pfad 7096" class="cls-22" d="M741.61,562.28a28,28,0,0,1-1.41-3.94s-4.27-30.91-8-39.86a43.66,43.66,0,0,0-10.09-15.23s-.3-34.89.12-47.75c.54-16.86-2-27.58-5.52-36.34l-45.54-5.57c-1.5,12.5-3.19,65-1.5,83l.25,1.31c1.7,10.64,6.94,53.85,7.6,58.79s.34,7.48-1.93,10.27S668,574.1,663.8,577.4c-2.25,1.61.81,3.7,4.57,2.69,4.62-1.31,12-6.46,13.74-7.88,3.37-2.81,6.71-4.44,7-9a21.68,21.68,0,0,1-.3-5.91c.92-10.64,4.35-40.6,3-48.1a68.72,68.72,0,0,0-3.07-10.51l4.57-43.21c3.34,17.08,6.46,48.31,11.18,56.36,5.92,10.26,26.8,52.33,26.8,52.33l.93,2.23a57,57,0,0,1,1.88,11.52c.1,1.74.16,3.85.12,5.59a20.93,20.93,0,0,1-.25,2.62c-.08.55-.5,1.63,0,2.09a1.36,1.36,0,0,0,.9.34,4.35,4.35,0,0,0,1.89-.31,7.42,7.42,0,0,0,5-5.52,75.78,75.78,0,0,0,1.69-15.89,7.63,7.63,0,0,0-1.76-4.52Z"/><path id="Pfad_7097" data-name="Pfad 7097" class="cls-7" d="M695.23,468.4c-.49-4.6-1.81-10.88-1.81-10.88l-1.49,10.59-2.31,27.4s1.31,4.26,2.26,9.2a63.66,63.66,0,0,1,.68,19c-.58,5.93-2.09,16.54-2.09,16.54-8.72,4.54-15.18.84-15.18.84s-1.71-11.6-4.11-30.59a423.79,423.79,0,0,1-3.85-48s.81-35.75,3.94-59.67c7.08,5,28.1,6,36.57-.73,0,0,3.4,5.63,10.82,18.17,5.83,9.84,4.11,25.65,4.22,38.88.15,20.4,0,43.44,0,43.44a65.79,65.79,0,0,1,7.2,9.65c3.71,6,5.62,19.3,5.62,19.3s-3.76,8-16.58,8.33c0,0-12.45-22.67-15.58-27.82S695.71,473,695.23,468.4Z"/><path id="Pfad_7098" data-name="Pfad 7098" class="cls-12" d="M693.42,457.52l-4.68-18a37,37,0,0,1-16-6.09s1.45,6.57,13.78,8.53l5.36,17.68-.31,10.85Z"/><path id="Pfad_7099" data-name="Pfad 7099" class="cls-18" d="M666.45,370.91c4.67-7.22,14-14.1,17.07-16.51l17.62.13c3.47.17,8.54.62,8.54.62,3.66,2,3.48,6.57,3.61,10.82a58.19,58.19,0,0,1-1.13,14.6l-2.37,9.93-.36,1.53a3.5,3.5,0,0,1-.19.79,16.28,16.28,0,0,0,1.41,11.3c4,7.7,8.81,13.53,10.15,20a13.81,13.81,0,0,1-6.09-3.52,40,40,0,0,1-6.24-6.57s-.21,4.38-4.56,10.12a23.29,23.29,0,0,1-3.81,3.94c-7.8,6.57-28.54,5.25-31-8.16,0,0,.71-7.62,1.49-15.85-1.21-7.08-1.85-12.76-2.18-16.07C663,383.29,663,376.23,666.45,370.91Z"/><path id="Pfad_7100" data-name="Pfad 7100" class="cls-23" d="M676.83,387.32s5.78,5.11,12.88,3.08a11.86,11.86,0,0,0,8.51-8s.23,8-8.71,10.14A11.49,11.49,0,0,1,676.83,387.32Z"/><path id="Pfad_7101" data-name="Pfad 7101" class="cls-22" d="M751.22,433.44s-2.27-25.53-2.89-30.39c-.73-5.8-1.87-8.05-3.37-10.23,0,0-14-22.33-17.28-26.44-4.1-5.25-5.88-8.22-9.27-9.89-1.89-.93-2.84-1.06-8.16-1.23-5.35,15.67,4.13,24.95,4.13,24.95l19,23.87s6.93,27.71,6.43,30.21-2.33,5.68-3.31,8.77c-.67,2.08-.7,4.27-1.7,6.24-.23.49-.46,1.21,0,1.47a.86.86,0,0,0,.45,0,4.21,4.21,0,0,0,3.17-2.21c.67-1,.78-1.78,1.44-2.78a24.74,24.74,0,0,1-.79,6.11c-.26,1.31-.47,2.83-.73,3.94-.5,2.2,2.62,3.08,4.79,2.62a7.77,7.77,0,0,0,5-3.42C753.1,448.55,751.22,433.44,751.22,433.44Z"/><path id="Pfad_7102" data-name="Pfad 7102" class="cls-8" d="M709.57,355.15a33.54,33.54,0,0,1,7.88.51c2.8.75,5,3.29,8,7.08s6.94,9.89,6.94,9.89-8.38,8.07-16.57,10l-3-3.94a23.45,23.45,0,0,1-4.76-10.85,26,26,0,0,1,1.43-12.66Z"/><path id="Pfad_7103" data-name="Pfad 7103" class="cls-12" d="M702.44,348.58c0-2.09,7-7.1,10.51-12.4,3.24-4.91,7.77-18.39-3-22.75,0,0,2.31-6.49-1.89-10.3s-9.89-1.47-10.79.13a9.58,9.58,0,0,0-9-7.06,8.36,8.36,0,0,0-8.81,6.56,8.08,8.08,0,0,0-9.89,2.71c-3.94,5.44,1.31,10.43,1.31,10.43a4.51,4.51,0,0,0-2,4.15c.32,2.3,2.52,2.86,2.79,3.94a1.13,1.13,0,0,1-2,1,2.32,2.32,0,0,0,2.7,1.85h0c2.49-.13,4.69-3.49,4.69-3.49Z"/><path id="Pfad_7104" data-name="Pfad 7104" class="cls-22" d="M679.83,312.71c-3.18,1.31-6.2,6.24-6.14,19.85,0,11.52,3.57,14.45,5.36,15.29s5.25.43,8.65-.1v6.57s-8.14,9-2.63,12.75c14.18-2.48,17.29-11.82,17.29-11.82l.25-15.76s1.94,2.05,5.37-1c2.84-2.48,3.85-6.72,1.74-9.06s-4.86-2.52-7.33.09c0,0-5.15.7-12-3.56S680.53,317.14,679.83,312.71Z"/><path id="Pfad_7105" data-name="Pfad 7105" class="cls-12" d="M679.53,328.64a1.53,1.53,0,1,1-1.57-1.47,1.52,1.52,0,0,1,1.57,1.47Z"/><path id="Pfad_7106" data-name="Pfad 7106" class="cls-12" d="M691.73,329.33a1.67,1.67,0,0,1-1.57,1.76h0a1.71,1.71,0,0,1-.12-3.42,1.66,1.66,0,0,1,1.69,1.64Z"/><path id="Pfad_7107" data-name="Pfad 7107" class="cls-20" d="M689.3,339l-4.65,1.44a2.39,2.39,0,0,0,2.85,1.82l.14,0A2.62,2.62,0,0,0,689.3,339Z"/><path id="Pfad_7108" data-name="Pfad 7108" class="cls-12" d="M675.49,325.79l3.94-1.56a2,2,0,0,0-2.59-1.26l-.15,0A2.2,2.2,0,0,0,675.49,325.79Z"/><path id="Pfad_7109" data-name="Pfad 7109" class="cls-12" d="M702.32,327.74v6.41a3,3,0,0,1-3.07-2.94v-.16A3.32,3.32,0,0,1,702.32,327.74Z"/><path id="Pfad_7110" data-name="Pfad 7110" class="cls-20" d="M684.68,327.76l-1.23,9.37-4.17-2Z"/><path id="Pfad_7111" data-name="Pfad 7111" class="cls-20" d="M687.7,347.75c3.57-.42,10.93-2.46,12.14-5.46a7.93,7.93,0,0,1-2.63,3.81c-2.23,1.9-9.5,3.94-9.5,3.94Z"/></g></g><path id="freepik--Pin--inject-3-3" class="cls-15" d="M642.43,267.17a15.61,15.61,0,0,0-20.81-7.35h0c-13.37,6.39-19.25,26.5-19.25,26.5s19.36,8,32.68,1.63a15.59,15.59,0,0,0,7.39-20.78v0Zm-20,9.59a7.56,7.56,0,1,1,4.31,3.86A7.55,7.55,0,0,1,622.39,276.76Z"/><path id="freepik--pin--inject-3-4" class="cls-15" d="M134.91,251.68a15.6,15.6,0,0,1,19.4-10.51h0c14.2,4.22,23.16,23.17,23.16,23.17s-17.87,11-32,6.72a15.59,15.59,0,0,1-10.56-19.37ZM156.2,258a7.55,7.55,0,1,0-3.65,4.49A7.56,7.56,0,0,0,156.2,258Z"/></g></svg>