<svg xmlns="http://www.w3.org/2000/svg" width="568" height="594.34" viewBox="0 0 568 594.34"><defs><style>.a,.h,.n{fill:#207178;}.a{opacity:0.39;}.b{fill:#484848;}.c{fill:#e0e0e0;}.d{fill:#f0f0f0;}.e,.l{fill:#fff;}.f{fill:#e6e6e6;}.g{fill:#263238;}.i{fill:#455a64;}.j{fill:#e8e8e3;font-size:9px;font-family:Montserrat-Regular, Montserrat;}.k{opacity:0.1;}.l,.m,.t{opacity:0.2;}.n{stroke:#207178;}.o{fill:#37474f;}.p{fill:#ebebeb;}.q{fill:#dbdbdb;}.r{fill:#ffbe9d;}.s{fill:#eb996e;}</style></defs><g transform="translate(-179 -3754)"><path class="a" d="M132.469,67H13.273a13.583,13.583,0,0,1,.259-27.162c.3,0,.607.01.9.03H27.2A23.325,23.325,0,0,1,41.928,21.862a23.154,23.154,0,0,1,19.189,1.282,29.993,29.993,0,0,1,59.177,6.281h.008V39.868h11.262c.3-.02.6-.03.905-.03A13.582,13.582,0,0,1,132.728,67l-.144,0h-.115Z" transform="translate(601 3858)"/><path class="a" d="M173.426,104H21.064a21.081,21.081,0,1,1,7.319-40.854A36.159,36.159,0,0,1,84.411,37.768a46.692,46.692,0,0,1,92.513,7.907h.011V61.837a21.081,21.081,0,1,1,0,42.162,21.206,21.206,0,0,1-3.511-.292v0c0,.1,0,.191,0,.288Z" transform="translate(358 3754)"/><g transform="translate(139.32 3841.169)"><g transform="translate(39.68 34.05)"><rect class="b" width="106" height="89" transform="translate(375 228.781)"/><path class="c" d="M487.909,328.363H303v-107H487.909Zm-183.781-1.128H486.781V222.488H304.128Z" transform="translate(-5.909 -10.027)"/><rect class="d" width="121.998" height="3.577" transform="translate(321.856 268.388)"/><rect class="d" width="130.403" height="3.904" transform="translate(321.856 281.724)"/><rect class="d" width="130.403" height="3.904" transform="translate(321.856 295.218)"/><rect class="d" width="42.637" height="9.286" transform="translate(321.856 249.016)"/><rect class="c" width="183.747" height="17.037" transform="translate(297.689 211.897)"/><path class="e" d="M453.862,236.06c-.237-.226,2.132-3.08,5.28-6.375s5.912-5.788,6.138-5.574-2.132,3.08-5.28,6.386S454.088,236.285,453.862,236.06Z" transform="translate(13.437 -9.676)"/><path class="e" d="M465.3,236.06c-.226.226-2.979-2.257-6.138-5.562s-5.517-6.16-5.28-6.386,2.979,2.257,6.138,5.574S465.514,235.834,465.3,236.06Z" transform="translate(13.44 -9.676)"/><rect class="f" width="183.747" height="105.886" transform="translate(70.719)"/><rect class="d" width="121.998" height="3.577" transform="translate(94.897 56.503)"/><rect class="d" width="130.403" height="3.904" transform="translate(94.897 69.839)"/><rect class="d" width="130.403" height="3.904" transform="translate(94.897 83.333)"/><rect class="d" width="42.637" height="9.286" transform="translate(94.897 37.131)"/><rect class="c" width="183.747" height="17.037" transform="translate(70.719)"/><path class="e" d="M252.142,48.179c-.237-.214,2.132-3.08,5.28-6.375s5.912-5.788,6.138-5.562-2.132,3.08-5.28,6.375S252.368,48.382,252.142,48.179Z" transform="translate(-12.434 -33.771)"/><rect class="b" width="178" height="94" transform="translate(1 102.781)"/><path class="e" d="M263.56,48.179c-.226.226-2.979-2.257-6.138-5.562s-5.517-6.149-5.28-6.375S255.12,38.5,258.28,41.8,263.8,47.964,263.56,48.179Z" transform="translate(-12.434 -33.771)"/><path class="c" d="M224.555,220.555H39.68V113.54H224.555ZM40.808,219.426H223.427V114.668H40.808Z" transform="translate(-39.68 -23.855)"/><rect class="d" width="121.998" height="3.577" transform="translate(24.743 146.752)"/><rect class="d" width="130.403" height="3.904" transform="translate(24.743 160.088)"/><rect class="d" width="130.403" height="3.904" transform="translate(24.743 173.581)"/><rect class="d" width="42.637" height="9.286" transform="translate(24.743 127.38)"/><rect class="c" width="183.747" height="17.037" transform="translate(0.564 90.249)"/><rect class="f" width="216.963" height="194.24" transform="translate(181.276 221.216)"/><rect class="d" width="169.96" height="176.583" transform="translate(22.227 160.031)"/><rect class="c" width="169.96" height="19.237" transform="translate(22.227 160.031)"/><path class="e" d="M72.63,184.663a3.565,3.565,0,1,1-3.565-3.723A3.656,3.656,0,0,1,72.63,184.663Z" transform="translate(-36.368 -15.211)"/><path class="e" d="M85.463,184.663A3.577,3.577,0,1,1,81.9,180.94,3.656,3.656,0,0,1,85.463,184.663Z" transform="translate(-34.725 -15.211)"/><path class="e" d="M98.293,184.663a3.577,3.577,0,1,1-3.565-3.723A3.656,3.656,0,0,1,98.293,184.663Z" transform="translate(-33.08 -15.211)"/><rect class="d" width="216.963" height="216.241" transform="translate(240.769 38.62)"/><rect class="c" width="216.963" height="25.329" transform="translate(240.769 38.62)"/><path class="e" d="M270.529,79.838a4.7,4.7,0,1,1-4.7-4.908,4.818,4.818,0,0,1,4.7,4.908Z" transform="translate(-11.28 -28.807)"/><path class="e" d="M286.058,76.508a4.7,4.7,0,1,1-6.77-.158,4.8,4.8,0,0,1,6.77.158Z" transform="translate(-9.129 -28.794)"/><path class="e" d="M304.309,79.838a4.7,4.7,0,1,1-4.7-4.908,4.818,4.818,0,0,1,4.7,4.908Z" transform="translate(-6.947 -28.807)"/></g><g transform="translate(100.594 506.584)"><path class="g" d="M443.62,453.163c0,.158-78.346.293-174.958.293s-174.992-.135-174.992-.293,78.334-.293,174.992-.293S443.62,453.017,443.62,453.163Z" transform="translate(-93.67 -452.87)"/></g><g transform="translate(353.441 248.557)"><path class="h" d="M338.54,344.373c-17.432-12.174-21.38-34.773-20.692-55.092.113-3.385-.26-6.973,1.354-9.94s5.382-5.009,8.417-3.588c2.516,1.185,3.61,4.118,5.021,6.544a19.813,19.813,0,0,0,7.954,7.593c2.155,1.128,4.829,1.805,6.961.632,2.933-1.613,3.272-5.641,3.249-9.026q0-9.443-.113-18.864a31.4,31.4,0,0,1,1.015-10.019c1.049-3.2,3.385-6.172,6.578-7.074s7.176.959,7.9,4.254a32.49,32.49,0,0,1,.1,4.2c.09,1.41.745,2.956,2.065,3.385s2.7-.553,3.712-1.546c3.475-3.385,5.844-7.8,8.044-12.151s4.355-8.834,7.514-12.546,7.525-6.657,12.411-6.939,9.974,2.719,11.192,7.458-1.546,9.579-4.513,13.426a75.445,75.445,0,0,1-15.671,14.949,6.137,6.137,0,0,0-2.629,2.809c-.733,2.257,1.4,4.513,3.622,5.224,2.516.835,5.246.575,7.9.891s5.472,1.467,6.476,3.949c1.376,3.452-1.512,7.063-4.344,9.432a64.741,64.741,0,0,1-19.09,11.023c-2.482.9-5.088,1.7-7.1,3.441s-3.2,4.773-2,7.153,4.31,3.137,6.916,2.651,4.919-1.884,7.4-2.821c4.637-1.749,10.617-1.433,13.539,2.572a10.673,10.673,0,0,1,1.128,9.443,24.63,24.63,0,0,1-5.111,8.338,65.021,65.021,0,0,1-27.823,19.44c-10.752,3.723-20.715,4.739-31.4.824" transform="translate(-317.775 -224.174)"/><path class="g" d="M403.987,226.66s-.1.113-.327.316l-1,.891c-.88.79-2.178,1.941-3.814,3.464a125.921,125.921,0,0,0-12.885,13.911c-2.516,3.125-5.122,6.668-7.9,10.515s-5.641,8-8.484,12.411a153.052,153.052,0,0,0-8.315,14.419c-1.309,2.584-2.46,5.28-3.644,8.033l-3.5,8.405a310.111,310.111,0,0,0-12.027,32.46,151.183,151.183,0,0,0-5.641,27.676,110.05,110.05,0,0,0-.316,19.056c.181,2.256.35,3.983.508,5.156.068.564.113,1.015.158,1.343v.463a2.356,2.356,0,0,1-.1-.451c-.056-.327-.124-.767-.214-1.331-.2-1.128-.417-2.911-.621-5.167a104.852,104.852,0,0,1,.113-19.113,148.717,148.717,0,0,1,5.517-27.8,302.83,302.83,0,0,1,11.993-32.539l3.588-8.372c1.185-2.742,2.347-5.461,3.667-8.056a151.094,151.094,0,0,1,8.383-14.453c2.888-4.513,5.8-8.6,8.541-12.411s5.393-7.379,7.9-10.493a119.936,119.936,0,0,1,13.054-13.81c1.67-1.5,3-2.629,3.9-3.385l1.049-.846a2.462,2.462,0,0,1,.417-.293Z" transform="translate(-315.504 -223.855)"/><path class="g" d="M358.559,280.218a6.984,6.984,0,0,1-.327-1.433c-.181-.936-.384-2.257-.621-3.971-.485-3.385-.982-8.022-1.512-13.155s-1.128-9.782-1.625-13.133c-.26-1.67-.485-3.012-.643-3.949a6.09,6.09,0,0,1-.192-1.467,6.238,6.238,0,0,1,.417,1.41c.248.925.53,2.257.846,3.938.643,3.385,1.275,7.988,1.805,13.133s.982,9.658,1.331,13.167c.169,1.58.316,2.922.429,3.994a6.252,6.252,0,0,1,.09,1.467Z" transform="translate(-313.175 -221.745)"/><path class="g" d="M401.4,268.829a9.023,9.023,0,0,1-1.67.2c-1.128.1-2.73.237-4.716.463-3.971.429-9.432,1.219-15.423,2.347s-11.373,2.4-15.243,3.385c-1.929.5-3.486.948-4.513,1.252a8.236,8.236,0,0,1-1.692.406,9.831,9.831,0,0,1,1.625-.643c1.061-.372,2.595-.891,4.513-1.444,3.847-1.128,9.229-2.471,15.243-3.622a153.6,153.6,0,0,1,15.4-2.144c2-.169,3.61-.237,4.739-.26a8.677,8.677,0,0,1,1.738.056Z" transform="translate(-312.598 -218.457)"/><path class="g" d="M343.782,325.017a2.347,2.347,0,0,1-.293-.53l-.745-1.568c-.643-1.365-1.512-3.385-2.55-5.856-2.1-4.964-4.773-11.914-7.616-19.632s-5.461-14.667-7.446-19.688c-.97-2.437-1.771-4.434-2.369-5.923l-.632-1.613a2.178,2.178,0,0,1-.181-.587,2.349,2.349,0,0,1,.293.53l.745,1.568c.632,1.365,1.512,3.385,2.55,5.856,2.1,4.964,4.773,11.914,7.616,19.632s5.461,14.667,7.446,19.688c.97,2.437,1.771,4.434,2.358,5.923.26.643.474,1.128.643,1.613a2.181,2.181,0,0,1,.181.587Z" transform="translate(-317.24 -218.345)"/><path class="g" d="M398.932,302.25a2.4,2.4,0,0,1-.575.237l-1.67.564-6.172,2c-5.212,1.692-12.411,4.107-20.309,6.77s-15.13,5.032-20.376,6.612c-2.618.8-4.75,1.41-6.228,1.816l-1.7.44a2.922,2.922,0,0,1-.609.124,2.39,2.39,0,0,1,.575-.237l1.67-.564,6.172-2c5.212-1.692,12.411-4.107,20.309-6.77s15.119-5.032,20.365-6.612c2.629-.8,4.75-1.41,6.239-1.816l1.7-.44A2.924,2.924,0,0,1,398.932,302.25Z" transform="translate(-314.759 -214.16)"/></g><g transform="translate(217.571 89.199)"><path class="i" d="M334.478,415.076l-112.7-.519a24.562,24.562,0,0,1-24.427-24.664l1.2-282.525A24.54,24.54,0,0,1,223.21,82.93l112.69.519A24.562,24.562,0,0,1,360.337,108.1l-1.2,282.514A24.562,24.562,0,0,1,334.478,415.076Z" transform="translate(-197.35 -82.93)"/><path class="e" d="M334.877,92.044H313.034a5.427,5.427,0,0,0-5.325,5.528v3.96a5.416,5.416,0,0,1-5.325,5.517l-42.58-.192a5.438,5.438,0,0,1-5.292-5.574v-3.96a5.438,5.438,0,0,0-5.28-5.574h-7.683l-19.124-.09a17.2,17.2,0,0,0-17.3,17.025L204,384.452a17.183,17.183,0,0,0,17.1,17.262l112.464.519a17.2,17.2,0,0,0,17.274-17.116l1.128-275.767a17.206,17.206,0,0,0-17.093-17.307Z" transform="translate(-196.497 -81.81)"/><path class="h" d="M316.273,337.325l-83.626-.361c-.869,0-1.568-.948-1.557-2.1l.09-21.877c0-1.128.711-2.1,1.58-2.1l83.626.384a1.9,1.9,0,0,1,1.557,2.11l-.079,21.854C317.864,336.4,317.142,337.336,316.273,337.325Z" transform="translate(-193.023 -53.694)"/><text class="j" transform="translate(62.325 273.034)"><tspan x="0" y="0">SING UP</tspan></text><rect class="h" width="29.019" height="5.325" transform="translate(27.286 91.168) rotate(0.26)"/><rect class="k" width="29.019" height="5.325" transform="translate(27.286 91.168) rotate(0.26)"/><path class="c" d="M335.663,195.09a2.594,2.594,0,0,0,.666-.158,1.783,1.783,0,0,0,1.128-1.523c0-1.794,0-4.411,0-7.774v-7.21a2.189,2.189,0,0,0-.316-1.478,1.692,1.692,0,0,0-1.343-.688H317.735l-94.367-.35a1.5,1.5,0,0,0-1.241.621,2.155,2.155,0,0,0-.293,1.478q0,1.692,0,3.385v10.154a8.9,8.9,0,0,0,0,1.58,1.523,1.523,0,0,0,.88,1.015,1.76,1.76,0,0,0,.7.124h5.743l25.058.135,42.422.259,28.6.226,7.774.09H296.637l-42.422-.135-25.058-.1h-5.743a2.257,2.257,0,0,1-.925-.158,2.121,2.121,0,0,1-1.219-1.41,3.193,3.193,0,0,1-.068-.9V177.9a6.315,6.315,0,0,1,0-.9,1.918,1.918,0,0,1,.372-.914,2.076,2.076,0,0,1,1.715-.869l94.367.519,16.3.113h1.76a1.929,1.929,0,0,1,1.58.824,2.4,2.4,0,0,1,.361,1.659v7.21c0,3.385-.079,5.98-.1,7.785a1.828,1.828,0,0,1-1.185,1.568,1.354,1.354,0,0,1-.711.2Z" transform="translate(-194.293 -71.095)"/><rect class="h" width="53.073" height="4.976" transform="translate(36.003 110.479)"/><rect class="l" width="53.073" height="4.976" transform="translate(36.003 110.479)"/><rect class="h" width="29.019" height="5.325" transform="translate(27.088 139.749) rotate(0.26)"/><rect class="k" width="29.019" height="5.325" transform="translate(27.088 139.749) rotate(0.26)"/><path class="c" d="M334.959,238.136a5.835,5.835,0,0,0,.677-.124,2.313,2.313,0,0,0,1.422-1.286,3.16,3.16,0,0,0,.2-1.433v-13.46a2.426,2.426,0,0,0-.327-1.489,2.189,2.189,0,0,0-1.23-.959,6.916,6.916,0,0,0-1.7-.09H317.765l-94.04-.35a2.087,2.087,0,0,0-2.065,1.816c0,1.072,0,2.257,0,3.385V234.3a6.476,6.476,0,0,0,.068,1.58,2.144,2.144,0,0,0,.824,1.128,2.347,2.347,0,0,0,1.4.361h4.829l24.968.124,42.276.259,28.5.226,7.751.09H296.023l-42.3-.045-24.968-.09h-4.908a2.832,2.832,0,0,1-1.726-.463,2.708,2.708,0,0,1-1.061-1.478,7.109,7.109,0,0,1-.09-1.737q0-1.692,0-3.385V220.715a2.674,2.674,0,0,1,2.651-2.335l94.04.519,16.236.124a6.985,6.985,0,0,1,1.805.124,2.493,2.493,0,0,1,1.388,1.128,2.719,2.719,0,0,1,.361,1.647v13.516a3.148,3.148,0,0,1-.237,1.478,2.392,2.392,0,0,1-1.523,1.286A2.121,2.121,0,0,1,334.959,238.136Z" transform="translate(-194.323 -65.558)"/><rect class="h" width="29.019" height="5.325" transform="translate(26.869 190.439) rotate(0.26)"/><rect class="k" width="29.019" height="5.325" transform="translate(26.869 190.439) rotate(0.26)"/><path class="c" d="M334.748,283.062a5.4,5.4,0,0,0,.677-.124,2.324,2.324,0,0,0,1.422-1.275,3.182,3.182,0,0,0,.2-1.433c0-.553,0-1.128,0-1.794V266.759a2.426,2.426,0,0,0-.327-1.489,2.257,2.257,0,0,0-1.23-.948,6.892,6.892,0,0,0-1.7-.1H317.553l-94.04-.35a2.087,2.087,0,0,0-2.065,1.816q0,1.692,0,3.385v10.154a6.385,6.385,0,0,0,.068,1.568,2.065,2.065,0,0,0,.824,1.128,2.256,2.256,0,0,0,1.4.361h4.908l24.968.135,42.276.26,28.5.226,7.751.09H295.891l-42.276-.124-24.968-.1h-4.908a2.764,2.764,0,0,1-1.726-.463,2.708,2.708,0,0,1-1.061-1.478,7.108,7.108,0,0,1-.09-1.738q0-1.692,0-3.385V265.5a2.663,2.663,0,0,1,2.64-2.336l94.04.519,16.236.124a6.984,6.984,0,0,1,1.805.124,2.493,2.493,0,0,1,1.388,1.128,2.719,2.719,0,0,1,.361,1.647v13.516a3.091,3.091,0,0,1-.237,1.478,2.392,2.392,0,0,1-1.523,1.286A1.782,1.782,0,0,1,334.748,283.062Z" transform="translate(-194.337 -59.815)"/><rect class="h" width="53.073" height="4.976" transform="translate(34.87 160.228) rotate(0.26)"/><rect class="l" width="53.073" height="4.976" transform="translate(34.87 160.228) rotate(0.26)"/><path class="h" d="M233.038,272.924a2.324,2.324,0,1,1-2.256-2.493A2.392,2.392,0,0,1,233.038,272.924Z" transform="translate(-193.368 -58.883)"/><path class="h" d="M239.408,272.953a2.324,2.324,0,1,1-1.11-2.147A2.324,2.324,0,0,1,239.408,272.953Z" transform="translate(-192.551 -58.878)"/><path class="h" d="M245.788,272.984a2.324,2.324,0,1,1-2.257-2.493A2.4,2.4,0,0,1,245.788,272.984Z" transform="translate(-191.733 -58.875)"/><path class="h" d="M252.158,273.014a2.324,2.324,0,1,1-2.257-2.493,2.4,2.4,0,0,1,2.257,2.493Z" transform="translate(-190.916 -58.871)"/><path class="h" d="M258.528,273.032a2.324,2.324,0,1,1-2.257-2.482A2.4,2.4,0,0,1,258.528,273.032Z" transform="translate(-190.099 -58.867)"/><path class="h" d="M264.908,273.062a2.324,2.324,0,1,1-2.313-2.482,2.4,2.4,0,0,1,2.313,2.482Z" transform="translate(-189.281 -58.863)"/><path class="h" d="M271.278,273.093a2.324,2.324,0,1,1-1.11-2.147A2.324,2.324,0,0,1,271.278,273.093Z" transform="translate(-188.464 -58.86)"/><path class="h" d="M277.648,273.122a2.324,2.324,0,1,1-2.313-2.482,2.4,2.4,0,0,1,2.313,2.482Z" transform="translate(-187.647 -58.856)"/><path class="h" d="M284.018,273.152a2.324,2.324,0,1,1-2.257-2.482A2.4,2.4,0,0,1,284.018,273.152Z" transform="translate(-186.83 -58.852)"/><g class="m" transform="translate(35.027 211.547)"><path class="e" d="M233.038,272.924a2.324,2.324,0,1,1-2.256-2.493A2.392,2.392,0,0,1,233.038,272.924Z" transform="translate(-228.395 -270.429)"/><path class="e" d="M239.408,272.953a2.324,2.324,0,1,1-1.11-2.147A2.324,2.324,0,0,1,239.408,272.953Z" transform="translate(-227.579 -270.425)"/><path class="e" d="M245.788,272.984a2.324,2.324,0,1,1-2.257-2.493A2.4,2.4,0,0,1,245.788,272.984Z" transform="translate(-226.76 -270.422)"/><path class="e" d="M252.158,273.014a2.324,2.324,0,1,1-2.257-2.493,2.4,2.4,0,0,1,2.257,2.493Z" transform="translate(-225.943 -270.418)"/><path class="e" d="M258.528,273.032a2.324,2.324,0,1,1-2.257-2.482A2.4,2.4,0,0,1,258.528,273.032Z" transform="translate(-225.126 -270.414)"/><path class="e" d="M264.908,273.062a2.324,2.324,0,1,1-2.313-2.482,2.4,2.4,0,0,1,2.313,2.482Z" transform="translate(-224.308 -270.41)"/><path class="e" d="M271.278,273.093a2.324,2.324,0,1,1-1.11-2.147A2.324,2.324,0,0,1,271.278,273.093Z" transform="translate(-223.491 -270.407)"/><path class="e" d="M277.648,273.122a2.324,2.324,0,1,1-2.313-2.482,2.4,2.4,0,0,1,2.313,2.482Z" transform="translate(-222.674 -270.402)"/><path class="e" d="M284.018,273.152a2.324,2.324,0,1,1-2.257-2.482A2.4,2.4,0,0,1,284.018,273.152Z" transform="translate(-221.857 -270.399)"/></g><path class="h" d="M275.465,129.462a4.366,4.366,0,0,0,2.606-4.05,4.107,4.107,0,1,0-8.2,0,4.378,4.378,0,0,0,2.618,4.1c-6.318.948-6.036,7.807-6.036,7.807l14.938.068S281.738,130.4,275.465,129.462Z" transform="translate(-188.488 -78.036)"/><path class="k" d="M275.465,129.462a4.366,4.366,0,0,0,2.606-4.05,4.107,4.107,0,1,0-8.2,0,4.378,4.378,0,0,0,2.618,4.1c-6.318.948-6.036,7.807-6.036,7.807l14.938.068S281.738,130.4,275.465,129.462Z" transform="translate(-188.488 -78.036)"/><rect class="h" width="53.242" height="6.363" transform="translate(58.009 63.53) rotate(0.26)"/><rect class="l" width="53.242" height="6.363" transform="translate(58.009 63.53) rotate(0.26)"/></g><g transform="translate(141.781 69.946)"><path class="n" d="M125.769,168.68h-.53l-1.534.113a17.413,17.413,0,0,0-2.471.327,15.274,15.274,0,0,0-1.568.3l-1.749.485a28.736,28.736,0,0,0-8.315,4.118,29.266,29.266,0,0,0-8.191,9.116,30.552,30.552,0,0,0-2.866,6.555,31.523,31.523,0,0,0-1.252,7.65,31,31,0,0,0,.068,4.084,16.658,16.658,0,0,0,.282,2.076,13.338,13.338,0,0,0,.395,2.087,29.775,29.775,0,0,0,16.924,20.681,26.807,26.807,0,0,0,9.692,2.178A26.164,26.164,0,0,0,134.807,227l.993-.372h.135l.113.068,14.227,7.221-.417.361c-1.523-4.716-2.99-9.285-4.411-13.674v-.169l.124-.124a30.463,30.463,0,0,0,7.469-12.411,31.252,31.252,0,0,0,1.128-13.223,30.892,30.892,0,0,0-3.734-11.215,30.463,30.463,0,0,0-6.431-7.9,31.423,31.423,0,0,0-6.984-4.445,30.4,30.4,0,0,0-5.912-1.862l-2.257-.372-1.636-.124-.993-.068h-.338a1.534,1.534,0,0,1,.338,0h1l1.636.068,2.257.327a29.9,29.9,0,0,1,5.991,1.794,31.354,31.354,0,0,1,7.108,4.434,30.541,30.541,0,0,1,6.566,7.9,30.97,30.97,0,0,1,3.847,11.361,31.591,31.591,0,0,1-1.049,13.449A30.869,30.869,0,0,1,146,220.692l.068-.293c1.422,4.389,2.9,8.958,4.434,13.663l.214.688-.643-.327-14.227-7.21h.248l-1.015.372a26.92,26.92,0,0,1-10.346,1.489,27.416,27.416,0,0,1-9.895-2.257A29.684,29.684,0,0,1,100.7,214.171a30.124,30.124,0,0,1-3.193-8.349,17.284,17.284,0,0,1-.395-2.132c-.09-.711-.237-1.41-.271-2.11a33.34,33.34,0,0,1,1.252-11.914,30.339,30.339,0,0,1,2.945-6.634,29.526,29.526,0,0,1,8.36-9.173,28.523,28.523,0,0,1,8.451-4.084l1.771-.451a15.677,15.677,0,0,1,1.58-.282,16.753,16.753,0,0,1,2.493-.271l1.546-.056A3.79,3.79,0,0,1,125.769,168.68Z" transform="translate(-96.745 -168.68)"/><path class="h" d="M130.164,193.194h-2.087l-4.513-6.341V182.69s-3.227-.2-2.843,5.246,0,4.062,0,4.062-6.848,0-7.413.621-.6,7.232-.677,10.921a3.994,3.994,0,0,0,2.832,4.017,2.8,2.8,0,0,0,.733.1c1.715,0,10.436-1.388,10.436-1.388h3.6Z" transform="translate(-94.708 -166.883)"/><path class="h" d="M134.011,191.01l-1.286,14.261H129.16V191.3Z" transform="translate(-92.588 -165.816)"/></g><g transform="translate(213.859 88.89)"><path class="o" d="M301.019,61.92H162.383c-7.817.076-14.1,6.849-14.023,15.127v302.2c-.068,8.276,6.207,15.046,14.023,15.127H301.019c7.818-.081,14.1-6.848,14.039-15.127V77.047c.064-8.281-6.219-15.051-14.039-15.127Zm5.265,307.992c0,7.954-5.625,14.389-12.563,14.389H169.7c-6.954,0-12.579-6.435-12.579-14.389V88.5c-.033-16.2,5.625-16.96,12.579-16.96h24.847c1.443,0,2.624,1.737,2.624,3.89v.929c0,5.045,2.608,5.063,5.806,5.063h57.436c3.231,0,5.822,0,5.822-5.063V75.4c0-2.154,1.165-3.89,2.632-3.89H293.7c6.938,0,12.563,2.154,12.563,16.994Z" transform="translate(-148.359 -61.92)"/><path class="p" d="M309.278,90.076V373.493c0,8.011-5.666,14.492-12.653,14.492H171.71c-7,0-12.67-6.481-12.67-14.492V90.076c-.033-16.32,5.666-17.081,12.67-17.081h25.026c1.454,0,2.643,1.749,2.643,3.918v.936c0,5.081,2.626,5.1,5.848,5.1h57.849c3.254,0,5.864,0,5.864-5.1v-.971c0-2.169,1.173-3.918,2.651-3.918h25.018C303.612,72.995,309.278,75.129,309.278,90.076Z" transform="translate(-150.817 -64.46)"/><path class="h" d="M309.269,88.027V192.9H159V88.027c0-14.366,5.7-15.036,12.7-15.036h25.026c1.454,0,2.643,1.54,2.643,3.449v.824c0,4.473,2.626,4.489,5.848,4.489h57.848c3.254,0,5.864,0,5.864-4.489v-.855c0-1.909,1.173-3.449,2.651-3.449H296.6C303.6,72.991,309.269,74.869,309.269,88.027Z" transform="translate(-150.808 -64.46)"/><g transform="translate(36.6 13.081)"><path class="e" d="M197.943,79.934l-.223.223c-.046,0-.085.085-.131.131a3,3,0,0,0-2.171-.9,2.972,2.972,0,0,0-2.171.9l-.123-.131-.223-.223h0l.285-.246a3.126,3.126,0,0,1,.662-.423,3.219,3.219,0,0,1,.87-.293,1.084,1.084,0,0,0,.439-.062h.678a3.472,3.472,0,0,1,.77.192,3.527,3.527,0,0,1,.547.254,3.452,3.452,0,0,1,.516.362l.239.216Z" transform="translate(-192.9 -78.91)"/><path class="e" d="M194.164,81.289c-.115-.123-.231-.239-.354-.354a2.556,2.556,0,0,1,3.626,0l-.354.354a2.063,2.063,0,0,0-2.918,0Z" transform="translate(-193.109 -79.202)"/><path class="e" d="M196.928,81.934l-.354.354a1.009,1.009,0,0,0-.77-.308,1.039,1.039,0,0,0-.77.308l-.354-.354a1.54,1.54,0,0,1,2.248,0Z" transform="translate(-193.31 -79.494)"/><path class="e" d="M196.374,82.9a.316.316,0,0,1-.316.316.323.323,0,1,1,0-.639.316.316,0,0,1,.316.323Z" transform="translate(-193.541 -79.753)"/></g><path class="e" d="M170.9,80.842a.932.932,0,1,1,.932.932.932.932,0,0,1-.932-.932Z" transform="translate(-153.546 -66.06)"/><path class="e" d="M174.7,80.842a.932.932,0,1,1,.932.932A.932.932,0,0,1,174.7,80.842Z" transform="translate(-154.42 -66.06)"/><path class="e" d="M178.5,80.842a.924.924,0,1,1,.268.658A.932.932,0,0,1,178.5,80.842Z" transform="translate(-155.295 -66.06)"/><path class="e" d="M182.3,80.842a.924.924,0,1,1,.268.658A.932.932,0,0,1,182.3,80.842Z" transform="translate(-156.169 -66.06)"/><path class="e" d="M186.09,80.842a.932.932,0,1,1,.932.932A.932.932,0,0,1,186.09,80.842Z" transform="translate(-157.041 -66.06)"/><path class="e" d="M325.04,82.705h-7.56v-3.5h7.56Zm-7.175-.385h6.791V79.595H317.88Z" transform="translate(-177.081 -65.898)"/><rect class="e" width="4.873" height="2.31" transform="translate(141.031 13.904)"/><rect class="e" width="0.67" height="1.871" transform="translate(147.96 14.128)"/><path class="e" d="M175.044,108.385l-4.134-3.873,4.134-3.873.639.678-3.4,3.2,3.4,3.2Z" transform="translate(-153.548 -70.83)"/><path class="e" d="M256.926,173.871a30.248,30.248,0,0,1-8.892,3.726,30.858,30.858,0,1,1,8.892-3.726Z" transform="translate(-157.415 -74.539)"/><path class="h" d="M256.56,149.485a9.385,9.385,0,1,1-9.37-9.385,9.385,9.385,0,0,1,9.37,9.385Z" transform="translate(-163.842 -71.685)"/><path class="h" d="M261.308,181.072v3.849a30.248,30.248,0,0,1-8.892,3.726,30.7,30.7,0,0,1-23.536-3.734v-3.85a16.214,16.214,0,0,1,32.428,0Z" transform="translate(-161.794 -74.54)"/><rect class="e" width="120.258" height="106.862" transform="translate(23.221 141.389)"/><path class="g" d="M223.528,231.118l-2.826,6.729a.362.362,0,0,1-.062.108h0l-.062.069h0a.262.262,0,0,0-.085.054h0c-.038,0-.062.062-.108.069h-.447a.215.215,0,0,1-.108-.069h0l-.085-.054h0a.363.363,0,0,0-.046-.069h0a.347.347,0,0,1-.046-.108l-1.54-3.58-1.54,3.58a.346.346,0,0,1-.046.108h0l-.069.069h0a.139.139,0,0,0-.062.054h0a.573.573,0,0,1-.092.069h0a.162.162,0,0,0-.092,0h-.285a.2.2,0,0,0-.085,0h0a.262.262,0,0,1-.108-.069h0c-.039,0-.046-.046-.085-.054l-.062-.069h0a.143.143,0,0,0-.054-.108l-2.841-6.729a.633.633,0,1,1,1.17-.485l2.256,5.343,1.494-3.542a.631.631,0,0,1,.6-.393.662.662,0,0,1,.6.393l1.486,3.542,2.256-5.343a.639.639,0,0,1,.839-.339.624.624,0,0,1,.131.824Z" transform="translate(-159.685 -83.616)"/><path class="g" d="M229.19,237.592v-6.783a.624.624,0,0,1,.631-.639h3.772a.639.639,0,0,1,.639.639.654.654,0,0,1-.639.647h-3.126v2.109h2.687a.647.647,0,0,1,0,1.286h-2.687v2.117h3.126a.639.639,0,0,1,0,1.278h-3.78a.624.624,0,0,1-.624-.654Z" transform="translate(-162.77 -83.596)"/><path class="g" d="M238.08,237.592v-6.783a.639.639,0,0,1,.631-.639.654.654,0,0,1,.654.639v6.159h3.126a.639.639,0,0,1,0,1.278h-3.78a.631.631,0,0,1-.631-.654Z" transform="translate(-164.355 -83.596)"/><path class="g" d="M245.46,233.987a4.235,4.235,0,0,1,4.234-4.157,4.365,4.365,0,0,1,2.672.9.685.685,0,0,1,.116.924.678.678,0,0,1-.924.131,2.9,2.9,0,0,0-1.863-.639,3.08,3.08,0,0,0-2.079.831,2.864,2.864,0,0,0-.839,2.009,2.818,2.818,0,0,0,.839,2.009,3.08,3.08,0,0,0,2.079.831,2.918,2.918,0,0,0,1.863-.631.693.693,0,0,1,.924.123.678.678,0,0,1-.115.924,4.319,4.319,0,0,1-2.672.9A4.219,4.219,0,0,1,245.46,233.987Z" transform="translate(-165.6 -83.538)"/><path class="g" d="M263.457,231.07a4.25,4.25,0,0,1,0,5.844,3.85,3.85,0,0,1-2.764,1.232,3.9,3.9,0,0,1-2.826-1.232,4.3,4.3,0,0,1,0-5.844,3.849,3.849,0,0,1,2.826-1.24A3.757,3.757,0,0,1,263.457,231.07Zm-.154,2.918a2.964,2.964,0,0,0-.77-2.017,2.487,2.487,0,0,0-3.7,0,2.926,2.926,0,0,0-.77,2.017,2.879,2.879,0,0,0,.77,2.009,2.471,2.471,0,0,0,3.7,0A2.918,2.918,0,0,0,263.3,233.987Z" transform="translate(-167.571 -83.538)"/><path class="g" d="M276.3,230.809v6.814a.647.647,0,0,1-.647.631.631.631,0,0,1-.639-.631v-4.866l-1.663,2.31a.616.616,0,0,1-.516.27h0a.639.639,0,0,1-.531-.27l-1.655-2.31v4.866a.639.639,0,1,1-1.278,0v-6.814a.639.639,0,0,1,.631-.639h0a.616.616,0,0,1,.508.269l2.31,3.187,2.31-3.187a.616.616,0,0,1,.516-.269h0A.662.662,0,0,1,276.3,230.809Z" transform="translate(-169.855 -83.595)"/><path class="g" d="M281.25,237.592v-6.783a.624.624,0,0,1,.631-.639h3.8a.639.639,0,0,1,.631.639.654.654,0,0,1-.631.647h-3.133v2.109h2.695a.647.647,0,0,1,0,1.286h-2.695v2.117h3.133a.639.639,0,0,1,0,1.278H281.9a.631.631,0,0,1-.647-.654Z" transform="translate(-172.051 -83.596)"/><path class="h" d="M195.24,264.35v-2.725a.254.254,0,0,1,.254-.254h1.54a.262.262,0,0,1,0,.516h-1.247v.847h1.07a.254.254,0,1,1,0,.508h-1.07v.855h1.247a.254.254,0,1,1,0,.508h-1.54A.254.254,0,0,1,195.24,264.35Z" transform="translate(-156.765 -87.951)"/><path class="h" d="M201.582,261.624v2.725a.262.262,0,0,1-.262.254.254.254,0,0,1-.254-.254v-1.94l-.662.924a.246.246,0,0,1-.208.1h0a.262.262,0,0,1-.216-.1l-.654-.924v1.94a.262.262,0,0,1-.516,0v-2.725a.254.254,0,0,1,.254-.254h0a.254.254,0,0,1,.2.108l.916,1.278.924-1.278a.246.246,0,0,1,.208-.108h0A.269.269,0,0,1,201.582,261.624Z" transform="translate(-157.393 -87.951)"/><path class="h" d="M205.06,263.848h-1.116l-.231.6a.262.262,0,0,1-.239.162.153.153,0,0,1-.085,0,.254.254,0,0,1-.154-.331l1.016-2.718a.262.262,0,0,1,.246-.162.246.246,0,0,1,.246.162l1.024,2.718a.262.262,0,0,1-.154.331.17.17,0,0,1-.092,0,.246.246,0,0,1-.231-.162Zm-.185-.508-.377-.993-.37.993Z" transform="translate(-158.186 -87.956)"/><path class="h" d="M207.39,261.624a.254.254,0,0,1,.254-.254.262.262,0,0,1,.262.254v2.725a.262.262,0,0,1-.262.254.254.254,0,0,1-.254-.254Z" transform="translate(-158.972 -87.951)"/><path class="h" d="M209.18,264.35v-2.725a.254.254,0,0,1,.254-.254.262.262,0,0,1,.262.254V264.1h1.247a.254.254,0,1,1,0,.508H209.4A.254.254,0,0,1,209.18,264.35Z" transform="translate(-159.265 -87.951)"/><path class="g" d="M195,276.57a1.094,1.094,0,1,1,2.186-.085h0a.115.115,0,0,1-.115.108h-1.855a.885.885,0,0,0,.878.862.855.855,0,0,0,.77-.408.116.116,0,0,1,.146-.038.123.123,0,0,1,.038.162,1.078,1.078,0,0,1-.916.508A1.109,1.109,0,0,1,195,276.57Zm.231-.185h1.717a.87.87,0,0,0-1.717,0Z" transform="translate(-156.719 -89.859)"/><path class="g" d="M202.052,276.368a.7.7,0,1,0-1.394,0v1.247h0a.092.092,0,0,1-.054.054.084.084,0,0,1-.054,0h0v-1.247a.7.7,0,1,0-1.394,0v1.232a.108.108,0,0,1-.046.092h-.139a.115.115,0,0,1-.092-.085V275.6a.108.108,0,1,1,.216,0v.216a.908.908,0,0,1,.7-.323.891.891,0,0,0,1.578,0,.916.916,0,0,1,.924.916v1.232a.112.112,0,0,1-.223,0Z" transform="translate(-157.394 -89.865)"/><path class="g" d="M207.813,276.368a.7.7,0,0,0-1.4,0v1.247h0a.139.139,0,0,1-.062.054.062.062,0,0,1-.054,0h0v-1.247a.7.7,0,1,0-1.394,0v1.232a.116.116,0,0,1-.054.092H204.8a.1.1,0,0,1-.092-.085V275.6a.1.1,0,0,1,.1-.108.108.108,0,0,1,.115.108v.216a.893.893,0,0,1,.693-.323.908.908,0,0,1,.808.477.939.939,0,0,1,.816-.477.916.916,0,0,1,.916.916v1.232a.108.108,0,1,1-.216,0Z" transform="translate(-158.436 -89.865)"/><path class="g" d="M212.052,275.545v2.04a.115.115,0,0,1-.115.108.108.108,0,0,1-.108-.108v-.339a1.039,1.039,0,0,1-.847.447,1.132,1.132,0,0,1,0-2.263,1.039,1.039,0,0,1,.847.447v-.331a.108.108,0,0,1,.108-.116A.116.116,0,0,1,212.052,275.545Zm-.223,1.016a.855.855,0,1,0-.847.909.885.885,0,0,0,.847-.909Z" transform="translate(-159.381 -89.857)"/><path class="g" d="M214.2,278.135a.169.169,0,0,0,.169-.169v-2.641a.112.112,0,1,1,.223,0v2.633a.393.393,0,0,1-.393.393.108.108,0,0,1,0-.216Zm.177-3.549a.123.123,0,0,1,.115-.115.115.115,0,0,1,.108.116v.108a.115.115,0,0,1-.108.115.131.131,0,0,1-.115-.115Z" transform="translate(-160.177 -89.614)"/><path class="g" d="M217.852,275.545v2.04a.108.108,0,1,1-.216,0v-.339a1.07,1.07,0,0,1-.855.447,1.132,1.132,0,0,1,0-2.264,1.07,1.07,0,0,1,.855.447v-.331a.108.108,0,1,1,.216,0Zm-.216,1.016a.855.855,0,1,0-.855.908A.885.885,0,0,0,217.636,276.562Z" transform="translate(-160.421 -89.857)"/><path class="g" d="M223.075,276.368a.7.7,0,0,0-1.4,0v1.247h0a.093.093,0,0,1-.054.054.077.077,0,0,1-.054,0h0v-1.247a.7.7,0,1,0-1.394,0v1.232a.115.115,0,0,1-.054.092h-.046a.115.115,0,0,1-.092-.085V275.6a.112.112,0,0,1,.223,0v.216a.893.893,0,0,1,.693-.323.908.908,0,0,1,.808.477.939.939,0,0,1,.816-.477.916.916,0,0,1,.916.916v1.232a.108.108,0,1,1-.216,0Z" transform="translate(-161.167 -89.865)"/><path class="g" d="M225.26,276.57a1.094,1.094,0,1,1,2.187-.085h0a.108.108,0,0,1-.108.108h-1.855a.885.885,0,0,0,.878.862.831.831,0,0,0,.724-.408.1.1,0,1,1,.154.123,1.07,1.07,0,0,1-.908.508,1.116,1.116,0,0,1-1.07-1.109Zm.239-.185h1.709a.87.87,0,0,0-.847-.731A.885.885,0,0,0,225.5,276.386Z" transform="translate(-162.143 -89.859)"/><path class="g" d="M228.912,277.233a.108.108,0,0,1,.154,0,1.232,1.232,0,0,0,.693.262.67.67,0,0,0,.431-.139.331.331,0,0,0,.169-.277.354.354,0,0,0-.162-.277,1.172,1.172,0,0,0-.454-.154h0a1.2,1.2,0,0,1-.516-.177.477.477,0,0,1-.246-.4.578.578,0,0,1,.246-.447.971.971,0,0,1,.554-.154,1.247,1.247,0,0,1,.678.246.131.131,0,0,1,0,.162.115.115,0,0,1-.154,0,.97.97,0,0,0-.554-.231.7.7,0,0,0-.431.131.347.347,0,0,0-.139.262.269.269,0,0,0,.123.223,1.278,1.278,0,0,0,.462.162h0a1.538,1.538,0,0,1,.547.177.539.539,0,0,1,0,.924.908.908,0,0,1-.562.177,1.347,1.347,0,0,1-.832-.323.1.1,0,0,1-.008-.146Z" transform="translate(-162.806 -89.864)"/><path class="g" d="M233.7,276.761h-1.8a.123.123,0,0,1,0-.162l1.871-2.31h0a.1.1,0,0,1,.154,0,.115.115,0,0,1,0,.054v2.248h.216a.115.115,0,1,1,0,.223h-.216v.554a.115.115,0,0,1-.231,0Zm0-.223v-1.894l-1.54,1.894Z" transform="translate(-163.322 -89.633)"/><path class="g" d="M237.418,274.161a1.609,1.609,0,0,1,1.617,1.617,1.579,1.579,0,0,1-.169.77.816.816,0,0,1-.416.346h-.092a.323.323,0,0,1-.27-.123.385.385,0,0,1-.069-.223v-.208a.77.77,0,0,1-.6.277.87.87,0,0,1,0-1.732.847.847,0,0,1,.824.862v.77h0a.291.291,0,0,0,0,.1.108.108,0,0,0,.085,0h0a.47.47,0,0,0,.269-.239,1.324,1.324,0,0,0,.154-.631,1.394,1.394,0,1,0-1.394,1.394,1.294,1.294,0,0,0,.346-.039c.062,0,.131,0,.131.077a.108.108,0,0,1-.077.139,1.678,1.678,0,0,1-.4.046,1.617,1.617,0,1,1,0-3.234Zm0,2.248a.616.616,0,0,0,.593-.631.593.593,0,1,0-1.178,0,.608.608,0,0,0,.585.631Z" transform="translate(-163.99 -89.617)"/><path class="g" d="M245.208,276.368a.7.7,0,1,0-1.394,0v1.247h0a.092.092,0,0,1-.054.054.085.085,0,0,1-.054,0h-.038v-1.247a.7.7,0,1,0-1.394,0v1.232a.108.108,0,0,1-.046.092h-.046a.115.115,0,0,1-.092-.085V275.6a.108.108,0,1,1,.216,0v.216a.909.909,0,0,1,.7-.323.924.924,0,0,0,1.617,0,.916.916,0,0,1,.916.916v1.232a.1.1,0,0,1-.108.108.108.108,0,0,1-.108-.108Z" transform="translate(-165.121 -89.865)"/><path class="g" d="M249.452,275.545v2.04a.108.108,0,0,1-.108.108.115.115,0,0,1-.115-.108v-.339a1.039,1.039,0,0,1-.847.447,1.132,1.132,0,0,1,0-2.263,1.039,1.039,0,0,1,.847.447v-.331a.112.112,0,1,1,.223,0Zm-.223,1.016a.847.847,0,1,0-.847.908A.885.885,0,0,0,249.229,276.562Z" transform="translate(-166.085 -89.857)"/><path class="g" d="M251.37,274.585a.112.112,0,1,1,.223,0v.108a.112.112,0,1,1-.223,0Zm0,.77a.108.108,0,0,1,.108-.116.116.116,0,0,1,.116.116v2.04a.115.115,0,0,1-.115.108.108.108,0,0,1-.108-.108Z" transform="translate(-166.889 -89.676)"/><path class="g" d="M253,274.285a.112.112,0,1,1,.223,0v3.01a.112.112,0,0,1-.223,0Z" transform="translate(-167.183 -89.622)"/><path class="g" d="M254.581,277.77a.231.231,0,1,1-.231.231.231.231,0,0,1,.231-.231Z" transform="translate(-167.417 -90.294)"/><path class="g" d="M255.46,276.562a1.163,1.163,0,0,1,1.886-.878.108.108,0,0,1,0,.154.116.116,0,0,1-.154,0,.924.924,0,1,0-.585,1.617.955.955,0,0,0,.585-.193.112.112,0,0,1,.154.162,1.194,1.194,0,0,1-.716.239,1.139,1.139,0,0,1-1.17-1.1Z" transform="translate(-167.566 -89.859)"/><path class="g" d="M259.94,275.429a1.132,1.132,0,1,1-1.07,1.132,1.109,1.109,0,0,1,1.07-1.132Zm0,2.04a.885.885,0,0,0,.855-.908.855.855,0,1,0-1.7,0,.878.878,0,0,0,.847.908Z" transform="translate(-168.165 -89.857)"/><path class="g" d="M266.066,276.368a.708.708,0,0,0-.7-.7.693.693,0,0,0-.693.7v1.247h0a.092.092,0,0,1-.054.054.085.085,0,0,1-.054,0h-.038v-1.247a.7.7,0,1,0-1.393,0v1.232a.1.1,0,0,1-.054.092h-.046a.115.115,0,0,1-.092-.085V275.6a.108.108,0,1,1,.216,0v.216a.908.908,0,0,1,.7-.323.924.924,0,0,0,1.617,0,.916.916,0,0,1,.916.916v1.232a.108.108,0,1,1-.216,0Z" transform="translate(-168.849 -89.865)"/><path class="q" d="M194.62,281.655l11.929-.139,11.938-.085,23.867-.062,23.867.062,11.938.085,11.929.139-11.929.146-11.938.077-23.867.069-23.867-.069-11.938-.085Z" transform="translate(-159.004 -90.759)"/><path class="h" d="M196.326,297.1h-.57v1.009a.262.262,0,0,1-.516,0v-2.725a.254.254,0,0,1,.254-.254h.831a.985.985,0,1,1,0,1.971Zm-.57-.508h.57a.477.477,0,0,0,0-.955h-.57Z" transform="translate(-156.764 -92.361)"/><path class="h" d="M199.91,297.6h-1.124l-.223.6a.246.246,0,0,1-.239.162h-.092a.262.262,0,0,1-.146-.331L199.1,295.3a.277.277,0,0,1,.246-.162.269.269,0,0,1,.246.162l1.016,2.725a.262.262,0,0,1-.154.331h-.085a.246.246,0,0,1-.239-.162Zm-.192-.5-.37-.993-.377.993Z" transform="translate(-157.264 -92.36)"/><path class="h" d="M201.975,297.537a.246.246,0,0,1,.339,0,1.455,1.455,0,0,0,.878.354,1.009,1.009,0,0,0,.577-.169.416.416,0,0,0,.2-.331.292.292,0,0,0-.038-.146.393.393,0,0,0-.139-.139,1.854,1.854,0,0,0-.631-.223h0a2.309,2.309,0,0,1-.6-.177,1.039,1.039,0,0,1-.431-.362.693.693,0,0,1-.1-.377.855.855,0,0,1,.37-.677,1.362,1.362,0,0,1,.77-.239,1.8,1.8,0,0,1,1.009.37.236.236,0,1,1-.262.393,1.37,1.37,0,0,0-.77-.293.87.87,0,0,0-.516.154.37.37,0,0,0-.177.293.239.239,0,0,0,.038.131.362.362,0,0,0,.123.115,1.494,1.494,0,0,0,.577.208h0a2.967,2.967,0,0,1,.639.192,1.132,1.132,0,0,1,.462.385.77.77,0,0,1,.108.393.909.909,0,0,1-.4.716,1.463,1.463,0,0,1-.855.262,2.009,2.009,0,0,1-1.178-.462.254.254,0,0,1,.008-.37Z" transform="translate(-157.949 -92.34)"/><path class="h" d="M205.867,297.537a.246.246,0,0,1,.339,0,1.478,1.478,0,0,0,.885.354,1.009,1.009,0,0,0,.577-.169.4.4,0,0,0,.192-.331.231.231,0,0,0-.038-.146.392.392,0,0,0-.139-.139,1.793,1.793,0,0,0-.631-.223h0a2.379,2.379,0,0,1-.6-.177,1.016,1.016,0,0,1-.423-.362.7.7,0,0,1-.108-.377.855.855,0,0,1,.37-.677,1.386,1.386,0,0,1,.77-.239,1.778,1.778,0,0,1,1,.37.239.239,0,0,1,.069.323.231.231,0,0,1-.331.069,1.37,1.37,0,0,0-.77-.293.916.916,0,0,0-.524.154.362.362,0,0,0-.169.293.239.239,0,0,0,0,.131.361.361,0,0,0,.123.115,1.6,1.6,0,0,0,.577.208h0a2.843,2.843,0,0,1,.639.192,1.132,1.132,0,0,1,.462.385.77.77,0,0,1,.108.393.9.9,0,0,1-.393.716,1.54,1.54,0,0,1-.855.262,2.009,2.009,0,0,1-1.186-.462.254.254,0,0,1,.054-.37Z" transform="translate(-158.642 -92.34)"/><path class="h" d="M214.2,295.517l-1.132,2.695v.038h0a.1.1,0,0,1-.046,0h-.192a.069.069,0,0,1-.046,0h-.038v-.038l-.6-1.432-.608,1.432v.038h-.239a.077.077,0,0,1-.038,0h0v-.038l-1.132-2.695a.246.246,0,0,1,.139-.323.254.254,0,0,1,.331.131l.9,2.14.593-1.417a.27.27,0,0,1,.246-.162.277.277,0,0,1,.239.162l.593,1.417.9-2.14a.262.262,0,0,1,.339-.131.246.246,0,0,1-.208.323Z" transform="translate(-159.383 -92.375)"/><path class="h" d="M218.8,295.5a1.686,1.686,0,0,1,0,2.31,1.511,1.511,0,0,1-2.233,0,1.7,1.7,0,0,1,0-2.31,1.54,1.54,0,0,1,1.132-.493,1.471,1.471,0,0,1,1.1.493Zm-.062,1.17a1.178,1.178,0,0,0-.316-.808,1.007,1.007,0,0,0-1.494,0,1.186,1.186,0,0,0,0,1.609,1.007,1.007,0,0,0,1.494,0,1.17,1.17,0,0,0,.316-.8Z" transform="translate(-160.482 -92.337)"/><path class="h" d="M223.519,297.979a.262.262,0,0,1-.162.323h-.108a.385.385,0,0,1-.185-.046.592.592,0,0,1-.146-.162,1.309,1.309,0,0,1-.092-.554.385.385,0,0,0-.062-.2.331.331,0,0,0-.139-.131.938.938,0,0,0-.254-.115h-.523v1.016a.254.254,0,0,1-.262.246.246.246,0,0,1-.246-.246v-2.725a.246.246,0,0,1,.246-.254h.832a.985.985,0,0,1,.624,1.748.678.678,0,0,1,.162.169.877.877,0,0,1,.154.5.986.986,0,0,0,0,.269.262.262,0,0,1,.162.162Zm-.647-1.855a.485.485,0,0,0-.477-.485h-.547v.932h.57a.477.477,0,0,0,.454-.447Z" transform="translate(-161.441 -92.358)"/><path class="h" d="M225.14,298.109v-2.725a.246.246,0,0,1,.254-.254h.547a1.617,1.617,0,0,1,0,3.226h-.547a.246.246,0,0,1-.254-.246Zm.508-.262h.293a1.109,1.109,0,0,0,0-2.21h-.293Z" transform="translate(-162.119 -92.358)"/><path class="g" d="M195.663,308.675l-.423.285h-.077a.092.092,0,0,1,0-.185l.477-.231-.477-.223s-.069-.046-.069-.092a.1.1,0,0,1,.092-.092.131.131,0,0,1,.077,0l.423.293-.038-.508a.093.093,0,1,1,.185,0l-.038.508.416-.293h.077a.1.1,0,0,1,.031.185l-.477.223.477.231a.077.077,0,0,1,.062.085.092.092,0,0,1-.092.1.2.2,0,0,1-.077,0l-.416-.285.038.5a.093.093,0,1,1-.185,0Z" transform="translate(-156.745 -94.162)"/><path class="g" d="M198.243,308.675l-.423.285h-.077a.092.092,0,0,1,0-.185l.477-.231-.477-.223c-.038,0-.069-.046-.069-.092a.1.1,0,0,1,.092-.092.131.131,0,0,1,.077,0l.423.293v-.508a.093.093,0,1,1,.185,0l-.039.508.416-.293a.146.146,0,0,1,.077,0,.1.1,0,0,1,.031.185l-.477.223.477.231a.077.077,0,0,1,.062.085.092.092,0,0,1-.092.1h-.077l-.416-.285.039.5a.093.093,0,1,1-.185,0Z" transform="translate(-157.208 -94.162)"/><path class="g" d="M200.823,308.686l-.423.285h-.077a.092.092,0,1,1,0-.185l.477-.231-.477-.223s-.069-.046-.069-.092a.1.1,0,0,1,.092-.092.131.131,0,0,1,.077,0l.423.293-.023-.47a.093.093,0,1,1,.185,0l-.038.508.423-.293a.123.123,0,0,1,.069,0,.1.1,0,0,1,.031.185l-.477.223.477.231a.077.077,0,0,1,.062.085.092.092,0,0,1-.092.1.139.139,0,0,1-.069,0l-.423-.285.038.5a.093.093,0,1,1-.185,0Z" transform="translate(-157.672 -94.169)"/><path class="g" d="M203.4,308.675l-.423.285H202.9a.092.092,0,1,1,0-.185l.477-.231-.477-.223c-.038,0-.069-.046-.069-.092a.1.1,0,0,1,.092-.092.131.131,0,0,1,.077,0l.423.293-.038-.508a.093.093,0,1,1,.185,0l-.038.508.416-.293a.146.146,0,0,1,.077,0,.1.1,0,0,1,.031.185l-.477.223.477.231a.077.077,0,0,1,.062.085.092.092,0,0,1-.092.1h-.077l-.416-.285.038.5a.093.093,0,1,1-.185,0Z" transform="translate(-158.135 -94.162)"/><path class="g" d="M205.983,308.675l-.423.285h-.077a.092.092,0,0,1,0-.185l.477-.231-.477-.223s-.069-.046-.069-.092a.1.1,0,0,1,.092-.092.131.131,0,0,1,.077,0l.423.293v-.508a.093.093,0,1,1,.185,0v.508l.416-.293a.146.146,0,0,1,.077,0,.1.1,0,0,1,.031.185l-.477.223.477.231a.077.077,0,0,1,.062.085.092.092,0,0,1-.092.1h-.077l-.416-.285v.5a.093.093,0,1,1-.185,0Z" transform="translate(-158.597 -94.162)"/><path class="g" d="M208.563,308.675l-.423.285h-.077a.092.092,0,0,1,0-.185l.477-.231-.477-.223c-.038,0-.069-.046-.069-.092a.1.1,0,0,1,.092-.092.131.131,0,0,1,.077,0l.423.293-.039-.508a.093.093,0,1,1,.185,0l-.038.508.416-.293a.146.146,0,0,1,.077,0,.1.1,0,0,1,.031.185l-.477.223.477.231a.077.077,0,0,1,.062.085.092.092,0,0,1-.092.1h-.077l-.416-.285.038.5a.093.093,0,1,1-.185,0Z" transform="translate(-159.061 -94.162)"/><path class="g" d="M211.135,308.674l-.416.285h-.077a.092.092,0,0,1,0-.185l.47-.231-.47-.223s-.069-.046-.069-.092a.1.1,0,0,1,.092-.092.131.131,0,0,1,.077,0l.416.293v-.508a.085.085,0,0,1,.092-.1.092.092,0,0,1,.092.1v.508l.416-.293a.146.146,0,0,1,.077,0,.1.1,0,0,1,.031.185l-.477.223.477.231a.077.077,0,0,1,.062.085.092.092,0,0,1-.092.1h-.077l-.416-.285v.5a.092.092,0,0,1-.092.1.085.085,0,0,1-.092-.1Z" transform="translate(-159.523 -94.162)"/><path class="g" d="M213.723,308.675l-.423.285h-.077a.092.092,0,0,1,0-.185l.477-.231-.477-.223c-.038,0-.069-.046-.069-.092a.1.1,0,0,1,.092-.092.131.131,0,0,1,.077,0l.423.293-.038-.508a.093.093,0,1,1,.185,0l-.039.508.416-.293a.146.146,0,0,1,.077,0,.1.1,0,0,1,.031.185l-.477.223.477.231a.077.077,0,0,1,.062.085.092.092,0,0,1-.092.1h-.077l-.416-.285.039.5a.093.093,0,1,1-.185,0Z" transform="translate(-159.988 -94.162)"/><path class="g" d="M216.3,308.675l-.423.285H215.8a.092.092,0,0,1,0-.185l.47-.231-.47-.223c-.039,0-.069-.046-.069-.092a.1.1,0,0,1,.092-.092.131.131,0,0,1,.077,0l.423.293v-.508a.093.093,0,1,1,.185,0v.508l.416-.293a.146.146,0,0,1,.077,0,.1.1,0,0,1,.031.185l-.477.223.477.231a.077.077,0,0,1,.062.085.092.092,0,0,1-.092.1h-.077l-.416-.285v.5a.093.093,0,1,1-.185,0Z" transform="translate(-160.449 -94.162)"/><path class="g" d="M218.883,308.686l-.423.285h-.077a.092.092,0,1,1,0-.185l.477-.231-.477-.223s-.069-.046-.069-.092a.1.1,0,0,1,.092-.092.131.131,0,0,1,.077,0l.423.293-.069-.47a.093.093,0,1,1,.185,0l-.038.508.416-.293a.146.146,0,0,1,.077,0,.1.1,0,0,1,.031.185l-.477.223.477.231a.077.077,0,0,1,.062.085.092.092,0,0,1-.092.1H219.4l-.416-.285.038.5a.093.093,0,1,1-.185,0Z" transform="translate(-160.915 -94.169)"/><path class="g" d="M221.463,308.675l-.423.285h-.077a.092.092,0,0,1,0-.185l.477-.231-.477-.223c-.038,0-.069-.046-.069-.092a.1.1,0,0,1,.092-.092.131.131,0,0,1,.077,0l.423.293v-.508a.093.093,0,1,1,.185,0l-.038.508.423-.293a.108.108,0,0,1,.069,0,.1.1,0,0,1,.031.185l-.477.223.477.231a.077.077,0,0,1,.062.085.092.092,0,0,1-.092.1.115.115,0,0,1-.069,0l-.423-.285.038.5a.093.093,0,1,1-.185,0Z" transform="translate(-161.376 -94.162)"/><path class="q" d="M194.62,315.413l11.929-.146,11.938-.077,23.867-.069,23.867.069,11.938.077,11.929.146-11.929.139-11.938.077-23.867.069-23.867-.069-11.938-.077Z" transform="translate(-159.004 -95.194)"/><rect class="g" width="0.385" height="6.914" transform="translate(61.349 211.246)"/><rect class="h" width="62.716" height="19.717" transform="translate(51.992 244.207)"/><path class="e" d="M236.25,355.663v-4.088a.385.385,0,0,1,.77,0v3.7H238.9a.385.385,0,0,1,0,.77h-2.264A.385.385,0,0,1,236.25,355.663Z" transform="translate(-164.089 -99.513)"/><path class="e" d="M244.722,351.77a2.541,2.541,0,0,1,.7,1.755,2.51,2.51,0,0,1-.7,1.748,2.256,2.256,0,0,1-1.655.77,2.31,2.31,0,0,1-1.7-.77,2.494,2.494,0,0,1-.685-1.748,2.525,2.525,0,0,1,.685-1.755,2.31,2.31,0,0,1,1.7-.77A2.248,2.248,0,0,1,244.722,351.77Zm-.092,1.755a1.809,1.809,0,0,0-.47-1.217,1.493,1.493,0,0,0-2.217,0,1.771,1.771,0,0,0-.47,1.216,1.709,1.709,0,0,0,.47,1.2,1.54,1.54,0,0,0,1.124.5,1.486,1.486,0,0,0,1.093-.5A1.74,1.74,0,0,0,244.63,353.525Z" transform="translate(-164.828 -99.47)"/><path class="e" d="M248.33,353.542a2.525,2.525,0,0,1,2.556-2.5,2.579,2.579,0,0,1,1.586.539.393.393,0,0,1,.069.562.4.4,0,0,1-.554.062,1.809,1.809,0,0,0-1.1-.377,1.74,1.74,0,0,0-1.247.508,1.663,1.663,0,0,0-.516,1.209,1.64,1.64,0,0,0,.516,1.186,1.709,1.709,0,0,0,1.247.508,1.91,1.91,0,0,0,.955-.262v-.947h-.993a.4.4,0,0,1-.393-.4.385.385,0,0,1,.393-.385h1.378a.393.393,0,0,1,.4.385v1.663h0a.377.377,0,0,1-.131.169,2.572,2.572,0,0,1-1.54.539,2.518,2.518,0,0,1-2.625-2.456Z" transform="translate(-166.208 -99.483)"/><path class="e" d="M256,351.6a.37.37,0,0,1,.377-.377.385.385,0,0,1,.393.377v4.073a.393.393,0,0,1-.393.385.377.377,0,0,1-.377-.385Z" transform="translate(-167.703 -99.519)"/><path class="e" d="M259.44,355.679a.385.385,0,0,1-.77,0v-4.027h0a.362.362,0,0,1,.154-.316.377.377,0,0,1,.524.085l2.24,3.08v-2.856a.385.385,0,1,1,.77,0v4.034a.385.385,0,0,1-.377.385.362.362,0,0,1-.285-.139l-.038-.046-2.217-3.08Z" transform="translate(-168.077 -99.527)"/><path class="g" d="M224.14,375.878a.108.108,0,0,1,.108-.108h1.671a.108.108,0,0,1,.108.108.115.115,0,0,1-.108.115h-1.54v1.278h1.355a.115.115,0,0,1,0,.231h-1.355v1.386a.112.112,0,1,1-.223,0Z" transform="translate(-161.95 -96.43)"/><path class="g" d="M228.2,377a1.132,1.132,0,1,1-1.07,1.132A1.109,1.109,0,0,1,228.2,377Zm0,2.04a.916.916,0,1,0-.855-.909.885.885,0,0,0,.855.932Z" transform="translate(-162.477 -96.713)"/><path class="g" d="M230.874,377.139a.116.116,0,0,1,.085-.139.108.108,0,0,1,.108.115v.439a1.124,1.124,0,0,1,.908-.554.112.112,0,0,1,0,.223.824.824,0,0,0-.654.37,2.195,2.195,0,0,0-.277.524v.993a.108.108,0,0,1-.108.115.115.115,0,0,1-.115-.115Z" transform="translate(-163.165 -96.713)"/><path class="g" d="M235.437,379.1a1.062,1.062,0,0,1-1.062,1.063,1.078,1.078,0,0,1-.469-.108.115.115,0,0,1-.046-.146.1.1,0,0,1,.146-.054.77.77,0,0,0,.37.085.839.839,0,0,0,.847-.839v-.277a1.024,1.024,0,0,1-.847.447,1.124,1.124,0,0,1,0-2.248,1.039,1.039,0,0,1,.847.439v-.331a.108.108,0,0,1,.146-.131.1.1,0,0,1,.1.108Zm-.216-.962a.847.847,0,1,0-.4.8A.847.847,0,0,0,235.221,378.137Z" transform="translate(-163.575 -96.711)"/><path class="g" d="M238.42,377a1.132,1.132,0,1,1-1.07,1.132A1.109,1.109,0,0,1,238.42,377Zm0,2.04a.916.916,0,1,0-.847-.908.885.885,0,0,0,.847.932Z" transform="translate(-164.308 -96.713)"/><path class="g" d="M241.853,376.852a.123.123,0,0,1-.115.115h-.285v1.648a.169.169,0,0,0,.162.162.115.115,0,0,1,0,.231.385.385,0,0,1-.393-.393v-1.648h-.254c-.108,0-.108-.062-.108-.115s0-.108.108-.108h.285v-.839a.115.115,0,0,1,.108-.115.123.123,0,0,1,.123.115v.816h.254a.115.115,0,0,1,.115.131Z" transform="translate(-164.976 -96.435)"/><path class="g" d="M245.32,378.19v-1.055a.115.115,0,1,1,.231,0v.331a1.047,1.047,0,0,1,.855-.439,1.1,1.1,0,0,1,1.093,1.116,1.116,1.116,0,0,1-1.093,1.132,1.055,1.055,0,0,1-.855-.447v1.293a.115.115,0,1,1-.231,0Zm.231-.046a.862.862,0,1,0,.862-.862.862.862,0,0,0-.862.862Z" transform="translate(-165.739 -96.718)"/><path class="g" d="M251.092,377.138v2.04a.116.116,0,1,1-.223,0v-.339a1.047,1.047,0,0,1-.847.454,1.132,1.132,0,1,1,0-2.263,1.039,1.039,0,0,1,.847.439v-.331a.108.108,0,0,1,.108-.108.115.115,0,0,1,.115.108Zm-.223,1.024a.855.855,0,1,0-.847.909A.885.885,0,0,0,250.869,378.162Z" transform="translate(-166.378 -96.72)"/><path class="g" d="M252.781,378.818a.108.108,0,0,1,.162,0,1.186,1.186,0,0,0,.693.262.662.662,0,0,0,.423-.139.347.347,0,0,0,.177-.277.354.354,0,0,0-.162-.277,1.132,1.132,0,0,0-.485-.169h0a1.271,1.271,0,0,1-.508-.177.47.47,0,0,1-.246-.408.57.57,0,0,1,.246-.447,1,1,0,0,1,.547-.146,1.247,1.247,0,0,1,.678.239.123.123,0,0,1,0,.162.108.108,0,0,1-.154,0,.993.993,0,0,0-.554-.223.662.662,0,0,0-.423.123.354.354,0,0,0-.146.262.262.262,0,0,0,.131.223,1.1,1.1,0,0,0,.462.162h0a1.432,1.432,0,0,1,.547.185.539.539,0,0,1,.254.462.57.57,0,0,1-.254.454.947.947,0,0,1-.562.185,1.4,1.4,0,0,1-.839-.323A.115.115,0,0,1,252.781,378.818Z" transform="translate(-167.089 -96.722)"/><path class="g" d="M255.678,378.818a.1.1,0,0,1,.154,0,1.209,1.209,0,0,0,.693.262.685.685,0,0,0,.431-.139.316.316,0,0,0,0-.554,1.132,1.132,0,0,0-.485-.169h0a1.27,1.27,0,0,1-.508-.177.47.47,0,0,1-.246-.408.57.57,0,0,1,.246-.447,1.032,1.032,0,0,1,.554-.146,1.247,1.247,0,0,1,.67.239.115.115,0,0,1,0,.162.1.1,0,0,1-.146,0,1.039,1.039,0,0,0-.554-.223.685.685,0,0,0-.431.123.354.354,0,0,0-.146.262.277.277,0,0,0,.131.223,1.1,1.1,0,0,0,.462.162h0a1.54,1.54,0,0,1,.554.185.554.554,0,0,1,.254.462.577.577,0,0,1-.262.454.908.908,0,0,1-.562.185,1.4,1.4,0,0,1-.839-.323A.108.108,0,0,1,255.678,378.818Z" transform="translate(-167.606 -96.722)"/><path class="g" d="M259.461,379.275l-.046-.046-.847-2.025a.123.123,0,0,1,.054-.146.116.116,0,0,1,.146.062l.77,1.786.516-1.247a.123.123,0,0,1,.223,0l.516,1.247.77-1.786a.108.108,0,0,1,.139-.062.116.116,0,0,1,.062.146l-.847,2.009a.168.168,0,0,1-.038.062h-.054a.123.123,0,0,1-.092-.069h0l-.531-1.255-.524,1.247h0a.115.115,0,0,1-.1.069h-.039Z" transform="translate(-168.075 -96.725)"/><path class="g" d="M264.68,377a1.132,1.132,0,1,1-1.07,1.132A1.109,1.109,0,0,1,264.68,377Zm0,2.04a.916.916,0,1,0-.847-.908.885.885,0,0,0,.847.932Z" transform="translate(-169.014 -96.713)"/><path class="g" d="M267.4,377.145a.108.108,0,1,1,.216,0v.5l.038-.062a1.1,1.1,0,0,1,.9-.554.112.112,0,1,1,0,.223.824.824,0,0,0-.654.37,1.864,1.864,0,0,0-.269.523h0v.993a.108.108,0,1,1-.216,0Z" transform="translate(-169.732 -96.72)"/><path class="g" d="M271.632,378.562a1.093,1.093,0,0,1-.87.439,1.132,1.132,0,0,1,0-2.263,1.07,1.07,0,0,1,.87.439v-1.3a.115.115,0,0,1,.231,0v3.01a.115.115,0,0,1-.231,0Zm0-.654v-.077a.9.9,0,1,0,0,.077Z" transform="translate(-170.095 -96.428)"/><path class="g" d="M274.3,377.683h0a.108.108,0,0,1,.108-.108.77.77,0,1,0-.67-1.147.123.123,0,0,1-.154.038.1.1,0,0,1,0-.146.978.978,0,0,1,.855-.5.995.995,0,1,1,.116,1.986v.462a.115.115,0,0,1-.115.108.108.108,0,0,1-.108-.108Zm0,1.124a.115.115,0,1,1,.223,0v.1a.115.115,0,0,1-.115.108.108.108,0,0,1-.108-.108Z" transform="translate(-170.809 -96.441)"/><path class="e" d="M254.881,76.537H240.168a.908.908,0,0,1-.908-.908h0a.908.908,0,0,1,.908-.908h14.713a.908.908,0,0,1,.908.908h0A.908.908,0,0,1,254.881,76.537Z" transform="translate(-164.179 -64.865)"/></g><g transform="translate(113.896 192.654)"><path class="h" d="M173.133,449.451V439.8l-17.3-.124-.147,14.588,1.072.079c4.772.3,24.28.756,27.484-.237C187.811,453,173.133,449.451,173.133,449.451Z" transform="translate(-118.198 -140.631)"/><path class="g" d="M184.646,451.7c0,.158-6.476.293-14.453.293s-14.453-.135-14.453-.293,6.476-.293,14.453-.293S184.646,451.545,184.646,451.7Z" transform="translate(-118.192 -139.127)"/><path class="g" d="M171.426,450.3c-.147-.079,0-.587.35-1.128s.824-.767.936-.654-.124.542-.463,1S171.573,450.375,171.426,450.3Z" transform="translate(-116.187 -139.502)"/><path class="g" d="M172.409,450.89c-.158,0-.079-.632.259-1.23s.79-.959.914-.869-.079.6-.395,1.128S172.556,450.947,172.409,450.89Z" transform="translate(-116.064 -139.464)"/><path class="g" d="M160.927,452.015c-.068,0-.327-.2-.7-.632a11.18,11.18,0,0,0-1.512-1.512,3.982,3.982,0,0,0-1.873-.824c-.53-.068-.869,0-.9-.068s.293-.3.914-.35a3.486,3.486,0,0,1,2.257.767,6.363,6.363,0,0,1,1.489,1.749C160.859,451.642,160.995,451.97,160.927,452.015Z" transform="translate(-118.166 -139.483)"/><path class="g" d="M171.66,448.487c.079.135-.214.474-.711.654s-.936.113-.959,0,.327-.35.756-.508S171.57,448.351,171.66,448.487Z" transform="translate(-116.364 -139.509)"/><path class="g" d="M171.466,447.682c0,.169-.451.3-1.038.316s-1.049-.124-1.038-.282.474-.3,1.038-.316S171.443,447.524,171.466,447.682Z" transform="translate(-116.441 -139.641)"/><path class="h" d="M210.883,449.451V439.8l-17.3-.124-.147,14.442,1.072.079c4.772.3,24.291.9,27.484-.09C225.561,453,210.883,449.451,210.883,449.451Z" transform="translate(-113.357 -140.631)"/><path class="g" d="M222.395,451.723c0,.158-6.465.293-14.453.293s-14.442-.135-14.442-.293,6.465-.293,14.442-.293S222.395,451.565,222.395,451.723Z" transform="translate(-113.349 -139.124)"/><path class="g" d="M209.176,450.3c-.135-.079,0-.587.35-1.128s.824-.767.936-.654-.124.542-.463,1S209.323,450.375,209.176,450.3Z" transform="translate(-111.345 -139.502)"/><path class="g" d="M210.158,450.89c-.147,0-.079-.632.271-1.23s.79-.959.914-.869-.09.6-.406,1.128S210.316,450.947,210.158,450.89Z" transform="translate(-111.222 -139.464)"/><path class="g" d="M198.677,452.015c-.068,0-.316-.2-.7-.632a11.179,11.179,0,0,0-1.512-1.512,3.982,3.982,0,0,0-1.873-.824c-.519-.068-.869,0-.9-.068s.293-.3.914-.35a3.486,3.486,0,0,1,2.257.767,6.171,6.171,0,0,1,1.489,1.749C198.609,451.642,198.745,451.97,198.677,452.015Z" transform="translate(-113.325 -139.483)"/><path class="g" d="M209.41,448.487c.079.135-.214.474-.711.654s-.936.113-.959,0,.327-.35.756-.508S209.32,448.351,209.41,448.487Z" transform="translate(-111.523 -139.509)"/><path class="g" d="M209.235,447.682c0,.169-.451.3-1.038.316s-1.038-.124-1.027-.282.463-.3,1.027-.316S209.235,447.524,209.235,447.682Z" transform="translate(-111.596 -139.641)"/><path class="r" d="M283.71,196.169c-.451-.463-1.568-.237-1.568-.237a5.777,5.777,0,0,0,0-1.963c-.2-.632-1.625-.508-1.625-.508a6.551,6.551,0,0,1,0-1.6.575.575,0,0,0-.327-.575,5.212,5.212,0,0,0-2.121-.384c-.869-.621,2.651-5.551,3.96-7.131s1.072-2.809-.09-2.809c-.8,0-4.908,4.739-6.172,6.329s-4.615,6.014-4.727,2.482-1.534-6.194-2.426-6.645-1.839.609-1.354,1.591a12.625,12.625,0,0,1,.79,3.475,8.3,8.3,0,0,1-.124,2.843,34.093,34.093,0,0,1-1.523,5.1h-.09s-24.618,23.614-26.4,25.3c-1.591,1.512-33.588-1.794-40.008-2.471a42.968,42.968,0,0,0-6.589-.451c-2.787.124-3.283.519-6.059.553a137.217,137.217,0,0,0-20.918,1.839,17.341,17.341,0,0,0-13.607,11.8c-6.465,20.2-21.11,68-23.693,94.852a113.956,113.956,0,0,0-5.28,10.91c-1.816,4.942-1.376,5.111-.767,5.224,1.647.3,3.52-8.563,4.22-6.42s-3.554,10.572-1.828,10.82c2.257.316,4.05-9.026,4.265-9.771s1.331-.508,1.128.192c-.327.993-3.5,11.519-1.286,11.858,1.219.181,1.354-2.042,1.354-2.042s2.257-10.075,3.283-9.872-.068,6.149-.587,8.135.2,2.99,1.264,2.5c.722-.338,2.448-6.375,2.922-8.338s1.659-7.4,3.249-4.254,4.005,4.976,5,5.021a1.128,1.128,0,0,0,.553-2.02,12.784,12.784,0,0,1-2.177-2.821,8.315,8.315,0,0,1-1.128-2.64,28.626,28.626,0,0,1-.79-5.709l-.181-1.128c2.527-12.512,9.8-49.237,20.309-72.693l4.31,8.868,1.873,6.566L157.255,298.3l48.989-.643-7.311-28.139,8.879-29.335h0c9.6.214,34.254.575,38.361-1.286,5.167-2.257,31.9-36.014,31.9-36.014h0a61.741,61.741,0,0,0,5-4.332S284.691,197.184,283.71,196.169Z" transform="translate(-122.46 -173.812)"/><path class="h" d="M153.124,273.342c1.422-4.851,8.721-28.838,8.721-28.838s3.588,19.553,2.64,21.911a41.746,41.746,0,0,1-3.08,5.822c-8.281,12.6-7.2,18.909-7.2,18.909l50.038-1.523c.113-7-4.028-23.265-4.885-25.86s2-11.091,2-11.091,5.641-5.743,5.438-8.7a47.816,47.816,0,0,0-.982-7.9l30.463,1.128-.959-20.647-43.754-4.378c-1.523,4.3-15.3,2.189-15.3,2.189-14.87.5-15.8,3.227-21.978,8.033s-16.416,46.055-16.416,46.055Z" transform="translate(-120.484 -169.808)"/><path class="g" d="M179.638,262.264a10.527,10.527,0,0,1-2.629.135c-1.636,0-3.881-.113-6.352-.361s-4.7-.6-6.3-.914a10.855,10.855,0,0,1-2.561-.654,14.1,14.1,0,0,1,2.629.248c1.6.2,3.825.485,6.284.733s4.694.417,6.307.53A13.919,13.919,0,0,1,179.638,262.264Z" transform="translate(-117.415 -163.615)"/><path class="g" d="M182.855,258.29a11.566,11.566,0,0,1-2.73.936,50.161,50.161,0,0,1-13.8,1.636,11.386,11.386,0,0,1-2.866-.271,19.28,19.28,0,0,1,2.866-.147c1.771-.056,4.208-.181,6.894-.5s5.077-.767,6.77-1.128a18.707,18.707,0,0,1,2.866-.53Z" transform="translate(-117.202 -163.895)"/><path class="g" d="M196.045,241.47a11.745,11.745,0,0,1-.35,2.55c-.293,1.568-.745,3.712-1.32,6.059s-1.128,4.513-1.625,5.98a11.282,11.282,0,0,1-.88,2.426,11.485,11.485,0,0,1,.474-2.527c.429-1.76.914-3.791,1.455-6.014s1.061-4.254,1.489-6.014a10.764,10.764,0,0,1,.756-2.46Z" transform="translate(-113.558 -166.052)"/><path class="g" d="M153.6,264.313a52.446,52.446,0,0,1-7.706-1.794,53.556,53.556,0,0,1-7.559-2.369,54.242,54.242,0,0,1,7.706,1.794A52.95,52.95,0,0,1,153.6,264.313Z" transform="translate(-120.425 -163.656)"/><path class="g" d="M200.154,235.694a3.791,3.791,0,0,1-1.286,0,13.37,13.37,0,0,1-3.441-.824,14.137,14.137,0,0,1-8.169-8.022,14.577,14.577,0,0,1-1-6.352,9.872,9.872,0,0,1,1.546-5.032,5.224,5.224,0,0,1,2.854-2.11,3.453,3.453,0,0,1,.959-.124h.338a3.658,3.658,0,0,0-1.23.3,5.133,5.133,0,0,0-2.584,2.11c-1.534,2.414-1.963,6.826-.327,10.944a13.787,13.787,0,0,0,3.486,5.1,14.813,14.813,0,0,0,4.276,2.753A21.73,21.73,0,0,0,200.154,235.694Z" transform="translate(-114.282 -169.674)"/><path class="g" d="M221.915,236.364a94.01,94.01,0,0,1-.271-10.4,93.076,93.076,0,0,1,.316-10.391,93.714,93.714,0,0,1,.271,10.391A90.267,90.267,0,0,1,221.915,236.364Z" transform="translate(-109.745 -169.373)"/><path class="r" d="M187.112,217.793c.124-2.516.384-5.359.384-5.359s6.228-.688,6.6-7.119,0-21.268,0-21.268l-11.283-5.777-12.524,9.85,1.929,32.155,11.486.733a3.317,3.317,0,0,0,3.407-3.216Z" transform="translate(-116.326 -174.157)"/><path class="s" d="M186.482,198.147a.523.523,0,0,1-.1.271.835.835,0,0,1-.711.316c-.722,0-1.422-.835-1.67-1.805a2.945,2.945,0,0,1,0-1.433,1.241,1.241,0,0,1,.677-.97.621.621,0,0,1,.474,0,.575.575,0,0,1,.259.259.318.318,0,0,1,0,.3.33.33,0,0,0-.113-.226.406.406,0,0,0-.53-.113.959.959,0,0,0-.463.8,2.888,2.888,0,0,0,0,1.275c.226.88.835,1.591,1.376,1.659a.779.779,0,0,0,.6-.169C186.415,198.226,186.46,198.136,186.482,198.147Z" transform="translate(-114.579 -172.078)"/><path class="g" d="M201.319,181.039c-.869-2.956-4.017-4.423-6.882-5.235-4.366-1.241-9.082-1.783-13.347-.214s-9.387,4.321-9.387,9.026c-2.516-.2-3.96,2-4.953,4.727a17.713,17.713,0,0,0-1.128,5.19h0c-.316,6.16-2.042,14.667-6.036,19.18-2.257,2.516-5.382,4.254-6.668,7.39-1.128,2.719-.542,5.946-1.591,8.7-.936,2.426-3,4.152-4.513,6.262a16.788,16.788,0,0,0-1.072,16.236,20.557,20.557,0,0,0,12.287,10.606,28.736,28.736,0,0,0,16.19.158,27.078,27.078,0,0,0,10.854-5.382,18.12,18.12,0,0,0,6.3-10.425c.8-4.6-.485-9.285-1.444-13.866-3-14.475-2.144-15.231,1.647-28.669.09-.237.135-.485.2-.722s.1-.35.147-.53h0a8.507,8.507,0,0,0,.169-1.613,3.1,3.1,0,0,1-3.261-.7,3.385,3.385,0,0,1-.767-3.385,4.919,4.919,0,0,1,2.911-2.742c1.252-.519,2.595-.79,3.825-1.365,2.606-1.241,4.411-3.814,5.641-6.51a8.936,8.936,0,0,0,.88-6.115Z" transform="translate(-119.679 -174.625)"/><path class="h" d="M186.808,198a5.519,5.519,0,0,1,.587,1.128c.338.711.79,1.715,1.286,2.877l.09.214h-.237l-1.128.1c-.778,0-1.433.147-2.2.135a.406.406,0,0,1-.293-.259.508.508,0,0,1,0-.316,4.517,4.517,0,0,1,.1-.451l.2-.8a7.638,7.638,0,0,1,.474-1.557,7.617,7.617,0,0,1-.237,1.613l-.158.8c-.056.271-.158.688,0,.654.564,0,1.365-.124,2.11-.169l1.128-.1-.147.248c-.485-1.128-.891-2.189-1.128-2.922a4.4,4.4,0,0,1-.451-1.2Z" transform="translate(-114.454 -171.627)"/><path class="g" d="M152.625,282.343l50.038-1.523,21.775,85-4.005,97.5H193.975l3.238-95.427-19.349-59.177,2.979,158.384-26.74.395-2.809-148.873c-.124-4.141-1.478-13.471-.97-17.578Z" transform="translate(-118.901 -161.005)"/><path class="i" d="M182.474,307a10.021,10.021,0,0,1-2.448-.147c-1.512-.181-3.577-.5-5.844-.948s-4.3-.97-5.765-1.388a9.312,9.312,0,0,1-2.256-.812c0-.169,3.678.711,8.191,1.625S182.5,306.828,182.474,307Z" transform="translate(-116.855 -158.073)"/><path class="i" d="M215.253,437.873c0,.158-5.991.293-13.381.293s-13.392-.135-13.392-.293,5.991-.293,13.392-.293S215.253,437.7,215.253,437.873Z" transform="translate(-113.993 -140.9)"/><path class="i" d="M180.1,442.313c0,.169-5.822.293-13,.293s-12.986-.124-12.986-.293,5.822-.293,12.986-.293S180.1,442.155,180.1,442.313Z" transform="translate(-118.4 -140.331)"/><path class="i" d="M174.383,459.493c-.158,0-.857-34.6-1.568-77.285s-1.128-77.308-.982-77.308.869,34.592,1.568,77.3S174.552,459.493,174.383,459.493Z" transform="translate(-116.132 -157.917)"/><path class="i" d="M211.111,457.8a2.887,2.887,0,0,1,0-.463v-1.354c0-1.219.09-2.967.158-5.19.158-4.513.384-11.068.666-19.1.609-16.157,1.467-38.428,2.4-63.013V368.1c-5.923-23.693-11.283-45.2-15.175-60.756l-4.513-18.4c-.519-2.155-.914-3.836-1.2-5.009-.135-.553-.226-.982-.3-1.309a1.953,1.953,0,0,1-.079-.451,2.5,2.5,0,0,1,.135.44c.09.316.2.745.361,1.286.3,1.128.745,2.843,1.309,4.987,1.128,4.355,2.719,10.628,4.7,18.357,3.926,15.547,9.342,37,15.344,60.722v.745c-1,24.585-1.918,46.845-2.584,63-.35,8.044-.643,14.554-.846,19.09-.113,2.257-.2,3.971-.259,5.19,0,.575-.068,1.027-.079,1.354a2.155,2.155,0,0,1-.045.463Z" transform="translate(-113.404 -160.832)"/><path class="i" d="M202.776,356.5a30.223,30.223,0,0,1-5.844,1.3c-2.437.417-4.513.711-5.449.756v-.226c.3.09.463.147.463.192s-.192,0-.508,0h-.677l.677-.2c.88-.26,2.956-.688,5.393-1.128a30.462,30.462,0,0,1,5.946-.688Z" transform="translate(-113.7 -151.299)"/><path class="i" d="M202.2,359.475a29.115,29.115,0,0,1-5.269-.237,29.765,29.765,0,0,1-5.246-.575,33.406,33.406,0,0,1,10.515.812Z" transform="translate(-113.582 -151.036)"/><path class="t" d="M152.16,284.137a6.86,6.86,0,0,0,4.942,2.629,22.261,22.261,0,0,0,6.059-.113c12.918-1.433,26.6-2.753,39.252-5.833-16.371.914-33.667.609-50.038,1.523l-.169,1.4" transform="translate(-118.651 -161.005)"/><g class="m" transform="translate(50.376 146.205)"><path d="M167.11,304.21l9.229,35.811-.643-34.3Z" transform="translate(-167.11 -304.21)"/></g></g></g></g></svg>