<svg xmlns="http://www.w3.org/2000/svg" xmlns:xlink="http://www.w3.org/1999/xlink" viewBox="0 0 500 500" xmlns:v="https://vecta.io/nano"><style><![CDATA[.B{fill:#455a64}.C{fill:#1e6167}.D{fill:#37474f}.E{fill:#263238}.F{fill:#fafafa}.G{fill:#ffa8a7}.H{fill:#b16668}.I{opacity:.15}.J{fill:#f0f0f0}.K{fill:#f28f8f}.L{fill:#9a4a4d}]]></style><ellipse cx="249.37" cy="342.74" rx="240.37" ry="140.29" class="J"/><path d="M187 325.32c-37.4 21.62-37.4 56.68 0 78.28s98.14 21.61 135.58 0 37.44-56.66 0-78.28-98.1-21.61-135.58 0zm203.8 24.01c-19.23 11.1-19.23 29.1 0 40.2s50.41 11.1 69.64 0 19.23-29.1 0-40.2-50.44-11.11-69.64 0zM38 353.55c-17.54 10.12-17.54 26.54 0 36.67s46 10.13 63.53 0 17.54-26.55 0-36.67-46.02-10.13-63.53 0z" fill="#e0e0e0"/><path d="M416.34 96.06L410 92.4a6.39 6.39 0 0 0 .05-.78v-1.83a11.3 11.3 0 0 0-5.12-8.87 4 4 0 0 0-3.05-.59c-.46-4.64-3.69-9.89-7.6-12.14-4.23-2.45-7.66-.47-7.66 4.42v2.74a13.47 13.47 0 0 0 .65 3.93l-5.26-3c-1.57-.9-2.84-.17-2.84 1.64A6.27 6.27 0 0 0 382 82.8l34.32 19.81c1.57.91 2.84.18 2.84-1.63a6.25 6.25 0 0 0-2.82-4.92zm6.95-45.97l3.5 1.34v-7.69c0-6.11 4.86-7.57 10.15-4.52h0c5.28 3.05 9.56 10.47 9.56 16.57v1.12a5.14 5.14 0 0 1 4.44.68h0a15.25 15.25 0 0 1 6.89 11.93V70l4.87 2.82a10 10 0 0 1 4.53 7.85c0 2.89-2 4.06-4.53 2.62l-39.41-22.73a10 10 0 0 1-4.53-7.86c0-2.89 2.03-4.06 4.53-2.61zM92.54 96.06l6.33-3.66a6.39 6.39 0 0 1-.05-.78v-1.83a11.3 11.3 0 0 1 5.12-8.87 4 4 0 0 1 3-.59c.46-4.64 3.68-9.89 7.6-12.14 4.23-2.45 7.65-.47 7.65 4.42v2.74a13.45 13.45 0 0 1-.64 3.93l5.26-3c1.56-.9 2.84-.17 2.84 1.64a6.3 6.3 0 0 1-2.84 4.92l-34.27 19.77c-1.57.91-2.84.18-2.84-1.63a6.25 6.25 0 0 1 2.84-4.92zm-6.96-45.97l-3.49 1.34v-7.69c0-6.11-4.86-7.57-10.15-4.52h0c-5.28 3.05-9.56 10.47-9.56 16.57v1.12a5.14 5.14 0 0 0-4.44.68h0a15.22 15.22 0 0 0-6.89 11.93V70l-4.87 2.82a10 10 0 0 0-4.53 7.85c0 2.89 2 4.06 4.53 2.62l39.4-22.75a10 10 0 0 0 4.54-7.86c0-2.87-2.03-4.04-4.54-2.59z" fill="#ebebeb"/><use xlink:href="#B" class="C"/><use xlink:href="#B" class="I"/><path d="M455.55 346.57h.05a.34.34 0 0 0 .27-.41c-3-14.63 1.94-31.17 8.2-38.1a.35.35 0 1 0-.53-.47c-6.37 7.06-11.37 23.87-8.36 38.71a.36.36 0 0 0 .37.27z" fill="#fff"/><path d="M456.36 358.43c.38.38.75 1 1.21 1.27s.83-.4 1.18.2c.19.32.22.76.54 1a.87.87 0 0 0 1-.19 5.1 5.1 0 0 0 .64-.95 5.7 5.7 0 0 1 4-2.19 35 35 0 0 0 5.09-1 4.15 4.15 0 0 0 2.89-3.36c.08-1.16-.61-1.94-1.2-3.14-.68-1.38.1-2.6 1.11-3.49s3.05-1.6 4.31-2.31 3.27-2.17 3.54-3.59c.67-3.49-3-3.68-3.14-6.15-.07-1.65 1.16-3.06 1.52-4.67s.44-3.25-.69-4.31-3.12-.93-4.61-.5a14.91 14.91 0 0 0-5 2.87c-1.75 1.41-2.92 2.38-5.05 1.52-3-1.21-5.89 1.18-5.75 5.41.05 1.66.63 3.34-.19 4.78-.75 1.29-2.9 1.27-4 2.28a6.86 6.86 0 0 0-2 5.68c.24 3.57 2.04 8.27 4.6 10.84z" class="C"/><g class="F"><path d="M458 360.64h0a.36.36 0 0 1-.4-.33c-1.23-12.45 9.08-27.64 17-33a.37.37 0 0 1 .51.09.36.36 0 0 1-.1.51c-7.77 5.31-17.88 20.19-16.69 32.37a.36.36 0 0 1-.32.36z"/><path d="M462.57 342.51a.38.38 0 0 1-.34-.16.36.36 0 0 1 .11-.5c4.51-2.91 9.72-3.94 13.27-2.63a.36.36 0 1 1-.25.67c-3.34-1.23-8.3-.23-12.63 2.56a.52.52 0 0 1-.16.06z"/></g><use xlink:href="#C" class="C"/><use xlink:href="#C" class="I"/><path d="M44.36 350.36h0A.35.35 0 0 1 44 350c.47-14.92-7.15-30.4-14.48-36.19a.34.34 0 0 1 0-.49.35.35 0 0 1 .49-.06c7.46 5.89 15.22 21.62 14.74 36.76a.35.35 0 0 1-.39.34z" fill="#fff"/><path d="M43.44 364c-.26.7-.6.62-1.3.4-.52-.16-1-.42-1.53-.57a25.56 25.56 0 0 0-3.11-.74c-1.91-.33-3.85-.18-5.74-.51a4.14 4.14 0 0 1-3.42-2.82c-.27-1.13.28-2 .66-3.29.44-1.48-.53-2.56-1.68-3.26s-3.28-1.06-4.64-1.55-3.58-1.59-4.09-2.95c-1.25-3.33 2.36-4.13 2.06-6.59-.2-1.64-1.66-2.82-2.28-4.34s-1-3.14 0-4.38 2.91-1.43 4.46-1.26a14.67 14.67 0 0 1 5.44 2c2 1.09 3.29 1.85 5.24.64 2.73-1.69 6 .18 6.58 4.37.22 1.65-.07 3.4 1 4.68s3.07.77 4.33 1.58a6.87 6.87 0 0 1 2.87 5.27c.35 3.59-.6 8.52-2.69 11.49a7.38 7.38 0 0 1-1 1.45c-.36.28-.92-.24-1.16.38z" class="C"/><g class="F"><path d="M44.35 364.63h0a.37.37 0 0 0 .34-.39c-.89-12.48-13.6-25.72-22.32-29.72a.36.36 0 0 0-.3.67c8.55 3.92 21 16.89 21.88 29.1a.37.37 0 0 0 .4.34z"/><path d="M36.76 347.53a.35.35 0 0 0 .3-.21.35.35 0 0 0-.19-.47c-4.94-2.12-10.24-2.26-13.52-.37a.36.36 0 1 0 .36.62c3.08-1.78 8.14-1.62 12.88.4a.26.26 0 0 0 .17.03z"/></g><path d="M289.22,362.93c-4.83-9-2-19.14,2.16-26.26,4.39-7.56-1.23-12.52-6.92-6.82s-5.47,20.24,1.21,31.61Z" class="D"/><path d="M285.86,359.76a.25.25,0,0,1-.23-.16c-5.68-14.12-1.58-25.1,1.74-29.36a.24.24,0,0,1,.35,0,.25.25,0,0,1,0,.35c-.36.46-8.69,11.44-1.68,28.86a.25.25,0,0,1-.13.33Z" class="F"/><path d="M286.76,359.93c-1.41-5.57,2.51-14.8,8.47-18.68,5.36-3.48,8.52-3.24,10.07-1.29s-.87,4.89-5,7.39-10.85,8-11.08,14.32Z" class="B"/><path d="M287.7 359.74h0a.25.25 0 0 1-.21-.28c1.2-8.79 8.58-17 14.36-18.56a.25.25 0 0 1 .31.18.25.25 0 0 1-.18.3c-5.64 1.48-12.82 9.55-14 18.15a.24.24 0 0 1-.28.21z" class="F"/><path d="M219.88,363.19c4.83-9,2-19.15-2.15-26.27-4.4-7.55,1.23-12.51,6.91-6.81s5.48,20.24-1.21,31.61Z" class="D"/><path d="M223.24 360h-.09a.25.25 0 0 1-.14-.33c7-17.42-1.32-28.4-1.68-28.86a.25.25 0 0 1 0-.35.24.24 0 0 1 .35 0c3.32 4.26 7.43 15.24 1.74 29.36a.25.25 0 0 1-.18.18z" class="F"/><path d="M222.34,360.19c1.42-5.57-2.5-14.81-8.46-18.68-5.37-3.49-8.52-3.24-10.08-1.29s.87,4.89,5,7.39,10.84,8,11.07,14.32Z" class="B"/><path d="M221.41,360a.25.25,0,0,1-.25-.22c-1.18-8.59-8.36-16.66-14-18.14a.25.25,0,1,1,.12-.48c5.79,1.51,13.16,9.77,14.37,18.56a.26.26,0,0,1-.22.28Z" class="F"/><use xlink:href="#D" class="C"/><use xlink:href="#D" style="mix-blend-mode:multiply" opacity=".2"/><path d="M260 350.77c-1.5.38 1.46 5.9 4.65 15.7 1.68 5.18 2.58 12.61 11 8.48 7.77-3.81 1.26-12.78-4.76-18.51-5.34-5.1-9.28-6.08-10.89-5.67zm1.39-3.38c.79.41 5.66 1.05 13.5 8.37 4.21 3.94 7.5 8.92 9.07 9.56s2.66-6.25 0-9.69a27.43 27.43 0 0 0-12.86-9.14c-5.43-1.63-11.02.22-9.71.9zm-6.78 32.48c-8.09 0-9.46-1.46-6.34-14.51 1.64-6.89 5-13.81 6.34-13.81s4.7 6.92 6.35 13.81c3.12 13.05 1.75 14.51-6.35 14.51zm-5.38-29.1c1.5.38-1.46 5.9-4.65 15.7-1.68 5.18-2.58 12.61-11 8.48-7.77-3.81-1.26-12.78 4.76-18.51 5.34-5.1 9.28-6.08 10.89-5.67zm-1.4-3.38c-.78.41-5.65 1.05-13.49 8.37-4.21 3.94-7.5 8.92-9.07 9.56s-2.66-6.25 0-9.69a27.38 27.38 0 0 1 12.86-9.14c5.43-1.63 11.02.22 9.7.9z" opacity=".5" class="C"/><use xlink:href="#E" class="C"/><use xlink:href="#E" style="mix-blend-mode:multiply" opacity=".3"/><path d="M258.5 313.22h-7.77c-.23 5.06-.53 10-1 14.66q4.86-.09 9.71-.58c-.44-4.47-.72-9.22-.94-14.08zm-23.6 59.57c-11.46-7.17-10.65-20-3.05-26.5a41.25 41.25 0 0 0-8.33 7.32l-.27.3-.62.72c-.2.22-.26.36-.39.54s-.32.42-.46.64c-.28.41-.53.83-.77 1.25-.07.15-.17.29-.24.43a13.11 13.11 0 0 0-.72 1.7c-.06.17-.1.35-.16.52-.12.43-.23.85-.31 1.27 0 .2-.07.39-.1.59a14.68 14.68 0 0 0-.11 1.32v.46A12 12 0 0 0 220 367c0 .12.09.25.13.38a13.88 13.88 0 0 0 .62 1.44l.18.38a15.87 15.87 0 0 0 1 1.65.16.16 0 0 0 0 .07 19 19 0 0 0 1.42 1.77l.11.11q.71.76 1.53 1.5l.39.33c.5.43 1 .85 1.6 1.26.14.1.27.21.42.31.71.5 1.46 1 2.28 1.46 13.75 7.95 36.1 7.95 49.85 0a30.33 30.33 0 0 0 2.26-1.45c.17-.11.31-.23.47-.34.55-.4 1.06-.8 1.55-1.22l.43-.37a20.1 20.1 0 0 0 1.47-1.44l.16-.16c-14.31 10.13-39.5 7.32-50.97.11z" style="mix-blend-mode:multiply" class="I"/><path d="M333.54,269A111.87,111.87,0,0,1,175.33,110.73l-7.22-7.21C117.8,153.83,113,230.63,163.34,280.94s127,45.48,177.36-4.83Z" class="D"/><path d="M160.42 111.85l7.3 7.3a113.16 113.16 0 0 1 7.61-8.42l-7.22-7.21q-4.05 4.05-7.69 8.33zM333.54 269a111.55 111.55 0 0 1-8.35 7.55l7.25 7.25q4.23-3.63 8.26-7.64z" class="E"/><path d="M132.61 200.81c3.23 26.45 12.75 57.16 38.38 79.68 21.84 19.18 55.24 39.54 106.67 32-39.74 10.06-82.36.39-114.32-31.57-48.82-48.82-45.77-122.55.41-172.85-1.9 2.29-36.97 45.05-31.14 92.74z" class="B"/><path d="M344.69 286.38a6.34 6.34 0 0 0 4.49-10.83L168.66 95.16a6.35 6.35 0 0 0-9 9L340.2 284.53a6.37 6.37 0 0 0 4.49 1.85z" class="D"/><path d="M168.66 95.16l180.52 180.39a6.36 6.36 0 0 1 1.45 6.7 6.19 6.19 0 0 1-6.42-1.53L163.69 100.33a6.34 6.34 0 0 1-1.45-6.7 6.32 6.32 0 0 1 6.42 1.53z" class="B"/><path d="M150.74 189.85a103.7 103.7 0 1 0 44.51-85.16 103.69 103.69 0 0 0-44.51 85.16z" class="C"/><path d="M150.74 189.85a103.7 103.7 0 1 0 44.51-85.16 103.69 103.69 0 0 0-44.51 85.16z" fill="#fff" opacity=".5"/><path d="M275.81 103.08c-4.44-1.69-10.71-2.39-7.62 1.75s5.61 5.42 4.34 8.68-4.75 5.82-4.63 8.54.77 6.09 2.75 6 8.62-3.39 11.14-2.11 11.27 5.25 13.73 2.85 3.7-1.66 7.13-4.05 5-6.75 2.45-7.81-3.38-.09-7.61-2.15-5.09-5.74-9.64-6.68-8.79-3.78-12.04-5.02zM259 97.68c-6.06.67-18.19.48-22.52-2.82-2.14-1.65-4.63-3.77-7.48-5.57a104 104 0 0 0-59.74 41.33 34.28 34.28 0 0 0 1.65 8.48c2 6 5.73 8.15 10.19 11s1.86 5 3.09 8.77 1.58 5.86 3.69 8.47-2.72 4-5 6.71-3.32 4.31-3.62 11.53 4.08 14.94 5 18.16-3.44 4.77-4.68 10.23-6.94 19-5.08 28.62 5.16 9.92 6.83 4.59 2-10.88 6.5-13.56 10.2.77 15.1-5.5 6.08-5.4 10.33-6.49 3.61-3.75 8.85-8 8.22-9.06 4.61-13.12-6.7-5-8.44-11.91a53.57 53.57 0 0 0-10.1-19.74c-4.38-5.28-14.75-5.13-17.89-7.58s-2.67-10.1-1.4-12.62-1.09-4.25-3.9-4.64-3.57-2.58-2.91-6.28 7.7-5.88 12.14-4.48 6 4.32 4.59 10.22a11.66 11.66 0 0 0 4.78 12.72c3.58 2.58 2.75-2.55 1.06-6.5s-.85-6.6 3.77-12 9.66-2.82 15.85-7 5.22.44 8.93 2.58 4-.21 6.86-3.21 6.66 2.09 11.94.82-1.49-9.24.65-13 6-2 6.18-8.77 3.28-5.8 5.72-7.38S265 97 259 97.68zm-11.59 12.07c-2.46 2.39-3.36 1.38-6.77 3.72s-7.45 2.78-9.71 2.18-4.26-5.84-3.5-8.28 4.47-1.77 8.53-.73 8 .68 12.64-.66c3.61-1.07 1.24 1.38-1.22 3.77zM353.34 221l-.08.28a7.31 7.31 0 0 0-5.34 2.26c-4.33 4.49-3.79 2-10.39 3.56s-5.79 5.25-7 9-8.8 5.53-12.26 5.65-8.1 7.94-8.76 12.37-6.17 4.15-10.62 6.66-8.62 8-11.75 10.2a9.81 9.81 0 0 1-10.64.56c-3.28-2-4.21-9.13-4.09-14.94a31.6 31.6 0 0 1 5-16.71c3.29-5.05 2.63-4.53 4.76-13.62s-2.9-14.07-5.88-16.22-9.23-2.42-11.49-5.32-2.53-5.91-1.21-14.76 6-9.08 10.9-12.18 12.85-5.22 19-4.53 9.32 3.66 12 6.71 2.78 7.45 5.08 8.67 4.87.8 7.1 2.23 3.37 3.25 5.87 3.79 2.1-2.75 2.36-4.38-2-2.09-4.83-3.24-3.21-2.21-3.47-4.48-2.52-1.28-3.57-2.59-2.17 2.25-2.82 3.53-.75-1.48-.75-1.48-1.89 1.36-2.06.32 1.79-2.59 2.46-4.72-2.51-2.84-3.74-5.18-3.73-3.61-6.61-3.78-3.1-1-5.12.82-8.16 1.09-9.79.1 1-4.07 3.79-6.61 5.43-.25 8.63-2.65.74-3.91-.83-5.14-1.44-3.14 2-6.44 5.5-1.2 5.76 1.08 2.12 4.09 4.51 5.07 2.48-.92 3.81-4.4 3.67-4.7 7.34-4.76 9.79-.1 12.57-1.17 5.84 1.58 6.91 4.36 4.94 5.21 9 7.71a3.89 3.89 0 0 0 3.52.22 103.21 103.21 0 0 1 .73 64.15zm-36.98 40.11c-2.19-1.34-2.29-.48-4.4.81s-5 2.59-5.37 4.65-1.17 4.51 1 3.74 2.3-2.69 5-2.81 7.04-4.39 3.77-6.39z" class="B"/><path d="M313.66,114.56c-54.22-42.24-82.4-5-60.45,34.32s74.17,70.31,88.63,56S354,146,313.66,114.56Z" fill="#fff" opacity=".1"/><path d="M209,227.62c-32-58.17-.13-133.47,51.46-141.28h0c-2-.12-4-.2-6-.2a103.69,103.69,0,1,0,73.9,176.41C307.41,275.84,241,285.75,209,227.62Z" class="I"/><path d="M416.25 367.11a4.1 4.1 0 0 0 .39-1.11 5.94 5.94 0 0 0-.53-3.68 9.27 9.27 0 0 1-.88-4.41c.07-1.58.26-3 .5-4.68 1-7.09 3-18.78 3.08-21.57.12-4.76.12-7.11-.77-10.85 0 0 3.31-10.8 4.71-17 2.23-9.83 3.73-17.45 2.94-26-.71-7.71.13-11-4.37-16.15l-.84-1.07s-15.62 16.8-16.51 19.71c-.54 9.55-.88 21-1.18 30-.24 7.47.06 8.48.92 17.25l2.31 23.71c.28 2.69.49 5.91-.36 8.52-1.76 5.38-6.69 8.57-10.85 12a3.34 3.34 0 0 0-1.54 2.27 2.25 2.25 0 0 0 1.29 1.92 8.53 8.53 0 0 0 2.82.65 12.74 12.74 0 0 0 3.14.26 16.7 16.7 0 0 0 5.38-1.05c1.46-.7 2.54-2.38 3.69-3.54a19.09 19.09 0 0 1 3.3-3.12c1.04-.64 2.71-.9 3.36-2.06z" class="G"/><path d="M392.93 374.76a3.15 3.15 0 0 0 .34 2c.52.65 2.44 2.37 7.39 2.17 4.76-.2 7.54-2.48 8.52-3.75l2.84-3.56a8.14 8.14 0 0 1 3.26-1.79c.94-.3 1.2-.64 1.11-2-.29-1.25-23.46 6.93-23.46 6.93z" class="D"/><path d="M415.22 358.27a8.17 8.17 0 0 0 0 .85s.08 1.93-1.19 2.37c-1.49.54-1.39-.56-2.52-1.46-2.47-1.95-5.47-1.79-6.19-.13a33.39 33.39 0 0 1-5.52 7.41 26.16 26.16 0 0 1-3.13 2.58c-1.19.85-4.1 2.38-3.81 4.26s2.05 2.91 4.44 3.3a14.15 14.15 0 0 0 9.36-1.85c2.2-1.43 4.11-4.2 4.93-5 1.49-1.47 3.89-1.78 4.65-2.52a6.11 6.11 0 0 0 .53-4.27l-.8-4c-.06-.82-.16-1.47-.75-1.54z" class="B"/><path d="M400.37 369.75a6.5 6.5 0 0 0-3.2-.21 1.68 1.68 0 0 0-.86.34c-1.19.85-3.84 2.34-3.55 4.22s2 3 4.38 3.41c2.2.37 6.06.34 8.78-1.48a7.59 7.59 0 0 0-5.55-6.28z" class="J"/><path d="M460.93 360.17a5.62 5.62 0 0 0-1.63-2.36c-.79-.74-1.67-1.37-2.38-2.18a10.19 10.19 0 0 1-1.36-2.72c-.24-.58-.83-2.53-1.58-5.12-2-6.88-5.19-18.3-6.3-20.87-1.89-4.36-3.74-7.18-6.12-9.15l-.78-18.22c-.32-9.33-1.41-19.39-5.9-25.91-4.4-6.37-8.14-8.43-14.4-11.22l-1.21-.62s-2.1 29.44-.8 28.16c1.66 7.61 3.86 16.54 5.69 24.35 1.65 7.05 2.09 8.35 7 15.79 4 6.07 8.73 13.3 13.09 20.64 1.89 3.19 4 7.47 4.44 11.24a20.64 20.64 0 0 1-3.8 14.38 3 3 0 0 0-.82 1.74c0 .91 1 1.5 1.85 1.8a9.64 9.64 0 0 0 6.57-.18 9.36 9.36 0 0 0 5.84-8.92 11.21 11.21 0 0 1 1.23-6.26c.61-1.07 1.46-2.1 1.52-3.34a3 3 0 0 0-.15-1.03z" class="G"/><path d="M444.09,380.07a3,3,0,0,0,2.33,2.2,11,11,0,0,0,8.71-1.88c3.75-2.69,4.24-4.92,4.41-6.94s-.41-4.91.29-6.43,1.6-2.52,1.85-3.67a6.44,6.44,0,0,0-.29-2.77Z" class="D"/><path d="M456.92 355.63l.48.89a2.84 2.84 0 0 1-.81 3.63c-.58.5-1.84 0-2.91-.12a6.12 6.12 0 0 0-5.24 2.13c.11 3.42.19 5.45-.76 8.21a30.09 30.09 0 0 1-2.3 4.13c-.92 1.18-2.55 3.1-1.7 4.8a3.62 3.62 0 0 0 2.12 1.63 10.49 10.49 0 0 0 8.57-1.42 8.86 8.86 0 0 0 4.32-7.08c.29-2.27-.21-4.68.64-6.35s2-2.25 2.3-4.54a3.48 3.48 0 0 0-1.3-2.8c-1.84-1.74-2.89-3.8-3.41-3.11z" class="B"/><path d="M454.67 374.47a7.49 7.49 0 0 0-8.89-.54h0a4.75 4.75 0 0 0-.58.63c-.92 1.18-2.55 3-1.7 4.69a3.19 3.19 0 0 0 2.18 1.73 10.9 10.9 0 0 0 8.69-1.47 11.11 11.11 0 0 0 2-1.67l.07-.08v-.06a6.25 6.25 0 0 0-1.77-3.23z" class="J"/><path d="M403.74,281.16c-.77,11.64-1.34,26.62-1.34,26.62s2.67,3,10.11,3.53,8.78,0,8.78,0l.86-3.05L423,312s3.24,1.28,10.3,0c7.92-1.44,9-4.45,9-4.45s-.15-11.65-.72-18-4.89-16.83-4.89-16.83Z" class="B"/><path d="M422.15,308.26l-2.55-10.59a16.29,16.29,0,0,1-7.54-1.91s1.6,3.18,6.59,3.82l2.44,8.68.2,3.05Z" class="D"/><path d="M385.25 214.12l5.75 15.65s15.75 7.89 23 10.7c-2.25 1.54-3.81 3.7-5.59 7.95l-1.41 4.25s-14.12-8-22.17-13.73c-3.66-2.62-4.22-5.18-4.84-7.94-.75-3.37-1.12-5.34-2.23-11.55-.27-1.56-.55-3-.82-4.33a63.84 63.84 0 0 0-1.84-6.59 16.07 16.07 0 0 1-.65-6.58 7.6 7.6 0 0 1 5.91-7.48 2.05 2.05 0 0 1 2.49.68 2.91 2.91 0 0 1 .16 1.58c-.17 2.25-.55 4.55 0 6.74a1 1 0 0 0 .42.72c.48.25 1.19-1.49 1.53-1.85a2 2 0 0 1 2.7-.48c.35.27-.4 1.07-.84 2.79-.55 2.2-.2 4-1.36 6.16a4.24 4.24 0 0 0-.21 3.31z" class="G"/><path d="M413.46,239.76l-12-4.86s-2.13,0-4.64,4.27a11,11,0,0,0-1.11,8.42l10.45,6Z" class="B"/><path d="M434.53 242c3.15.56 4.64 3.05 5.33 6.17.34 1.56.15 3.41-.3 6.69L437 272.55l3.74 11.16c-5.07 5.51-26.36 10-37.43 1.86 0 0 .92-27.94 1.75-33.51 1.12-7.55 3.92-11.44 7.32-12.21a15.41 15.41 0 0 1 2.91-.08l12.34.68z" class="C"/><path d="M441.26 287.46l1.88-16.57-8.83-12.23c-5.23-8.39 1.14-16.42 1.14-16.42 6.41 1.11 6.2 5 17.29 23.21 2.34 3.84 2 4 .77 9.26-.76 3.37-1.37 5.27-3.16 11.33l-1.2 4.23a64.21 64.21 0 0 0-1.29 6.72 16.23 16.23 0 0 1-2.36 6.18 9.13 9.13 0 0 1-3.34 3.42 9.26 9.26 0 0 1-5.29.64 2.06 2.06 0 0 1-1.87-1.73 2.82 2.82 0 0 1 .56-1.49c1.15-1.93 2.52-3.82 3-6a1 1 0 0 0-.06-.83c-.31-.43-1.73.81-2.19 1a2 2 0 0 1-2.64-.77c-.18-.4.85-.78 2-2.13 1.48-1.72 2-3.48 4-4.89a4.31 4.31 0 0 0 1.59-2.93z" class="G"/><path d="M434.53 242c2.36.32 3.73.6 5.47 2.23a20.66 20.66 0 0 1 4 5.45l4.48 7.93s-1 5.36-9.57 7.79c0 0-6-7.83-6.63-9.11s-3.66-9.57 2.25-14.29z" class="B"/><g class="D"><path d="M428.27,236.61c2.76-4.18,6.93-4.33,10.58-10.85,3.93-7-1.27-14.6-3.07-15.89,0,0-.14-3.74-5.31-6.82-6.46-3.86-19.68-3-25.42,6.21Z"/><path d="M435.36 209.54c3.45-3.46 8-4 12-.82 4.74 3.76 4.06 14.66 10.58 16.5 2.62.74 1.49 3.47-2 4.3-4.67 1.09-9.19-1.17-11.67-6.8s-2.84-12-7.35-11.23c-3.06.51-1.56-1.95-1.56-1.95z"/></g><path d="M429.85 224.54c.6.44.73.64 1.26-.35 1.15-2.14 4.1-2.44 5.07-.38 1.28 2.73-.45 5.29-2.88 6.27-3.25 1.31-4.13-.67-4.13-.67l-1.54 12.37a11.1 11.1 0 0 1-9 5.48c-6.18.2-5.39-4.73-3.13-7l.15-3.66a15 15 0 0 1-4.46-.9c-1.89-.73-3.25-2.05-4.22-5.13-1.31-4.14-1.09-8.51 1-16.52 2.43-9.28 14.06-8.37 19.63-4s2.25 14.49 2.25 14.49z" class="G"/><path d="M431.18,219l.79-8.52-12.07-8.08a15.35,15.35,0,0,0-17.17,13.29l-.25,2,7.45.95a7,7,0,0,0,7.64-5.13l-.49,6a5.57,5.57,0,0,0,6.14-4.34l.2-1a6.6,6.6,0,0,0,5.2,6.75l-.24,3.19a2.67,2.67,0,0,0,2.39,2.86l.34-2.78,1.46-4.84Z" class="D"/><path d="M419 222.58a1.28 1.28 0 1 0 1.41-1.19 1.3 1.3 0 0 0-1.41 1.19zm2-3.67l2.55 1.77a1.63 1.63 0 0 0-.41-2.22 1.51 1.51 0 0 0-2.14.45z" class="E"/><path d="M419.59 229.12l-5 1.31a2.53 2.53 0 0 0 3.1 1.92 2.7 2.7 0 0 0 1.9-3.23z" class="H"/><path d="M419.5 230.67a2.11 2.11 0 0 0-3.24 1.63 2.51 2.51 0 0 0 1.44 0 2.62 2.62 0 0 0 1.8-1.63z" class="K"/><path d="M408 217.42l3-.76a1.49 1.49 0 0 0-1.85-1.16 1.62 1.62 0 0 0-1.15 1.92zm.35 3.96a1.28 1.28 0 1 0 1.41-1.19 1.31 1.31 0 0 0-1.41 1.19z" class="E"/><path d="M415.29 220.8l-1.07 6.76-3.43-1.57 4.5-5.19zm.37 15.82s6.13 0 9.06-1.49a7.75 7.75 0 0 0 3-2.41 7.71 7.71 0 0 1-1.87 3c-3.05 2.93-10.25 2.33-10.25 2.33z" class="K"/><path d="M394.19 187.71a9.55 9.55 0 0 0-12.74-4.49c-8.18 3.91-11.78 16.22-11.78 16.22s11.85 4.92 20 1a9.55 9.55 0 0 0 4.52-12.73zm-12.26 5.87a4.63 4.63 0 1 1 6.17 2.17 4.62 4.62 0 0 1-6.17-2.17z" class="C"/><path d="M55.1 361.2c.89-2.94 7.34-23.09 9.8-29.92 2.78-7.71 3.16-10.43 4.88-17.46l2.58-10.43c1.18 5.48 2.94 15.18 3.32 17.32 0 .33-.06.73-.1 1.19-.74 3.31-.76 5.66-.69 10.08 0 2.8 1.85 14.52 2.86 21.61.23 1.57.47 3.14.63 4.72a8.71 8.71 0 0 1-1.09 4.36 5.86 5.86 0 0 0-.57 3.67 3.76 3.76 0 0 0 .38 1.12c.64 1.16 1.93 1.53 3 2.19a24 24 0 0 1 3.54 3.58 14.12 14.12 0 0 0 3.75 3.06 16.38 16.38 0 0 0 5.37 1.1 12.25 12.25 0 0 0 3.14-.23 8.34 8.34 0 0 0 2.83-.61 2.27 2.27 0 0 0 1.31-1.91 3.41 3.41 0 0 0-1.52-2.29c-4.13-3.47-10.15-7.81-11.24-13.37 0 0 .61-4.49.84-7.19l1.93-23.75c1-8.76 1.27-9.77 1.1-17.24-.06-2.53-.18-5.23-.34-8l-.68-23.75s-12.1.23-21.69.84c-10.34 1.26-13.87 3.6-13.56 4.92a91.09 91.09 0 0 0-1.55 14.08L52 321.63a33.92 33.92 0 0 0-4.46 13.75c-.29 2.78-1.41 21.53-1.65 22.89a13.77 13.77 0 0 1-1.71 3.54 5.62 5.62 0 0 0-1 2.69 3 3 0 0 0 .13 1c.37 1.19 1.45 2 2.31 2.86a11.1 11.1 0 0 1 2.74 5.76 9.36 9.36 0 0 0 7.89 7.18 9.64 9.64 0 0 0 6.4-1.46c.76-.5 1.53-1.31 1.34-2.21a2.81 2.81 0 0 0-1.22-1.47 20.67 20.67 0 0 1-7.66-12.76 5.43 5.43 0 0 1 0-2.23" class="H"/><path d="M76.82,367.85s-.33,0-.29.82a1.93,1.93,0,0,0,1,1.79c.69.5,3.15,1.5,4.69,3.53,1.08,1.43,1.55,3,5.16,4.89s8.8,1.14,10.6.23,2.19-1.28,2.29-2.89Z" class="E"/><path d="M87.25 359c-.45.69-2.89 1-4 1.44s-.92 2.84-.92 2.84c-1 0-1-.73-1.38-2-.55-2.09-2.1-2.08-2.6-2.35v-.64s-.53-.15-.65.85a22 22 0 0 1-.9 3.95c-.3.89-.79 4.15-.1 5.14a15 15 0 0 0 2.16 1.6 14.84 14.84 0 0 1 4.33 3.78c.88 1.33 3.59 4.41 9.54 4.47s7.6-2.08 7.6-2.08a3.25 3.25 0 0 0-1-4.28c-2.46-1.81-3.5-2.6-6.53-5-4.97-3.96-3.67-8.18-5.55-7.72z" class="B"/><path d="M86.59 376.63c1.18-2.92 2.75-5 5.9-6.15s4.59-.78 5.89 0 3.57 2.73 2 5.54c0 0-.89 2.29-6.61 2.41s-7.18-1.8-7.18-1.8z" class="F"/><path d="M42.3,366.26c-.26,1-.55,1.8.38,2.91s2.11,1.77,2.92,2.64,1.13,2.79,1.63,4.42A10.4,10.4,0,0,0,51.67,382c2.48,1.37,4.47,2,7.34,1.48s4.42-1.41,5.13-3.87Z" class="E"/><path d="M55.65 360.83c.44-1.19-2.52.61-5.82-.19-.59-.14-.87.12-1 .73s-.28 1.26-1 1a1.12 1.12 0 0 1-.61-.67 4.85 4.85 0 0 1-.19-.92c-.13-.85-.34-2.1-1.15-2.52l.15-1s-.77-.71-1.26 1.7-3 4-2.43 7.29a10.36 10.36 0 0 0 2.32 2.84 8.5 8.5 0 0 1 3.18 5.07c.53 2.45 2.81 6.17 6.14 7.14a11.25 11.25 0 0 0 10.41-1.91 3.14 3.14 0 0 0-.93-4.44 25.93 25.93 0 0 1-5.19-5.22c-1.54-1.83-3.07-6.18-2.62-8.9z" class="B"/><path d="M50.5 379.09c1.52-2.33 3.42-5 7-5.76s5.11.81 6.32 1.84a2.87 2.87 0 0 1 .48 4.23 9.22 9.22 0 0 1-7.54 2.71 9 9 0 0 1-6.26-3.02z" class="F"/><path d="M54.4,278.7s-.8,9.39-1.09,14.9-2,27.66-2,27.66a32.45,32.45,0,0,0-4.16,13.19c-.71,7.25-.95,14.78-1.12,17.07,0,0,5.65,3.72,11.62,2.4.44-1.67,8.34-24,10.1-29.74,1.7-5.55,4.54-18.73,4.54-18.73s2.53,12.41,2.14,14.75c-1.56,9.42,2,25.28,2.69,31.8,0,0,.71,1.86,5.39,1.92,4.84.06,5.75-1.59,5.75-1.59s3-31.33,3.33-37.24-.8-28.33-1.53-36Z" class="B"/><path d="M72.33 305.45l1-5.88s7.86-.57 11.34-4.46c0 0-1.2 5.14-9.43 5.87l-1.1 5.68.28 11.46c-.56-4.28-1.33-8.02-2.09-12.67z" class="D"/><path d="M105.52 209.89l-5 15.9S85.1 234.36 78 237.48c2.31 1.44 4 3.52 5.92 7.69l1.56 4.19s13.76-8.6 21.55-14.69c3.55-2.77 4-5.36 4.48-8.14.61-3.4.89-5.38 1.73-11.64l.62-4.35a65.87 65.87 0 0 1 1.56-6.67 16.14 16.14 0 0 0 .36-6.6 7.62 7.62 0 0 0-6.23-7.22 2.05 2.05 0 0 0-2.45.79 2.85 2.85 0 0 0-.1 1.59c.27 2.24.75 4.52.31 6.73a1 1 0 0 1-.39.73c-.47.27-1.26-1.44-1.61-1.78a2 2 0 0 0-2.72-.36c-.34.29.45 1.05 1 2.76.64 2.17.37 4 1.63 6.09a4.23 4.23 0 0 1 .3 3.29z" class="H"/><path d="M77.58,237.15l12.63-5.79s2.14-.06,4.83,4.07a11,11,0,0,1,1.48,8.36l-9.58,7.33Z" class="B"/><path d="M55.66 239.05c-3.82.78-5 2.61-5.42 6a25.26 25.26 0 0 0 .87 9.29l2.21 13.82-.09 17.84c8.2 4.63 26.74 6.39 38-1.66l-2.22-34.38c-1.36-9.78-5.37-13.26-10.07-12.94l-13.59.98a62.49 62.49 0 0 0-9.69 1.05z" class="C"/><path d="M87.49 274.11l-16.81-8.71s-3.42-6.26-7.31-14.28c-6.65-10.12-10.08-10.71-10.08-10.71-7.67 4.27-4.62 10.79 5.71 30.59 2 3.86 4.67 4.82 10.08 6.76 3.44 1.24 5.26 1.92 11.9 4 1.59.5 3.61 1.07 5 1.49 2.31.73 3.87 1.45 6.27 2.14a25.46 25.46 0 0 0 6.87 1.41 9.64 9.64 0 0 0 5-1 9.73 9.73 0 0 0 3.58-4.37 2.17 2.17 0 0 0-.45-2.7 3 3 0 0 0-1.65-.34c-2.39-.07-4.85.08-7.1-.73a1.09 1.09 0 0 1-.72-.52c-.2-.53 1.71-1.1 2.12-1.41a2.15 2.15 0 0 0 .81-2.8c-.25-.4-1.17.31-3 .58-2.39.34-4.23-.23-6.64.76a4.51 4.51 0 0 1-3.58-.16z" class="H"/><path d="M54.11 239.47c-6.68 2.22-6.31 7.4-5.85 9.89a23.68 23.68 0 0 0 2.12 6.08c2.45 5.6 7.12 14.44 7.12 14.44S63 269.29 70 263l-9-17.69c-.71-1.31-3.38-5.64-6.89-5.84z" class="B"/><g class="E"><path d="M87.48 211.8a10 10 0 1 1-10.31-10.09 10.2 10.2 0 0 1 10.31 10.09zm-30.36 8.58l2.7 9.4a3.67 3.67 0 0 0 2.18 1.66l-.28-5.72z"/><path d="M59,208.67a4,4,0,0,0-3.28,1.26c-1.39,1.5-.46,6,1.44,10.45l3.27.28Z"/></g><path d="M61.37 220.64c-.64.41-1.61-.82-2.44-1.64s-3.5-1.9-4.73.9 1.34 6.51 3.43 7.11c3.61 1 4.08-1.29 4.08-1.29l.64 12.87a11.48 11.48 0 0 0 8.85 6.33c6.36.68 6.15-4.62 4-7.12l-.11-3.62a15.32 15.32 0 0 0 4.67-.6c2-.6 3.5-1.86 4.74-5 1.66-4.18 1.77-8.69.22-17.11-1.8-9.76-13.87-9.7-19.94-5.63s-3.41 14.8-3.41 14.8z" class="H"/><g class="E"><path d="M63.34 214.06c-.49 2.83-.83 7.62-1.94 7.68-.33 0-1.64-2-2.47-2.74-.37-.32-.4-1-.44-1.49a34.75 34.75 0 0 1-.11-5.1c.09-1.82-.26-3.84.27-5.6a6 6 0 0 1 2.56-3.23c2.67-1.7 6.25-1.63 9.26-2.32a30.37 30.37 0 0 0 10-4l.93-.59a1.42 1.42 0 0 1 .91-.3.91.91 0 0 1 .66.47 2.21 2.21 0 0 1 .26.8 8.72 8.72 0 0 1 .07 2.55 4.34 4.34 0 0 1-.52 2.18l2.22-1.43a.74.74 0 0 1 .5-.18c.3 0 .42.41.46.71a7.64 7.64 0 0 1-3.11 6.65 13.82 13.82 0 0 1-7.13 2.54c-2.55.26-5.11.11-7.67.13a6.63 6.63 0 0 0-3.23.49 4 4 0 0 0-1.48 2.78z"/><path d="M59 209.39l-4-2a2.16 2.16 0 0 1 3-1.07 2.35 2.35 0 0 1 1 3.07z"/></g><path d="M75.09,234.18s-6.32-.47-9.23-2.22A8,8,0,0,1,63,229.23a7.82,7.82,0,0,0,1.7,3.26c2.92,3.26,10.5,3.69,10.5,3.69Z" class="L"/><path d="M72.43 218.88a1.33 1.33 0 1 1-1.37-1.34 1.35 1.35 0 0 1 1.37 1.34zm-1.84-3.95l-2.77 1.64a1.69 1.69 0 0 1 .59-2.26 1.58 1.58 0 0 1 2.18.62z" class="E"/><path d="M71.88,226l5.26,1.81a2.73,2.73,0,0,1-3.49,1.82A2.91,2.91,0,0,1,71.88,226Z" class="L"/><path d="M73.19 227.54A2.14 2.14 0 0 0 72 228a2.82 2.82 0 0 0 1.7 1.66 2.62 2.62 0 0 0 1.79 0 2.19 2.19 0 0 0-2.3-2.12z" opacity=".6" class="K"/><path d="M83.65 215.29l-2.65-1.9a1.55 1.55 0 0 1 2.22-.4 1.68 1.68 0 0 1 .43 2.3zm-.6 2.71a1.32 1.32 0 1 1-1.36-1.34 1.35 1.35 0 0 1 1.36 1.34z" class="E"/><path d="M76.01 217.31l.59 7.05 3.65-1.36-4.24-5.69z" class="L"/><path d="M108.5 179a9.551 9.551 0 1 0-8.37 17.17c8.14 4 20-.86 20-.86S116.64 183 108.5 179zm-.56 10.35a4.63 4.63 0 1 1-2.13-6.18 4.63 4.63 0 0 1 2.13 6.16zM223.92 57.07a9.56 9.56 0 0 0-7.63 11.15c1.67 8.91 12.63 15.57 12.63 15.57s7.82-10.18 6.15-19.08a9.56 9.56 0 0 0-11.15-7.64zm2.5 13.36a4.63 4.63 0 1 1 3.7-5.4 4.63 4.63 0 0 1-3.7 5.4z" class="C"/><path d="M336.59 81.19a9.55 9.55 0 0 0-13.29 2.4c-5.17 7.44-2.21 19.93-2.21 19.93s12.74-1.59 17.9-9a9.54 9.54 0 0 0-2.4-13.33zm-7.75 11.16a4.63 4.63 0 1 1 6.44-1.16 4.62 4.62 0 0 1-6.44 1.16z" class="B"/><defs ><path id="B" d="M457.32 356.93l-3-3.71a66 66 0 0 1-2.93-27.09c1.93-16.66 9.6-22.67 15-20.84 4 1.36 5.2 5.93-1.26 15.48-3.83 5.63-8.87 21.54-7.81 36.16z"/><path id="C" d="M44.35 360.86l2.33-4.15a66 66 0 0 0-1.68-27.2c-4.7-16.1-13.27-20.74-18.26-18-3.7 2-4.13 6.72 3.84 15 4.72 4.93 12.36 19.77 13.77 34.35z"/><path id="D" d="M287.37 370.76a14.26 14.26 0 0 0 .95-1.57l.22-.43a11.86 11.86 0 0 0 .58-1.38l.16-.43a13.58 13.58 0 0 0 .44-1.75h0a11.9 11.9 0 0 0 .15-1.79v-.53a10.36 10.36 0 0 0-.1-1.24c0-.22-.06-.43-.1-.65l-.3-1.19-.18-.59a12.48 12.48 0 0 0-.7-1.66c-.09-.18-.2-.34-.3-.52a12.76 12.76 0 0 0-.7-1.16l-.5-.69-.37-.51-.62-.67-.33-.37a41.2 41.2 0 0 0-62.16 0l-.27.3-.62.72c-.2.22-.26.36-.39.54l-.46.64-.77 1.25c-.07.15-.17.29-.24.43a13.11 13.11 0 0 0-.72 1.7c-.06.17-.1.35-.15.52a12.43 12.43 0 0 0-.32 1.27c0 .2-.07.39-.1.59a14.68 14.68 0 0 0-.11 1.32v.46A12 12 0 0 0 220 367c0 .12.09.25.13.38a13.88 13.88 0 0 0 .62 1.44l.18.38a15.87 15.87 0 0 0 1 1.65.16.16 0 0 0 0 .07 19 19 0 0 0 1.42 1.77l.11.11q.71.76 1.53 1.5l.39.33 1.6 1.26.42.31 2.28 1.46c13.75 7.95 36.1 7.95 49.85 0a30.33 30.33 0 0 0 2.26-1.45c.17-.11.31-.23.47-.34.55-.4 1.06-.8 1.55-1.22l.43-.37a20.1 20.1 0 0 0 1.47-1.44l.16-.16a18.39 18.39 0 0 0 1.4-1.74z"/><path id="E" d="M254.61 309.55a5.56 5.56 0 0 0-2.7.65 2 2 0 0 0-1.09 1.38h0c-.68 16.15-1.94 24-7.1 32.55 0 1.61 1.06 3.22 3.2 4.45a15.65 15.65 0 0 0 7.71 1.85h0a15.66 15.66 0 0 0 7.72-1.85c2.14-1.23 3.2-2.84 3.2-4.45-5.16-8.58-6.42-16.4-7.1-32.55h0a2 2 0 0 0-1.09-1.38 5.57 5.57 0 0 0-2.75-.65z"/></defs></svg>