<svg xmlns="http://www.w3.org/2000/svg" xmlns:xlink="http://www.w3.org/1999/xlink" viewBox="0 0 500 500" xmlns:v="https://vecta.io/nano"><style><![CDATA[.B{fill:#1e6167}.C{fill:#e0e0e0}.D{fill:#fff}.E{fill:#263238}.F{fill:#f5f5f5}.G{fill:#37474f}.H{fill:#455a64}.I{fill:#ebebeb}.J{fill:#ffa8a7}.K{opacity:.1}.L{opacity:.6}.M{fill:#b16668}.N{fill:#fafafa}.O{fill:#f28f8f}.P{fill:#ffbda7}.Q{fill:#f0997a}]]></style><ellipse cx="250" cy="354.36" rx="234.67" ry="135.49" class="F"/><g class="C"><ellipse cx="109.03" cy="397.43" rx="61.76" ry="35.05"/><ellipse cx="395.96" cy="397.22" rx="57.92" ry="32.88"/><ellipse cx="259.33" cy="376.32" rx="61.76" ry="35.05"/></g><use xlink:href="#B" class="B"/><use xlink:href="#B" opacity=".3"/><path d="M432.6 347.11h0a.53.53 0 0 0 .51-.55c-1.52-44.82 20.79-67.37 21-67.6a.52.52 0 0 0-.74-.74c-.23.22-22.87 23.1-21.33 68.38a.53.53 0 0 0 .56.51z" class="D"/><use xlink:href="#C" class="B"/><use xlink:href="#C" class="K"/><path d="M441.23 351.44h0a.52.52 0 0 0 .52-.53c-.12-28.35 26.5-47.5 26.76-47.69a.52.52 0 1 0-.6-.86c-.27.2-27.33 19.67-27.2 48.55a.52.52 0 0 0 .52.53z" class="D"/><use xlink:href="#D" class="B"/><use xlink:href="#D" opacity=".15"/><path d="M68,331h-.08a.55.55,0,0,1-.47-.62c3.19-23-6.08-48.27-16.49-58.45a.55.55,0,1,1,.77-.78c10.6,10.36,20,36,16.81,59.38A.55.55,0,0,1,68,331Z" class="D"/><path d="M43.8 353.16c-1.21.7-3.72-.83-4.68-1.47a11.68 11.68 0 0 1-3.87-4.44 10.87 10.87 0 0 1-1-6.53 26.23 26.23 0 0 1 .82-3.48l1-3.37a8.5 8.5 0 0 0 .5-3.41c-.3-2.3-2.34-3.92-4.21-5.32-2.06-1.54-4.2-3.57-4.19-6.35a9.79 9.79 0 0 1 2.46-5.79l4.1-4.94a6.8 6.8 0 0 0 1.4-4.32 7 7 0 0 0-.94-2.7 37.82 37.82 0 0 1-2.95-5.41c-.68-1.94-.58-4.36.94-5.75 1.24-1.14 3.09-1.3 4.78-1.19a11 11 0 0 1 4.44 1.57c4.41 2.45 6.93 7.68 11.61 9.56a46.9 46.9 0 0 0 5.67 1.39 7 7 0 0 1 4.67 3.2c1.72 3.43-1.47 7.66-.26 11.3 1.06 3.22 4.2 4.46 6 7.36a7 7 0 0 1 .82 4.22 20.23 20.23 0 0 1-1.78 7.13 50.84 50.84 0 0 1-3.91 6.43c-.12.04-21.22 12.2-21.42 12.31z" class="B"/><g class="D"><path d="M56.31 346.5h0a.55.55 0 0 1-.53-.57c.91-21.81-9.37-45.88-16.84-52.87a.55.55 0 0 1 0-.78.54.54 0 0 1 .77 0c7.62 7.13 18.11 31.6 17.19 53.71a.56.56 0 0 1-.59.51z"/><path d="M53 320.74h-.16a73.26 73.26 0 0 0-15.82-2.55.56.56 0 0 1-.53-.58.52.52 0 0 1 .57-.52 74.58 74.58 0 0 1 16.1 2.6.55.55 0 0 1 .37.68.55.55 0 0 1-.53.37z"/></g><path d="M362.4 56.61l-1.87 3.09-1.64 2.35 2.26 7 .87 1.85c.71 1.42 4.35 4.37 5.26 5.62l-.35 2.09 4.68 4.55 1.84-4.38c1.08.67.62 2.61 1.65 2.88l4 4.87 4.37-.51-1.64-6.43a6.68 6.68 0 0 0 2.05-2l4.46 3.65 1.49-5.27-4.16-4.71a21.7 21.7 0 0 0-.27-4.28l3.78-1.17L387 58.8l-4.24-.24a29.72 29.72 0 0 0-2.43-4l.89-5.3-4.68-4.55-1.84 4.38a11.8 11.8 0 0 0-3.17-1.41L369 41.31l-4.37.51 1.64 6.44a6.57 6.57 0 0 0-2.05 2l-4.46-3.66-1.49 5.27zm5.14 1c1.15-4 2.63-3.65 6.22-.16s5.23 10 4.09 14-2.27 3.25-5.86-.24-5.59-9.6-4.45-13.64z" class="C"/><path d="M368.96 41.31l-5.91 2.64 2.52 6.33 5.92-2.63-2.53-6.34zm-15.15 7.95l4.46 3.65 5.92-2.63-4.46-3.66-5.92 2.64z" class="F"/><path d="M352.97 64.68l3.78-1.16 5.92-2.63-3.78 1.16-5.92 2.63zm30.54 21.29l-5.92 2.64-1.64-6.44 5.92-2.63 1.64 6.43zm-17.82-.23l5.92-2.63 1.84-4.38-5.92 2.63-1.84 4.38z" class="C"/><path d="M356.48 59.24a21.7 21.7 0 0 0 .27 4.28L353 64.68l2.26 6.95 4.24.23a29.72 29.72 0 0 0 2.43 4l-.89 5.3 4.69 4.55 1.83-4.38a11.54 11.54 0 0 0 3.17 1.42l2.53 6.33 4.36-.5-1.62-6.41a6.57 6.57 0 0 0 2.05-2l4.46 3.65 1.49-5.29-4.16-4.71a21.7 21.7 0 0 0-.27-4.28l3.78-1.16-2.35-6.95-4.24-.23a29.12 29.12 0 0 0-2.43-4l.89-5.3-4.68-4.56-1.84 4.39a11.54 11.54 0 0 0-3.17-1.42L363.05 44l-4.37.5 1.64 6.44a6.57 6.57 0 0 0-2.05 2l-4.46-3.65-1.49 5.26zm5.15 1c1.14-4 5-4.48 8.57-1s5.59 9.6 4.45 13.64-5 4.49-8.58 1-5.59-9.63-4.44-13.68z" class="I"/><path d="M370.58 47.31l5.92-2.63 4.68 4.55-5.92 2.64-4.68-4.56z" class="F"/><path d="M381.18 49.23l-.89 5.3-5.92 2.64.89-5.3 5.92-2.64z" class="C"/><path d="M376.8 61.2l5.92-2.64 4.24.24-5.92 2.63-4.24-.23z" class="F"/><path d="M386.96 58.8l2.26 6.94-5.92 2.64-2.26-6.95 5.92-2.63z" class="C"/><path d="M379.79 73.82l5.92-2.63 4.16 4.71-5.92 2.63-4.16-4.71z" class="F"/><path d="M382.46 83.8l5.92-2.63 1.49-5.27-5.92 2.63-1.49 5.27z" class="C"/><path d="M363.05 43.95l5.91-2.64-4.36.51-5.92 2.63 4.37-.5z" class="F"/><path d="M319.14 79.9a17.86 17.86 0 0 0 0 6.68l-3.27 2.27 4 9 3.71-.88a12.84 12.84 0 0 0 5.12 4.46l-.12 7.79 6.48 4.71 1.42-6.85a11.36 11.36 0 0 0 4.08.84l4.19 8 5.17-2.31-3.14-8.47a11.3 11.3 0 0 0 2.1-3.59l6 3.52.84-8-5.87-5.13a33.83 33.83 0 0 0-1.06-5.94l4.36-3-4-8.95-5.15 1.2a34.64 34.64 0 0 0-3.67-4.79l.12-7.79L334 58l-1.42 6.85a11.36 11.36 0 0 0-4.08-.84l-4.19-8-5.17 2.31 3.15 8.47a11.14 11.14 0 0 0-2.11 3.59l-6-3.52-.84 8zm6.38-.52c.64-6.11 4.08-8 9.05-4.38s8.56 11.55 7.92 17.66-4.16 7.93-9.13 4.32-8.48-11.49-7.84-17.6z" class="C"/><path d="M318.4 58.58l5.88-2.62 4.19 8.01-5.88 2.61-4.19-8zm-10.17 10.84l5.88-2.61 6.04 3.52-5.89 2.61-6.03-3.52z" class="F"/><path d="M329.19 116.49l5.88-2.61 1.42-6.85-5.88 2.62-1.42 6.84zm20.74-2.91l-5.88 2.61-3.15-8.47 5.89-2.62 3.14 8.48z" class="C"/><path d="M313.26,82.51a33.94,33.94,0,0,0,1.11,5.93l-4.36,3,4,9,5.16-1.22a34.05,34.05,0,0,0,3.67,4.79l-.12,7.8,6.48,4.7,1.42-6.84a11.36,11.36,0,0,0,4.08.84l4.19,8,5.17-2.3-3.15-8.47a11.14,11.14,0,0,0,2.11-3.59l6,3.52.84-8L344,94.56a33.94,33.94,0,0,0-1.11-5.93l4.35-3-4-9-5.16,1.22a34.05,34.05,0,0,0-3.67-4.79l.12-7.8-6.48-4.7-1.42,6.84a11.36,11.36,0,0,0-4.08-.84l-4.19-8-5.17,2.3,3.14,8.47a11.51,11.51,0,0,0-2.11,3.59l-6-3.52-.84,8Zm6.38-.51c.64-6.11,5.19-8.14,10.16-4.53s8.48,11.49,7.84,17.6-5.19,8.14-10.16,4.53S319,88.11,319.64,82Z" class="I"/><path d="M344 75.25l-5.88 2.61 5.15-1.21 5.89-2.62-5.16 1.22zm-.716 1.414l5.885-2.616 3.985 8.964-5.885 2.616z" class="F"/><path d="M353.15 82.99l-5.89 2.62-4.35 3.02 5.88-2.61 4.36-3.03z" class="C"/><path d="M349.9 91.94l-5.88 2.62 5.87 5.13 5.88-2.62-5.87-5.13z" class="F"/><path d="M355.77 97.07l-5.88 2.62-.84 7.96 5.88-2.62.84-7.96z" class="C"/><path d="M328.09 60.58l5.88-2.62 6.48 4.71-5.88 2.61-6.48-4.7z" class="F"/><path d="M263 75.47a2.95 2.95 0 1 1-2.93-3 2.94 2.94 0 0 1 2.93 3z" class="G"/><path d="M256.53 75.62c-1.94-1.14-1.93-3 0-4.08a7.81 7.81 0 0 1 7.06 0c1.95 1.13 1.93 3 0 4.07a7.8 7.8 0 0 1-7.06.01z" class="H"/><path d="M256.43 74.56c-2-1.18-2-3.06 0-4.21a8 8 0 0 1 7.28.05c2 1.17 2 3 0 4.2a8 8 0 0 1-7.28-.04z" class="G"/><path d="M256.33 73.46c-2.07-1.21-2.06-3.15 0-4.33a8.28 8.28 0 0 1 7.51 0c2.06 1.21 2.05 3.15 0 4.33a8.26 8.26 0 0 1-7.51 0z" class="H"/><path d="M256.22 72.33c-2.13-1.25-2.12-3.25 0-4.47a8.55 8.55 0 0 1 7.74 0c2.13 1.25 2.12 3.25 0 4.47a8.53 8.53 0 0 1-7.74 0z" class="G"/><path d="M256.15 71.14c-2.18-1.27-2.16-3.31 0-4.55a8.73 8.73 0 0 1 7.9 0c2.17 1.27 2.16 3.31 0 4.56a8.71 8.71 0 0 1-7.9-.01z" class="H"/><use xlink:href="#E" class="B"/><use xlink:href="#E" class="D L"/><path d="M257.53 69.72c-1.42-.83-1.41-2.16 0-3a5.7 5.7 0 0 1 5.15 0c1.42.83 1.41 2.16 0 3a5.65 5.65 0 0 1-5.15 0z" class="B"/><path d="M262 67.92a.48.48 0 0 1-.47-.47 34.32 34.32 0 0 1 1-8 17.83 17.83 0 0 1 .71-2.23 6.46 6.46 0 0 1-1.21-.6 8.09 8.09 0 0 1-1.84-1.62 8.37 8.37 0 0 1-1.87 1.56 6.38 6.38 0 0 1-1.22.58 18.76 18.76 0 0 1 .68 2.24 34 34 0 0 1 .94 8 .48.48 0 0 1-.49.46.47.47 0 0 1-.46-.49 34 34 0 0 0-.91-7.77 15.23 15.23 0 0 0-.7-2.23 3 3 0 0 1-2.65-.79 1.53 1.53 0 0 1-.19-2 1.25 1.25 0 0 1 1.3-.53c.75.15 1.47.92 2.09 2.19a5.54 5.54 0 0 0 1.11-.53 7.46 7.46 0 0 0 1.79-1.51 3.51 3.51 0 0 1-.68-2.68 1.34 1.34 0 0 1 2.56 0 3.54 3.54 0 0 1-.71 2.67 7 7 0 0 0 1.77 1.54 5.3 5.3 0 0 0 1.1.54c.63-1.26 1.37-2 2.12-2.17a1.28 1.28 0 0 1 1.29.55 1.54 1.54 0 0 1-.21 2 3 3 0 0 1-2.66.76 16.05 16.05 0 0 0-.73 2.22 33.83 33.83 0 0 0-1 7.76.48.48 0 0 1-.47.49zM254.36 55c-.08 0-.17 0-.28.18-.23.31 0 .66.13.75a1.87 1.87 0 0 0 1.52.52c-.5-.93-1-1.38-1.3-1.44zm10.27 1.5a1.91 1.91 0 0 0 1.52-.49c.09-.1.37-.44.14-.76s-.24-.19-.34-.17c-.32.09-.81.53-1.32 1.45zm-4.42-4.94a.33.33 0 0 0-.37.25 2.29 2.29 0 0 0 .36 1.56 2.27 2.27 0 0 0 .37-1.55c-.04-.13-.12-.23-.36-.23z" class="D"/><g class="C"><path d="M260.41 31.52a.93.93 0 0 1-.24 0 .92.92 0 0 1-.92-.92v-4.74a.92.92 0 0 1 1.83 0v4.78a.92.92 0 0 1-.67.88zm-10.19 2.73a.92.92 0 0 1-1-.42l-2.39-4.14a.92.92 0 0 1 1.59-.92l2.39 4.14a.92.92 0 0 1-.33 1.25 1 1 0 0 1-.26.09zm-7.46 7.47a.91.91 0 0 1-.7-.09l-4.14-2.39a.92.92 0 0 1-.34-1.25.93.93 0 0 1 1.26-.34L243 40a.92.92 0 0 1 .34 1.25.9.9 0 0 1-.58.47zM240 51.92a.93.93 0 0 1-.24 0H235a.92.92 0 1 1 0-1.83h4.78a.92.92 0 0 1 .92.91.93.93 0 0 1-.7.92zm42.22 12.56a.92.92 0 0 1-.7-.09L277.38 62a.92.92 0 0 1-.33-1.25.9.9 0 0 1 1.25-.33l4.14 2.38a.93.93 0 0 1 .34 1.26.94.94 0 0 1-.56.42zm-43.85 0a.91.91 0 0 0 .7-.09l4.14-2.39a.914.914 0 1 0-.92-1.58l-4.14 2.38a.94.94 0 0 0-.33 1.26.92.92 0 0 0 .55.42zm47.22-12.58a1 1 0 0 1-.24 0h-4.78a.92.92 0 1 1 0-1.83h4.78a.91.91 0 0 1 .91.91.92.92 0 0 1-.67.92zm-7.51-10.19a.92.92 0 0 1-.71-1.68l4.14-2.39a.914.914 0 1 1 .92 1.58l-4.14 2.39a1 1 0 0 1-.21.1zm-7.47-7.47a.87.87 0 0 1-.7-.09.92.92 0 0 1-.34-1.25l2.43-4.14a.92.92 0 0 1 1.59.92l-2.39 4.14a.88.88 0 0 1-.59.42z"/><use xlink:href="#F"/></g><use xlink:href="#F" opacity=".05"/><path d="M192.69 77.43l-11.29 36.71V83.47a5.46 5.46 0 0 0 1.82-3.94c0-1.62-1-2.37-2.2-1.66a5.25 5.25 0 0 0-2.2 4.21c0 1.44.78 2.19 1.81 1.84v30.67l-11.18-23.46a2 2 0 0 1 0-1.43 71.62 71.62 0 0 0 5.62-21.44 1.71 1.71 0 0 1 .75-1.18l10.44-6a.47.47 0 0 1 .76.39c.7 6.54 2.7 11.38 5.41 14.64a1.6 1.6 0 0 1 .26 1.32z" class="I"/><path d="M175.26,67.66a1.44,1.44,0,0,0-.21.6,71.62,71.62,0,0,1-5.62,21.44,2,2,0,0,0-.12.79l-5.12-3a1.91,1.91,0,0,1,.12-.78,71.4,71.4,0,0,0,5.62-21.44,1.64,1.64,0,0,1,.21-.61Z" class="F"/><path d="M187 61.33a.46.46 0 0 0-.74-.28l-10.44 6a1.6 1.6 0 0 0-.54.58l-5.12-3a1.56 1.56 0 0 1 .54-.57l10.44-6a1.5 1.5 0 0 1 1.37 0l3.75 2.17a1.76 1.76 0 0 1 .74 1.1z" class="C"/><path d="M167.63 54.77l16.54-9.55a1.5 1.5 0 0 1 1.37 0l3.75 2.16a1.51 1.51 0 0 1 .68 1.18v7.29a1.49 1.49 0 0 1-.68 1.18l-16.54 9.55a1.48 1.48 0 0 1-1.36 0l-3.76-2.16a1.54 1.54 0 0 1-.68-1.19V56a1.5 1.5 0 0 1 .68-1.23z" class="I"/><path d="M190 48.46c-.05-.36-.34-.49-.68-.29l-16.54 9.55a1.39 1.39 0 0 0-.48.51l-5.12-2.95a1.4 1.4 0 0 1 .48-.51l16.54-9.55a1.5 1.5 0 0 1 1.37 0l3.75 2.16a1.59 1.59 0 0 1 .68 1.08z" class="N"/><path d="M172.64 66.64h-.06a.05.05 0 0 1 0 0h-.07-.08-.06-.11a1.43 1.43 0 0 1-.83-.16l-3.76-2.16a1.53 1.53 0 0 1-.68-1.18V56a1.4 1.4 0 0 1 .2-.67l5.12 2.95a1.3 1.3 0 0 0-.2.67v7.29c0 .31.15.49.38.49h.09z" fill="#e6e6e6"/><path d="M180.63 114.59l-5.12-3-11.17-23.41a1.83 1.83 0 0 1-.15-.65l5.12 3a1.88 1.88 0 0 0 .14.65z" class="C"/><path d="M181.4,83.47v30.67l-.77-.45V83.92c-1,.35-1.81-.4-1.81-1.84V82Z" opacity=".15"/><g class="C"><path d="M205.05 74.65c0-.83-.59-1.17-1.31-.75a2.87 2.87 0 0 0-1.31 2.26c0 .67.39 1 .92.9-.74 15.41-11.52 33.56-24.68 41.16-6.53 3.78-12.67 4.39-17.25 1.78-4.34-2.5-6.83-7.65-7.09-14.57a2.93 2.93 0 0 0 .93-2c0-.83-.59-1.17-1.31-.75a2.87 2.87 0 0 0-1.3 2.26c0 .71.42 1.06 1 .88.35 7 2.95 12.19 7.42 14.77a13.18 13.18 0 0 0 6.66 1.71 22.94 22.94 0 0 0 11.27-3.48c13.46-7.77 24.47-26.43 25-42.14a3 3 0 0 0 1.05-2.03z"/><path d="M203.74 102.71a2.88 2.88 0 0 0-1.25 1.83l-47.3 27.3c-.17-.51-.65-.67-1.24-.33a2.87 2.87 0 0 0-1.3 2.26c0 .83.58 1.17 1.3.75a2.89 2.89 0 0 0 1.27-1.89l47.27-27.29c.15.55.65.73 1.25.38a2.89 2.89 0 0 0 1.31-2.26c0-.83-.59-1.17-1.31-.75zm-47.96 1.43a1.86 1.86 0 1 1-1.86-1.85 1.86 1.86 0 0 1 1.86 1.85z"/><path d="M155.71 133a1.86 1.86 0 1 1-1.86-1.86 1.86 1.86 0 0 1 1.86 1.86zm49.99-28.74a1.86 1.86 0 1 1-1.85-1.86 1.85 1.85 0 0 1 1.85 1.86zm-.17-28.89a1.86 1.86 0 1 1-1.86-1.86 1.85 1.85 0 0 1 1.86 1.86zm-55.29-38.91v15.41l-1.4.79V47.8c0-2.62-2.14-3.52-4.77-2l-6.54 3.78v23c0 3 1.86 4.43 4.15 3.11l4.07-2.35h0l4.45 2.57L128 88.75 125 87l-1.45.84v-1.66l4.11-2.37c2.29-1.33 4.15-4.86 4.15-7.9v-23l-6.54 3.78c-2.63 1.52-4.77 4.87-4.77 7.49V69l-1.4.83V54.44z"/><path d="M153.29 55.23l-4.45-2.57v-7.69l4.45.85v9.41z"/></g><path d="M154.69,39V54.44l-1.4.79V50.36c0-2.62-2.14-3.51-4.77-2L142,52.15v23c0,3,1.86,4.43,4.15,3.11l4.11-2.37v1.67L128,90.42V88.75l4.1-2.37c2.29-1.33,4.15-4.86,4.15-7.9v-23l-6.54,3.78c-2.63,1.52-4.76,4.87-4.76,7.49v4.86l-1.4.84V57Z" fill="#f0f0f0"/><path d="M150.24 36.46l4.45 2.57-31.16 17.98-4.45-2.57 31.16-17.98z" class="N"/><path d="M119.08 54.44l4.45 2.57v15.42l-4.45-2.57V54.44zm4.45 31.74l4.46 2.57v1.67l-4.46-2.57v-1.67z" class="I"/><path d="M351.08,205c-.63-4.38,8.66-28.37,13.76-39.63,4.47-9.88,7.86-9.31,15.58-9.74l.17,16.94-15.45,32.61" class="J"/><use xlink:href="#G" class="B"/><use xlink:href="#G" class="D L"/><path d="M429.56 368.54s2.73-32 .64-47.14c-1.79-13-3.89-18.44-4.27-21.4 0 0-3.21-30.6-3.48-56.61-.12-12.34-1.2-25.89-10.45-40.13l-.33-.56c-.63 4.79-7.86 8.11-14.39 9.06-6.28.91-14.19-.09-23.68-3-1.68 12.39-3.28 35.95-4.85 61.63-.77 12.55-.22 23.07-.16 31.12.08 10.92 2.69 59.51 2.69 59.51v1.8c0 2-.43 3.39-1.72 6.6a38.64 38.64 0 0 1-6.83 11.31c-.91 1-7.2 6.48-8 7.65-2.7 3.16 2.89 4.93 7.05 4.38 4.39-.59 11.2-2.25 13.13-4.93 1.29-1.77 2.26-8 3.58-9.81 4.46-6.09 6.3-8.7 6.33-10.65.06-3.51-1.15-4.9-1.58-6.88.36-4.15 7.83-31.88 8-43.95.07-5.75-1.54-15.9-1.54-15.9l6-42.13 7.42 46.57c1.93 11.58 8.52 36.93 12.66 52.26 1.55 5.76 2.31 8.33 2.77 12.11l.13 1.35c.1 1.72.84 20 1.52 23.89 1.42 8.06 8.59 7 9.74.53 1-5.56-.25-22.74-.28-24.85z" class="J"/><path d="M429.79 368.43c2 0 .69 7.86 1.21 12.9.56 5.4 2.33 9.34 2.84 13.77.58 5.06.13 7.18-1.69 11.33-1.41 3.24-8.5 7.67-11.19 3s-3.27-9.9-3-14.94l.74-13c.09-3.49-2.6-11.69 0-12.19l.13 1.36c.94 1.88 9.92 3.18 11-.44z" class="G"/><path d="M385.49,371.55c.62,2.52,0,9.44,0,9.44s-1.1,2.39-5,4l-1.75-9.62Z" class="E"/><path d="M380.48 384.96l-8.58-2.81-2.07-7.62 9.64 4.88 1.01 5.55z"/><path d="M371.56 362.74l-.05-1.8c-1.16.57-3.73 10-7.2 16.39-3.16 5.88-9.44 9.16-11.48 11.72-2.72 3.42 2.57 7.83 11.08 6 4.22-.9 10.61-3.6 12.34-6.45s2.32-8.08 3.74-10.17 4.78-4.51 5.5-6.89a13 13 0 0 0 0-6.58c-.67-2.17-1.25-4.79-2-4.56l-.05 1.65c-.57 1.16-2.62 2.51-6.92 2.75-2.05.12-4.03-.2-4.96-2.06z" class="G"/><path d="M373.14 206.9s2.6 4.2 19.6 3.61 18.91-7.89 18.91-7.89a94.07 94.07 0 0 1 8.16 13.52c3 6.51 4.44 16.3 4.9 31l2.35 53.35s2.42 8.93 3.18 13.78c0 0-6.23 8.06-23.86 5.31a90.78 90.78 0 0 1-4-14.4L396 260l-4.82 41.4s2.08 11.87.53 19.15c0 0-11.94 5.06-22.8-1 0 0-1.13-20.48-1.05-28.53.08-9.45.26-17.7 1.44-38.89.84-15.92 3.84-45.23 3.84-45.23z" class="H"/><path d="M396 260l-4.64-26.71s-6 0-12.22-5.85c0 0 1.1 6 9.2 9.08l5.66 23.65-2.12 35.19z" class="G"/><path d="M409.35 156.17a11.38 11.38 0 0 1 12.38 6c2.26 4.53 17.32 30.57 20.62 37.81.9 2-2.72 13.52-8.88 10.33s-18.41-27.44-18.41-27.44-12.51-14.1-5.71-26.7z" class="J"/><g opacity=".25"><path d="M423.06 167.32a.07.07 0 0 0-.06.07 1.07 1.07 0 0 0 .3 1 1.16 1.16 0 0 0 .83.37.65.65 0 0 0 .2 0 .06.06 0 0 0 .06 0h0a1.08 1.08 0 0 0-.28-1 1.19 1.19 0 0 0-1.05-.44zm.29.83a1.54 1.54 0 0 1-.16-.53v-.05l.16.11a1.51 1.51 0 0 1 .44.36 2.55 2.55 0 0 1 .26.38l.09.15a.92.92 0 0 1-.79-.42zm.06-.64a.73.73 0 0 1 .54.24 1.08 1.08 0 0 1 .22.5 1.87 1.87 0 0 0-.76-.74z"/><path d="M424.7 167.63a1.2 1.2 0 0 1-.37-.15l.25-.06-.09-.17h-.07.06l-.11-.2a1 1 0 0 0-.32.35.1.1 0 0 0 .05.12h0a.84.84 0 0 0 .72.37c-.04-.1-.08-.18-.12-.26zm-9.13 4.94a0 0 0 0 0 0 0v.06h0 .17a1.5 1.5 0 0 0 1.13-.63.83.83 0 0 0 .14-.85h0a.11.11 0 0 0-.09-.11h-.1a1.44 1.44 0 0 0-1.07.57 1 1 0 0 0-.22.89h0zm1.33-1.19a1.24 1.24 0 0 1-.35.78 1.2 1.2 0 0 1-.7.33 5.23 5.23 0 0 1 .41-.55 5.93 5.93 0 0 1 .53-.47zm-.91.43a1.19 1.19 0 0 1 .75-.51 3.49 3.49 0 0 0-.93.86 1.3 1.3 0 0 1 .19-.35z"/><path d="M417.59 170.27a0 0 0 0 0 0 0 .07.07 0 0 0-.09 0 1.08 1.08 0 0 0-.35 1 1.16 1.16 0 0 0 .68.88h.09a.07.07 0 0 0 .06 0 1 1 0 0 0 .3-.91 1.29 1.29 0 0 0-.69-.97zm-.26.83a.83.83 0 0 1 .07-.32 2.21 2.21 0 0 0 .26 1 1 1 0 0 1-.33-.68zm.58.73l-.06-.14a1.91 1.91 0 0 1-.19-.5 2.17 2.17 0 0 1 0-.44 1.13 1.13 0 0 0 0-.26 1.26 1.26 0 0 1 .43.59 1 1 0 0 1-.18.75z"/><path d="M415.18 171.44h0a1.86 1.86 0 0 1 .33 0 1.61 1.61 0 0 0 .48-.08 1.89 1.89 0 0 0 .8-.61 2.25 2.25 0 0 0 .49-1.13 1.74 1.74 0 0 0 .38.29 1.59 1.59 0 0 0 .22.55 1.86 1.86 0 0 0 1.55.8h.16a.77.77 0 0 0 .64.3h0a1.93 1.93 0 0 0 1.51-.72.37.37 0 0 0 0-.27 1.13 1.13 0 0 0 .4-.18 2.56 2.56 0 0 0 .72-2.59 1.08 1.08 0 0 0-.48-.58 1 1 0 0 0 0-.42 2.09 2.09 0 0 0 1.15.27h.29a1.8 1.8 0 0 0 .39-.08l-.12-.22a2.09 2.09 0 0 1-.52.09h-.11a1.94 1.94 0 0 1-1.06-.24h0c.06-.55.86-.5 1.34-.46l-.12-.22a2 2 0 0 0-.55 0 2.3 2.3 0 0 0-.28.06.59.59 0 0 1 0-.14.52.52 0 0 1 .1-.18.57.57 0 0 1 .36-.11h.17l-.12-.2h-.09a1.37 1.37 0 0 0-.28.05 1.12 1.12 0 0 1 .27-.26l-.5-.91a.51.51 0 0 0 0 .13 1 1 0 0 0 .36.62h0a.42.42 0 0 1-.44-.57.5.5 0 0 1 .11-.19l-.13-.23a.86.86 0 0 0-.13.2 1 1 0 0 0-.29.09 1.07 1.07 0 0 1 .29-.54l-.15-.28h0a.15.15 0 0 1 0-.06q-.19-.35-.33-.63a3.38 3.38 0 0 0 .2.72 1.26 1.26 0 0 1-.33-1l-.15-.3h0a1.16 1.16 0 0 0-.07.42 1.49 1.49 0 0 0 .52 1.07l-.08.16a1.13 1.13 0 0 0-1.31-.72.06.06 0 0 0 0 .06h0a1.05 1.05 0 0 0 .29 1 1.19 1.19 0 0 0 .84.38h.05l-.06.1a.86.86 0 0 0-.48.31.58.58 0 0 0-.1.4 1 1 0 0 0-1 .15l-.3-.1a1.92 1.92 0 0 0-1.52.41 2.21 2.21 0 0 0-.92 1.37 1.19 1.19 0 0 0-.58.59.56.56 0 0 0-.44-.22h0a.81.81 0 0 0-.56.22h-.09a1 1 0 0 0 .22-.82 1.25 1.25 0 0 0-.67-.93 0 0 0 0 1 0 0 .07.07 0 0 0-.1 0 1.06 1.06 0 0 0-.34 1 1.08 1.08 0 0 0 .26.55h-.2 0a1.4 1.4 0 0 0-.56-1 1.08 1.08 0 0 0-1-.23h0a0 0 0 0 1 0 0h0a1.52 1.52 0 0 0 .69 1.28.9.9 0 0 0 .24.12h0l-.21.1a1.52 1.52 0 0 0-.81.84.5.5 0 0 0 .11.37.74.74 0 0 0-.26.24.6.6 0 0 0-.07.35.57.57 0 0 0-.25.37.52.52 0 0 0 .14.46l.15.11.09.05a1.09 1.09 0 0 1 .1.11 1.16 1.16 0 0 0-.78.05 1 1 0 0 0-.6.78 0 0 0 0 0 0 0h0a.12.12 0 0 0 .05.09 1 1 0 0 0 .59.18 1.15 1.15 0 0 0 .44-.09 1.13 1.13 0 0 0 .67-.73h0a1.63 1.63 0 0 0 .51.42 1.42 1.42 0 0 0 .62.16.87.87 0 0 0 .44-.13zm5.89-7.57a1.47 1.47 0 0 1-.16-.53v-.05l.15.11a1.55 1.55 0 0 1 .45.36 1.92 1.92 0 0 1 .25.38 1.3 1.3 0 0 0 .1.15.88.88 0 0 1-.79-.42zm.06-.64a.84.84 0 0 1 .54.24 1.08 1.08 0 0 1 .22.5 2 2 0 0 0-.76-.74zm-.9 5.56c.27.08.44.19.48.31a.24.24 0 0 1 0 .24.9.9 0 0 1-.62.26h0a1 1 0 0 1-.84-.63 1 1 0 0 1-.08-.62c0-.22.1-.29.26-.29h0c.17 0 .19.06.24.18a1.17 1.17 0 0 1 0 .11.76.76 0 0 0 .56.44zm-.31-.6c.16-.08.32-.16.47 0a.23.23 0 0 1 .1.26.26.26 0 0 1-.09.16v.05h-.12a.83.83 0 0 1-.33-.39zm0 1.61h.14a1.12 1.12 0 0 0 .81-.36.43.43 0 0 0 .06-.37 1 1 0 0 0 .49-.81 1 1 0 0 1 .31.95 1.13 1.13 0 0 1-.91.82l-.24.09a1.19 1.19 0 0 1-.74.13.74.74 0 0 1-.62-.75 1 1 0 0 0 .78.3zm1.83-1.55a1 1 0 0 0-.31-.27h-.05a.66.66 0 0 0 0-.14 1.22 1.22 0 0 0-1-.85 1.79 1.79 0 0 0-1.12.13 1 1 0 0 1 .41-.56 1.65 1.65 0 0 1 1.41-.1h.1a.74.74 0 0 1 .33.17.84.84 0 0 1 .07.32 1 1 0 0 0 0 .25l.09.24a.9.9 0 0 1 .11.81zm-1.77-1.1h0a1.09 1.09 0 0 1 1.19.85.83.83 0 0 1-.34.86.57.57 0 0 0-.27-.16.35.35 0 0 0 .09-.17.51.51 0 0 0-.14-.5.61.61 0 0 0-.45-.14.47.47 0 0 0-.3.14l-.05-.09a.44.44 0 0 0-.26-.17.42.42 0 0 0-.46.12.75.75 0 0 0-.09.15.71.71 0 0 1 .11-.44 1.18 1.18 0 0 1 .99-.45zm-1 .15h0l-.06.05a.8.8 0 0 0-.1 1 1.33 1.33 0 0 0 .05.61 1.07 1.07 0 0 0 .16.32.56.56 0 0 0-.08.27 1.82 1.82 0 0 1-1-.6c-.25-.27-.17-.52-.09-.81 0 0 0-.1.05-.15v-.14a1.34 1.34 0 0 1 .48-.87 1.09 1.09 0 0 1 .7-.18.83.83 0 0 0-.09.5zm-.34 3.5a1.51 1.51 0 0 1-.76-.89 1.71 1.71 0 0 1 0-.45 1.22 1.22 0 0 0 0-.27 1.72 1.72 0 0 0 1.13.61h0a.94.94 0 0 0 .35.48 1 1 0 0 0 .62.2 1.8 1.8 0 0 0 .56-.11 1.41 1.41 0 0 1-1.86.43zm2.29.3a1.45 1.45 0 0 1-1.09.06 1.38 1.38 0 0 0 1-.83h0a1.19 1.19 0 0 0 .63.23 1 1 0 0 1-.47.54zm1.56-3.53a2.06 2.06 0 0 1-.6 2.56 1.07 1.07 0 0 1-.73.05.87.87 0 0 0 .49-.24 1.73 1.73 0 0 0 .36-.84 1.23 1.23 0 0 0-.12-.63c.32-.31.14-.85.08-1s-.05-.16-.07-.23a.87.87 0 0 1 .63.33zm-.51-2.7a.74.74 0 0 1 .42-.55 1 1 0 0 0 0 .16.73.73 0 0 0 .39.57h.07a.82.82 0 0 0-.25.73 1.22 1.22 0 0 1-.15-.17 1.24 1.24 0 0 0-.14-.18l-.13-.11a.42.42 0 0 1-.19-.45zm-.42.1a.48.48 0 0 1 .17-.12 1 1 0 0 0 0 .18.58.58 0 0 0 .27.46l.1.08a2.61 2.61 0 0 1 .17.2.76.76 0 0 0 .31.25.75.75 0 0 0-.27.26 2.1 2.1 0 0 0-.78-.86h0a.4.4 0 0 1 .07-.42zm.3 1.1a1.53 1.53 0 0 1 .3 1 1.55 1.55 0 0 0-.31 0h0v-.11-.11a.48.48 0 0 0-.09-.26.52.52 0 0 0-.27-.2 4.42 4.42 0 0 0-.51-.16 1.73 1.73 0 0 0-.52-.58 1.27 1.27 0 0 1 1.44.42zm-3.7.16a2 2 0 0 1 1.6-.68 1.2 1.2 0 0 1 .83.56 1.48 1.48 0 0 0-.75.08 1.42 1.42 0 0 0-.6.44c-.16-.13-.42-.06-.57 0a1.37 1.37 0 0 0-.95 1h0a1.47 1.47 0 0 1 .48-1.4zm-.73 1.17a1.34 1.34 0 0 0 .18.58 1.07 1.07 0 0 0 0 .94 1.28 1.28 0 0 1 0 .39v.26l-.13-.17a1.42 1.42 0 0 1-.49-1 1.33 1.33 0 0 1 .48-1zm-.39 1.89h0a1.94 1.94 0 0 1-.56 1.34 1.53 1.53 0 0 1-.89.52h-.21-.06l.1-.14.47-.69c.05-.08.1-.18.14-.26a2.79 2.79 0 0 1 .26-.45 1.05 1.05 0 0 1 .67-.36zm-2.29-.36h0a.28.28 0 0 0 .23-.21.41.41 0 0 0-.11-.33.42.42 0 0 1 .23.19 1 1 0 0 1 .08.33.5.5 0 0 0 0 .12.66.66 0 0 0-.17.12.78.78 0 0 0-.35-.14h-.11a.23.23 0 0 1-.17-.12.22.22 0 0 1 0-.19c0-.1.14-.22.24-.23h0a.09.09 0 0 1 .07 0 .23.23 0 0 1 .06.13.25.25 0 0 1-.08.17h0a.11.11 0 0 0 0 .08s.1.08.12.08zm.68-.06h0a1 1 0 0 0-.28-.56.94.94 0 0 0-.24-.13h.05a.52.52 0 0 1 .39.12.4.4 0 0 1 .16.38.44.44 0 0 1-.04.19zm.42.18a.79.79 0 0 0-.15.12v.05a1.78 1.78 0 0 1-.54.39h0l-.26.15a1.22 1.22 0 0 1 .26-.38 1.18 1.18 0 0 1 .73-.33zm-1.22.14a.61.61 0 0 1 .27.1 1.43 1.43 0 0 0-.14.2.79.79 0 0 0-.45-.18h0a.48.48 0 0 1-.13-.49.34.34 0 0 0 .13.25.81.81 0 0 0 .36.12zm-.63-.54a.55.55 0 0 0-.06.4s0 .11.08.18c-.17-.07-.28-.17-.29-.3a.55.55 0 0 1 .33-.48.47.47 0 0 1 .23 0 .63.63 0 0 0-.29.2zm.09.85a1 1 0 0 0 .18 0 .46.46 0 0 1 .38.14h0q-.07.2-.15.42h-.09a.6.6 0 0 0-.24-.3l-.15-.09a.78.78 0 0 1-.24-.16.54.54 0 0 1-.11-.23h0a1 1 0 0 0 .46.22zm.38.81a1.71 1.71 0 0 1 .64.08l-.12.06a.72.72 0 0 1-.49.1 1.22 1.22 0 0 1-.28-.14l-.1-.06a2.68 2.68 0 0 1 .39-.04zm.59-.11l-.28-.08a1.59 1.59 0 0 1 .43-.3 2.88 2.88 0 0 0 .29-.16 1.22 1.22 0 0 0 .27-.23c.15-.16.28-.28.49-.24a.28.28 0 0 1 .1.09.78.78 0 0 0-.15.1 1.72 1.72 0 0 0-.34.53l-.1.19-.12.18a1.42 1.42 0 0 1-.55-.08zm1.3-2.5a.35.35 0 0 1 .4.2h0a1.2 1.2 0 0 0-.05.33 2 2 0 0 0 .2.83 1.27 1.27 0 0 0-.26 0 .91.91 0 0 0-.06-.4.94.94 0 0 1-.06-.29.63.63 0 0 0-.28-.56 1.19 1.19 0 0 0-.16-.08.85.85 0 0 1 .31-.03zm-.16.46a.48.48 0 0 1 .08.28 1.48 1.48 0 0 0 0 .19l.06.19a.83.83 0 0 1 .06.21 1 1 0 0 0-.74-.18.37.37 0 0 0 0-.14.71.71 0 0 0-.36-.63h-.06c.44-.18.76-.24 1 .08zm-.42-1.38a1 1 0 0 1-.14.74.61.61 0 0 0-.07-.14 2.3 2.3 0 0 1-.18-.5 2.12 2.12 0 0 1 0-.44 2.35 2.35 0 0 0 0-.26 1.24 1.24 0 0 1 .43.6zm-.72 0a.88.88 0 0 1 .07-.33 2.15 2.15 0 0 0 .26 1 1 1 0 0 1-.29-.65zm-.77-.16a1.13 1.13 0 0 1 .42.7 3.29 3.29 0 0 0-.93-.93 1 1 0 0 1 .55.25zm-.4.56a1.2 1.2 0 0 1-.41-.76 4.73 4.73 0 0 1 1.15 1 1.1 1.1 0 0 1-.7-.22zm-.06.85a1.74 1.74 0 0 1 1.47-.25 1 1 0 0 0-.22.19.79.79 0 0 0-.46.06.37.37 0 0 0-.15.26h0a.5.5 0 0 0-.33-.09.73.73 0 0 0-.67.51.41.41 0 0 0 0 .16h0c-.13-.39.23-.7.4-.82zm-.45 1.11h0a.7.7 0 0 0 .23.53.59.59 0 0 0 .26.17 1.5 1.5 0 0 1 .35.22h0a.69.69 0 0 0-.38-.08.64.64 0 0 1-.28 0 .48.48 0 0 1-.36-.5.42.42 0 0 1 .22-.32zm-.9 1.73a.78.78 0 0 1 .61-.07 1.91 1.91 0 0 0-.93.38 1.18 1.18 0 0 1 .36-.29zm.42.57a.91.91 0 0 1-.82.08l.1-.08a3.42 3.42 0 0 1 .51-.33 1.89 1.89 0 0 1 .41-.1l.22-.05a1.47 1.47 0 0 1-.38.5zm.49-1a.49.49 0 0 0 0 .12 1.8 1.8 0 0 0-.19-.2h-.07c-.15-.12-.27-.21-.21-.43a.33.33 0 0 1 .07-.13h0a.75.75 0 0 0 .47.41.71.71 0 0 0 .2 0 .43.43 0 0 0-.23.26zm1.6.76a1 1 0 0 1-1.28-.5.2.2 0 0 1 0-.2.6.6 0 0 1 .55.14.72.72 0 0 0 .36.13h0a1.26 1.26 0 0 0 .5-.15 1.23 1.23 0 0 1 .37-.12l-.38.53z"/></g><use xlink:href="#H" class="B"/><use xlink:href="#H" opacity=".2"/><path d="M344.52 270.74l-4.93 6.38c-1.49 1.8 1.53 6 5.76 10 5.6 5.24 13.33 9.93 15.31 7.54l3.65-4.69 1.27-1.7c-2 2.38-9.71-2.31-15.32-7.54-4-3.78-7-7.85-5.87-9.75h0a.55.55 0 0 1 .13-.24z" class="I"/><use xlink:href="#I" class="B"/><use xlink:href="#I" class="D L"/><path d="M353 259.9l-4.9 6.29c-3.44 4.08 16.73 21.17 20.78 17.87a.72.72 0 0 0 .22-.21l4.89-6.37c-3.56 4.08-24.5-13.48-20.99-17.58z" class="I"/><path d="M481.22,121c-3.46-2.12-3.84-3.7-3.84-3.7l-25.82,16.88c-1.07,5.38,3.56,11.54,9.4,14.9l1-1.19Z" class="J"/><path d="M473.24 150.86h0 0 0l10.42-29.63h0z" class="N"/><path d="M483.66 121.23l2.52-7.18-2.52 7.18h0z" class="C"/><path d="M484.41,112.66l-7,4.59s.26,1.62,3.84,3.7l5-6.9h0a1.18,1.18,0,0,0-1.77-1.39Z" class="H"/><path d="M473.21 150.87h0 0l10.42-29.63a3.74 3.74 0 0 1-2.44-.28l-19.31 26.89L461 149c4 2.33 8.51 3.32 12.21 1.87z" class="O"/><path d="M481.22,121a2.89,2.89,0,0,0,2.44.28l2.52-7.18Z" class="G"/><path d="M360.66 294.63l-1 1.18-.07.09-.72.88-19.09 24.39-1.25 1.6c-1.33 1.09-3.35 1.56-5.91 1.21a18.88 18.88 0 0 1-7.66-3.11 20.71 20.71 0 0 1-7.66-8.85c-1.13-2.82-1-5.2.22-6.79l.15-.2 21.87-27.91s-1.77 4.35 8.16 12.09l1.23 1c8.21 6.06 11.19 4.76 11.62 4.51z" class="O"/><path d="M473.21 150.87L364.09 290.2l-4.45 5.7-.72.88-19.09 24.39-1.25 1.6c-1.33 1.09-3.35 1.56-5.91 1.21a18.88 18.88 0 0 1-7.66-3.11l28.69-36.75L461 149c4 2.33 8.51 3.31 12.21 1.87z" class="K"/><path d="M387.87 215.44c.82-1.05 4.84-.16 6.41 1.18s5.53 3.81 8.81 3.29a67.92 67.92 0 0 1 11.57-1l5 .35 8.36-10.69s-15 1.24-21.12 0-11.59-2.62-11.59-2.62zm-17.38 26.83a21.53 21.53 0 0 0 3.34 2.62 17.45 17.45 0 0 0 6.19 2.58 9 9 0 0 0 6.47-1.2 4 4 0 0 0 1.63-2 2.79 2.79 0 0 0-1-2.9c-1.23-1.08-2.63-2-3.93-3a30.28 30.28 0 0 1-3.67-3c-.27-.28-.55-.84-.12-1.1s1.4.2 1.95.35a12 12 0 0 0 2.66.49 3.47 3.47 0 0 0 1.24-.12c.46-.14 1.24-.7 1.1-1.28-.07-.3-.37-.47-.64-.6a16.64 16.64 0 0 1-3.62-2c-.48-.42-1-.71-1.5-1.09a12.73 12.73 0 0 0-2.88-1.67l-9.22 11.77 2 2.15z" class="K"/><path d="M442.35 200c3.18 6.64 5.32 12.12-2.69 14.12-6.08 1.52-21 3-30.39 3.11-1.47 0-4.55 1.42-7 1-7.12-1.26-10.94-5.62-13.61-3.81l-2.05 2.58s-2.75-1.18-.25-6.54c2.13-4.55 5.55-7.1 9.25-7.1 3.47 0 10.2 3.53 12.56 3.58s13.64-2.71 20.65-4.15l13.53-2.79zm-55.21 40.15c-1.23-1.08-2.63-2-3.93-3a29.37 29.37 0 0 1-3.67-3c-.27-.28-.55-.83-.12-1.09s1.4.2 1.95.34a12 12 0 0 0 2.66.49 3.71 3.71 0 0 0 1.24-.11c.46-.15 1.24-.71 1.1-1.29-.07-.29-.37-.46-.64-.6a15.83 15.83 0 0 1-3.62-2c-.48-.42-1-.71-1.5-1.09a13.23 13.23 0 0 0-3.43-1.9c-1.1-.4-2.38-.51-3.33-1.24a7.28 7.28 0 0 1-2-2.83c-2.26-5.05-5.3-12-6.71-17.71l-14.06-.12a45.28 45.28 0 0 0 1.24 4.88c.94 2.52 2.82 6.85 4 9.28a100.6 100.6 0 0 0 6 11.24 59.51 59.51 0 0 0 8.17 10.6 22.08 22.08 0 0 0 3.34 2.61 17.45 17.45 0 0 0 6.19 2.58 8.87 8.87 0 0 0 6.47-1.2 4 4 0 0 0 1.63-2 2.8 2.8 0 0 0-.98-2.84z" class="J"/><g class="H"><path d="M413.37 114.44l-5 4.09a3 3 0 0 1 .42-4.39 3.34 3.34 0 0 1 4.58.3z"/><path d="M400.3,151.1c0-3.13,7.31-7.84,11.08-14.45s1.9-17.44-3.28-19.11c0,0-.09-9.87-13.41-12.49s-17.5-5.57-19.86-6-2.84,8,.29,10.18a18.61,18.61,0,0,1-6-3.85c-1.94-1.87-2.71,7.89,1.47,11.31,0,0-3.46,2-3,7.17a8.57,8.57,0,0,0,6.63,8Z"/></g><path d="M377.58 114.09c-3.21 1.39-6.26 6.3-6.22 20 0 11.65 3.61 14.59 5.42 15.46s5.32.43 8.74-.1v6.69s-2.56 2.52-1.67 4.11 4.23 2.93 9.39 1.31c5.86-1.84 7.06-5.8 7.06-5.8l.25-14.59s2 2.07 5.43-1c2.86-2.5 3.89-6.8 1.75-9.16s-4.91-2.54-7.4.09l-.73-1.79c-2.13-.4-8.11.23-11.35-1.8-7.03-4.35-9.98-8.95-10.67-13.42z" class="J"/><path d="M377.58 114.09a49.45 49.45 0 0 0 22.72 15.18s-6.37 2.74-14.49-2.58-8.23-12.6-8.23-12.6z" class="B"/><path d="M400.3 129.27v6.47a3 3 0 0 1-3.12-3.13 3.35 3.35 0 0 1 3.12-3.34z" class="H"/><path d="M377.28 130.18a1.55 1.55 0 1 1-1.61-1.56 1.6 1.6 0 0 1 1.61 1.56zm12.32.69a1.69 1.69 0 0 1-1.6 1.78 1.73 1.73 0 1 1 1.6-1.78z" class="E"/><path d="M387.45 139.82l-5 1.55a2.54 2.54 0 0 0 3.19 1.91 2.87 2.87 0 0 0 1.81-3.46z" class="O"/><path d="M373.19 127.3l4-1.58a2.05 2.05 0 0 0-2.76-1.22 2.21 2.21 0 0 0-1.24 2.8z" class="E"/><path d="M381.05 128.92l.2 9.54-5.13-1.14 4.93-8.4zm4.47 20.57c3.61-.42 11.05-2.49 12.26-5.52a7.92 7.92 0 0 1-2.67 3.84c-2.25 1.93-9.59 3.93-9.59 3.93z" class="O"/><path d="M282.33 111.33V111a11.6 11.6 0 0 0 1.77-12.91 11 11 0 0 0-11-6.38h0a20 20 0 0 0-11.65-3.54 23.18 23.18 0 0 0-23.19 23.18v6.11c.06 3.21-1.05 5-2.77 6.26l-6.38 4.07a10.38 10.38 0 0 0-2.86 13c.67 1.2 1.43 2.36.78 3.76a5.17 5.17 0 0 1-1.7 1.9l-2.11 1.49a8.25 8.25 0 0 0-2.66 7.87c.69 3.37 3.16 5.44 6.09 6.88a37.46 37.46 0 0 0 19.24 3.51c6.57-.49 11.85-2.58 17.71-5.61a37.59 37.59 0 0 0 14.06-12.71 23.4 23.4 0 0 0 4.1-8.87 55 55 0 0 0 .73-9.84l-.11-16.24z" class="E"/><path d="M272.27,139.63c3.8.4,9.15.28,12.34,5.77s18.12,45.24,18.12,45.24H288.59l-16.41-33Z" class="M"/><path d="M231.77,362.62a52.55,52.55,0,0,0-.81,8.56c-.1,5.19-1.06,7-1.18,11.29-.15,4.87.69,6.69,2.67,9.43s7.16,5.21,9.35.59,1.91-7.66,1.21-12.43c-.72-4.94-.82-7.66-1.24-11.43-.37-3.32-.81-5.84-.81-5.84Z" class="E"/><path d="M246.51 321.8l-17.1-.31c.25 11.42 2.07 30.42 2.36 41.13.06 2-.05 15.67.71 19.82 1.14 6.23 8.54 5.39 8.93 1.66s-.47-19.67-.45-21.31c-.06-6.87 3.16-24.8 4.84-37.13.09-.6.63-3.27.71-3.86z" class="M"/><path d="M271.64,353.74s-.88.05-1,.77-.21,2.21-.56,3.62a20.25,20.25,0,0,0-.61,6.77c.29,1.59,3.93,4,6.42,4.39s6,2.87,7.95,4.71a19.06,19.06,0,0,0,11.06,4.34c4.15,0,7.05-1.38,8.42-3.6s-1.25-2.5-6-5.58l-3.69-2.39c-7.52-4.91-10.27-7.55-12.4-12.46Z" class="E"/><path d="M281.27 351.07c-.12-3.54 1.69-29.58 1.69-29.58l-14.71 1.66c3.47 20.76 3.75 27.85 3.36 30.85h0a2.71 2.71 0 0 0-.09.87c0 4 4.56 6.21 8.11 8.89 1.41 1.07 5 4.34 9.23 5.78 2.74.93 7.79 1.28 8.44-.38-4.32-3.3-10.2-7.61-13.64-11.38-1.66-1.78-2.26-3.18-2.39-6.71z" class="M"/><path d="M232.37 204.51c-5.23 22.93 1.29 77.79 1.29 77.79-.24 2.85-3.49 8.45-4.7 21-1.43 14.79 2.64 54.39 2.64 54.39s3.91 2.92 9.58.2l12.2-72.88 6.15-43.85 7.41 43.78a76.13 76.13 0 0 0-2.8 12.67c-.83 8.65 7.59 52.06 7.59 52.06s3.94 2.08 9.54-.19l6.19-66.17c1-13.95-1.64-57.54-3-77.86z" class="G"/><path d="M259.53,241.12l1.9-13.06s11-1.48,16-6.17a18.08,18.08,0,0,1-13,8.21l-1.95,11.82,3.69,38.59Z" class="E L"/><path d="M280.53 173.8c.67 6.21 4.27 33.56 4.27 33.56-20.5 10.94-49.27 3.61-53.16-.9 3.53-11.6 9.07-17.88 11.21-21.5l-3.74-15.66s10.36-12.67 3.34-28.23l8.74-.94 15.34-.5h5.74c2.45 2.29 8.36 7.77 10.85 14.16 1.61 4.13 3.17 7.79-2.59 20.01z" fill="#f0f0f0"/><path d="M241.19,177.48c.18.71,5.33,7.54,7.68,9s-4.17,3.57-5.09,7.28c-1.86,7.5,9.74,17.36,24.16,18.73-16.3,2.68-33.33-2.63-36.3-6.07,3.53-11.6,9.08-17.91,11.21-21.5Z" class="C"/><path d="M242.45 141.07c-10.4.38-11.74 5.34-13.85 11.28-2.87 8.3-8.25 28.84-10.19 38.29h15.7l5-21.34h0c9.43-8.7 6.71-23.84 3.34-28.23z" class="M"/><path d="M279.81,123.77a4.86,4.86,0,1,1-4.85,4.86,4.86,4.86,0,0,1,4.85-4.86m0-1a5.86,5.86,0,1,0,5.85,5.86,5.85,5.85,0,0,0-5.85-5.86Z" class="B"/><path d="M276.2 99.4c2.61 1.46 6.21 4.5 5.11 18-.86 10.56-4.88 14.45-6.73 15.31s-4.21 1-7.73.48l.1 6.32s6.81 7.23 5.95 9.23c-1 2.42-8.95 2.11-12.36.62a18.51 18.51 0 0 1-9.16-9.25v-15.62s-2 2-5.59-.93c-2.94-2.46-4-6.7-1.81-9a4.81 4.81 0 0 1 4.53-1.32 5.94 5.94 0 0 1 3.94 3.42 1.14 1.14 0 0 0 .75.73.84.84 0 0 0 .72-.3 2 2 0 0 0 .39-.71c.84-2.21.58-4.58 1.19-6.84a13.22 13.22 0 0 1 2.49-4.79A16.52 16.52 0 0 1 268.74 99a22 22 0 0 1 7.46.4z" class="M"/><path d="M278.05 99.31c.88 4.18-2 11.23-9.49 11 0 0 3.05-2.32 3.43-4.91a14.61 14.61 0 0 1-11.66 6c-6.38.27-8-1.17-8-1.17s6.21-20.4 25.72-10.92zm-12.86 14.46a1.56 1.56 0 0 1-1.43 1.63 1.48 1.48 0 0 1-1.61-1.38 1.56 1.56 0 0 1 1.44-1.63 1.46 1.46 0 0 1 1.6 1.38z" class="E"/><path d="M265.66 123.69l5.27 1.55a2.7 2.7 0 0 1-3.36 2 2.88 2.88 0 0 1-1.91-3.55z" fill="#9a4a4d"/><path d="M279 110.72l-3-1.66a1.66 1.66 0 0 1 2.29-.73 1.84 1.84 0 0 1 .71 2.39zm-1.46 2.79a1.57 1.57 0 0 1-1.44 1.63 1.47 1.47 0 0 1-1.61-1.38 1.57 1.57 0 0 1 1.44-1.63 1.48 1.48 0 0 1 1.61 1.38z" class="E"/><path d="M269.79 112.9l.42 8.7 4.54-1.52-4.96-7.18zm-2.94 20.31c-3.71-.7-11.41-3-12.66-6a8.67 8.67 0 0 0 2.88 4.3c2.31 1.9 9.82 3.9 9.82 3.9z" fill="#9a4a4d"/><g class="B"><path d="M251.38 132.81v1.13a5.85 5.85 0 1 1-2.45-11.16.51.51 0 0 1 .5.5.5.5 0 0 1-.5.5 4.85 4.85 0 0 0 0 9.7 4.77 4.77 0 0 0 2.45-.67z"/><rect x="191.97" y="182.16" width="138.12" height="86.1" rx="5"/></g><rect x="198.07" y="187.61" width="125.92" height="75.2" rx="4.46" opacity=".7" class="D"/><g class="N"><path d="M204.41 257.1l38-34.56 26.72 23.53-8.1-11.55 23.11-34.44 33.52 57.02H204.41z"/><circle cx="228.65" cy="205.9" r="9.53" transform="matrix(.22971 -.973259 .973259 .22971 -24.27 381.13)"/></g><path d="M315.48 177.17c-6.61 1.08-8.51 5-8.51 5h5.41s.68 1.82-1.14 8.64c-.64 2.39 2.9 2.46 3 1.56.64 1.47 5.29 3.52 8.77 1.21 3.18-2.11 4.61-5.34 3.9-11.41-1.22-6.79-10.27-5.17-11.43-5zm-108.02 0c6.62 1.08 8.52 5 8.52 5h-5.41s-.68 1.82 1.14 8.64c.64 2.39-2.9 2.46-3 1.56-.64 1.47-5.28 3.52-8.76 1.21-3.19-2.11-4.61-5.34-3.9-11.41 1.21-6.79 10.25-5.17 11.41-5z" class="M"/><path d="M69.71 389.45c3.5 1.88 7.76 1.73 11.92 0l1.72-22.66-13.64 1.8zm41.82-13.55c3 6.39 8.28 4.62 14.29.53l-1.06-22.77h-14.48z" class="J"/><path d="M95.24,410.9c.38.36.26,2.83-.16,3.5s-3.07,2.94-7.79,3.28c-4.52.32-8.55-.29-11.2-2s-3.93-3.54-4.18-6.11,0-5.05-1.19-7c-1.13-1.83-2.94-3.89-3.33-4.88-.85-2.16,0-5.24,0-5.24Z" class="E"/><path d="M82.85 388.45a12.56 12.56 0 0 0 .55 2.86 25.82 25.82 0 0 0 2.77 5.69 22.29 22.29 0 0 0 1.88 2.65c1.36 1.63 3.06 3 4.51 4.52a9.24 9.24 0 0 1 2.78 5.54c.19 3.54-3.65 4.75-6.61 5.27a21.52 21.52 0 0 1-9.61-.48 8.84 8.84 0 0 1-6.48-7.06c-.16-1-.1-2-.22-3a13.86 13.86 0 0 0-2.75-6.2 18.27 18.27 0 0 1-2.11-3.37c-.93-2.19-.19-4.66.4-6.84.51-1.89 1.09-4 1.75-3.84a2.53 2.53 0 0 0 .16 1.13 4.59 4.59 0 0 1 .52 1.12 9.47 9.47 0 0 0 .54 1.46 3.82 3.82 0 0 0 1.57 1.73l.13-4a1.92 1.92 0 0 1 .31-1.18 1.88 1.88 0 0 1 1.13-.49 25.19 25.19 0 0 1 7.58-.63 1.08 1.08 0 0 1 1.18 1.35 34 34 0 0 0 .02 3.77z" class="G"/><path d="M86.64 397.71c-1.32-1-4.27-1-5.89-.83a9.9 9.9 0 0 0-4.59 1.61 1 1 0 0 1-1.35-.1h0a1 1 0 0 1 .1-1.51 10 10 0 0 1 5.17-1.88c4-.28 5.14.4 5.14.4s1.78 1.14 1.42 2.31zm3.03 3.63c-1.65-1-4.9-.84-6.52-.67a9.27 9.27 0 0 0-4.46 1.7 1.06 1.06 0 0 1-1.36-.11h0a1 1 0 0 1 .1-1.5 10.37 10.37 0 0 1 5.28-2.07c4-.28 5 .53 5 .53a3.28 3.28 0 0 1 1.96 2.12zm-11.18-10.18a10 10 0 0 1 5 .42c.7.4 1.16 1.5.71 1.78a9.24 9.24 0 0 0-4.43-.61 13 13 0 0 0-4.3 1.19c-.34.15-.74.36-1.09.55a.94.94 0 0 1-1.31-.4h0a.89.89 0 0 1 .35-1.14 12.78 12.78 0 0 1 5.07-1.79z" class="F"/><path d="M149.54,390.47a4.31,4.31,0,0,1-.17,3.16c-.44.92-5.26,3.63-11.76,3.2a27,27,0,0,1-13.43-4.7c-2.48-1.64-5.06-1.95-8.28-2.13s-7.44-1.79-8.14-3.29.1-4.1.1-4.1Z" class="E"/><path d="M123.43,370.49l1.69-.61a1.35,1.35,0,0,1,1-.11c.42.15.58.64.69,1.07a16.17,16.17,0,0,0,.71,2.82,6.79,6.79,0,0,0,1.82,1.92,29.94,29.94,0,0,0,5.2,3.35c2.12,1.14,4.2,2,6.39,3s5.21,1.62,7,2.8c2.55,1.72,2.88,6,0,7.74-2.51,1.47-9.1,3.07-16,1.11-3.77-1.07-8-5.09-12.9-5.48-3.14-.25-9.09-1.13-11.11-3.52-.75-1.06.25-4.41,1.07-7.31.9-3.16,1.24-8.11,2.28-7.83.08,1.05,1,1.66,1.54,2.54a18.87,18.87,0,0,1,1.13,2.51,4.63,4.63,0,0,0,1.64,2.17,2.11,2.11,0,0,0,2.55-.15c.92-.95.37-2.63,1-3.78a4,4,0,0,1,2.22-1.45Z" class="G"/><path d="M131.56 377.22a2.89 2.89 0 0 0-2.32-1.55c-1.43-.27-4 .78-5.53 2.08a1.18 1.18 0 0 0 .17 1.94h0a1.18 1.18 0 0 0 1.34-.15 8.94 8.94 0 0 1 6.34-2.32zm4.44 2.48a3.37 3.37 0 0 0-2.75-1.41s-3.74.1-6 2.26a1.14 1.14 0 0 0 .16 1.87h0a1.12 1.12 0 0 0 1.29-.15 9 9 0 0 1 7.3-2.57zm4.89 2.24a3.75 3.75 0 0 0-2.85-1.28 10.07 10.07 0 0 0-5.8 2.29 1.14 1.14 0 0 0 .16 1.87h0a1.12 1.12 0 0 0 1.29-.15 8.6 8.6 0 0 1 7.2-2.73z" class="F"/><path d="M71.45 223.92c-.82 24.8-.76 79.74-.76 79.74-.26 3.08-1.51 9.42-2.54 21.77-1.34 16.06 1.56 51.39 1.56 51.39a16.43 16.43 0 0 0 13 .07l10.21-66.24 6.4-40.26 4.88 35.71a84 84 0 0 0 .5 20.38l6.2 37.36a25.61 25.61 0 0 0 14.36-.54l.61-58.84c.15-7.72-3.42-86.65-3.42-86.65z" class="H"/><path d="M99.27,270.39l3.67-20.32s10.16-.89,15.78-6.56c0,0-1,5.56-13.78,8.89L101.27,273l2.88,33.14Z" class="E"/><path d="M158.4 165c-1.29 2.81-14.13 21.64-14.13 21.64-4-4.47-15.24-20.08-21.78-23.28-6.38-3.11-16.95-2.25-16.95-2.25l15.61 24.64s10.94 11 17.95 16.4c4.84 3.69 9.64 6.66 17.17-6.77 4.51-8 9.57-18.55 10.88-21.18a7.9 7.9 0 0 1 5.48-4.24 37.19 37.19 0 0 0 2.09-.48c1.53-.42 3.31-1.1 3.82-2.77.18-.57.21-1.18.34-1.76.2-.89.6-1.72.8-2.6a3.51 3.51 0 0 0-.06-1.82c-.17-.51-.65-.94-.68-1.5a2.1 2.1 0 0 1 .23-.79 3.43 3.43 0 0 0-.61-3.43 4.41 4.41 0 0 1-.63-.74c-.32-.59-.16-1.33-.31-2-.67-3-5.87-.8-7.49.07l-3.79 2a16.74 16.74 0 0 0-1.37-4.79c-1.27-3-4.61-3.63-4.45-1.72a36.91 36.91 0 0 1-.06 6.49 35.44 35.44 0 0 0-.25 4.1c.01 2.31-.34 3.57-1.81 6.78z" class="P"/><use xlink:href="#J" class="B"/><use xlink:href="#J" opacity=".75" class="D"/><path d="M167.86 154.81c-1.71.71-2.09 1.92-1.82 4.45.17 1.49 0 4.3-1.56 5.56a3.9 3.9 0 0 0 2-1.11c.7-.86.91-1 1.38-.56a2.72 2.72 0 0 0 1.18.55 2 2 0 0 0 0 2.34c.9 1.22 4.42.94 7.17-.8 0 0-4.55 1.87-5.77.48s1.1-3.47 2.9-4.14c0 0-4.42 1.48-5.25.06s1-2.71 3.55-3.62c0 0-3.68 1-4.43-.2-.85-1.47.2-2.46.65-3.01z" class="Q"/><path d="M121.15 179.65c-1.1-7.94-2.14-18.61-14.45-19.1l-15.88.75c-3.91 1-19.11 2.82-19.11 2.82l-.29 34.45s-1 24.83-.67 38.13c11.37 7.21 36.11 9.54 51.65-2.25.46-10.97-.17-46.94-1.25-54.8z" class="N"/><use xlink:href="#K" class="B"/><use xlink:href="#K" opacity=".3"/><path d="M99 123.7l-7.85-1.15a.84.84 0 0 0-.68.09.81.81 0 0 0-.23.39c-1.71 5-1.67 10.43-3 15.54-.12.46-.41 1.25-1 1.32-1 .12-1.7-.78-2.13-1.57l-1-1.75a4.59 4.59 0 0 0-.72-.9c-1.22-1.13-4.84-2.51-6.52 1.34s1.91 9.07 4.83 9.89c5 1.4 5.67-1.82 5.67-1.82l1 17.95c4.44 4.65 19.08 3 16.18-1l-.19-5.47a31.42 31.42 0 0 0 6.72.13c3.65-.69 5.86-3.65 6.84-7.65 1.58-6.42 2.09-11.59.17-24.06a15.56 15.56 0 0 0-.9-3.36c-5.13 2.82-11.37 2.77-17.19 2.08z" class="P"/><path d="M103.35,156.56s-8.23-1.38-11.14-2.81A9.38,9.38,0,0,1,88.14,150a12.83,12.83,0,0,0,2.39,4.54c2.18,2.61,12.89,4.23,12.89,4.23Z" class="Q"/><path d="M100.87 136.27a1.53 1.53 0 1 1-1.58-1.54 1.57 1.57 0 0 1 1.58 1.54zM99.73 129l-3.68 1.59a2.1 2.1 0 0 1 1.08-2.7 2 2 0 0 1 2.6 1.11z" class="E"/><path d="M100.87 146.66l4.67 1.58a2.43 2.43 0 0 1-3.09 1.63 2.57 2.57 0 0 1-1.58-3.21z" class="Q"/><path d="M116.79 130.47l-3.67-1.4a1.9 1.9 0 0 1 2.49-1.11 2 2 0 0 1 1.18 2.51zm-24.57 1.32l-12.83 2.68a4.7 4.7 0 0 1 3.71 1.88l9.07-1.73zm23.05 4.52a1.56 1.56 0 0 1-1.48 1.64 1.58 1.58 0 0 1-1.59-1.55 1.54 1.54 0 1 1 3.07-.09z" class="E"/><path d="M121.82 131.23l-.83-.09c-2.71-.25-6.26-.27-8.41.43-2.69.88-3.65 1.83-5.14 1.86s-2.57-.89-5.41-1.66c-2.27-.62-6.06-.46-9-.11l-.91.12a1.51 1.51 0 0 0-1 1.53 3.26 3.26 0 0 0 .83 1.75 2.36 2.36 0 0 1 .28.71c.28 1.22.43 3.56 1 4.85a6 6 0 0 0 1.11 1.73 4.63 4.63 0 0 0 .58.5l.33.23a5.43 5.43 0 0 0 1 .47h.17l.27.08.28.06a5.81 5.81 0 0 0 .88.13h.38.48a6.36 6.36 0 0 0 6.21-3.73c1-1.86.76-4.47 2.46-4.5h.16.15c1.25.28 1.05 2.67 1.81 4.38a6.62 6.62 0 0 0 1.17 1.86 3.83 3.83 0 0 0 .28.29l.15.13.16.13.15.11.15.11.13.08.08.05a5.05 5.05 0 0 0 1.46.57h.14a7.08 7.08 0 0 0 1.79.15 5.38 5.38 0 0 0 5.26-3.47 32.17 32.17 0 0 0 1.15-4.89 1.52 1.52 0 0 1 .32-.65 3.4 3.4 0 0 0 .81-1.81c.08-.63-.41-1.35-.88-1.4zM104 138.45a5.69 5.69 0 0 1-1.32 2.59h0a5.27 5.27 0 0 1-4 1.54 4.3 4.3 0 0 1-3.83-1.8l-.12-.18-.11-.18-.09-.18-.07-.15-.06-.12v-.11l-.07-.18h0a4.25 4.25 0 0 1-.19-.53h0l-.14-.35c0-.19-.09-.36-.12-.52a.44.44 0 0 0 0-.1v-.09c-.26-1.29-.55-3.82.09-4.4s2.34-1.21 5.07-1h.3a10.83 10.83 0 0 1 1.25.2l.48.11a11.51 11.51 0 0 1 1.21.38l.37.15.41.19a.2.2 0 0 0 .08 0l.14.09a2.37 2.37 0 0 1 .81.66c.46.86.26 2.53-.09 3.98zm16-.85c-.23 1-.73 3.2-2.67 4.18a4.72 4.72 0 0 1-2 .5 4.3 4.3 0 0 1-4.07-1.86h0l-.07-.12-.08-.13v-.08a1.24 1.24 0 0 1-.1-.2l-.11-.23v-.12-.06-.1-.08a7.51 7.51 0 0 1-.25-.95c-.25-1.43-.37-3.1.16-3.9s2.57-1.71 4.53-2a9.88 9.88 0 0 1 1.26-.12h.9.21.34l.63.1h.15 0 .1l.15.05h.18l.3.12h0a2.15 2.15 0 0 1 .67.43c.47.74.09 3.28-.23 4.57z" class="G"/><path d="M106.93 135.76l.26 9.7 5.42-1.56-5-8.22a1.42 1.42 0 0 0-.68.08z" class="Q"/><use xlink:href="#L" class="B"/><use xlink:href="#L" class="K"/><use xlink:href="#L" class="D L"/><use xlink:href="#M" class="B"/><use xlink:href="#M" class="D L"/><path d="M92.9 176.16c-.73-3.45-1.12-9.84-1.72-11.13s-3.91-3.85-4-5.58l-.06-1.12a5.52 5.52 0 0 0-2.77 1.43c-1 .92-4.11 3.06-4.11 3.06a14 14 0 0 0 2.31 5.92c1.81 2.62 4.35 4.33 4.75 3.68s.32-1.63 1-3.16c.84-1.91 1-2.71 1.92-.83.66 1.51 2.68 7.73 2.68 7.73zm18.77-1.87c.9 2.9-1.31-10-2.84-12.33s-5.47-3.17-5.47-3.17l.17 2.79a4.22 4.22 0 0 1 2.51 1.75 49.73 49.73 0 0 1 5.63 10.96zM78.3 186.26l13.23-1.12.4 10.6c0 1.38-2.2 3.66-3.84 5.17a3.45 3.45 0 0 1-3.89.54c-2-1-4.6-2.6-4.85-4.21-.35-2.6-1.05-10.98-1.05-10.98zm39.07-2.67h5.71s.7 6.82.7 10.5c0 2.65-.24 4.32-.72 4.32-1 0-4.39-2.3-4.73-4.93l-.96-9.89z" class="H"/><path d="M93.3 178.91a233.35 233.35 0 0 0-25.33 4l.08.93a234.78 234.78 0 0 1 25.36-4l-.11-.93zm28.99-.21l-9.36-.78.22.94 9.25.79-.11-.95z" class="B"/><path d="M71.71 164.12c-7.37.6-11.49 4.43-13.8 12.47-2.49 8.61-9.44 32.8-11 41.43-1 5.3-2.51 8.66 2 12.15 5.76 4.47 22.63 16.86 32.81 22.19s26.26 5.43 26.26 5.43L96.76 251l-3-3.94-28.82-26.22 9-31.07s5.94-19.25-2.23-25.65z" class="P"/><use xlink:href="#N" class="B"/><use xlink:href="#N" opacity=".75" class="D"/><use xlink:href="#O" class="B"/><use xlink:href="#O" opacity=".25"/><use xlink:href="#P" class="B"/><use xlink:href="#P" opacity=".15"/><path d="M117.57 258.14l-16.32-9.9 48.48-26.58 16.42 9.86-48.58 26.62z" class="H"/><path d="M109.55 231.71l.3.18 8 4.85 14.6-8 .3-.16-8.3-5.04-14.9 8.17z" class="G"/><path d="M109.85 231.89l8 4.85 14.6-8-8.01-4.86-14.59 8.01z" class="H"/><use xlink:href="#Q" class="B"/><use xlink:href="#Q" opacity=".03" class="D"/><use xlink:href="#Q" opacity=".4"/><use xlink:href="#R" class="B"/><use xlink:href="#R" opacity=".3"/><use xlink:href="#S" class="B"/><use xlink:href="#S" class="K"/><path d="M125.54 224.14l-.81-.5a2.6 2.6 0 0 0-.51 1.09l-6.9 36.27.34.21.48.25 6.86-36.22a2.59 2.59 0 0 1 .54-1.1z" class="K"/><path d="M147.82 231.09c.42-2.24 2.81-5.18 5.33-6.56s4.22-.68 3.79 1.56-2.81 5.18-5.33 6.56-4.22.68-3.79-1.56z" class="H"/><path d="M84.91 239c3 2.58 7.5.5 11.37 1s7.18 1.41 10.28 1.32 4.64.54 2.47 3-8.42 1.06-10.1 1.81a3.63 3.63 0 0 0-.78 5.74c1.82 2.12-10.39-2-12-4.49s-3.46-8.05-1.24-8.38z" class="P"/><path d="M451.53 197.69a.61.61 0 0 1-.21-.8l.27-.53a3.1 3.1 0 0 0-.9-4l-.48-.36a.61.61 0 0 1 .65-1l.53.27h0a3.1 3.1 0 0 0 4-.9l.36-.48a.61.61 0 0 1 .82-.15h0a.61.61 0 0 1 .22.8l-.28.53a3.1 3.1 0 0 0 .9 4l.48.36a.61.61 0 0 1-.65 1l-.53-.27a3.1 3.1 0 0 0-4 .9l-.36.48a.61.61 0 0 1-.82.15zm1.16-4.82a4.28 4.28 0 0 1 .5 2.19 4.28 4.28 0 0 1 2.19-.5 4.38 4.38 0 0 1-.5-2.19 4.28 4.28 0 0 1-2.19.5zm16.08 4.37a3.94 3.94 0 1 1 5.43-1.24 4 4 0 0 1-5.43 1.24zm3.54-5.64a2.72 2.72 0 1 0 .85 3.74 2.72 2.72 0 0 0-.85-3.74zm-6.55 16.57a.62.62 0 0 1-.2-.85l1.1-1.73a.6.6 0 0 1 .84-.19.61.61 0 0 1 .2.84l-1.1 1.76a.6.6 0 0 1-.84.17zm-1.69.39l-1.74-1.1a.61.61 0 0 1 .65-1l1.74 1.1a.61.61 0 0 1-.65 1zm-.78 3.52a.61.61 0 0 1-.19-.84l1.09-1.74a.61.61 0 0 1 .85-.19.6.6 0 0 1 .19.84l-1.09 1.74a.61.61 0 0 1-.85.19zM468 211l-1.74-1.09a.63.63 0 0 1-.19-.85.61.61 0 0 1 .85-.19l1.73 1.09a.62.62 0 0 1 .2.85.63.63 0 0 1-.85.19zm-434.81-7.89a.6.6 0 0 1-.63.54h-.6a3.1 3.1 0 0 0-3.2 2.52l-.11.58a.62.62 0 0 1-1.22-.14v-.6h0a3.1 3.1 0 0 0-2.52-3.2l-.58-.12a.61.61 0 0 1-.49-.67h0a.61.61 0 0 1 .64-.54h.59a3.1 3.1 0 0 0 3.2-2.52l.12-.58a.61.61 0 0 1 1.21.14v.6a3.1 3.1 0 0 0 2.52 3.2l.58.12a.6.6 0 0 1 .49.67zm-4.85 1a4.32 4.32 0 0 1 1.77-1.4 4.25 4.25 0 0 1-1.39-1.71 4.32 4.32 0 0 1-1.77 1.4 4.25 4.25 0 0 1 1.39 1.74zm-2.95-16.37a3.94 3.94 0 1 1-3.39-4.38 3.93 3.93 0 0 1 3.39 4.38zm-6.6-.79a2.71 2.71 0 1 0 3-2.37 2.7 2.7 0 0 0-3 2.42zm17.77-1.18a.61.61 0 0 1-.68.54l-2-.25a.615.615 0 0 1 .15-1.22l2 .25a.61.61 0 0 1 .53.68zm1.07 1.36l-.24 2a.615.615 0 1 1-1.22-.15l.24-2a.62.62 0 0 1 .69-.54.61.61 0 0 1 .53.69zm3.52-.81a.61.61 0 0 1-.68.53l-2-.24a.615.615 0 0 1 .15-1.22l2 .24a.62.62 0 0 1 .53.69zm-2.97-3.78l-.24 2a.615.615 0 0 1-1.22-.15l.24-2a.615.615 0 0 1 1.22.15zm391.75-93.76a.63.63 0 0 1-.73-.42l-.17-.57a3.13 3.13 0 0 0-3.46-2.16l-.59.09a.61.61 0 0 1-.27-1.19l.57-.18h0a3.12 3.12 0 0 0 2.16-3.45l-.09-.59a.611.611 0 0 1 1.19-.28l.18.57a3.11 3.11 0 0 0 3.45 2.16l.59-.09a.611.611 0 0 1 .28 1.19l-.57.18a3.11 3.11 0 0 0-2.16 3.46l.09.58a.63.63 0 0 1-.47.7zm-2.61-4.23a4.41 4.41 0 0 1 1.91 1.2 4.3 4.3 0 0 1 1.19-1.91 4.32 4.32 0 0 1-1.91-1.2 4.24 4.24 0 0 1-1.19 1.91zm-1.5 19.45a3.94 3.94 0 1 1 3-4.73 3.94 3.94 0 0 1-3 4.73zm-1.49-6.48a2.71 2.71 0 1 0 3.25 2 2.72 2.72 0 0 0-3.25-2.05zm-14.26-7.37a.62.62 0 0 1-.74-.46l-.46-2a.62.62 0 1 1 1.2-.28l.46 2a.62.62 0 0 1-.46.74zm-.92 1.47l-2 .46a.62.62 0 1 1-.28-1.2l2-.46a.62.62 0 0 1 .28 1.2zm1.96 3.03a.62.62 0 0 1-.74-.46l-.46-2a.6.6 0 0 1 .46-.73.61.61 0 0 1 .74.46l.46 2a.61.61 0 0 1-.46.73zm2.54-4.07l-2 .46a.62.62 0 0 1-.74-.46.62.62 0 0 1 .46-.74l2-.46a.62.62 0 0 1 .74.46.62.62 0 0 1-.46.74zM69.3 85.64h0a.63.63 0 0 1-.84 0l-.46-.42h0a3.1 3.1 0 0 0-4-.22l-.48.35a.61.61 0 0 1-.83-.08.61.61 0 0 1 0-.83l.42-.43a3.12 3.12 0 0 0 .25-4.07l-.36-.5a.62.62 0 0 1 .08-.83.59.59 0 0 1 .83 0l.43.41a3.11 3.11 0 0 0 4.07.26l.47-.36a.61.61 0 0 1 .83.09.59.59 0 0 1 0 .83l-.41.43a3.09 3.09 0 0 0-.3 4.08l.36.48a.6.6 0 0 1-.06.81zM65 83.19a4.2 4.2 0 0 1 2.25.14 4.4 4.4 0 0 1 .14-2.25 4.41 4.41 0 0 1-2.25-.14 4.2 4.2 0 0 1-.14 2.25zm24.35 10.28a3.9 3.9 0 0 1-2.18 1 3.95 3.95 0 1 1 2.18-1zm-4.58-4.82a2.35 2.35 0 0 0-.3.33 2.73 2.73 0 0 0 .52 3.8 2.71 2.71 0 1 0 1.28-4.85 2.65 2.65 0 0 0-1.5.72zm-16.6 15.43h0l-1.51 1.39a.62.62 0 1 1-.83-.91l1.51-1.39a.6.6 0 0 1 .86 0 .61.61 0 0 1-.03.91zm3.11 1.59h0a.62.62 0 0 1-.87 0L69 104.13a.62.62 0 0 1 0-.87.61.61 0 0 1 .87 0l1.38 1.51a.6.6 0 0 1 .03.9zm.29-4.67h0l-1.51 1.39a.62.62 0 0 1-.87 0 .64.64 0 0 1 0-.87l1.51-1.38a.612.612 0 1 1 .84.89zm-3.41 1.26h0a.62.62 0 0 1-.87 0l-1.39-1.51a.62.62 0 1 1 .91-.83l1.39 1.51a.62.62 0 0 1-.04.83z" class="B"/><defs ><path id="B" d="M438.4 349.21l-11.85-6.27s-.9-18.12.51-32.47c2-20.18 17-43.61 32.53-37.9s-7.13 26.24-12.18 43.36-9.01 33.28-9.01 33.28z"/><path id="C" d="M444.48 352.79l-6.16-3.56a68.92 68.92 0 0 1 3.82-29.91c5.71-15.49 20.46-23.94 27.25-21.63 8.29 2.82 8.34 10.75 5.32 16-3.55 6.12-25.71 21.68-30.23 39.1z"/><path id="D" d="M65.18,340.82l7.7-4.4s3.69-20.36.93-37.86c-3.89-24.61-20.64-33.1-26.72-30.65s-7.52,9.73,3.47,23.95C57,300.25,65.38,318,65.18,340.82Z"/><path id="E" d="M260.3,36.86a14,14,0,0,0-14.12,14c-.06,11.14,9.12,13,9.09,17.53a2.4,2.4,0,0,0,1.4,2,7.58,7.58,0,0,0,6.85,0,2.4,2.4,0,0,0,1.43-2h0c0-4.49,9.23-6.29,9.29-17.42A14,14,0,0,0,260.3,36.86Z"/><path id="F" d="M192.69 77.43l-11.29 36.71-.77-.45v.9l-5.12-3-11.17-23.41a2 2 0 0 1 0-1.43 71.33 71.33 0 0 0 5.62-21.44 1.69 1.69 0 0 1 .75-1.18l10.44-6a1.5 1.5 0 0 1 1.37 0l3.75 2.17a1.71 1.71 0 0 1 .76 1.17c.7 6.54 2.7 11.38 5.41 14.64a1.6 1.6 0 0 1 .25 1.32z"/><path id="G" d="M399.77,155.41l9.58.76c-2.17,12.84,6.23,25.08,6.23,25.08l-5.7,17.58c.15,2.33,6.91,10.43,9.93,20.78-7,9.42-35.57,12.73-46.83,4.46.06-5.78-.18-13.8.16-17.17l-1.91-16.5c-14.11-11.58,2.92-29.22,9.19-34.82h5.87Z"/><path id="H" d="M336.79 280.66l2.23-2.84 2.68-3.44 109.85-140.25c-.09 2.88 2.73 7.4 7.11 11.07 5.11 4.27 11.29 6.78 14.57 5.65L364.08 290.19l-5.14 6.56c3.06-4.43-18.94-20.49-22.15-16.09z"/><path id="I" d="M343.31,272.34c-3.48,4.18,17.59,21.68,21.06,17.51l5-6.38c-3.48,4.18-24.53-13.32-21.06-17.5Z"/><path id="J" d="M109.77,160.61c9.56.46,11.67.6,17.78,6.14s16.55,19,16.55,19l8.18-11a10.76,10.76,0,0,0,4.49,4.94,15.64,15.64,0,0,0,6.84,1.7s-4.4,10-8.62,17.06-7.55,9.65-13.77,5.87-27-24-27-24Z"/><path id="K" d="M122.22 115.34a3.35 3.35 0 0 0-1.88-3.21 5.87 5.87 0 0 0-3.88-.38 4.67 4.67 0 0 0-2.88-4.65 5.4 5.4 0 0 0-5.9.9c.36-1.4-.93-2.8-2.34-3.08a7.56 7.56 0 0 0-4.2.77l-6 2.41c-3.57 1.26-7.38 2-10.6 4a6.5 6.5 0 0 0-2 1.76 5.66 5.66 0 0 0-.85 3.58 7 7 0 0 0 .19 1.22A3.3 3.3 0 0 0 81 118a3 3 0 0 0-4.13 1.52l3.83 1.9a5.5 5.5 0 0 0-2.84 1.65c-1.92 2.09-.6 8.42 2.07 14.56 0 0 2.79 11.26 3.82 13.1a5.09 5.09 0 0 0 3 2.29l-.37-6.87 28.62-2.53-2.86-2a15.74 15.74 0 0 0 9-14.73 15.52 15.52 0 0 0-2-7.24c1.48-1.19 2.86-2.72 3.08-4.31z"/><path id="L" d="M123.08 189.53c-.42-10.06-1.21-18.94-5-23.66s-5.76-5.62-14.64-5.48v.6a3.31 3.31 0 0 1 2.51 1.47 52.18 52.18 0 0 1 6.83 15.17c2.58 9.78 3 31.6 3.15 43.36v21.23s6-1.39 7.79-4.36c.07 0-.21-38.27-.64-48.33z"/><path id="M" d="M92.38 173.52c-1.26-5.36-3.88-8.9-5-11.63L71.74 164c-4.09 1.89-4.92 5.88-4.52 10.37l2.91 33-.81 31.2c6.34 9.86 25.26 8 25.26 8s.54-14-.07-41.16c-.34-15.23-.51-25.06-2.13-31.89z"/><path id="N" d="M72.77 163.83c-5 .2-10.79-.05-14.85 10.23s-9.13 31.21-11.16 39.83-3.18 12.69 0 15.48 16.13 11.08 16.13 11.08 4.46-9.77 9.64-12.71l-7.14-7.19 9.33-31.46s6.05-16.7-1.95-25.26z"/><path id="O" d="M86.58 242.08v1a2.94 2.94 0 0 0 1.42 2.64l27.83 16.84a2.88 2.88 0 0 0 1.47.43 3 3 0 0 0 1.49-.36l52.36-28.71a3 3 0 0 0 1.54-2.53v-.72L117.32 261z"/><path id="P" d="M172.67 230.67l-30.26-18.38a1.8 1.8 0 0 0-1.77 0l-53.86 29.5a.39.39 0 0 0 0 .68L117.32 261z"/><path id="Q" d="M117.32 261v2a3 3 0 0 0 1.49-.36l52.36-28.71a3 3 0 0 0 1.54-2.53v-.72z"/><path id="R" d="M118.14,261.48a3.48,3.48,0,0,0,3-.17l52.14-28.59a3.5,3.5,0,0,0,1.75-2.41l6.38-33.48a2.76,2.76,0,0,0,.06-.57,3.53,3.53,0,0,0-1-2.52l-54.18,29.72a2.61,2.61,0,0,0-1.3,1.78Z"/><path id="S" d="M117.32 261l.34.21.48.25 6.86-36.22a2.61 2.61 0 0 1 1.3-1.78l54.18-29.72a3.91 3.91 0 0 0-.7-.56L125.52 223a2.61 2.61 0 0 0-1.3 1.78z"/></defs></svg>