<svg xmlns="http://www.w3.org/2000/svg" xmlns:xlink="http://www.w3.org/1999/xlink" viewBox="0 0 500 500" xmlns:v="https://vecta.io/nano"><style><![CDATA[.B{fill:#207178}.C{fill:#263238}.D{fill:#fff}.E{fill:#f5f5f5}.F{opacity:.8}.G{fill:#ffbe9d}.H{fill:#e0e0e0}.I{fill:#455a64}]]></style><path d="M332.18 92.08h65.75s-5.81-10.58-22.74-9c-16.16 1.47-17-5.21-25.2-6s-15.07 5.41-17.81 15z" class="H"/><path d="M160.32 265.9s-6.59 3.56 3 17.32 15.83 20.36 15.83 20.36 1.82 3.25-1 4.18-9.33.8-10.13 4.51c-.83 3.86 2.32 7 8.14 9.25s18.4 7.78 19.53 8.28 2.37 1.95.55 2.89-15.93 4.41-13.89 11 19.32 10.32 21.2 10.76 2.41 1.14 2.4 2.14-4.86 1.72-8.84 2.87-8.38 3.19-6.88 6.9 12.36 10.44 36.34 9.49l11.08-1.16 4.72-10.15c8.77-22.33 6-34.8 3-37.44s-6.38.86-8.77 4.24-4.67 7.72-5.62 7.4-1.43-1.05-1.23-3 2.37-19.46-3.19-23.56-13.48 8.08-15 9.49-2.45-.25-2.55-1.47-1.15-14.91-1.4-21.17-2.14-10.24-6.05-10.72-5.78 5.72-7.59 8.08-4.28-.43-4.28-.43-4.19-8.06-14-21.64-15.5-8.32-15.5-8.32" fill="#ebebeb"/><g class="H"><path d="M238.58 377.22l-30.45-43.39-27.7-39.35-8.46-11.87-2.3-3.24-.59-.84-.19-.3a4.36 4.36 0 0 0 .22.28l.62.82 2.35 3.2 8.55 11.81 27.78 39.29 30.37 43.44"/><path d="M177.12 312.83a4.23 4.23 0 0 1 .8.11l2.15.44 7 1.72 7 1.87 2.12.56a3.31 3.31 0 0 1 .77.23 3.63 3.63 0 0 1-.8-.1l-2.15-.45-7-1.77-7-1.82-2.12-.55a3 3 0 0 1-.77-.24zm20.5 4.17c-.1 0 .93-5.2 2.29-11.56s2.55-11.51 2.64-11.49-.93 5.19-2.3 11.56L197.62 317zm15.5 24.33a3.35 3.35 0 0 1 .35-.74l1.06-2 3.37-6.56 3.08-6.69.9-2.05a2.83 2.83 0 0 1 .37-.74 4.48 4.48 0 0 1-.24.79l-.8 2.09-3 6.76-3.47 6.52-1.16 1.91a4.44 4.44 0 0 1-.46.71zm-19.36.36a2.52 2.52 0 0 1 .75-.09l2.07-.12 6.81-.27 6.82-.16h2.07a4.39 4.39 0 0 1 .76 0 2.82 2.82 0 0 1-.76.1l-2.06.12-6.82.26-6.82.16h-2.06a3.26 3.26 0 0 1-.76 0zM204.71 365a4.59 4.59 0 0 1 1-.11l2.65-.16 8.73-.41 8.73-.3 2.65-.06a6.28 6.28 0 0 1 1 0 6.15 6.15 0 0 1-1 .11l-2.65.16-8.73.41-8.73.3-2.65.06a6.09 6.09 0 0 1-1 0zm24.1-1.2a6.17 6.17 0 0 1 .42-.95l1.26-2.55 4-8.45 3.72-8.59 1.09-2.62a6.91 6.91 0 0 1 .43-.94 5.18 5.18 0 0 1-.31 1l-1 2.66-3.63 8.64-4.11 8.42-1.36 2.5a6.8 6.8 0 0 1-.51.88z"/></g><path d="M321.8 216.22c-11.9-13.35-10.76-32.62-6.25-49.11.75-2.76 1.14-5.76 3-7.88s5.38-3.06 7.59-1.3c1.83 1.46 2.16 4.07 2.84 6.33a16.69 16.69 0 0 0 5 7.76c1.55 1.34 3.6 2.41 5.58 1.87 2.71-.76 3.77-4 4.41-6.77q1.77-7.73 3.56-15.46a26.84 26.84 0 0 1 2.77-8c1.48-2.42 4-4.4 6.76-4.51s5.69 2.17 5.6 5a26.31 26.31 0 0 1-.73 3.46 3 3 0 0 0 1.05 3.13c1 .59 2.31.07 3.33-.55 3.51-2.11 6.3-5.24 8.95-8.39s5.27-6.38 8.58-8.81 7.45-4 11.46-3.28 7.64 4.16 7.72 8.27-3.12 7.55-6.34 10.11a63.37 63.37 0 0 1-15.68 9.19 5.18 5.18 0 0 0-2.69 1.8c-1 1.7.27 3.94 1.94 5 1.9 1.17 4.18 1.49 6.28 2.25s4.2 2.27 4.53 4.49c.46 3.09-2.6 5.49-5.38 6.88a54.43 54.43 0 0 1-17.74 5.3c-2.21.26-4.5.41-6.48 1.44s-3.55 3.29-3 5.47 2.92 3.41 5.14 3.51 4.4-.59 6.61-.87c4.13-.54 9 .88 10.62 4.74a9 9 0 0 1-.9 8 20.64 20.64 0 0 1-5.8 5.83 54.6 54.6 0 0 1-26.44 10.56c-9.52 1-17.88-.14-25.87-5.41" class="E"/><g class="H"><path d="M324.22 217.82c2.16-6.44-.1-3.21 4.35-11a254.3 254.3 0 0 1 16.13-24.32q2.3-3.12 4.55-6.15c1.5-2 3-4 4.56-5.89a128.52 128.52 0 0 1 9.67-10.2c3.23-3.1 6.41-5.92 9.41-8.54s5.84-5 8.52-7.05a101.56 101.56 0 0 1 13.37-8.77c1.65-.91 3-1.57 3.85-2l1-.49.35-.15a1.93 1.93 0 0 1-.33.2l-1 .54-3.8 2.09a105.85 105.85 0 0 0-13.22 8.91c-2.66 2.07-5.48 4.46-8.46 7.08s-6.14 5.46-9.36 8.56a131.24 131.24 0 0 0-9.61 10.18c-1.56 1.86-3 3.85-4.53 5.87l-4.55 6.15A261.69 261.69 0 0 0 329 207.05c-4.46 7.77-2.22 4.49-4.42 10.89"/><path d="M354 170.48a6.27 6.27 0 0 1 0-1.24c0-.8.13-2 .26-3.37.26-2.85.76-6.76 1.32-11.07s1-8.22 1.21-11.06l.24-3.36a5.41 5.41 0 0 1 .13-1.23 6.09 6.09 0 0 1 .07 1.24c0 .79 0 2-.07 3.37-.12 2.86-.5 6.79-1.07 11.11l-1.46 11-.42 3.35a5.77 5.77 0 0 1-.21 1.26z"/><path d="M391 172.25a7.07 7.07 0 0 1-1.45-.16l-3.95-.54c-3.33-.42-8-.83-13.08-1.07s-9.77-.24-13.14-.15c-1.68 0-3 .1-4 .14a8.78 8.78 0 0 1-1.47 0 7.94 7.94 0 0 1 1.46-.22c.94-.1 2.3-.22 4-.3 3.37-.19 8-.24 13.18 0a131 131 0 0 1 13.11 1.23c1.66.25 3 .51 3.93.7a7.59 7.59 0 0 1 1.41.37zm-61.84 34.01a1.56 1.56 0 0 1-.14-.49l-.31-1.43-.95-5.28c-.75-4.47-1.59-10.68-2.43-17.55l-2.27-17.56-.79-5.3-.21-1.45a2.77 2.77 0 0 1 0-.51 1.88 1.88 0 0 1 .15.49l.3 1.43c.26 1.24.58 3 .95 5.28.75 4.47 1.59 10.68 2.43 17.55l2.27 17.56.79 5.31.21 1.44a2 2 0 0 1 0 .51z"/><path d="M379.93 202.23a1.68 1.68 0 0 1-.51.08l-1.48.14-5.44.44-17.93 1.62-18 1.47-5.45.27h-1.48a1.76 1.76 0 0 1-.52 0 2.05 2.05 0 0 1 .51-.08l1.48-.14 5.44-.44 17.93-1.62 18-1.46 5.46-.28h1.48a2.09 2.09 0 0 1 .51 0zM419.31 304a2.15 2.15 0 0 1-.16.47l-.55 1.33-2.13 5-7.71 17.83-.05.1h-.11l-24.22 4-8.12 1.33-.37.06.09-.36 5.34-21.05.11.23-14.23-6.36-3.93-1.79-1-.48a1.79 1.79 0 0 1-.34-.19l.36.13 1.05.43 4 1.69 14.3 6.2.16.07v.16l-5.25 21.08-.28-.3 8.12-1.34 24.23-3.94-.17.13 7.87-17.75 2.25-5 .6-1.31a3.31 3.31 0 0 1 .14-.37z"/><path d="M379.1 331.25l-.67 1.74 1.06 1.54-1.86-.09-1.13 1.48-.49-1.8-1.76-.62 1.56-1.02.05-1.86 1.45 1.17 1.79-.54zM362.47 303l-.33.87.52.76-.92-.05-.56.74-.25-.89-.87-.31.77-.51.03-.93.72.58.89-.26zm46.97 24.56l-.33.87.52.76-.92-.04-.56.74-.25-.9-.87-.3.77-.51.02-.93.73.58.89-.27zm-27.11-15.59l-.33.86.53.77-.93-.05-.56.74-.24-.9-.88-.3.78-.51.02-.93.72.58.89-.26zm38.11-8.84l-.33.87.53.76-.93-.04-.56.74-.24-.9-.88-.31.78-.5.02-.93.72.58.89-.27zm-303.1 72.78h52.36s-4.63-8.43-18.11-7.2c-12.87 1.17-13.52-4.15-20.07-4.8s-11.99 4.36-14.18 12z"/></g><path d="M127.74 169.79h52.35s-4.63-8.42-18.11-7.2c-12.86 1.18-13.52-4.14-20.06-4.79s-12 4.36-14.18 11.99zm265.88 36.41h43s-3.8-6.92-14.87-5.92c-10.58 1-11.12-3.4-16.49-3.94s-9.85 3.59-11.64 9.86z" class="E"/><use xlink:href="#B" class="B"/><use xlink:href="#B" class="D F"/><use xlink:href="#C" class="B"/><use xlink:href="#C" class="D F"/><path d="M231.88,37.52a5.62,5.62,0,1,0,.92-.29" class="B"/><path d="M231.88,37.52a5.62,5.62,0,1,0,.92-.29" class="D F"/><use xlink:href="#D" class="B"/><use xlink:href="#D" class="D F"/><use xlink:href="#E" class="B"/><use xlink:href="#E" class="D F"/><path d="M164.71 62.42H177a0 0 0 0 1 0 0v25.33a5.41 5.41 0 0 1-5.41 5.41h-1.46a5.41 5.41 0 0 1-5.41-5.41V62.42a0 0 0 0 1-.01 0z" class="B"/><path d="M164.71 62.42l6.14-11.27L177 62.42h-12.29z" class="G"/><path d="M168.42,55.61s1.87,2.81,4.87,0l-2.43-4.46Z" class="B"/><path d="M177.17 86.52a39 39 0 0 1-6.25.25 38.85 38.85 0 0 1-6.24-.25 38.85 38.85 0 0 1 6.24-.25 39 39 0 0 1 6.25.25zm-.17-1.89a37.41 37.41 0 0 1-6.12.25 37.41 37.41 0 0 1-6.12-.25 39.6 39.6 0 0 1 6.12-.24 39.6 39.6 0 0 1 6.12.24z" class="C"/><path d="M168.32 62.6c.13 0 .25 4.9.25 10.95s-.12 11-.25 11-.25-4.91-.25-11 .11-10.95.25-10.95zm4.97 0c.14 0 .25 4.9.25 10.95s-.11 11-.25 11-.25-4.91-.25-11 .11-10.95.25-10.95z" fill="#fafafa"/><path d="M271.49 408.72l55.83 2.39 1.35 3.25-36.6 59.4-66.06-1.93 45.48-63.11z" class="C"/><path d="M223.51 466.04l66.45 3.8 34.72-53.87-24.38 1.98-61.69 21.72-15.1 26.37z" class="H"/><path d="M214.17 462.05l61 1c-2.53-7.81 3.44-18.8 11.65-22.5 5.44-2.45 15.67-5.63 20.95-8.34 10-5.15 19.1-14.89 18.31-23.26l-25.08-.83-32-1.24c-2.68 7.94-8.4 13.13-17.1 16.26-7.78 2.8-16.64 2.79-24.24 6-12.22 5.12-18.09 21.71-13.54 32.94" fill="#ebebeb"/><g class="C"><path d="M214.17 462.05s-.06-.13-.15-.4l-.42-1.17a14.21 14.21 0 0 1-.52-2 20.31 20.31 0 0 1-.42-2.78 28.56 28.56 0 0 1 .48-7.76 29 29 0 0 1 3.92-9.68 23.55 23.55 0 0 1 1.75-2.46l1-1.2 1.13-1.15a10.55 10.55 0 0 1 1.22-1.09l1.31-1.05a22.44 22.44 0 0 1 3-1.78c4.23-2.13 9.28-3 14.54-4 2.64-.48 5.36-1 8.08-1.73a37.79 37.79 0 0 0 8.05-3.24 26.58 26.58 0 0 0 3.75-2.46 22.52 22.52 0 0 0 3.33-3.15 24 24 0 0 0 4.64-8.18l.06-.17h.17l26.65 1 28.62.94 1.78.06h.22v.22a13.62 13.62 0 0 1-.8 5.64 21.44 21.44 0 0 1-1.12 2.6 25.14 25.14 0 0 1-1.46 2.4 37.13 37.13 0 0 1-7.56 8 44.85 44.85 0 0 1-9.13 5.63c-3.22 1.45-6.48 2.63-9.67 3.81s-6.35 2.3-9.34 3.6a18.66 18.66 0 0 0-4.11 2.5c-.65.46-1.19 1.05-1.78 1.56s-1.1 1.13-1.57 1.76a22.66 22.66 0 0 0-4.27 8 14.9 14.9 0 0 0-.15 8.54l.09.27h-.28l-44.39-.78-12.31-.25-3.22-.09h-1.11 1.11 3.23l12.31.14 44.38.62-.19.26a15.2 15.2 0 0 1 .13-8.78 22.85 22.85 0 0 1 4.33-8.18c.47-.64 1.06-1.19 1.59-1.79s1.16-1.13 1.82-1.61a18.48 18.48 0 0 1 4.2-2.55c3-1.32 6.18-2.45 9.37-3.63s6.44-2.37 9.63-3.81a43.86 43.86 0 0 0 9-5.58 36.53 36.53 0 0 0 7.46-7.88 26.92 26.92 0 0 0 1.45-2.32 21 21 0 0 0 1.09-2.53 13.21 13.21 0 0 0 .78-5.43l.24.22-1.79-.05-28.61-1-26.66-1 .23-.16a24.68 24.68 0 0 1-4.74 8.33 22.8 22.8 0 0 1-3.4 3.2 26 26 0 0 1-3.82 2.49 37.53 37.53 0 0 1-8.14 3.26c-2.75.75-5.48 1.25-8.12 1.72-5.26.94-10.29 1.82-14.46 3.9a21.76 21.76 0 0 0-2.93 1.74c-.46.32-.87.69-1.3 1a10.37 10.37 0 0 0-1.21 1.08l-1.16 1.15c-.36.38-.67.8-1 1.19a22.1 22.1 0 0 0-1.75 2.42 28.6 28.6 0 0 0-3.93 9.58 28.07 28.07 0 0 0-.55 7.7 19.33 19.33 0 0 0 .38 2.77 14.24 14.24 0 0 0 .48 2l.38 1.19c.09.28.16.38.16.38z"/><path d="M286.19 407.87s.08-.39.14-1.09a6.15 6.15 0 0 0-.48-2.88 5.91 5.91 0 0 0-2.88-3.1 6.6 6.6 0 0 0-8.86 3.4 7.39 7.39 0 0 0-.59 4.25 7.28 7.28 0 0 0 1 2.74l.63.91a2.88 2.88 0 0 1-.78-.8 6.69 6.69 0 0 1-1.23-2.79 7.51 7.51 0 0 1 .51-4.5 7 7 0 0 1 9.48-3.62 6.16 6.16 0 0 1 3 3.38 5.85 5.85 0 0 1 .34 3 4.29 4.29 0 0 1-.2.81c-.02.21-.06.29-.08.29z"/><path d="M295.76 407.87c-.05 0 .08-.39.14-1.09a6.28 6.28 0 0 0-.48-2.88 5.94 5.94 0 0 0-2.89-3.1 6.61 6.61 0 0 0-8.86 3.4 7.38 7.38 0 0 0-.58 4.25 7.12 7.12 0 0 0 1 2.74l.63.91a2.67 2.67 0 0 1-.79-.8 6.82 6.82 0 0 1-1.23-2.79 7.6 7.6 0 0 1 .52-4.5 7 7 0 0 1 9.47-3.62 6.16 6.16 0 0 1 3 3.38 6 6 0 0 1 .35 3 3.55 3.55 0 0 1-.21.81.71.71 0 0 1-.07.29z"/><path d="M303 408.37s.06-.4.08-1.1a6.23 6.23 0 0 0-.64-2.85 5.92 5.92 0 0 0-3.06-2.92 6.66 6.66 0 0 0-5.14.1 6.74 6.74 0 0 0-3.51 3.78 7.43 7.43 0 0 0-.35 4.28 7.17 7.17 0 0 0 1.2 2.68l.68.87a2.68 2.68 0 0 1-.83-.75 6.76 6.76 0 0 1-1.39-2.72 7.59 7.59 0 0 1 .26-4.52 7 7 0 0 1 9.26-4.15 6.16 6.16 0 0 1 3.19 3.2 5.86 5.86 0 0 1 .52 3 3.57 3.57 0 0 1-.16.82c-.03.19-.11.28-.11.28z"/><path d="M310.81 408.81v-1.1a6.12 6.12 0 0 0-.79-2.81 5.9 5.9 0 0 0-3.21-2.76 6.6 6.6 0 0 0-8.43 4.34 7.36 7.36 0 0 0-.12 4.29 7.27 7.27 0 0 0 1.34 2.62l.72.83a2.8 2.8 0 0 1-.87-.71 6.81 6.81 0 0 1-1.53-2.64 7.59 7.59 0 0 1 0-4.53 7.08 7.08 0 0 1 3.51-4.26 7 7 0 0 1 5.52-.37 6.2 6.2 0 0 1 3.36 3 5.9 5.9 0 0 1 .67 3 4.16 4.16 0 0 1-.11.82c-.01.19-.04.28-.06.28z"/><path d="M318.61 408.63v-1.1a6.13 6.13 0 0 0-.87-2.79 5.93 5.93 0 0 0-3.28-2.67 6.59 6.59 0 0 0-8.31 4.58 7.31 7.31 0 0 0 1.41 6.87l.75.8a2.55 2.55 0 0 1-.89-.67 6.92 6.92 0 0 1-1.6-2.6 7.57 7.57 0 0 1-.11-4.53 7.11 7.11 0 0 1 3.39-4.36 7 7 0 0 1 5.5-.52 6.22 6.22 0 0 1 3.45 2.92 5.93 5.93 0 0 1 .75 3 3.92 3.92 0 0 1-.09.83c-.05.14-.08.24-.1.24z"/><path d="M325.19 409.5v-1.1a6.11 6.11 0 0 0-.76-2.82 5.93 5.93 0 0 0-3.17-2.79 6.59 6.59 0 0 0-8.48 4.24 7.35 7.35 0 0 0 1.13 6.92l.72.84a2.73 2.73 0 0 1-.86-.72 6.67 6.67 0 0 1-1.5-2.66 7.55 7.55 0 0 1 .07-4.53 7.08 7.08 0 0 1 3.56-4.22 7 7 0 0 1 5.52-.3 6.13 6.13 0 0 1 3.32 3.06 5.87 5.87 0 0 1 .64 3 4 4 0 0 1-.12.82c-.02.17-.05.27-.07.26z"/></g><path d="M354,204.65a54.58,54.58,0,0,0-8.27.38,34.39,34.39,0,0,0-30,34.29,61.3,61.3,0,0,0,2.13,16.35c4.81,17.06,6.29,32.09,5.74,39.42l16.1,8.65s7.45-10.71,14.65-15.33,31.16-17,40.65-29.65c6.11-8.18,7.29-25-7.29-39.66A49.43,49.43,0,0,0,354,204.65Z" class="B"/><path d="M315.9 313.71l14.54 7.86-9.46 12.02-9.7-4.4 4.62-15.48z" class="I"/><path d="M316.61 314.2c-.13-.05 1.31-4.37 3.22-9.64s3.56-9.52 3.69-9.47-1.31 4.36-3.22 9.64-3.56 9.51-3.69 9.47zm12.92 6.8c-.12-.07 2.16-4.15 5.08-9.11S340 303 340.13 303s-2.16 4.15-5.09 9.11-5.4 8.94-5.51 8.89z" class="C"/><path d="M358.8 205.11c-.65 0-8.65 9.4-12.19 15.74-11.91 21.33-12.45 42.08-15.75 66.28-.47 3.46-2.19 10.91-2.16 10.74 1.76 1.38 7.68 4.13 7.68 4.13s5.59-6.74 7.81-10.13c8.88-13.57 18.53-24.16 26.14-38.49s14.93-27 7.89-41.66c0 0-12.22-7.02-19.42-6.61z" opacity=".4"/><path d="M395 260.9a2.68 2.68 0 0 1-.21-.46l-.56-1.35a24.17 24.17 0 0 0-2.81-4.73 24.6 24.6 0 0 0-6.17-5.76 23.62 23.62 0 0 0-10.13-3.75H375l-.06-.08a57.13 57.13 0 0 0-6.49-7.46 32.74 32.74 0 0 0-8.87-6.1 22.79 22.79 0 0 0-10.49-2 17.31 17.31 0 0 0-9.17 3.06l-.15.1-.13-.12a18 18 0 0 0-9.8-4.35 17.67 17.67 0 0 0-8.33 1.06 18.7 18.7 0 0 0-4.78 2.69l-1.12.94a2.52 2.52 0 0 1-.39.32 4.37 4.37 0 0 1 .34-.37 15.8 15.8 0 0 1 1.08-1 17.55 17.55 0 0 1 4.78-2.83 17.77 17.77 0 0 1 8.47-1.18 18.29 18.29 0 0 1 10.05 4.39h-.28a17.71 17.71 0 0 1 9.41-3.17 23.32 23.32 0 0 1 10.71 2 33 33 0 0 1 9 6.21 55.8 55.8 0 0 1 6.52 7.55l-.15-.09a23.63 23.63 0 0 1 10.28 3.88 24.69 24.69 0 0 1 6.19 5.91 22.74 22.74 0 0 1 2.72 4.84c.25.59.39 1.07.5 1.38a3.87 3.87 0 0 1 .16.47zm-29.94 21.25a10.38 10.38 0 0 0-1.39-3.49 9.5 9.5 0 0 0-3.09-3 8.65 8.65 0 0 0-5.33-1.26h-.2v-.2a14.23 14.23 0 0 0-8.61-10.86 14.36 14.36 0 0 0-6.25-.95 14.09 14.09 0 0 0-5.59 1.61l-.15.08-.12-.13a10.2 10.2 0 0 0-5.59-3 11.27 11.27 0 0 0-5 .16 11.73 11.73 0 0 0-4 2s.06-.09.21-.22l.68-.57a10.09 10.09 0 0 1 3-1.45 11.3 11.3 0 0 1 5.15-.26 10.44 10.44 0 0 1 5.85 3.09l-.27-.05a14.55 14.55 0 0 1 5.74-1.66 14.74 14.74 0 0 1 6.46 1 14.2 14.2 0 0 1 6.17 4.82 14.37 14.37 0 0 1 2.68 6.43l-.23-.18a9 9 0 0 1 5.55 1.39 9.64 9.64 0 0 1 3.12 3.13 8.38 8.38 0 0 1 1.06 2.64 6.65 6.65 0 0 1 .11.74 1.17 1.17 0 0 1 .04.19zm-37.43 43.21s-.16-.2-.53-.36a2.63 2.63 0 0 0-1.7.06 5.14 5.14 0 0 1-1.29.23 2 2 0 0 1-1.44-.63c-.77-.81-1.06-2-1.79-2.77a1.68 1.68 0 0 0-1.34-.57 8.37 8.37 0 0 0-1.52.31 3.41 3.41 0 0 1-1.52.08 2.91 2.91 0 0 1-2.15-2.23 1.16 1.16 0 0 1 0-.68s0 .24.17.64a2.94 2.94 0 0 0 1 1.39 2.3 2.3 0 0 0 1.05.47 3 3 0 0 0 1.33-.12 8 8 0 0 1 1.61-.34 2.14 2.14 0 0 1 1.72.71c.85 1 1.11 2.1 1.76 2.79a1.63 1.63 0 0 0 1.12.54 4.62 4.62 0 0 0 1.19-.17 2.62 2.62 0 0 1 1.87.12c.42.24.48.53.46.53zm1.67-2.36a61.46 61.46 0 0 1-7.09-3.5 64.91 64.91 0 0 1-6.87-3.94 64.09 64.09 0 0 1 7.1 3.5 65.34 65.34 0 0 1 6.86 3.94zm-2.89 3.69l-.55.26-.66.32a2.46 2.46 0 0 1-1 .13 4.16 4.16 0 0 1-2.4-.93 3.29 3.29 0 0 1-.91-1.25 4.55 4.55 0 0 0-.71-1.31 3.37 3.37 0 0 0-2.63-.76 6.06 6.06 0 0 1-2.53-.24 2.36 2.36 0 0 1-1.28-1.17c-.16-.39-.1-.64-.08-.63s.06.22.26.54a2.28 2.28 0 0 0 1.23.93 6 6 0 0 0 2.38.11 3.74 3.74 0 0 1 3 .88 5 5 0 0 1 .78 1.45 3 3 0 0 0 .77 1.11 4.06 4.06 0 0 0 2.13.92 3 3 0 0 0 1.56-.28c.41-.11.64-.11.64-.08z" class="C"/><use xlink:href="#F" class="B"/><use xlink:href="#F" opacity=".4"/><path d="M324.64 261.16l.83 2.59a8.2 8.2 0 0 1 .27 2.7 12.52 12.52 0 0 1-.57 3.32c-.41 1 .55 1.92 1.36 1.44s2-3.08 2-6.42 3.34.66 4.61 2.1 5.41 5.71 6.16 5.67c1.1-.06 1.24-1.25-.06-2.66s-4.91-5.9-4.12-6.54 7.15 6.79 7.15 6.79 1.1 1.81 2 1.11c1.7-1.27-5.65-8.66-6.37-9.34-.49-.48.34-1.2.85-.66s6.18 7.55 7.92 6.27c1.33-1-6-6.13-6.36-8.23s5.16 4.47 6.39 3.49c.47-.37.76-.71-3-4-1.8-1.62-8.66-6.42-8.66-6.42l-20.64-59.09-15.94 9.13zM201.77 149.4l-23.06-27.52h0a16.06 16.06 0 0 0-1.13-2.75 8.65 8.65 0 0 0-5.44-4.54c-1.46-.32-3.14-.16-4.29-1.12-.51-.43-.85-1-1.39-1.44s-1.43-.48-1.78.09a1.57 1.57 0 0 0 .1 1.38 12.83 12.83 0 0 0 4 5.16l-5.25 1.66s-4.87-5.29-7.37-5.28 2 4.73 2 4.73-4-3.7-5.24-2.66 1.94 3.79 1.94 3.79a5.3 5.3 0 0 0-3.25-.91c-1.13.19-2.1 1.52-1.49 2.49a2.6 2.6 0 0 0 1 .81l6.14 3.42a7.43 7.43 0 0 0 3.28 1.2c3.12.1 5.49-1.83 8.6-1.75 0 0 17.39 36.61 19.15 38.5s40 4.46 40 4.46l22.11-19.05z" class="G"/><path d="M271.05,348.83l23.55,10.25L282,388.45c-2.74-1.37-1.84-19-1.84-19l-15.36-5.95Z" class="B"/><path d="M282.77 359.84a1.31 1.31 0 0 1 1.73-.25 1.26 1.26 0 0 1 .25 1.71 1.37 1.37 0 0 1-1.82.25 1.3 1.3 0 0 1-.07-1.81m11.74-.66l-2.42-.94L281 386.65s0 1.56 1 1.8z" opacity=".6" class="D"/><g class="C"><path d="M279.79 369.88c.15.05.52-.64 1.29-1.14s1.52-.63 1.52-.78-.92-.3-1.83.33-1.12 1.56-.98 1.59zm-.05 3.62c.13.1.64-.42 1.46-.65s1.51-.09 1.57-.23-.72-.59-1.73-.29-1.43 1.11-1.3 1.17zm2.94 3.34c.09-.12-.55-.63-1.49-.6s-1.54.57-1.45.68.69-.12 1.47-.13 1.39.21 1.47.05zm-6.24-8.71c.16 0 .24-.75.65-1.53s.93-1.31.84-1.44-.87.26-1.33 1.19-.3 1.8-.16 1.78zm-3.18-2.2c.06 0 .39-.5.62-1.47a6.86 6.86 0 0 0 .19-1.74 7.63 7.63 0 0 0-.08-1 1.94 1.94 0 0 0-.16-.59.67.67 0 0 0-.73-.39.83.83 0 0 0-.6.48 2.18 2.18 0 0 0-.16.59 5.61 5.61 0 0 0 .23 2.79c.33.95.77 1.41.82 1.37s-.23-.57-.46-1.48a6.64 6.64 0 0 1-.17-1.63 6.52 6.52 0 0 1 .1-1c.05-.34.16-.61.34-.63s.08 0 .15.1a2 2 0 0 1 .11.44 8.23 8.23 0 0 1 .11 1 8.54 8.54 0 0 1-.07 1.65 11.28 11.28 0 0 0-.24 1.51z"/><path d="M273.54 365.84s-.34-.55-1.25-1a5.1 5.1 0 0 0-1.7-.49 4.58 4.58 0 0 0-1 0 1.35 1.35 0 0 0-1.15.62.76.76 0 0 0 .15.79 2.28 2.28 0 0 0 .48.38 3.59 3.59 0 0 0 1 .43 3.7 3.7 0 0 0 1.78 0c1-.25 1.44-.77 1.4-.8a13.5 13.5 0 0 1-1.47.42 3.66 3.66 0 0 1-1.58-.12 3.39 3.39 0 0 1-.84-.4c-.29-.18-.49-.4-.41-.5a.89.89 0 0 1 .7-.31 5.17 5.17 0 0 1 1 0 5.77 5.77 0 0 1 1.59.34c.76.32 1.25.7 1.3.64z"/></g><path d="M252.91,389.17l9.74,20.41L265.7,428a2.31,2.31,0,0,0,2.82,1.87h0a2.29,2.29,0,0,0,1.61-1.38c1.79-4.43,8.3-20.78,7.5-22.23-.92-1.68-8.85-22.21-8.85-22.21Z" class="B"/><path d="M268.52 429.82l8.48-25 .4.87a3.49 3.49 0 0 1 .17 2.4c-.62 2.13-2.45 8-7.38 20.32a2.3 2.3 0 0 1-1.67 1.41zm1.26-29.75a1.39 1.39 0 0 0 .4 1.82 1.35 1.35 0 0 0 1.82-.38 1.49 1.49 0 0 0-.44-1.93 1.39 1.39 0 0 0-1.84.61" opacity=".6" class="D"/><g class="C"><path d="M269.18 418.69a5 5 0 0 0-5.11-.18s.15-.32.6-.6a3.58 3.58 0 0 1 2-.51 3.63 3.63 0 0 1 1.95.64c.44.32.6.61.56.65zm-.18 3.42a17.25 17.25 0 0 0-2.22-.06 19.15 19.15 0 0 0-2.13.64c-.11-.08.69-1 2.06-1.14a2.56 2.56 0 0 1 2.29.56zm1.32-8.19a22.54 22.54 0 0 0-3.42-.33 21.25 21.25 0 0 0-3.38.66 6.31 6.31 0 0 1 6.8-.33zm-2.44-6.45c0 .15-1.35.18-2.86.8s-2.52 1.49-2.62 1.38a4.5 4.5 0 0 1 2.44-1.85 4.45 4.45 0 0 1 3.04-.33zm-2.71-6.07a11.51 11.51 0 0 0-3 .76 11.08 11.08 0 0 0-2.42 1.91c-.05 0 .05-.39.41-.87a4.88 4.88 0 0 1 1.8-1.49 4.93 4.93 0 0 1 2.27-.52c.6.02.95.16.94.21zm-3.48-.4a2.33 2.33 0 0 1-.38-.77 6.05 6.05 0 0 1-.29-2.32 2.63 2.63 0 0 1 .51-1.61.93.93 0 0 1 1-.25 1.56 1.56 0 0 1 .75.79 3.27 3.27 0 0 1-1.38 3.94 3.81 3.81 0 0 1-4.22-.28 1.31 1.31 0 0 1-.5-1 .91.91 0 0 1 .67-.83 3.29 3.29 0 0 1 1.68.1 6.46 6.46 0 0 1 2.13 1c.45.31.65.54.63.57a10 10 0 0 0-2.84-1.2 2.93 2.93 0 0 0-1.47-.05.49.49 0 0 0-.37.45.94.94 0 0 0 .37.62 3.39 3.39 0 0 0 3.66.21 2.84 2.84 0 0 0 1.26-3.37 1.05 1.05 0 0 0-.5-.57.49.49 0 0 0-.57.12 2.32 2.32 0 0 0-.46 1.36 8.87 8.87 0 0 0 .32 3.09z"/><path d="M285.73 351.32l-26.71-18 8.84-86.79-25.3-14.77-23.13-5.36s-9.66 20.1-14 33c-9.14 27.37-15.55 37.18-14.08 57 .46 6.28 23.64 22 38.28 30.71a47.57 47.57 0 0 0 .78 5.19c5 22.62 20.28 52.7 20.28 52.7l23.2-10.79-7.48-25.65 7.8 4.55zm-57.41-56l3.12-13.91-1.69 26.93a27.64 27.64 0 0 1-1.43-12.99z"/></g><path d="M250.73 405a2.21 2.21 0 0 1-.18-.37l-.49-1.09-1.79-4.23-6.4-15.65-9-23.43-2.29-6.89-.94-3.65-.18-.94-.11-.95-.21-1.9q-.42-3.84-.67-7.82l-.21-4V330c.4-10.9 1.31-21.24 2.07-30.65l2.09-25 1.2-16.86.24-4.58.07-1.2a1.51 1.51 0 0 1 0-.4 2.38 2.38 0 0 1 0 .4v1.2c0 1.05-.05 2.6-.14 4.59-.17 4-.52 9.76-1.05 16.88l-2 25c-.76 9.41-1.63 19.75-2 30.62-.08 1.36 0 2.7 0 4.05s.12 2.67.21 4q.24 4 .65 7.79l.21 1.91.11.94c.05.31.12.61.18.92.2 1.22.6 2.41.92 3.6.71 2.35 1.48 4.64 2.26 6.87 3.14 8.89 6.25 16.8 8.85 23.45l6.26 15.7 1.71 4.27.43 1.11c.1.27.2.39.2.39zm-17.86-156.63s-.23-.14-.6-.49a6.31 6.31 0 0 1-1.13-1.82 19.44 19.44 0 0 1-1.14-6.88 58.24 58.24 0 0 1 .33-7 15.9 15.9 0 0 1 .4-2.85 16.91 16.91 0 0 1 0 2.88l-.19 6.92a22.37 22.37 0 0 0 1 6.77 7.73 7.73 0 0 0 .95 1.81l.38.66zm-9.98-20.65a5.82 5.82 0 0 1 .2 2.42 11.2 11.2 0 0 1-6.39 9.38 5.91 5.91 0 0 1-2.33.7c0-.08.87-.32 2.17-1a11.84 11.84 0 0 0 6.2-9.09c.17-1.48.06-2.41.15-2.41zm41.5 50.46v.26c0 .17 0 .46-.06.77q-.12 1.08-.3 3l-1.19 10.88-4.06 35.91a65.37 65.37 0 0 0 1.31 19.7 68 68 0 0 0 2.41 8.3l2.5 7.14 3.59 10.35 1 2.82.24.74a.8.8 0 0 1 .06.25s0-.07-.11-.24-.17-.42-.28-.72l-1-2.79-3.74-10.29-2.56-7.12a67.56 67.56 0 0 1-2.47-8.35 64.94 64.94 0 0 1-1.37-19.84l4.21-35.9 1.35-10.87.39-3c0-.31.08-.56.11-.76a.85.85 0 0 1-.03-.24z" class="I"/><path d="M219.43 226.25l4.1-10.47 9.35 13.94-12.47-3.11" class="G"/><path d="M317.25 194.78l-11.09-24.87c-1.33-4-3.82-4.62-5.9-6.94l-27.79-15.67c-20.26-8.3-31.29 19.52-31.29 19.52l-18.41 42c-21.65 7.17-6.32 23.8-6.32 23.8s-5.89-10.24-.09-13.93c6.06-3.87 12.78 6.32 19.24 16 7.63 11.42 32.41 18.84 32.41 18.84 2.9-3.06 2.09-13.75 4.36-19.49.72-1.81 17.88-41.56 17.88-41.56l6.65 16.11s8.52-10 12.66-11.58a47.13 47.13 0 0 1 7.69-2.23z" class="B"/><path d="M268 212.46a4.15 4.15 0 0 1-.84.59 16.25 16.25 0 0 1-2.53 1.19 18.09 18.09 0 0 1-17.56-2.71 15.57 15.57 0 0 1-2.05-1.9 3.26 3.26 0 0 1-.62-.81c.07-.07 1 1.06 2.88 2.43a18.79 18.79 0 0 0 17.23 2.66c2.22-.74 3.49-1.53 3.49-1.45z" class="C"/><path d="M222,173h0l17.15,1.62,27.44-29-16.14-.56-28.73,2.84A74.54,74.54,0,0,1,222,173Z" class="B"/><path d="M245.77 157.74a1.81 1.81 0 0 1-.21.53l-.69 1.48-2.54 5.43c-2.13 4.6-5 11-8 18.1l-8 18.14-2.54 5.44-.73 1.46a2.44 2.44 0 0 1-.29.5 3.31 3.31 0 0 1 .2-.54l.64-1.5 2.4-5.5 7.83-18.2c3.04-7.08 6-13.48 8.17-18.05l2.69-5.37.77-1.44a2.65 2.65 0 0 1 .3-.48zm52.35 8.43c.05.09-1 .64-2.47 1.88a17.74 17.74 0 0 0-2.31 2.39 19.58 19.58 0 0 0-2.18 3.45 20.39 20.39 0 0 0-1.36 3.84 17.47 17.47 0 0 0-.44 3.31c-.07 1.9.15 3.08.05 3.09a2.9 2.9 0 0 1-.2-.81 5.9 5.9 0 0 1-.14-1A10.4 10.4 0 0 1 289 181a15.68 15.68 0 0 1 .35-3.4 19 19 0 0 1 1.35-4 19.21 19.21 0 0 1 2.27-3.52 16.18 16.18 0 0 1 2.45-2.37 9.43 9.43 0 0 1 1.07-.76 6.12 6.12 0 0 1 .85-.51 2.62 2.62 0 0 1 .78-.27z" class="C"/><path d="M302.91 126.34l-16.09 30.08a10.62 10.62 0 0 1-13.69 4.68h0a10.61 10.61 0 0 1-5-14.64l2.77-5.22s-7-4.53-3.72-12.09c2.92-6.74 13.64-25.78 15.91-29.8l13.56 6.07a15.23 15.23 0 0 1 6.26 20.92z" class="G"/><path d="M270.9,141.13a19.19,19.19,0,0,0,11.05,1.6s-4.74,4.37-11.94.34Z" fill="#eb996e"/><g class="C"><path d="M276.07 117.08a1.18 1.18 0 0 0 .55 1.55 1.13 1.13 0 0 0 1.54-.47 1.18 1.18 0 0 0-.55-1.55 1.13 1.13 0 0 0-1.54.47z"/><path d="M276.13 116.13c.07.2 1.15 0 2.31.48s1.74 1.47 1.93 1.39.06-.35-.18-.78a3.28 3.28 0 0 0-1.47-1.29 3.14 3.14 0 0 0-1.92-.21c-.47.11-.71.28-.67.41zm10.75 6.27a1.17 1.17 0 0 0 .55 1.55 1.13 1.13 0 0 0 1.54-.48 1.18 1.18 0 0 0-.55-1.54 1.12 1.12 0 0 0-1.54.47z"/><path d="M287.39 121.42c.07.2 1.15 0 2.31.48s1.74 1.48 1.93 1.4.07-.35-.18-.79a3.27 3.27 0 0 0-1.47-1.28 3.07 3.07 0 0 0-1.92-.21c-.47.11-.71.31-.67.4zm-8.03 6.69a8.7 8.7 0 0 0-1.72-1.17c-.28-.17-.54-.35-.5-.57s.3-.51.59-.79l1.88-1.86a42.75 42.75 0 0 0 4.59-5 41.62 41.62 0 0 0-5 4.61l-1.85 1.89a1.87 1.87 0 0 0-.67 1.09.85.85 0 0 0 .29.65 2.31 2.31 0 0 0 .47.29 7.66 7.66 0 0 0 1.92.86z"/><path d="M282.4 130.43c-.18-.09-.74 1.16-2.21 1.57s-2.75-.32-2.84-.15.19.37.75.64a3.39 3.39 0 0 0 2.33.2 2.94 2.94 0 0 0 1.78-1.35c.28-.5.28-.87.19-.91zm6.72-13.67c0 .37 1.19.73 2.47 1.5s2.22 1.63 2.52 1.43c.14-.1.08-.48-.22-1a5.08 5.08 0 0 0-3.81-2.23c-.58 0-.95.13-.96.3zM278.05 113c.09.36 1 .44 2 .85s1.69 1 2 .78.14-.42-.11-.82a2.87 2.87 0 0 0-1.39-1.14 2.93 2.93 0 0 0-1.8-.17c-.5.08-.75.3-.7.5z"/></g><path d="M297.85 130.85c.16 0 5.85.78 3.39 5.85s-7 1.55-7 1.4 3.61-7.25 3.61-7.25z" class="G"/><path d="M296.74 136.93a3.63 3.63 0 0 0 .17.25 1 1 0 0 0 .66.33 2.44 2.44 0 0 0 2-1.47 3.28 3.28 0 0 0 .37-1.38 1.14 1.14 0 0 0-.34-1 .5.5 0 0 0-.64 0c-.13.11-.15.22-.18.22s-.07-.14.07-.33a.64.64 0 0 1 .36-.22.75.75 0 0 1 .55.11 1.39 1.39 0 0 1 .54 1.23 3.35 3.35 0 0 1-.38 1.56 2.56 2.56 0 0 1-2.35 1.57 1.13 1.13 0 0 1-.75-.53c-.13-.21-.1-.34-.08-.34z" fill="#eb996e"/><g class="C"><path d="M300.79 132a3 3 0 0 0-3 .17c-.66.58-1.11 1.38-1.77 2a2 2 0 0 1-2.42.38 1.73 1.73 0 0 1-.54-1.65 4.78 4.78 0 0 1 .73-1.67l4.12-6.79a13.49 13.49 0 0 0 1.61-7.67 7.4 7.4 0 0 0-4.5-6.07c-1.65-.58-3.49-.41-5.18-.89a6.91 6.91 0 0 1-4.44-4.08 12 12 0 0 0-.66-1.14c.06-.12.66-1.14 1.25-1.34 4.46-1.51 10.49.22 14.18 3.13a16.39 16.39 0 0 1 6.32 12.28c.05 4.7-2.91 9.88-5.66 13.38"/><path d="M300.84,131.45c1.41-2.4,3.69-4.13,5.43-6.29s3-5.21,1.7-7.69c-.42-.85-1.1-1.56-1.45-2.44a12.09,12.09,0,0,1-.5-2.81,9.76,9.76,0,0,0-4.84-7c-1.78-1-3.83-1.4-5.64-2.35-2.85-1.5-4.94-4.28-8-5.47a3.8,3.8,0,0,0-3.11-.1,1.88,1.88,0,0,0-.77,2.69,1.63,1.63,0,0,0-2.25-1.08,2.46,2.46,0,0,0-1.27,2.41,5.35,5.35,0,0,0,1.09,2.64,13.54,13.54,0,0,0,7.7,5.31l6.91-.54,5.66,4.19,4.18,6.67-7.59,9.86Z"/></g><path d="M257.65 92.1a24.38 24.38 0 1 0-33.27 24.25l.4 6.14 21.32-1.38-.25-6.53a24.36 24.36 0 0 0 11.8-22.48z" class="B"/><path d="M238.38 121.51v-.3-.89c0-.77.11-1.92.23-3.39l.62-5.35a36.91 36.91 0 0 1 1.77-6.92 23.64 23.64 0 0 1 1.77-3.77 4.53 4.53 0 0 1 1.57-1.6 2.51 2.51 0 0 1 2.31-.07 1.65 1.65 0 0 1 .83.91 1.67 1.67 0 0 1 0 1.26 3.49 3.49 0 0 1-1.77 1.74 6.7 6.7 0 0 1-8.71-3.87 5.12 5.12 0 0 1-.33-2.8 2.19 2.19 0 0 1 2.11-1.83 1.54 1.54 0 0 1 1.29.78 2.19 2.19 0 0 1 .29 1.48 4.78 4.78 0 0 1-1.55 2.53 7.24 7.24 0 0 1-5.57 2 6.34 6.34 0 0 1-4.93-3.2 3.69 3.69 0 0 1-.35-2.94 1.78 1.78 0 0 1 2.5-1.1 2.48 2.48 0 0 1 1.1 1 3.88 3.88 0 0 1 .46 1.38 6.93 6.93 0 0 1-.19 2.8 7.24 7.24 0 0 1-3.17 4.3 7.38 7.38 0 0 1-5 1 3.89 3.89 0 0 1-2.26-1 1.88 1.88 0 0 1-.29-2.33 1.61 1.61 0 0 1 1.06-.61 2.37 2.37 0 0 1 1.18.15 3.48 3.48 0 0 1 1.59 1.58l1.85 3.72a206.22 206.22 0 0 1 5 11.47l1.24 3.16.31.83a2.19 2.19 0 0 1 .09.29l-.12-.28-.34-.81-1.29-3.15c-1.14-2.72-2.81-6.66-5.09-11.42-.58-1.18-1.17-2.45-1.86-3.7a3.29 3.29 0 0 0-1.48-1.47 1.68 1.68 0 0 0-1.95.38 1.65 1.65 0 0 0 .28 2 3.62 3.62 0 0 0 2.11.93 7.11 7.11 0 0 0 4.81-1 7 7 0 0 0 3-4.14 6.6 6.6 0 0 0 .18-2.69 2.63 2.63 0 0 0-1.39-2.15 1.52 1.52 0 0 0-1.27 0 1.55 1.55 0 0 0-.83 1 3.39 3.39 0 0 0 .33 2.7 6.07 6.07 0 0 0 4.7 3 6.93 6.93 0 0 0 5.33-1.93 4.51 4.51 0 0 0 1.45-2.34 1.93 1.93 0 0 0-.25-1.29 1.28 1.28 0 0 0-1.05-.64 1.77 1.77 0 0 0-1.19.47 2 2 0 0 0-.62 1.13 4.79 4.79 0 0 0 .31 2.64 6.43 6.43 0 0 0 8.4 3.73 3.24 3.24 0 0 0 1.64-1.6 1.44 1.44 0 0 0-.68-1.85 2.27 2.27 0 0 0-2.09.06A4.34 4.34 0 0 0 243 101a23.63 23.63 0 0 0-1.76 3.72 36.46 36.46 0 0 0-1.8 6.86c-.35 2.07-.54 3.87-.68 5.34l-.28 3.39c0 .37-.06.67-.07.88s-.03.32-.03.32zm6.33 3.65l-18.3 1.19a1.39 1.39 0 0 1-1.47-1.29h0a1.38 1.38 0 0 1 1.29-1.46l18.31-1.18a1.37 1.37 0 0 1 1.46 1.28h0a1.38 1.38 0 0 1-1.29 1.46zm.08 1.2l-18.31 1.19a1.373 1.373 0 0 0 .18 2.74l2-.13 3 4.91a1.79 1.79 0 0 0 1.63.84l6.54-.42a1.81 1.81 0 0 0 1.51-1.06l2.26-5.23 1.37-.09a1.38 1.38 0 0 0-.18-2.75z" class="C"/><path d="M216.69 79.18a17.72 17.72 0 0 1 4.67-3.55 13.17 13.17 0 0 1 3.64-1.34c.92-.15 1.45-.1 1.51.09.13.44-1.67 1.21-4 3a20.06 20.06 0 0 0-7.85 20.24c.53 2.95 1.34 4.73 1 5-.18.11-.6-.21-1.17-.94a12.65 12.65 0 0 1-1.82-3.47 17.84 17.84 0 0 1-1-5.76 19 19 0 0 1 1.25-7.15m19.53-10.24c-1.54.08-2.93-.25-3.14-1.06-.09-.4.17-.85.7-1.22a4.94 4.94 0 0 1 4.6-.28c.58.31.88.73.84 1.14" opacity=".2" class="D"/><path d="M241 134.88a10.67 10.67 0 0 1-1.29-.31 10.66 10.66 0 0 0-3.13-.19 10.8 10.8 0 0 0-3 .77l-1.2.54a3.71 3.71 0 0 1 1.11-.73 9 9 0 0 1 3.1-.87 8.84 8.84 0 0 1 3.21.28 3.87 3.87 0 0 1 1.2.51zm2.65-5.62c0 .08-3.3.36-7.39.63l-7.4.32c-.01-.09 3.3-.36 7.38-.62l7.41-.33zm-1.01 2.25a11 11 0 0 1-1.79.29l-4.36.45-4.37.24a10 10 0 0 1-1.81 0 10.08 10.08 0 0 1 1.8-.2l4.36-.33 4.36-.36a10.67 10.67 0 0 1 1.81-.09z" class="I"/><g class="B"><path d="M110.8 254l4 6.37s17-15.61 33.79-11.2c-.03-.02-15.15-12.84-37.79 4.83z"/><path d="M148.56 249.15s12.45-13.52 30.71-10.44l5 .75-1.58-2.87s-31.79-10.88-34.13 12.56z"/></g><path d="M122.28,203.56S97.34,199.27,81,208.12L107,257s21.26-20.49,41.6-7.87Z" class="E"/><path d="M122.28 203.56a1.72 1.72 0 0 1 .14.2l.37.62 1.44 2.43 5.4 9.26 19.12 33a.22.22 0 0 1-.3.3 27.47 27.47 0 0 0-9.57-3.67 30 30 0 0 0-5.39-.38 33.89 33.89 0 0 0-5.52.7 47.4 47.4 0 0 0-20.62 11l-.22.2a.24.24 0 0 1-.35 0v-.05l-25.97-48.95a.19.19 0 0 1 .08-.27h0A50.29 50.29 0 0 1 97.51 203a84.53 84.53 0 0 1 13.31-.58l8.49.66 2.22.32.57.1h.18-.19l-.57-.07-2.22-.26-8.49-.54a84.91 84.91 0 0 0-13.25.67 50.17 50.17 0 0 0-16.47 5l.08-.27 26 48.88-.39-.07.22-.2a52.65 52.65 0 0 1 9.94-7 41.5 41.5 0 0 1 10.92-4.14 32.72 32.72 0 0 1 5.61-.7 29.24 29.24 0 0 1 5.48.39 28.13 28.13 0 0 1 9.72 3.75l-.31.3-18.91-33-5.32-9.34-1.39-2.48-.35-.65a1.68 1.68 0 0 1-.11-.21z" class="C"/><path d="M161.48,193.53s-18.86-12-38.88,10l26.28,45.59s5.36-18.5,36.74-12.07Z" class="E"/><path d="M161.48 193.53a.88.88 0 0 1 .13.19l.34.59 1.33 2.32 5 8.84L185.81 237a.21.21 0 0 1-.08.29.21.21 0 0 1-.15 0h0l-4.67-.77a21.4 21.4 0 0 0-2.41-.27l-2.46-.2a21 21 0 0 0-2.51-.06L171 236c-.86 0-1.71.17-2.57.25a19.15 19.15 0 0 0-2.58.39l-2.57.58-2.53.89a26.77 26.77 0 0 0-2.44 1.13 7.63 7.63 0 0 0-1.18.67l-1.15.74c-.76.51-1.44 1.13-2.15 1.7a22.7 22.7 0 0 0-1.89 2 15.75 15.75 0 0 0-2.8 4.8h0a.25.25 0 0 1-.32.15.24.24 0 0 1-.13-.11l-1.06-1.83-25.19-43.77a.23.23 0 0 1 0-.25 44.24 44.24 0 0 1 14.23-10.7 28.42 28.42 0 0 1 13.43-2.52 27.58 27.58 0 0 1 8.59 1.92 21.27 21.27 0 0 1 2.1 1l.52.3.16.12-.18-.09-.53-.27a24.5 24.5 0 0 0-2.11-.93 28.07 28.07 0 0 0-21.84.79 44.08 44.08 0 0 0-14.06 10.67v-.24l25.25 43.8 1.1 1.81-.46.06a16.46 16.46 0 0 1 2.89-5 27.13 27.13 0 0 1 1.94-2.07l2.21-1.74 1.17-.76a8 8 0 0 1 1.21-.68l2.49-1.16 2.57-.89 2.62-.59a18 18 0 0 1 2.62-.39l2.59-.25h2.57a17.75 17.75 0 0 1 2.53.06l2.48.21a19.42 19.42 0 0 1 2.43.27l4.7.79-.23.32-17.38-31.56-4.87-8.91-1.28-2.36-.32-.61s-.1-.21-.1-.21z" class="C"/><path d="M88,184.62l28.13,54.15s22.85-1,32.53,10.14L122.6,203.56S107.32,184.62,88,184.62Z" class="E"/><path d="M88 184.62h.72l2.16.09h.76l.83.14 1.88.31a15.16 15.16 0 0 1 2.15.52 24.54 24.54 0 0 1 2.41.71c6.72 2.24 15.74 7.66 23.84 17h0 0l26.1 45.32a.25.25 0 0 1-.09.34.24.24 0 0 1-.3 0h0l-1.1-1.1a23.85 23.85 0 0 0-7.2-4.75 41 41 0 0 0-8.05-2.64 67.2 67.2 0 0 0-16-1.58h0a.24.24 0 0 1-.21-.12l-20.17-39.11L90 188.58l-1.51-3-.38-.75-.12-.25a1.41 1.41 0 0 1 .15.27l.42.77 1.58 3L96 199.84l20.3 38.82-.21-.12a67.19 67.19 0 0 1 16.11 1.56 42.08 42.08 0 0 1 8.14 2.66 24.39 24.39 0 0 1 7.34 4.86l1.14 1.12-.41.29-26-45.36h0a65.6 65.6 0 0 0-12.31-11.14 47.43 47.43 0 0 0-11.28-5.88 24.71 24.71 0 0 0-2.4-.73 14.79 14.79 0 0 0-2.13-.54l-1.87-.34-.81-.15-.74-.06z" class="C"/><g class="B"><path d="M175.8 338.2l.6 1a6.9 6.9 0 0 0 2.84 2.62l1 .52-1 .6a7 7 0 0 0-2.62 2.84l-.52 1.05-.6-1a6.9 6.9 0 0 0-2.84-2.62l-1.05-.52 1-.6a6.83 6.83 0 0 0 2.62-2.84zm-55.44-206.27l.6 1a6.88 6.88 0 0 0 2.84 2.61l1 .52-1 .61a6.78 6.78 0 0 0-2.62 2.84l-.52 1-.6-1a6.86 6.86 0 0 0-2.85-2.62l-1.05-.52 1-.6a7 7 0 0 0 2.62-2.85zm256.58 35.59l.6 1a6.86 6.86 0 0 0 2.85 2.62l1.05.52-1 .6a6.9 6.9 0 0 0-2.61 2.85l-.52 1-.61-1a6.82 6.82 0 0 0-2.84-2.61l-1.06-.5 1-.61a6.78 6.78 0 0 0 2.62-2.84zm-30.3 183.63l.6 1a6.9 6.9 0 0 0 2.85 2.61l1.05.52-1 .61a6.91 6.91 0 0 0-2.62 2.84l-.51 1.05-.61-1a6.83 6.83 0 0 0-2.84-2.62l-1.05-.52 1-.6a6.86 6.86 0 0 0 2.62-2.85zm5.77 38.59l.29.12a1.87 1.87 0 0 0 1 .1l.31-.06-.12.29a1.87 1.87 0 0 0-.1 1l.06.31-.29-.12a1.88 1.88 0 0 0-1-.1l-.31.06.12-.29a1.87 1.87 0 0 0 .1-1zm17.45-260.93l.28.12a1.9 1.9 0 0 0 1 .1l.3-.06-.11.29a1.78 1.78 0 0 0-.1 1l.06.31-.29-.12a1.9 1.9 0 0 0-1-.1l-.3.06.11-.29a1.78 1.78 0 0 0 .1-1zM131.63 105l.29.11a1.78 1.78 0 0 0 1 .1h.31l-.12.28a1.9 1.9 0 0 0-.1 1l.06.3-.29-.11a1.78 1.78 0 0 0-1-.1h-.31l.12-.28a1.9 1.9 0 0 0 .1-1zM161 308.16l.29.11a1.7 1.7 0 0 0 1 .1l.31-.05-.12.29a1.87 1.87 0 0 0-.1 1l.06.3-.29-.11a1.78 1.78 0 0 0-1-.1l-.31.06.12-.29a1.9 1.9 0 0 0 .1-1zm31.91 78.53l-.28.29-.83.83-3.23 3.19-12 11.57v-.12l2.27 48.55v.42l-.36-.23-4.33-2.9-27.44-18.37h-.06v-.06l-10-29.83-2.8-8.46-.72-2.25q-.12-.36-.18-.57c0-.14-.06-.2-.05-.2l.08.18.21.57.78 2.23 2.9 8.43 10.14 29.77-.08-.1 27.47 18.34 4.33 2.89-.34.19-2.08-48.57v-.07h.05l12.08-11.46 3.29-3.09.86-.79c.21-.3.32-.38.32-.38z"/><path d="M180.13 445.25l-.09 2.83 2.29 1.68-2.72.79-.89 2.69-1.6-2.34-2.83-.01 1.74-2.24-.87-2.7 2.67.96 2.3-1.66zm-33.06-19.21l.06 1.83 1.54 1-1.73.61-.47 1.78-1.12-1.45-1.83.1 1.03-1.52-.66-1.71 1.76.52 1.42-1.16zm-14.24-40.93l1.38 1.78 2.25-.14-1.26 1.87.82 2.09-2.16-.62-1.74 1.43-.08-2.25-1.89-1.21 2.11-.77.57-2.18zm58.69-1.77l1.39 1.77 2.24-.13-1.26 1.86.82 2.1-2.16-.63-1.74 1.43-.07-2.25-1.9-1.21 2.12-.77.56-2.17zm-15.4 17.14l.88 1.14 1.43-.09-.8 1.19.52 1.34-1.38-.4-1.11.91-.05-1.43-1.21-.78 1.35-.49.37-1.39z"/><circle cx="123.19" cy="304.91" r="19.94"/></g><path d="M120.6 311.13a3.26 3.26 0 1 1-3.25-3.25 3.26 3.26 0 0 1 3.25 3.25zm-4.6-9.38a1.9 1.9 0 1 1-1.9-1.89 1.9 1.9 0 0 1 1.9 1.89z" opacity=".3" class="D"/><use xlink:href="#G" class="B"/><use xlink:href="#G" opacity=".3"/><path d="M112.2 290.86c.16.19-1.19 1.34-2.72 3.64a18.35 18.35 0 0 0-.4 20.17c1.44 2.37 2.74 3.57 2.57 3.75s-1.7-.78-3.48-3.14a17.26 17.26 0 0 1-2.42-4.53 17.36 17.36 0 0 1 .25-12.45 17.11 17.11 0 0 1 2.6-4.44c1.87-2.28 3.51-3.14 3.6-3z" opacity=".3" class="D"/><circle cx="342.97" cy="118.1" r="16.45" transform="matrix(.721035 -.692899 .692899 .721035 13.84 270.57)" class="B"/><path d="M348.33 111.8a2.68 2.68 0 1 1 2.62 2.74 2.67 2.67 0 0 1-2.62-2.74zm5.36 6.26a1.57 1.57 0 1 1 1.53 1.6 1.56 1.56 0 0 1-1.53-1.6zm-2.09 4.8a.56.56 0 0 1 .56.58.59.59 0 0 1-.59.57.58.58 0 0 1-.56-.59.57.57 0 0 1 .59-.56z" opacity=".4"/><defs ><path id="B" d="M307.73,291.09c2.14-16.11-9.19-29.41-23.35-37.4S253.79,243,238.15,238.58c-14.75-4.19-29.42-10.31-40.34-21.07s-17.48-26.93-13.56-41.75c1-3.72,2.75-7.46,5.95-9.61s8.07-2.09,10.46.93c5.08,6.44-4.82,18,1.38,23.34,1.42,1.24,3.38,1.69,4.85,2.86,3.91,3.13,2.65,9.2,3.2,14.18,1.09,9.85,10.33,16.69,19.4,20.68,12.15,5.34,25.31,7.85,38.19,11s25.89,7.16,36.62,15,20.06,20,20,33.29c0,3.71-.49,8.27-2.82,11.15s-5.29,3.49-8.65,1.91-5.7-4-5.08-9.38"/><path id="C" d="M239.23,163c-.51-6,3.94-11.17,9-13.95s10.86-3.92,16.07-6.39c12.95-6.14,21.18-20.59,21.79-35.4s-5.82-29.63-15.86-40.51c-4.09-4.42-9.11-9.06-9.17-15.09-.06-6.3,6-11.26,12.14-11.18s11.72,4.17,15.37,9.3S294.23,61,296.2,67c-1.4-2.52,1.47-5.63,4.25-5.36s5,2.58,6.67,4.88a52.1,52.1,0,0,1,10,34.85,49.1,49.1,0,0,1-15.5,31.94c-9.87,9-22.92,13.21-35.58,17.21l-26.41,8.33"/><path id="D" d="M264.45,422.84c-3.24-6.71-.41-15.08,4.75-20.46s12.2-8.45,19-11.45c15.06-6.64,31-14.54,38.65-29.1,2.58-4.91,4.05-10.31,5.5-15.67,2.81-10.36,5.45-22.13-.2-31.26-1.63-2.63-4.07-5-7.11-5.5-3.47-.62-7,1.29-9.16,4.08a20.23,20.23,0,0,0-3.49,9.83c-.84,6.63-.14,13.38-.84,20S308.44,357,303,360.78c-6.67,4.65-16.18,3.61-22.65,8.52-5.23,4-7.22,10.84-11.3,16-3.44,4.31-8.25,7.25-12.65,10.57s-8.66,7.36-10.16,12.67a15,15,0,0,0,20.89,17.63"/><path id="E" d="M164.33,83.86a20.85,20.85,0,0,1,.6-33.91c3.08-2.11,6.72-3.41,9.46-6,2.43-2.26,4-5.39,6.73-7.29A9.8,9.8,0,0,1,196,48c-1.25,3.51-4.4,6.08-5.72,9.56-1.42,3.76-.5,8-1,11.94a16.49,16.49,0,0,1-22.08,13.28"/><path id="F" d="M216.62,233.3l25.15-3.73-12-17-6.44.38a11.49,11.49,0,0,0-9.89,6.92h0a11.53,11.53,0,0,0-.73,6.74Z"/><path id="G" d="M103.84,309.76c.09.35-17.07,16.81-12.64,20.32s23-5.49,38.89-18.3,30.35-28.37,26.38-32.49-23.79,8.07-23.79,8.07l2.37,1.52s12-7.69,15.78-4.71-7,14.64-22.27,25.78-30,18.94-32.27,15.89,8.5-13.22,8.5-13.22Z"/></defs></svg>