<svg xmlns="http://www.w3.org/2000/svg" xmlns:xlink="http://www.w3.org/1999/xlink" width="177.757" height="161.68" xmlns:v="https://vecta.io/nano"><style><![CDATA[.AE{fill:#207178}.AF{opacity:.8}.AG{fill:#fff}.AH{opacity:.2}.AI{fill:#e0e0e0}.AJ{fill:#37474f}.AK{fill:#ffa8a7}.AL{fill:#f28f8f}.AM{opacity:.6}.AN{fill:#ebebeb}.AO{fill:#f0f0f0}.AP{fill:#f5f5f5}.AQ{fill:#455a64}.AR{fill:#263238}.AS{fill:#fafafa}]]></style><defs><clipPath id="A"><path d="M165.164 137.3c-4.631 2.609-8.384 9.11-8.384 14.518s3.752 7.628 8.384 4.953 8.384-9.172 8.384-14.522-3.757-7.563-8.384-4.949z" transform="translate(-156.78 -136.202)" fill="none"/></clipPath><path id="B" d="M45.367 113.975a29.26 29.26 0 0 0-7.533-14.035c-3.546-3.327-8.809-4.487-10.906-2.951s-.722 4.854 3.348 8.9c4.594 4.561 13.416 17.217 15.091 24.387z"/><path id="C" d="M47.043 39.435l25.151-16.458-1.676-.97-24.255 14.006c-.53.342-.865.918-.9 1.548v.9z"/><path id="D" d="M55.443 42.336l-9.816-5.647a1.83 1.83 0 0 0-.26.879v98.6a1.68 1.68 0 0 0 2.572 1.482l7.5-4.314z"/><path id="E" d="M47.939 137.66l61.918-35.755c.53-.342.865-.918.9-1.548V1.743c0-.57-.413-.8-.9-.516L47.939 36.982c-.53.342-.865.918-.9 1.548v98.614c.004.566.404.801.9.516z"/><path id="F" d="M51.113 77.828l1.924-1.11c.413-.227.714-.041.714.413v2.221a1.58 1.58 0 0 1-.714 1.238l-1.924 1.094c-.413.231-.714.045-.714-.413V79.05c.033-.497.297-.949.714-1.222z"/><path id="G" d="M51.113 85.576l1.924-1.11c.413-.231.714-.045.714.413V87.1c-.029.502-.294.961-.714 1.238l-1.924 1.11c-.413.227-.714.041-.714-.413v-2.221c.026-.503.291-.964.714-1.238z"/><path id="H" d="M56.323 83.536l11.624-6.716c.5-.285.9-.083.9.454-.046.609-.381 1.16-.9 1.482l-11.624 6.716c-.5.285-.9.083-.9-.454.046-.609.381-1.16.9-1.482z"/><path id="I" d="M51.113 93.319l1.924-1.11c.413-.231.714-.045.714.413v2.221a1.59 1.59 0 0 1-.714 1.238l-1.924 1.11c-.413.227-.714.041-.714-.413v-2.221c.026-.503.291-.964.714-1.238z"/><path id="J" d="M56.323 99.045l11.624-6.712c.5-.289.9-.083.9.45-.045.611-.38 1.163-.9 1.486l-11.624 6.712c-.5.285-.9.083-.9-.454.046-.609.381-1.16.9-1.482z"/><path id="K" d="M51.291 116.447l8.256-4.776c.5-.285.9-.083.9.454-.046.609-.381 1.16-.9 1.482l-8.256 4.776c-.491.285-.892.083-.892-.45a1.92 1.92 0 0 1 .892-1.486z"/><path id="L" d="M51.291 120.32l16.656-9.614c.5-.285.9-.083.9.45-.045.611-.38 1.163-.9 1.486l-16.656 9.614c-.491.285-.892.083-.892-.45a1.92 1.92 0 0 1 .892-1.486z"/><path id="M" d="M56.323 75.788l11.624-6.712c.5-.285.9-.083.9.454-.046.609-.381 1.16-.9 1.482l-11.624 6.712c-.5.285-.9.083-.9-.45.045-.611.38-1.163.9-1.486z"/><path id="N" d="M51.291 128.059l16.656-9.614c.5-.285.9-.083.9.45-.045.611-.38 1.163-.9 1.486l-16.656 9.6c-.491.289-.892.083-.892-.45a1.92 1.92 0 0 1 .892-1.472z"/><path id="O" d="M109.865 1.227L72.194 22.976v100.679l37.671-21.749c.53-.342.865-.918.9-1.548V1.743c-.009-.553-.421-.801-.9-.516z"/><path id="P" d="M75.996 33.387l27.611-15.941c.248-.14.446-.041.446.227a.96.96 0 0 1-.446.743L75.996 34.337c-.248.14-.446.041-.446-.227a.96.96 0 0 1 .446-.723z"/><path id="Q" d="M75.996 36.277l27.611-15.942c.248-.144.446-.041.446.227a.95.95 0 0 1-.446.739L75.996 37.243c-.248.144-.446.041-.446-.227a.95.95 0 0 1 .446-.739z"/><path id="R" d="M77.036 47.298l1.936-1.115c.413-.231.714-.045.714.413v2.221c-.028.503-.293.962-.714 1.238l-1.924 1.11c-.413.227-.714.041-.714-.413v-2.217c.024-.501.284-.96.702-1.237z"/><path id="S" d="M76.768 54.233l29.308-16.924c.248-.144.446-.041.446.223-.021.305-.187.581-.446.743L76.768 55.202c-.248.144-.446.041-.446-.227a.95.95 0 0 1 .446-.742z"/><path id="T" d="M76.768 57.135l29.308-16.924c.248-.14.446-.041.446.227a.96.96 0 0 1-.446.743L76.768 58.105c-.248.14-.446.041-.446-.227a.96.96 0 0 1 .446-.743z"/><path id="U" d="M76.768 60.04l29.308-16.924c.248-.144.446-.041.446.223-.021.305-.187.581-.446.743L76.768 61.006c-.248.144-.446.041-.446-.223.021-.305.187-.581.446-.743z"/><path id="V" d="M76.768 62.951l29.308-16.924c.248-.14.446-.041.446.227a.96.96 0 0 1-.446.743L76.768 63.921c-.248.14-.446.041-.446-.227a.96.96 0 0 1 .446-.743z"/><path id="W" d="M76.768 75.285l29.308-16.924c.248-.144.446-.041.446.223-.021.305-.187.581-.446.743L76.768 76.254c-.248.144-.446.041-.446-.227a.95.95 0 0 1 .446-.742z"/><path id="X" d="M76.768 78.187l29.308-16.924c.248-.14.446-.041.446.227a.96.96 0 0 1-.446.743L76.768 79.157c-.248.14-.446.041-.446-.227a.96.96 0 0 1 .446-.743z"/><path id="Y" d="M76.768 81.092l29.308-16.924c.248-.144.446-.041.446.223-.021.305-.187.581-.446.743L76.768 82.058c-.248.144-.446.041-.446-.223.021-.305.187-.581.446-.743z"/><path id="Z" d="M76.768 84.003l29.308-16.924c.248-.14.446-.041.446.227a.96.96 0 0 1-.446.743L76.768 84.973c-.248.14-.446.041-.446-.227a.96.96 0 0 1 .446-.743z"/><path id="a" d="M76.768 96.75l29.308-16.924c.248-.144.446-.041.446.223-.021.305-.187.581-.446.743L76.768 97.719c-.248.144-.446.041-.446-.227a.95.95 0 0 1 .446-.739z"/><path id="b" d="M76.768 99.652l29.308-16.924c.248-.14.446-.041.446.227a.96.96 0 0 1-.446.743l-29.308 16.924c-.248.14-.446.041-.446-.227a.96.96 0 0 1 .446-.743z"/><path id="c" d="M76.768 102.557l29.308-16.924c.248-.144.446-.041.446.223-.021.305-.187.581-.446.743l-29.308 16.924c-.248.145-.446.041-.446-.223.021-.305.187-.581.446-.743z"/><path id="d" d="M77.036 68.594l1.936-1.11c.413-.227.714-.041.714.413v2.224c-.026.503-.291.964-.714 1.238l-1.924 1.11c-.413.227-.714.045-.714-.413v-2.221c.023-.502.284-.963.702-1.241z"/><path id="e" d="M82.246 66.554l11.624-6.712c.5-.285.9-.083.9.45-.045.611-.38 1.163-.9 1.486l-11.624 6.7c-.5.285-.9.083-.9-.45.05-.605.384-1.15.9-1.47z"/><path id="f" d="M77.036 89.893l1.936-1.11c.413-.231.714-.045.714.413v2.221c-.027.503-.292.963-.714 1.238l-1.924 1.11c-.413.227-.714.041-.714-.413v-2.221c.023-.501.284-.961.702-1.238z"/><path id="g" d="M82.246 87.874l11.624-6.716c.5-.285.9-.083.9.454a1.92 1.92 0 0 1-.9 1.486l-11.624 6.714c-.5.285-.9.083-.9-.454.046-.609.381-1.16.9-1.482z"/><path id="h" d="M79.773 108.642l1.924-1.11c.413-.227.718-.041.718.413v2.221c-.028.504-.294.964-.718 1.238l-1.924 1.11c-.392.231-.714.045-.714-.413v-2.221c.029-.502.294-.961.714-1.238z"/><path id="i" d="M90.451 102.475l1.924-1.11c.392-.227.714-.041.714.413v2.221a1.58 1.58 0 0 1-.714 1.238l-1.924 1.11c-.413.227-.718.045-.718-.413v-2.221a1.58 1.58 0 0 1 .718-1.238z"/><path id="j" d="M101.126 96.308l1.924-1.11c.392-.231.714-.045.714.413v2.221a1.59 1.59 0 0 1-.714 1.238l-1.924 1.11c-.413.227-.714.041-.714-.413v-2.221c.026-.503.291-.964.714-1.238z"/><path id="k" d="M12.71 20.734l-2.394-8.153c1.061-.413 2.423-.755 3.084.338.594.982 1.544 6.13 1.73 7.166z"/><path id="l" d="M13.029 20.647l-2.353.632c.095-.676.317-1.327.656-1.919a3.83 3.83 0 0 1 1.932-1.449c-.169.902-.248 1.818-.235 2.736z"/><path id="m" d="M5.42 22.686c-.296-1.412-.697-2.8-1.2-4.153-.551-1.305-.34-2.807.549-3.909.916-.475 1.866-.882 2.842-1.217a27.91 27.91 0 0 1 1.115 8.4z"/><path id="n" d="M4.248 22.999l-2.357.632a1.45 1.45 0 0 1-.186-.149c0 0 1.115-4.3 1.47-5.729s.627-2.411 1.585-3.129c1.721 1.119.925 4.227.925 4.227z"/><path id="o" d="M142.279 63.743c.277 1.327.384 2.683.318 4.037-.263 1.679-.716 3.323-1.35 4.9 0 0 .962 1.057 3.674.632 2.208-.343 1.428-7.017.161-8.3-.738-.763-1.74-1.216-2.8-1.267z"/><path id="p" d="M150.508 55.579c1.386.137 2.764.345 4.128.623-3.459 2.431-.656 7.843-.656 7.843l-1.325 4.157c1.474 1.886 2.745 3.009 3.533 5.077.875 2.312 1.651 5.75 1.445 12.8-3.3 2.477-13.349 2.208-17.263 0 0 0 .66-6.221 1.441-11.054.516-3.191 1.734-6.666 1.527-7.843-1.552-4.772-1.651-5.63-1.37-6.7.772-3 3.827-5.024 4.578-5.024z"/></defs><path d="M26.032 148.08c34.707 18.134 90.986 18.134 125.693 0s34.711-47.532 0-65.666-90.986-18.134-125.693 0-34.711 47.532 0 65.666z" class="AP"/><g class="AN"><ellipse cx="116.003" cy="134.462" rx="18.951" ry="9.032"/><ellipse cx="149.575" cy="115.928" rx="14.621" ry="6.968"/></g><use xlink:href="#B" class="AE"/><use xlink:href="#B" class="AH"/><path d="M45.369 124.464a.21.21 0 0 1-.206-.19c-1.04-10.98-8.718-23.322-16.1-25.894-.1-.043-.15-.156-.114-.259s.145-.161.25-.133c7.653 2.662 15.31 14.93 16.383 26.249a.21.21 0 0 1-.186.227z" class="AG"/><path d="M45.367 135.547s-1.428 1.139-6.192.693-7.22-3.851-7.22-5.313 4.38-1.713 5.329-5.337a6.33 6.33 0 0 1-3.649 1.936c-2.477.466-4.466-.326-5.032-4.838a8.09 8.09 0 0 0 3.641-.3c1.961-.632 2.427-1.709 1.915-1.94s-3.244 0-4.995-.665-.413-9.779.735-10.427 6.576.879 7.632 1.7c1.521 1.011 2.193 2.904 1.651 4.648.724-.676 1.288-1.506 1.651-2.427.512-1.238.883-.949 1.651-.475.933.526 1.593 1.429 1.812 2.477.186 1.156-.116 5.143-1.742 6.439 0 0 1.56.2 2.836-2.435 0 0 2.477 1 3.038 2.617s1.174 9.538-3.061 13.647z" class="AE"/><path d="M45.788 136.447a.21.21 0 0 1-.206-.182c-1.09-8.92-7.872-20.639-14.522-25.04-.062-.041-.097-.112-.093-.187s.049-.14.116-.174.146-.028.208.013c6.733 4.479 13.622 16.317 14.7 25.337.015.113-.064.216-.177.231z" class="AG"/><path d="M46.205 137.694a1.92 1.92 0 0 1-.826-1.515V37.56c.035-.63.37-1.206.9-1.548L108.197.257a1.68 1.68 0 0 1 2.572 1.486L47.938 137.661c-.54.287-1.184.299-1.734.033z" class="AI"/><g class="AJ"><use xlink:href="#C"/><use xlink:href="#C" class="AH"/></g><g class="AR"><use xlink:href="#D"/><use xlink:href="#D" opacity=".4"/></g><g class="AQ"><use xlink:href="#E"/><use xlink:href="#E" opacity=".1"/></g><g class="AE"><path d="M52.186 61.308l14.86-8.586c.987-.57 1.787-.165 1.787.9-.089 1.217-.753 2.319-1.787 2.968l-14.86 8.586c-.991.57-1.787.165-1.787-.9a3.82 3.82 0 0 1 1.787-2.968z"/><path d="M52.186 67.401l9.837-5.68c.987-.57 1.787-.165 1.787.9-.089 1.217-.753 2.319-1.787 2.968l-9.837 5.68c-.991.57-1.787.165-1.787-.9a3.82 3.82 0 0 1 1.787-2.968z"/><use xlink:href="#F"/></g><use xlink:href="#F" class="AH"/><use xlink:href="#G" class="AE"/><use xlink:href="#G" class="AH"/><use xlink:href="#H" class="AE"/><use xlink:href="#H" class="AH"/><use xlink:href="#I" class="AI"/><path d="M56.323 91.28l11.624-6.708c.5-.285.9-.083.9.454-.045.61-.38 1.161-.9 1.482l-11.624 6.716c-.5.285-.9.083-.9-.454.044-.612.379-1.166.9-1.49z" class="AO"/><path d="M51.113 101.084l1.924-1.11c.413-.231.714-.045.714.413v2.218a1.59 1.59 0 0 1-.714 1.238l-1.924 1.11c-.413.227-.714.041-.714-.413v-2.221c.026-.503.291-.964.714-1.238z" class="AI"/><use xlink:href="#J" class="AO"/><use xlink:href="#I" y="15.509" class="AI"/><use xlink:href="#J" y="7.744" class="AO"/><g class="AE"><use xlink:href="#K"/><use xlink:href="#L"/></g><use xlink:href="#L" class="AF AG"/><g class="AE"><path d="M51.291 120.319l11.628-6.712c.491-.285.892-.083.892.454a1.92 1.92 0 0 1-.892 1.482l-11.628 6.708c-.491.285-.892.083-.892-.45a1.92 1.92 0 0 1 .892-1.486z"/><use xlink:href="#K" y="7.753"/><use xlink:href="#M"/></g><use xlink:href="#M" class="AH"/><g class="AE"><use xlink:href="#K" y="7.753"/><use xlink:href="#N"/></g><use xlink:href="#N" class="AF AG"/><path d="M51.291 128.059l14.98-8.669c.5-.285.9-.083.9.454-.046.609-.381 1.16-.9 1.482l-14.98 8.668c-.491.289-.892.083-.892-.45a1.92 1.92 0 0 1 .892-1.486z" class="AE"/><use xlink:href="#O" class="AN"/><use xlink:href="#O" class="AM AS"/><path d="M72.194 26.849v7.744l-3.352 3.872h3.352v7.744l35.211-20.33V6.519z" class="AE"/><path d="M76.8 27.116l14.266-8.256c.689-.413 1.238-.074 1.238.722h0c-.046.878-.505 1.682-1.238 2.167L76.8 29.984c-.693.413-1.238.074-1.238-.722h0a2.76 2.76 0 0 1 1.238-2.146z" class="AG AM"/><g class="AE"><use xlink:href="#P"/><use xlink:href="#P"/></g><use xlink:href="#P" class="AG AM"/><use xlink:href="#Q" class="AE"/><g class="AG"><use xlink:href="#Q" class="AM"/><path d="M75.996 39.166l27.611-15.942c.248-.14.446-.041.446.227a.96.96 0 0 1-.446.743L75.996 40.135c-.248.14-.446.041-.446-.227a.96.96 0 0 1 .446-.743z" class="AM"/></g><use xlink:href="#R" class="AE"/><use xlink:href="#R" class="AG AH"/><use xlink:href="#H" x="25.923" y="-38.278" class="AE"/><use xlink:href="#H" x="25.923" y="-38.278" class="AF AG"/><g class="AE"><use xlink:href="#S"/><use xlink:href="#T"/><use xlink:href="#U"/><use xlink:href="#V"/></g><g class="AI"><use xlink:href="#S"/><use xlink:href="#T"/><use xlink:href="#U"/><use xlink:href="#V"/><use xlink:href="#S" class="AF"/><use xlink:href="#T" class="AF"/><use xlink:href="#U" class="AF"/><use xlink:href="#V" class="AF"/><use xlink:href="#W"/><use xlink:href="#X"/><use xlink:href="#Y"/><use xlink:href="#Z"/><use xlink:href="#W" class="AF"/><use xlink:href="#X" class="AF"/><use xlink:href="#Y" class="AF"/><use xlink:href="#Z" class="AF"/><use xlink:href="#a"/><use xlink:href="#b"/><use xlink:href="#c"/><use xlink:href="#b" y="5.816"/><use xlink:href="#a" class="AF"/><use xlink:href="#b" class="AF"/><use xlink:href="#c" class="AF"/><use xlink:href="#b" y="5.816" class="AF"/></g><use xlink:href="#d" class="AE"/><use xlink:href="#d" class="AG AH"/><use xlink:href="#e" class="AE"/><use xlink:href="#e" class="AF AG"/><use xlink:href="#f" class="AE"/><use xlink:href="#f" class="AG AH"/><use xlink:href="#g" class="AE"/><use xlink:href="#g" class="AF AG"/><use xlink:href="#h" class="AE"/><path d="M76.768 116.187l7.938-4.582c.248-.14.446-.041.446.227a.96.96 0 0 1-.446.743l-7.938 4.582c-.248.14-.446.041-.446-.227a.96.96 0 0 1 .446-.743z" class="AI"/><use xlink:href="#i" class="AE"/><path d="M87.442 110.021l7.938-4.582c.248-.144.446-.041.446.227a.95.95 0 0 1-.446.739l-7.938 4.586c-.248.145-.446.041-.446-.223.02-.306.186-.584.446-.747z" class="AI"/><use xlink:href="#j" class="AE"/><g class="AG"><use xlink:href="#h" class="AH"/><use xlink:href="#i" class="AH"/><use xlink:href="#j" class="AH"/></g><path d="M98.117 103.855l7.938-4.582c.248-.145.446-.041.446.223-.021.305-.187.581-.446.743l-7.938 4.582c-.244.144-.446.041-.446-.227a.96.96 0 0 1 .446-.739z" class="AI"/><g transform="translate(50.399 33.883)" clip-path="url(#A)"><path d="M8.384 1.098C3.753 3.707 0 10.208 0 15.616s3.752 7.628 8.384 4.953 8.384-9.172 8.384-14.522-3.757-7.563-8.384-4.949z" class="AS"/><path d="M12.445 17.762l-6.712 1.8a.73.73 0 0 1-.954-.768V7.372a4.58 4.58 0 0 1 3.154-4.239l2.3-.615a2.43 2.43 0 0 1 3.162 2.543v11.43c-.015.582-.393 1.092-.945 1.276z" class="AJ"/><path d="M12.767 20.716l-.706-3.117s0-4.206-.6-4.594a6.9 6.9 0 0 0-.772-.462c.768-.264 2.386-.462 2.89 1.015.483 1.4 1.205 4.834 1.548 6.526z" class="AL"/><use xlink:href="#k" class="AE"/><g opacity=".4"><use xlink:href="#k"/></g><g class="AE"><use xlink:href="#l"/><use xlink:href="#l"/></g><g opacity=".7"><use xlink:href="#l"/></g><path d="M12.528 20.783l-6.6 1.763-.726-2.25s1.928-4.512-.454-5.672c.3-.227 2.84-1.218 2.84-1.218l2.729-.826c.52-.14 2.621.793 3.154 2.861.19.731.124 1.387-.945 5.193a.6.6 0 0 1 .002.149z" class="AE"/><path d="M11.983 3.917c.454.165 1.015 1.238.962 3.827-.045 2.2-.706 2.89-1.036 3.154a3.55 3.55 0 0 1-1.593.376v1.309s.859.826.8 1.453-1.238 1.073-2.039.7c-.585-.33-1.091-.783-1.482-1.329v-3.013c-.122.141-.295.226-.48.238s-.368-.052-.507-.176a1.17 1.17 0 0 1-.285-1.651c.413-.541 1.135-.619 1.416-.078.35-.847.975-1.552 1.775-2a4.91 4.91 0 0 0 2.469-2.81z" class="AK"/><path d="M10.675 7.805a.38.38 0 0 1-.244.363.2.2 0 0 1-.268-.2.38.38 0 0 1 .244-.363.2.2 0 0 1 .268.2z" class="AJ"/><path d="M10.74 9.638l.594.041c-.036.186-.194.324-.384.334-.082-.014-.153-.065-.194-.138s-.047-.16-.016-.237z" class="AL"/><g class="AJ"><path d="M12.772 6.401l-.516-.244c.064-.166.242-.257.413-.211.074.046.126.121.145.206s.003.175-.045.248zm-2.841.967l.516-.524c-.055-.056-.132-.086-.211-.082a.28.28 0 0 0-.202.103c-.147.123-.19.332-.103.503zm2.719-.29c.005.161-.093.307-.244.363a.2.2 0 0 1-.268-.2c-.002-.16.095-.305.244-.363a.2.2 0 0 1 .268.2z"/></g><g class="AL"><path d="M11.447 7.244l.037 1.639.813-.487zm-1.132 4.029c-.652.083-2 .029-2.208-.483a1.05 1.05 0 0 0 .471.6 5.47 5.47 0 0 0 1.738.322z"/></g><g class="AE"><path d="M5.961 22.541l-.277-.982.727.863z"/><use xlink:href="#m"/></g><use xlink:href="#m" opacity=".4"/><use xlink:href="#n" class="AE"/><use xlink:href="#n" opacity=".4"/></g><path d="M20.327 29.396v-8.177h0c-.025-1.585 1.007-3.174 3.1-4.38 4.706-2.39 10.27-2.39 14.976 0 2.093 1.205 3.125 2.795 3.1 4.38h0v8.148a7.14 7.14 0 0 1-3.1 5.6c-4.706 2.39-10.27 2.39-14.976 0-1.846-1.262-2.994-3.318-3.1-5.552h0z" class="AN"/><path d="M30.915 11.072L48.392 21.16 30.915 31.249 13.442 21.16z" class="AP"/><path d="M22.172 26.2l8.607-4.912c.149-.078.332-.024.415.121s.037.331-.105.42l-8.3 4.726z" class="AI"/><path d="M48.388 21.16v.722L30.915 31.967v-.718z" fill="#e6e6e6"/><path d="M13.442 21.16v.722l17.473 10.084v-.718z" class="AO"/><g class="AI"><path d="M21.739 26.671l.532.305c.08-.132.193-.241.326-.318l.186-.107-.607-.347a1.43 1.43 0 0 0-.437.467z"/><path d="M41.524 25.846l-10.609 7.2-10.58-7.187 10.58 6.105z"/></g><path d="M21.058 35.166c.3.155.658.155.958 0l.788 5.09c0 .962-2.5.962-2.5 0z" class="AP"/><path d="M21.012 38.072l-.155 2.79a.8.8 0 0 1-.149-.062zm1.181 2.811l-.33-4.541.491 4.475a1.51 1.51 0 0 1-.161.066zm-.561.092h-.157l.083-3.6z" class="AN"/><path d="M21.533 35.591a.9.9 0 0 0 .508-.173c.13-.096.163-.278.074-.413a.3.3 0 0 0-.413-.078.21.21 0 0 1-.293 0 .31.31 0 1 0-.367.5.85.85 0 0 0 .491.164z" class="AI"/><path d="M21.553 34.799c.082.001.161-.03.219-.088s.091-.136.091-.217v-7.215a.93.93 0 0 1 .462-.8l8.763-4.995c.145-.083.197-.267.116-.413a.3.3 0 0 0-.413-.116l-8.784 5c-.476.275-.771.783-.772 1.333v7.215c.003.081.038.158.098.213s.139.084.22.08z" class="AS"/><path d="M22.23 34.493c.001-.321-.225-.598-.539-.661s-.63.103-.754.399-.022.638.244.818.622.147.85-.079c.127-.126.199-.298.2-.477z" class="AP"/><path d="M20.884 34.531c.057.141.173.251.317.3s.303.033.434-.044a.56.56 0 0 0 0-.962c.351.049.605.361.579.715s-.321.627-.676.625-.647-.28-.667-.634z" class="AN"/><g class="AI"><path d="M141.141 30.509l-3.191-1.837 1.754-.372 1.746 1.218zm-5.585-16.441c0-4.953-3.034-7.253-6.761-5.1l-5.507 3.178c-3.715 2.151-6.757 7.946-6.757 12.916v.9c0 .107.021.194.029.289s.025.219.041.326c.083.587.23 1.162.438 1.717a5.55 5.55 0 0 0 .277.586 2.29 2.29 0 0 0 .157.277l.054.087a2.6 2.6 0 0 0 .318.413c.066.074.128.153.2.223l.215.206c.074.058.144.128.223.186a1.82 1.82 0 0 0 .235.161l.244.14a3.2 3.2 0 0 0 1.011.343c.027-.007.056-.007.083 0 .095 0 .182.021.277.021a1.84 1.84 0 0 0 .3 0 3.3 3.3 0 0 0 .788-.087c.155-.031.307-.07.458-.116h0a6.31 6.31 0 0 0 1.379-.611l5.507-3.178a9.23 9.23 0 0 0 1.082-.735v-.958c-.016-4.22 2.527-9.203 5.709-11.184z"/><path d="M136.485 10.497l-3.2-1.841c.021 0 .326 2.225.326 2.225l2.374.281zm-14.781 21.635l-2.956-1.676 1.779-.764zm1.588-1.957a6.02 6.02 0 0 1-1.127 3.405c-.132.173.07.326.219.248.674-.35 1.272-.832 1.758-1.416a8.96 8.96 0 0 0 1.9-3.827z"/><path d="M122.194 33.82l3.2 1.841a6.15 6.15 0 0 0 1.8-4.582l-3.472-.235c-.066 1.163-.621 2.244-1.528 2.976zm8.52-9.024v.677a.65.65 0 0 0 .025.219c.025.074 0 .165.029.248a5.31 5.31 0 0 0 .256 1.073 1.41 1.41 0 0 0 .066.186 2.45 2.45 0 0 0 .1.244 1.85 1.85 0 0 0 .111.223 1.41 1.41 0 0 0 .116.206l.041.066c.073.114.152.223.239.326a1.46 1.46 0 0 0 .149.169l.157.153a1.79 1.79 0 0 0 .169.14 1.65 1.65 0 0 0 .178.12l.186.107.19.091.2.07h0c.121.037.243.067.367.091h.062a1.13 1.13 0 0 0 .206 0 .99.99 0 0 0 .223 0 2.64 2.64 0 0 0 .528-.054 3.65 3.65 0 0 0 .413-.095 4.77 4.77 0 0 0 1.036-.458l4.128-2.386a6.63 6.63 0 0 0 1.036-.739h0l.347-.314a7.62 7.62 0 0 0 .59-.615l.264-.239.206-.256c.017-.03.038-.058.062-.083a11.69 11.69 0 0 0 .76-1.135l.182-.318.177-.326.169-.33.157-.338.153-.338.235-.6a.4.4 0 0 1 .041-.111l.12-.347.206-.677a12.68 12.68 0 0 0 .326-1.651l.054-.524a1 1 0 0 0 0-.248v-.462c0-3.715-2.274-5.453-5.073-3.839l-4.128 2.39c-2.785 1.606-5.059 5.953-5.059 9.684z"/><path d="M146.466 14.308l-3.174-1.825-1.2.846 3.7 2.241zm-10.897 16.375l-3.191-1.837 2.5-.747z"/></g><path d="M139.292 26.613a2.19 2.19 0 0 0 1.771 1.73c.128.025.095.305-.058.413-.563.306-1.213.413-1.845.305-.835-.025-1.592-.498-1.981-1.238z" class="AE"/><path d="M131.99 10.803l-5.511 3.183c-3.715 2.151-6.753 7.946-6.753 12.912v.908a2 2 0 0 0 .033.285l.041.33a8.05 8.05 0 0 0 .413 1.713 5.61 5.61 0 0 0 .277.59 2.14 2.14 0 0 0 .157.272.82.82 0 0 0 .058.087 2.71 2.71 0 0 0 .314.438c.066.074.132.157.2.223l.211.206c.074.058.149.128.223.186a2.16 2.16 0 0 0 .235.161l.248.14a3.2 3.2 0 0 0 1.007.343c.027-.009.056-.009.083 0h.277a2.5 2.5 0 0 0 .3 0 3.49 3.49 0 0 0 .788-.087c.155-.031.307-.07.458-.116h0c.481-.149.944-.353 1.379-.607h0a5.98 5.98 0 0 1-1.131 3.4c-.132.177.07.33.223.252.675-.351 1.273-.833 1.758-1.42a9.02 9.02 0 0 0 1.9-3.822l-.413.227 3.15-1.816a8.51 8.51 0 0 0 .879-.582 2.69 2.69 0 0 1-.054-.318c0-.07-.025-.173-.033-.281a2.38 2.38 0 0 1-.029-.277v-.05a1.74 1.74 0 0 1 0-.206v-.487c0-4.177 2.477-8.887 5.663-10.732l.351-.206c-.027-4.775-3.028-6.971-6.702-4.849zm11.123 3.748l-4.128 2.386c-2.795 1.618-5.073 5.965-5.073 9.7v.677a.77.77 0 0 0 .021.219 2.3 2.3 0 0 0 .033.244c.045.367.131.729.256 1.077a1 1 0 0 0 .066.186 2.01 2.01 0 0 0 .1.239 2.38 2.38 0 0 0 .111.227c.034.072.074.141.12.206a.33.33 0 0 0 .037.066 4.99 4.99 0 0 0 .239.326c.048.059.099.116.153.169l.157.153a1.79 1.79 0 0 0 .169.14c.054.045.112.085.173.12s.12.074.186.107l.19.091.2.07h0a3.67 3.67 0 0 0 .367.091h.062a1.13 1.13 0 0 0 .206 0c.075.01.152.01.227 0a2.68 2.68 0 0 0 .528-.05 3.8 3.8 0 0 0 .413-.095 4.6 4.6 0 0 0 1.036-.458l1.4-.8c.394.732 1.15 1.197 1.981 1.218a2.86 2.86 0 0 0 1.845-.31c.149-.095.186-.376.054-.413-.89-.156-1.592-.844-1.767-1.73l.627-.363c.368-.214.714-.461 1.036-.739h0a8.38 8.38 0 0 0 .343-.314c.209-.194.408-.399.594-.615.074-.087.149-.169.223-.268s.136-.165.206-.252l.062-.083a11.81 11.81 0 0 0 .76-1.135l.186-.318a7.28 7.28 0 0 0 .177-.326c.057-.111.107-.223.165-.33l.161-.338c.054-.116.1-.231.149-.338.087-.2.169-.413.239-.6l.037-.111c.045-.116.087-.231.12-.347.078-.227.14-.446.211-.677a12.68 12.68 0 0 0 .326-1.651c0-.095.021-.186.029-.281a1.45 1.45 0 0 1 .021-.244 1 1 0 0 0 0-.248v-.462c.04-3.708-2.234-5.43-5.034-3.816z" class="AO"/><path d="M109.951 69.151c-1.56-.487-3.162.776-4.21 3.327a100.2 100.2 0 0 0-3.575 10.77c-.326 1.73 7.055 5.494 6.848 5.4s.937-19.497.937-19.497zm-3.43 60.047c-.223.083-.277.5-.31 1.337-.025.632-.161 1.734.578 1.952.798.266 1.678.08 2.3-.487.59-.743.991-1.4 1.833-2.3a6.38 6.38 0 0 0 1.82-2.621c.268-1 .045-1.428-.636-1.717-.933-.413-2.4.9-3.133 1.106-.632.175-2.233 2.648-2.452 2.73z" class="AR"/><path d="M106.521 128.427v1.024a2.51 2.51 0 0 0 2.588.07c.045-.1.268-1.465.268-1.465z" class="AK"/><path d="M114.814 135.102s-.293.892-.45 1.651c-.198.69-.229 1.417-.091 2.122.215.471 1.065.768 2.374.755a7.82 7.82 0 0 1 3.079 1.077 8.34 8.34 0 0 0 3.876.615c.993-.075 1.916-.543 2.563-1.3.19-.471-.062-.987-2.811-2.159-.025 0-3.822-1.238-5.156-2.712z" class="AR"/><path d="M114.814 133.995v1.193c0 .433.512 1.081 1.841 1.036.933-.033 1.581-.285 1.544-1.053v-1.106z" class="AK"/><path d="M105.853 114.834c.228-1.814.633-3.602 1.209-5.337 0 0-.363-4.6-.541-8.966-.19-4.714 0-10.642-.078-11.814 0 0 15.211-3.079 15.484 2.369s-.6 19.318-.78 21.713-.594 4.512-1.09 8.392-1.858 12.871-1.858 12.871a3.59 3.59 0 0 1-3.385-.066c0 0-1.069-10.9-.958-13.659.087-2.051.44-4.082 1.049-6.043l-.541-8.4-.586-7.484-.326-.165-.512 9.139c-.178 2.394-.561 4.689-1.238 9.135-.6 3.855-2.39 12.016-2.39 12.016a2.28 2.28 0 0 1-2.774-.12s-1.149-10.238-.685-13.581z" class="AQ"/><path d="M113.778 98.421c-1.958-.961-3.813-2.12-5.535-3.459a12.21 12.21 0 0 0 3.967 3.488c0 0 .8 8.375.8 8.21l.462-8.256z" class="AJ"/><path d="M117.063 67.43l-.9 4.953-4.475-.326.937-5.618z" class="AK"/><path d="M106.964 71.694a3.73 3.73 0 0 1 3.86-2.477c2.542.43 5.046 1.055 7.492 1.87 1.564.557 2.989 1.911 3.121 7.063l.791 15.336-1.895.413-.66-3.476-.305 3.476c-1.981.5-5.42.087-7.678-.413-4.706-1.028-5.271-2.98-5.271-2.98l.078-12.359a38.66 38.66 0 0 1 .467-6.453z" class="AJ"/><g class="AK"><path d="M120.374 61.56s1.086 1.606.945 1.775c-.251.169-.531.291-.826.359z"/><path d="M117.064 56.474c1.044.528 2.848 1.5 3.344 5.321.512 3.921-.161 5.185-.689 5.7-.359.351-2.307.372-3.282.078-1.238-.367-3.971-1.412-5.226-3.426-1.478-2.369-1.808-5.544-.14-6.807 1.716-1.299 3.979-1.626 5.993-.866z"/></g><g class="AJ"><path d="M120.628 57.787c-.343.941-.921 3.244-3.323 4.206 0 0-.343-1.47-1.577-1.313s-1.445 1.73-.685 2.708 1.494.623 1.494.623a3.67 3.67 0 0 1-1.238 3.059 3.94 3.94 0 0 1-3.492.248c-.826-.372-1.953-2.307-2.621-3.9-1.42-3.36-1.622-6.056.52-6.906a2.54 2.54 0 0 1 2.336-2.386c2.976-.615 5.226 1.342 7.727 1 1.307-.175 1.249 1.588.859 2.661z"/><path d="M109.654 57.028l-1.4-.867c.142-.277.427-.45.738-.449s.595.177.734.455.112.61-.073.861z"/></g><path d="M116.734 69.233l.512 1.482s-.376.66-1.973.693-3.3-.475-3.831-1.156a1.21 1.21 0 0 1-.3-.995c0 0 .636-1.4 1.238-1.342l-.1.611s.136.5 1.585.883c2.26.6 2.869-.176 2.869-.176z" class="AQ"/><path d="M129.571 79.083c.644-.739.892-2.378 1.75-3.5s1.176-1.944 1.515-1.453c.45.648-.566 1.948-.338 2.064.593.83.987 1.784 1.152 2.79.087.949-2.431 3.344-2.431 3.344z" class="AK"/><path d="M116.734 69.234c.212-.004.408.108.512.293.252.456.479.926.677 1.408l-.677-.219z" class="AQ"/><path d="M132.428 76.061c1.158-.133 2.326-.133 3.484 0 .442.264.31 1.581 0 2.39s-1.862 1.333-3.3 2.307l-.184-4.697z" class="AK"/><path d="M117.922 70.951c1.653.488 3.001 1.691 3.674 3.278l4.541 7.661 3.422-3.017s.516-.5 1.478 1.09a3.3 3.3 0 0 1 .351 2.931l-4.706 5.341c-.756.705-2.006.157-2.819-.954l-5.952-7.529s-2.791-3.707.011-8.801zm35.298-7.707h-9.746c-.766 0-1.387-.621-1.387-1.387V46.373a4.59 4.59 0 0 1 1.346-3.248c.862-.861 2.03-1.346 3.248-1.346h3.344c2.533.007 4.582 2.061 4.582 4.594v15.484c0 .766-.621 1.387-1.387 1.387z" class="AJ"/><path d="M141.831 57.96c-.945 2.786-2.53 10.8-2.53 10.8s-3.3 4.037-4.38 5.015c-.59.545-1.919 1.523-1.919 1.523l2.415 1.775a53.61 53.61 0 0 0 6.126-5.511 3.5 3.5 0 0 0 .859-1.6l1.651-7.083s0-5.7.871-6.444a12.5 12.5 0 0 1 1.123-.9c-1.12-.085-3.472.233-4.216 2.425z" class="AL"/><g class="AE"><path d="M146.562 55.451c-1.54-.178-3.513-.144-4.475 1.577s-2.563 10.621-2.563 10.621c.914.686 2.009 1.088 3.15 1.156z"/><use xlink:href="#o"/></g><use xlink:href="#o" opacity=".3"/><path d="M147.383 110.884a1.49 1.49 0 0 1-.219.867c-.408.675-.888 1.303-1.432 1.874-.764.826-1.907 1.8-2.729 2.51-.454.413-.471 1 .182 1.209 1.216.296 2.499.117 3.587-.5.826-.438 1.973-2.477 2.65-2.766.558-.169 1.065-.472 1.478-.883.411-.42.478-1.069.161-1.564-.367-.685-.92-1.738-1.148-1.618l.07.215c-.599.741-1.528 1.135-2.477 1.053z" class="AJ"/><path d="M155.338 87.594c.351-3.715 1.358-9.692.326-14.117l-13.7.727c-.38 4.363-.826 17.985-.347 19.545.553 1.841 5.494 14.584 5.779 17.147a1.42 1.42 0 0 1-.219.854c-.408.676-.888 1.306-1.432 1.878a14.59 14.59 0 0 1-1.3 1.238c-.04.059-.064.128-.07.2 0 .413 1.04.541 1.651.363a3.8 3.8 0 0 0 1.874-1.441c.351-.466 1.139-1.362 1.651-2.035a3.39 3.39 0 0 0 .433-.677c.137-.302.16-.644.066-.962l-.033-.1c-.269-.835-.437-1.7-.5-2.576-.19-2.811-.673-9.3-1.119-11.034a15.14 15.14 0 0 0-1.4-3.616l1.564-12.173s.165 10.732.652 13.469c.384 2.192.533 4.933.982 8.693.413 3.6.892 9.94.892 9.94a.1.1 0 0 0 .037 0v3.03h2.563v-1.758c.001-.794.068-1.586.2-2.369.413-2.394 1.271-7.872 1.449-9.725a21.54 21.54 0 0 0-.78-6.633l.781-7.868z" class="AK"/><use xlink:href="#p" class="AE"/><use xlink:href="#p" class="AG AM"/><path d="M151.098 114.66v-.364c-.322 1.234-.966 2.361-1.866 3.265a8.04 8.04 0 0 0-2.229 2.452c-.289.838 1.325 1.214 2.39 1.106a4.28 4.28 0 0 0 2.675-1.4c.391-.539.719-1.121.978-1.734.314-.429 1.044-.9 1.214-1.4.053-.462.002-.93-.149-1.37-.12-.458-.252-.966-.413-.925v.285c-.37.291-.829.447-1.3.442-.363.01-1.304-.068-1.3-.357z" class="AJ"/><path d="M153.687 114.57a2.07 2.07 0 0 1-1.3.442c-.38 0-1.3-.062-1.3-.351v-.368a7.21 7.21 0 0 1-1.866 3.265l-.623.557c-.438.487-.314.912.714 1a3.26 3.26 0 0 0 2.708-1.486c.66-.959 1.219-1.984 1.667-3.059zm-9.544-70.261c-.66.392-1.478 2.064-1.4 5.54.07 2.956 1.028 3.686 1.511 3.9.764.155 1.553.132 2.307-.066v1.766s-1.238 1.449-1.168 2.262 1.8 1 2.968.211a9.4 9.4 0 0 0 2.147-2.345l-.021-4.074s.533.512 1.432-.272c.754-.533.938-1.573.413-2.332a1.29 1.29 0 0 0-2.064.413 3.91 3.91 0 0 0-2.576-2.064c-1.873-.623-2.893-1.329-3.549-2.939z" class="AK"/><path d="M146.046 49.11c0 .203.163.369.366.373s.372-.158.378-.361-.153-.374-.356-.383a.38.38 0 0 0-.388.371z" class="AJ"/><path d="M145.947 51.612l-.863.277a.44.44 0 0 0 .557.31.48.48 0 0 0 .306-.587z" class="AL"/><path d="M143 47.967l.751-.52a.44.44 0 0 0-.627-.128c-.209.147-.264.434-.124.648zm4.127.28l-.755-.52c.064-.102.167-.174.286-.199a.44.44 0 0 1 .341.067.49.49 0 0 1 .128.652zm-3.954.59c-.003.204.16.372.364.377a.37.37 0 0 0 .38-.36c.006-.204-.152-.375-.356-.384a.38.38 0 0 0-.388.367z" class="AJ"/><path d="M144.923 48.627l-.058 2.237-1.176-.363zm1.639 5.052c.949-.128 2.89-.689 3.211-1.461a2.01 2.01 0 0 1-.685.987c-.791.465-1.641.823-2.526 1.065z" class="AL"/><path d="M153.294 65.935l-2.6 3.525 1.965-1.259z" class="AE"/><path d="M132.775 75.301a19.72 19.72 0 0 0-1.193 2.584c-.293.471-.644.879 0 .966s1.585-1.172 1.936-1.936c.178-.431.513-.777.937-.97-.3-.1-.144-1.313-.355-1.482 0 0-1.098.45-1.325.838zm-.166 5.449c.582-.433.6-.966.714-1.812s2.444-1.763 2.518-1.131a1.9 1.9 0 0 1-.413 1.928c-.697.767-1.754 1.584-2.819 1.015z" class="AL"/><path d="M150.508 55.578c1.39.098 2.771.306 4.128.623.677.322 1.8 2.27.8 5.1s-1.923 6.153-1.823 6.817a29.78 29.78 0 0 0 2.51 4.128 6.54 6.54 0 0 1-2.213 1.061l-1.238-2.691.289 2.861c-1.243.302-2.521.441-3.8.413 0 0-1.171-10.985 1.347-18.312z" class="AE"/><path d="M159.011 69.056c.277-1.626 0-2.159-.57-3.752l-2.889 1.87a6.07 6.07 0 0 1 .413 1.882 44.08 44.08 0 0 1-1.263 6.761 1.24 1.24 0 0 1-.594.669c-.595.364-1.134.811-1.6 1.329-.442.413-.8.487-.751.627.141.315.497.473.826.367a4.91 4.91 0 0 0 1.028-.471 6.3 6.3 0 0 1-1.131 1.651c-1.061 1.131-1.156 1.866.826 2.019 1.238.095 2.274-.6 3.393-3.261.346-.976.632-1.973.854-2.984l1.458-6.707z" class="AK"/><path d="M154.636 56.202c1.391.623 1.787 1.853 2.3 3.661l2.134 7.232c-.817.945-2.068 1.396-3.3 1.189l-2.477-6.014s-1.155-3.926 1.343-6.068z" class="AE"/></svg>