<svg xmlns="http://www.w3.org/2000/svg" xmlns:xlink="http://www.w3.org/1999/xlink" width="180.162" height="164.531" xmlns:v="https://vecta.io/nano"><style><![CDATA[.AK{fill:#263238}.AL{fill:#207178}.AM{fill:#455a64}.AN{opacity:.1}.AO{fill:#37474f}.AP{fill:#ffa8a7}.AQ{fill:#ebebeb}.AR{fill:#fff}.AS{opacity:.2}.AT{opacity:.6}.AU{opacity:.3}.AV{fill:#f28f8f}.AW{opacity:.5}.AX{fill:#ffc4c3}.AY{fill:#ffbda7}.AZ{fill:#f5f5f5}.Aa{fill:#b16668}.Ab{fill:#9a4a4d}.Ac{fill:#e0e0e0}]]></style><ellipse cx="90.081" cy="112.523" rx="90.081" ry="52.008" class="AZ"/><g fill="#e6e6e6"><ellipse cx="154.675" cy="119.309" rx="17.813" ry="10.285"/><ellipse cx="23.311" cy="117.862" rx="18.598" ry="10.737"/><path d="M122.551 113.98a1.63 1.63 0 0 1-.8-.2l-16.479-9.515a.77.77 0 0 1-.441-.732c.014-.31.212-.583.503-.691l14.793-6.832a1.92 1.92 0 0 1 .773-.159 1.98 1.98 0 0 1 .982.24l13.239 7.629a.86.86 0 0 1 .077 1.516l-11.685 8.441a1.64 1.64 0 0 1-.963.29zm-67.416-2.257a1.58 1.58 0 0 0 .8-.2l16.483-9.515a.77.77 0 0 0 .439-.733c-.015-.31-.213-.582-.505-.69l-14.789-6.828a1.89 1.89 0 0 0-.773-.159 1.99 1.99 0 0 0-.982.24l-13.223 7.636a.92.92 0 0 0-.491.738.91.91 0 0 0 .418.773l11.685 8.441a1.65 1.65 0 0 0 .963.29z"/><path d="M32.652 122.665l53.064 30.623a1.78 1.78 0 0 0 1.6 0l54.459-31.469a.49.49 0 0 0 0-.928l-53.06-30.623c-.506-.255-1.102-.255-1.608 0l-54.459 31.458c-.212.058-.359.25-.359.47s.147.412.359.47z"/></g><path d="M131.724 84.046v20.492a.58.58 0 0 0 .259.452l.7.387a.58.58 0 0 0 .518 0l.7-.387a.58.58 0 0 0 .259-.452V84.046c.002-.08-.029-.157-.086-.214s-.134-.088-.214-.086h-1.837a.3.3 0 0 0-.3.3z" class="AK"/><path d="M133.862 83.748h-.619a.3.3 0 0 0-.3.3v21.223c0 .166.116.232.259.151l.7-.387a.58.58 0 0 0 .259-.452V84.088c.014-.087-.012-.175-.07-.241s-.142-.102-.23-.099z" class="AO"/><path d="M119.962 90.813v20.492a.57.57 0 0 0 .259.449l.7.387a.58.58 0 0 0 .518 0l.7-.387a.57.57 0 0 0 .259-.449V90.813a.3.3 0 0 0-.3-.3h-1.837a.3.3 0 0 0-.299.3z" class="AK"/><path d="M122.096 90.511h-.619a.3.3 0 0 0-.3.3v21.2c0 .166.116.232.259.151l.7-.387a.57.57 0 0 0 .259-.449V90.84a.3.3 0 0 0-.3-.329z" class="AO"/><path d="M120.743 75.764c.073.603-.353 1.152-.955 1.23h-.139c-.554-.004-1.02-.417-1.09-.967-.63-5.061.271-16.378 2.436-22.758.091-.29.318-.517.608-.608s.606-.032.846.156h0c.456.263.773.665.615 1.16-2.077 6-2.933 16.911-2.321 21.787z" class="AM"/><path d="M133.491 78.676c.075 0 .149-.012.22-.035a.7.7 0 0 0 .445-.882c-1.62-4.93-9.593-9.318-14.739-9.318a.7.7 0 0 0 0 1.4c4.64 0 11.986 4.052 13.413 8.355a.7.7 0 0 0 .661.479zm.754-6.392c.073 0 .146-.012.216-.035a.7.7 0 0 0 .449-.882c-1.686-5.123-9.9-9.28-15.021-8.742a.7.7 0 0 0 .143 1.392c4.539-.46 12.071 3.3 13.533 7.787a.7.7 0 0 0 .68.48zm1.558-5.065a.72.72 0 0 0 .282-.058.7.7 0 0 0 .36-.924c-2.413-5.49-10.989-10-15.628-9.357a.7.7 0 1 0 .189 1.388c4.1-.568 11.986 3.627 14.159 8.533a.69.69 0 0 0 .638.418z" class="AO"/><path d="M137.581 61.342a1.1 1.1 0 0 1 .452 1.388 53.88 53.88 0 0 0-3.866 21.022v1.059l-.085.089a.44.44 0 0 1-.332.135 1.3 1.3 0 0 1-.46-.112c-.073-.028-.148-.051-.224-.07a1.1 1.1 0 0 1-1.1-1.1 55.99 55.99 0 0 1 4.044-21.892 1.1 1.1 0 0 1 1.547-.522z" class="AM"/><path d="M134.16 84.557v.267c-.028.495-.262.955-.646 1.268L121.83 94.54a1.34 1.34 0 0 1-1.342.07l-16.485-9.516c-.407-.269-.663-.713-.692-1.2v-.275c.025-.481.301-.913.727-1.137l14.789-6.828a1.73 1.73 0 0 1 1.419.062l13.219 7.64c.408.268.666.713.695 1.201z" class="AO"/><path d="M133.468 83.354l-13.219-7.64a1.73 1.73 0 0 0-1.419-.062l-14.794 6.828c-.387.186-.418.514-.035.738l16.483 9.515a1.34 1.34 0 0 0 1.342-.07l11.684-8.441a.48.48 0 0 0-.046-.87z" class="AL"/><path d="M113.439 99.724c.294.2.634.441.669.773.057.701-.112 1.402-.483 2a6.42 6.42 0 0 0-.6 3.306c.07.967.487 3.375-.507 4.566s-3.781 2.27-4.149.522 1.678-9.183 1.678-9.183z" class="AK"/><path d="M112.066 101.182c-.229 1.322-.358 2.659-.387 4 0 1.462-.209 2.536-.847 3.062s-1.717.681-1.516-.356.719-6.186.719-6.186z" class="Ab"/><path d="M114.599 74.136s-6.144 3.793-8.6 5.854-3.286 2.9-3.584 4.214c-.317 1.384.557 3.631 2.034 7.482l3.031 7.184 3.569-11.572 7.284-6.743z" class="AM"/><path d="M108.853 110.918c.267.1.356.688.421 1.117s.487.92 0 1.7-1.5 1.059-2.157 2.127-.99 2.525-3.271 3.128-4.079-.077-4.543-.742-.112-1.338 1.322-2.25l1.956-1.257z" class="AK"/><path d="M106.142 106.294l-1.578 4.586c-.479 1.35-1.202 2.601-2.134 3.689-.244.286-.8.816-1.005 1.048-.096.091-.147.221-.138.353s.076.254.184.331c.507.479 2.637.588 3.828-.309a18.92 18.92 0 0 0 2.463-2.865l.936-.959c.234-.244.324-.593.236-.92l-.081-.329c-.166-.688.735-3.515.735-3.515z" class="Aa"/><path d="M129.469 74.217c1.187 2.567.692 5.386-.081 7.733s-3.867 4.953-6.538 6.538-6.786 3.515-7.586 3.866-.885.843-.773 2.378-.406 4.037-2.1 7.18l-2.807 5.475a3.55 3.55 0 0 1-3.592-.866s2.857-15.168 3.534-17.171 8.193-8.506 8.193-8.506a40.64 40.64 0 0 1-3.132-6.735z" class="AM"/><path d="M108.482 90.333c.414-2.022 1.895-3.619 3.314-4.968l5.181-4.717c-.316-.705-.566-1.437-.746-2.188l1.114 1.864h0l.329.479.05.07h0l-.031.039c-.445.387-7.516 6.534-8.174 8.471-.387 1.114-1.423 6.283-2.281 10.66.076-.67.857-7.781 1.244-9.71z" class="AT"/><path d="M120.324 53.253l-15.539-1.705s-9.473-5.413-10.354-7.08c-.978-1.84-1.284-4.69-1.84-6.418s-2.54 1.933-1.33 7.822c.174.831 1.284 1.26 2.1 2.2a56.86 56.86 0 0 0 8.232 7.126c1.153.851 2.503 1.395 3.924 1.581l14.051 1.833z" class="Aa"/><path d="M115.12 64.413c-.213 1.956-.947 10.1-.947 10.1 4.211 3.395 13.606 2.649 15.315-.085a34.1 34.1 0 0 1-1.86-5.885l1.384-5.641a8.61 8.61 0 0 1-.367-8.386l-3.538-.63-4.914-.728-2.13-.143s-2.9 3.128-3.685 5.142c-.507 1.301-1.512 3.607.742 6.256z" class="AL"/><path d="M128.209 70.811l-.124-.429-.456-1.844 1.384-5.641h0c-.023-.023-.116-.224-.174-.29h0a5.46 5.46 0 0 1-1.04-4.315h0s-1.029 3.418.089 5.057l-1.056 4.74-1.527 2.223 1.852-.727c.307 1.146.551 2.308.731 3.48.043.665-1.547 2.873-4.9 3.72 3.012-.135 5.688-.994 6.527-2.32h0c-.51-1.19-.946-2.41-1.306-3.654z" class="AN"/><path d="M137.441 69.763c-.738-2.881-3.673-9.28-4.562-11.6-1.017-2.645-2.455-3.638-4.346-3.665-.7.9-1.933 5.981.46 8.483.913 1.933 3.867 7.683 3.867 7.683-.07.518-2.293 7.1-3.093 8.862a1.4 1.4 0 0 1-.719.688 8.09 8.09 0 0 0-1.9 1.342c-.526.387-.932.468-.893.63.136.369.527.576.909.483.41-.097.807-.242 1.183-.433a7.03 7.03 0 0 1-1.411 1.763c-1.28 1.16-1.214 2.138.97 2.486 1.369.217 2.587-.464 4.071-3.329a36.11 36.11 0 0 0 1.4-3.128c1.017-2.594 2.107-4.133 2.815-5.85 1.106-2.71 1.535-3.321 1.249-4.415z" class="Aa"/><g class="AK"><path d="M120.75 50.489l2.6.07c1.737.046 3.421-.601 4.681-1.798s1.992-2.845 2.035-4.582h0c.057-2.081-.715-4.099-2.146-5.61s-3.405-2.392-5.486-2.448h0c-2.081-.057-4.099.715-5.61 2.146s-2.392 3.405-2.448 5.486h0c-.051 1.74.593 3.428 1.79 4.691s2.847 1.999 4.586 2.044z"/><path d="M128.796 40.378l1.933-.684a1 1 0 0 0-1.291-.665c-.538.208-.82.8-.642 1.349z"/><path d="M128.816 39.876l.6-1.976a1 1 0 0 0-1.3.65c-.158.558.15 1.142.7 1.326z"/></g><path d="M117.51 39.516c-.843.464-1.933 2.521-1.933 6.894 0 3.7 1.16 4.64 1.755 4.934.953.227 1.947.227 2.9 0l-.031 1.825s-2.03 1.933-1.956 2.962 2.606 1.547 4.095.6c1.078-.783 2.017-1.743 2.776-2.838l.108-5.135s.65.665 1.8-.29c.955-.773 1.307-2.154.6-2.911-.372-.365-.897-.528-1.411-.44s-.954.417-1.183.885a11.04 11.04 0 0 1-3.839-1.74c-1.763-1.082-3.072-2.769-3.681-4.746z" class="Aa"/><path d="M124.652 47.202l.6-1.976a1.01 1.01 0 0 0-1.3.65c-.16.558.149 1.143.7 1.326zm-4.638-1.983c-.022.26.169.489.429.514a.48.48 0 0 0 .478-.252c.093-.174.071-.387-.055-.538s-.332-.211-.519-.15-.319.229-.333.426z" class="AK"/><path d="M119.52 48.73l-1.094.313a.56.56 0 0 0 .7.387.59.59 0 0 0 .4-.7z" class="Ab"/><path d="M116.06 44.129l.959-.63a.55.55 0 0 0-.773-.182.6.6 0 0 0-.186.812zm.158 1.009c-.01.254.186.468.44.481s.47-.18.487-.433-.174-.473-.427-.493a.47.47 0 0 0-.5.445z" class="AK"/><path d="M118.771 44.94l-.058 3.039-1.462-.5zm1.453 6.396c1.195-.124 3.662-.773 4.071-1.717a2.5 2.5 0 0 1-.893 1.21 12.92 12.92 0 0 1-3.2 1.249z" class="Ab"/><path d="M133.974 53.284h0c-2.683.002-4.861-2.169-4.868-4.852v-8.2h0a4.87 4.87 0 0 1 4.868 4.868zM45.706 81.398v20.513a.58.58 0 0 1-.259.452l-.7.387a.59.59 0 0 1-.522 0l-.7-.387a.58.58 0 0 1-.259-.452V81.398a.3.3 0 0 1 .3-.3h1.821a.3.3 0 0 1 .317.3z" class="AK"/><path d="M43.567 81.1h.619a.3.3 0 0 1 .3.3v21.219c0 .166-.116.232-.259.151l-.7-.387a.58.58 0 0 1-.259-.452V81.398a.3.3 0 0 1 .299-.298z" class="AO"/><path d="M57.479 88.171v20.516c-.012.184-.109.351-.263.452l-.7.387a.58.58 0 0 1-.518 0l-.7-.387a.58.58 0 0 1-.259-.452V88.171a.3.3 0 0 1 .3-.3h1.84a.3.3 0 0 1 .3.3z" class="AK"/><path d="M55.337 87.87h.622a.3.3 0 0 1 .3.3v21.219c0 .166-.116.232-.259.151l-.7-.387a.58.58 0 0 1-.259-.452V88.17a.3.3 0 0 1 .3-.3z" class="AO"/><path d="M56.694 73.104c-.034.29.046.581.224.812a1.09 1.09 0 0 0 .735.418h.135c.555.002 1.024-.412 1.09-.963.634-5.065-.267-16.394-2.432-22.777-.091-.291-.319-.519-.61-.609s-.608-.032-.848.157h0c-.456.263-.773.665-.615 1.16 2.078 6.023 2.932 16.93 2.321 21.802z" class="AM"/><path d="M43.935 76.023a.7.7 0 0 1-.665-.92c1.624-4.934 9.6-9.322 14.751-9.322a.7.7 0 0 1 0 1.4c-4.64 0-11.986 4.056-13.421 8.363a.7.7 0 0 1-.665.479zm-.751-6.394c-.075 0-.149-.012-.22-.035a.7.7 0 0 1-.445-.885c1.686-5.127 9.9-9.28 15.029-8.746a.7.7 0 1 1-.143 1.392c-4.543-.46-12.079 3.3-13.556 7.791a.7.7 0 0 1-.665.483zm-1.558-5.068a.67.67 0 0 1-.282-.062.7.7 0 0 1-.36-.92c2.413-5.494 11-10.01 15.64-9.365a.7.7 0 1 1-.189 1.388c-4.106-.572-12.009 3.631-14.167 8.537a.71.71 0 0 1-.642.421z" class="AO"/><path d="M39.848 58.674a1.1 1.1 0 0 0-.452 1.392 54 54 0 0 1 3.862 21.042v1.059l.085.089a.44.44 0 0 0 .333.135 1.32 1.32 0 0 0 .46-.112 1.58 1.58 0 0 1 .224-.07 1.1 1.1 0 0 0 1.1-1.1 56.06 56.06 0 0 0-4.044-21.907 1.1 1.1 0 0 0-1.547-.522z" class="AM"/><path d="M43.266 81.908v.267c.027.497.263.959.65 1.272l11.692 8.452a1.34 1.34 0 0 0 1.342.07l16.494-9.512c.41-.267.669-.712.7-1.2v-.275c-.026-.48-.302-.911-.727-1.137l-14.8-6.836a1.73 1.73 0 0 0-1.419.066l-13.242 7.631c-.407.269-.662.715-.69 1.202z" class="AO"/><path d="M43.957 80.706l13.231-7.644a1.73 1.73 0 0 1 1.419-.066l14.8 6.836c.387.186.414.514.031.735L56.944 90.09a1.34 1.34 0 0 1-1.342-.066L43.91 81.576a.48.48 0 0 1 .043-.87z" class="AL"/><path d="M64.748 112.028h-3.24v-5.641h3.24zm9.952-5.564l3.379.178-.081-.681-.031-.507-.309-4.957-3.685.131.526 4.945.035.379z" class="AP"/><path d="M64.74 111.135v-.278c.418 0 1.9 3.14 3.321 4.435 1.129 1.028 3.116 2.44 3.066 3.418-.062 1.26-1.86 1.817-3.41 1.454a8.43 8.43 0 0 1-3.774-1.914 17.99 17.99 0 0 1-1.547-2.66c-.449-.584-1.434-1.241-1.67-1.933a4.37 4.37 0 0 1 .2-1.879c.178-.688.348-1.33.565-1.272v.387c.509.403 1.141.617 1.79.607.543.034 1.463.034 1.459-.365zm13.231-5.68c.17 0 .329.217.742.588a8.29 8.29 0 0 0 2.32 1.16c1.284.5 4.578 1.036 5.7 1.423.7.244.63 1.307-.275 1.984-1.529.791-3.265 1.095-4.972.87-1.125-.147-2.873-.773-3.7-.812a10.16 10.16 0 0 1-3.294-.479c-.711-.4-.537-1.415-.425-2.277.124-.947.112-2.382.425-2.347l.035.387c.449.561 2.637.526 3.48 0z" class="AK"/><use xlink:href="#B" class="AL"/><use xlink:href="#B" class="AU"/><path d="M60.359 79.84s1.578-.773 2.981-3.758c-.101 1.074-.431 2.115-.967 3.051-.63.986 9.187 7.609 9.187 7.609z" opacity=".35"/><path d="M59.83 49.461l16.193-.116s10.737-3.232 11.626-4.876c.978-1.84 1.284-4.69 1.84-6.418.418-1.288 1.574-.634 1.423 3.665a22.17 22.17 0 0 1-.093 4.156c-.174.831-1.067 1.508-2.1 2.2a78.72 78.72 0 0 1-9.666 5.274 10.8 10.8 0 0 1-4.377.951l-11.213.677z" class="AP"/><use xlink:href="#C" class="AL"/><use xlink:href="#C" class="AN"/><path d="M53.384 49.414l-5.026 1.326v10.838l.066 13.873c2.32 2.54 14.078 1.384 15.516-4.017V55.195c0-2.594-1.442-5.711-5.413-5.943z" class="AZ"/><path d="M48.365 63.825l2.351-6.658-2.3 14.642z" class="AN"/><path d="M52.259 36.133a1.78 1.78 0 0 0-1.469.518c-.63.646-.5 1.84 0 4.582l1.945.24zm11.367-.793c.42.001.836-.083 1.222-.247.6-.344.754.336.425.928a2.79 2.79 0 0 1-2.262 1.508c-.019-.085-.561-1.523-.561-1.523z" class="AK"/><path d="M53.171 41.473c-.286.17-.7-.387-1.059-.773a1.25 1.25 0 0 0-2.1.34c-.393 1.271.22 2.635 1.431 3.186 1.581.495 1.821-.518 1.821-.518l.12 5.7a5.09 5.09 0 0 0 3.839 2.911c2.8.379 2.223-1.933 1.3-3.062v-1.736c.704.112 1.418.148 2.13.108a2.9 2.9 0 0 0 2.25-2.355c.765-2.442.932-5.031.487-7.551-.526-4.358-5.8-4.481-8.506-2.757s-1.713 6.507-1.713 6.507z" class="AP"/><g class="AK"><path d="M53.171 41.948c-.143 0-.7-.916-1.059-1.245-.5-.456.147-4.57.147-4.57a2.8 2.8 0 0 1 .483-2.594c.99-1.048 2.9-.858 4.3-.909 1.718.011 3.42-.331 5-1.005 1.984-.862 2.134-.963 2.378-.093.385 1.459.074 3.013-.843 4.211l-.986.36c-.719.44-1.543.682-2.386.7-1.71.127-3.428.093-5.131-.1-.537-.073-.653.445-.943 1.868-.237 1.251-.468 3.366-.96 3.377z"/><path d="M52.261 36.447l-1.752-.94c.114-.238.319-.419.57-.501s.523-.059.756.064c.487.272.674.878.426 1.377z"/></g><path d="M58.535 47.531a19.85 19.85 0 0 1-3.5-1.005 2.97 2.97 0 0 1-1.253-1.241 4.12 4.12 0 0 0 .711 1.465c.665.847 4.044 1.473 4.044 1.473z" class="AV"/><path d="M58.863 40.939a.52.52 0 0 1-.537.499.52.52 0 0 1-.507-.529.52.52 0 0 1 .521-.515c.294.008.526.251.522.545zm-.495-2.149l-1.233.305c-.069-.344.141-.682.479-.773a.62.62 0 0 1 .754.468z" class="AK"/><path d="M58.979 44.381l1.187.445c-.054.158-.168.288-.319.361s-.324.082-.481.026c-.33-.13-.501-.496-.387-.832z" class="AV"/><path d="M63.259 39.101l-1.206-.437c.052-.16.166-.291.317-.364a.62.62 0 0 1 .483-.023.68.68 0 0 1 .406.824zm-.417 1.743a.52.52 0 0 1-.537.499.52.52 0 0 1-.507-.529.52.52 0 0 1 .521-.515c.295.007.528.25.522.545z" class="AK"/><path d="M60.046 40.549l.174 3.128 1.632-.557z" class="AV"/><path d="M42.771 68.608c-.193-.928 1.879-10.107 2.707-13.011l4.033 4.226-2.4 8.893c.225 2.183.67 4.337 1.33 6.43.142.377.417.69.773.878a9.59 9.59 0 0 1 2.111 1.755c.576.53 1.048.638.99.824a.89.89 0 0 1-1.114.483 6.45 6.45 0 0 1-1.353-.619 8.31 8.31 0 0 0 1.489 2.2c1.4 1.489 1.52 2.455-1.079 2.652-1.628.128-3-.773-4.466-4.3a42.95 42.95 0 0 1-1.353-3.808c-.676-2.172-1.233-4.379-1.666-6.612z" class="AP"/><use xlink:href="#D" class="AL"/><use xlink:href="#D" class="AN"/><g class="AK"><use xlink:href="#E"/><use xlink:href="#E" x="4.876"/><path d="M59.565 40.7c.197-.273.511-.436.847-.441a.86.86 0 0 1 .739.282l.213-.162a1.1 1.1 0 0 0-.967-.387 1.3 1.3 0 0 0-1.059.572zm-7.306.154h4.021v-.259H52a.92.92 0 0 1 .259.259z"/></g><path d="M153.418 37.447c-3.592-.336-5.7 2.088-6.84 4.532-1.373 2.958-3.866 9.33-3.866 9.33l-12.033 2.088 1.052 3 11.433-.3c1.365-.073 2.482.139 3.294-1.237s3.812-9.457 3.812-9.457z" class="AX"/><path d="M153.418 37.448s-2.664-.541-4.145.5c-1.96 1.376-2.533 3.136-3.538 5.282l-1.694 3.979s2.784 3 5.231 2.649 4.146-12.41 4.146-12.41z" class="AO"/><path d="M130.663 53.397a7.61 7.61 0 0 0-5.6 3.406c-.794.917-.807 2.273-.031 3.205.843 1 1.291.831 2.981-1.025.563-.703 1.271-1.275 2.076-1.678.228 0-.773 1.086-.232 1.837s.955-.6 1.307-1.032c.658-.755 1.049-1.707 1.11-2.707m29.171 55.787l3.663-.105.18 6.276-3.663.105z" class="AX"/><path d="M161.573 115.655v-.522c-.344.162-1.071 3.294-2.49 4.663-1.125 1.086-2.668 2.351-3.035 3.538s2.25 1.837 3.325 1.612c1.249-.255 3.4-1.2 3.924-2.038s.742-2.049 1.16-2.664 1.431-1.315 1.651-2.014c.054-.656-.036-1.315-.263-1.933-.2-.715-.387-1.353-.615-1.284v.387a2.91 2.91 0 0 1-1.813.673c-.534.061-1.837-.009-1.844-.418z" class="AK"/><path d="M155.011 112.956l-3.658.232-.375-6.639 3.843-.236z" class="AX"/><path d="M151.28 112.058c-.189 0-.336.282-.742.75-.611.651-1.325 1.196-2.115 1.612-1.353.727-3.99 1.86-5.181 2.44-.746.36-.684 1.272.112 1.767a7.08 7.08 0 0 0 4.934.247c1.226-.309 2.8-1.5 3.812-1.462s2.915-.039 3.65-.576.387-1.632.162-2.571c-.259-1.029-.6-2.633-.936-2.552v.356c-.421.681-2.707 1.017-3.673.553z" class="AK"/><use xlink:href="#F" class="AL"/><use xlink:href="#F" class="AU"/><path d="M156.217 72.841a13.6 13.6 0 0 1-5.185-2.78 10.54 10.54 0 0 0 4.013 3.449l-.019 12.968z" opacity=".35"/><path d="M163.127 38.975c.8.36 1.26 1.52 1.585 2.343.614 1.012 1.01 2.142 1.16 3.317l-.619 7.037.271 12.593a16.98 16.98 0 0 1-17.89-1.392l.464-19.1v-.387c.17-2.886 2.243-5.304 5.069-5.912.99-.224 6.434.9 6.434.9l3.518.6z" class="AM"/><g class="AK"><path d="M158.568 25.538c0 2.776-2.25 5.026-5.026 5.026s-5.026-2.25-5.026-5.026 2.25-5.026 5.026-5.026a5.03 5.03 0 0 1 3.554 1.472c.943.942 1.472 2.221 1.472 3.554zm3.669 3.585a44.08 44.08 0 0 1-1.141 4.466 1.75 1.75 0 0 1-1.005.812l.058-2.707z"/><path d="M161.213 23.624a1.89 1.89 0 0 1 1.566.549c.673.688.3 2.842-.541 4.949l-1.547.174z"/></g><path d="M160.226 29.3c.309.182.75-.41 1.129-.808a1.34 1.34 0 0 1 2.243.363c.418 1.354-.234 2.807-1.523 3.395-1.686.53-1.933-.553-1.933-.553l-.132 6.821h0c-2.092 2.707-7.907 2.482-5.487-.325v-2.424c-.751.12-1.513.16-2.273.12a3.08 3.08 0 0 1-2.393-2.513c-.6-2.154-.835-3.894-.321-8.12.561-4.64 5.962-4.69 8.893-2.853s1.797 6.897 1.797 6.897z" class="AX"/><g class="AK"><path d="M160.223 29.819c.155 0 .746-.974 1.129-1.326.534-.483-.155-4.868-.155-4.868.287-.775.087-1.647-.51-2.219-.731-.8-1.523-1.307-3.627-1.419a42.73 42.73 0 0 0-4.3.2 9.15 9.15 0 0 1-4.033-.7c-.912-.255-1.017 3.035 1.288 4.126a6.99 6.99 0 0 0 2.707.727 29.19 29.19 0 0 0 5.471-.1c.572-.077.692.476 1 1.991.299 1.322.523 3.576 1.03 3.588z"/><path d="M161.213 23.966l1.864-1a1.03 1.03 0 0 0-1.411-.468c-.518.291-.717.937-.452 1.469z"/></g><path d="M154.543 35.765a21.17 21.17 0 0 0 3.731-1.071c.569-.296 1.035-.757 1.338-1.322-.152.562-.415 1.088-.773 1.547-.7.9-4.307 1.57-4.307 1.57z" class="AP"/><path d="M154.679 28.611a.56.56 0 0 0 .553.572.58.58 0 0 0 0-1.16.57.57 0 0 0-.553.588zm.587-2.094l1.183.653a.7.7 0 0 0-.275-.943.66.66 0 0 0-.517-.051.65.65 0 0 0-.392.341z" class="AK"/><path d="M154.81 32.436l-1.264.476c.056.172.18.313.342.392s.35.088.52.026a.7.7 0 0 0 .402-.894z" class="AP"/><path d="M149.895 26.977l1.079-.831c-.102-.149-.26-.249-.438-.277a.65.65 0 0 0-.502.13.72.72 0 0 0-.139.978zm.333 1.473c-.006.312.241.569.553.576.312-.01.559-.268.557-.58.018-.21-.084-.411-.263-.521a.56.56 0 0 0-.584 0c-.179.11-.281.312-.263.521z" class="AK"/><path d="M153.049 27.924l-.182 3.333-1.74-.592z" class="AP"/><path d="M167.028 33.848c.305-.189 1.84.421 2.838 1.62s1.21 2.962.951 3.352-3.99-.959-3.99-.959z" class="AO"/><path d="M173.032 34.343c-.507 1.257-6.681 10.142-8.162 12.268-4.118-1.817-1.3-6.646-1.3-6.646l5.158-8.158a2.62 2.62 0 0 0 .321-.974c.288-3.543.339-7.102.155-10.652-.066-.413-.282-.788-.607-1.052-.692-.648-1.284-1.394-1.759-2.215-.476-.657-.928-.866-.831-1.04.28-.393.816-.505 1.23-.255.446.253.859.558 1.233.909a8.59 8.59 0 0 0-1.044-2.536c-1.094-1.8-1.017-2.8 1.651-2.455 1.67.213 3.283 1.547 4.033 5.382a33.3 33.3 0 0 1 .309 4.207c.147 3.259.2 8.406.116 10.66a5.4 5.4 0 0 1-.503 2.557z" class="AX"/><path d="M162.237 38.975l4.791-5.127s-.116 4.106 3.789 4.972l-5.084 7.656c-.564 1.16-2.707.077-3.306-2.351-.844-3.391-.19-5.15-.19-5.15z" class="AO"/><g class="AY"><path d="M24.406 37.162c2.931-.251 4.226.6 5.8 2.811 1.875 2.664 5.637 9.326 5.637 9.326l12.21-.07-.5 3.132-11.309 1.728c-1.353.166-2.42.576-3.48-.638s-5.413-8.634-5.413-8.634z"/><path d="M48.034 49.229c2.289-.172 4.534.695 6.113 2.362a2.48 2.48 0 0 1 .6 3.151c-.65 1.137-1.129 1.044-3.116-.483-.676-.584-1.466-1.022-2.32-1.284-.2.039.943.936.553 1.767s-1.048-.429-1.469-.773a4.53 4.53 0 0 1-1.574-2.482"/></g><path d="M11.956 112.395a19.26 19.26 0 0 0-.294 3.093c-.035 1.871-.387 2.533-.421 4.068-.153 1.215.195 2.441.963 3.395.711.986 2.575 1.879 3.364.213a6.68 6.68 0 0 0 .437-4.477l-.445-4.114-.294-2.1z" class="AK"/><path d="M17.264 97.695l-6.159-.112c.093 4.11.746 10.954.851 14.812 0 .723 0 5.641.255 7.134.414 2.246 3.093 1.933 3.217.6s-.17-7.083-.162-7.675c-.035-2.475 1.125-8.928 1.744-13.37.03-.221.223-1.161.254-1.389z" class="AY"/><path d="M26.316 109.194s-.321.019-.387.278-.073.8-.2 1.3c-.207.796-.282 1.62-.22 2.44.108.572 1.419 1.427 2.32 1.578 1.078.326 2.059.91 2.861 1.7a6.9 6.9 0 0 0 3.982 1.566c1.168.125 2.317-.368 3.031-1.3.495-.8-.449-.9-2.161-2.007l-1.326-.862c-2.707-1.771-3.7-2.707-4.466-4.489z" class="AK"/><path d="M29.784 108.231c-.046-1.272.6-10.648.6-10.648l-5.3.6c1.253 7.478 1.353 10.022 1.214 11.108h0a1.06 1.06 0 0 0-.035.313c0 1.454 1.643 2.239 2.923 3.205a12.05 12.05 0 0 0 3.325 2.08c.982.333 2.8.46 3.035-.135a41.9 41.9 0 0 1-4.91-4.1 3.1 3.1 0 0 1-.852-2.423z" class="AY"/><path d="M13.831 58.001c-2.792 6.353-1.195 25.468-1.195 25.468-.085 1.025-1.257 3.039-1.694 7.547-.514 5.328.951 19.584.951 19.584a3.41 3.41 0 0 0 3.449.073c0 0 3.727-20.949 4.4-26.246.584-4.64 2.215-14.221 2.215-14.221l2.668 14.182a27.6 27.6 0 0 0-1.009 4.559c-.3 3.116 2.734 18.749 2.734 18.749a4.28 4.28 0 0 0 3.433-.066l1.628-23.949c.472-6.3-1.2-25.963-2.359-29.695z" class="AM"/><path d="M21.954 70.208l.684-4.706s3.971-.53 5.773-2.223a6.52 6.52 0 0 1-4.675 2.958l-.7 4.253 1.21 12.353z" class="AT"/><path d="M29.567 36.33H18.845c-3.096 0-5.606-2.51-5.606-5.606V26.88c0-4.263 3.451-7.723 7.714-7.733h.9c2.051-.001 4.019.814 5.47 2.264s2.266 3.418 2.266 5.469z" class="AO"/><path d="M18.436 37.284h0a6.89 6.89 0 0 0-2.726.584 3.4 3.4 0 0 0-1.879 3.19c-.019 1.624.387 2.664.87 5.336l.967 5.135s-.889 3.557-2.246 7.346c4.239 2.282 9.265 2.593 13.753.851a6.54 6.54 0 0 0 2.606-1.84c.081-.549-.6-5.819-.6-8.765 1.121-2.819 1.2-3.433.731-5.293-.882-3.46-4.3-6.828-5.8-6.7z" class="AZ"/><path d="M26.586 59.951h0c-10.177.719-10.691-5.916-10.111-6.933s1.74 0 1.74 0-2.212-4.257-1.825-5.641a33.01 33.01 0 0 0 .911-6.69l-2.6-2.06a3.48 3.48 0 0 0-.889 2.428c-.019 1.624.387 2.664.866 5.336l.986 5.135s-.889 3.557-2.246 7.346a16.57 16.57 0 0 0 13.168 1.079z" class="AQ"/><g class="AO"><path d="M16.047 18.834l.53 2.022c-.265.083-.552.055-.795-.079s-.421-.361-.493-.629a1.1 1.1 0 0 1 .758-1.315z"/><path d="M14.457 19.739l1.744 1.16c-.14.239-.372.41-.642.473s-.553.014-.785-.137a1.1 1.1 0 0 1-.317-1.5z"/></g><path d="M26.718 22.635c.862.51 1.933 2.679 1.821 7.226-.089 3.866-1.338 4.806-1.964 5.081a6.66 6.66 0 0 1-3.012-.089v2.32s1.624 1.887 1.523 2.946-2.347 1.311-3.866.275c-.991-.71-1.842-1.597-2.509-2.618v-5.993c-.584.536-1.481.536-2.065 0-.533-.357-.887-.927-.969-1.563s.115-1.277.54-1.758c.392-.344.931-.467 1.434-.328s.901.523 1.06 1.02a9.28 9.28 0 0 0 4.373-1.3 7.02 7.02 0 0 0 3.634-5.219z" class="AY"/><path d="M23.806 28.894c.009.196-.102.378-.28.461s-.388.05-.532-.083-.194-.34-.125-.524.241-.308.437-.315c.265-.009.488.197.5.462z" class="AK"/><path d="M24.37 32.158l1.125.36c-.045.148-.148.273-.285.345s-.298.088-.446.042c-.306-.108-.477-.433-.394-.747z" fill="#f0997a"/><path d="M27.779 27.406l-.982-.68a.57.57 0 0 1 .816-.166c.272.193.345.565.166.846zm-.226 1.137a.49.49 0 0 1-.117.359c-.085.099-.208.159-.339.167a.5.5 0 0 1-.51-.479c-.013-.267.193-.494.46-.507s.494.193.506.46z" class="AK"/><path d="M25.187 28.264l.077 2.919 1.535-.476zm-1.624 6.589c-1.237-.162-3.789-.9-4.184-1.9.155.507.461.955.878 1.284a13.58 13.58 0 0 0 3.29 1.388z" fill="#f0997a"/><use xlink:href="#G" class="AL"/><use xlink:href="#G" class="AT"/><use xlink:href="#H" class="AL"/><use xlink:href="#H" class="AW"/><path d="M7.702 54.232v8.893a.59.59 0 0 0 .271.468l10.552 6.094v1.16l1.025-.592h0c.077 0 .135-.073.135-.186V59.9L7.698 52.979l-1.117.646z" class="AQ"/><path d="M18.563 70.672c0 .17-.12.24-.271.155L6.851 64.219a.59.59 0 0 1-.271-.464V53.582l11.986 6.925z" class="AR"/><path d="M18.559 60.503l1.121-.646-11.982-6.921-1.117.646z" fill="#e6e6e6"/><g class="AK"><path d="M18.053 60.635c.029.019.055.043.077.07.039.037.066.086.077.139.006.016.006.034 0 .05 0 .093-.07.124-.162.07a.32.32 0 0 1-.1-.1.3.3 0 0 1-.062-.159c.019-.097.085-.121.17-.07z"/><path d="M17.508 60.24c-.005.135.027.269.093.387a.47.47 0 0 0 .348.244c.087.015.175.008.259-.019-.011-.053-.038-.102-.077-.139-.08.022-.165.015-.24-.019-.16-.088-.25-.264-.228-.445.023-.471.27-.902.665-1.16.367-.213.665-.046.669.387l.151.089a.57.57 0 0 0 0-.081c.006-.135-.024-.269-.089-.387h0c-.074-.13-.204-.219-.352-.24-.159-.021-.32.014-.456.1a1.61 1.61 0 0 0-.742 1.28z"/></g><path d="M17.384 59.9l.793 11.476.147-.085a.3.3 0 0 0 .135-.232l-.87-11.279z" class="AL"/><path d="M17.384 59.9l.793 11.476.147-.085a.3.3 0 0 0 .135-.232l-.87-11.279z" class="AT"/><g class="AL"><path d="M18.254 71.201c0 .174-.12.244-.267.155L6.542 64.748a.6.6 0 0 1-.267-.464l-.873-11.487 11.986 6.925z"/><path d="M20.044 58.183L8.066 51.258l-2.668 1.543 11.986 6.917z"/></g><path d="M20.044 58.183L8.066 51.258l-2.668 1.543 11.986 6.917z" class="AN"/><path d="M17.163 57.124c.076.129.089.285.035.425a.7.7 0 0 1-.317.34 1.63 1.63 0 0 1-1.489 0c-.117-.063-.215-.155-.286-.267-.072-.139-.082-.303-.028-.45s.168-.265.314-.323a1.63 1.63 0 0 1 1.489 0c.117.063.214.157.282.271z" class="AM"/><path d="M16.777 57.758c.143.007.278-.065.351-.187s.074-.276 0-.398-.209-.195-.351-.187c-.418-.213-.912-.213-1.33 0-.206.01-.367.18-.367.386a.39.39 0 0 0 .367.387c.418.211.912.211 1.33 0zm-2.533-1.322l.2-.116c.181-.061.302-.231.302-.422s-.122-.36-.302-.421l-5.193-3a1.63 1.63 0 0 0-1.465 0l-.2.116a.45.45 0 0 0 0 .847l5.2 3a1.6 1.6 0 0 0 1.462 0z" class="AZ"/><path d="M20.048 58.363l-2.652 1.531-.012-.178 2.66-1.535z" class="AL"/><path d="M20.048 58.363l-2.652 1.531-.012-.178 2.66-1.535z" class="AT"/><g class="AY"><path d="M16.955 37.486c-2.807.046-4.3.217-5.32 3.866-.773 2.707-2.641 9.125-3.178 11.82-.247 1.241.027 6.186.406 11.8.066.986.07 2.119.619 2.66 1.218 1.206 3.781 1.953 4.044 1.16l-1.574-.909.731-13.417 3.232-8.893c-.189.686 2.411-5.261 1.04-8.087z"/><path d="M12.28 61.818a9.66 9.66 0 0 0 1.226 2.4c.41.708.7 2 .9 2.215s-.325.661-.974.108c-.448-.454-.821-.976-1.106-1.547l.143 3.178-1.636-.387z"/></g><use xlink:href="#I" class="AL"/><use xlink:href="#I" class="AS"/><path d="M66.627 2.622c-.04-.756-.44-1.448-1.075-1.86l-.874-.507a2.38 2.38 0 0 0-2.146 0L49.119 8.011a2.37 2.37 0 0 0-1.075 1.86V24.63a2.38 2.38 0 0 0 1.075 1.86l.874.507a2.39 2.39 0 0 0 2.15 0l4.311-2.494 1.547 2.664c.045.078.132.122.221.113s.165-.07.193-.156l1.624-4.686 5.521-3.2c.635-.412 1.035-1.104 1.075-1.86z" class="AL"/><path d="M48.045 24.63a2.37 2.37 0 0 0 1.075 1.86l.874.507a2.4 2.4 0 0 0 1.964.085c-.507.189-.889-.093-.889-.708V11.619a2.2 2.2 0 0 1 .313-1.059l-3.024-1.744a2.2 2.2 0 0 0-.313 1.056z" class="AS"/><g class="AR"><path d="M66.593 2.317c-.124-.456-.541-.6-1.036-.317L52.14 9.768c-.324.193-.591.469-.773.8l-3.024-1.744a2.2 2.2 0 0 1 .773-.8L62.529.256a2.39 2.39 0 0 1 2.15 0l.878.507c.544.354.918.916 1.036 1.554z" class="AU"/><path d="M64.226 13.084h0c-.025-.004-.052-.004-.077 0l-1.025-.058a.17.17 0 0 1-.174-.17l.023-.479a3.7 3.7 0 0 0-.023-.51.5.5 0 0 1 .116-.3l1.16-1.388a.32.32 0 0 0 .07-.286l-.545-1.2a.1.1 0 0 0-.031-.039h0c-.046-.023-.112 0-.178.054L62.32 9.825c-.067.076-.178.095-.267.046a1.89 1.89 0 0 0-.526-.305c-.088-.031-.141-.121-.124-.213l.387-1.713c.014-.048-.007-.099-.05-.124-.038-.011-.078-.011-.116 0l-1.195.12c-.113.012-.212.081-.263.182l-.65 1.74c-.056.113-.149.203-.263.255-.257.123-.504.267-.738.429-.1.066-.213.073-.259 0l-.611-.936c-.043-.066-.143-.05-.22.031l-1.315 1.388a.36.36 0 0 0-.1.29l.367 1.237c.016.105-.007.212-.066.3a10.1 10.1 0 0 0-.607 1.048.47.47 0 0 1-.282.213l-1.125.271c-.113.029-.206.107-.255.213l-.564 1.906c-.031.089.035.166.139.17l1.025.058a.17.17 0 0 1 .174.166 5.29 5.29 0 0 0 0 .99.5.5 0 0 1-.112.305l-1.16 1.388a.32.32 0 0 0-.07.286l.545 1.2c.008.016.02.029.035.039h0c.014.004.029.004.043 0h0c.051-.005.098-.027.135-.062l1.222-1.121c.068-.075.179-.093.267-.043.159.126.337.227.526.3a.2.2 0 0 1 .124.217l-.387 1.713c-.012.047.008.096.05.12h0a.17.17 0 0 0 .112 0l1.195-.116a.33.33 0 0 0 .263-.182l.65-1.744a.57.57 0 0 1 .263-.251l.387-.2c.136-.072.24-.147.363-.228s.213-.073.255 0l.611.936a.07.07 0 0 0 .031.027c.069.029.148.004.189-.058l1.318-1.388a.36.36 0 0 0 .1-.286l-.367-1.237c-.016-.105.007-.212.066-.3.224-.336.427-.686.607-1.048.062-.107.166-.184.286-.213l1.121-.271c.113-.029.206-.107.255-.213l.553-1.91c.023-.063-.005-.134-.066-.163zm-6 4.64h-.464a1.21 1.21 0 0 1-1.129-.773c-.124-.311-.186-.643-.182-.978.076-1.274.602-2.479 1.485-3.4.265-.285.568-.533.9-.735a3.2 3.2 0 0 1 .3-.155c.266-.123.557-.184.851-.178h.143a1.2 1.2 0 0 1 .94.746c.51 1.121-.073 3.093-1.3 4.377a3.42 3.42 0 0 1-1.55 1.114z"/></g><use xlink:href="#J" class="AL"/><use xlink:href="#J" class="AS"/><path d="M112.71 2.622c.04-.756.44-1.448 1.075-1.86l.874-.507a2.39 2.39 0 0 1 2.15 0l13.409 7.756a2.37 2.37 0 0 1 1.075 1.86V24.63a2.37 2.37 0 0 1-1.075 1.86l-.874.507a2.38 2.38 0 0 1-2.146 0l-4.315-2.494-1.547 2.664c-.045.078-.132.122-.221.113s-.165-.07-.193-.156l-1.624-4.686-5.521-3.2c-.635-.412-1.035-1.104-1.075-1.86z" class="AL"/><path d="M131.29 24.63a2.37 2.37 0 0 1-1.075 1.86l-.874.507c-.612.308-1.327.339-1.964.085.507.189.889-.093.889-.708V11.619a2.2 2.2 0 0 0-.313-1.059l3.024-1.744a2.2 2.2 0 0 1 .313 1.056z" class="AS"/><g class="AR"><path d="M112.743 2.317c.128-.456.541-.6 1.036-.317l13.417 7.768c.317.196.577.472.754.8l3.024-1.744c-.184-.329-.45-.605-.773-.8L116.808.256a2.39 2.39 0 0 0-2.15 0l-.878.507a2.38 2.38 0 0 0-1.036 1.554z" class="AU"/><path d="M121.898 21.9l-1.887-1.1a.54.54 0 0 1-.22-.425v-.8c0-.162.1-.24.22-.166l1.906 1.1a.54.54 0 0 1 .224.429v.8c-.019.158-.119.231-.243.162zm-2.447-8.046a1.82 1.82 0 0 1 .34.692.9.9 0 0 1-.387-.387c-.023-.05-.1-.209-.035-.282s.055-.046.082-.023zm1.497-.345c.054.029.091.082.1.143.021.169-.014.34-.1.487-.078-.19-.11-.395-.093-.6.011-.041.026-.064.093-.03zm1.496 2.058h0c.023 0 .043.039.07.1a.19.19 0 0 1-.035.24c-.077.07-.217.062-.387-.05.143-.22.271-.29.352-.29z"/><path d="M117.951 12.295c0 3.174 1.964 4.833 1.964 6.113h0v.537l2.069 1.2v-.541c0-1.28 1.964-.673 1.964-3.843a7.18 7.18 0 0 0-3-5.73c-1.655-.956-2.997.057-2.997 2.264zm1.21 1.257c.085-.108.2-.1.336 0a2.4 2.4 0 0 1 .549 1.071.81.81 0 0 0 .286 0 .99.99 0 0 0 .464-.263 2.04 2.04 0 0 1-.182-1.032c.043-.182.17-.232.333-.135a.74.74 0 0 1 .333.518 1.12 1.12 0 0 1-.182.824 5.14 5.14 0 0 0 .464.8 3.28 3.28 0 0 0 .286.348c.162-.34.356-.5.549-.437a.64.64 0 0 1 .336.387.57.57 0 0 1-.054.65c-.139.124-.387.1-.688-.128a4.56 4.56 0 0 0-.186.665c-.163.84-.246 1.693-.247 2.548 0 .093-.054.135-.12.1a.3.3 0 0 1-.128-.236 13.79 13.79 0 0 1 .255-2.633 5.32 5.32 0 0 1 .182-.665 3.79 3.79 0 0 1-.317-.387 5.53 5.53 0 0 1-.483-.82c-.136.127-.302.217-.483.263-.104.025-.211.032-.317.023a10.37 10.37 0 0 1 .182.878c.166.967.251 1.946.255 2.927 0 .089-.054.128-.124.089h0c-.076-.056-.122-.145-.124-.24a17.87 17.87 0 0 0-.247-2.838l-.186-.874a1.38 1.38 0 0 1-.688-.669.72.72 0 0 1-.054-.734zm1.787-4.678a.69.69 0 0 1-.259-.549v-.878c0-.22.116-.333.259-.247a.67.67 0 0 1 .259.545v.862c0 .236-.116.348-.259.267zm-1.918-.318a.57.57 0 0 1-.224-.329l-.286-.932c-.073-.232-.031-.452.093-.491s.282.12.356.352l.286.932c.07.232.027.449-.1.487-.043.014-.091.007-.128-.019zm-1.4 1.351a.5.5 0 0 1-.128-.128l-.5-.731a.68.68 0 0 1-.093-.6c.07-.151.228-.124.352.058l.5.731a.68.68 0 0 1 .093.6.15.15 0 0 1-.095.091c-.044.014-.092.006-.129-.021zm-.51 2.648l-.588-.329a.69.69 0 0 1-.259-.549c0-.22.116-.333.259-.247l.576.329a.69.69 0 0 1 .259.549c.012.22-.104.332-.247.247zm.015 3.398a.58.58 0 0 1-.224-.329c-.073-.232-.031-.452.093-.491l.5-.155c.124-.039.282.12.352.348s.031.452-.093.491l-.5.155a.17.17 0 0 1-.128-.019zm7.625 4.404a.39.39 0 0 1-.128-.128l-.5-.727a.68.68 0 0 1-.093-.6c.07-.151.228-.124.352.058l.5.731a.67.67 0 0 1 .093.6c-.014.045-.049.08-.094.093s-.093.005-.13-.023zm.591-3.047l-.576-.333a.68.68 0 0 1-.255-.549c0-.22.112-.329.255-.247l.576.333a.68.68 0 0 1 .259.545c0 .22-.116.333-.259.251zm-1.086-3.576a.57.57 0 0 1-.224-.329c-.073-.232-.031-.452.093-.487l.5-.159c.124-.039.282.12.352.352s.031.452-.093.487l-.5.159c-.044.011-.091.003-.128-.023zm-1.404-2.966a.42.42 0 0 1-.128-.131c-.125-.173-.162-.395-.1-.6l.29-.6c.07-.147.228-.12.352.062.125.173.162.395.1.6l-.271.6c-.013.051-.052.091-.102.105s-.104.001-.142-.035z"/></g><path d="M89.854 116.776v30.012c.014.273.158.524.387.673l.827.479a.86.86 0 0 0 .773 0l.827-.479c.229-.149.373-.4.387-.673v-30.012c0-.247-.174-.348-.387-.224l-.827.479a.86.86 0 0 1-.773 0l-.827-.479c-.201-.124-.387-.023-.387.224z" class="AO"/><path d="M91.861 147.94l.823-.484c.229-.149.373-.4.387-.673v-30.007c0-.247-.174-.348-.387-.224l-.827.479a.86.86 0 0 0-.387.673v30.012c.004.247.178.348.391.224z" class="AM"/><path d="M46.062 91.493v30.015c.014.273.158.524.387.673l.827.476c.242.126.531.126.773 0l.827-.476c.229-.149.373-.4.387-.673V91.493c0-.247-.174-.348-.387-.224l-.82.468a.86.86 0 0 1-.773 0l-.827-.476c-.22-.116-.394-.016-.394.232z" class="AO"/><path d="M48.057 122.669l.827-.476c.229-.149.373-.4.387-.673V91.493c0-.247-.174-.348-.387-.224l-.827.468a.86.86 0 0 0-.387.677v30.008c0 .247.17.359.387.247z" class="AM"/><path d="M127.583 94.988v30c.016.273.159.522.387.673l.827.479a.86.86 0 0 0 .773 0l.827-.479c.229-.149.373-.4.387-.673v-30c0-.247-.174-.348-.387-.224l-.827.476a.86.86 0 0 1-.773 0l-.827-.476c-.225-.124-.387-.023-.387.224z" class="AO"/><path d="M129.578 126.148l.827-.479c.229-.149.373-.4.387-.673V94.988c0-.247-.174-.348-.387-.224l-.827.476a.87.87 0 0 0-.387.677v30.008c0 .25.174.351.387.223z" class="AM"/><use xlink:href="#K" class="AL"/><use xlink:href="#K" opacity=".65" class="AR"/><use xlink:href="#L" class="AL"/><use xlink:href="#L" class="AR AW"/><use xlink:href="#M" class="AL"/><use xlink:href="#M" opacity=".8" class="AR"/><path d="M121.64 89.555l.8-.943-1.666.445" class="AM AN"/><use xlink:href="#N" class="AL"/><use xlink:href="#N" class="AU"/><g class="AL"><use xlink:href="#O"/><use xlink:href="#O"/></g><use xlink:href="#O" class="AS"/><path d="M110.172 91.554l5.181-2.985-15.145-8.742-5.2 2.969z" class="AU"/><path d="M95.004 82.796l.2.116 5.007-2.861 14.944 8.63.2-.112-15.141-8.746z" class="AL"/><path d="M95.004 82.796l.2.116 5.007-2.861 14.944 8.63.2-.112-15.141-8.746zm17.716.449l-.1.058-2.54 1.465-4.512-2.606-.093-.054 2.633-1.523z" class="AT"/><path d="M112.621 83.303l-2.54 1.465-4.512-2.606 2.54-1.469z" class="AL"/><path d="M112.621 83.303l-2.54 1.465-4.512-2.606 2.54-1.469z" class="AW"/><g class="AL"><use xlink:href="#P"/><use xlink:href="#P"/></g><use xlink:href="#P" class="AT"/><g class="AL"><path d="M109.824 92.509a1.09 1.09 0 0 1-.947-.073l-16.12-9.31c-.286-.163-.482-.448-.534-.773l-1.767-10.525c-.004-.061-.004-.121 0-.182.002-.29.118-.567.321-.773l16.757 9.666c.206.122.347.329.387.565z"/><use xlink:href="#Q"/></g><use xlink:href="#Q" class="AN"/><path d="M107.759 80.763l.259-.151c.079.104.132.224.155.352l1.91 11.406-.108.062a.9.9 0 0 1-.151.073l-1.906-11.391c-.026-.128-.08-.248-.159-.351z" opacity=".25"/><path d="M100.741 82.789a3.54 3.54 0 0 0-1.624-2.088c-.781-.449-1.315-.244-1.195.46a3.57 3.57 0 0 0 1.624 2.092c.781.452 1.315.244 1.195-.464z" class="AU"/><path d="M54.549 85.98v.305a.9.9 0 0 0 .445.773l8.566 4.94c.136.079.291.121.449.12a.9.9 0 0 0 .452-.12l15.725-9.078a.91.91 0 0 0 .452-.773v-.217l-16.626 9.6-9.411-5.436c-.038-.025-.058-.069-.052-.114z" class="AO"/><use xlink:href="#R" class="AM"/><g class="AK"><use xlink:href="#R" class="AS"/><path d="M63.933 90.728l-5.03-2.9 14.708-8.491 5.057 2.888zm-2.471-8.07l.093.05 2.463 1.423 4.385-2.529.093-.054-2.56-1.473z"/></g><path d="M61.555 82.709l2.463 1.423 4.385-2.529-2.467-1.423z" class="AO"/><path d="M61.555 82.709l2.463 1.423 4.385-2.529-2.467-1.423z" class="AK AW"/><use xlink:href="#S" class="AO"/><use xlink:href="#S" class="AK AW"/><use xlink:href="#T" class="AM"/><use xlink:href="#T" class="AK AS"/><path d="M64.018 91.52l.108.058c.046.027.1.05.147.073l1.852-11.066c.041-.231.183-.432.387-.549l16.27-9.4c-.065-.065-.138-.12-.217-.166l-16.3 9.415a.8.8 0 0 0-.387.549z" class="AM"/><path d="M66.125 80.578L64.273 91.64c-.051-.019-.1-.043-.147-.07l-.108-.062 1.856-11.077c.019-.109.061-.213.124-.305l.251.147c-.063.092-.105.196-.124.305z" class="AK AW"/><path d="M73.092 82.213a3.44 3.44 0 0 1 1.578-2.03c.773-.437 1.276-.236 1.16.449a3.48 3.48 0 0 1-1.581 2.03c-.751.437-1.273.236-1.157-.449z" class="AL"/><path d="M52.476 89.385l-7.393 3.9-.155.236v.193c.003.102.063.195.155.24l9.744 5.626a.55.55 0 0 0 .507 0l7.226-4.172v-.189z" class="AK"/><path d="M55.078 99.442c-.088.003-.175-.019-.251-.062l-9.744-5.626a.26.26 0 0 1 0-.476l7.068-4.083 10.409 6.02-7.226 4.172a.49.49 0 0 1-.256.055z" class="AM"/><path d="M52.151 88.643l-6.991 4.021-.07.1v.75h0a.12.12 0 0 0 .07.1l9.747 5.626c.107.058.237.058.344 0l6.991-4.025v-.772z" class="AQ"/><path d="M62.243 94.443l-.089.05-1.137.657-.213.124-5.552 3.2c-.107.058-.237.058-.344 0l-9.747-5.626c-.041-.017-.067-.056-.067-.1s.027-.083.067-.1l.093-.05 6.9-3.955 10 5.777h.023z" fill="#f0f0f0"/><path d="M55.078 98.534v.75a.31.31 0 0 1-.17-.043l-9.747-5.626a.12.12 0 0 1-.07-.1v-.75a.12.12 0 0 0 .07.1l9.747 5.626a.31.31 0 0 0 .17.043z" class="Ac"/><path d="M62.242 94.357l-1.26.727-.2.112-5.533 3.194c-.107.058-.237.058-.344 0l-8.727-5.026-.22-.124a2.18 2.18 0 0 1-.708-.615c.001-.009.001-.018 0-.027-.012-.016-.019-.035-.023-.054-.01-.081.044-.157.124-.174.229-.066.449-.158.657-.274h0l6.148-3.549z" class="AR"/><path d="M60.94 94.268a.1.1 0 0 0 0 .189c.103.048.222.048.325 0a.1.1 0 0 0 0-.189c-.103-.048-.222-.048-.325 0z" class="AN"/><g class="AK"><path d="M61.98 93.67c-.141-.069-.307-.057-.437.031-.269.183-.463.458-.545.773.038.006.078.006.116 0a1.22 1.22 0 0 1 .491-.7.43.43 0 0 1 .2-.062c.042.001.083.011.12.031a.46.46 0 0 1 .162.387.81.81 0 0 1 0 .1l.112.066c.004-.054.004-.108 0-.162a.56.56 0 0 0-.219-.464z"/><path d="M62.181 94.392v.027h-.023z"/></g><use xlink:href="#U" class="AN"/><path d="M61.005 93.097c-.141-.069-.307-.057-.437.031a1.38 1.38 0 0 0-.549.773.41.41 0 0 0 .12 0 1.23 1.23 0 0 1 .487-.7c.061-.036.129-.058.2-.062.041 0 .081.011.116.031a.45.45 0 0 1 .162.387.81.81 0 0 1 0 .1l.112.066a.77.77 0 0 0 0-.162.57.57 0 0 0-.211-.464z" class="AK"/><use xlink:href="#V" class="AN"/><path d="M60.031 92.533c-.141-.069-.307-.057-.437.031a1.38 1.38 0 0 0-.549.773.32.32 0 0 0 .12 0c.075-.284.249-.533.491-.7a.41.41 0 0 1 .2-.058c.04-.001.08.008.116.027a.45.45 0 0 1 .166.387.77.77 0 0 1 0 .1l.116.066c.004-.054.004-.108 0-.162a.56.56 0 0 0-.22-.46z" class="AK"/><use xlink:href="#W" class="AN"/><path d="M59.049 91.972c-.139-.072-.306-.06-.433.031a1.34 1.34 0 0 0-.549.773.3.3 0 0 0 .12 0c.072-.285.245-.534.487-.7.06-.039.129-.06.2-.062a.2.2 0 0 1 .116.031c.116.093.178.239.162.387.002.033.002.067 0 .1l.112.066c.004-.054.004-.108 0-.162.008-.181-.072-.354-.215-.464z" class="AK"/><path d="M57.034 92.014c-.089.05-.089.135 0 .189a.36.36 0 0 0 .321 0c.093-.054.093-.139 0-.189a.36.36 0 0 0-.321 0z" class="AN"/><path d="M58.075 91.408a.42.42 0 0 0-.437.031c-.27.183-.465.458-.549.773.04.008.08.008.12 0a1.21 1.21 0 0 1 .491-.7c.06-.039.129-.06.2-.062.041 0 .081.011.116.031a.44.44 0 0 1 .166.387.89.89 0 0 1 0 .1l.116.066c.004-.054.004-.108 0-.162.007-.182-.077-.355-.223-.464z" class="AK"/><path d="M56.056 91.447a.1.1 0 0 0 0 .189c.103.048.222.048.325 0a.1.1 0 0 0 0-.189c-.103-.048-.222-.048-.325 0z" class="AN"/><path d="M57.096 90.843a.43.43 0 0 0-.437.031 1.36 1.36 0 0 0-.545.773c.04.006.08.006.12 0a1.2 1.2 0 0 1 .487-.7c.06-.039.129-.06.2-.062a.25.25 0 0 1 .12.031c.115.094.176.239.162.387.002.033.002.067 0 .1l.112.066a1.19 1.19 0 0 0 0-.162c.007-.179-.074-.351-.217-.46z" class="AK"/><use xlink:href="#U" x="-4.883" y="-2.819" class="AN"/><path d="M56.126 90.279c-.141-.069-.307-.057-.437.031a1.37 1.37 0 0 0-.549.773.41.41 0 0 0 .12 0 1.22 1.22 0 0 1 .487-.7c.061-.036.129-.058.2-.062.041 0 .081.011.116.031a.45.45 0 0 1 .166.387.82.82 0 0 1 0 .1l.116.066a1.16 1.16 0 0 0 0-.162.56.56 0 0 0-.219-.464z" class="AK"/><use xlink:href="#W" x="-3.905" y="-2.255" class="AN"/><path d="M55.144 89.714c-.141-.069-.307-.057-.437.031-.268.184-.462.458-.545.773a.29.29 0 0 0 .116 0c.075-.284.249-.533.491-.7a.42.42 0 0 1 .2-.062c.041 0 .081.011.116.031a.45.45 0 0 1 .166.387.8.8 0 0 1 0 .1l.112.066a1.16 1.16 0 0 0 0-.162.56.56 0 0 0-.219-.464z" class="AK"/><use xlink:href="#W" x="-4.887" y="-2.819" class="AN"/><path d="M54.166 89.153a.42.42 0 0 0-.433.027 1.38 1.38 0 0 0-.549.773.31.31 0 0 0 .12 0 1.23 1.23 0 0 1 .487-.7c.061-.035.13-.055.2-.058.04-.001.08.008.116.027a.45.45 0 0 1 .162.387c.002.033.002.067 0 .1l.112.066a1.16 1.16 0 0 0 0-.162c.005-.178-.075-.348-.217-.456z" class="AK"/><use xlink:href="#V" x="-6.836" y="-3.948" class="AN"/><path d="M53.191 88.589a.42.42 0 0 0-.437.031c-.27.183-.465.458-.549.773.04.008.08.008.12 0a1.21 1.21 0 0 1 .491-.7c.06-.039.129-.06.2-.062a.2.2 0 0 1 .116.031.44.44 0 0 1 .166.387c.002.031.002.062 0 .093l.116.066a1.13 1.13 0 0 0 0-.159c.007-.181-.075-.355-.22-.464z" class="AK"/><g class="AQ"><path d="M54.104 97.385c-.048-.001-.089-.034-.102-.08s.007-.095.048-.12l5.374-3.093a.11.11 0 0 1 .112-.004c.035.019.057.057.056.098s-.024.077-.06.095l-5.374 3.093c-.017.009-.035.014-.054.015zm-.653-.375c-.038 0-.074-.021-.093-.054-.03-.053-.013-.119.039-.151l5.374-3.093a.1.1 0 0 1 .147.043c.015.025.02.055.013.084s-.026.053-.052.067l-5.374 3.093c-.017.008-.035.012-.054.011z"/><use xlink:href="#X"/><path d="M52.151 96.26a.11.11 0 0 1-.058-.2l5.378-3.093c.053-.03.119-.013.151.039a.11.11 0 0 1 .011.085c-.008.029-.028.053-.054.066l-5.374 3.093a.1.1 0 0 1-.054.01zm-.654-.375c-.05-.001-.094-.035-.106-.084s.009-.1.052-.125l5.374-3.093a.11.11 0 1 1 .112.189l-5.378 3.093c-.016.011-.035.018-.054.02zm-.649-.376c-.048-.001-.089-.034-.102-.08s.007-.095.048-.12l5.374-3.093c.052-.024.114-.003.142.047s.013.114-.034.146l-5.374 3.093c-.017.006-.036.009-.054.007zm-.653-.378c-.038 0-.074-.021-.093-.054-.03-.053-.013-.119.039-.151l5.378-3.093a.1.1 0 0 1 .147.043c.015.025.02.055.013.084s-.026.053-.052.067l-5.374 3.093c-.018.009-.038.013-.058.011z"/><use xlink:href="#X" x="-3.256" y="-1.879"/><path d="M48.896 94.381c-.046-.004-.084-.036-.097-.08s.003-.092.039-.12l5.378-3.093c.053-.03.119-.013.151.039a.11.11 0 0 1 .011.085c-.008.029-.028.053-.054.066l-5.374 3.093c-.017.008-.035.013-.054.015zm-.654-.382a.1.1 0 0 1-.093-.054c-.015-.025-.02-.055-.013-.084s.026-.053.052-.067l5.374-3.093c.025-.015.055-.02.084-.013s.053.026.067.052c.03.053.013.119-.039.151l-5.378 3.093c-.017.009-.035.014-.054.015zm-.65-.372c-.048-.001-.089-.034-.102-.08s.007-.095.048-.12l5.374-3.093c.035-.027.082-.032.122-.011s.063.062.06.107-.032.083-.073.098l-5.374 3.093c-.017.008-.036.01-.054.007zm-.656-.376c-.038 0-.074-.021-.093-.054-.03-.053-.013-.119.039-.151l5.378-3.093c.054-.029.121-.01.151.043.014.025.017.055.009.082s-.027.051-.052.065l-5.374 3.093c-.018.01-.038.016-.058.015zm-.646-.355c-.04.001-.078-.02-.1-.054-.029-.054-.01-.121.043-.151l5.374-3.093a.11.11 0 1 1 .112.189l-5.378 3.093c-.015.01-.033.016-.051.016z"/></g><path d="M54.765 97.764c-.047-.002-.087-.035-.099-.08s.006-.094.045-.12l5.684-3.29a.11.11 0 0 1 .171.092.11.11 0 0 1-.059.097l-5.688 3.29c-.017.008-.035.011-.054.011z" class="AL"/><g opacity=".25" class="AM"><path d="M57.607 93.67a.47.47 0 0 0-.22-.143.9.9 0 0 1-.1-.054c-.05-.077-.116-.209-.031-.224s.155.046.209.062.027-.039 0-.046c-.1-.039-.278-.155-.317 0a.24.24 0 0 0 .019.151.31.31 0 0 0-.139-.027c-.046 0-.085 0-.1.058a.1.1 0 0 0 0 .062.05.05 0 0 0 .043.046h-.05c-.066 0-.251-.046-.3.039s.023.081.019.1-.135.05-.159.066 0 .043 0 .046a1.66 1.66 0 0 1-.2 0c-.108 0-.387-.031-.34.135l.023.043a.21.21 0 0 0 0 .043l-.027.019c-.027.019-.046 0-.058.027s.027.085-.035.128-.278-.058-.387 0 .027.217-.116.22c-.031 0 0 .046 0 .05.131 0 .116 0 .143-.124.043-.178.309-.054.456-.1.019 0 .019-.027 0-.039s0-.1.066-.128c.005-.005.008-.012.008-.019s-.003-.014-.008-.019c0-.027-.073-.116-.039-.159a.66.66 0 0 1 .159 0h.348c.008 0 .015-.003.02-.009s.006-.014.003-.022c0-.039.131-.062.166-.07.008-.009.008-.022 0-.031-.073-.178.193-.112.3-.1.023 0 .039 0 .031-.031s-.151-.124 0-.143a.26.26 0 0 1 .12.027c.068.115.162.211.275.282.191.053.299.013.218-.115zm-.05.031c.035.046-.07 0-.081 0-.059-.036-.107-.087-.139-.147l.081.043a.33.33 0 0 1 .139.112zm-2.641 1.128c0-.077 0-.162.05-.174s0-.05 0-.05c-.1 0-.128.081-.112.182a.77.77 0 0 0-.124-.043c-.062 0-.1 0-.124.05s0 .066 0 .1.046.031-.027.05a.35.35 0 0 1-.089 0c-.048-.011-.098.006-.131.043-.05.039.07.058-.07.035-.039 0-.073-.023-.112 0s-.077.023-.07.081.058.062.058.077c0 .124-.131.019-.182 0s-.035 0-.035.019.043.081-.046.089c-.03-.015-.061-.027-.093-.035-.019 0-.108.073-.182.07s-.027 0-.023.031.05.089-.062.139h-.128c-.035 0 0 .05 0 .054s.224.077.278 0-.039-.112 0-.143a.25.25 0 0 1 .112-.035.2.2 0 0 1 .085-.023c.014.011.029.019.046.023h.066c.023 0 .023-.039.031-.043s-.027-.027 0-.043.054.019.081.027.1.046.139 0-.039-.1-.031-.139.147-.023.2-.062 0 0 0-.027c-.035-.12.186-.023.255-.039.013 0 .025-.01.027-.023l-.023-.075c0-.073.12-.066.166-.054.043.151.162.3.29.259.003-.007.003-.016 0-.023a.28.28 0 0 0-.22-.298zm.046.12v-.035c.043.031.085.07.089.089s-.073-.05-.089-.073z"/><path d="M56.872 95.603a.49.49 0 0 0-.22-.139l-.108-.054c-.046-.081-.112-.213-.027-.228a.73.73 0 0 1 .209.062c.031 0 .027-.035 0-.046-.1-.035-.278-.155-.321 0a.27.27 0 0 0 .023.151.31.31 0 0 0-.139-.027c-.046 0-.085 0-.1.058s0 .043 0 .066.039.043.046.046h-.05c-.07 0-.255-.05-.3.035s.023.085.019.1-.135.05-.159.066 0 .043 0 .046a1.67 1.67 0 0 1-.2 0c-.108 0-.387-.031-.34.135 0 .019 0 0 .023.043s0 .039 0 .043 0 0-.027.023-.046 0-.058.023.027.089-.039.128-.275-.058-.367 0 .027.216-.116.22c-.035 0 0 .046 0 .05.135 0 .12 0 .147-.124.043-.178.309-.054.456-.1v-.039a.14.14 0 0 1 .066-.128c.005-.005.008-.012.008-.02s-.003-.014-.008-.019c0-.027-.073-.116-.039-.159s.139 0 .159-.019h.35c.008-.001.015-.005.02-.012s.006-.015.003-.023c-.019-.035.131-.062.166-.07s.019-.019 0-.031c-.073-.178.193-.112.3-.093.009.002.019-.001.026-.009s.008-.017.005-.026c0-.062-.151-.12 0-.143a.26.26 0 0 1 .12.027.85.85 0 0 0 .275.286c.17.059.274.02.197-.099zm-.05.031c.035.046-.07 0-.081 0-.059-.035-.108-.086-.139-.147l.081.043c.055.022.103.058.139.104zm1.713-1.396c-.019-.077-.023-.162.05-.174s0-.05 0-.05c-.1 0-.128.081-.116.182-.038-.018-.079-.033-.12-.043-.062 0-.1 0-.124.05s0 .066 0 .1.046.031-.031.05a.39.39 0 0 1-.089 0c-.048-.01-.098.006-.131.043-.046.039.073.058-.07.035-.036-.006-.072-.006-.108 0-.022-.004-.045.004-.06.022s-.018.042-.01.063c.012.058.058.062.058.077 0 .124-.135.019-.186 0s-.031 0-.031.019.039.081-.046.089c-.03-.015-.061-.027-.093-.035-.019 0-.108.073-.186.07 0 0-.027 0 0 .031s.05.089-.062.139h-.131c-.031 0 0 .05 0 .054s.224.077.275 0-.035-.112 0-.143a.22.22 0 0 1 .108-.035.23.23 0 0 1 .089-.023s.027.023.043.023h.066c.019 0 .023-.039.035-.043s-.027-.031 0-.043.054.019.077.027.108.046.143 0-.039-.1-.031-.139.143-.023.2-.062c.006-.008.006-.019 0-.027-.035-.12.186-.023.255-.039s.027 0 .023-.023a.58.58 0 0 0-.027-.077c.019-.073.12-.066.162-.054.046.151.162.3.294.259.003-.007.003-.016 0-.023-.025-.13-.108-.24-.226-.3zm.046.12c-.001-.012-.001-.023 0-.035.035.023.066.054.089.089 0 .073-.089-.031-.1-.054zm-4.945-2.876a.49.49 0 0 0-.22-.139l-.1-.054c-.05-.081-.116-.209-.031-.228a.73.73 0 0 1 .209.062c.031 0 .027-.035 0-.046-.1-.035-.278-.155-.317 0-.011.051-.004.104.019.151a.31.31 0 0 0-.139-.027c-.046 0-.085 0-.1.058s0 .043 0 .066.039.043.046.046h-.05c-.07 0-.251-.05-.3.035s.023.085 0 .1-.135.05-.159.066 0 .043 0 .046a1.67 1.67 0 0 1-.2 0c-.108 0-.387-.031-.34.135 0 0 .019 0 .023.046s0 .035 0 .039 0 0-.027.023-.046 0-.058.023.027.089-.039.128-.275-.058-.367 0 .027.217-.116.22c-.035 0 0 .046 0 .05.135 0 .12 0 .147-.124.043-.178.309-.054.456-.1v-.039c0-.012 0-.1.066-.124.005-.005.008-.012.008-.019s-.003-.014-.008-.019c0-.031-.073-.12-.039-.162s.139 0 .159-.019h.348c.008-.001.015-.005.02-.012s.006-.015.003-.023c0-.035.131-.062.166-.07s0-.019 0-.031c-.073-.178.193-.112.3-.093.009.002.019-.001.026-.009s.008-.017.005-.026c0-.062-.151-.12 0-.143a.26.26 0 0 1 .12.027.85.85 0 0 0 .275.286c.187.059.295.027.214-.099zm-.05.031c.035.046-.07 0-.081 0a.37.37 0 0 1-.139-.147l.081.043c.054.021.102.055.139.1zm-2.641 1.101c-.019-.077-.019-.162.05-.174s0-.05 0-.05c-.1 0-.128.081-.116.182a.43.43 0 0 0-.12-.039c-.062 0-.1 0-.124.05s.019.062 0 .1.046.031-.027.05a.69.69 0 0 1-.089 0c-.077 0-.085 0-.131.039s.07.062-.07.039a.3.3 0 0 0-.112 0c-.022-.003-.043.005-.058.021s-.019.039-.012.06c.008.054.058.062.058.077 0 .124-.131.019-.186 0s-.031 0-.031.019.043.085-.046.089c-.03-.015-.061-.027-.093-.035-.019 0-.108.073-.182.07-.009-.006-.021-.005-.027.004s-.005.021.004.027c.019.058.05.093-.062.139h-.128c-.035 0 0 .05 0 .054s.224.077.278 0-.039-.112-.019-.143.1-.031.112-.035c.027-.012.056-.02.085-.023.014.011.029.019.046.023h.062c.019 0 .027-.035.035-.043s-.027-.027 0-.043.054.019.081.027.1.046.139 0-.039-.1-.031-.139.143-.019.2-.058c.006-.019.004-.023 0-.027-.035-.124.186-.027.255-.039s.027 0 .023-.027-.016-.052-.027-.077c.019-.073.12-.066.166-.05.043.147.162.3.29.255.003-.007.003-.016 0-.023.05-.13-.073-.23-.193-.3zm.046.124V92.7c.034.025.064.055.089.089.012.073-.077-.031-.089-.05z"/><path d="M52.901 93.406a.49.49 0 0 0-.22-.139l-.108-.054c-.05-.081-.112-.209-.027-.224s.155.043.209.058.023-.035 0-.043c-.1-.039-.278-.159-.321 0a.27.27 0 0 0 .023.151.31.31 0 0 0-.139-.027c-.046 0-.085 0-.1.058s0 .043 0 .066.039.043.046.046h-.05c-.07 0-.255-.046-.3.035s.023.085 0 .1-.135.05-.159.066 0 .043 0 .046a1.07 1.07 0 0 1-.193 0c-.108 0-.387-.031-.34.135 0 .019.019 0 .023.046-.004.013-.004.026 0 .039l-.027.023c-.027.023-.046 0-.058.027s.027.085-.039.124-.275-.058-.367 0 .027.217-.116.217c-.035 0 0 .05 0 .05.135 0 .12 0 .147-.124.043-.178.305-.054.456-.1.019 0 .019-.023 0-.039s0-.1.066-.124c.005-.005.008-.012.008-.019s-.003-.014-.008-.019c0-.031-.073-.12-.039-.162a.96.96 0 0 1 .159 0 2.61 2.61 0 0 1 .348 0c.008-.001.015-.005.02-.012s.006-.015.003-.023c-.019-.035.131-.058.166-.066.007-.009.007-.022 0-.031-.073-.182.189-.116.3-.1.009.002.019-.001.026-.009s.008-.017.005-.026c-.019-.058-.151-.12 0-.143.042.001.083.012.12.031a.87.87 0 0 0 .275.282c.184.044.289.009.211-.115zm-.05.035c.035.043-.07 0-.085 0-.057-.036-.104-.087-.135-.147l.081.043a.31.31 0 0 1 .139.104zm1.701-1.4c0-.077-.023-.162.05-.174s0-.05 0-.05c-.1 0-.128.081-.116.182a.43.43 0 0 0-.12-.039c-.062 0-.1 0-.124.05s0 .062 0 .1.046.031-.031.05a.77.77 0 0 1-.089 0c-.077 0-.085 0-.131.039s.073.062-.07.039c-.036-.008-.072-.008-.108 0-.054 0-.081.027-.07.081s.058.062.058.077c0 .124-.135.019-.186 0s-.031 0-.031.019.039.085-.05.089c-.029-.014-.059-.025-.089-.035-.058 0-.112.073-.186.07s-.027 0-.019.031.05.093-.062.139h-.131c-.031 0 0 .05 0 .054s.224.077.275 0-.035-.112-.019-.143.1-.031.112-.035c.028-.012.058-.019.089-.023 0 0 .027.023.043.023h.066c.019 0 .023-.035.031-.043s-.023-.027 0-.043.05.019.077.027.108.046.143 0-.039-.1-.031-.139.143-.019.2-.058c.005-.008.005-.019 0-.027-.035-.124.186-.027.255-.043 0 0 .027 0 .023-.023a.58.58 0 0 0-.027-.077c0-.073.116-.066.162-.05.046.147.162.3.29.255.011-.002.019-.012.019-.023.029-.134-.087-.219-.203-.3zm.046.12a.1.1 0 0 1 0-.035c.034.025.064.055.089.089.008.074-.077-.031-.088-.054zm-1.291 2.571a.47.47 0 0 0-.22-.139l-.1-.054c-.05-.081-.116-.209-.027-.228a.8.8 0 0 1 .209.062c.031 0 .023-.035 0-.043-.093-.039-.278-.159-.317 0a.24.24 0 0 0 .023.151c-.042-.023-.088-.036-.135-.039s-.081 0-.1.058 0 .043 0 .066.035.043.046.046h-.061c-.066 0-.251-.05-.294.035s.023.085 0 .1-.135.05-.159.066 0 .043 0 .046a1.66 1.66 0 0 1-.2 0c-.1 0-.387-.031-.336.135 0 .019 0 0 .019.046v.039l-.023.023c-.023.023-.046 0-.062.023s.027.089-.035.128-.278-.058-.367 0 .023.22-.12.22c-.031 0 0 .05 0 .05.131 0 .12 0 .143-.124.043-.178.309-.054.46-.1.005-.005.008-.012.008-.019s-.003-.014-.008-.019c-.043-.062 0-.1.066-.124.007-.004.011-.012.011-.019s-.004-.015-.011-.019c0-.031-.07-.12-.035-.162s.139 0 .159-.019q.174-.009.348 0c.008 0 .016-.005.02-.012s.004-.016-.001-.023c0-.035.135-.058.166-.066.009-.01.009-.025 0-.035-.07-.178.193-.112.3-.093.009.002.019-.001.026-.009s.008-.017.005-.026c0-.062-.147-.12 0-.143a.24.24 0 0 1 .124.031c.068.115.162.211.275.282.18.069.285.034.203-.09zm-.046.031c.031.046-.073 0-.085 0-.059-.036-.107-.087-.139-.147.027.017.056.031.085.043a.36.36 0 0 1 .139.104z"/><path d="M54.618 93.488c-.019-.077-.023-.162.05-.17s0-.054 0-.054c-.1 0-.128.081-.116.182a.51.51 0 0 0-.12-.039c-.066 0-.1 0-.128.05s0 .062 0 .1.05.031-.027.05-.066 0-.089 0a.2.2 0 0 0-.131.039c-.046.039.07.062-.07.039a.28.28 0 0 0-.108 0c-.054 0-.081.027-.073.085s.062.058.062.073c0 .124-.135.019-.186 0s-.031 0-.031.019.039.085-.05.089a.4.4 0 0 0-.089-.035c-.019 0-.112.077-.186.07s-.027 0-.023.035.054.089-.058.135h-.135v.054s.228.077.278 0-.039-.108 0-.143c.033-.022.072-.034.112-.035a.5.5 0 0 1 .089-.023s.027.027.043.023a.37.37 0 0 1 .066 0c.019 0 .023-.035.031-.043s-.023-.027 0-.039.05 0 .077.027a.11.11 0 0 0 .143 0c.039-.043-.039-.1-.031-.139s.143 0 .2-.058c.005-.008.005-.019 0-.027-.035-.124.186-.027.255-.039.013-.002.023-.014.023-.027l-.027-.077c0-.073.116-.062.162-.05.046.147.162.3.29.255h0a.33.33 0 0 0-.203-.327zm.046.124l-.019-.035c.037.022.069.053.093.089.023.073-.07-.035-.07-.054zm1.45-1.133c.004-.009.004-.018 0-.027-.019-.077-.108-.019-.124.027s.019.062 0 .1.05.031-.027.05a.77.77 0 0 1-.089 0c-.077 0-.085 0-.131.039s.07.062-.07.039a.28.28 0 0 0-.108 0c-.054 0-.081.027-.073.081s.062.062.062.077c0 .124-.135 0-.186 0h-.031s.039.085-.05.089a.4.4 0 0 0-.089-.035c-.019 0-.112.073-.186.07s-.027 0-.023.031.054.093-.062.139h-.131c-.027 0 0 .05 0 .054s.228.077.278 0-.039-.112 0-.143a.25.25 0 0 1 .112-.035.3.3 0 0 1 .089-.023s.027.023.043.023h.066c.019 0 .023-.035.031-.043s-.023-.027 0-.043.05 0 .077.027c.04.037.103.037.143 0 .039-.046-.039-.1-.031-.139s.143-.019.2-.058c.003-.009.003-.018 0-.027-.035-.124.186-.027.255-.039.013-.002.023-.014.023-.027-.012-.052-.012-.107 0-.159.015-.013.026-.029.032-.048z"/></g><path d="M59.436 100.44l.92.53 7.25-4.242.8-.943-1.67.441z" class="AM AN"/><path d="M66.806 95.579l1.547-.3c.02-.007.043.002.054.02s.008.042-.008.057l-1.048 1.187z" class="AP"/><path d="M68.395 95.355c.016-.015.019-.038.008-.057s-.033-.027-.054-.02l-.3.058h0c.084.053.132.148.124.247v.019z" class="AK"/><path d="M61.586 99.856l.128-.073.151-.085 5.483-3.143a.81.81 0 0 0-.541-.963l-5.479 3.143-.29.166c.204-.109.741.843.548.955z" class="AL"/><path d="M62.069 99.57l.282-.162c.081-.043.035-.247-.062-.46-.128-.282-.387-.553-.495-.495l-.2.12-.073.043c.108-.058.363.217.491.495.093.2.139.387.07.456h0z" class="AQ"/><path d="M62.144 99.531c.193-.1-.36-1.059-.553-.955l-.282.159c.193-.1.746.854.553.955z" class="AL"/><path d="M61.585 99.856l.278-.159c.193-.1-.333-1.025-.537-.963h0l-.278.162c.193-.104.731.843.537.96z" class="AQ"/><path d="M68.402 95.305l-.054-.027-1.121.611-5.8 3.325H61.4c.162.259.286.584.178.638l.128-.073.151-.085 5.483-3.143h0l1.048-1.187c.015-.015.021-.038.014-.059z" opacity=".15"/><path d="M60.402 100.521l1.183-.677c.085-.043.039-.244-.058-.456-.128-.282-.387-.557-.491-.5h0l-1.191.68c-.236.135 0 .65.247.878.077.088.201.118.31.075z" class="AV"/><path d="M60.468 100.154a.85.85 0 0 0-.479-.584.21.21 0 0 0-.178.023c-.178.166.027.638.278.854.077.084.197.115.305.077.093-.053.123-.189.074-.37z" class="AN"/><path d="M79.488 111.316a.93.93 0 0 0 .464-.116l7.733-4.466a.42.42 0 0 0 .236-.356c-.008-.152-.099-.287-.236-.352l-1.38-.8.661-.387c.142-.061.234-.201.234-.356s-.092-.294-.234-.356l-11.391-6.573a.93.93 0 0 0-.464-.116.95.95 0 0 0-.464.116l-7.733 4.466a.42.42 0 0 0-.236.356c.008.152.099.287.236.352l1.38.8-.661.387c-.137.065-.228.2-.236.352a.42.42 0 0 0 .236.356l11.387 6.573c.143.08.304.121.468.12z" class="AM AN"/><path d="M67.552 103.672c.008-.098.069-.184.159-.224l7.733-4.47a.86.86 0 0 1 .773 0l11.391 6.573c.089.041.15.126.159.224v.352c-.009.098-.07.183-.159.224l-7.733 4.47a.86.86 0 0 1-.773 0l-11.391-6.573c-.088-.04-.149-.124-.159-.22z" class="AQ"/><use xlink:href="#Y" class="AR"/><path d="M79.492 110.566v.348c.135.003.268-.029.387-.093l7.733-4.466c.09-.04.152-.126.162-.224v-.352c-.008.099-.071.185-.162.224l-7.733 4.47c-.119.063-.252.095-.387.093z" class="Ac"/><path d="M66.833 101.789c.008-.098.069-.184.159-.224l7.733-4.47a.86.86 0 0 1 .773 0l11.391 6.573c.089.041.15.126.159.224v.352c-.009.098-.07.183-.159.224l-7.733 4.466a.86.86 0 0 1-.773 0l-11.391-6.573c-.088-.04-.148-.124-.159-.22z" class="AQ"/><use xlink:href="#Y" x="-0.72" y="-1.887" class="AR"/><path d="M78.772 108.679v.348c.135.003.268-.029.387-.093l7.733-4.466c.09-.04.152-.126.162-.224v-.352c-.01.098-.072.184-.162.224l-7.733 4.47c-.119.063-.252.095-.387.093z" class="Ac"/><path d="M97.316 101.615c-.149.002-.295-.035-.425-.108l-11.909-6.875a.46.46 0 0 1-.019-.827l9.836-6.256a.88.88 0 0 1 .468-.124c.148-.004.294.03.425.1l3.542 2.05c.296.172.406.546.251.851l-.143.278c-.025.056-.006.122.046.155l7.138 4.153a.47.47 0 0 1 .019.831l-8.761 5.641c-.141.085-.303.129-.468.128z" class="AM AN"/><use xlink:href="#Z" class="AL"/><use xlink:href="#Z" class="AM AS"/><path d="M84.692 93.507l10.053-6.38c.197-.104.433-.104.63 0l3.615 2.088c.178.103.244.327.151.51l-.147.29c-.093.183-.027.407.151.51l7.284 4.253a.2.2 0 0 1 0 .387l-8.943 5.757c-.196.104-.43.104-.626 0l-12.152-7.018a.2.2 0 0 1-.015-.4z" class="AL"/><path d="M120.773 89.058l-7.659 4.412.92.53 7.605-4.443" class="AM AN"/><path d="M121.519 89.274l.909-1.083c.012-.014.014-.035.004-.051s-.029-.024-.047-.019l-1.388.305z" class="AV"/><path d="M122.393 88.122h0l-1.388.305.275.449.151-.093.971-.615z" class="AP"/><path d="M122.386 88.122c.018-.005.037.003.047.019s.008.037-.004.051l-.178.209h0a.24.24 0 0 0-.139-.2h-.019z" class="AK"/><path d="M114.711 92.22l.112-.066.135-.081 6.039-3.646c.157.032.295.124.387.255a.65.65 0 0 1 .139.588l-6.039 3.646-.259.155c.147-.109-.352-.948-.514-.851z" class="AO"/><path d="M114.711 92.22l.112-.066.135-.081 6.039-3.646c.19.045.351.171.441.344l-6.3 3.847v.023c-.152-.239-.338-.479-.427-.421z" class="AM"/><path d="M115.136 91.962l.251-.151c.07-.046.209.081.333.251s.271.541.174.6l-.182.112-.07.039c.1-.062 0-.387-.174-.6-.116-.162-.251-.286-.325-.255h0z" class="AQ"/><path d="M115.197 91.927c.166-.108.673.742.51.851l-.251.151c.166-.1-.344-.959-.51-.851z" class="AO"/><path d="M114.711 92.219l.247-.147c.159-.108.657.711.522.843h0l-.251.147c.143-.099-.356-.943-.518-.843z" class="AQ"/><path d="M122.427 88.137c-.008-.012-.021-.019-.035-.019.014 0 .027.007.035.019z" class="AP"/><path d="M113.659 92.859l1.052-.638c.07-.046.209.081.333.247.166.224.271.541.178.6h0l-1.056.638c-.209.128-.514-.267-.58-.572a.25.25 0 0 1 .073-.275z" class="AV"/><path d="M113.98 92.963c.176.162.267.396.247.634-.009.055-.044.102-.093.128-.209.07-.487-.3-.549-.588a.25.25 0 0 1 .07-.275c.082-.046.201-.015.325.101z" class="AN"/><defs ><path id="B" d="M48.682 74.558c-.723 5.092.251 6.07 5.088 10.946 2.6 2.621 8.243 7.118 8.243 7.118a14.99 14.99 0 0 0-.967 5.676c-.031 3.213.325 10.911.325 10.911s1.956 1.09 3.46.139c0 0 3.913-18.432 3.634-19.615-.2-.835-6.376-8.792-6.376-8.792l-1.732-1.1 11.213 6.9a28.85 28.85 0 0 0-.112 5.061c.476 4.1 1.578 6.732 2.707 11.9 0 0 2.676.437 3.866-.487l.073-19.263c0-2.374-10.312-9.465-12.264-11.112-1.114-.943-2.359-1.933-2.359-1.933z"/><path id="C" d="M58.77 49.303l9.871-.174c1.377 1.656 1.548 4.004.425 5.842-.267.139-7.312.626-7.312.626z"/><path id="D" d="M50.716 57.171c.808-2.873.178-5.726-.994-6.832-2.993.51-3.747 1.933-4.566 4.7l-1.906 7.06c.746 1 4.141 2.239 5.541 1.813z"/><path id="E" d="M57.738 39.652c-.71.051-1.26.642-1.26 1.353s.55 1.302 1.26 1.353h.247c.71-.051 1.26-.642 1.26-1.353s-.55-1.302-1.26-1.353zm-1.6 1.357c-.004-.429.162-.841.462-1.147s.709-.48 1.138-.485h.247a1.63 1.63 0 0 1 1.542 1.63 1.63 1.63 0 0 1-1.542 1.63h-.247a1.61 1.61 0 0 1-1.6-1.628z"/><path id="F" d="M165.33 64.18c.1 3.5.066 23.879.066 23.879.112 1.005 1.133 2.768 1.315 6.4.259 5.258-1.353 19.765-1.353 19.765a4.83 4.83 0 0 1-4.079.2l-3.031-24.745c-.7-4.528-2.03-16.85-2.03-16.85l-1.3 14.89a20.85 20.85 0 0 1 .622 5.8c-.1 2.413-.356 17.349-.356 17.349a5 5 0 0 1-4.222.445l-3.3-23.4c-.12-2.517.151-28.268.151-28.268z"/><path id="G" d="M20.044 70.169c.007.068-.023.134-.077.174l-.209.12-11.425-6.747a.6.6 0 0 1-.267-.464V51.266l11.986 6.925z"/><path id="H" d="M19.843 70.285c0 .174-.12.24-.267.155L8.132 63.832a.6.6 0 0 1-.271-.464V51.382l11.986 6.925z"/><path id="I" d="M58.071 27.247l-1.469-2.737 1.16-3.379v-2.084l-3.584 2.069v2.069l1.547 2.668a.22.22 0 0 0 .1.093h0z"/><path id="J" d="M121.265 27.247l1.454-2.737-1.16-3.379v-2.084l3.584 2.069v2.069l-1.547 2.668a.2.2 0 0 1-.1.093h0z"/><path id="K" d="M38.383 94.234v-.286c.025-.5.29-.956.711-1.226L87.123 64.98c.445-.23.974-.23 1.419 0l46.784 27.007c.421.27.686.726.711 1.226v.282c-.025.5-.29.956-.711 1.226l-48.018 27.746a1.58 1.58 0 0 1-1.419 0L39.103 95.464c-.423-.271-.691-.728-.72-1.23z"/><path id="L" d="M86.601 120.735v1.933a1.51 1.51 0 0 1-.711-.17L39.106 95.491c-.42-.27-.684-.727-.708-1.226v-.289c.021-.443.231-.855.576-1.133-.255.217-.213.522.131.727l46.785 27.006c.219.114.464.169.711.159z"/><path id="M" d="M39.095 93.542l46.784 27.011a1.58 1.58 0 0 0 1.419 0l48.029-27.746a.43.43 0 0 0 0-.816L88.544 64.985c-.445-.23-.974-.23-1.419 0L39.096 92.727a.43.43 0 0 0 0 .816z"/><path id="N" d="M92.966 82.487v.224a.94.94 0 0 0 .464.8l16.193 9.345c.139.082.298.125.46.124a.92.92 0 0 0 .468-.124l8.823-5.081c.287-.165.464-.47.464-.8v-.309h0c-.002.041-.023.078-.058.1l-9.693 5.595z"/><path id="O" d="M92.966 82.488l9.6-5.545c.172-.096.381-.096.553 0l16.657 9.62c.038.022.06.063.06.106s-.023.084-.06.106l-9.693 5.595z"/><path id="P" d="M110.083 92.37v.615c-.162.001-.321-.042-.46-.124L93.43 83.507a.92.92 0 0 1-.464-.8v-.224z"/><path id="Q" d="M110.083 92.37l-.108.062a.9.9 0 0 1-.151.073l-1.906-11.391c-.04-.236-.181-.443-.387-.565l-16.757-9.665c.069-.064.144-.121.224-.17l16.788 9.693a.81.81 0 0 1 .387.568z"/><path id="R" d="M80.644 81.919l-9.322-5.386c-.167-.093-.37-.093-.537 0l-16.177 9.341a.12.12 0 0 0 0 .209l9.411 5.436z"/><path id="S" d="M64.018 91.517v.607a.88.88 0 0 0 .449-.12l15.721-9.086a.9.9 0 0 0 .449-.773v-.217z"/><path id="T" d="M64.273 91.652c.301.116.637.089.916-.073l15.659-9.04c.275-.158.464-.43.518-.742l1.713-10.223a.88.88 0 0 0 0-.174c.005-.29-.11-.57-.317-.773l-16.27 9.4c-.204.117-.346.318-.387.549z"/><path id="U" d="M59.961 93.704c-.089.054-.089.139 0 .189.103.048.222.048.325 0 .089-.05.089-.135 0-.189-.103-.048-.222-.048-.325 0z"/><path id="V" d="M58.988 93.143a.1.1 0 0 0 0 .186c.1.054.221.054.321 0 .093-.05.093-.135 0-.186-.1-.054-.221-.054-.321 0z"/><path id="W" d="M58.009 92.579a.1.1 0 0 0 0 .186c.102.054.223.054.325 0a.1.1 0 0 0 0-.186c-.102-.054-.223-.054-.325 0z"/><path id="X" d="M52.801 96.635c-.04.001-.078-.02-.1-.054-.029-.054-.01-.121.043-.151l5.374-3.093a.11.11 0 0 1 .112.189l-5.378 3.093c-.015.01-.033.016-.051.016z"/><path id="Y" d="M87.62 105.555l-11.391-6.573a.86.86 0 0 0-.773 0l-7.733 4.47c-.097.032-.163.122-.163.224s.066.193.163.224l11.391 6.573a.86.86 0 0 0 .773 0l7.733-4.47c.097-.032.163-.122.163-.225s-.066-.193-.163-.225z"/><path id="Z" d="M97.489 100.908l8.92-5.166c.079-.026.133-.1.133-.183s-.054-.158-.133-.183l-12.234-6.96a.7.7 0 0 0-.638 0l-8.839 5.1c-.079.026-.133.1-.133.183s.054.158.133.183L96.85 100.9a.71.71 0 0 0 .638 0z"/></defs></svg>