<svg xmlns="http://www.w3.org/2000/svg" xmlns:xlink="http://www.w3.org/1999/xlink" width="177.757" height="161.68" viewBox="0 0 177.757 161.68"><defs><style>.a{fill:none;}.b{fill:#f5f5f5;}.c{fill:#ebebeb;}.d{fill:#207178;}.e,.i,.n,.t{opacity:0.2;}.f,.p,.s,.t{fill:#fff;}.g,.u{fill:#e0e0e0;}.h,.i{fill:#37474f;}.j,.k{fill:#263238;}.ab,.k,.y{opacity:0.4;}.l,.m{fill:#455a64;}.m{opacity:0.1;}.o{fill:#f0f0f0;}.p,.u{opacity:0.8;}.q,.w{fill:#fafafa;}.q,.r,.s{opacity:0.6;}.v{clip-path:url(#a);}.x{fill:#f28f8f;}.z{opacity:0.7;}.aa{fill:#ffa8a7;}.ac{fill:#e6e6e6;}.ad{opacity:0.3;}</style><clipPath id="a"><path class="a" d="M165.164,137.3c-4.631,2.609-8.384,9.11-8.384,14.518s3.752,7.628,8.384,4.953,8.384-9.172,8.384-14.522S169.791,134.686,165.164,137.3Z" transform="translate(-156.78 -136.202)"/></clipPath></defs><g transform="translate(-34.686 -54.118)"><g transform="translate(34.686 122.931)"><path class="b" d="M60.718,300.089c34.707,18.134,90.986,18.134,125.693,0s34.711-47.532,0-65.666-90.986-18.134-125.693,0S26.007,281.955,60.718,300.089Z" transform="translate(-34.686 -220.822)"/></g><g transform="translate(131.738 163.078)"><ellipse class="c" cx="18.951" cy="9.032" rx="18.951" ry="9.032" transform="translate(0 16.47)"/><ellipse class="c" cx="14.621" cy="6.968" rx="14.621" ry="6.968" transform="translate(37.902)"/></g><g transform="translate(60.641 150.438)"><path class="d" d="M116.976,305.115a29.26,29.26,0,0,0-7.533-14.035c-3.546-3.327-8.809-4.487-10.906-2.951s-.722,4.854,3.348,8.9c4.594,4.561,13.416,17.217,15.091,24.387Z" transform="translate(-97.564 -287.46)"/><g class="e" transform="translate(0 0)"><path d="M116.976,305.115a29.26,29.26,0,0,0-7.533-14.035c-3.546-3.327-8.809-4.487-10.906-2.951s-.722,4.854,3.348,8.9c4.594,4.561,13.416,17.217,15.091,24.387Z" transform="translate(-97.564 -287.46)"/></g><path class="f" d="M121.2,317.961a.211.211,0,0,1-.206-.19c-1.04-10.98-8.718-23.322-16.1-25.894a.208.208,0,0,1,.136-.392c7.653,2.662,15.31,14.93,16.383,26.249a.211.211,0,0,1-.186.227Z" transform="translate(-101.786 -289.817)"/><path class="d" d="M120.342,345.009s-1.428,1.139-6.192.693-7.22-3.851-7.22-5.313,4.38-1.713,5.329-5.337a6.332,6.332,0,0,1-3.649,1.936c-2.477.466-4.466-.326-5.032-4.838a8.091,8.091,0,0,0,3.641-.3c1.961-.632,2.427-1.709,1.915-1.94s-3.244,0-4.995-.665-.413-9.779.735-10.427,6.576.879,7.632,1.7a4.116,4.116,0,0,1,1.651,4.648,6.675,6.675,0,0,0,1.651-2.427c.512-1.238.883-.949,1.651-.475a3.715,3.715,0,0,1,1.812,2.477c.186,1.156-.116,5.143-1.742,6.439,0,0,1.56.2,2.836-2.435,0,0,2.477,1,3.038,2.617S124.577,340.9,120.342,345.009Z" transform="translate(-100.93 -305.782)"/><path class="f" d="M124.526,348.248a.211.211,0,0,1-.206-.182c-1.09-8.92-7.872-20.639-14.522-25.04a.208.208,0,1,1,.231-.347c6.733,4.479,13.622,16.317,14.7,25.337a.206.206,0,0,1-.177.231Z" transform="translate(-104.693 -308.121)"/></g><g transform="translate(80.052 54.118)"><path class="g" d="M145.446,191.812a1.919,1.919,0,0,1-.826-1.515V91.678a1.973,1.973,0,0,1,.9-1.548l61.918-35.755a1.68,1.68,0,0,1,2.572,1.486L147.179,191.779a1.915,1.915,0,0,1-1.734.033Z" transform="translate(-144.607 -54.118)"/><path class="h" d="M146.266,124.858,171.417,108.4l-1.676-.97-24.255,14.006a1.973,1.973,0,0,0-.9,1.548v.9Z" transform="translate(-144.589 -85.423)"/><path class="i" d="M146.266,124.858,171.417,108.4l-1.676-.97-24.255,14.006a1.973,1.973,0,0,0-.9,1.548v.9Z" transform="translate(-144.589 -85.423)"/><path class="j" d="M154.665,148.647,144.849,143a1.829,1.829,0,0,0-.26.879v98.6a1.68,1.68,0,0,0,2.572,1.482l7.5-4.314Z" transform="translate(-144.588 -106.311)"/><path class="k" d="M154.665,148.647,144.849,143a1.829,1.829,0,0,0-.26.879v98.6a1.68,1.68,0,0,0,2.572,1.482l7.5-4.314Z" transform="translate(-144.588 -106.311)"/><path class="l" d="M149.546,193.35l61.918-35.755a1.973,1.973,0,0,0,.9-1.548V57.433c0-.57-.413-.8-.9-.516L149.546,92.672a1.973,1.973,0,0,0-.9,1.548v98.614C148.65,193.4,149.05,193.635,149.546,193.35Z" transform="translate(-146.973 -55.69)"/><path class="m" d="M149.546,193.35l61.918-35.755a1.973,1.973,0,0,0,.9-1.548V57.433c0-.57-.413-.8-.9-.516L149.546,92.672a1.973,1.973,0,0,0-.9,1.548v98.614C148.65,193.4,149.05,193.635,149.546,193.35Z" transform="translate(-146.973 -55.69)"/><path class="d" d="M158.567,190.059l14.86-8.586c.987-.57,1.787-.165,1.787.9a3.835,3.835,0,0,1-1.787,2.968l-14.86,8.586c-.991.57-1.787.165-1.787-.9a3.822,3.822,0,0,1,1.787-2.968Z" transform="translate(-151.747 -128.751)"/><path class="d" d="M158.567,208.953l9.837-5.68c.987-.57,1.787-.165,1.787.9a3.835,3.835,0,0,1-1.787,2.968l-9.837,5.68c-.991.57-1.787.165-1.787-.9A3.822,3.822,0,0,1,158.567,208.953Z" transform="translate(-151.747 -141.552)"/><path class="d" d="M157.494,240.943l1.924-1.11c.413-.227.714-.041.714.413v2.221a1.581,1.581,0,0,1-.714,1.238l-1.924,1.094c-.413.231-.714.045-.714-.413v-2.221a1.585,1.585,0,0,1,.714-1.222Z" transform="translate(-151.747 -163.115)"/><path class="n" d="M157.494,240.943l1.924-1.11c.413-.227.714-.041.714.413v2.221a1.581,1.581,0,0,1-.714,1.238l-1.924,1.094c-.413.231-.714.045-.714-.413v-2.221a1.585,1.585,0,0,1,.714-1.222Z" transform="translate(-151.747 -163.115)"/><path class="d" d="M157.494,259.709l1.924-1.11c.413-.231.714-.045.714.413v2.221a1.593,1.593,0,0,1-.714,1.238l-1.924,1.11c-.413.227-.714.041-.714-.413v-2.221A1.573,1.573,0,0,1,157.494,259.709Z" transform="translate(-151.747 -174.133)"/><g class="e" transform="translate(5.033 84.366)"><path d="M157.494,259.709l1.924-1.11c.413-.231.714-.045.714.413v2.221a1.593,1.593,0,0,1-.714,1.238l-1.924,1.11c-.413.227-.714.041-.714-.413v-2.221A1.573,1.573,0,0,1,157.494,259.709Z" transform="translate(-156.78 -258.499)"/></g><path class="d" d="M169.856,246.752l11.624-6.716c.5-.285.9-.083.9.454a1.915,1.915,0,0,1-.9,1.482l-11.624,6.716c-.5.285-.9.083-.9-.454a1.915,1.915,0,0,1,.9-1.482Z" transform="translate(-158.899 -163.216)"/><path class="n" d="M169.856,246.752l11.624-6.716c.5-.285.9-.083.9.454a1.915,1.915,0,0,1-.9,1.482l-11.624,6.716c-.5.285-.9.083-.9-.454a1.915,1.915,0,0,1,.9-1.482Z" transform="translate(-158.899 -163.216)"/><path class="g" d="M157.494,278.469l1.924-1.11c.413-.231.714-.045.714.413v2.221a1.589,1.589,0,0,1-.714,1.238l-1.924,1.11c-.413.227-.714.041-.714-.413v-2.221A1.573,1.573,0,0,1,157.494,278.469Z" transform="translate(-151.747 -185.15)"/><path class="o" d="M169.856,265.524l11.624-6.708c.5-.285.9-.083.9.454a1.907,1.907,0,0,1-.9,1.482l-11.624,6.716c-.5.285-.9.083-.9-.454A1.915,1.915,0,0,1,169.856,265.524Z" transform="translate(-158.899 -174.244)"/><path class="g" d="M157.494,297.279l1.924-1.11c.413-.231.714-.045.714.413V298.8a1.589,1.589,0,0,1-.714,1.238l-1.924,1.11c-.413.227-.714.041-.714-.413v-2.221a1.573,1.573,0,0,1,.714-1.238Z" transform="translate(-151.747 -196.195)"/><path class="o" d="M169.856,284.326l11.624-6.712c.5-.289.9-.083.9.45a1.915,1.915,0,0,1-.9,1.486l-11.624,6.712c-.5.285-.9.083-.9-.454a1.915,1.915,0,0,1,.9-1.482Z" transform="translate(-158.899 -185.281)"/><path class="g" d="M157.494,316.039l1.924-1.11c.413-.231.714-.045.714.413v2.221a1.589,1.589,0,0,1-.714,1.238l-1.924,1.11c-.413.227-.714.041-.714-.413v-2.221A1.573,1.573,0,0,1,157.494,316.039Z" transform="translate(-151.747 -207.211)"/><path class="o" d="M169.856,303.086l11.624-6.712c.5-.289.9-.083.9.45a1.915,1.915,0,0,1-.9,1.486l-11.624,6.712c-.5.285-.9.083-.9-.454A1.915,1.915,0,0,1,169.856,303.086Z" transform="translate(-158.899 -196.297)"/><path class="d" d="M157.672,329.242l8.256-4.776c.5-.285.9-.083.9.454a1.915,1.915,0,0,1-.9,1.482l-8.256,4.776c-.491.285-.892.083-.892-.45A1.919,1.919,0,0,1,157.672,329.242Z" transform="translate(-151.747 -212.795)"/><path class="d" d="M157.672,331.74l16.656-9.614c.5-.285.9-.083.9.45a1.915,1.915,0,0,1-.9,1.486l-16.656,9.614c-.491.285-.892.083-.892-.45a1.919,1.919,0,0,1,.892-1.486Z" transform="translate(-151.747 -211.42)"/><path class="p" d="M157.672,331.74l16.656-9.614c.5-.285.9-.083.9.45a1.915,1.915,0,0,1-.9,1.486l-16.656,9.614c-.491.285-.892.083-.892-.45a1.919,1.919,0,0,1,.892-1.486Z" transform="translate(-151.747 -211.42)"/><path class="d" d="M157.672,335.868l11.628-6.712c.491-.285.892-.083.892.454a1.919,1.919,0,0,1-.892,1.482L157.672,337.8c-.491.285-.892.083-.892-.45a1.919,1.919,0,0,1,.892-1.486Z" transform="translate(-151.747 -215.549)"/><path class="d" d="M157.672,348.022l8.256-4.776c.5-.285.9-.083.9.454a1.915,1.915,0,0,1-.9,1.482l-8.256,4.776c-.491.285-.892.083-.892-.45A1.919,1.919,0,0,1,157.672,348.022Z" transform="translate(-151.747 -223.822)"/><path class="d" d="M169.856,227.988l11.624-6.712c.5-.285.9-.083.9.454a1.915,1.915,0,0,1-.9,1.482l-11.624,6.712c-.5.285-.9.083-.9-.45a1.915,1.915,0,0,1,.9-1.486Z" transform="translate(-158.899 -152.2)"/><path class="n" d="M169.856,227.988l11.624-6.712c.5-.285.9-.083.9.454a1.915,1.915,0,0,1-.9,1.482l-11.624,6.712c-.5.285-.9.083-.9-.45a1.915,1.915,0,0,1,.9-1.486Z" transform="translate(-158.899 -152.2)"/><path class="d" d="M157.672,348.022l8.256-4.776c.5-.285.9-.083.9.454a1.915,1.915,0,0,1-.9,1.482l-8.256,4.776c-.491.285-.892.083-.892-.45A1.919,1.919,0,0,1,157.672,348.022Z" transform="translate(-151.747 -223.822)"/><path class="d" d="M157.672,350.49l16.656-9.614c.5-.285.9-.083.9.45a1.915,1.915,0,0,1-.9,1.486l-16.656,9.6c-.491.289-.892.083-.892-.45A1.92,1.92,0,0,1,157.672,350.49Z" transform="translate(-151.747 -222.431)"/><path class="p" d="M157.672,350.49l16.656-9.614c.5-.285.9-.083.9.45a1.915,1.915,0,0,1-.9,1.486l-16.656,9.6c-.491.289-.892.083-.892-.45A1.92,1.92,0,0,1,157.672,350.49Z" transform="translate(-151.747 -222.431)"/><path class="d" d="M157.672,351.835l14.98-8.669c.5-.285.9-.083.9.454a1.915,1.915,0,0,1-.9,1.482l-14.98,8.668c-.491.289-.892.083-.892-.45a1.919,1.919,0,0,1,.892-1.486Z" transform="translate(-151.747 -223.776)"/><path class="c" d="M247.251,56.921,209.58,78.67V179.349L247.251,157.6a1.973,1.973,0,0,0,.9-1.548V57.437C248.142,56.884,247.73,56.636,247.251,56.921Z" transform="translate(-182.752 -55.694)"/><path class="q" d="M247.251,56.921,209.58,78.67V179.349L247.251,157.6a1.973,1.973,0,0,0,.9-1.548V57.437C248.142,56.884,247.73,56.636,247.251,56.921Z" transform="translate(-182.752 -55.694)"/><path class="d" d="M204.812,90.24v7.744l-3.352,3.872h3.352V109.6l35.211-20.33V69.91Z" transform="translate(-177.984 -63.391)"/><g class="r" transform="translate(30.196 18.684)"><path class="f" d="M218.978,107.814l14.266-8.256c.689-.413,1.238-.074,1.238.722h0a2.774,2.774,0,0,1-1.238,2.167l-14.266,8.235c-.693.413-1.238.074-1.238-.722h0a2.762,2.762,0,0,1,1.238-2.146Z" transform="translate(-217.74 -99.382)"/></g><path class="d" d="M218.156,112.231,245.767,96.29c.248-.14.446-.041.446.227a.958.958,0,0,1-.446.743l-27.611,15.921c-.248.14-.446.041-.446-.227A.958.958,0,0,1,218.156,112.231Z" transform="translate(-187.526 -78.844)"/><path class="d" d="M218.156,112.231,245.767,96.29c.248-.14.446-.041.446.227a.958.958,0,0,1-.446.743l-27.611,15.921c-.248.14-.446.041-.446-.227A.958.958,0,0,1,218.156,112.231Z" transform="translate(-187.526 -78.844)"/><path class="s" d="M218.156,112.231,245.767,96.29c.248-.14.446-.041.446.227a.958.958,0,0,1-.446.743l-27.611,15.921c-.248.14-.446.041-.446-.227A.958.958,0,0,1,218.156,112.231Z" transform="translate(-187.526 -78.844)"/><path class="d" d="M218.156,119.229l27.611-15.942c.248-.144.446-.041.446.227a.949.949,0,0,1-.446.739l-27.611,15.942c-.248.144-.446.041-.446-.227a.949.949,0,0,1,.446-.739Z" transform="translate(-187.526 -82.952)"/><path class="s" d="M218.156,119.229l27.611-15.942c.248-.144.446-.041.446.227a.949.949,0,0,1-.446.739l-27.611,15.942c-.248.144-.446.041-.446-.227a.949.949,0,0,1,.446-.739Z" transform="translate(-187.526 -82.952)"/><path class="s" d="M218.156,126.231l27.611-15.942c.248-.14.446-.041.446.227a.958.958,0,0,1-.446.743L218.156,127.2c-.248.14-.446.041-.446-.227a.958.958,0,0,1,.446-.743Z" transform="translate(-187.526 -87.065)"/><path class="d" d="M220.312,166.973l1.936-1.115c.413-.231.714-.045.714.413v2.221a1.585,1.585,0,0,1-.714,1.238l-1.924,1.11c-.413.227-.714.041-.714-.413v-2.217A1.573,1.573,0,0,1,220.312,166.973Z" transform="translate(-188.642 -119.675)"/><path class="t" d="M220.312,166.973l1.936-1.115c.413-.231.714-.045.714.413v2.221a1.585,1.585,0,0,1-.714,1.238l-1.924,1.11c-.413.227-.714.041-.714-.413v-2.217A1.573,1.573,0,0,1,220.312,166.973Z" transform="translate(-188.642 -119.675)"/><path class="d" d="M232.656,154.022l11.624-6.716c.5-.285.9-.083.9.454a1.915,1.915,0,0,1-.9,1.482l-11.624,6.716c-.5.285-.9.083-.9-.454a1.915,1.915,0,0,1,.9-1.482Z" transform="translate(-195.776 -108.764)"/><path class="p" d="M232.656,154.022l11.624-6.716c.5-.285.9-.083.9.454a1.915,1.915,0,0,1-.9,1.482l-11.624,6.716c-.5.285-.9.083-.9-.454a1.915,1.915,0,0,1,.9-1.482Z" transform="translate(-195.776 -108.764)"/><path class="d" d="M220.026,161.331l29.308-16.924c.248-.144.446-.041.446.223a.954.954,0,0,1-.446.743L220.026,162.3c-.248.144-.446.041-.446-.227A.949.949,0,0,1,220.026,161.331Z" transform="translate(-188.624 -107.098)"/><path class="d" d="M220.026,168.364l29.308-16.924c.248-.14.446-.041.446.227a.958.958,0,0,1-.446.743l-29.308,16.924c-.248.14-.446.041-.446-.227A.958.958,0,0,1,220.026,168.364Z" transform="translate(-188.624 -111.229)"/><path class="d" d="M220.026,175.4l29.308-16.924c.248-.144.446-.041.446.223a.954.954,0,0,1-.446.743l-29.308,16.924c-.248.144-.446.041-.446-.223A.953.953,0,0,1,220.026,175.4Z" transform="translate(-188.624 -115.36)"/><path class="d" d="M220.026,182.454l29.308-16.924c.248-.14.446-.041.446.227a.958.958,0,0,1-.446.743l-29.308,16.924c-.248.14-.446.041-.446-.227A.958.958,0,0,1,220.026,182.454Z" transform="translate(-188.624 -119.503)"/><path class="g" d="M220.026,161.331l29.308-16.924c.248-.144.446-.041.446.223a.954.954,0,0,1-.446.743L220.026,162.3c-.248.144-.446.041-.446-.227A.949.949,0,0,1,220.026,161.331Z" transform="translate(-188.624 -107.098)"/><path class="g" d="M220.026,168.364l29.308-16.924c.248-.14.446-.041.446.227a.958.958,0,0,1-.446.743l-29.308,16.924c-.248.14-.446.041-.446-.227A.958.958,0,0,1,220.026,168.364Z" transform="translate(-188.624 -111.229)"/><path class="g" d="M220.026,175.4l29.308-16.924c.248-.144.446-.041.446.223a.954.954,0,0,1-.446.743l-29.308,16.924c-.248.144-.446.041-.446-.223A.953.953,0,0,1,220.026,175.4Z" transform="translate(-188.624 -115.36)"/><path class="g" d="M220.026,182.454l29.308-16.924c.248-.14.446-.041.446.227a.958.958,0,0,1-.446.743l-29.308,16.924c-.248.14-.446.041-.446-.227A.958.958,0,0,1,220.026,182.454Z" transform="translate(-188.624 -119.503)"/><path class="u" d="M220.026,161.331l29.308-16.924c.248-.144.446-.041.446.223a.954.954,0,0,1-.446.743L220.026,162.3c-.248.144-.446.041-.446-.227A.949.949,0,0,1,220.026,161.331Z" transform="translate(-188.624 -107.098)"/><path class="u" d="M220.026,168.364l29.308-16.924c.248-.14.446-.041.446.227a.958.958,0,0,1-.446.743l-29.308,16.924c-.248.14-.446.041-.446-.227A.958.958,0,0,1,220.026,168.364Z" transform="translate(-188.624 -111.229)"/><path class="u" d="M220.026,175.4l29.308-16.924c.248-.144.446-.041.446.223a.954.954,0,0,1-.446.743l-29.308,16.924c-.248.144-.446.041-.446-.223A.953.953,0,0,1,220.026,175.4Z" transform="translate(-188.624 -115.36)"/><path class="u" d="M220.026,182.454l29.308-16.924c.248-.14.446-.041.446.227a.958.958,0,0,1-.446.743l-29.308,16.924c-.248.14-.446.041-.446-.227A.958.958,0,0,1,220.026,182.454Z" transform="translate(-188.624 -119.503)"/><path class="g" d="M220.026,212.331l29.308-16.924c.248-.144.446-.041.446.223a.953.953,0,0,1-.446.743L220.026,213.3c-.248.144-.446.041-.446-.227A.949.949,0,0,1,220.026,212.331Z" transform="translate(-188.624 -137.046)"/><path class="g" d="M220.026,219.364l29.308-16.924c.248-.14.446-.041.446.227a.958.958,0,0,1-.446.743l-29.308,16.924c-.248.14-.446.041-.446-.227A.958.958,0,0,1,220.026,219.364Z" transform="translate(-188.624 -141.177)"/><path class="g" d="M220.026,226.4l29.308-16.924c.248-.144.446-.041.446.223a.954.954,0,0,1-.446.743l-29.308,16.924c-.248.144-.446.041-.446-.223a.954.954,0,0,1,.446-.743Z" transform="translate(-188.624 -145.308)"/><path class="g" d="M220.026,233.454l29.308-16.924c.248-.14.446-.041.446.227a.958.958,0,0,1-.446.743l-29.308,16.924c-.248.14-.446.041-.446-.227A.958.958,0,0,1,220.026,233.454Z" transform="translate(-188.624 -149.451)"/><path class="u" d="M220.026,212.331l29.308-16.924c.248-.144.446-.041.446.223a.953.953,0,0,1-.446.743L220.026,213.3c-.248.144-.446.041-.446-.227A.949.949,0,0,1,220.026,212.331Z" transform="translate(-188.624 -137.046)"/><path class="u" d="M220.026,219.364l29.308-16.924c.248-.14.446-.041.446.227a.958.958,0,0,1-.446.743l-29.308,16.924c-.248.14-.446.041-.446-.227A.958.958,0,0,1,220.026,219.364Z" transform="translate(-188.624 -141.177)"/><path class="u" d="M220.026,226.4l29.308-16.924c.248-.144.446-.041.446.223a.954.954,0,0,1-.446.743l-29.308,16.924c-.248.144-.446.041-.446-.223a.954.954,0,0,1,.446-.743Z" transform="translate(-188.624 -145.308)"/><path class="u" d="M220.026,233.454l29.308-16.924c.248-.14.446-.041.446.227a.958.958,0,0,1-.446.743l-29.308,16.924c-.248.14-.446.041-.446-.227A.958.958,0,0,1,220.026,233.454Z" transform="translate(-188.624 -149.451)"/><path class="g" d="M220.026,264.331l29.308-16.924c.248-.144.446-.041.446.223a.953.953,0,0,1-.446.743L220.026,265.3c-.248.144-.446.041-.446-.227a.949.949,0,0,1,.446-.739Z" transform="translate(-188.624 -167.581)"/><path class="g" d="M220.026,271.364l29.308-16.924c.248-.14.446-.041.446.227a.958.958,0,0,1-.446.743l-29.308,16.924c-.248.14-.446.041-.446-.227A.958.958,0,0,1,220.026,271.364Z" transform="translate(-188.624 -171.712)"/><path class="g" d="M220.026,278.4l29.308-16.924c.248-.144.446-.041.446.223a.954.954,0,0,1-.446.743l-29.308,16.924c-.248.145-.446.041-.446-.223a.954.954,0,0,1,.446-.743Z" transform="translate(-188.624 -175.843)"/><path class="g" d="M220.026,285.454l29.308-16.924c.248-.14.446-.041.446.227a.958.958,0,0,1-.446.743l-29.308,16.924c-.248.14-.446.041-.446-.227A.958.958,0,0,1,220.026,285.454Z" transform="translate(-188.624 -179.986)"/><path class="u" d="M220.026,264.331l29.308-16.924c.248-.144.446-.041.446.223a.953.953,0,0,1-.446.743L220.026,265.3c-.248.144-.446.041-.446-.227a.949.949,0,0,1,.446-.739Z" transform="translate(-188.624 -167.581)"/><path class="u" d="M220.026,271.364l29.308-16.924c.248-.14.446-.041.446.227a.958.958,0,0,1-.446.743l-29.308,16.924c-.248.14-.446.041-.446-.227A.958.958,0,0,1,220.026,271.364Z" transform="translate(-188.624 -171.712)"/><path class="u" d="M220.026,278.4l29.308-16.924c.248-.144.446-.041.446.223a.954.954,0,0,1-.446.743l-29.308,16.924c-.248.145-.446.041-.446-.223a.954.954,0,0,1,.446-.743Z" transform="translate(-188.624 -175.843)"/><path class="u" d="M220.026,285.454l29.308-16.924c.248-.14.446-.041.446.227a.958.958,0,0,1-.446.743l-29.308,16.924c-.248.14-.446.041-.446-.227A.958.958,0,0,1,220.026,285.454Z" transform="translate(-188.624 -179.986)"/><path class="d" d="M220.312,218.573l1.936-1.11c.413-.227.714-.041.714.413V220.1a1.573,1.573,0,0,1-.714,1.238l-1.924,1.11c-.413.227-.714.045-.714-.413v-2.221A1.577,1.577,0,0,1,220.312,218.573Z" transform="translate(-188.642 -149.979)"/><path class="t" d="M220.312,218.573l1.936-1.11c.413-.227.714-.041.714.413V220.1a1.573,1.573,0,0,1-.714,1.238l-1.924,1.11c-.413.227-.714.045-.714-.413v-2.221A1.577,1.577,0,0,1,220.312,218.573Z" transform="translate(-188.642 -149.979)"/><path class="d" d="M232.656,205.618l11.624-6.712c.5-.285.9-.083.9.45a1.915,1.915,0,0,1-.9,1.486l-11.624,6.7c-.5.285-.9.083-.9-.45a1.915,1.915,0,0,1,.9-1.47Z" transform="translate(-195.776 -139.064)"/><path class="p" d="M232.656,205.618l11.624-6.712c.5-.285.9-.083.9.45a1.915,1.915,0,0,1-.9,1.486l-11.624,6.7c-.5.285-.9.083-.9-.45a1.915,1.915,0,0,1,.9-1.47Z" transform="translate(-195.776 -139.064)"/><path class="d" d="M220.312,270.169l1.936-1.11c.413-.231.714-.045.714.413v2.221a1.577,1.577,0,0,1-.714,1.238l-1.924,1.11c-.413.227-.714.041-.714-.413v-2.221A1.573,1.573,0,0,1,220.312,270.169Z" transform="translate(-188.642 -180.276)"/><path class="t" d="M220.312,270.169l1.936-1.11c.413-.231.714-.045.714.413v2.221a1.577,1.577,0,0,1-.714,1.238l-1.924,1.11c-.413.227-.714.041-.714-.413v-2.221A1.573,1.573,0,0,1,220.312,270.169Z" transform="translate(-188.642 -180.276)"/><path class="d" d="M232.656,257.262l11.624-6.716c.5-.285.9-.083.9.454a1.919,1.919,0,0,1-.9,1.486L232.656,259.2c-.5.285-.9.083-.9-.454a1.915,1.915,0,0,1,.9-1.482Z" transform="translate(-195.776 -169.388)"/><path class="p" d="M232.656,257.262l11.624-6.716c.5-.285.9-.083.9.454a1.919,1.919,0,0,1-.9,1.486L232.656,259.2c-.5.285-.9.083-.9-.454a1.915,1.915,0,0,1,.9-1.482Z" transform="translate(-195.776 -169.388)"/><path class="d" d="M226.924,315.593l1.924-1.11c.413-.227.718-.041.718.413v2.221a1.577,1.577,0,0,1-.718,1.238l-1.924,1.11c-.392.231-.714.045-.714-.413v-2.221a1.593,1.593,0,0,1,.714-1.238Z" transform="translate(-192.517 -206.951)"/><path class="g" d="M220.026,328.981l7.938-4.582c.248-.14.446-.041.446.227a.958.958,0,0,1-.446.743l-7.938,4.582c-.248.14-.446.041-.446-.227A.958.958,0,0,1,220.026,328.981Z" transform="translate(-188.624 -212.794)"/><path class="d" d="M252.788,300.653l1.924-1.11c.392-.227.714-.041.714.413v2.221a1.581,1.581,0,0,1-.714,1.238l-1.924,1.11c-.413.227-.718.045-.718-.413v-2.221A1.581,1.581,0,0,1,252.788,300.653Z" transform="translate(-207.703 -198.178)"/><path class="g" d="M245.886,314.039l7.938-4.582c.248-.144.446-.041.446.227a.95.95,0,0,1-.446.739l-7.938,4.586c-.248.145-.446.041-.446-.223A.954.954,0,0,1,245.886,314.039Z" transform="translate(-203.81 -204.018)"/><path class="d" d="M278.654,285.709l1.924-1.11c.392-.231.714-.045.714.413v2.221a1.589,1.589,0,0,1-.714,1.238l-1.924,1.11c-.413.227-.714.041-.714-.413v-2.221A1.573,1.573,0,0,1,278.654,285.709Z" transform="translate(-222.894 -189.401)"/><path class="t" d="M226.924,315.593l1.924-1.11c.413-.227.718-.041.718.413v2.221a1.577,1.577,0,0,1-.718,1.238l-1.924,1.11c-.392.231-.714.045-.714-.413v-2.221a1.593,1.593,0,0,1,.714-1.238Z" transform="translate(-192.517 -206.951)"/><path class="t" d="M252.788,300.653l1.924-1.11c.392-.227.714-.041.714.413v2.221a1.581,1.581,0,0,1-.714,1.238l-1.924,1.11c-.413.227-.718.045-.718-.413v-2.221A1.581,1.581,0,0,1,252.788,300.653Z" transform="translate(-207.703 -198.178)"/><path class="t" d="M278.654,285.709l1.924-1.11c.392-.231.714-.045.714.413v2.221a1.589,1.589,0,0,1-.714,1.238l-1.924,1.11c-.413.227-.714.041-.714-.413v-2.221A1.573,1.573,0,0,1,278.654,285.709Z" transform="translate(-222.894 -189.401)"/><path class="g" d="M271.746,299.1l7.938-4.582c.248-.145.446-.041.446.223a.953.953,0,0,1-.446.743l-7.938,4.582c-.244.144-.446.041-.446-.227A.962.962,0,0,1,271.746,299.1Z" transform="translate(-218.995 -195.245)"/><g class="v" transform="translate(5.033 33.883)"><path class="w" d="M165.164,137.3c-4.631,2.609-8.384,9.11-8.384,14.518s3.752,7.628,8.384,4.953,8.384-9.172,8.384-14.522S169.791,134.686,165.164,137.3Z" transform="translate(-156.78 -136.202)"/><path class="a" d="M165.164,137.3c-4.631,2.609-8.384,9.11-8.384,14.518s3.752,7.628,8.384,4.953,8.384-9.172,8.384-14.522S169.791,134.686,165.164,137.3Z" transform="translate(-156.78 -136.202)"/><path class="a" d="M165.164,137.3c-4.631,2.609-8.384,9.11-8.384,14.518s3.752,7.628,8.384,4.953,8.384-9.172,8.384-14.522S169.791,134.686,165.164,137.3Z" transform="translate(-156.78 -136.202)"/><path class="h" d="M176.02,157.39l-6.712,1.8a.731.731,0,0,1-.954-.768V147a4.582,4.582,0,0,1,3.154-4.239l2.3-.615a2.429,2.429,0,0,1,3.162,2.543v11.43a1.383,1.383,0,0,1-.945,1.276Z" transform="translate(-163.575 -139.628)"/><path class="x" d="M184.756,174.5l-.706-3.117s0-4.206-.6-4.594a6.9,6.9,0,0,0-.772-.462c.768-.264,2.386-.462,2.89,1.015.483,1.4,1.205,4.834,1.548,6.526Z" transform="translate(-171.989 -153.784)"/><path class="d" d="M184.164,174.27l-2.394-8.153c1.061-.413,2.423-.755,3.084.338.594.982,1.544,6.13,1.73,7.166Z" transform="translate(-171.454 -153.536)"/><g class="y" transform="translate(10.316 12.185)"><path d="M184.164,174.27l-2.394-8.153c1.061-.413,2.423-.755,3.084.338.594.982,1.544,6.13,1.73,7.166Z" transform="translate(-181.77 -165.721)"/></g><path class="d" d="M185,182.327l-2.353.632a5.366,5.366,0,0,1,.656-1.919,3.831,3.831,0,0,1,1.932-1.449A13.754,13.754,0,0,0,185,182.327Z" transform="translate(-171.971 -161.68)"/><path class="d" d="M185,182.327l-2.353.632a5.366,5.366,0,0,1,.656-1.919,3.831,3.831,0,0,1,1.932-1.449A13.754,13.754,0,0,0,185,182.327Z" transform="translate(-171.971 -161.68)"/><g class="z" transform="translate(10.679 17.91)"><path d="M185,182.327l-2.353.632a5.366,5.366,0,0,1,.656-1.919,3.831,3.831,0,0,1,1.932-1.449A13.754,13.754,0,0,0,185,182.327Z" transform="translate(-182.65 -179.59)"/></g><path class="d" d="M176.055,174.862l-6.6,1.763-.726-2.25s1.928-4.512-.454-5.672c.3-.227,2.84-1.218,2.84-1.218l2.729-.826c.52-.14,2.621.793,3.154,2.861.19.731.124,1.387-.945,5.193A.6.6,0,0,1,176.055,174.862Z" transform="translate(-163.527 -154.079)"/><path class="aa" d="M177.447,145.69c.454.165,1.015,1.238.962,3.827-.045,2.2-.706,2.89-1.036,3.154a3.55,3.55,0,0,1-1.593.376v1.309s.859.826.8,1.453-1.238,1.073-2.039.7a4.607,4.607,0,0,1-1.482-1.329v-3.013a.693.693,0,0,1-.987.062,1.168,1.168,0,0,1-.285-1.651c.413-.541,1.135-.619,1.416-.078a4.074,4.074,0,0,1,1.775-2A4.912,4.912,0,0,0,177.447,145.69Z" transform="translate(-165.464 -141.773)"/><path class="h" d="M181.912,154.812a.38.38,0,0,1-.244.363.2.2,0,0,1-.268-.2.38.38,0,0,1,.244-.363.2.2,0,0,1,.268.2Z" transform="translate(-171.237 -147.007)"/><path class="x" d="M182.781,159.55l.594.041a.413.413,0,0,1-.384.334A.277.277,0,0,1,182.781,159.55Z" transform="translate(-172.041 -149.912)"/><path class="h" d="M186.986,151.047l-.516-.244a.347.347,0,0,1,.413-.211.326.326,0,0,1,.1.454Z" transform="translate(-174.214 -144.646)"/><path class="h" d="M180.776,153.187l.516-.524a.277.277,0,0,0-.413.021A.413.413,0,0,0,180.776,153.187Z" transform="translate(-170.845 -145.819)"/><path class="h" d="M186.7,153.046a.376.376,0,0,1-.244.363.2.2,0,0,1-.268-.2.384.384,0,0,1,.244-.363.2.2,0,0,1,.268.2Z" transform="translate(-174.05 -145.968)"/><path class="x" d="M184.51,153.75l.037,1.639.813-.487Z" transform="translate(-173.063 -146.506)"/><path class="x" d="M178.628,162.823c-.652.083-2,.029-2.208-.483a1.048,1.048,0,0,0,.471.6,5.469,5.469,0,0,0,1.738.322Z" transform="translate(-168.313 -151.55)"/><path class="d" d="M170.827,189.412l-.277-.982.727.863Z" transform="translate(-164.866 -166.871)"/><path class="d" d="M167.809,177.959a28.977,28.977,0,0,0-1.2-4.153,3.845,3.845,0,0,1,.549-3.909A20.833,20.833,0,0,1,170,168.68a27.911,27.911,0,0,1,1.115,8.4Z" transform="translate(-162.389 -155.273)"/><path class="ab" d="M167.809,177.959a28.977,28.977,0,0,0-1.2-4.153,3.845,3.845,0,0,1,.549-3.909A20.833,20.833,0,0,1,170,168.68a27.911,27.911,0,0,1,1.115,8.4Z" transform="translate(-162.389 -155.273)"/><path class="d" d="M163.453,180.005l-2.357.632a1.448,1.448,0,0,1-.186-.149s1.115-4.3,1.47-5.729.627-2.411,1.585-3.129c1.721,1.119.925,4.227.925,4.227Z" transform="translate(-159.205 -157.006)"/><path class="ab" d="M163.453,180.005l-2.357.632a1.448,1.448,0,0,1-.186-.149s1.115-4.3,1.47-5.729.627-2.411,1.585-3.129c1.721,1.119.925,4.227.925,4.227Z" transform="translate(-159.205 -157.006)"/><path class="a" d="M165.164,137.3c-4.631,2.609-8.384,9.11-8.384,14.518s3.752,7.628,8.384,4.953,8.384-9.172,8.384-14.522S169.791,134.686,165.164,137.3Z" transform="translate(-156.78 -136.202)"/><path class="a" d="M165.164,137.3c-4.631,2.609-8.384,9.11-8.384,14.518s3.752,7.628,8.384,4.953,8.384-9.172,8.384-14.522S169.791,134.686,165.164,137.3Z" transform="translate(-156.78 -136.202)"/></g></g><g transform="translate(48.128 65.19)"><path class="c" d="M83.929,104.917V96.74h0c-.025-1.585,1.007-3.174,3.1-4.38a16.536,16.536,0,0,1,14.976,0c2.093,1.205,3.125,2.795,3.1,4.38h0v8.148a7.142,7.142,0,0,1-3.1,5.6,16.536,16.536,0,0,1-14.976,0,7.135,7.135,0,0,1-3.1-5.552h0Z" transform="translate(-77.044 -86.593)"/><path class="b" d="M84.723,80.94,102.2,91.028,84.723,101.117,67.25,91.028Z" transform="translate(-67.25 -80.94)"/><path class="g" d="M88.4,110.543l8.607-4.912a.312.312,0,0,1,.31.541l-8.3,4.726Z" transform="translate(-79.67 -95.415)"/><path class="ac" d="M127.053,105.38v.722L109.58,116.187v-.718Z" transform="translate(-92.107 -95.292)"/><path class="o" d="M67.25,105.38v.722l17.473,10.084v-.718Z" transform="translate(-67.25 -95.292)"/><path class="g" d="M87.35,118.066l.532.305a.925.925,0,0,1,.326-.318l.186-.107-.607-.347A1.428,1.428,0,0,0,87.35,118.066Z" transform="translate(-79.053 -102.467)"/><path class="g" d="M105.138,116.73l-10.609,7.2-10.58-7.187,10.58,6.105Z" transform="translate(-77.056 -101.956)"/><path class="b" d="M84.631,139.31a1.044,1.044,0,0,0,.958,0l.788,5.09c0,.962-2.5.962-2.5,0Z" transform="translate(-77.015 -115.216)"/><path class="c" d="M85.155,146.35,85,149.14a.8.8,0,0,1-.149-.062Z" transform="translate(-77.585 -119.35)"/><path class="c" d="M87.98,146.7l-.33-4.541.491,4.475A1.465,1.465,0,0,1,87.98,146.7Z" transform="translate(-79.229 -116.889)"/><path class="c" d="M86.867,148.254H86.71l.083-3.6Z" transform="translate(-78.677 -118.351)"/><path class="g" d="M85.941,139.283a.9.9,0,0,0,.508-.173.305.305,0,0,0,.074-.413.3.3,0,0,0-.413-.078.211.211,0,0,1-.293,0,.31.31,0,1,0-.367.5A.85.85,0,0,0,85.941,139.283Z" transform="translate(-77.85 -114.764)"/><path class="w" d="M86.448,118.669a.305.305,0,0,0,.31-.305v-7.215a.929.929,0,0,1,.462-.8l8.763-4.995a.305.305,0,0,0,.116-.413.3.3,0,0,0-.413-.116l-8.784,5a1.544,1.544,0,0,0-.772,1.333v7.215a.305.305,0,0,0,.318.293Z" transform="translate(-78.337 -94.942)"/><path class="b" d="M86.614,136.711a.673.673,0,1,0-.2.477A.677.677,0,0,0,86.614,136.711Z" transform="translate(-77.826 -113.29)"/><path class="c" d="M85.262,136.766a.524.524,0,0,0,.751.256.561.561,0,0,0,0-.962.673.673,0,1,1-.764.706Z" transform="translate(-77.82 -113.307)"/></g><g transform="translate(151.217 62.277)"><path class="g" d="M372.071,124.888l-3.191-1.837,1.754-.372,1.746,1.218Z" transform="translate(-347.461 -102.538)"/><path class="g" d="M336.015,79.794c0-4.953-3.034-7.253-6.761-5.1l-5.507,3.178c-3.715,2.151-6.757,7.946-6.757,12.916v.9c0,.107.021.194.029.289s.025.219.041.326a8.156,8.156,0,0,0,.438,1.717,5.548,5.548,0,0,0,.277.586,2.273,2.273,0,0,0,.157.277l.054.087a2.6,2.6,0,0,0,.318.413c.066.074.128.153.2.223l.215.206c.074.058.144.128.223.186a1.822,1.822,0,0,0,.235.161l.244.14a3.187,3.187,0,0,0,1.011.343.173.173,0,0,1,.083,0c.095,0,.182.021.277.021a1.838,1.838,0,0,0,.3,0,3.3,3.3,0,0,0,.788-.087,4.654,4.654,0,0,0,.458-.116h0a6.308,6.308,0,0,0,1.379-.611l5.507-3.178a9.266,9.266,0,0,0,1.082-.735v-.958C330.29,86.758,332.833,81.775,336.015,79.794Z" transform="translate(-316.99 -73.885)"/><path class="g" d="M360.779,76.931l-3.2-1.841c.021,0,.326,2.225.326,2.225l2.374.281Z" transform="translate(-340.825 -74.593)"/><path class="g" d="M325.316,128.49l-2.956-1.676,1.779-.764Z" transform="translate(-320.143 -104.517)"/><path class="g" d="M331.7,124.959a6.023,6.023,0,0,1-1.127,3.405c-.132.173.07.326.219.248a5.705,5.705,0,0,0,1.758-1.416,8.962,8.962,0,0,0,1.9-3.827Z" transform="translate(-324.939 -102.943)"/><path class="g" d="M330.71,131.816l3.2,1.841a6.151,6.151,0,0,0,1.8-4.582l-3.472-.235A4.127,4.127,0,0,1,330.71,131.816Z" transform="translate(-325.047 -106.155)"/><path class="g" d="M351.35,96.155v.677a.65.65,0,0,0,.025.219c.025.074,0,.165.029.248a5.309,5.309,0,0,0,.256,1.073,1.41,1.41,0,0,0,.066.186,2.533,2.533,0,0,0,.1.244,1.865,1.865,0,0,0,.111.223,1.409,1.409,0,0,0,.116.206l.041.066a3.154,3.154,0,0,0,.239.326,1.458,1.458,0,0,0,.149.169l.157.153a1.791,1.791,0,0,0,.169.14,1.65,1.65,0,0,0,.178.12c.062.037.12.074.186.107l.19.091.2.07h0a3.667,3.667,0,0,0,.367.091h.062a1.132,1.132,0,0,0,.206,0,.99.99,0,0,0,.223,0,2.638,2.638,0,0,0,.528-.054,3.65,3.65,0,0,0,.413-.095,4.772,4.772,0,0,0,1.036-.458l4.128-2.386a6.631,6.631,0,0,0,1.036-.739h0c.116-.1.231-.206.347-.314a7.622,7.622,0,0,0,.59-.615l.264-.239c.07-.083.136-.169.206-.256a.414.414,0,0,1,.062-.083,11.806,11.806,0,0,0,.76-1.135c.062-.1.12-.211.182-.318s.12-.215.177-.326.111-.223.169-.33l.157-.338c.054-.111.1-.231.153-.338.087-.2.165-.413.235-.6a.407.407,0,0,1,.041-.111c.045-.116.083-.231.12-.347.074-.223.14-.446.206-.677a12.656,12.656,0,0,0,.326-1.651,8.084,8.084,0,0,0,.054-.524,1,1,0,0,0,0-.248V87.92c0-3.715-2.274-5.453-5.073-3.839l-4.128,2.39C353.624,88.077,351.35,92.424,351.35,96.155Z" transform="translate(-337.167 -79.518)"/><path class="g" d="M383.291,86.185l-3.174-1.825-1.2.846,3.7,2.241Z" transform="translate(-353.356 -80.036)"/><path class="g" d="M358.571,124.774l-3.191-1.837,2.5-.747Z" transform="translate(-339.533 -102.25)"/><path class="d" d="M369.123,118.59a2.191,2.191,0,0,0,1.771,1.73c.128.025.095.305-.058.413a2.856,2.856,0,0,1-1.845.305,2.316,2.316,0,0,1-1.981-1.238Z" transform="translate(-346.362 -100.136)"/><path class="o" d="M336.994,79.138l-5.511,3.183c-3.715,2.151-6.753,7.946-6.753,12.912v.908a2,2,0,0,0,.033.285c.012.095.025.227.041.33a8.052,8.052,0,0,0,.413,1.713,5.608,5.608,0,0,0,.277.59,2.14,2.14,0,0,0,.157.272.785.785,0,0,0,.058.087,2.687,2.687,0,0,0,.314.438c.066.074.132.157.2.223l.211.206c.074.058.149.128.223.186a2.16,2.16,0,0,0,.235.161l.248.14a3.2,3.2,0,0,0,1.007.343.128.128,0,0,1,.083,0h.277a2.476,2.476,0,0,0,.3,0,3.492,3.492,0,0,0,.788-.087,4.653,4.653,0,0,0,.458-.116h0a6.605,6.605,0,0,0,1.379-.607h0a5.981,5.981,0,0,1-1.131,3.4c-.132.177.07.33.223.252a5.667,5.667,0,0,0,1.758-1.42,9.019,9.019,0,0,0,1.9-3.822l-.413.227,3.15-1.816a8.509,8.509,0,0,0,.879-.582,2.692,2.692,0,0,1-.054-.318c0-.07-.025-.173-.033-.281a2.382,2.382,0,0,1-.029-.277v-.05a1.738,1.738,0,0,1,0-.206v-.487c0-4.177,2.477-8.887,5.663-10.732l.351-.206C343.669,79.212,340.668,77.016,336.994,79.138Z" transform="translate(-321.535 -76.494)"/><path class="o" d="M368.3,88.507l-4.128,2.386c-2.795,1.618-5.073,5.965-5.073,9.7v.677a.772.772,0,0,0,.021.219,2.3,2.3,0,0,0,.033.244,5.025,5.025,0,0,0,.256,1.077,1,1,0,0,0,.066.186,2.067,2.067,0,0,0,.1.239,2.326,2.326,0,0,0,.111.227,1.425,1.425,0,0,0,.12.206.314.314,0,0,0,.037.066c.078.116.157.223.239.326a2.015,2.015,0,0,0,.153.169l.157.153a1.792,1.792,0,0,0,.169.14,1.294,1.294,0,0,0,.173.12c.062.037.12.074.186.107l.19.091.2.07h0a3.669,3.669,0,0,0,.367.091h.062a1.13,1.13,0,0,0,.206,0,.826.826,0,0,0,.227,0,2.679,2.679,0,0,0,.528-.05,3.8,3.8,0,0,0,.413-.095,4.6,4.6,0,0,0,1.036-.458l1.4-.8a2.316,2.316,0,0,0,1.981,1.218,2.861,2.861,0,0,0,1.845-.31c.149-.095.186-.376.054-.413a2.186,2.186,0,0,1-1.767-1.73l.627-.363a6.827,6.827,0,0,0,1.036-.739h0c.116-.1.231-.206.343-.314a7.663,7.663,0,0,0,.594-.615c.074-.087.149-.169.223-.268s.136-.165.206-.252l.062-.083a11.811,11.811,0,0,0,.76-1.135l.186-.318c.062-.107.12-.215.177-.326s.107-.223.165-.33l.161-.338c.054-.116.1-.231.149-.338.087-.2.169-.413.239-.6l.037-.111c.045-.116.087-.231.12-.347.078-.227.14-.446.211-.677a12.646,12.646,0,0,0,.326-1.651c0-.095.021-.186.029-.281a1.449,1.449,0,0,1,.021-.244,1,1,0,0,0,0-.248v-.462C373.374,88.615,371.1,86.893,368.3,88.507Z" transform="translate(-341.718 -82.115)"/></g><g transform="translate(136.842 95.897)"><path class="j" d="M289.96,221.5c-1.56-.487-3.162.776-4.21,3.327a100.2,100.2,0,0,0-3.575,10.77c-.326,1.73,7.055,5.494,6.848,5.4S289.96,221.5,289.96,221.5Z" transform="translate(-282.165 -194.128)"/><path class="j" d="M292.263,361.535c-.223.083-.277.5-.31,1.337-.025.632-.161,1.734.578,1.952a2.323,2.323,0,0,0,2.3-.487c.59-.743.991-1.4,1.833-2.3a6.38,6.38,0,0,0,1.82-2.621c.268-1,.045-1.428-.636-1.717-.933-.413-2.4.9-3.133,1.106C294.083,358.98,292.482,361.453,292.263,361.535Z" transform="translate(-287.898 -274.116)"/><path class="aa" d="M292.74,364.712v1.024a2.51,2.51,0,0,0,2.588.07c.045-.1.268-1.465.268-1.465Z" transform="translate(-288.375 -278.064)"/><path class="j" d="M311.918,381.41s-.293.892-.45,1.651a4.524,4.524,0,0,0-.091,2.122c.215.471,1.065.768,2.374.755a7.82,7.82,0,0,1,3.079,1.077,8.339,8.339,0,0,0,3.876.615,3.744,3.744,0,0,0,2.563-1.3c.19-.471-.062-.987-2.811-2.159-.025,0-3.822-1.238-5.156-2.712Z" transform="translate(-299.26 -288.087)"/><path class="aa" d="M312.83,378.73v1.193c0,.433.512,1.081,1.841,1.036.933-.033,1.581-.285,1.544-1.053V378.8Z" transform="translate(-300.172 -286.514)"/><path class="l" d="M290.964,293.924a28.045,28.045,0,0,1,1.209-5.337s-.363-4.6-.541-8.966c-.19-4.714,0-10.642-.078-11.814,0,0,15.211-3.079,15.484,2.369s-.6,19.318-.78,21.713-.594,4.512-1.09,8.392-1.858,12.871-1.858,12.871a3.591,3.591,0,0,1-3.385-.066s-1.069-10.9-.958-13.659a23.765,23.765,0,0,1,1.049-6.043l-.541-8.4c-.256-3.909-.524-5.779-.586-7.484l-.326-.165s-.334,6.745-.512,9.139-.561,4.689-1.238,9.135c-.6,3.855-2.39,12.016-2.39,12.016a2.281,2.281,0,0,1-2.774-.12S290.5,297.267,290.964,293.924Z" transform="translate(-287.267 -220.869)"/><path class="h" d="M302.445,287.629a31.875,31.875,0,0,1-5.535-3.459,12.209,12.209,0,0,0,3.967,3.488s.8,8.375.8,8.21l.462-8.256Z" transform="translate(-290.823 -230.987)"/><path class="aa" d="M310.634,216.061l-.9,4.953-4.475-.326.937-5.618Z" transform="translate(-295.727 -190.41)"/><path class="h" d="M293.016,224.208a3.732,3.732,0,0,1,3.86-2.477,50.193,50.193,0,0,1,7.492,1.87c1.564.557,2.989,1.911,3.121,7.063L308.28,246l-1.895.413-.66-3.476-.305,3.476c-1.981.5-5.42.087-7.678-.413-4.706-1.028-5.271-2.98-5.271-2.98s-.062-8.631.078-12.359A38.658,38.658,0,0,1,293.016,224.208Z" transform="translate(-288.208 -194.293)"/><path class="aa" d="M326.3,203.25s1.086,1.606.945,1.775a2.476,2.476,0,0,1-.826.359Z" transform="translate(-308.082 -183.469)"/><path class="aa" d="M308.166,190.354c1.044.528,2.848,1.5,3.344,5.321.512,3.921-.161,5.185-.689,5.7-.359.351-2.307.372-3.282.078-1.238-.367-3.971-1.412-5.226-3.426-1.478-2.369-1.808-5.544-.14-6.807A6.265,6.265,0,0,1,308.166,190.354Z" transform="translate(-293.258 -175.659)"/><path class="h" d="M309.1,188.736c-.343.941-.921,3.244-3.323,4.206,0,0-.343-1.47-1.577-1.313s-1.445,1.73-.685,2.708,1.494.623,1.494.623a3.668,3.668,0,0,1-1.238,3.059,3.938,3.938,0,0,1-3.492.248c-.826-.372-1.953-2.307-2.621-3.9-1.42-3.36-1.622-6.056.52-6.906a2.54,2.54,0,0,1,2.336-2.386c2.976-.615,5.226,1.342,7.727,1C309.548,185.9,309.49,187.663,309.1,188.736Z" transform="translate(-290.628 -172.728)"/><path class="h" d="M298.333,190.436l-1.4-.867a.826.826,0,1,1,1.4.867Z" transform="translate(-290.835 -175.187)"/><path class="l" d="M309.509,219.964l.512,1.482s-.376.66-1.973.693-3.3-.475-3.831-1.156a1.209,1.209,0,0,1-.3-.995s.636-1.4,1.238-1.342l-.1.611s.136.5,1.585.883C308.9,220.74,309.509,219.964,309.509,219.964Z" transform="translate(-294.931 -192.51)"/><path class="aa" d="M348.58,238.447c.644-.739.892-2.378,1.75-3.5s1.176-1.944,1.515-1.453c.45.648-.566,1.948-.338,2.064a6.657,6.657,0,0,1,1.152,2.79c.087.949-2.431,3.344-2.431,3.344Z" transform="translate(-321.165 -201.143)"/><path class="l" d="M317.48,221.84a.574.574,0,0,1,.512.293,13.584,13.584,0,0,1,.677,1.408l-.677-.219Z" transform="translate(-302.902 -194.385)"/><path class="aa" d="M355.5,238.213a15.226,15.226,0,0,1,3.484,0c.442.264.31,1.581,0,2.39s-1.862,1.333-3.3,2.307C355.682,242.762,355.5,238.213,355.5,238.213Z" transform="translate(-325.228 -203.931)"/><path class="h" d="M318.583,226a5.764,5.764,0,0,1,3.674,3.278c1.569,2.947,4.541,7.661,4.541,7.661l3.422-3.017s.516-.5,1.478,1.09a3.3,3.3,0,0,1,.351,2.931s-3.95,4.636-4.706,5.341-2.006.157-2.819-.954-5.952-7.529-5.952-7.529S315.781,231.094,318.583,226Z" transform="translate(-302.817 -196.828)"/><path class="h" d="M1.387,0h9.746A1.387,1.387,0,0,1,12.52,1.387V16.871a4.594,4.594,0,0,1-4.594,4.594H4.582A4.594,4.594,0,0,1,0,16.871V1.387A1.387,1.387,0,0,1,1.387,0Z" transform="translate(52.451 21.465) rotate(180)"/><path class="x" d="M365.719,191.061c-.945,2.786-2.53,10.8-2.53,10.8s-3.3,4.037-4.38,5.015c-.59.545-1.919,1.523-1.919,1.523l2.415,1.775a53.608,53.608,0,0,0,6.126-5.511,3.5,3.5,0,0,0,.859-1.6l1.651-7.083s0-5.7.871-6.444a12.5,12.5,0,0,1,1.123-.9C368.815,188.551,366.463,188.869,365.719,191.061Z" transform="translate(-326.044 -174.88)"/><path class="d" d="M379.728,188.349c-1.54-.178-3.513-.144-4.475,1.577s-2.563,10.621-2.563,10.621a5.827,5.827,0,0,0,3.15,1.156Z" transform="translate(-335.322 -174.677)"/><path class="d" d="M377.9,208.54a15.934,15.934,0,0,1,.318,4.037,22.446,22.446,0,0,1-1.35,4.9s.962,1.057,3.674.632c2.208-.343,1.428-7.017.161-8.3a4.177,4.177,0,0,0-2.8-1.267Z" transform="translate(-337.777 -186.576)"/><path class="ad" d="M377.9,208.54a15.934,15.934,0,0,1,.318,4.037,22.446,22.446,0,0,1-1.35,4.9s.962,1.057,3.674.632c2.208-.343,1.428-7.017.161-8.3a4.177,4.177,0,0,0-2.8-1.267Z" transform="translate(-337.777 -186.576)"/><path class="h" d="M385.035,321.488a1.49,1.49,0,0,1-.219.867,10.906,10.906,0,0,1-1.432,1.874c-.764.826-1.907,1.8-2.729,2.51-.454.413-.471,1,.182,1.209a4.916,4.916,0,0,0,3.587-.5c.826-.438,1.973-2.477,2.65-2.766a3.557,3.557,0,0,0,1.478-.883,1.263,1.263,0,0,0,.161-1.564c-.367-.685-.92-1.738-1.148-1.618l.07.215a2.867,2.867,0,0,1-2.477,1.053Z" transform="translate(-339.808 -252.383)"/><path class="aa" d="M391.179,246.237c.351-3.715,1.358-9.692.326-14.117l-13.7.727c-.38,4.363-.826,17.985-.347,19.545.553,1.841,5.494,14.584,5.779,17.147a1.42,1.42,0,0,1-.219.854,10.867,10.867,0,0,1-1.432,1.878,14.591,14.591,0,0,1-1.3,1.238.413.413,0,0,0-.07.2c0,.413,1.04.541,1.651.363a3.8,3.8,0,0,0,1.874-1.441c.351-.466,1.139-1.362,1.651-2.035a3.39,3.39,0,0,0,.433-.677,1.383,1.383,0,0,0,.066-.962l-.033-.1a10.934,10.934,0,0,1-.5-2.576c-.19-2.811-.673-9.3-1.119-11.034a15.138,15.138,0,0,0-1.4-3.616l1.564-12.173s.165,10.732.652,13.469c.384,2.192.533,4.933.982,8.693.413,3.6.892,9.94.892,9.94a.1.1,0,0,0,.037,0v3.03h2.563v-1.758a14.265,14.265,0,0,1,.2-2.369c.413-2.394,1.271-7.872,1.449-9.725a21.538,21.538,0,0,0-.78-6.633S390.836,249.862,391.179,246.237Z" transform="translate(-337.997 -200.422)"/><path class="d" d="M384.878,188.59a40.587,40.587,0,0,1,4.128.623c-3.459,2.431-.656,7.843-.656,7.843l-1.325,4.157c1.474,1.886,2.745,3.009,3.533,5.077.875,2.312,1.651,5.75,1.445,12.8-3.3,2.477-13.349,2.208-17.263,0,0,0,.66-6.221,1.441-11.054.516-3.191,1.734-6.666,1.527-7.843-1.552-4.772-1.651-5.63-1.37-6.7.772-3,3.827-5.024,4.578-5.024Z" transform="translate(-336.526 -174.79)"/><path class="s" d="M384.878,188.59a40.587,40.587,0,0,1,4.128.623c-3.459,2.431-.656,7.843-.656,7.843l-1.325,4.157c1.474,1.886,2.745,3.009,3.533,5.077.875,2.312,1.651,5.75,1.445,12.8-3.3,2.477-13.349,2.208-17.263,0,0,0,.66-6.221,1.441-11.054.516-3.191,1.734-6.666,1.527-7.843-1.552-4.772-1.651-5.63-1.37-6.7.772-3,3.827-5.024,4.578-5.024Z" transform="translate(-336.526 -174.79)"/><path class="h" d="M394.856,331.364V331a7.207,7.207,0,0,1-1.866,3.265,8.041,8.041,0,0,0-2.229,2.452c-.289.838,1.325,1.214,2.39,1.106a4.281,4.281,0,0,0,2.675-1.4,8.783,8.783,0,0,0,.978-1.734c.314-.429,1.044-.9,1.214-1.4a3.134,3.134,0,0,0-.149-1.37c-.12-.458-.252-.966-.413-.925v.285a2.064,2.064,0,0,1-1.3.442C395.793,331.731,394.852,331.653,394.856,331.364Z" transform="translate(-345.914 -258.483)"/><path class="aa" d="M399.415,331.277a2.064,2.064,0,0,1-1.3.442c-.38,0-1.3-.062-1.3-.351V331a7.207,7.207,0,0,1-1.866,3.265l-.623.557c-.438.487-.314.912.714,1a3.26,3.26,0,0,0,2.708-1.486A16.826,16.826,0,0,0,399.415,331.277Z" transform="translate(-347.884 -258.486)"/><path class="aa" d="M381.882,161.46c-.66.392-1.478,2.064-1.4,5.54.07,2.956,1.028,3.686,1.511,3.9a5.087,5.087,0,0,0,2.307-.066V172.6s-1.238,1.449-1.168,2.262,1.8,1,2.968.211a9.4,9.4,0,0,0,2.147-2.345l-.021-4.074s.533.512,1.432-.272a1.683,1.683,0,0,0,.413-2.332,1.292,1.292,0,0,0-2.064.413,3.907,3.907,0,0,0-2.576-2.064C383.558,163.776,382.538,163.07,381.882,161.46Z" transform="translate(-339.895 -158.93)"/><path class="h" d="M388.49,172.561a.372.372,0,1,0,.388-.371.38.38,0,0,0-.388.371Z" transform="translate(-344.6 -165.23)"/><path class="x" d="M387.023,179.15l-.863.277a.442.442,0,0,0,.557.31A.479.479,0,0,0,387.023,179.15Z" transform="translate(-343.232 -169.317)"/><path class="h" d="M381,169.285l.751-.52a.442.442,0,0,0-.627-.128A.475.475,0,0,0,381,169.285Z" transform="translate(-340.156 -163.097)"/><path class="h" d="M390.035,169.963l-.755-.52a.446.446,0,0,1,.627-.132A.487.487,0,0,1,390.035,169.963Z" transform="translate(-345.064 -163.495)"/><path class="h" d="M381.53,171.907a.372.372,0,1,0,.388-.367A.38.38,0,0,0,381.53,171.907Z" transform="translate(-340.513 -164.849)"/><path class="x" d="M384.014,171.92l-.058,2.237-1.176-.363Z" transform="translate(-341.247 -165.072)"/><path class="x" d="M389.74,182.081c.949-.128,2.89-.689,3.211-1.461a2.01,2.01,0,0,1-.685.987,10.386,10.386,0,0,1-2.526,1.065Z" transform="translate(-345.334 -170.181)"/><path class="d" d="M402.345,213.85l-2.6,3.525,1.965-1.259Z" transform="translate(-351.207 -189.694)"/><path class="x" d="M354.127,235.348a19.718,19.718,0,0,0-1.193,2.584c-.293.471-.644.879,0,.966s1.585-1.172,1.936-1.936a1.833,1.833,0,0,1,.937-.97c-.3-.1-.144-1.313-.355-1.482C355.452,234.51,354.354,234.96,354.127,235.348Z" transform="translate(-323.508 -201.826)"/><path class="x" d="M355.94,245.255c.582-.433.6-.966.714-1.812s2.444-1.763,2.518-1.131a1.9,1.9,0,0,1-.413,1.928C358.062,245.007,357.005,245.824,355.94,245.255Z" transform="translate(-325.487 -206.284)"/><path class="d" d="M396.995,188.76a26.333,26.333,0,0,1,4.128.623c.677.322,1.8,2.27.8,5.1S400,200.636,400.1,201.3a29.778,29.778,0,0,0,2.51,4.128,6.538,6.538,0,0,1-2.213,1.061l-1.238-2.691.289,2.861a14.707,14.707,0,0,1-3.8.413S394.477,196.087,396.995,188.76Z" transform="translate(-348.643 -174.961)"/><path class="aa" d="M409.545,216.072c.277-1.626,0-2.159-.57-3.752l-2.889,1.87a6.068,6.068,0,0,1,.413,1.882,44.078,44.078,0,0,1-1.263,6.761,1.238,1.238,0,0,1-.594.669,7.227,7.227,0,0,0-1.6,1.329c-.442.413-.8.487-.751.627a.677.677,0,0,0,.826.367,4.911,4.911,0,0,0,1.028-.471,6.3,6.3,0,0,1-1.131,1.651c-1.061,1.131-1.156,1.866.826,2.019,1.238.095,2.274-.6,3.393-3.261a24.887,24.887,0,0,0,.854-2.984C408.686,220.473,409.272,217.711,409.545,216.072Z" transform="translate(-352.69 -188.795)"/><path class="d" d="M407.012,190.27c1.391.623,1.787,1.853,2.3,3.661s2.134,7.232,2.134,7.232a3.577,3.577,0,0,1-3.3,1.189l-2.477-6.014S404.514,192.412,407.012,190.27Z" transform="translate(-354.532 -175.847)"/></g></g></svg>