<svg xmlns="http://www.w3.org/2000/svg" width="180.162" height="164.531" viewBox="0 0 180.162 164.531"><defs><style>.a{fill:#f5f5f5;}.b{fill:#e6e6e6;}.af,.c{fill:#263238;}.d{fill:#37474f;}.e,.z{fill:#455a64;}.f{fill:#207178;}.g{fill:#9a4a4d;}.h{fill:#b16668;}.ac,.i{opacity:0.6;}.ad,.j,.z{opacity:0.1;}.k{fill:#ffa8a7;}.aa,.l,.v{opacity:0.3;}.m{opacity:0.35;}.n{fill:#f28f8f;}.o{fill:#ffc4c3;}.p{fill:#ffbda7;}.q{fill:#ebebeb;}.r{fill:#f0997a;}.af,.s,.x{opacity:0.5;}.t,.v{fill:#fff;}.ab,.u{opacity:0.2;}.w{opacity:0.65;}.y{opacity:0.8;}.ae,.ai{opacity:0.25;}.ag{fill:#f0f0f0;}.ah{fill:#e0e0e0;}.aj{opacity:0.15;}</style></defs><g transform="translate(-17.61 -42.739)"><g transform="translate(17.61 103.254)"><ellipse class="a" cx="90.081" cy="52.008" rx="90.081" ry="52.008" transform="translate(0)"/></g><g transform="translate(22.323 132.819)"><ellipse class="b" cx="17.813" cy="10.285" rx="17.813" ry="10.285" transform="translate(132.149 18.944)"/><ellipse class="b" cx="18.598" cy="10.737" rx="18.598" ry="10.737" transform="translate(0 17.045)"/><path class="b" d="M306.459,308.775a1.636,1.636,0,0,1-.8-.2l-16.479-9.515a.773.773,0,0,1,.062-1.423l14.793-6.832a1.933,1.933,0,0,1,.773-.159,1.976,1.976,0,0,1,.982.24l13.239,7.629a.862.862,0,0,1,.077,1.516l-11.685,8.441a1.64,1.64,0,0,1-.963.29Z" transform="translate(-188.621 -284.875)"/><path class="b" d="M139.515,302.936a1.581,1.581,0,0,0,.8-.2l16.483-9.515a.773.773,0,0,0-.066-1.423l-14.789-6.828a1.894,1.894,0,0,0-.773-.159,1.987,1.987,0,0,0-.982.24l-13.223,7.636a.92.92,0,0,0-.491.738.909.909,0,0,0,.418.773l11.685,8.441a1.651,1.651,0,0,0,.963.29Z" transform="translate(-89.093 -281.293)"/><path class="b" d="M101.492,308.3l53.064,30.623a1.779,1.779,0,0,0,1.6,0l54.459-31.469a.491.491,0,0,0,0-.928l-53.06-30.623a1.786,1.786,0,0,0-1.608,0l-54.459,31.458a.487.487,0,0,0,0,.94Z" transform="translate(-73.553 -275.715)"/></g><g transform="translate(108.486 78.857)"><g transform="translate(8.235 16.517)"><path class="c" d="M358.29,259.638V280.13a.58.58,0,0,0,.259.452l.7.387a.58.58,0,0,0,.518,0l.7-.387a.58.58,0,0,0,.259-.452V259.638a.294.294,0,0,0-.3-.3h-1.837a.3.3,0,0,0-.3.3Z" transform="translate(-325.677 -228.227)"/><path class="d" d="M362.36,259.34h-.619a.3.3,0,0,0-.3.3v21.223c0,.166.116.232.259.151l.7-.387a.58.58,0,0,0,.259-.452V259.68a.294.294,0,0,0-.3-.34Z" transform="translate(-327.609 -228.227)"/><path class="c" d="M327.87,277.132v20.492a.569.569,0,0,0,.259.449l.7.387a.58.58,0,0,0,.518,0l.7-.387a.568.568,0,0,0,.259-.449V277.132a.3.3,0,0,0-.3-.3h-1.837A.3.3,0,0,0,327.87,277.132Z" transform="translate(-307.019 -238.954)"/><path class="d" d="M331.936,276.83h-.619a.3.3,0,0,0-.3.3v21.2c0,.166.116.232.259.151l.7-.387a.568.568,0,0,0,.259-.449V277.159a.3.3,0,0,0-.3-.329Z" transform="translate(-308.951 -238.954)"/><path class="e" d="M326.112,202a1.106,1.106,0,0,1-.955,1.23h-.139a1.106,1.106,0,0,1-1.09-.967c-.63-5.061.271-16.378,2.436-22.758a.925.925,0,0,1,1.454-.452h0c.456.263.773.665.615,1.16C326.356,186.213,325.5,197.124,326.112,202Z" transform="translate(-304.48 -178.871)"/><path class="d" d="M339.424,229.985a.727.727,0,0,0,.22-.035.7.7,0,0,0,.445-.882c-1.62-4.93-9.593-9.318-14.739-9.318a.7.7,0,0,0,0,1.4c4.64,0,11.986,4.052,13.413,8.355a.7.7,0,0,0,.661.479Z" transform="translate(-305.044 -203.944)"/><path class="d" d="M341.066,214.294a.684.684,0,0,0,.216-.035.7.7,0,0,0,.449-.882c-1.686-5.123-9.9-9.28-15.021-8.742a.7.7,0,0,0,.143,1.392c4.539-.46,12.071,3.3,13.533,7.787A.7.7,0,0,0,341.066,214.294Z" transform="translate(-305.932 -194.645)"/><path class="d" d="M344.1,200.092a.723.723,0,0,0,.282-.058.7.7,0,0,0,.36-.924c-2.413-5.49-10.989-10-15.628-9.357a.7.7,0,0,0,.189,1.388c4.1-.568,11.986,3.627,14.159,8.533a.692.692,0,0,0,.638.418Z" transform="translate(-307.408 -185.508)"/><path class="e" d="M364.534,201.16a1.1,1.1,0,0,1,.452,1.388,53.878,53.878,0,0,0-3.866,21.022v1.059l-.085.089a.441.441,0,0,1-.332.135,1.3,1.3,0,0,1-.46-.112,1.953,1.953,0,0,0-.224-.07,1.1,1.1,0,0,1-1.1-1.1,55.992,55.992,0,0,1,4.044-21.892,1.1,1.1,0,0,1,1.547-.522Z" transform="translate(-326.064 -192.453)"/><path class="d" d="M315.657,247.11v.267a1.763,1.763,0,0,1-.646,1.268l-11.684,8.448a1.342,1.342,0,0,1-1.342.07L285.5,247.647a1.547,1.547,0,0,1-.692-1.2v-.275a1.365,1.365,0,0,1,.727-1.137l14.789-6.828a1.732,1.732,0,0,1,1.419.062l13.219,7.64A1.547,1.547,0,0,1,315.657,247.11Z" transform="translate(-280.608 -215.188)"/><path class="f" d="M315.632,245.907l-13.219-7.64a1.732,1.732,0,0,0-1.419-.062L286.2,245.033c-.387.186-.418.514-.035.738l16.483,9.515a1.342,1.342,0,0,0,1.342-.07l11.684-8.441a.479.479,0,0,0-.046-.87Z" transform="translate(-281.275 -215.188)"/><path class="c" d="M302.889,300.66c.294.2.634.441.669.773a3.286,3.286,0,0,1-.483,2,6.422,6.422,0,0,0-.6,3.306c.07.967.487,3.375-.507,4.566s-3.781,2.27-4.149.522,1.678-9.183,1.678-9.183Z" transform="translate(-288.561 -253.571)"/><path class="g" d="M303.05,304.43a26.807,26.807,0,0,0-.387,4c0,1.462-.209,2.536-.847,3.062s-1.717.681-1.516-.356.719-6.186.719-6.186Z" transform="translate(-290.095 -255.883)"/><path class="e" d="M294.577,234.48s-6.144,3.793-8.6,5.854-3.286,2.9-3.584,4.214c-.317,1.384.557,3.631,2.034,7.482.387,1.04,3.031,7.184,3.031,7.184l3.569-11.572,7.284-6.743Z" transform="translate(-279.089 -212.979)"/><path class="c" d="M283.685,329.61c.267.1.356.688.421,1.117s.487.92,0,1.7-1.5,1.059-2.157,2.127-.99,2.525-3.271,3.128-4.079-.077-4.543-.742-.112-1.338,1.322-2.25c1.527-.974,1.956-1.257,1.956-1.257Z" transform="translate(-273.943 -271.327)"/><path class="h" d="M284.426,317.65s-.97,3.136-1.578,4.586a11.657,11.657,0,0,1-2.134,3.689c-.244.286-.8.816-1.005,1.048a.445.445,0,0,0,.046.684c.507.479,2.637.588,3.828-.309a18.92,18.92,0,0,0,2.463-2.865c.356-.36.688-.7.936-.959a.967.967,0,0,0,.236-.92l-.081-.329c-.166-.688.735-3.515.735-3.515Z" transform="translate(-277.395 -263.991)"/><path class="e" d="M315.217,234.518c1.187,2.567.692,5.386-.081,7.733s-3.867,4.953-6.538,6.538-6.786,3.515-7.586,3.866-.885.843-.773,2.378-.406,4.037-2.1,7.18c-1.79,3.317-2.807,5.475-2.807,5.475a3.549,3.549,0,0,1-3.592-.866s2.857-15.168,3.534-17.171,8.193-8.506,8.193-8.506a40.639,40.639,0,0,1-3.132-6.735Z" transform="translate(-284.859 -212.936)"/><path class="i" d="M296.205,257.534c.414-2.022,1.895-3.619,3.314-4.968,1.16-1.106,4.145-3.785,5.181-4.717a12.435,12.435,0,0,1-.746-2.188s.592,1.063,1.114,1.864h0l.329.479.05.07h0l-.031.039c-.445.387-7.516,6.534-8.174,8.471-.387,1.114-1.423,6.283-2.281,10.66C295.037,266.574,295.818,259.463,296.205,257.534Z" transform="translate(-286.834 -219.836)"/></g><path class="h" d="M282.094,155.671l-15.539-1.705s-9.473-5.413-10.354-7.08c-.978-1.84-1.284-4.69-1.84-6.418s-2.54,1.933-1.33,7.822c.174.831,1.284,1.26,2.1,2.2a56.86,56.86,0,0,0,8.232,7.126,8.445,8.445,0,0,0,3.924,1.581l14.051,1.833Z" transform="translate(-252.646 -138.536)"/><path class="f" d="M313.115,191.255c-.213,1.956-.947,10.1-.947,10.1,4.211,3.395,13.606,2.649,15.315-.085a34.1,34.1,0,0,1-1.86-5.885l1.384-5.641a8.608,8.608,0,0,1-.367-8.386l-3.538-.63L318.188,180l-2.13-.143s-2.9,3.128-3.685,5.142C311.866,186.3,310.861,188.606,313.115,191.255Z" transform="translate(-288.871 -162.96)"/><path class="j" d="M340.92,206.02l-.124-.429c-.305-1.106-.456-1.844-.456-1.844l1.384-5.641h0c-.023-.023-.116-.224-.174-.29h0a5.46,5.46,0,0,1-1.04-4.315h0s-1.029,3.418.089,5.057l-1.056,4.74-1.527,2.223,1.852-.727a32.733,32.733,0,0,1,.731,3.48c.043.665-1.547,2.873-4.9,3.72,3.012-.135,5.688-.994,6.527-2.32h0A31.366,31.366,0,0,1,340.92,206.02Z" transform="translate(-303.587 -171.327)"/><path class="h" d="M355.071,198.955c-.738-2.881-3.673-9.28-4.562-11.6-1.017-2.645-2.455-3.638-4.346-3.665-.7.9-1.933,5.981.46,8.483.913,1.933,3.867,7.683,3.867,7.683-.07.518-2.293,7.1-3.093,8.862a1.4,1.4,0,0,1-.719.688,8.088,8.088,0,0,0-1.9,1.342c-.526.387-.932.468-.893.63a.773.773,0,0,0,.909.483,5.305,5.305,0,0,0,1.183-.433,7.029,7.029,0,0,1-1.411,1.763c-1.28,1.16-1.214,2.138.97,2.486,1.369.217,2.587-.464,4.071-3.329.425-.827.974-2.034,1.4-3.128,1.017-2.594,2.107-4.133,2.815-5.85C354.928,200.66,355.357,200.049,355.071,198.955Z" transform="translate(-308.506 -165.31)"/><path class="c" d="M319.791,150.523l2.6.07a6.546,6.546,0,0,0,6.716-6.38h0a7.845,7.845,0,0,0-7.632-8.058h0a7.845,7.845,0,0,0-8.058,7.632h0a6.546,6.546,0,0,0,6.376,6.735Z" transform="translate(-289.917 -136.152)"/><path class="c" d="M350.635,144.941l1.933-.684a1,1,0,0,0-1.291-.665A1.087,1.087,0,0,0,350.635,144.941Z" transform="translate(-312.715 -140.681)"/><path class="c" d="M349.6,142.641l.6-1.976a1,1,0,0,0-1.3.65,1.086,1.086,0,0,0,.7,1.326Z" transform="translate(-311.66 -138.883)"/><path class="h" d="M318.463,144.94c-.843.464-1.933,2.521-1.933,6.894,0,3.7,1.16,4.64,1.755,4.934a6.267,6.267,0,0,0,2.9,0l-.031,1.825s-2.03,1.933-1.956,2.962,2.606,1.547,4.095.6a11.867,11.867,0,0,0,2.776-2.838l.108-5.135s.65.665,1.8-.29c.955-.773,1.307-2.154.6-2.911a1.624,1.624,0,0,0-2.594.445,11.041,11.041,0,0,1-3.839-1.74A8.506,8.506,0,0,1,318.463,144.94Z" transform="translate(-291.829 -141.542)"/><path class="c" d="M338.823,161.6l.6-1.976a1.009,1.009,0,0,0-1.3.65A1.083,1.083,0,0,0,338.823,161.6Z" transform="translate(-305.047 -150.516)"/><path class="c" d="M328,158.977a.476.476,0,0,0,.429.514.483.483,0,1,0-.429-.514Z" transform="translate(-298.862 -149.876)"/><path class="g" d="M324.994,168.77l-1.094.313a.561.561,0,0,0,.7.387.592.592,0,0,0,.4-.7Z" transform="translate(-296.35 -156.158)"/><path class="c" d="M317.645,155.441l.959-.63a.549.549,0,0,0-.773-.182.6.6,0,0,0-.186.812Z" transform="translate(-292.461 -147.43)"/><path class="c" d="M318.189,158.773a.464.464,0,1,0,.5-.445.472.472,0,0,0-.5.445Z" transform="translate(-292.847 -149.753)"/><path class="g" d="M322.38,158.97l-.058,3.039-1.462-.5Z" transform="translate(-294.485 -150.148)"/><path class="g" d="M328.513,172.787c1.195-.124,3.662-.773,4.071-1.717a2.5,2.5,0,0,1-.893,1.21,12.955,12.955,0,0,1-3.2,1.249Z" transform="translate(-299.165 -157.569)"/><path class="c" d="M356.388,159.843h0a4.864,4.864,0,0,1-4.868-4.852v-8.2h0a4.868,4.868,0,0,1,4.868,4.868Z" transform="translate(-313.29 -142.677)"/></g><g transform="translate(56.909 73.666)"><g transform="translate(0 19.036)"><path class="c" d="M131.95,252.787V273.3a.58.58,0,0,1-.259.452l-.7.387a.592.592,0,0,1-.522,0l-.7-.387a.58.58,0,0,1-.259-.452V252.787a.3.3,0,0,1,.3-.3h1.821a.3.3,0,0,1,.317.3Z" transform="translate(-125.543 -221.352)"/><path class="d" d="M129.818,252.49h.619a.3.3,0,0,1,.3.3v21.219c0,.166-.116.232-.259.151l-.7-.387a.58.58,0,0,1-.259-.452V252.788A.3.3,0,0,1,129.818,252.49Z" transform="translate(-125.55 -221.353)"/><path class="c" d="M162.4,270.3v20.516a.584.584,0,0,1-.263.452l-.7.387a.58.58,0,0,1-.518,0l-.7-.387a.58.58,0,0,1-.259-.452V270.3a.3.3,0,0,1,.3-.3h1.84a.3.3,0,0,1,.3.3Z" transform="translate(-144.22 -232.092)"/><path class="d" d="M160.258,270h.622a.3.3,0,0,1,.3.3v21.219c0,.166-.116.232-.259.151l-.7-.387a.58.58,0,0,1-.259-.452V270.3a.3.3,0,0,1,.3-.3Z" transform="translate(-144.22 -232.093)"/><path class="e" d="M160.494,195.1a1.114,1.114,0,0,0,.224.812,1.09,1.09,0,0,0,.735.418h.135a1.094,1.094,0,0,0,1.09-.963c.634-5.065-.267-16.394-2.432-22.777a.927.927,0,0,0-1.458-.452h0c-.456.263-.773.665-.615,1.16C160.251,179.321,161.105,190.228,160.494,195.1Z" transform="translate(-143.099 -171.959)"/><path class="d" d="M130.129,223.112a.7.7,0,0,1-.665-.92c1.624-4.934,9.6-9.322,14.751-9.322a.7.7,0,1,1,0,1.4c-4.64,0-11.986,4.056-13.421,8.363A.7.7,0,0,1,130.129,223.112Z" transform="translate(-125.493 -197.052)"/><path class="d" d="M128.188,207.413a.727.727,0,0,1-.22-.035.7.7,0,0,1-.445-.885c1.686-5.127,9.9-9.28,15.029-8.746a.7.7,0,1,1-.143,1.392c-4.543-.46-12.079,3.3-13.556,7.791a.7.7,0,0,1-.665.483Z" transform="translate(-124.303 -187.747)"/><path class="d" d="M124.157,193.2a.665.665,0,0,1-.282-.062.7.7,0,0,1-.36-.92c2.413-5.494,11-10.01,15.64-9.365a.7.7,0,0,1-.189,1.388c-4.106-.572-12.009,3.631-14.167,8.537a.708.708,0,0,1-.642.421Z" transform="translate(-121.83 -178.602)"/><path class="e" d="M119.8,194.266a1.1,1.1,0,0,0-.452,1.392A54,54,0,0,1,123.21,216.7v1.059l.085.089a.441.441,0,0,0,.333.135,1.318,1.318,0,0,0,.46-.112,1.58,1.58,0,0,1,.224-.07,1.1,1.1,0,0,0,1.1-1.1,56.058,56.058,0,0,0-4.044-21.907,1.1,1.1,0,0,0-1.547-.522Z" transform="translate(-119.251 -185.555)"/><path class="d" d="M129.51,240.268v.267a1.755,1.755,0,0,0,.65,1.272l11.692,8.452a1.342,1.342,0,0,0,1.342.07l16.494-9.512a1.547,1.547,0,0,0,.7-1.2v-.275a1.373,1.373,0,0,0-.727-1.137l-14.8-6.836a1.732,1.732,0,0,0-1.419.066L130.2,239.066A1.547,1.547,0,0,0,129.51,240.268Z" transform="translate(-125.543 -208.323)"/><path class="f" d="M130.823,239.048l13.231-7.644a1.732,1.732,0,0,1,1.419-.066l14.8,6.836c.387.186.414.514.031.735l-16.494,9.523a1.342,1.342,0,0,1-1.342-.066l-11.692-8.448a.479.479,0,0,1,.043-.87Z" transform="translate(-126.165 -208.305)"/><rect class="k" width="3.24" height="5.641" transform="translate(25.449 62.065) rotate(180)"/><path class="k" d="M209.657,308.626l3.379.178-.081-.681-.031-.507-.309-4.957-3.685.131.526,4.945.035.379Z" transform="translate(-174.256 -252.125)"/><path class="c" d="M178.609,329.164v-.278c.418,0,1.9,3.14,3.321,4.435,1.129,1.028,3.116,2.44,3.066,3.418-.062,1.26-1.86,1.817-3.41,1.454a8.427,8.427,0,0,1-3.774-1.914,17.991,17.991,0,0,1-1.547-2.66c-.449-.584-1.434-1.241-1.67-1.933a4.372,4.372,0,0,1,.2-1.879c.178-.688.348-1.33.565-1.272v.387a2.815,2.815,0,0,0,1.79.607C177.693,329.563,178.613,329.563,178.609,329.164Z" transform="translate(-153.168 -267.992)"/><path class="c" d="M212.91,315.48c.17,0,.329.217.742.588a8.292,8.292,0,0,0,2.32,1.16c1.284.5,4.578,1.036,5.7,1.423.7.244.63,1.307-.275,1.984a8.424,8.424,0,0,1-4.972.87c-1.125-.147-2.873-.773-3.7-.812a10.159,10.159,0,0,1-3.294-.479c-.711-.4-.537-1.415-.425-2.277.124-.947.112-2.382.425-2.347l.035.387c.449.561,2.637.526,3.48,0Z" transform="translate(-174.238 -259.988)"/><path class="f" d="M143.181,229.78c-.723,5.092.251,6.07,5.088,10.946,2.6,2.621,8.243,7.118,8.243,7.118a14.992,14.992,0,0,0-.967,5.676c-.031,3.213.325,10.911.325,10.911s1.956,1.09,3.46.139c0,0,3.913-18.432,3.634-19.615-.2-.835-6.376-8.792-6.376-8.792l-1.732-1.1,11.213,6.9a28.848,28.848,0,0,0-.112,5.061c.476,4.1,1.578,6.732,2.707,11.9,0,0,2.676.437,3.866-.487,0,0,.073-17.7.073-19.263,0-2.374-10.312-9.465-12.264-11.112-1.114-.943-2.359-1.933-2.359-1.933Z" transform="translate(-133.798 -205.185)"/><path class="l" d="M143.181,229.78c-.723,5.092.251,6.07,5.088,10.946,2.6,2.621,8.243,7.118,8.243,7.118a14.992,14.992,0,0,0-.967,5.676c-.031,3.213.325,10.911.325,10.911s1.956,1.09,3.46.139c0,0,3.913-18.432,3.634-19.615-.2-.835-6.376-8.792-6.376-8.792l-1.732-1.1,11.213,6.9a28.848,28.848,0,0,0-.112,5.061c.476,4.1,1.578,6.732,2.707,11.9,0,0,2.676.437,3.866-.487,0,0,.073-17.7.073-19.263,0-2.374-10.312-9.465-12.264-11.112-1.114-.943-2.359-1.933-2.359-1.933Z" transform="translate(-133.798 -205.185)"/><path class="m" d="M173.72,243.268s1.578-.773,2.981-3.758a7.566,7.566,0,0,1-.967,3.051c-.63.986,9.187,7.609,9.187,7.609Z" transform="translate(-152.66 -213.391)"/></g><g transform="translate(3.459 0)"><path class="k" d="M172.35,151.626l16.193-.116s10.737-3.232,11.626-4.876c.978-1.84,1.284-4.69,1.84-6.418.418-1.288,1.574-.634,1.423,3.665a22.17,22.17,0,0,1-.093,4.156c-.174.831-1.067,1.508-2.1,2.2a78.72,78.72,0,0,1-9.666,5.274,10.8,10.8,0,0,1-4.377.951c-3.294.217-11.213.677-11.213.677Z" transform="translate(-155.278 -133.092)"/><path class="f" d="M169.61,169.974l9.871-.174a5.033,5.033,0,0,1,.425,5.842c-.267.139-7.312.626-7.312.626Z" transform="translate(-153.598 -151.598)"/><path class="j" d="M169.61,169.974l9.871-.174a5.033,5.033,0,0,1,.425,5.842c-.267.139-7.312.626-7.312.626Z" transform="translate(-153.598 -151.598)"/><path class="a" d="M147.7,170.282c-.387.093-3.6.847-5.026,1.326v10.838l.066,13.873c2.32,2.54,14.078,1.384,15.516-4.017V176.063c0-2.594-1.442-5.711-5.413-5.943Z" transform="translate(-137.074 -151.795)"/><path class="j" d="M142.7,197.248l2.351-6.658-2.3,14.642Z" transform="translate(-137.093 -164.35)"/><path class="c" d="M149.765,136.172a1.782,1.782,0,0,0-1.469.518c-.63.646-.5,1.84,0,4.582l1.945.24Z" transform="translate(-140.264 -130.966)"/><path class="c" d="M180.305,133.6a3.093,3.093,0,0,0,1.222-.247c.6-.344.754.336.425.928a2.788,2.788,0,0,1-2.262,1.508c-.019-.085-.561-1.523-.561-1.523Z" transform="translate(-159.437 -129.187)"/><path class="k" d="M149.853,138.042c-.286.17-.7-.387-1.059-.773a1.25,1.25,0,0,0-2.1.34,2.643,2.643,0,0,0,1.431,3.186c1.581.495,1.821-.518,1.821-.518l.12,5.7a5.089,5.089,0,0,0,3.839,2.911c2.8.379,2.223-1.933,1.3-3.062v-1.736a9.983,9.983,0,0,0,2.13.108,2.9,2.9,0,0,0,2.25-2.355,15.963,15.963,0,0,0,.487-7.551c-.526-4.358-5.8-4.481-8.506-2.757S149.853,138.042,149.853,138.042Z" transform="translate(-139.44 -127.496)"/><path class="c" d="M153.149,133.746c-.143,0-.7-.916-1.059-1.245-.5-.456.147-4.57.147-4.57a2.8,2.8,0,0,1,.483-2.594c.99-1.048,2.9-.858,4.3-.909a12.554,12.554,0,0,0,5-1.005c1.984-.862,2.134-.963,2.378-.093a4.877,4.877,0,0,1-.843,4.211l-.986.36a4.763,4.763,0,0,1-2.386.7,27.476,27.476,0,0,1-5.131-.1c-.537-.073-.653.445-.943,1.868C153.872,131.62,153.641,133.735,153.149,133.746Z" transform="translate(-142.736 -122.725)"/><path class="c" d="M150,134.637l-1.752-.94a.967.967,0,0,1,1.326-.437A1.044,1.044,0,0,1,150,134.637Z" transform="translate(-140.497 -129.117)"/><path class="n" d="M161.456,162.1a19.851,19.851,0,0,1-3.5-1.005,2.969,2.969,0,0,1-1.253-1.241,4.118,4.118,0,0,0,.711,1.465c.665.847,4.044,1.473,4.044,1.473Z" transform="translate(-145.679 -145.496)"/><path class="c" d="M168.195,147.755a.522.522,0,1,1-.522-.545A.537.537,0,0,1,168.195,147.755Z" transform="translate(-152.09 -137.743)"/><path class="c" d="M166.593,142.289l-1.233.305a.665.665,0,0,1,.479-.773.619.619,0,0,1,.754.468Z" transform="translate(-150.983 -134.426)"/><path class="n" d="M170.1,157.52l1.187.445a.623.623,0,0,1-.8.387A.665.665,0,0,1,170.1,157.52Z" transform="translate(-153.879 -144.066)"/><path class="c" d="M179.3,142.5l-1.206-.437a.615.615,0,0,1,.8-.387A.677.677,0,0,1,179.3,142.5Z" transform="translate(-158.799 -134.326)"/><path class="c" d="M178.485,147.5a.522.522,0,1,1-.522-.545A.534.534,0,0,1,178.485,147.5Z" transform="translate(-158.401 -137.583)"/><path class="n" d="M172.91,147.61l.174,3.128,1.632-.557Z" transform="translate(-155.622 -137.988)"/><path class="k" d="M128.21,199.541c-.193-.928,1.879-10.107,2.707-13.011l4.033,4.226-2.4,8.893a32.456,32.456,0,0,0,1.33,6.43,1.647,1.647,0,0,0,.773.878,9.591,9.591,0,0,1,2.111,1.755c.576.53,1.048.638.99.824a.889.889,0,0,1-1.114.483,6.449,6.449,0,0,1-1.353-.619,8.309,8.309,0,0,0,1.489,2.2c1.4,1.489,1.52,2.455-1.079,2.652-1.628.128-3-.773-4.466-4.3-.421-1.013-.955-2.482-1.353-3.808a61.864,61.864,0,0,1-1.666-6.612Z" transform="translate(-128.197 -161.86)"/><path class="f" d="M136.936,179.762c.808-2.873.178-5.726-.994-6.832-2.993.51-3.747,1.933-4.566,4.7-1.264,4.28-1.906,7.06-1.906,7.06.746,1,4.141,2.239,5.541,1.813Z" transform="translate(-128.978 -153.518)"/><path class="j" d="M136.936,179.762c.808-2.873.178-5.726-.994-6.832-2.993.51-3.747,1.933-4.566,4.7-1.264,4.28-1.906,7.06-1.906,7.06.746,1,4.141,2.239,5.541,1.813Z" transform="translate(-128.978 -153.518)"/><path class="c" d="M164.407,144.855a1.357,1.357,0,0,0,0,2.707h.247a1.357,1.357,0,0,0,0-2.707Zm-1.6,1.357a1.616,1.616,0,0,1,1.6-1.632h.247a1.632,1.632,0,0,1,0,3.259h-.247a1.612,1.612,0,0,1-1.6-1.628Z" transform="translate(-149.427 -136.13)"/><path class="c" d="M177.017,144.855a1.357,1.357,0,0,0,0,2.707h.247a1.357,1.357,0,0,0,0-2.707Zm-1.6,1.357a1.616,1.616,0,0,1,1.6-1.632h.247a1.632,1.632,0,0,1,0,3.259h-.247a1.612,1.612,0,0,1-1.6-1.628Z" transform="translate(-157.161 -136.13)"/><path class="c" d="M171.3,146.867a1.063,1.063,0,0,1,.847-.441.862.862,0,0,1,.739.282l.213-.162a1.1,1.1,0,0,0-.967-.387,1.3,1.3,0,0,0-1.059.572Z" transform="translate(-154.493 -137.094)"/><path class="c" d="M152.359,147.989h4.021v-.259H152.1A.92.92,0,0,1,152.359,147.989Z" transform="translate(-142.858 -138.062)"/></g></g><g transform="translate(142.069 54.206)"><path class="o" d="M378.329,139.54c-3.592-.336-5.7,2.088-6.84,4.532-1.373,2.958-3.866,9.33-3.866,9.33s-10.614,1.8-12.033,2.088l1.052,3s9.89-.217,11.433-.3c1.365-.073,2.482.139,3.294-1.237s3.812-9.457,3.812-9.457Z" transform="translate(-349.37 -113.56)"/><path class="d" d="M399.526,139.367s-2.664-.541-4.145.5c-1.96,1.376-2.533,3.136-3.538,5.282s-1.694,3.979-1.694,3.979,2.784,3,5.231,2.649S399.526,139.367,399.526,139.367Z" transform="translate(-370.567 -113.386)"/><path class="o" d="M345.707,180.84a7.611,7.611,0,0,0-5.6,3.406,2.476,2.476,0,0,0-.031,3.205c.843,1,1.291.831,2.981-1.025a6.234,6.234,0,0,1,2.076-1.678c.228,0-.773,1.086-.232,1.837s.955-.6,1.307-1.032a4.543,4.543,0,0,0,1.11-2.707" transform="translate(-339.503 -138.91)"/><rect class="o" width="3.665" height="6.279" transform="translate(36.986 99.723) rotate(-1.64)"/><path class="c" d="M426.67,340.834v-.522c-.344.162-1.071,3.294-2.49,4.663-1.125,1.086-2.668,2.351-3.035,3.538s2.25,1.837,3.325,1.612c1.249-.255,3.4-1.2,3.924-2.038s.742-2.049,1.16-2.664,1.431-1.315,1.651-2.014a4.535,4.535,0,0,0-.263-1.933c-.2-.715-.387-1.353-.615-1.284v.387a2.912,2.912,0,0,1-1.813.673C427.98,341.313,426.677,341.243,426.67,340.834Z" transform="translate(-389.556 -236.646)"/><path class="o" d="M412.123,324.343l-3.658.232-.375-6.639,3.843-.236Z" transform="translate(-381.571 -222.854)"/><path class="c" d="M395.287,332.009c-.189,0-.336.282-.742.75a8.045,8.045,0,0,1-2.115,1.612c-1.353.727-3.99,1.86-5.181,2.44-.746.36-.684,1.272.112,1.767a7.08,7.08,0,0,0,4.934.247c1.226-.309,2.8-1.5,3.812-1.462s2.915-.039,3.65-.576.387-1.632.162-2.571c-.259-1.029-.6-2.633-.936-2.552v.356c-.421.681-2.707,1.017-3.673.553Z" transform="translate(-368.466 -231.418)"/><path class="f" d="M417.131,201.523c.1,3.5.066,23.879.066,23.879.112,1.005,1.133,2.768,1.315,6.4.259,5.258-1.353,19.765-1.353,19.765a4.829,4.829,0,0,1-4.079.2s-2.223-19.537-3.031-24.745c-.7-4.528-2.03-16.85-2.03-16.85l-1.3,14.89a20.848,20.848,0,0,1,.622,5.8c-.1,2.413-.356,17.349-.356,17.349a5,5,0,0,1-4.222.445s-3.194-21.188-3.3-23.4c-.12-2.517.151-28.268.151-28.268Z" transform="translate(-376.26 -148.81)"/><path class="l" d="M417.131,201.523c.1,3.5.066,23.879.066,23.879.112,1.005,1.133,2.768,1.315,6.4.259,5.258-1.353,19.765-1.353,19.765a4.829,4.829,0,0,1-4.079.2s-2.223-19.537-3.031-24.745c-.7-4.528-2.03-16.85-2.03-16.85l-1.3,14.89a20.848,20.848,0,0,1,.622,5.8c-.1,2.413-.356,17.349-.356,17.349a5,5,0,0,1-4.222.445s-3.194-21.188-3.3-23.4c-.12-2.517.151-28.268.151-28.268Z" transform="translate(-376.26 -148.81)"/><path class="m" d="M413.415,226.72a13.6,13.6,0,0,1-5.185-2.78,10.542,10.542,0,0,0,4.013,3.449l-.019,12.968Z" transform="translate(-381.657 -165.346)"/><path class="e" d="M414.933,141.12c.8.36,1.26,1.52,1.585,2.343a8.464,8.464,0,0,1,1.16,3.317l-.619,7.037.271,12.593a16.978,16.978,0,0,1-17.89-1.392s.464-16.239.464-19.1v-.387a6.434,6.434,0,0,1,5.069-5.912c.99-.224,6.434.9,6.434.9l3.518.6Z" transform="translate(-376.265 -113.612)"/><path class="c" d="M411.773,100.816a5.026,5.026,0,1,1-5.026-5.026A5.026,5.026,0,0,1,411.773,100.816Z" transform="translate(-377.664 -86.745)"/><path class="c" d="M433.806,118.06a44.078,44.078,0,0,1-1.141,4.466,1.751,1.751,0,0,1-1.005.812l.058-2.707Z" transform="translate(-396.028 -100.404)"/><path class="c" d="M433.732,103.819a1.891,1.891,0,0,1,1.566.549c.673.688.3,2.842-.541,4.949l-1.547.174Z" transform="translate(-396.978 -91.662)"/><path class="o" d="M414.6,105.782c.309.182.75-.41,1.129-.808a1.34,1.34,0,0,1,2.243.363,2.817,2.817,0,0,1-1.523,3.395c-1.686.53-1.933-.553-1.933-.553L414.384,115h0c-2.092,2.707-7.907,2.482-5.487-.325v-2.424a10.776,10.776,0,0,1-2.273.12,3.079,3.079,0,0,1-2.393-2.513c-.6-2.154-.835-3.894-.321-8.12.561-4.64,5.962-4.69,8.893-2.853S414.6,105.782,414.6,105.782Z" transform="translate(-378.833 -87.949)"/><path class="c" d="M412.8,103.443c.155,0,.746-.974,1.129-1.326.534-.483-.155-4.868-.155-4.868a2.076,2.076,0,0,0-.51-2.219c-.731-.8-1.523-1.307-3.627-1.419a42.73,42.73,0,0,0-4.3.2,9.15,9.15,0,0,1-4.033-.7c-.912-.255-1.017,3.035,1.288,4.126a6.989,6.989,0,0,0,2.707.727,29.188,29.188,0,0,0,5.471-.1c.572-.077.692.476,1,1.991C412.069,101.177,412.293,103.431,412.8,103.443Z" transform="translate(-377.036 -85.091)"/><path class="c" d="M434.374,102.2l1.864-1a1.028,1.028,0,0,0-1.411-.468,1.114,1.114,0,0,0-.452,1.469Z" transform="translate(-397.62 -89.701)"/><path class="k" d="M417.292,131.443a21.172,21.172,0,0,0,3.731-1.071,3.186,3.186,0,0,0,1.338-1.322,4.377,4.377,0,0,1-.773,1.547c-.7.9-4.307,1.57-4.307,1.57Z" transform="translate(-387.208 -107.145)"/><path class="c" d="M417.66,115.8a.561.561,0,0,0,.553.572.58.58,0,0,0,0-1.16.572.572,0,0,0-.553.588Z" transform="translate(-387.44 -98.656)"/><path class="c" d="M419.18,110.731l1.183.653a.7.7,0,0,0-.275-.943.657.657,0,0,0-.909.29Z" transform="translate(-388.373 -95.681)"/><path class="k" d="M415.994,126.63l-1.264.476a.665.665,0,0,0,.862.418A.7.7,0,0,0,415.994,126.63Z" transform="translate(-385.643 -105.661)"/><path class="c" d="M405.08,110.741l1.079-.831a.653.653,0,0,0-.94-.147.719.719,0,0,0-.139.978Z" transform="translate(-379.644 -95.231)"/><path class="c" d="M406.147,115.357a.565.565,0,0,0,.553.576.576.576,0,0,0,.557-.58.557.557,0,1,0-1.11,0Z" transform="translate(-380.378 -98.374)"/><path class="k" d="M410.4,114.96l-.182,3.333-1.74-.592Z" transform="translate(-381.81 -98.503)"/><path class="d" d="M449.281,130.226c.305-.189,1.84.421,2.838,1.62s1.21,2.962.951,3.352-3.99-.959-3.99-.959Z" transform="translate(-406.712 -107.845)"/><path class="o" d="M448.628,95.272c-.507,1.257-6.681,10.142-8.162,12.268-4.118-1.817-1.3-6.646-1.3-6.646s4.435-7,5.158-8.158a2.622,2.622,0,0,0,.321-.974,80.227,80.227,0,0,0,.155-10.652,1.705,1.705,0,0,0-.607-1.052,9.665,9.665,0,0,1-1.759-2.215c-.476-.657-.928-.866-.831-1.04a.924.924,0,0,1,1.23-.255,6.465,6.465,0,0,1,1.233.909,8.588,8.588,0,0,0-1.044-2.536c-1.094-1.8-1.017-2.8,1.651-2.455,1.67.213,3.283,1.547,4.033,5.382a33.3,33.3,0,0,1,.309,4.207c.147,3.259.2,8.406.116,10.66A5.4,5.4,0,0,1,448.628,95.272Z" transform="translate(-400.055 -72.396)"/><path class="d" d="M436.827,135.407l4.791-5.127s-.116,4.106,3.789,4.972l-5.084,7.656c-.564,1.16-2.707.077-3.306-2.351C436.173,137.166,436.827,135.407,436.827,135.407Z" transform="translate(-399.049 -107.899)"/></g><g transform="translate(23.008 61.573)"><path class="p" d="M80.73,138.783c2.931-.251,4.226.6,5.8,2.811,1.875,2.664,5.637,9.326,5.637,9.326s10.764-.1,12.21-.07l-.5,3.132s-9.778,1.547-11.309,1.728c-1.353.166-2.42.576-3.48-.638s-5.413-8.634-5.413-8.634Z" transform="translate(-61.722 -120.455)"/><path class="p" d="M139.914,170.059a7.633,7.633,0,0,1,6.113,2.362,2.481,2.481,0,0,1,.6,3.151c-.65,1.137-1.129,1.044-3.116-.483a6.434,6.434,0,0,0-2.32-1.284c-.2.039.943.936.553,1.767s-1.048-.429-1.469-.773a4.528,4.528,0,0,1-1.574-2.482" transform="translate(-97.278 -139.664)"/><g transform="translate(5.435)"><path class="c" d="M47.386,333.43a19.26,19.26,0,0,0-.294,3.093c-.035,1.871-.387,2.533-.421,4.068a4.517,4.517,0,0,0,.963,3.395c.711.986,2.575,1.879,3.364.213a6.678,6.678,0,0,0,.437-4.477c-.251-1.721-.294-2.757-.445-4.114-.135-1.195-.294-2.1-.294-2.1Z" transform="translate(-46.263 -239.869)"/><path class="p" d="M52.489,295.232l-6.159-.112c.093,4.11.746,10.954.851,14.812,0,.723,0,5.641.255,7.134.414,2.246,3.093,1.933,3.217.6s-.17-7.083-.162-7.675c-.035-2.475,1.125-8.928,1.744-13.37C52.265,296.4,52.458,295.46,52.489,295.232Z" transform="translate(-46.058 -216.371)"/><path class="c" d="M84.355,325.15s-.321.019-.387.278-.073.8-.2,1.3a7.454,7.454,0,0,0-.22,2.44c.108.572,1.419,1.427,2.32,1.578a6.935,6.935,0,0,1,2.861,1.7,6.9,6.9,0,0,0,3.982,1.566,3.367,3.367,0,0,0,3.031-1.3c.495-.8-.449-.9-2.161-2.007l-1.326-.862c-2.707-1.771-3.7-2.707-4.466-4.489Z" transform="translate(-68.872 -234.79)"/><path class="p" d="M87.194,305.768c-.046-1.272.6-10.648.6-10.648l-5.3.6c1.253,7.478,1.353,10.022,1.214,11.108h0a1.059,1.059,0,0,0-.035.313c0,1.454,1.643,2.239,2.923,3.205a12.048,12.048,0,0,0,3.325,2.08c.982.333,2.8.46,3.035-.135a41.9,41.9,0,0,1-4.91-4.1A3.1,3.1,0,0,1,87.194,305.768Z" transform="translate(-68.243 -216.371)"/><path class="e" d="M48.625,186.383c-2.792,6.353-1.195,25.468-1.195,25.468-.085,1.025-1.257,3.039-1.694,7.547-.514,5.328.951,19.584.951,19.584a3.411,3.411,0,0,0,3.449.073s3.727-20.949,4.4-26.246c.584-4.64,2.215-14.221,2.215-14.221l2.668,14.182a27.6,27.6,0,0,0-1.009,4.559c-.3,3.116,2.734,18.749,2.734,18.749a4.278,4.278,0,0,0,3.433-.066s1.346-20.2,1.628-23.949c.472-6.3-1.2-25.963-2.359-29.695Z" transform="translate(-45.627 -147.216)"/><path class="i" d="M74.39,213.329l.684-4.706s3.971-.53,5.773-2.223a6.519,6.519,0,0,1-4.675,2.958l-.7,4.253,1.21,12.353Z" transform="translate(-63.269 -161.955)"/><path class="d" d="M68.178,109.443H57.456a5.606,5.606,0,0,1-5.606-5.606V99.993a7.733,7.733,0,0,1,7.714-7.733h.9A7.733,7.733,0,0,1,68.2,99.993Z" transform="translate(-49.444 -91.947)"/><path class="a" d="M57.335,138.9h0a6.888,6.888,0,0,0-2.726.584,3.4,3.4,0,0,0-1.879,3.19c-.019,1.624.387,2.664.87,5.336l.967,5.135s-.889,3.557-2.246,7.346a16.456,16.456,0,0,0,13.753.851,6.538,6.538,0,0,0,2.606-1.84c.081-.549-.6-5.819-.6-8.765,1.121-2.819,1.2-3.433.731-5.293-.882-3.46-4.3-6.828-5.8-6.7Z" transform="translate(-49.732 -120.45)"/><path class="q" d="M65.485,163.964h0c-10.177.719-10.691-5.916-10.111-6.933s1.74,0,1.74,0-2.212-4.257-1.825-5.641A33.012,33.012,0,0,0,56.2,144.7L53.6,142.64a3.48,3.48,0,0,0-.889,2.428c-.019,1.624.387,2.664.866,5.336l.986,5.135s-.889,3.557-2.246,7.346A16.568,16.568,0,0,0,65.485,163.964Z" transform="translate(-49.732 -122.847)"/><path class="d" d="M57.858,91.45l.53,2.022a1.017,1.017,0,0,1-1.288-.708,1.1,1.1,0,0,1,.758-1.315Z" transform="translate(-52.644 -91.45)"/><path class="d" d="M54.732,93.79l1.744,1.16a1.013,1.013,0,0,1-1.427.336,1.1,1.1,0,0,1-.317-1.5Z" transform="translate(-51.108 -92.885)"/><path class="p" d="M69.166,101.28c.862.51,1.933,2.679,1.821,7.226-.089,3.866-1.338,4.806-1.964,5.081a6.661,6.661,0,0,1-3.012-.089v2.32s1.624,1.887,1.523,2.946-2.347,1.311-3.866.275a9.836,9.836,0,0,1-2.509-2.618v-5.993a1.526,1.526,0,0,1-2.065,0,2.223,2.223,0,0,1-.429-3.321,1.547,1.547,0,0,1,2.494.692,9.281,9.281,0,0,0,4.373-1.3A7.018,7.018,0,0,0,69.166,101.28Z" transform="translate(-53.281 -97.479)"/><path class="c" d="M77.646,116.736a.484.484,0,1,1-.5-.462A.484.484,0,0,1,77.646,116.736Z" transform="translate(-64.673 -106.676)"/><path class="r" d="M80.6,125.91l1.125.36a.584.584,0,0,1-.731.387A.623.623,0,0,1,80.6,125.91Z" transform="translate(-67.063 -112.586)"/><path class="c" d="M87.9,112.111l-.982-.68a.572.572,0,0,1,.816-.166A.626.626,0,0,1,87.9,112.111Z" transform="translate(-70.954 -103.539)"/><path class="c" d="M87.336,115.829a.487.487,0,0,1-.456.526.5.5,0,0,1-.51-.479.484.484,0,1,1,.967-.046Z" transform="translate(-70.616 -106.12)"/><path class="r" d="M82.75,115.84l.077,2.919,1.535-.476Z" transform="translate(-68.396 -106.41)"/><path class="r" d="M71.914,129.862c-1.237-.162-3.789-.9-4.184-1.9a2.606,2.606,0,0,0,.878,1.284,13.581,13.581,0,0,0,3.29,1.388Z" transform="translate(-59.184 -113.843)"/></g><path class="f" d="M50.448,194.233a.193.193,0,0,1-.077.174l-.209.12L38.737,187.78a.6.6,0,0,1-.267-.464V175.33l11.986,6.925Z" transform="translate(-35.802 -142.898)"/><path class="i" d="M50.448,194.233a.193.193,0,0,1-.077.174l-.209.12L38.737,187.78a.6.6,0,0,1-.267-.464V175.33l11.986,6.925Z" transform="translate(-35.802 -142.898)"/><path class="f" d="M49.922,194.533c0,.174-.12.24-.267.155L38.211,188.08a.6.6,0,0,1-.271-.464V175.63l11.986,6.925Z" transform="translate(-35.477 -143.082)"/><path class="s" d="M49.922,194.533c0,.174-.12.24-.267.155L38.211,188.08a.6.6,0,0,1-.271-.464V175.63l11.986,6.925Z" transform="translate(-35.477 -143.082)"/><path class="q" d="M35.751,181.013v8.893a.588.588,0,0,0,.271.468l10.552,6.094v1.16l1.025-.592h0c.077,0,.135-.073.135-.186V186.681L35.747,179.76l-1.117.646Z" transform="translate(-33.447 -145.615)"/><path class="t" d="M46.612,198.41c0,.17-.12.24-.271.155L34.9,191.957a.588.588,0,0,1-.271-.464V181.32l11.986,6.925Z" transform="translate(-33.447 -146.572)"/><path class="b" d="M46.608,187.217l1.121-.646L35.747,179.65l-1.117.646Z" transform="translate(-33.447 -145.548)"/><path class="c" d="M64.021,199.518a.325.325,0,0,1,.077.07.263.263,0,0,1,.077.139.073.073,0,0,1,0,.05c0,.093-.07.124-.162.07a.321.321,0,0,1-.1-.1.3.3,0,0,1-.062-.159.027.027,0,0,1,0-.019C63.87,199.491,63.936,199.467,64.021,199.518Z" transform="translate(-51.366 -157.717)"/><path class="c" d="M62.889,196.336a.735.735,0,0,0,.093.387.472.472,0,0,0,.348.244.545.545,0,0,0,.259-.019.263.263,0,0,0-.077-.139.356.356,0,0,1-.24-.019.445.445,0,0,1-.228-.445,1.473,1.473,0,0,1,.665-1.16c.367-.213.665-.046.669.387l.151.089a.568.568,0,0,0,0-.081.735.735,0,0,0-.089-.387h0a.483.483,0,0,0-.352-.24.684.684,0,0,0-.456.1,1.612,1.612,0,0,0-.742,1.28Z" transform="translate(-50.779 -154.93)"/><path class="f" d="M62.57,197.47l.793,11.476.147-.085a.3.3,0,0,0,.135-.232l-.87-11.279Z" transform="translate(-50.584 -156.404)"/><path class="i" d="M62.57,197.47l.793,11.476.147-.085a.3.3,0,0,0,.135-.232l-.87-11.279Z" transform="translate(-50.584 -156.404)"/><path class="f" d="M44.432,197.694c0,.174-.12.244-.267.155l-11.445-6.608a.6.6,0,0,1-.267-.464L31.58,179.29l11.986,6.925Z" transform="translate(-31.576 -145.327)"/><path class="f" d="M46.216,182.235,34.238,175.31l-2.668,1.543,11.986,6.917Z" transform="translate(-31.57 -142.886)"/><path class="j" d="M46.216,182.235,34.238,175.31l-2.668,1.543,11.986,6.917Z" transform="translate(-31.57 -142.886)"/><path class="e" d="M58.637,189.76a.487.487,0,0,1,.035.425.7.7,0,0,1-.317.34,1.632,1.632,0,0,1-1.489,0,.773.773,0,0,1-.286-.267.557.557,0,0,1,.286-.773,1.632,1.632,0,0,1,1.489,0,.735.735,0,0,1,.282.271Z" transform="translate(-46.872 -151.47)"/><path class="a" d="M58.277,190.64a.387.387,0,1,0,0-.773,1.465,1.465,0,0,0-1.33,0,.387.387,0,0,0,0,.773A1.477,1.477,0,0,0,58.277,190.64Z" transform="translate(-46.898 -151.716)"/><path class="a" d="M43.411,182.144l.2-.116a.445.445,0,0,0,0-.843l-5.193-3a1.632,1.632,0,0,0-1.465,0l-.2.116a.449.449,0,0,0,0,.847l5.2,3a1.6,1.6,0,0,0,1.462,0Z" transform="translate(-34.565 -144.542)"/><path class="f" d="M65.234,193.4l-2.652,1.531-.012-.178,2.66-1.535Z" transform="translate(-50.584 -153.871)"/><path class="i" d="M65.234,193.4l-2.652,1.531-.012-.178,2.66-1.535Z" transform="translate(-50.584 -153.871)"/><path class="p" d="M47.829,139.69c-2.807.046-4.3.217-5.32,3.866-.773,2.707-2.641,9.125-3.178,11.82-.247,1.241.027,6.186.406,11.8.066.986.07,2.119.619,2.66,1.218,1.206,3.781,1.953,4.044,1.16l-1.574-.909.731-13.417,3.232-8.893C46.6,148.463,49.2,142.516,47.829,139.69Z" transform="translate(-36.272 -121.038)"/><path class="p" d="M47.076,202.62a9.659,9.659,0,0,0,1.226,2.4c.41.708.7,2,.9,2.215s-.325.661-.974.108a6.034,6.034,0,0,1-1.106-1.547l.143,3.178-1.636-.387Z" transform="translate(-40.194 -159.636)"/></g><g transform="translate(65.655 42.739)"><path class="f" d="M161.624,100.2l-1.469-2.737,1.16-3.379V92l-3.584,2.069v2.069l1.547,2.668a.22.22,0,0,0,.1.093h0Z" transform="translate(-151.598 -72.953)"/><path class="u" d="M161.624,100.2l-1.469-2.737,1.16-3.379V92l-3.584,2.069v2.069l1.547,2.668a.22.22,0,0,0,.1.093h0Z" transform="translate(-151.598 -72.953)"/><path class="f" d="M160.452,45.361a2.366,2.366,0,0,0-1.075-1.86l-.874-.507a2.382,2.382,0,0,0-2.146,0l-13.413,7.756a2.37,2.37,0,0,0-1.075,1.86V67.369a2.382,2.382,0,0,0,1.075,1.86l.874.507a2.389,2.389,0,0,0,2.15,0l4.311-2.494,1.547,2.664a.228.228,0,0,0,.414-.043l1.624-4.686,5.521-3.2a2.366,2.366,0,0,0,1.075-1.86Z" transform="translate(-141.87 -42.739)"/><path class="u" d="M141.87,81.354a2.37,2.37,0,0,0,1.075,1.86l.874.507a2.4,2.4,0,0,0,1.964.085c-.507.189-.889-.093-.889-.708V68.343a2.2,2.2,0,0,1,.313-1.059l-3.024-1.744a2.2,2.2,0,0,0-.313,1.056Z" transform="translate(-141.87 -56.724)"/><path class="v" d="M160.89,45.056c-.124-.456-.541-.6-1.036-.317l-13.417,7.768a2.127,2.127,0,0,0-.773.8l-3.024-1.744a2.2,2.2,0,0,1,.773-.8l13.413-7.768a2.39,2.39,0,0,1,2.15,0l.878.507A2.366,2.366,0,0,1,160.89,45.056Z" transform="translate(-142.342 -42.739)"/><path class="t" d="M166.642,67.729h0a.228.228,0,0,0-.077,0l-1.025-.058a.17.17,0,0,1-.174-.17c0-.162.023-.321.023-.479a3.7,3.7,0,0,0-.023-.51.5.5,0,0,1,.116-.3l1.16-1.388a.321.321,0,0,0,.07-.286l-.545-1.2a.1.1,0,0,0-.031-.039h0c-.046-.023-.112,0-.178.054l-1.222,1.117a.217.217,0,0,1-.267.046,1.891,1.891,0,0,0-.526-.305.189.189,0,0,1-.124-.213l.387-1.713a.108.108,0,0,0-.05-.124.217.217,0,0,0-.116,0l-1.195.12a.336.336,0,0,0-.263.182l-.65,1.74a.545.545,0,0,1-.263.255,5.413,5.413,0,0,0-.738.429c-.1.066-.213.073-.259,0l-.611-.936c-.043-.066-.143-.05-.22.031l-1.315,1.388a.36.36,0,0,0-.1.29l.367,1.237a.425.425,0,0,1-.066.3,10.1,10.1,0,0,0-.607,1.048.472.472,0,0,1-.282.213l-1.125.271a.387.387,0,0,0-.255.213l-.564,1.906c-.031.089.035.166.139.17l1.025.058a.17.17,0,0,1,.174.166,5.29,5.29,0,0,0,0,.99.5.5,0,0,1-.112.305l-1.16,1.388a.321.321,0,0,0-.07.286l.545,1.2a.108.108,0,0,0,.035.039h0a.077.077,0,0,0,.043,0h0a.224.224,0,0,0,.135-.062l1.222-1.121a.217.217,0,0,1,.267-.043,2.037,2.037,0,0,0,.526.3.2.2,0,0,1,.124.217l-.387,1.713a.108.108,0,0,0,.05.12h0a.17.17,0,0,0,.112,0l1.195-.116a.329.329,0,0,0,.263-.182l.65-1.744a.572.572,0,0,1,.263-.251c.124-.058.251-.128.387-.2s.24-.147.363-.228.213-.073.255,0l.611.936a.07.07,0,0,0,.031.027.155.155,0,0,0,.189-.058l1.318-1.388a.36.36,0,0,0,.1-.286l-.367-1.237a.425.425,0,0,1,.066-.3,9.544,9.544,0,0,0,.607-1.048.456.456,0,0,1,.286-.213l1.121-.271a.387.387,0,0,0,.255-.213l.553-1.91A.131.131,0,0,0,166.642,67.729Zm-6,4.64h-.464a1.21,1.21,0,0,1-1.129-.773,2.544,2.544,0,0,1-.182-.978,5.374,5.374,0,0,1,1.485-3.4,4.223,4.223,0,0,1,.9-.735,3.2,3.2,0,0,1,.3-.155,1.933,1.933,0,0,1,.851-.178h.143a1.2,1.2,0,0,1,.94.746c.51,1.121-.073,3.093-1.3,4.377a3.422,3.422,0,0,1-1.55,1.114Z" transform="translate(-150.461 -54.645)"/><path class="f" d="M331.24,100.2l1.454-2.737-1.16-3.379V92l3.584,2.069v2.069l-1.547,2.668a.2.2,0,0,1-.1.093h0Z" transform="translate(-258.02 -72.953)"/><path class="u" d="M331.24,100.2l1.454-2.737-1.16-3.379V92l3.584,2.069v2.069l-1.547,2.668a.2.2,0,0,1-.1.093h0Z" transform="translate(-258.02 -72.953)"/><path class="f" d="M309.1,45.361a2.366,2.366,0,0,1,1.075-1.86l.874-.507a2.389,2.389,0,0,1,2.15,0l13.409,7.756a2.37,2.37,0,0,1,1.075,1.86V67.369a2.37,2.37,0,0,1-1.075,1.86l-.874.507a2.382,2.382,0,0,1-2.146,0l-4.315-2.494-1.547,2.664a.228.228,0,0,1-.414-.043l-1.624-4.686-5.521-3.2a2.366,2.366,0,0,1-1.075-1.86Z" transform="translate(-244.435 -42.739)"/><path class="u" d="M350.963,81.354a2.37,2.37,0,0,1-1.075,1.86l-.874.507a2.393,2.393,0,0,1-1.964.085c.507.189.889-.093.889-.708V68.343a2.2,2.2,0,0,0-.313-1.059l3.024-1.744a2.2,2.2,0,0,1,.313,1.056Z" transform="translate(-267.718 -56.724)"/><path class="v" d="M309.2,45.056c.128-.456.541-.6,1.036-.317l13.417,7.768a2.127,2.127,0,0,1,.754.8l3.024-1.744a2.165,2.165,0,0,0-.773-.8l-13.393-7.768a2.389,2.389,0,0,0-2.15,0l-.878.507a2.378,2.378,0,0,0-1.036,1.554Z" transform="translate(-244.502 -42.739)"/><path class="t" d="M329.537,95.374l-1.887-1.1a.541.541,0,0,1-.22-.425v-.8c0-.162.1-.24.22-.166l1.906,1.1a.541.541,0,0,1,.224.429v.8C329.761,95.37,329.661,95.443,329.537,95.374Z" transform="translate(-255.684 -73.474)"/><path class="t" d="M326.383,78.531a1.817,1.817,0,0,1,.34.692.9.9,0,0,1-.387-.387c-.023-.05-.1-.209-.035-.282S326.356,78.508,326.383,78.531Z" transform="translate(-254.977 -64.677)"/><path class="t" d="M330.267,77.653a.193.193,0,0,1,.1.143.773.773,0,0,1-.1.487,1.307,1.307,0,0,1-.093-.6C330.185,77.642,330.2,77.619,330.267,77.653Z" transform="translate(-257.364 -64.144)"/><path class="t" d="M333.732,83h0c.023,0,.043.039.07.1a.189.189,0,0,1-.035.24c-.077.07-.217.062-.387-.05C333.523,83.07,333.651,83,333.732,83Z" transform="translate(-259.333 -67.433)"/><path class="t" d="M322.67,70.375c0,3.174,1.964,4.833,1.964,6.113h0v.537l2.069,1.2v-.541c0-1.28,1.964-.673,1.964-3.843a7.181,7.181,0,0,0-3-5.73C324.012,67.155,322.67,68.168,322.67,70.375Zm1.21,1.257c.085-.108.2-.1.336,0a2.4,2.4,0,0,1,.549,1.071.808.808,0,0,0,.286,0,.99.99,0,0,0,.464-.263,2.038,2.038,0,0,1-.182-1.032c.043-.182.17-.232.333-.135a.742.742,0,0,1,.333.518,1.121,1.121,0,0,1-.182.824,5.137,5.137,0,0,0,.464.8,3.281,3.281,0,0,0,.286.348c.162-.34.356-.5.549-.437a.638.638,0,0,1,.336.387.572.572,0,0,1-.054.65c-.139.124-.387.1-.688-.128a4.562,4.562,0,0,0-.186.665,13.506,13.506,0,0,0-.247,2.548c0,.093-.054.135-.12.1a.3.3,0,0,1-.128-.236,13.79,13.79,0,0,1,.255-2.633,5.345,5.345,0,0,1,.182-.665,3.616,3.616,0,0,1-.317-.387,5.529,5.529,0,0,1-.483-.82,1.106,1.106,0,0,1-.483.263.994.994,0,0,1-.317.023c.07.267.128.561.182.878a17.653,17.653,0,0,1,.255,2.927c0,.089-.054.128-.124.089h0a.306.306,0,0,1-.124-.24,17.872,17.872,0,0,0-.247-2.838c-.058-.336-.12-.626-.186-.874a1.38,1.38,0,0,1-.688-.669A.723.723,0,0,1,323.88,71.632Z" transform="translate(-252.764 -58.08)"/><path class="t" d="M330.009,62.989a.688.688,0,0,1-.259-.549v-.878c0-.22.116-.333.259-.247a.673.673,0,0,1,.259.545v.862C330.268,62.958,330.152,63.07,330.009,62.989Z" transform="translate(-257.106 -54.115)"/><path class="t" d="M324.6,62.082a.572.572,0,0,1-.224-.329l-.286-.932c-.073-.232-.031-.452.093-.491s.282.12.356.352l.286.932c.07.232.027.449-.1.487a.143.143,0,0,1-.128-.019Z" transform="translate(-253.615 -53.526)"/><path class="t" d="M320.648,65.893a.5.5,0,0,1-.128-.128l-.5-.731a.677.677,0,0,1-.093-.6c.07-.151.228-.124.352.058l.5.731a.677.677,0,0,1,.093.6.147.147,0,0,1-.224.07Z" transform="translate(-251.063 -55.986)"/><path class="t" d="M319.177,73.38l-.588-.329a.688.688,0,0,1-.259-.549c0-.22.116-.333.259-.247l.576.329a.688.688,0,0,1,.259.549C319.436,73.353,319.32,73.465,319.177,73.38Z" transform="translate(-250.102 -60.825)"/><path class="t" d="M320.147,82.445a.584.584,0,0,1-.224-.329c-.073-.232-.031-.452.093-.491l.5-.155c.124-.039.282.12.352.348s.031.452-.093.491l-.5.155a.17.17,0,0,1-.128-.019Z" transform="translate(-251.057 -66.492)"/><path class="t" d="M339.088,92.929a.386.386,0,0,1-.128-.128l-.5-.727a.681.681,0,0,1-.093-.6c.07-.151.228-.124.352.058l.5.731a.669.669,0,0,1,.093.6.143.143,0,0,1-.224.07Z" transform="translate(-262.373 -72.572)"/><path class="t" d="M340.491,85.676l-.576-.333a.68.68,0,0,1-.255-.549c0-.22.112-.329.255-.247l.576.333a.68.68,0,0,1,.259.545C340.75,85.645,340.634,85.758,340.491,85.676Z" transform="translate(-263.185 -68.366)"/><path class="t" d="M338.587,76.705a.572.572,0,0,1-.224-.329c-.073-.232-.031-.452.093-.487l.5-.159c.124-.039.282.12.352.352s.031.452-.093.487l-.5.159A.155.155,0,0,1,338.587,76.705Z" transform="translate(-262.367 -62.971)"/><path class="t" d="M334.967,68.33a.418.418,0,0,1-.128-.131.684.684,0,0,1-.1-.6l.29-.6c.07-.147.228-.12.352.062a.684.684,0,0,1,.1.6l-.271.6a.147.147,0,0,1-.244.07Z" transform="translate(-260.151 -57.562)"/></g><g transform="translate(55.993 107.551)"><g transform="translate(0)"><path class="d" d="M250,344.32v30.012a.854.854,0,0,0,.387.673l.827.479a.858.858,0,0,0,.773,0l.827-.479a.855.855,0,0,0,.387-.673V344.32c0-.247-.174-.348-.387-.224l-.827.479a.858.858,0,0,1-.773,0l-.827-.479C250.186,343.972,250,344.073,250,344.32Z" transform="translate(-198.529 -292.356)"/><path class="e" d="M254.577,375.484,255.4,375a.855.855,0,0,0,.387-.673V344.32c0-.247-.174-.348-.387-.224l-.827.479a.862.862,0,0,0-.387.673V375.26C254.19,375.507,254.364,375.608,254.577,375.484Z" transform="translate(-201.099 -292.356)"/><path class="d" d="M136.74,278.926v30.015a.854.854,0,0,0,.387.673l.827.476a.835.835,0,0,0,.773,0l.827-.476a.854.854,0,0,0,.387-.673V278.926c0-.247-.174-.348-.387-.224l-.82.468a.858.858,0,0,1-.773,0l-.827-.476C136.914,278.578,136.74,278.678,136.74,278.926Z" transform="translate(-129.061 -252.245)"/><path class="e" d="M141.287,310.106l.827-.476a.854.854,0,0,0,.387-.673V278.93c0-.247-.174-.348-.387-.224l-.827.468a.858.858,0,0,0-.387.677v30.008C140.9,310.106,141.07,310.218,141.287,310.106Z" transform="translate(-131.613 -252.249)"/><path class="d" d="M347.58,287.97v30a.866.866,0,0,0,.387.673l.827.479a.858.858,0,0,0,.773,0l.827-.479a.854.854,0,0,0,.387-.673v-30c0-.247-.174-.348-.387-.224l-.827.476a.858.858,0,0,1-.773,0l-.827-.476C347.742,287.622,347.58,287.723,347.58,287.97Z" transform="translate(-258.38 -257.794)"/><path class="e" d="M352.127,319.13l.827-.479a.854.854,0,0,0,.387-.673V287.97c0-.247-.174-.348-.387-.224l-.827.476a.87.87,0,0,0-.387.677v30.008C351.74,319.157,351.914,319.258,352.127,319.13Z" transform="translate(-260.932 -257.794)"/><path class="f" d="M116.88,239.786V239.5a1.547,1.547,0,0,1,.711-1.226l48.029-27.742a1.547,1.547,0,0,1,1.419,0l46.784,27.007a1.547,1.547,0,0,1,.711,1.226v.282a1.547,1.547,0,0,1-.711,1.226l-48.018,27.746a1.581,1.581,0,0,1-1.419,0L117.6,241.016A1.566,1.566,0,0,1,116.88,239.786Z" transform="translate(-116.88 -210.364)"/><g class="w"><path class="t" d="M116.88,239.786V239.5a1.547,1.547,0,0,1,.711-1.226l48.029-27.742a1.547,1.547,0,0,1,1.419,0l46.784,27.007a1.547,1.547,0,0,1,.711,1.226v.282a1.547,1.547,0,0,1-.711,1.226l-48.018,27.746a1.581,1.581,0,0,1-1.419,0L117.6,241.016A1.566,1.566,0,0,1,116.88,239.786Z" transform="translate(-116.88 -210.364)"/></g><path class="f" d="M165.123,310.759v1.933a1.512,1.512,0,0,1-.711-.17l-46.784-27.007a1.547,1.547,0,0,1-.708-1.226V284a1.547,1.547,0,0,1,.576-1.133c-.255.217-.213.522.131.727L164.412,310.6A1.423,1.423,0,0,0,165.123,310.759Z" transform="translate(-116.905 -254.836)"/><g class="x" transform="translate(0.015 28.034)"><path class="t" d="M165.123,310.759v1.933a1.512,1.512,0,0,1-.711-.17l-46.784-27.007a1.547,1.547,0,0,1-.708-1.226V284a1.547,1.547,0,0,1,.576-1.133c-.255.217-.213.522.131.727L164.412,310.6A1.423,1.423,0,0,0,165.123,310.759Z" transform="translate(-116.92 -282.87)"/></g><path class="f" d="M118.251,239.094l46.784,27.011a1.581,1.581,0,0,0,1.419,0l48.029-27.746a.429.429,0,0,0,0-.816L167.7,210.537a1.547,1.547,0,0,0-1.419,0l-48.029,27.742a.429.429,0,0,0,0,.816Z" transform="translate(-117.539 -210.364)"/><g class="y" transform="translate(0.416 0)"><path class="t" d="M118.251,239.094l46.784,27.011a1.581,1.581,0,0,0,1.419,0l48.029-27.746a.429.429,0,0,0,0-.816L167.7,210.537a1.547,1.547,0,0,0-1.419,0l-48.029,27.742a.429.429,0,0,0,0,.816Z" transform="translate(-117.955 -210.364)"/></g><path class="z" d="M330.836,272.863l.8-.943-1.666.445" transform="translate(-247.579 -248.12)"/></g><g transform="translate(52.071 5.902)"><path class="f" d="M258.05,256.08v.224a.939.939,0,0,0,.464.8l16.193,9.345a.893.893,0,0,0,.46.124.92.92,0,0,0,.468-.124l8.823-5.081a.924.924,0,0,0,.464-.8v-.309h0a.124.124,0,0,1-.058.1l-9.693,5.595Z" transform="translate(-255.538 -244.307)"/><g class="aa" transform="translate(2.512 11.773)"><path d="M258.05,256.08v.224a.939.939,0,0,0,.464.8l16.193,9.345a.893.893,0,0,0,.46.124.92.92,0,0,0,.468-.124l8.823-5.081a.924.924,0,0,0,.464-.8v-.309h0a.124.124,0,0,1-.058.1l-9.693,5.595Z" transform="translate(-258.05 -256.08)"/></g><path class="f" d="M258.05,247.17l9.6-5.545a.565.565,0,0,1,.553,0l16.657,9.62a.124.124,0,0,1,0,.213l-9.693,5.595Z" transform="translate(-255.538 -235.396)"/><path class="f" d="M258.05,247.17l9.6-5.545a.565.565,0,0,1,.553,0l16.657,9.62a.124.124,0,0,1,0,.213l-9.693,5.595Z" transform="translate(-255.538 -235.396)"/><g class="ab" transform="translate(2.512 6.157)"><path d="M258.05,247.17l9.6-5.545a.565.565,0,0,1,.553,0l16.657,9.62a.124.124,0,0,1,0,.213l-9.693,5.595Z" transform="translate(-258.05 -241.553)"/></g><g class="aa" transform="translate(4.55 9.113)"><path d="M278.488,260.927l5.181-2.985L268.524,249.2l-5.2,2.969Z" transform="translate(-263.32 -249.2)"/></g><path class="f" d="M263.32,252.163l.2.116,5.007-2.861,14.944,8.63.2-.112-15.141-8.746Z" transform="translate(-258.77 -240.081)"/><g class="ac" transform="translate(4.55 9.109)"><path d="M263.32,252.163l.2.116,5.007-2.861,14.944,8.63.2-.112-15.141-8.746Z" transform="translate(-263.32 -249.19)"/></g><g class="ac" transform="translate(15.024 9.871)"><path d="M297.652,253.82l-.1.058-2.54,1.465-4.512-2.606-.093-.054,2.633-1.523Z" transform="translate(-290.41 -251.16)"/></g><path class="f" d="M297.7,254.05l-2.54,1.465-4.512-2.606,2.54-1.469Z" transform="translate(-275.533 -241.461)"/><g class="x" transform="translate(15.117 9.979)"><path d="M297.7,254.05l-2.54,1.465-4.512-2.606,2.54-1.469Z" transform="translate(-290.65 -251.44)"/></g><path class="f" d="M275.167,265.963v.615a.894.894,0,0,1-.46-.124L258.514,257.1a.92.92,0,0,1-.464-.8v-.224Z" transform="translate(-255.538 -244.307)"/><path class="f" d="M275.167,265.963v.615a.894.894,0,0,1-.46-.124L258.514,257.1a.92.92,0,0,1-.464-.8v-.224Z" transform="translate(-255.538 -244.307)"/><g class="ac" transform="translate(2.512 11.773)"><path d="M275.167,265.963v.615a.894.894,0,0,1-.46-.124L258.514,257.1a.92.92,0,0,1-.464-.8v-.224Z" transform="translate(-258.05 -256.08)"/></g><path class="f" d="M270.923,247.683a1.09,1.09,0,0,1-.947-.073L253.856,238.3a1.086,1.086,0,0,1-.534-.773l-1.767-10.525a1.433,1.433,0,0,1,0-.182,1.114,1.114,0,0,1,.321-.773l16.757,9.666a.816.816,0,0,1,.387.565Z" transform="translate(-251.553 -225.888)"/><path class="f" d="M271.689,247.286l-.108.062a.9.9,0,0,1-.151.073l-1.906-11.391a.816.816,0,0,0-.387-.565L252.38,225.8a1.423,1.423,0,0,1,.224-.17l16.788,9.693a.812.812,0,0,1,.387.568Z" transform="translate(-252.06 -225.63)"/><g class="ad" transform="translate(0.32)"><path d="M271.689,247.286l-.108.062a.9.9,0,0,1-.151.073l-1.906-11.391a.816.816,0,0,0-.387-.565L252.38,225.8a1.423,1.423,0,0,1,.224-.17l16.788,9.693a.812.812,0,0,1,.387.568Z" transform="translate(-252.38 -225.63)"/></g><path class="ae" d="M296.31,251.381l.259-.151a.827.827,0,0,1,.155.352l1.91,11.406-.108.062a.9.9,0,0,1-.151.073l-1.906-11.391A.855.855,0,0,0,296.31,251.381Z" transform="translate(-279.005 -241.332)"/><g class="aa" transform="translate(7.452 9.75)"><path d="M273.662,253.171a3.538,3.538,0,0,0-1.624-2.088c-.781-.449-1.315-.244-1.195.46a3.572,3.572,0,0,0,1.624,2.092C273.248,254.087,273.782,253.879,273.662,253.171Z" transform="translate(-270.827 -250.846)"/></g></g><g transform="translate(16.163 5.663)"><path class="d" d="M158.689,258.682v.305a.9.9,0,0,0,.445.773L167.7,264.7a.885.885,0,0,0,.449.12.9.9,0,0,0,.452-.12l15.725-9.078a.909.909,0,0,0,.452-.773v-.217l-16.626,9.6-9.411-5.436A.116.116,0,0,1,158.689,258.682Z" transform="translate(-158.686 -243.177)"/><path class="e" d="M184.78,245.955l-9.322-5.386a.553.553,0,0,0-.537,0l-16.177,9.341a.12.12,0,0,0,0,.209l9.411,5.436Z" transform="translate(-158.682 -234.511)"/><g class="ab" transform="translate(0 5.989)"><path class="c" d="M184.78,245.955l-9.322-5.386a.553.553,0,0,0-.537,0l-16.177,9.341a.12.12,0,0,0,0,.209l9.411,5.436Z" transform="translate(-158.682 -240.5)"/></g><path class="c" d="M174.98,259.315l-5.03-2.9,14.708-8.491,5.057,2.888Z" transform="translate(-165.593 -239.062)"/><path class="c" d="M176.57,252.423l.093.05,2.463,1.423,4.385-2.529.093-.054-2.56-1.473Z" transform="translate(-169.654 -240.24)"/><path class="d" d="M176.81,252.639l2.463,1.423,4.385-2.529-2.467-1.423Z" transform="translate(-169.801 -240.405)"/><g class="x" transform="translate(7.009 9.705)"><path class="c" d="M176.81,252.639l2.463,1.423,4.385-2.529-2.467-1.423Z" transform="translate(-176.81 -250.11)"/></g><path class="d" d="M183.18,264.219v.607a.878.878,0,0,0,.449-.12l15.721-9.086a.9.9,0,0,0,.449-.773v-.217Z" transform="translate(-173.708 -243.177)"/><g class="x" transform="translate(9.472 11.453)"><path class="c" d="M183.18,264.219v.607a.878.878,0,0,0,.449-.12l15.721-9.086a.9.9,0,0,0,.449-.773v-.217Z" transform="translate(-183.18 -254.63)"/></g><path class="e" d="M183.84,246.426a1.063,1.063,0,0,0,.916-.073l15.659-9.04a1.063,1.063,0,0,0,.518-.742l1.713-10.223a.881.881,0,0,0,0-.174,1.056,1.056,0,0,0-.317-.773l-16.27,9.4a.793.793,0,0,0-.387.549Z" transform="translate(-174.113 -225.249)"/><g class="ab" transform="translate(9.727 0.151)"><path class="c" d="M183.84,246.426a1.063,1.063,0,0,0,.916-.073l15.659-9.04a1.063,1.063,0,0,0,.518-.742l1.713-10.223a.881.881,0,0,0,0-.174,1.056,1.056,0,0,0-.317-.773l-16.27,9.4a.793.793,0,0,0-.387.549Z" transform="translate(-183.84 -225.4)"/></g><path class="e" d="M183.18,246.055l.108.058c.046.027.1.05.147.073l1.852-11.066a.793.793,0,0,1,.387-.549l16.27-9.4a1.036,1.036,0,0,0-.217-.166l-16.3,9.415a.8.8,0,0,0-.387.549Z" transform="translate(-173.708 -225.01)"/><path class="af" d="M185.287,250.422l-1.852,11.062a1.017,1.017,0,0,1-.147-.07l-.108-.062,1.856-11.077a.773.773,0,0,1,.124-.305l.251.147A.774.774,0,0,0,185.287,250.422Z" transform="translate(-173.708 -240.319)"/><path class="f" d="M206.624,251.783a3.441,3.441,0,0,1,1.578-2.03c.773-.437,1.276-.236,1.16.449a3.48,3.48,0,0,1-1.581,2.03C207.03,252.669,206.508,252.468,206.624,251.783Z" transform="translate(-188.078 -240.045)"/></g><g transform="translate(6.544 23.73)"><path class="c" d="M141.357,273.92l-7.393,3.9-.155.236v.193a.278.278,0,0,0,.155.24l9.744,5.626a.549.549,0,0,0,.507,0l7.226-4.172v-.189Z" transform="translate(-133.808 -273.077)"/><path class="e" d="M143.957,283.676a.483.483,0,0,1-.251-.062l-9.744-5.626a.259.259,0,0,1,0-.476l7.068-4.083,10.409,6.02-7.226,4.172A.491.491,0,0,1,143.957,283.676Z" transform="translate(-133.806 -272.776)"/><path class="q" d="M141.29,272l-6.991,4.021-.07.1v.75h0a.12.12,0,0,0,.07.1l9.747,5.626a.363.363,0,0,0,.344,0l6.991-4.025V277.8Z" transform="translate(-134.066 -271.899)"/><path class="ag" d="M151.384,277.8l-.089.05-1.137.657-.213.124-5.552,3.2a.363.363,0,0,1-.344,0l-9.747-5.626a.108.108,0,0,1,0-.2l.093-.05,6.9-3.955,10,5.777h.023Z" transform="translate(-134.068 -271.899)"/><path class="ah" d="M144.217,288.429v.75a.309.309,0,0,1-.17-.043l-9.747-5.626a.12.12,0,0,1-.07-.1v-.75a.12.12,0,0,0,.07.1l9.747,5.626a.309.309,0,0,0,.17.043Z" transform="translate(-134.066 -278.437)"/><path class="t" d="M151.6,277.561l-1.26.727-.2.112-5.533,3.194a.363.363,0,0,1-.344,0l-8.727-5.026-.22-.124a2.181,2.181,0,0,1-.708-.615.164.164,0,0,0,0-.027.135.135,0,0,1-.023-.054.159.159,0,0,1,.124-.174,3.093,3.093,0,0,0,.657-.274h0l6.148-3.549Z" transform="translate(-134.285 -271.746)"/><path class="j" d="M175.114,286.493a.1.1,0,0,0,0,.189.387.387,0,0,0,.325,0,.1.1,0,0,0,0-.189A.387.387,0,0,0,175.114,286.493Z" transform="translate(-159.101 -280.767)"/><path class="c" d="M176.352,284.93a.437.437,0,0,0-.437.031,1.346,1.346,0,0,0-.545.773.387.387,0,0,0,.116,0,1.222,1.222,0,0,1,.491-.7.429.429,0,0,1,.2-.062.263.263,0,0,1,.12.031.46.46,0,0,1,.162.387.811.811,0,0,1,0,.1l.112.066a1.156,1.156,0,0,0,0-.162A.561.561,0,0,0,176.352,284.93Z" transform="translate(-159.299 -279.802)"/><path class="c" d="M178.393,286.87v.027h-.023Z" transform="translate(-161.139 -281.02)"/><path class="j" d="M172.584,285.033c-.089.054-.089.139,0,.189a.387.387,0,0,0,.325,0c.089-.05.089-.135,0-.189A.387.387,0,0,0,172.584,285.033Z" transform="translate(-157.55 -279.871)"/><path class="c" d="M173.826,283.45a.437.437,0,0,0-.437.031,1.381,1.381,0,0,0-.549.773.411.411,0,0,0,.12,0,1.229,1.229,0,0,1,.487-.7.444.444,0,0,1,.2-.062.236.236,0,0,1,.116.031.449.449,0,0,1,.162.387.81.81,0,0,1,0,.1l.112.066a.772.772,0,0,0,0-.162A.568.568,0,0,0,173.826,283.45Z" transform="translate(-157.748 -278.895)"/><path class="j" d="M170.06,283.575a.1.1,0,0,0,0,.186.336.336,0,0,0,.321,0c.093-.05.093-.135,0-.186A.337.337,0,0,0,170.06,283.575Z" transform="translate(-155.999 -278.974)"/><path class="c" d="M171.3,281.99a.437.437,0,0,0-.437.031,1.38,1.38,0,0,0-.549.773.32.32,0,0,0,.12,0,1.234,1.234,0,0,1,.491-.7.41.41,0,0,1,.2-.058.232.232,0,0,1,.116.027.448.448,0,0,1,.166.387.771.771,0,0,1,0,.1l.116.066a1.153,1.153,0,0,0,0-.162.561.561,0,0,0-.22-.46Z" transform="translate(-156.196 -277.999)"/><path class="j" d="M167.53,282.115a.1.1,0,0,0,0,.186.344.344,0,0,0,.325,0,.1.1,0,0,0,0-.186A.344.344,0,0,0,167.53,282.115Z" transform="translate(-154.448 -278.078)"/><path class="c" d="M168.772,280.535a.414.414,0,0,0-.433.031,1.338,1.338,0,0,0-.549.773.3.3,0,0,0,.12,0,1.206,1.206,0,0,1,.487-.7.387.387,0,0,1,.2-.062.2.2,0,0,1,.116.031.437.437,0,0,1,.162.387.774.774,0,0,1,0,.1l.112.066a1.163,1.163,0,0,0,0-.162A.553.553,0,0,0,168.772,280.535Z" transform="translate(-154.65 -277.105)"/><path class="j" d="M165.014,280.66c-.089.05-.089.135,0,.189a.359.359,0,0,0,.321,0c.093-.054.093-.139,0-.189A.36.36,0,0,0,165.014,280.66Z" transform="translate(-152.907 -277.188)"/><path class="c" d="M166.246,279.076a.422.422,0,0,0-.437.031,1.353,1.353,0,0,0-.549.773.318.318,0,0,0,.12,0,1.21,1.21,0,0,1,.491-.7.387.387,0,0,1,.2-.062.236.236,0,0,1,.116.031.441.441,0,0,1,.166.387.888.888,0,0,1,0,.1l.116.066a1.233,1.233,0,0,0,0-.162A.553.553,0,0,0,166.246,279.076Z" transform="translate(-153.098 -276.21)"/><path class="j" d="M162.484,279.2a.1.1,0,0,0,0,.189.386.386,0,0,0,.325,0,.1.1,0,0,0,0-.189A.387.387,0,0,0,162.484,279.2Z" transform="translate(-151.355 -276.295)"/><path class="c" d="M163.722,277.618a.429.429,0,0,0-.437.031,1.361,1.361,0,0,0-.545.773.387.387,0,0,0,.12,0,1.2,1.2,0,0,1,.487-.7.387.387,0,0,1,.2-.062.251.251,0,0,1,.12.031.445.445,0,0,1,.162.387.844.844,0,0,1,0,.1l.112.066a1.192,1.192,0,0,0,0-.162.553.553,0,0,0-.217-.46Z" transform="translate(-151.553 -275.317)"/><path class="j" d="M159.954,277.743c-.089.054-.089.139,0,.189a.386.386,0,0,0,.325,0c.089-.05.089-.135,0-.189A.387.387,0,0,0,159.954,277.743Z" transform="translate(-149.803 -275.4)"/><path class="c" d="M161.2,276.16a.437.437,0,0,0-.437.031,1.369,1.369,0,0,0-.549.773.411.411,0,0,0,.12,0,1.218,1.218,0,0,1,.487-.7.445.445,0,0,1,.2-.062.236.236,0,0,1,.116.031.448.448,0,0,1,.166.387.821.821,0,0,1,0,.1l.116.066a1.159,1.159,0,0,0,0-.162A.561.561,0,0,0,161.2,276.16Z" transform="translate(-150.001 -274.423)"/><path class="j" d="M157.43,276.285a.1.1,0,0,0,0,.186.344.344,0,0,0,.325,0,.1.1,0,0,0,0-.186A.344.344,0,0,0,157.43,276.285Z" transform="translate(-148.253 -274.503)"/><path class="c" d="M158.672,274.7a.437.437,0,0,0-.437.031,1.357,1.357,0,0,0-.545.773.289.289,0,0,0,.116,0,1.233,1.233,0,0,1,.491-.7.418.418,0,0,1,.2-.062.236.236,0,0,1,.116.031.448.448,0,0,1,.166.387.8.8,0,0,1,0,.1l.112.066a1.158,1.158,0,0,0,0-.162A.561.561,0,0,0,158.672,274.7Z" transform="translate(-148.455 -273.528)"/><path class="j" d="M154.89,274.825a.1.1,0,0,0,0,.186.344.344,0,0,0,.325,0,.1.1,0,0,0,0-.186A.344.344,0,0,0,154.89,274.825Z" transform="translate(-146.695 -273.607)"/><path class="c" d="M156.142,273.245a.421.421,0,0,0-.433.027,1.38,1.38,0,0,0-.549.773.309.309,0,0,0,.12,0,1.229,1.229,0,0,1,.487-.7.433.433,0,0,1,.2-.058.232.232,0,0,1,.116.027.449.449,0,0,1,.162.387.774.774,0,0,1,0,.1l.112.066a1.158,1.158,0,0,0,0-.162.553.553,0,0,0-.217-.456Z" transform="translate(-146.903 -272.634)"/><path class="j" d="M152.38,273.365a.1.1,0,0,0,0,.186.336.336,0,0,0,.321,0c.093-.05.093-.135,0-.186A.336.336,0,0,0,152.38,273.365Z" transform="translate(-145.155 -272.712)"/><path class="c" d="M153.616,271.786a.421.421,0,0,0-.437.031,1.353,1.353,0,0,0-.549.773.317.317,0,0,0,.12,0,1.21,1.21,0,0,1,.491-.7.387.387,0,0,1,.2-.062.2.2,0,0,1,.116.031.441.441,0,0,1,.166.387.747.747,0,0,1,0,.093l.116.066a1.131,1.131,0,0,0,0-.159.553.553,0,0,0-.22-.464Z" transform="translate(-145.352 -271.739)"/><path class="q" d="M157.359,289.353a.108.108,0,0,1-.054-.2l5.374-3.093a.109.109,0,1,1,.108.189l-5.374,3.093a.124.124,0,0,1-.054.015Z" transform="translate(-148.182 -280.51)"/><path class="q" d="M155.68,288.384a.108.108,0,0,1-.093-.054.112.112,0,0,1,.039-.151L161,285.086a.1.1,0,0,1,.147.043.108.108,0,0,1-.039.151l-5.374,3.093A.108.108,0,0,1,155.68,288.384Z" transform="translate(-147.156 -279.916)"/><path class="q" d="M153.995,287.414a.116.116,0,0,1-.1-.054.112.112,0,0,1,.043-.151l5.374-3.093a.11.11,0,0,1,.112.189l-5.378,3.093A.089.089,0,0,1,153.995,287.414Z" transform="translate(-146.121 -279.321)"/><path class="q" d="M152.313,286.445a.11.11,0,0,1-.058-.2l5.378-3.093a.112.112,0,0,1,.151.039.108.108,0,0,1-.043.151l-5.374,3.093A.1.1,0,0,1,152.313,286.445Z" transform="translate(-145.089 -278.727)"/><path class="q" d="M150.627,285.468a.112.112,0,0,1-.054-.209l5.374-3.093a.11.11,0,1,1,.112.189l-5.378,3.093A.128.128,0,0,1,150.627,285.468Z" transform="translate(-144.057 -278.125)"/><path class="q" d="M148.939,284.5a.108.108,0,0,1-.054-.2l5.374-3.093a.111.111,0,0,1,.108.193l-5.374,3.093A.124.124,0,0,1,148.939,284.5Z" transform="translate(-143.018 -277.533)"/><path class="q" d="M147.26,283.525a.108.108,0,0,1-.093-.054.112.112,0,0,1,.039-.151l5.378-3.093a.1.1,0,0,1,.147.043.108.108,0,0,1-.039.151l-5.374,3.093A.108.108,0,0,1,147.26,283.525Z" transform="translate(-141.992 -276.936)"/><path class="q" d="M145.575,282.554a.116.116,0,0,1-.1-.054.112.112,0,0,1,.043-.151l5.374-3.093a.11.11,0,0,1,.112.189l-5.378,3.093A.089.089,0,0,1,145.575,282.554Z" transform="translate(-140.957 -276.34)"/><path class="q" d="M143.9,281.585a.112.112,0,0,1-.058-.2l5.378-3.093a.112.112,0,0,1,.151.039.108.108,0,0,1-.043.151l-5.374,3.093a.167.167,0,0,1-.054.015Z" transform="translate(-139.931 -275.746)"/><path class="q" d="M142.207,280.6a.1.1,0,0,1-.093-.054.108.108,0,0,1,.039-.151l5.374-3.093a.108.108,0,0,1,.151.039.112.112,0,0,1-.039.151l-5.378,3.093A.124.124,0,0,1,142.207,280.6Z" transform="translate(-138.892 -275.143)"/><path class="q" d="M140.519,279.62a.108.108,0,0,1-.054-.2l5.374-3.093a.112.112,0,1,1,.108.193l-5.374,3.093A.089.089,0,0,1,140.519,279.62Z" transform="translate(-137.854 -274.535)"/><path class="q" d="M138.83,278.666a.108.108,0,0,1-.093-.054.112.112,0,0,1,.039-.151l5.378-3.093a.112.112,0,0,1,.151.043.108.108,0,0,1-.043.147l-5.374,3.093A.108.108,0,0,1,138.83,278.666Z" transform="translate(-136.821 -273.957)"/><path class="q" d="M137.155,277.744a.116.116,0,0,1-.1-.054.112.112,0,0,1,.043-.151l5.374-3.093a.11.11,0,1,1,.112.189l-5.378,3.093A.089.089,0,0,1,137.155,277.744Z" transform="translate(-135.792 -273.39)"/><path class="f" d="M159.073,290.021a.109.109,0,0,1-.054-.2l5.684-3.29a.11.11,0,1,1,.112.189l-5.688,3.29A.127.127,0,0,1,159.073,290.021Z" transform="translate(-149.235 -280.799)"/><g class="ai" transform="translate(4.502 2.456)"><path class="e" d="M162.984,284.232a.468.468,0,0,0-.22-.143.9.9,0,0,1-.1-.054c-.05-.077-.116-.209-.031-.224s.155.046.209.062.027-.039,0-.046c-.1-.039-.278-.155-.317,0a.24.24,0,0,0,.019.151.309.309,0,0,0-.139-.027c-.046,0-.085,0-.1.058a.1.1,0,0,0,0,.062.05.05,0,0,0,.043.046h-.05c-.066,0-.251-.046-.3.039s.023.081.019.1-.135.05-.159.066,0,.043,0,.046a1.66,1.66,0,0,1-.2,0c-.108,0-.387-.031-.34.135l.023.043a.21.21,0,0,0,0,.043l-.027.019c-.027.019-.046,0-.058.027s.027.085-.035.128-.278-.058-.387,0,.027.217-.116.22c-.031,0,0,.046,0,.05.131,0,.116,0,.143-.124.043-.178.309-.054.456-.1.019,0,.019-.027,0-.039s0-.1.066-.128a.027.027,0,0,0,0-.039c0-.027-.073-.116-.039-.159a.659.659,0,0,1,.159,0h.348a.023.023,0,0,0,.023-.031c0-.039.131-.062.166-.07a.023.023,0,0,0,0-.031c-.073-.178.193-.112.3-.1.023,0,.039,0,.031-.031s-.151-.124,0-.143a.264.264,0,0,1,.12.027.835.835,0,0,0,.275.282C162.957,284.4,163.065,284.36,162.984,284.232Zm-.05.031c.035.046-.07,0-.081,0a.387.387,0,0,1-.139-.147l.081.043a.333.333,0,0,1,.139.112Z" transform="translate(-154.806 -281.56)"/><path class="e" d="M157.236,287.644c0-.077,0-.162.05-.174s0-.05,0-.05c-.1,0-.128.081-.112.182a.77.77,0,0,0-.124-.043c-.062,0-.1,0-.124.05s0,.066,0,.1.046.031-.027.05a.35.35,0,0,1-.089,0,.135.135,0,0,0-.131.043c-.05.039.07.058-.07.035-.039,0-.073-.023-.112,0s-.077.023-.07.081.058.062.058.077c0,.124-.131.019-.182,0s-.035,0-.035.019.043.081-.046.089a.474.474,0,0,0-.093-.035c-.019,0-.108.073-.182.07s-.027,0-.023.031.05.089-.062.139h-.128c-.035,0,0,.05,0,.054s.224.077.278,0-.039-.112,0-.143a.25.25,0,0,1,.112-.035.2.2,0,0,1,.085-.023.126.126,0,0,0,.046.023h.066c.023,0,.023-.039.031-.043s-.027-.027,0-.043.054.019.081.027.1.046.139,0-.039-.1-.031-.139.147-.023.2-.062,0,0,0-.027c-.035-.12.186-.023.255-.039a.027.027,0,0,0,.027-.023L157,287.76c0-.073.12-.066.166-.054.043.151.162.3.29.259a.027.027,0,0,0,0-.023A.279.279,0,0,0,157.236,287.644Zm.046.12v-.035c.043.031.085.07.089.089s-.073-.05-.089-.073Z" transform="translate(-151.749 -283.813)"/><path class="e" d="M161.112,289.234a.491.491,0,0,0-.22-.139l-.108-.054c-.046-.081-.112-.213-.027-.228a.715.715,0,0,1,.209.062c.031,0,.027-.035,0-.046-.1-.035-.278-.155-.321,0a.275.275,0,0,0,.023.151.309.309,0,0,0-.139-.027c-.046,0-.085,0-.1.058s0,.043,0,.066.039.043.046.046h-.05c-.07,0-.255-.05-.3.035s.023.085.019.1-.135.05-.159.066,0,.043,0,.046a1.674,1.674,0,0,1-.2,0c-.108,0-.387-.031-.34.135,0,.019,0,0,.023.043s0,.039,0,.043,0,0-.027.023-.046,0-.058.023.027.089-.039.128-.275-.058-.367,0,.027.216-.116.22c-.035,0,0,.046,0,.05.135,0,.12,0,.147-.124.043-.178.309-.054.456-.1v-.039a.14.14,0,0,1,.066-.128.027.027,0,0,0,0-.039c0-.027-.073-.116-.039-.159s.139,0,.159-.019H160a.027.027,0,0,0,.023-.035c-.019-.035.131-.062.166-.07s.019-.019,0-.031c-.073-.178.193-.112.3-.093a.027.027,0,0,0,.031-.035c0-.062-.151-.12,0-.143a.263.263,0,0,1,.12.027.85.85,0,0,0,.275.286C161.085,289.392,161.189,289.353,161.112,289.234Zm-.05.031c.035.046-.07,0-.081,0a.363.363,0,0,1-.139-.147l.081.043A.333.333,0,0,1,161.062,289.265Z" transform="translate(-153.669 -284.629)"/><path class="e" d="M166.623,286.114c-.019-.077-.023-.162.05-.174s0-.05,0-.05c-.1,0-.128.081-.116.182a.645.645,0,0,0-.12-.043c-.062,0-.1,0-.124.05s0,.066,0,.1.046.031-.031.05a.39.39,0,0,1-.089,0,.139.139,0,0,0-.131.043c-.046.039.073.058-.07.035a.332.332,0,0,0-.108,0,.063.063,0,0,0-.07.085c.012.058.058.062.058.077,0,.124-.135.019-.186,0s-.031,0-.031.019.039.081-.046.089a.474.474,0,0,0-.093-.035c-.019,0-.108.073-.186.07,0,0-.027,0,0,.031s.05.089-.062.139h-.131c-.031,0,0,.05,0,.054s.224.077.275,0-.035-.112,0-.143a.226.226,0,0,1,.108-.035.232.232,0,0,1,.089-.023s.027.023.043.023h.066c.019,0,.023-.039.035-.043s-.027-.031,0-.043.054.019.077.027.108.046.143,0-.039-.1-.031-.139.143-.023.2-.062a.023.023,0,0,0,0-.027c-.035-.12.186-.023.255-.039s.027,0,.023-.023a.578.578,0,0,0-.027-.077c.019-.073.12-.066.162-.054.046.151.162.3.294.259a.027.027,0,0,0,0-.023A.427.427,0,0,0,166.623,286.114Zm.046.12a.151.151,0,0,1,0-.035.313.313,0,0,1,.089.089c0,.073-.089-.031-.1-.054Z" transform="translate(-157.517 -282.874)"/><path class="e" d="M152.711,278.574a.491.491,0,0,0-.22-.139l-.1-.054c-.05-.081-.116-.209-.031-.228a.715.715,0,0,1,.209.062c.031,0,.027-.035,0-.046-.1-.035-.278-.155-.317,0a.236.236,0,0,0,.019.151.309.309,0,0,0-.139-.027c-.046,0-.085,0-.1.058s0,.043,0,.066.039.043.046.046h-.05c-.07,0-.251-.05-.3.035s.023.085,0,.1-.135.05-.159.066,0,.043,0,.046a1.674,1.674,0,0,1-.2,0c-.108,0-.387-.031-.34.135,0,0,.019,0,.023.046s0,.035,0,.039,0,0-.027.023-.046,0-.058.023.027.089-.039.128-.275-.058-.367,0,.027.217-.116.22c-.035,0,0,.046,0,.05.135,0,.12,0,.147-.124.043-.178.309-.054.456-.1v-.039c0-.012,0-.1.066-.124a.027.027,0,0,0,0-.039c0-.031-.073-.12-.039-.162s.139,0,.159-.019h.348a.027.027,0,0,0,.023-.035c0-.035.131-.062.166-.07s0-.019,0-.031c-.073-.178.193-.112.3-.093a.027.027,0,0,0,.031-.035c0-.062-.151-.12,0-.143a.263.263,0,0,1,.12.027.85.85,0,0,0,.275.286C152.684,278.732,152.792,278.7,152.711,278.574Zm-.05.031c.035.046-.07,0-.081,0a.364.364,0,0,1-.139-.147l.081.043a.332.332,0,0,1,.139.1Z" transform="translate(-148.504 -278.09)"/><path class="e" d="M146.966,281.914c-.019-.077-.019-.162.05-.174s0-.05,0-.05c-.1,0-.128.081-.116.182a.429.429,0,0,0-.12-.039c-.062,0-.1,0-.124.05s.019.062,0,.1.046.031-.027.05a.692.692,0,0,1-.089,0c-.077,0-.085,0-.131.039s.07.062-.07.039a.282.282,0,0,0-.112,0,.063.063,0,0,0-.07.081c.008.054.058.062.058.077,0,.124-.131.019-.186,0s-.031,0-.031.019.043.085-.046.089a.474.474,0,0,0-.093-.035c-.019,0-.108.073-.182.07a.019.019,0,0,0-.023.031c.019.058.05.093-.062.139h-.128c-.035,0,0,.05,0,.054s.224.077.278,0-.039-.112-.019-.143.1-.031.112-.035a.274.274,0,0,1,.085-.023.126.126,0,0,0,.046.023h.062c.019,0,.027-.035.035-.043s-.027-.027,0-.043.054.019.081.027.1.046.139,0-.039-.1-.031-.139.143-.019.2-.058a.019.019,0,0,0,0-.027c-.035-.124.186-.027.255-.039s.027,0,.023-.027a.577.577,0,0,0-.027-.077c.019-.073.12-.066.166-.05.043.147.162.3.29.255a.027.027,0,0,0,0-.023C147.209,282.084,147.086,281.984,146.966,281.914Zm.046.124V282a.387.387,0,0,1,.089.089c.012.073-.077-.031-.089-.05Z" transform="translate(-145.45 -280.298)"/><path class="e" d="M150.817,283.555a.491.491,0,0,0-.22-.139l-.108-.054c-.05-.081-.112-.209-.027-.224s.155.043.209.058.023-.035,0-.043c-.1-.039-.278-.159-.321,0a.267.267,0,0,0,.023.151.309.309,0,0,0-.139-.027c-.046,0-.085,0-.1.058s0,.043,0,.066.039.043.046.046h-.05c-.07,0-.255-.046-.3.035s.023.085,0,.1-.135.05-.159.066,0,.043,0,.046a1.071,1.071,0,0,1-.193,0c-.108,0-.387-.031-.34.135,0,.019.019,0,.023.046a.062.062,0,0,0,0,.039l-.027.023c-.027.023-.046,0-.058.027s.027.085-.039.124-.275-.058-.367,0,.027.217-.116.217c-.035,0,0,.05,0,.05.135,0,.12,0,.147-.124.043-.178.305-.054.456-.1.019,0,.019-.023,0-.039s0-.1.066-.124a.027.027,0,0,0,0-.039c0-.031-.073-.12-.039-.162a.958.958,0,0,1,.159,0,2.611,2.611,0,0,1,.348,0,.027.027,0,0,0,.023-.035c-.019-.035.131-.058.166-.066a.027.027,0,0,0,0-.031c-.073-.182.189-.116.3-.1a.027.027,0,0,0,.031-.035c-.019-.058-.151-.12,0-.143a.275.275,0,0,1,.12.031.874.874,0,0,0,.275.282C150.79,283.714,150.895,283.679,150.817,283.555Zm-.05.035c.035.043-.07,0-.085,0a.387.387,0,0,1-.135-.147l.081.043A.309.309,0,0,1,150.767,283.59Z" transform="translate(-147.345 -281.147)"/><path class="e" d="M156.292,280.434c0-.077-.023-.162.05-.174s0-.05,0-.05c-.1,0-.128.081-.116.182a.429.429,0,0,0-.12-.039c-.062,0-.1,0-.124.05s0,.062,0,.1.046.031-.031.05a.772.772,0,0,1-.089,0c-.077,0-.085,0-.131.039s.073.062-.07.039a.255.255,0,0,0-.108,0c-.054,0-.081.027-.07.081s.058.062.058.077c0,.124-.135.019-.186,0s-.031,0-.031.019.039.085-.05.089a.715.715,0,0,0-.089-.035c-.058,0-.112.073-.186.07s-.027,0-.019.031.05.093-.062.139h-.131c-.031,0,0,.05,0,.054s.224.077.275,0-.035-.112-.019-.143.1-.031.112-.035a.332.332,0,0,1,.089-.023s.027.023.043.023h.066c.019,0,.023-.035.031-.043s-.023-.027,0-.043.05.019.077.027.108.046.143,0-.039-.1-.031-.139.143-.019.2-.058a.027.027,0,0,0,0-.027c-.035-.124.186-.027.255-.043,0,0,.027,0,.023-.023a.582.582,0,0,0-.027-.077c0-.073.116-.066.162-.05.046.147.162.3.29.255a.023.023,0,0,0,.019-.023C156.524,280.6,156.408,280.515,156.292,280.434Zm.046.12a.1.1,0,0,1,0-.035.387.387,0,0,1,.089.089C156.435,280.682,156.35,280.577,156.339,280.554Z" transform="translate(-151.169 -279.391)"/><path class="e" d="M151.882,286.985a.468.468,0,0,0-.22-.139l-.1-.054c-.05-.081-.116-.209-.027-.228a.773.773,0,0,1,.209.062c.031,0,.023-.035,0-.043-.093-.039-.278-.159-.317,0a.24.24,0,0,0,.023.151.324.324,0,0,0-.135-.039c-.046,0-.081,0-.1.058s0,.043,0,.066.035.043.046.046H151.2c-.066,0-.251-.05-.294.035s.023.085,0,.1-.135.05-.159.066,0,.043,0,.046a1.66,1.66,0,0,1-.2,0c-.1,0-.387-.031-.336.135,0,.019,0,0,.019.046v.039l-.023.023c-.023.023-.046,0-.062.023s.027.089-.035.128-.278-.058-.367,0,.023.22-.12.22c-.031,0,0,.05,0,.05.131,0,.12,0,.143-.124.043-.178.309-.054.46-.1a.027.027,0,0,0,0-.039c-.043-.062,0-.1.066-.124a.023.023,0,0,0,0-.039c0-.031-.07-.12-.035-.162s.139,0,.159-.019q.174-.009.348,0a.023.023,0,0,0,.019-.035c0-.035.135-.058.166-.066a.027.027,0,0,0,0-.035c-.07-.178.193-.112.3-.093a.027.027,0,0,0,.031-.035c0-.062-.147-.12,0-.143a.24.24,0,0,1,.124.031.835.835,0,0,0,.275.282C151.859,287.144,151.964,287.109,151.882,286.985Zm-.046.031c.031.046-.073,0-.085,0a.387.387,0,0,1-.139-.147.574.574,0,0,0,.085.043A.36.36,0,0,1,151.836,287.016Z" transform="translate(-148.004 -283.251)"/><path class="e" d="M156.478,284.174c-.019-.077-.023-.162.05-.17s0-.054,0-.054c-.1,0-.128.081-.116.182a.525.525,0,0,0-.12-.039c-.066,0-.1,0-.128.05s0,.062,0,.1.05.031-.027.05-.066,0-.089,0a.2.2,0,0,0-.131.039c-.046.039.07.062-.07.039a.263.263,0,0,0-.108,0c-.054,0-.081.027-.073.085s.062.058.062.073c0,.124-.135.019-.186,0s-.031,0-.031.019.039.085-.05.089a.424.424,0,0,0-.089-.035c-.019,0-.112.077-.186.07s-.027,0-.023.035.054.089-.058.135h-.135v.054s.228.077.278,0-.039-.108,0-.143a.207.207,0,0,1,.112-.035.5.5,0,0,1,.089-.023s.027.027.043.023a.371.371,0,0,1,.066,0c.019,0,.023-.035.031-.043s-.023-.027,0-.039.05,0,.077.027a.111.111,0,0,0,.143,0c.039-.043-.039-.1-.031-.139s.143,0,.2-.058a.027.027,0,0,0,0-.027c-.035-.124.186-.027.255-.039a.027.027,0,0,0,.023-.027l-.027-.077c0-.073.116-.062.162-.05.046.147.162.3.29.255h0A.331.331,0,0,0,156.478,284.174Zm.046.124-.019-.035a.294.294,0,0,1,.093.089c.023.073-.07-.035-.07-.054Z" transform="translate(-151.289 -281.684)"/><path class="e" d="M160.629,281.817a.035.035,0,0,0,0-.027c-.019-.077-.108-.019-.124.027s.019.062,0,.1.05.031-.027.05a.772.772,0,0,1-.089,0c-.077,0-.085,0-.131.039s.07.062-.07.039a.264.264,0,0,0-.108,0c-.054,0-.081.027-.073.081s.062.062.062.077c0,.124-.135,0-.186,0h-.031s.039.085-.05.089a.424.424,0,0,0-.089-.035c-.019,0-.112.073-.186.07s-.027,0-.023.031.054.093-.062.139h-.131c-.027,0,0,.05,0,.054s.228.077.278,0-.039-.112,0-.143a.25.25,0,0,1,.112-.035.3.3,0,0,1,.089-.023s.027.023.043.023h.066c.019,0,.023-.035.031-.043s-.023-.027,0-.043.05,0,.077.027a.106.106,0,0,0,.143,0c.039-.046-.039-.1-.031-.139s.143-.019.2-.058a.039.039,0,0,0,0-.027c-.035-.124.186-.027.255-.039a.027.027,0,0,0,.023-.027.364.364,0,0,1,0-.159A.112.112,0,0,0,160.629,281.817Z" transform="translate(-153.944 -280.336)"/></g></g><g transform="translate(21.053 30.464)"><path class="z" d="M171.33,295.125l.92.53,7.25-4.242.8-.943-1.67.441Z" transform="translate(-171.33 -289.961)"/><path class="k" d="M190.39,289.458l1.547-.3a.046.046,0,0,1,.046.077l-1.048,1.187Z" transform="translate(-183.02 -289.155)"/><path class="c" d="M193.948,289.234a.046.046,0,0,0-.046-.077l-.3.058h0a.267.267,0,0,1,.124.247v.019Z" transform="translate(-184.989 -289.155)"/><path class="f" d="M176.019,294.235l.128-.073.151-.085,5.483-3.143a.808.808,0,0,0-.541-.963l-5.479,3.143-.29.166C175.675,293.171,176.212,294.123,176.019,294.235Z" transform="translate(-173.869 -289.655)"/><path class="q" d="M177.263,298.475l.282-.162c.081-.043.035-.247-.062-.46-.128-.282-.387-.553-.495-.495l-.2.12-.073.043c.108-.058.363.217.491.495.093.2.139.387.07.456h0Z" transform="translate(-174.63 -294.181)"/><path class="f" d="M177,298.632c.193-.1-.36-1.059-.553-.955l-.282.159c.193-.1.746.854.553.955Z" transform="translate(-174.292 -294.377)"/><path class="q" d="M176.037,299.217l.278-.159c.193-.1-.333-1.025-.537-.963h0l-.278.162C175.693,298.153,176.231,299.1,176.037,299.217Z" transform="translate(-173.888 -294.637)"/><path class="aj" d="M183.412,289.187l-.054-.027-1.121.611-5.8,3.325h-.027c.162.259.286.584.178.638l.128-.073.151-.085,5.483-3.143h0l1.048-1.187A.058.058,0,0,0,183.412,289.187Z" transform="translate(-174.446 -289.158)"/><path class="n" d="M172.792,300.119l1.183-.677c.085-.043.039-.244-.058-.456-.128-.282-.387-.557-.491-.5h0l-1.191.68c-.236.135,0,.65.247.878A.278.278,0,0,0,172.792,300.119Z" transform="translate(-171.826 -294.874)"/><path class="j" d="M172.851,300.828a.851.851,0,0,0-.479-.584.209.209,0,0,0-.178.023c-.178.166.027.638.278.854a.286.286,0,0,0,.305.077C172.87,301.145,172.9,301.009,172.851,300.828Z" transform="translate(-171.819 -295.95)"/></g><g transform="translate(28.295 32.191)"><path class="z" d="M202.87,308.627a.928.928,0,0,0,.464-.116l7.733-4.466a.421.421,0,0,0,.236-.356.414.414,0,0,0-.236-.352l-1.38-.8.661-.387a.387.387,0,0,0,0-.711l-11.391-6.573a.928.928,0,0,0-.464-.116.948.948,0,0,0-.464.116l-7.733,4.466a.422.422,0,0,0-.236.356.414.414,0,0,0,.236.352l1.38.8-.661.387a.414.414,0,0,0-.236.352.421.421,0,0,0,.236.356l11.387,6.573a.947.947,0,0,0,.468.12Z" transform="translate(-190.06 -294.314)"/><path class="q" d="M192.32,303.278a.267.267,0,0,1,.159-.224l7.733-4.47a.858.858,0,0,1,.773,0l11.391,6.573a.275.275,0,0,1,.159.224v.352a.275.275,0,0,1-.159.224l-7.733,4.47a.858.858,0,0,1-.773,0l-11.391-6.573a.274.274,0,0,1-.159-.22Z" transform="translate(-191.446 -296.609)"/><path class="t" d="M212.4,305.167l-11.391-6.573a.858.858,0,0,0-.773,0l-7.733,4.47a.236.236,0,0,0,0,.449l11.391,6.573a.858.858,0,0,0,.773,0l7.733-4.47a.236.236,0,0,0,0-.449Z" transform="translate(-191.458 -296.615)"/><path class="ah" d="M223.2,321.107v.348a.773.773,0,0,0,.387-.093l7.733-4.466a.275.275,0,0,0,.162-.224v-.352a.267.267,0,0,1-.162.224l-7.733,4.47a.793.793,0,0,1-.387.093Z" transform="translate(-210.386 -307.544)"/><path class="q" d="M190.46,298.408a.267.267,0,0,1,.159-.224l7.733-4.47a.858.858,0,0,1,.773,0l11.391,6.573a.275.275,0,0,1,.159.224v.352a.274.274,0,0,1-.159.224l-7.733,4.466a.858.858,0,0,1-.773,0l-11.391-6.573a.275.275,0,0,1-.159-.22Z" transform="translate(-190.305 -293.622)"/><path class="t" d="M210.539,300.287l-11.391-6.573a.858.858,0,0,0-.773,0l-7.733,4.47a.236.236,0,0,0,0,.449l11.391,6.573a.858.858,0,0,0,.773,0l7.733-4.47a.236.236,0,0,0,0-.449Z" transform="translate(-190.317 -293.622)"/><path class="ah" d="M221.34,316.227v.348a.773.773,0,0,0,.387-.093l7.733-4.466a.274.274,0,0,0,.162-.224v-.352a.275.275,0,0,1-.162.224l-7.733,4.47a.793.793,0,0,1-.387.093Z" transform="translate(-209.246 -304.551)"/></g><g transform="translate(46.159 22.237)"><g class="ad" transform="translate(0.171 0.376)"><path class="e" d="M249.308,283.04a.847.847,0,0,1-.425-.108l-11.909-6.875a.46.46,0,0,1-.019-.827l9.836-6.256a.881.881,0,0,1,.468-.124.855.855,0,0,1,.425.1L251.226,271a.646.646,0,0,1,.251.851l-.143.278a.124.124,0,0,0,.046.155l7.138,4.153a.468.468,0,0,1,.019.831l-8.761,5.641a.893.893,0,0,1-.468.128Z" transform="translate(-236.705 -268.85)"/></g><path class="f" d="M249.249,283.781l8.92-5.166a.193.193,0,0,0,0-.367l-12.234-6.96a.7.7,0,0,0-.638,0l-8.839,5.1a.193.193,0,0,0,0,.367l12.152,7.018a.711.711,0,0,0,.638,0Z" transform="translate(-236.302 -269.922)"/><g class="ab" transform="translate(0.024 1.289)"><path class="e" d="M249.249,283.781l8.92-5.166a.193.193,0,0,0,0-.367l-12.234-6.96a.7.7,0,0,0-.638,0l-8.839,5.1a.193.193,0,0,0,0,.367l12.152,7.018a.711.711,0,0,0,.638,0Z" transform="translate(-236.326 -271.211)"/></g><path class="f" d="M236.413,274.335l10.053-6.38a.673.673,0,0,1,.63,0l3.615,2.088a.387.387,0,0,1,.151.51l-.147.29a.387.387,0,0,0,.151.51l7.284,4.253a.2.2,0,0,1,0,.387l-8.943,5.757a.665.665,0,0,1-.626,0l-12.152-7.018a.2.2,0,0,1-.015-.4Z" transform="translate(-236.263 -267.877)"/></g><g transform="translate(74.731 23.306)"><path class="z" d="M317.819,273.07l-7.659,4.412.92.53,7.605-4.443" transform="translate(-310.16 -272.13)"/><g transform="translate(0.456)"><path class="n" d="M331.072,271.8l.909-1.083a.043.043,0,0,0-.043-.07l-1.388.305Z" transform="translate(-323.123 -270.644)"/><path class="k" d="M331.958,270.65h0l-1.388.305.275.449.151-.093.971-.615Z" transform="translate(-323.135 -270.646)"/><path class="c" d="M333.674,270.648a.043.043,0,0,1,.043.07l-.178.209h0a.24.24,0,0,0-.139-.2h-.019Z" transform="translate(-324.858 -270.644)"/><path class="d" d="M314.29,275.233l.112-.066.135-.081,6.039-3.646a.626.626,0,0,1,.387.255.65.65,0,0,1,.139.588l-6.039,3.646-.259.155C314.951,275.975,314.452,275.136,314.29,275.233Z" transform="translate(-313.149 -271.131)"/><path class="e" d="M314.29,275.233l.112-.066.135-.081,6.039-3.646a.673.673,0,0,1,.441.344l-6.3,3.847v.023C314.565,275.415,314.379,275.175,314.29,275.233Z" transform="translate(-313.149 -271.131)"/><path class="q" d="M315.39,280.326l.251-.151c.07-.046.209.081.333.251s.271.541.174.6l-.182.112-.07.039c.1-.062,0-.387-.174-.6-.116-.162-.251-.286-.325-.255h0Z" transform="translate(-313.824 -276.482)"/><path class="d" d="M315.151,280.475c.166-.108.673.742.51.851l-.251.151c.166-.1-.344-.959-.51-.851Z" transform="translate(-313.524 -276.666)"/><path class="q" d="M314.29,281l.247-.147c.159-.108.657.711.522.843h0l-.251.147C314.951,281.744,314.452,280.9,314.29,281Z" transform="translate(-313.149 -276.899)"/><path class="k" d="M334.2,270.659a.042.042,0,0,0-.035-.019A.042.042,0,0,1,334.2,270.659Z" transform="translate(-325.343 -270.64)"/><path class="n" d="M311.429,281.873l1.052-.638c.07-.046.209.081.333.247.166.224.271.541.178.6h0l-1.056.638c-.209.128-.514-.267-.58-.572A.251.251,0,0,1,311.429,281.873Z" transform="translate(-311.34 -277.132)"/><path class="j" d="M311.75,282.978a.773.773,0,0,1,.247.634.178.178,0,0,1-.093.128c-.209.07-.487-.3-.549-.588a.251.251,0,0,1,.07-.275C311.507,282.831,311.626,282.862,311.75,282.978Z" transform="translate(-311.34 -278.133)"/></g></g></g></g></svg>