<svg xmlns="http://www.w3.org/2000/svg" width="146" height="67" viewBox="0 0 146 67"><defs><style>.a{fill:#207178;opacity:0.39;}</style></defs><path class="a" d="M132.469,0H13.273A13.562,13.562,0,0,0,0,13.581,13.556,13.556,0,0,0,13.532,27.162c.3,0,.607-.01.9-.03H27.2A23.325,23.325,0,0,0,41.928,45.138a23.154,23.154,0,0,0,19.189-1.282,29.993,29.993,0,0,0,59.177-6.281h.008V27.132h11.262c.3.02.6.03.905.03A13.556,13.556,0,0,0,146,13.581,13.559,13.559,0,0,0,132.728,0l-.144,0h-.115Z" transform="translate(146 67) rotate(180)"/></svg>